<svg xmlns="http://www.w3.org/2000/svg" width="857.568" height="278.992" viewBox="0 0 857.568 278.992">
  <g id="Grupo_84684" data-name="Grupo 84684" transform="translate(2167.318 4804.859)">
    <path id="Trazado_125163" data-name="Trazado 125163" d="M-597.107-6121.609s157.286,5.979,261.625-123.945,163.258-87.576,252.87,0,180.617,134.169,258.737,123.945" transform="translate(-1524 1524)" fill="none" stroke="#000" stroke-width="2"/>
    <path id="Trazado_125164" data-name="Trazado 125164" d="M-643.318-6120.218H214.25" transform="translate(-1524 1524)" fill="none" stroke="#0d66bf" stroke-width="2"/>
    <path id="Trazado_125165" data-name="Trazado 125165" d="M-335.286-6245.062v124.641" transform="translate(-1524 1524)" fill="none" stroke="#000" stroke-width="2"/>
    <path id="Trazado_125167" data-name="Trazado 125167" d="M-335.286-6245.062v124.641" transform="translate(-1270 1524)" fill="none" stroke="#707070" stroke-width="1"/>
    <path id="Trazado_125168" data-name="Trazado 125168" d="M-355-6120.422l21.109-14.387" transform="translate(-1524 1524)" fill="none" stroke="#707070" stroke-width="1"/>
    <path id="Trazado_125169" data-name="Trazado 125169" d="M-355-6112.386l33.717-22.423" transform="translate(-1538 1515.964)" fill="none" stroke="#707070" stroke-width="1"/>
    <path id="Trazado_125170" data-name="Trazado 125170" d="M-355-6105.13l44.717-29.679" transform="translate(-1549 1508.708)" fill="none" stroke="#70b446" stroke-width="1"/>
    <path id="Trazado_125171" data-name="Trazado 125171" d="M-355-6096.974l56.717-37.835" transform="translate(-1561 1500.552)" fill="none" stroke="#70b446" stroke-width="1"/>
    <path id="Trazado_125172" data-name="Trazado 125172" d="M-355-6089.135l67.717-45.674" transform="translate(-1572 1492.713)" fill="none" stroke="#70b446" stroke-width="1"/>
    <path id="Trazado_125173" data-name="Trazado 125173" d="M-355-6080.735l80.717-54.073" transform="translate(-1585 1484.313)" fill="none" stroke="#70b446" stroke-width="1"/>
    <path id="Trazado_125174" data-name="Trazado 125174" d="M-355-6073.895l90.717-60.913" transform="translate(-1595 1477.473)" fill="none" stroke="#70b446" stroke-width="1"/>
    <path id="Trazado_125175" data-name="Trazado 125175" d="M-355-6066.04l103.717-68.768" transform="translate(-1608 1469.618)" fill="none" stroke="#70b446" stroke-width="1"/>
    <path id="Trazado_125176" data-name="Trazado 125176" d="M-355-6057.391l114.717-77.417" transform="translate(-1619 1460.97)" fill="none" stroke="#70b446" stroke-width="1"/>
    <path id="Trazado_125177" data-name="Trazado 125177" d="M-355-6049.563l126.717-85.245" transform="translate(-1631 1453.142)" fill="none" stroke="#70b446" stroke-width="1"/>
    <path id="Trazado_125178" data-name="Trazado 125178" d="M-355-6041.491l138.717-93.317" transform="translate(-1643 1445.069)" fill="none" stroke="#70b446" stroke-width="1"/>
    <path id="Trazado_125179" data-name="Trazado 125179" d="M-355-6034.094l150.314-100.714" transform="translate(-1654.596 1437.876)" fill="none" stroke="#70b446" stroke-width="1"/>
    <path id="Trazado_125180" data-name="Trazado 125180" d="M-355-6029.307l155.529-105.5" transform="translate(-1406.983 1432.884)" fill="none" stroke="#db6e5f" stroke-width="1"/>
    <path id="Trazado_125181" data-name="Trazado 125181" d="M-355-6022.518l166.647-112.291" transform="translate(-1418.101 1426.094)" fill="none" stroke="#db6e5f" stroke-width="1"/>
    <path id="Trazado_125182" data-name="Trazado 125182" d="M-355-6014.466l179.954-120.342" transform="translate(-1431.408 1418.043)" fill="none" stroke="#db6e5f" stroke-width="1"/>
    <path id="Trazado_125183" data-name="Trazado 125183" d="M-355-6007.653l189.462-127.155" transform="translate(-1442.653 1411.23)" fill="none" stroke="#db6e5f" stroke-width="1"/>
    <path id="Trazado_125184" data-name="Trazado 125184" d="M-355-6003.365l196.431-131.443" transform="translate(-1454.238 1406.943)" fill="none" stroke="#db6e5f" stroke-width="1"/>
    <path id="Trazado_125185" data-name="Trazado 125185" d="M-355-5998.717l202.7-136.09" transform="translate(-1465.141 1402.296)" fill="none" stroke="#db6e5f" stroke-width="1"/>
    <path id="Trazado_125186" data-name="Trazado 125186" d="M-355-5993.9l210.02-140.907" transform="translate(-1477.426 1397.479)" fill="none" stroke="#db6e5f" stroke-width="1"/>
    <path id="Trazado_125187" data-name="Trazado 125187" d="M-355-5989.623l217.256-145.185" transform="translate(-1489.104 1393.201)" fill="none" stroke="#db6e5f" stroke-width="1"/>
    <path id="Trazado_125188" data-name="Trazado 125188" d="M-355-5984.85l222.21-149.957" transform="translate(-1501 1388.428)" fill="none" stroke="#db6e5f" stroke-width="1"/>
    <path id="Trazado_125189" data-name="Trazado 125189" d="M-355-6037.775l146.7-97.034" transform="translate(-1396.983 1441.353)" fill="none" stroke="#db6e5f" stroke-width="1"/>
    <path id="Trazado_125190" data-name="Trazado 125190" d="M-355-6045.539l134.7-89.27" transform="translate(-1384.983 1449.116)" fill="none" stroke="#db6e5f" stroke-width="1"/>
    <path id="Trazado_125191" data-name="Trazado 125191" d="M-355-6054.44l120.962-80.368" transform="translate(-1372.416 1458.018)" fill="none" stroke="#db6e5f" stroke-width="1"/>
    <path id="Trazado_125192" data-name="Trazado 125192" d="M-355-6061.1l110.133-73.712" transform="translate(-1360.416 1464.674)" fill="none" stroke="#db6e5f" stroke-width="1"/>
    <path id="Trazado_125193" data-name="Trazado 125193" d="M-355-6069.089l99.133-65.721" transform="translate(-1349.416 1472.666)" fill="none" stroke="#db6e5f" stroke-width="1"/>
    <path id="Trazado_125194" data-name="Trazado 125194" d="M-355-6077.011l87.133-57.8" transform="translate(-1337.416 1480.588)" fill="none" stroke="#db6e5f" stroke-width="1"/>
    <path id="Trazado_125195" data-name="Trazado 125195" d="M-355-6085.085l74.962-49.725" transform="translate(-1326.416 1488.662)" fill="none" stroke="#db6e5f" stroke-width="1"/>
    <path id="Trazado_125196" data-name="Trazado 125196" d="M-355-6092.189l64.133-42.621" transform="translate(-1314.416 1495.766)" fill="none" stroke="#db6e5f" stroke-width="1"/>
    <path id="Trazado_125197" data-name="Trazado 125197" d="M-355-6100.427l52.133-34.383" transform="translate(-1302.416 1504.004)" fill="none" stroke="#db6e5f" stroke-width="1"/>
    <path id="Trazado_125198" data-name="Trazado 125198" d="M-355-6108.8l38.962-26.011" transform="translate(-1290.416 1512.376)" fill="none" stroke="#db6e5f" stroke-width="1"/>
    <path id="Trazado_125199" data-name="Trazado 125199" d="M-355-6115.893l28.507-18.917" transform="translate(-1278.79 1519.47)" fill="none" stroke="#db6e5f" stroke-width="1"/>
    <path id="Trazado_125200" data-name="Trazado 125200" d="M-355-6123.6l17.161-11.21" transform="translate(-1267.444 1527.176)" fill="none" stroke="#db6e5f" stroke-width="1"/>
    <path id="Trazado_125201" data-name="Trazado 125201" d="M-355-5987.522l220.252-147.285" transform="translate(-1502.601 1383.907)" fill="none" stroke="#db6e5f" stroke-width="1"/>
    <path id="Trazado_125202" data-name="Trazado 125202" d="M-355-5991.193l215.695-143.614" transform="translate(-1502.601 1379.143)" fill="none" stroke="#db6e5f" stroke-width="1"/>
    <path id="Trazado_125203" data-name="Trazado 125203" d="M-355-5993.92l210.432-140.887" transform="translate(-1502.601 1374.662)" fill="none" stroke="#db6e5f" stroke-width="1"/>
    <path id="Trazado_125204" data-name="Trazado 125204" d="M-355-5997.72l205.062-137.086" transform="translate(-1502.601 1370.843)" fill="none" stroke="#db6e5f" stroke-width="1"/>
    <path id="Trazado_125205" data-name="Trazado 125205" d="M-355-6000.89l200.185-133.917" transform="translate(-1502.601 1365.761)" fill="none" stroke="#db6e5f" stroke-width="1"/>
    <path id="Trazado_125206" data-name="Trazado 125206" d="M-355-6005l194.018-129.811" transform="translate(-1502.601 1361.915)" fill="none" stroke="#db6e5f" stroke-width="1"/>
    <path id="Trazado_125207" data-name="Trazado 125207" d="M-355-6007.793l189.193-127.013" transform="translate(-1502.601 1357.52)" fill="none" stroke="#db6e5f" stroke-width="1"/>
    <path id="Trazado_125208" data-name="Trazado 125208" d="M-355-6012.23l182.611-122.576" transform="translate(-1502.601 1353.488)" fill="none" stroke="#db6e5f" stroke-width="1"/>
    <path id="Trazado_125209" data-name="Trazado 125209" d="M-355-6016.452l177.271-118.354" transform="translate(-1502.601 1349.875)" fill="none" stroke="#db6e5f" stroke-width="1"/>
    <path id="Trazado_125210" data-name="Trazado 125210" d="M-355-6021.952l170.83-112.854" transform="translate(-1502.601 1346.375)" fill="none" stroke="#db6e5f" stroke-width="1"/>
    <path id="Trazado_125211" data-name="Trazado 125211" d="M-355-6026.507l164.081-108.3" transform="translate(-1502.601 1342.65)" fill="none" stroke="#db6e5f" stroke-width="1"/>
    <path id="Trazado_125212" data-name="Trazado 125212" d="M-355-6030.229l156.72-104.578" transform="translate(-1502.601 1339.372)" fill="none" stroke="#db6e5f" stroke-width="1"/>
    <path id="Trazado_125213" data-name="Trazado 125213" d="M-355-6035.3l149.929-99.5" transform="translate(-1502.601 1336.69)" fill="none" stroke="#db6e5f" stroke-width="1"/>
    <path id="Trazado_125214" data-name="Trazado 125214" d="M-355-6039.762l142.185-95.044" transform="translate(-1502.601 1333.851)" fill="none" stroke="#db6e5f" stroke-width="1"/>
    <path id="Trazado_125215" data-name="Trazado 125215" d="M-355-6045.789l133.684-89.017" transform="translate(-1502.601 1332.009)" fill="none" stroke="#db6e5f" stroke-width="1"/>
    <path id="Trazado_125216" data-name="Trazado 125216" d="M-355-6053.071l122.125-81.735" transform="translate(-1502.601 1332.009)" fill="none" stroke="#db6e5f" stroke-width="1"/>
    <path id="Trazado_125217" data-name="Trazado 125217" d="M-355-6071.534l94.68-63.272" transform="translate(-1487.156 1330.93)" fill="none" stroke="#db6e5f" stroke-width="1"/>
    <path id="Trazado_125218" data-name="Trazado 125218" d="M-355-6123.6l17.161-11.21" transform="translate(-1101.444 1527.176)" fill="none" stroke="#70b446" stroke-width="1"/>
    <path id="Trazado_125219" data-name="Trazado 125219" d="M-355-6120.059l22.581-14.75" transform="translate(-1115.444 1523.636)" fill="none" stroke="#70b446" stroke-width="1"/>
    <path id="Trazado_125220" data-name="Trazado 125220" d="M-355-6115.893l26.763-18.917" transform="translate(-1126.734 1519.47)" fill="none" stroke="#70b446" stroke-width="1"/>
    <path id="Trazado_125221" data-name="Trazado 125221" d="M-355-6113.5l29.84-21.311" transform="translate(-1135.734 1517.076)" fill="none" stroke="#70b446" stroke-width="1"/>
    <path id="Trazado_125222" data-name="Trazado 125222" d="M-355-6109.947l35.381-24.863" transform="translate(-1148.734 1513.524)" fill="none" stroke="#70b446" stroke-width="1"/>
    <path id="Trazado_125223" data-name="Trazado 125223" d="M-355-6107.116l39.92-27.694" transform="translate(-1160.734 1510.693)" fill="none" stroke="#70b446" stroke-width="1"/>
    <path id="Trazado_125224" data-name="Trazado 125224" d="M-355-6103.094l46-31.716" transform="translate(-1172.734 1506.67)" fill="none" stroke="#70b446" stroke-width="1"/>
    <path id="Trazado_125225" data-name="Trazado 125225" d="M-355-6100.427l49.553-34.382" transform="translate(-1183.735 1504.004)" fill="none" stroke="#70b446" stroke-width="1"/>
    <path id="Trazado_125226" data-name="Trazado 125226" d="M-355-6096.1l55.653-38.707" transform="translate(-1194.735 1499.68)" fill="none" stroke="#70b446" stroke-width="1"/>
    <path id="Trazado_125227" data-name="Trazado 125227" d="M-355-6092.188l60.677-42.621" transform="translate(-1206.735 1495.766)" fill="none" stroke="#70b446" stroke-width="1"/>
    <path id="Trazado_125228" data-name="Trazado 125228" d="M-355-6088.151l65.774-46.658" transform="translate(-1217.735 1491.729)" fill="none" stroke="#70b446" stroke-width="1"/>
    <path id="Trazado_125229" data-name="Trazado 125229" d="M-355-6085.084l71.776-49.725" transform="translate(-1230.735 1488.662)" fill="none" stroke="#70b446" stroke-width="1"/>
    <path id="Trazado_125230" data-name="Trazado 125230" d="M-355-6080.959l78.955-53.85" transform="translate(-1242.623 1484.536)" fill="none" stroke="#70b446" stroke-width="1"/>
    <path id="Trazado_125231" data-name="Trazado 125231" d="M-355-6077.01l85.106-57.8" transform="translate(-1253.191 1480.587)" fill="none" stroke="#70b446" stroke-width="1"/>
    <path id="Trazado_125232" data-name="Trazado 125232" d="M-355-6083.145l75.109-51.664" transform="translate(-1250.283 1476.066)" fill="none" stroke="#70b446" stroke-width="1"/>
    <path id="Trazado_125233" data-name="Trazado 125233" d="M-355-6089.011l68.965-45.8" transform="translate(-1250.283 1473.801)" fill="none" stroke="#70b446" stroke-width="1"/>
    <path id="Trazado_125234" data-name="Trazado 125234" d="M-355-6091.58l63.41-43.229" transform="translate(-1250.283 1468.231)" fill="none" stroke="#70b446" stroke-width="1"/>
    <path id="Trazado_125235" data-name="Trazado 125235" d="M-355-6095.685l57.956-39.125" transform="translate(-1250.283 1464.673)" fill="none" stroke="#70b446" stroke-width="1"/>
    <path id="Trazado_125236" data-name="Trazado 125236" d="M-355-6099.563l53.913-35.246" transform="translate(-1250.283 1460.314)" fill="none" stroke="#70b446" stroke-width="1"/>
    <path id="Trazado_125237" data-name="Trazado 125237" d="M-355-6102.72l47.137-32.09" transform="translate(-1250.283 1455.876)" fill="none" stroke="#70b446" stroke-width="1"/>
    <path id="Trazado_125238" data-name="Trazado 125238" d="M-355-6106.8l41.747-28.009" transform="translate(-1250.283 1452.375)" fill="none" stroke="#70b446" stroke-width="1"/>
    <path id="Trazado_125239" data-name="Trazado 125239" d="M-355-6113.088l31.7-21.722" transform="translate(-1250.283 1442.748)" fill="none" stroke="#70b446" stroke-width="1"/>
    <path id="Trazado_125240" data-name="Trazado 125240" d="M-355-6106.8l41.747-28.009" transform="translate(-1250.283 1452.375)" fill="none" stroke="#70b446" stroke-width="1"/>
    <path id="Trazado_125241" data-name="Trazado 125241" d="M-355-6109.676l35.592-25.134" transform="translate(-1250.283 1447.327)" fill="none" stroke="#70b446" stroke-width="1"/>
    <path id="Trazado_125242" data-name="Trazado 125242" d="M-355-6117.715l26.957-17.1" transform="translate(-1250.283 1439.389)" fill="none" stroke="#70b446" stroke-width="1"/>
    <path id="Trazado_125243" data-name="Trazado 125243" d="M-355-6120.661l20.874-14.149" transform="translate(-1250.283 1434.763)" fill="none" stroke="#70b446" stroke-width="1"/>
    <path id="Trazado_125244" data-name="Trazado 125244" d="M-355-6124l15.852-10.807" transform="translate(-1250.283 1430.341)" fill="none" stroke="#70b446" stroke-width="1"/>
    <path id="Trazado_125245" data-name="Trazado 125245" d="M-355-6126.85l11.711-7.96" transform="translate(-1250.283 1424.762)" fill="none" stroke="#70b446" stroke-width="1"/>
    <path id="Trazado_125246" data-name="Trazado 125246" d="M-355-6129.193l7.66-5.616" transform="translate(-1250.283 1419.394)" fill="none" stroke="#707070" stroke-width="1"/>
    <path id="Trazado_125247" data-name="Trazado 125247" d="M-355-6024.958l160.868-109.85" transform="translate(-1663.759 1428.74)" fill="none" stroke="#70b446" stroke-width="1"/>
    <path id="Trazado_125248" data-name="Trazado 125248" d="M-355-6104.148l47.579-30.66" transform="translate(-1675.434 1507.93)" fill="none" stroke="#70b446" stroke-width="1"/>
    <path id="Trazado_125249" data-name="Trazado 125249" d="M-355-6113.292l35.9-21.516" transform="translate(-1687.548 1517.075)" fill="none" stroke="#70b446" stroke-width="1"/>
    <path id="Trazado_125250" data-name="Trazado 125250" d="M-355-6095.78l63.287-39.026" transform="translate(-1468.879 1333.85)" fill="none" stroke="#db6e5f" stroke-width="1"/>
    <path id="Trazado_125166" data-name="Trazado 125166" d="M-335.286-6245.062v207.454" transform="translate(-1399.204 1441.187)" fill="none" stroke="#0d66bf" stroke-width="2"/>
    <path id="Trazado_125251" data-name="Trazado 125251" d="M-335.286-6245.062v124.641" transform="translate(-1269.49 1524)" fill="none" stroke="#000" stroke-width="2"/>
    <path id="Trazado_125252" data-name="Trazado 125252" d="M-636.094-6434.377s136.622,21.25,264.044-125.013" transform="translate(-1485.556 1835.812)" fill="none" stroke="#db6e5f" stroke-width="2"/>
    <path id="Trazado_125253" data-name="Trazado 125253" d="M-372.049-6434.377s-136.622,21.25-264.044-125.013" transform="translate(-970.101 1835.812)" fill="none" stroke="#db6e5f" stroke-width="2"/>
    <path id="Trazado_125895" data-name="Trazado 125895" d="M8.623-14.365v2.324H8.35a4.8,4.8,0,0,0-3.081,1,4.047,4.047,0,0,0-1.4,2.686A3.844,3.844,0,0,1,6.729-9.512,3.622,3.622,0,0,1,9.678-8.184a5.324,5.324,0,0,1,1.094,3.5,5.237,5.237,0,0,1-.6,2.51A4.307,4.307,0,0,1,8.472-.43,4.937,4.937,0,0,1,5.986.2,4.611,4.611,0,0,1,2.358-1.367,6.065,6.065,0,0,1,.977-5.537V-6.553a9.128,9.128,0,0,1,.874-4.087,6.409,6.409,0,0,1,2.51-2.744,7.354,7.354,0,0,1,3.794-.981ZM5.869-7.246a2.252,2.252,0,0,0-1.24.356,2.146,2.146,0,0,0-.82.942v.859a3.813,3.813,0,0,0,.557,2.212,1.8,1.8,0,0,0,1.563.8A1.778,1.778,0,0,0,7.4-2.8a2.931,2.931,0,0,0,.562-1.86,2.926,2.926,0,0,0-.566-1.875A1.845,1.845,0,0,0,5.869-7.246Zm15.84-3.193A3.307,3.307,0,0,1,21.191-8.6a3.725,3.725,0,0,1-1.426,1.279,4.124,4.124,0,0,1,1.641,1.372A3.52,3.52,0,0,1,22.012-3.9,3.727,3.727,0,0,1,20.723-.9,5.229,5.229,0,0,1,17.217.2,5.253,5.253,0,0,1,13.7-.908,3.718,3.718,0,0,1,12.4-3.9a3.542,3.542,0,0,1,.605-2.061,4.049,4.049,0,0,1,1.631-1.367A3.687,3.687,0,0,1,13.218-8.6a3.331,3.331,0,0,1-.513-1.836,3.685,3.685,0,0,1,1.211-2.9,4.768,4.768,0,0,1,3.291-1.079,4.8,4.8,0,0,1,3.286,1.069A3.671,3.671,0,0,1,21.709-10.439ZM19.18-4.1a2.047,2.047,0,0,0-.537-1.484A1.915,1.915,0,0,0,17.2-6.143a1.912,1.912,0,0,0-1.436.552A2.044,2.044,0,0,0,15.225-4.1a2.042,2.042,0,0,0,.527,1.465,1.921,1.921,0,0,0,1.465.557,1.916,1.916,0,0,0,1.44-.537A2.039,2.039,0,0,0,19.18-4.1Zm-.293-6.2a1.953,1.953,0,0,0-.439-1.333,1.559,1.559,0,0,0-1.24-.5,1.57,1.57,0,0,0-1.23.488,1.942,1.942,0,0,0-.439,1.348,2.041,2.041,0,0,0,.439,1.367,1.538,1.538,0,0,0,1.24.518,1.523,1.523,0,0,0,1.235-.518A2.056,2.056,0,0,0,18.887-10.3ZM24.18-1.387a1.421,1.421,0,0,1,.454-1.094,1.611,1.611,0,0,1,1.138-.42,1.624,1.624,0,0,1,1.147.42,1.421,1.421,0,0,1,.454,1.094,1.4,1.4,0,0,1-.449,1.079,1.631,1.631,0,0,1-1.152.415,1.618,1.618,0,0,1-1.143-.415A1.4,1.4,0,0,1,24.18-1.387ZM39.473,0H29.727V-1.934l4.6-4.9a11.347,11.347,0,0,0,1.4-1.807,2.9,2.9,0,0,0,.454-1.465A2.172,2.172,0,0,0,35.7-11.6a1.727,1.727,0,0,0-1.367-.542,1.863,1.863,0,0,0-1.509.659,2.611,2.611,0,0,0-.552,1.733H29.443a4.661,4.661,0,0,1,.62-2.373A4.371,4.371,0,0,1,31.816-13.8a5.328,5.328,0,0,1,2.568-.61A5.045,5.045,0,0,1,37.8-13.359a3.731,3.731,0,0,1,1.216,2.979,4.781,4.781,0,0,1-.547,2.148,11.939,11.939,0,0,1-1.875,2.549L33.359-2.275h6.113Zm11.4-12.637L45.371,0H42.393L47.9-11.934H40.83v-2.285H50.869Zm1.768,1.152a2.811,2.811,0,0,1,.85-2.124,3.081,3.081,0,0,1,2.227-.815,3.13,3.13,0,0,1,2.246.806,2.865,2.865,0,0,1,.85,2.183v.7a2.776,2.776,0,0,1-.85,2.119,3.114,3.114,0,0,1-2.227.8,3.134,3.134,0,0,1-2.241-.806,2.844,2.844,0,0,1-.854-2.173Zm1.875.752a1.316,1.316,0,0,0,.337.942,1.16,1.16,0,0,0,.884.356,1.106,1.106,0,0,0,.869-.361,1.4,1.4,0,0,0,.322-.967v-.723a1.37,1.37,0,0,0-.322-.947,1.13,1.13,0,0,0-.889-.361,1.133,1.133,0,0,0-.869.356,1.4,1.4,0,0,0-.332.991Zm4.922,7.246a2.775,2.775,0,0,1,.859-2.124,3.124,3.124,0,0,1,2.227-.806,3.156,3.156,0,0,1,2.241.8,2.849,2.849,0,0,1,.854,2.192v.7a2.8,2.8,0,0,1-.84,2.114A3.1,3.1,0,0,1,62.539.2a3.132,3.132,0,0,1-2.256-.811,2.832,2.832,0,0,1-.85-2.148Zm1.875.762a1.305,1.305,0,0,0,.352.918,1.146,1.146,0,0,0,.879.381q1.191,0,1.191-1.318v-.742a1.327,1.327,0,0,0-.332-.942,1.144,1.144,0,0,0-.879-.356,1.144,1.144,0,0,0-.879.356,1.369,1.369,0,0,0-.332.972Zm-5.02,1.66-1.377-.742L61.855-12.92l1.377.742Z" transform="translate(-1766.3 -4697.469)" fill="#12263f"/>
    <path id="Trazado_125896" data-name="Trazado 125896" d="M4.072-14.219l4.648,11.6,4.648-11.6H15.8V0H13.926V-5.537l.176-5.977L9.434,0H8L3.34-11.484l.186,5.947V0H1.65V-14.219ZM23.213.2a4.617,4.617,0,0,1-3.5-1.411A5.237,5.237,0,0,1,18.369-4.99v-.332a6.341,6.341,0,0,1,.6-2.808,4.685,4.685,0,0,1,1.68-1.934,4.223,4.223,0,0,1,2.339-.7,3.957,3.957,0,0,1,3.2,1.357,5.877,5.877,0,0,1,1.143,3.887v.752H20.176a3.756,3.756,0,0,0,.913,2.524,2.87,2.87,0,0,0,2.222.962,3.147,3.147,0,0,0,1.621-.391,4.073,4.073,0,0,0,1.162-1.035l1.1.859A4.437,4.437,0,0,1,23.213.2Zm-.225-9.473a2.41,2.41,0,0,0-1.836.8,3.868,3.868,0,0,0-.918,2.231h5.293v-.137a3.441,3.441,0,0,0-.742-2.134A2.269,2.269,0,0,0,22.988-9.277Zm6,3.906a6.19,6.19,0,0,1,1.152-3.911,3.644,3.644,0,0,1,3.018-1.479,3.665,3.665,0,0,1,2.939,1.27V-15H37.9V0H36.24l-.088-1.133A3.679,3.679,0,0,1,33.135.2a3.609,3.609,0,0,1-2.993-1.5,6.26,6.26,0,0,1-1.157-3.926Zm1.807.205a4.687,4.687,0,0,0,.742,2.813,2.4,2.4,0,0,0,2.051,1.016,2.636,2.636,0,0,0,2.51-1.543V-7.734A2.656,2.656,0,0,0,33.6-9.229,2.411,2.411,0,0,0,31.533-8.2,5.16,5.16,0,0,0,30.791-5.166ZM42.666,0H40.859V-10.566h1.807ZM40.713-13.369a1.078,1.078,0,0,1,.269-.742,1.008,1.008,0,0,1,.8-.3,1.024,1.024,0,0,1,.8.3,1.067,1.067,0,0,1,.273.742,1.032,1.032,0,0,1-.273.732,1.043,1.043,0,0,1-.8.293,1.026,1.026,0,0,1-.8-.293A1.043,1.043,0,0,1,40.713-13.369ZM52.08,0a3.8,3.8,0,0,1-.254-1.113A4.031,4.031,0,0,1,48.818.2a3.73,3.73,0,0,1-2.563-.884,2.859,2.859,0,0,1-1-2.241,2.987,2.987,0,0,1,1.255-2.563,5.916,5.916,0,0,1,3.53-.913H51.8v-.83a2.029,2.029,0,0,0-.566-1.509,2.276,2.276,0,0,0-1.67-.562,2.634,2.634,0,0,0-1.621.488,1.439,1.439,0,0,0-.654,1.182H45.469a2.493,2.493,0,0,1,.562-1.528,3.832,3.832,0,0,1,1.523-1.167,5.125,5.125,0,0,1,2.114-.43,4.177,4.177,0,0,1,2.861.913A3.294,3.294,0,0,1,53.6-7.334v4.863a5.946,5.946,0,0,0,.371,2.314V0Zm-3-1.377a3.175,3.175,0,0,0,1.611-.439,2.658,2.658,0,0,0,1.1-1.143V-5.127H50.381q-3.32,0-3.32,1.943a1.645,1.645,0,0,0,.566,1.328A2.177,2.177,0,0,0,49.082-1.377Z" transform="translate(-1766.3 -4566.063)" fill="#12263f"/>
    <path id="Trazado_125897" data-name="Trazado 125897" d="M4.072-14.219l4.648,11.6,4.648-11.6H15.8V0H13.926V-5.537l.176-5.977L9.434,0H8L3.34-11.484l.186,5.947V0H1.65V-14.219ZM23.213.2a4.617,4.617,0,0,1-3.5-1.411A5.237,5.237,0,0,1,18.369-4.99v-.332a6.341,6.341,0,0,1,.6-2.808,4.685,4.685,0,0,1,1.68-1.934,4.223,4.223,0,0,1,2.339-.7,3.957,3.957,0,0,1,3.2,1.357,5.877,5.877,0,0,1,1.143,3.887v.752H20.176a3.756,3.756,0,0,0,.913,2.524,2.87,2.87,0,0,0,2.222.962,3.147,3.147,0,0,0,1.621-.391,4.073,4.073,0,0,0,1.162-1.035l1.1.859A4.437,4.437,0,0,1,23.213.2Zm-.225-9.473a2.41,2.41,0,0,0-1.836.8,3.868,3.868,0,0,0-.918,2.231h5.293v-.137a3.441,3.441,0,0,0-.742-2.134A2.269,2.269,0,0,0,22.988-9.277Zm6,3.906a6.19,6.19,0,0,1,1.152-3.911,3.644,3.644,0,0,1,3.018-1.479,3.665,3.665,0,0,1,2.939,1.27V-15H37.9V0H36.24l-.088-1.133A3.679,3.679,0,0,1,33.135.2a3.609,3.609,0,0,1-2.993-1.5,6.26,6.26,0,0,1-1.157-3.926Zm1.807.205a4.687,4.687,0,0,0,.742,2.813,2.4,2.4,0,0,0,2.051,1.016,2.636,2.636,0,0,0,2.51-1.543V-7.734A2.656,2.656,0,0,0,33.6-9.229,2.411,2.411,0,0,0,31.533-8.2,5.16,5.16,0,0,0,30.791-5.166ZM42.666,0H40.859V-10.566h1.807ZM40.713-13.369a1.078,1.078,0,0,1,.269-.742,1.008,1.008,0,0,1,.8-.3,1.024,1.024,0,0,1,.8.3,1.067,1.067,0,0,1,.273.742,1.032,1.032,0,0,1-.273.732,1.043,1.043,0,0,1-.8.293,1.026,1.026,0,0,1-.8-.293A1.043,1.043,0,0,1,40.713-13.369ZM52.08,0a3.8,3.8,0,0,1-.254-1.113A4.031,4.031,0,0,1,48.818.2a3.73,3.73,0,0,1-2.563-.884,2.859,2.859,0,0,1-1-2.241,2.987,2.987,0,0,1,1.255-2.563,5.916,5.916,0,0,1,3.53-.913H51.8v-.83a2.029,2.029,0,0,0-.566-1.509,2.276,2.276,0,0,0-1.67-.562,2.634,2.634,0,0,0-1.621.488,1.439,1.439,0,0,0-.654,1.182H45.469a2.493,2.493,0,0,1,.562-1.528,3.832,3.832,0,0,1,1.523-1.167,5.125,5.125,0,0,1,2.114-.43,4.177,4.177,0,0,1,2.861.913A3.294,3.294,0,0,1,53.6-7.334v4.863a5.946,5.946,0,0,0,.371,2.314V0Zm-3-1.377a3.175,3.175,0,0,0,1.611-.439,2.658,2.658,0,0,0,1.1-1.143V-5.127H50.381q-3.32,0-3.32,1.943a1.645,1.645,0,0,0,.566,1.328A2.177,2.177,0,0,0,49.082-1.377ZM65.146-5.3H60.381V-6.777h4.766ZM72.656,0H70.84V-12.041L67.2-10.7v-1.641l5.176-1.943h.283ZM83.369,0V-14.219h4.014a6.461,6.461,0,0,1,3.281.82,5.548,5.548,0,0,1,2.2,2.334,7.6,7.6,0,0,1,.786,3.477v.908a7.624,7.624,0,0,1-.776,3.525A5.461,5.461,0,0,1,90.659-.83,6.873,6.873,0,0,1,87.3,0Zm1.875-12.676V-1.533h1.973a4.294,4.294,0,0,0,3.374-1.348A5.565,5.565,0,0,0,91.8-6.719v-.83a5.653,5.653,0,0,0-1.138-3.765,4.05,4.05,0,0,0-3.228-1.362ZM100.586.2a4.617,4.617,0,0,1-3.5-1.411A5.237,5.237,0,0,1,95.742-4.99v-.332a6.341,6.341,0,0,1,.6-2.808,4.685,4.685,0,0,1,1.68-1.934,4.223,4.223,0,0,1,2.339-.7,3.957,3.957,0,0,1,3.2,1.357,5.877,5.877,0,0,1,1.143,3.887v.752H97.549a3.756,3.756,0,0,0,.913,2.524,2.87,2.87,0,0,0,2.222.962A3.147,3.147,0,0,0,102.3-1.67a4.073,4.073,0,0,0,1.162-1.035l1.1.859A4.437,4.437,0,0,1,100.586.2Zm-.225-9.473a2.41,2.41,0,0,0-1.836.8,3.869,3.869,0,0,0-.918,2.231H102.9v-.137a3.441,3.441,0,0,0-.742-2.134A2.269,2.269,0,0,0,100.361-9.277ZM112.949-2.8A1.33,1.33,0,0,0,112.4-3.94a5.311,5.311,0,0,0-1.924-.7,9.1,9.1,0,0,1-2.178-.7,3.1,3.1,0,0,1-1.191-.977,2.336,2.336,0,0,1-.386-1.348,2.741,2.741,0,0,1,1.1-2.2,4.291,4.291,0,0,1,2.808-.9,4.415,4.415,0,0,1,2.915.928,2.947,2.947,0,0,1,1.118,2.373h-1.816a1.631,1.631,0,0,0-.63-1.279,2.36,2.36,0,0,0-1.587-.537,2.47,2.47,0,0,0-1.543.43,1.353,1.353,0,0,0-.557,1.123,1.1,1.1,0,0,0,.518.986,6.368,6.368,0,0,0,1.87.635,9.744,9.744,0,0,1,2.192.723,3.2,3.2,0,0,1,1.245,1.011,2.485,2.485,0,0,1,.405,1.44,2.7,2.7,0,0,1-1.133,2.271A4.752,4.752,0,0,1,110.684.2a5.321,5.321,0,0,1-2.246-.449,3.653,3.653,0,0,1-1.528-1.255,3.025,3.025,0,0,1-.552-1.743h1.807a1.87,1.87,0,0,0,.728,1.44,2.822,2.822,0,0,0,1.792.532,2.913,2.913,0,0,0,1.646-.415A1.275,1.275,0,0,0,112.949-2.8Zm7.646.352,2.617-8.115h1.846L121.27,0h-1.377l-3.828-10.566h1.846Zm5.2,1.5a1.131,1.131,0,0,1,.278-.781,1.061,1.061,0,0,1,.835-.312,1.092,1.092,0,0,1,.845.313,1.109,1.109,0,0,1,.288.781,1.048,1.048,0,0,1-.288.752,1.112,1.112,0,0,1-.845.3,1.079,1.079,0,0,1-.835-.3A1.069,1.069,0,0,1,125.791-.947Zm14.648-5.391a8.817,8.817,0,0,1-3.511-1.7,3.256,3.256,0,0,1-1.1-2.5,3.439,3.439,0,0,1,1.343-2.778,5.337,5.337,0,0,1,3.491-1.1,5.825,5.825,0,0,1,2.612.566,4.3,4.3,0,0,1,1.777,1.563,4,4,0,0,1,.63,2.178H143.8a2.586,2.586,0,0,0-.82-2.026,3.343,3.343,0,0,0-2.314-.737,3.42,3.42,0,0,0-2.163.61,2.035,2.035,0,0,0-.776,1.694,1.831,1.831,0,0,0,.737,1.47,7.238,7.238,0,0,0,2.51,1.1,11.622,11.622,0,0,1,2.773,1.1,4.209,4.209,0,0,1,1.484,1.4,3.577,3.577,0,0,1,.483,1.885,3.322,3.322,0,0,1-1.348,2.769,5.746,5.746,0,0,1-3.6,1.04,6.683,6.683,0,0,1-2.734-.562A4.6,4.6,0,0,1,136.069-1.9a3.754,3.754,0,0,1-.688-2.217h1.885a2.449,2.449,0,0,0,.952,2.036,4.009,4.009,0,0,0,2.544.747,3.685,3.685,0,0,0,2.275-.605,1.967,1.967,0,0,0,.791-1.65A1.931,1.931,0,0,0,143.1-5.21,8.444,8.444,0,0,0,140.439-6.338Zm9.844-6.787v2.559h1.973v1.4h-1.973v6.553a1.464,1.464,0,0,0,.264.952,1.11,1.11,0,0,0,.9.317,4.374,4.374,0,0,0,.859-.117V0a5.238,5.238,0,0,1-1.387.2,2.25,2.25,0,0,1-1.826-.732,3.147,3.147,0,0,1-.615-2.08V-9.17h-1.924v-1.4h1.924v-2.559Zm3.643,7.754a6.19,6.19,0,0,1,1.152-3.911,3.644,3.644,0,0,1,3.018-1.479,3.665,3.665,0,0,1,2.939,1.27V-15h1.807V0h-1.66l-.088-1.133A3.679,3.679,0,0,1,158.076.2a3.609,3.609,0,0,1-2.993-1.5,6.26,6.26,0,0,1-1.157-3.926Zm1.807.205a4.687,4.687,0,0,0,.742,2.813,2.4,2.4,0,0,0,2.051,1.016,2.636,2.636,0,0,0,2.51-1.543V-7.734a2.656,2.656,0,0,0-2.49-1.494,2.411,2.411,0,0,0-2.07,1.025A5.16,5.16,0,0,0,155.732-5.166Z" transform="translate(-1958.145 -4526.063)" fill="#12263f"/>
    <path id="Trazado_125898" data-name="Trazado 125898" d="M4.072-14.219l4.648,11.6,4.648-11.6H15.8V0H13.926V-5.537l.176-5.977L9.434,0H8L3.34-11.484l.186,5.947V0H1.65V-14.219ZM23.213.2a4.617,4.617,0,0,1-3.5-1.411A5.237,5.237,0,0,1,18.369-4.99v-.332a6.341,6.341,0,0,1,.6-2.808,4.685,4.685,0,0,1,1.68-1.934,4.223,4.223,0,0,1,2.339-.7,3.957,3.957,0,0,1,3.2,1.357,5.877,5.877,0,0,1,1.143,3.887v.752H20.176a3.756,3.756,0,0,0,.913,2.524,2.87,2.87,0,0,0,2.222.962,3.147,3.147,0,0,0,1.621-.391,4.073,4.073,0,0,0,1.162-1.035l1.1.859A4.437,4.437,0,0,1,23.213.2Zm-.225-9.473a2.41,2.41,0,0,0-1.836.8,3.868,3.868,0,0,0-.918,2.231h5.293v-.137a3.441,3.441,0,0,0-.742-2.134A2.269,2.269,0,0,0,22.988-9.277Zm6,3.906a6.19,6.19,0,0,1,1.152-3.911,3.644,3.644,0,0,1,3.018-1.479,3.665,3.665,0,0,1,2.939,1.27V-15H37.9V0H36.24l-.088-1.133A3.679,3.679,0,0,1,33.135.2a3.609,3.609,0,0,1-2.993-1.5,6.26,6.26,0,0,1-1.157-3.926Zm1.807.205a4.687,4.687,0,0,0,.742,2.813,2.4,2.4,0,0,0,2.051,1.016,2.636,2.636,0,0,0,2.51-1.543V-7.734A2.656,2.656,0,0,0,33.6-9.229,2.411,2.411,0,0,0,31.533-8.2,5.16,5.16,0,0,0,30.791-5.166ZM42.666,0H40.859V-10.566h1.807ZM40.713-13.369a1.078,1.078,0,0,1,.269-.742,1.008,1.008,0,0,1,.8-.3,1.024,1.024,0,0,1,.8.3,1.067,1.067,0,0,1,.273.742,1.032,1.032,0,0,1-.273.732,1.043,1.043,0,0,1-.8.293,1.026,1.026,0,0,1-.8-.293A1.043,1.043,0,0,1,40.713-13.369ZM52.08,0a3.8,3.8,0,0,1-.254-1.113A4.031,4.031,0,0,1,48.818.2a3.73,3.73,0,0,1-2.563-.884,2.859,2.859,0,0,1-1-2.241,2.987,2.987,0,0,1,1.255-2.563,5.916,5.916,0,0,1,3.53-.913H51.8v-.83a2.029,2.029,0,0,0-.566-1.509,2.276,2.276,0,0,0-1.67-.562,2.634,2.634,0,0,0-1.621.488,1.439,1.439,0,0,0-.654,1.182H45.469a2.493,2.493,0,0,1,.562-1.528,3.832,3.832,0,0,1,1.523-1.167,5.125,5.125,0,0,1,2.114-.43,4.177,4.177,0,0,1,2.861.913A3.294,3.294,0,0,1,53.6-7.334v4.863a5.946,5.946,0,0,0,.371,2.314V0Zm-3-1.377a3.175,3.175,0,0,0,1.611-.439,2.658,2.658,0,0,0,1.1-1.143V-5.127H50.381q-3.32,0-3.32,1.943a1.645,1.645,0,0,0,.566,1.328A2.177,2.177,0,0,0,49.082-1.377Zm17.48-6.25h3.965v1.709H66.563v4.492H64.746V-5.918H60.781V-7.627h3.965v-4.15h1.816ZM78.477,0H76.66V-12.041L73.018-10.7v-1.641l5.176-1.943h.283ZM89.189,0V-14.219H93.2a6.461,6.461,0,0,1,3.281.82,5.548,5.548,0,0,1,2.2,2.334,7.6,7.6,0,0,1,.786,3.477v.908A7.624,7.624,0,0,1,98.7-3.154,5.461,5.461,0,0,1,96.479-.83,6.873,6.873,0,0,1,93.125,0Zm1.875-12.676V-1.533h1.973a4.294,4.294,0,0,0,3.374-1.348,5.565,5.565,0,0,0,1.206-3.838v-.83a5.653,5.653,0,0,0-1.138-3.765,4.05,4.05,0,0,0-3.228-1.362ZM106.406.2a4.617,4.617,0,0,1-3.5-1.411,5.237,5.237,0,0,1-1.348-3.774v-.332a6.341,6.341,0,0,1,.6-2.808,4.685,4.685,0,0,1,1.68-1.934,4.223,4.223,0,0,1,2.339-.7,3.957,3.957,0,0,1,3.2,1.357,5.877,5.877,0,0,1,1.143,3.887v.752h-7.158a3.756,3.756,0,0,0,.913,2.524,2.87,2.87,0,0,0,2.222.962,3.147,3.147,0,0,0,1.621-.391,4.073,4.073,0,0,0,1.162-1.035l1.1.859A4.437,4.437,0,0,1,106.406.2Zm-.225-9.473a2.41,2.41,0,0,0-1.836.8,3.869,3.869,0,0,0-.918,2.231h5.293v-.137a3.441,3.441,0,0,0-.742-2.134A2.269,2.269,0,0,0,106.182-9.277ZM118.77-2.8a1.33,1.33,0,0,0-.552-1.138,5.311,5.311,0,0,0-1.924-.7,9.1,9.1,0,0,1-2.178-.7,3.1,3.1,0,0,1-1.191-.977,2.336,2.336,0,0,1-.386-1.348,2.741,2.741,0,0,1,1.1-2.2,4.291,4.291,0,0,1,2.808-.9,4.415,4.415,0,0,1,2.915.928,2.947,2.947,0,0,1,1.118,2.373h-1.816a1.631,1.631,0,0,0-.63-1.279,2.36,2.36,0,0,0-1.587-.537,2.47,2.47,0,0,0-1.543.43,1.353,1.353,0,0,0-.557,1.123,1.1,1.1,0,0,0,.518.986,6.368,6.368,0,0,0,1.87.635,9.744,9.744,0,0,1,2.192.723,3.2,3.2,0,0,1,1.245,1.011,2.485,2.485,0,0,1,.405,1.44,2.7,2.7,0,0,1-1.133,2.271A4.752,4.752,0,0,1,116.5.2a5.321,5.321,0,0,1-2.246-.449,3.653,3.653,0,0,1-1.528-1.255,3.025,3.025,0,0,1-.552-1.743h1.807a1.87,1.87,0,0,0,.728,1.44,2.822,2.822,0,0,0,1.792.532,2.913,2.913,0,0,0,1.646-.415A1.275,1.275,0,0,0,118.77-2.8Zm7.646.352,2.617-8.115h1.846L127.09,0h-1.377l-3.828-10.566h1.846Zm5.2,1.5a1.131,1.131,0,0,1,.278-.781,1.061,1.061,0,0,1,.835-.312,1.092,1.092,0,0,1,.845.313,1.109,1.109,0,0,1,.288.781,1.048,1.048,0,0,1-.288.752,1.112,1.112,0,0,1-.845.3,1.079,1.079,0,0,1-.835-.3A1.069,1.069,0,0,1,131.611-.947ZM146.26-6.338a8.817,8.817,0,0,1-3.511-1.7,3.256,3.256,0,0,1-1.1-2.5,3.439,3.439,0,0,1,1.343-2.778,5.337,5.337,0,0,1,3.491-1.1,5.825,5.825,0,0,1,2.612.566,4.3,4.3,0,0,1,1.777,1.563,4,4,0,0,1,.63,2.178h-1.885a2.586,2.586,0,0,0-.82-2.026,3.343,3.343,0,0,0-2.314-.737,3.42,3.42,0,0,0-2.163.61,2.035,2.035,0,0,0-.776,1.694,1.831,1.831,0,0,0,.737,1.47,7.238,7.238,0,0,0,2.51,1.1,11.622,11.622,0,0,1,2.773,1.1,4.209,4.209,0,0,1,1.484,1.4,3.577,3.577,0,0,1,.483,1.885,3.322,3.322,0,0,1-1.348,2.769,5.746,5.746,0,0,1-3.6,1.04,6.683,6.683,0,0,1-2.734-.562A4.6,4.6,0,0,1,141.89-1.9a3.754,3.754,0,0,1-.688-2.217h1.885a2.449,2.449,0,0,0,.952,2.036,4.009,4.009,0,0,0,2.544.747,3.685,3.685,0,0,0,2.275-.605,1.967,1.967,0,0,0,.791-1.65,1.931,1.931,0,0,0-.732-1.616A8.444,8.444,0,0,0,146.26-6.338Zm9.844-6.787v2.559h1.973v1.4H156.1v6.553a1.464,1.464,0,0,0,.264.952,1.11,1.11,0,0,0,.9.317,4.374,4.374,0,0,0,.859-.117V0a5.238,5.238,0,0,1-1.387.2,2.25,2.25,0,0,1-1.826-.732,3.147,3.147,0,0,1-.615-2.08V-9.17h-1.924v-1.4H154.3v-2.559Zm3.643,7.754A6.19,6.19,0,0,1,160.9-9.282a3.644,3.644,0,0,1,3.018-1.479,3.665,3.665,0,0,1,2.939,1.27V-15h1.807V0H167l-.088-1.133A3.679,3.679,0,0,1,163.9.2a3.609,3.609,0,0,1-2.993-1.5,6.26,6.26,0,0,1-1.157-3.926Zm1.807.205a4.687,4.687,0,0,0,.742,2.813,2.4,2.4,0,0,0,2.051,1.016,2.636,2.636,0,0,0,2.51-1.543V-7.734a2.656,2.656,0,0,0-2.49-1.494,2.411,2.411,0,0,0-2.07,1.025A5.16,5.16,0,0,0,161.553-5.166Z" transform="translate(-1673.808 -4526.063)" fill="#12263f"/>
    <g id="Grupo_84094" data-name="Grupo 84094" transform="translate(-1479.693 1524)">
      <path id="Trazado_125254" data-name="Trazado 125254" d="M-380-6076.6v-25.206" transform="translate(0 -1)" fill="none" stroke="#000" stroke-width="1"/>
      <path id="Trazado_125255" data-name="Trazado 125255" d="M-388.757-6094.33l8.657-8.657,8.657,8.657" fill="none" stroke="#000" stroke-width="1"/>
    </g>
    <g id="Grupo_84095" data-name="Grupo 84095" transform="translate(-1223.407 1524)">
      <path id="Trazado_125254-2" data-name="Trazado 125254" d="M-380-6076.6v-25.206" transform="translate(0 -1)" fill="none" stroke="#000" stroke-width="1"/>
      <path id="Trazado_125255-2" data-name="Trazado 125255" d="M-388.757-6094.33l8.657-8.657,8.657,8.657" fill="none" stroke="#000" stroke-width="1"/>
    </g>
    <path id="Trazado_125256" data-name="Trazado 125256" d="M-629.242-6127.8v16.842" transform="translate(-1524 1524)" fill="none" stroke="#0d66bf" stroke-width="2"/>
    <path id="Trazado_125257" data-name="Trazado 125257" d="M-629.242-6127.8v16.842" transform="translate(-1327.912 1524)" fill="none" stroke="#0d66bf" stroke-width="2"/>
    <path id="Trazado_125258" data-name="Trazado 125258" d="M-629.242-6127.8v16.842" transform="translate(-887.748 1524)" fill="none" stroke="#0d66bf" stroke-width="2"/>
    <path id="Trazado_125259" data-name="Trazado 125259" d="M-629.242-6127.8v16.842" transform="translate(-712.908 1524)" fill="none" stroke="#0d66bf" stroke-width="2"/>
  </g>
</svg>
