<svg xmlns="http://www.w3.org/2000/svg" width="605.922" height="429.946" viewBox="0 0 605.922 429.946">
  <g id="Grupo_84678" data-name="Grupo 84678" transform="translate(-491.681 -629.182)">
    <path id="Trazado_125913" data-name="Trazado 125913" d="M0,0H22V315H0Z" transform="translate(540 682)" fill="#0d66bf"/>
    <path id="Trazado_125917" data-name="Trazado 125917" d="M0,0H22V241H0Z" transform="translate(592 756)" fill="#0d66bf"/>
    <path id="Trazado_125918" data-name="Trazado 125918" d="M0,0H22V194H0Z" transform="translate(644 803)" fill="#0d66bf"/>
    <path id="Trazado_125924" data-name="Trazado 125924" d="M0,0H22V110H0Z" transform="translate(696 887)" fill="#0d66bf"/>
    <path id="Trazado_125927" data-name="Trazado 125927" d="M0,0H22V48H0Z" transform="translate(748 949)" fill="#0d66bf"/>
    <path id="Trazado_125934" data-name="Trazado 125934" d="M0,0H22V35H0Z" transform="translate(800 962)" fill="#0d66bf"/>
    <path id="Trazado_125937" data-name="Trazado 125937" d="M0,0H22V35H0Z" transform="translate(852 962)" fill="#0d66bf"/>
    <path id="Trazado_125940" data-name="Trazado 125940" d="M0,0H22V24H0Z" transform="translate(907 973)" fill="#0d66bf"/>
    <path id="Trazado_125943" data-name="Trazado 125943" d="M0,0H22V24H0Z" transform="translate(959 973)" fill="#0d66bf"/>
    <path id="Trazado_125946" data-name="Trazado 125946" d="M0,0H22V12H0Z" transform="translate(1014 985)" fill="#0d66bf"/>
    <path id="Trazado_125910" data-name="Trazado 125910" d="M2.856-5.991H3.875A2.238,2.238,0,0,0,5.383-6.5a1.688,1.688,0,0,0,.549-1.326A1.654,1.654,0,0,0,4.065-9.7a1.943,1.943,0,0,0-1.4.5,1.756,1.756,0,0,0-.524,1.329H.784A2.72,2.72,0,0,1,1.71-9.972a3.375,3.375,0,0,1,2.355-.839,3.335,3.335,0,0,1,2.366.8,2.884,2.884,0,0,1,.857,2.219,2.341,2.341,0,0,1-.45,1.348,2.72,2.72,0,0,1-1.227.974,2.621,2.621,0,0,1,1.359.923,2.563,2.563,0,0,1,.48,1.575A2.909,2.909,0,0,1,6.511-.7,3.511,3.511,0,0,1,4.072.146,3.6,3.6,0,0,1,1.63-.667,2.7,2.7,0,0,1,.688-2.812H2.051A1.743,1.743,0,0,0,2.6-1.465a2.089,2.089,0,0,0,1.472.505,2.05,2.05,0,0,0,1.5-.513,1.976,1.976,0,0,0,.52-1.472,1.793,1.793,0,0,0-.571-1.428,2.489,2.489,0,0,0-1.648-.513H2.856Zm7.075.645.542-5.317h5.464v1.252H11.624L11.3-6.5a3.441,3.441,0,0,1,1.78-.461A2.942,2.942,0,0,1,15.4-6a3.775,3.775,0,0,1,.857,2.6,3.643,3.643,0,0,1-.89,2.6,3.243,3.243,0,0,1-2.487.948,3.371,3.371,0,0,1-2.307-.784A3.128,3.128,0,0,1,9.551-2.805h1.282a2.152,2.152,0,0,0,.652,1.381,2.027,2.027,0,0,0,1.392.465A1.828,1.828,0,0,0,14.359-1.6a2.694,2.694,0,0,0,.538-1.78A2.473,2.473,0,0,0,14.315-5.1a1.981,1.981,0,0,0-1.549-.648,2.234,2.234,0,0,0-1.392.388l-.359.293Zm7.683-3.267a2.164,2.164,0,0,1,.612-1.582,2.107,2.107,0,0,1,1.571-.623,2.094,2.094,0,0,1,1.578.626,2.239,2.239,0,0,1,.6,1.622v.52a2.136,2.136,0,0,1-.612,1.578,2.108,2.108,0,0,1-1.556.612,2.155,2.155,0,0,1-1.575-.612,2.181,2.181,0,0,1-.623-1.63Zm1.011.561a1.386,1.386,0,0,0,.322.943,1.087,1.087,0,0,0,.864.371,1.066,1.066,0,0,0,.839-.36,1.431,1.431,0,0,0,.319-.984v-.536a1.421,1.421,0,0,0-.315-.947,1.061,1.061,0,0,0-.857-.374,1.061,1.061,0,0,0-.857.374,1.465,1.465,0,0,0-.315.976Zm4.182,5.438a2.151,2.151,0,0,1,.612-1.578,2.113,2.113,0,0,1,1.571-.619,2.132,2.132,0,0,1,1.575.615,2.208,2.208,0,0,1,.615,1.633v.52a2.151,2.151,0,0,1-.612,1.578A2.1,2.1,0,0,1,25,.154,2.155,2.155,0,0,1,23.43-.458a2.181,2.181,0,0,1-.623-1.63Zm1.011.568a1.4,1.4,0,0,0,.322.951A1.087,1.087,0,0,0,25-.725a1.059,1.059,0,0,0,.842-.363,1.456,1.456,0,0,0,.315-.987v-.543a1.393,1.393,0,0,0-.319-.947,1.073,1.073,0,0,0-.853-.367,1.084,1.084,0,0,0-.846.363,1.413,1.413,0,0,0-.326.98ZM20.12-.806l-.769-.483,5.208-8.335.769.483Z" transform="translate(491 640)" fill="#6c6c6c"/>
    <path id="Trazado_125911" data-name="Trazado 125911" d="M2.856-5.991H3.875A2.238,2.238,0,0,0,5.383-6.5a1.688,1.688,0,0,0,.549-1.326A1.654,1.654,0,0,0,4.065-9.7a1.943,1.943,0,0,0-1.4.5,1.756,1.756,0,0,0-.524,1.329H.784A2.72,2.72,0,0,1,1.71-9.972a3.375,3.375,0,0,1,2.355-.839,3.335,3.335,0,0,1,2.366.8,2.884,2.884,0,0,1,.857,2.219,2.341,2.341,0,0,1-.45,1.348,2.72,2.72,0,0,1-1.227.974,2.621,2.621,0,0,1,1.359.923,2.563,2.563,0,0,1,.48,1.575A2.909,2.909,0,0,1,6.511-.7,3.511,3.511,0,0,1,4.072.146,3.6,3.6,0,0,1,1.63-.667,2.7,2.7,0,0,1,.688-2.812H2.051A1.743,1.743,0,0,0,2.6-1.465a2.089,2.089,0,0,0,1.472.505,2.05,2.05,0,0,0,1.5-.513,1.976,1.976,0,0,0,.52-1.472,1.793,1.793,0,0,0-.571-1.428,2.489,2.489,0,0,0-1.648-.513H2.856ZM16-4.548a6.2,6.2,0,0,1-.813,3.538A2.891,2.891,0,0,1,12.642.146,2.912,2.912,0,0,1,10.115-.985a5.882,5.882,0,0,1-.85-3.38V-6.174a6.059,6.059,0,0,1,.813-3.494,2.914,2.914,0,0,1,2.549-1.143,2.94,2.94,0,0,1,2.534,1.1A5.847,5.847,0,0,1,16-6.306ZM14.641-6.4a4.965,4.965,0,0,0-.483-2.509A1.664,1.664,0,0,0,12.627-9.7a1.642,1.642,0,0,0-1.516.784A4.848,4.848,0,0,0,10.62-6.5v2.168a5.045,5.045,0,0,0,.5,2.552,1.661,1.661,0,0,0,1.52.824,1.638,1.638,0,0,0,1.49-.776,4.862,4.862,0,0,0,.509-2.446Zm2.974-2.212a2.164,2.164,0,0,1,.612-1.582,2.107,2.107,0,0,1,1.571-.623,2.094,2.094,0,0,1,1.578.626,2.239,2.239,0,0,1,.6,1.622v.52a2.136,2.136,0,0,1-.612,1.578,2.108,2.108,0,0,1-1.556.612,2.155,2.155,0,0,1-1.575-.612,2.181,2.181,0,0,1-.623-1.63Zm1.011.561a1.386,1.386,0,0,0,.322.943,1.087,1.087,0,0,0,.864.371,1.066,1.066,0,0,0,.839-.36,1.431,1.431,0,0,0,.319-.984v-.536a1.421,1.421,0,0,0-.315-.947,1.061,1.061,0,0,0-.857-.374,1.061,1.061,0,0,0-.857.374,1.465,1.465,0,0,0-.315.976Zm4.182,5.438a2.151,2.151,0,0,1,.612-1.578,2.113,2.113,0,0,1,1.571-.619,2.132,2.132,0,0,1,1.575.615,2.208,2.208,0,0,1,.615,1.633v.52a2.151,2.151,0,0,1-.612,1.578A2.1,2.1,0,0,1,25,.154,2.155,2.155,0,0,1,23.43-.458a2.181,2.181,0,0,1-.623-1.63Zm1.011.568a1.4,1.4,0,0,0,.322.951A1.087,1.087,0,0,0,25-.725a1.059,1.059,0,0,0,.842-.363,1.456,1.456,0,0,0,.315-.987v-.543a1.393,1.393,0,0,0-.319-.947,1.073,1.073,0,0,0-.853-.367,1.084,1.084,0,0,0-.846.363,1.413,1.413,0,0,0-.326.98ZM20.12-.806l-.769-.483,5.208-8.335.769.483Z" transform="translate(491 691)" fill="#6c6c6c"/>
    <path id="Trazado_125912" data-name="Trazado 125912" d="M7.874,0H.886V-.974l3.691-4.1A8.77,8.77,0,0,0,5.709-6.588a2.524,2.524,0,0,0,.311-1.2,1.913,1.913,0,0,0-.505-1.37A1.767,1.767,0,0,0,4.167-9.7,2.093,2.093,0,0,0,2.6-9.122a2.2,2.2,0,0,0-.56,1.6H.681A3.145,3.145,0,0,1,1.63-9.9a3.516,3.516,0,0,1,2.538-.908,3.379,3.379,0,0,1,2.351.78,2.661,2.661,0,0,1,.864,2.076q0,1.575-2.007,3.75L2.52-1.106H7.874ZM9.932-5.347l.542-5.317h5.464v1.252H11.624L11.3-6.5a3.441,3.441,0,0,1,1.78-.461A2.942,2.942,0,0,1,15.4-6a3.775,3.775,0,0,1,.857,2.6,3.643,3.643,0,0,1-.89,2.6,3.243,3.243,0,0,1-2.487.948,3.371,3.371,0,0,1-2.307-.784A3.128,3.128,0,0,1,9.551-2.805h1.282a2.152,2.152,0,0,0,.652,1.381,2.027,2.027,0,0,0,1.392.465A1.828,1.828,0,0,0,14.359-1.6a2.694,2.694,0,0,0,.538-1.78A2.473,2.473,0,0,0,14.315-5.1a1.981,1.981,0,0,0-1.549-.648,2.234,2.234,0,0,0-1.392.388l-.359.293Zm7.683-3.267a2.164,2.164,0,0,1,.612-1.582,2.107,2.107,0,0,1,1.571-.623,2.094,2.094,0,0,1,1.578.626,2.239,2.239,0,0,1,.6,1.622v.52a2.136,2.136,0,0,1-.612,1.578,2.108,2.108,0,0,1-1.556.612,2.155,2.155,0,0,1-1.575-.612,2.181,2.181,0,0,1-.623-1.63Zm1.011.561a1.386,1.386,0,0,0,.322.943,1.087,1.087,0,0,0,.864.371,1.066,1.066,0,0,0,.839-.36,1.431,1.431,0,0,0,.319-.984v-.536a1.421,1.421,0,0,0-.315-.947,1.061,1.061,0,0,0-.857-.374,1.061,1.061,0,0,0-.857.374,1.465,1.465,0,0,0-.315.976Zm4.182,5.438a2.151,2.151,0,0,1,.612-1.578,2.113,2.113,0,0,1,1.571-.619,2.132,2.132,0,0,1,1.575.615,2.208,2.208,0,0,1,.615,1.633v.52a2.151,2.151,0,0,1-.612,1.578A2.1,2.1,0,0,1,25,.154,2.155,2.155,0,0,1,23.43-.458a2.181,2.181,0,0,1-.623-1.63Zm1.011.568a1.4,1.4,0,0,0,.322.951A1.087,1.087,0,0,0,25-.725a1.059,1.059,0,0,0,.842-.363,1.456,1.456,0,0,0,.315-.987v-.543a1.393,1.393,0,0,0-.319-.947,1.073,1.073,0,0,0-.853-.367,1.084,1.084,0,0,0-.846.363,1.413,1.413,0,0,0-.326.98ZM20.12-.806l-.769-.483,5.208-8.335.769.483Z" transform="translate(491 742)" fill="#6c6c6c"/>
    <path id="Trazado_125914" data-name="Trazado 125914" d="M7.874,0H.886V-.974l3.691-4.1A8.77,8.77,0,0,0,5.709-6.588a2.524,2.524,0,0,0,.311-1.2,1.913,1.913,0,0,0-.505-1.37A1.767,1.767,0,0,0,4.167-9.7,2.093,2.093,0,0,0,2.6-9.122a2.2,2.2,0,0,0-.56,1.6H.681A3.145,3.145,0,0,1,1.63-9.9a3.516,3.516,0,0,1,2.538-.908,3.379,3.379,0,0,1,2.351.78,2.661,2.661,0,0,1,.864,2.076q0,1.575-2.007,3.75L2.52-1.106H7.874ZM16-4.548a6.2,6.2,0,0,1-.813,3.538A2.891,2.891,0,0,1,12.642.146,2.912,2.912,0,0,1,10.115-.985a5.882,5.882,0,0,1-.85-3.38V-6.174a6.059,6.059,0,0,1,.813-3.494,2.914,2.914,0,0,1,2.549-1.143,2.94,2.94,0,0,1,2.534,1.1A5.847,5.847,0,0,1,16-6.306ZM14.641-6.4a4.965,4.965,0,0,0-.483-2.509A1.664,1.664,0,0,0,12.627-9.7a1.642,1.642,0,0,0-1.516.784A4.848,4.848,0,0,0,10.62-6.5v2.168a5.045,5.045,0,0,0,.5,2.552,1.661,1.661,0,0,0,1.52.824,1.638,1.638,0,0,0,1.49-.776,4.862,4.862,0,0,0,.509-2.446Zm2.974-2.212a2.164,2.164,0,0,1,.612-1.582,2.107,2.107,0,0,1,1.571-.623,2.094,2.094,0,0,1,1.578.626,2.239,2.239,0,0,1,.6,1.622v.52a2.136,2.136,0,0,1-.612,1.578,2.108,2.108,0,0,1-1.556.612,2.155,2.155,0,0,1-1.575-.612,2.181,2.181,0,0,1-.623-1.63Zm1.011.561a1.386,1.386,0,0,0,.322.943,1.087,1.087,0,0,0,.864.371,1.066,1.066,0,0,0,.839-.36,1.431,1.431,0,0,0,.319-.984v-.536a1.421,1.421,0,0,0-.315-.947,1.061,1.061,0,0,0-.857-.374,1.061,1.061,0,0,0-.857.374,1.465,1.465,0,0,0-.315.976Zm4.182,5.438a2.151,2.151,0,0,1,.612-1.578,2.113,2.113,0,0,1,1.571-.619,2.132,2.132,0,0,1,1.575.615,2.208,2.208,0,0,1,.615,1.633v.52a2.151,2.151,0,0,1-.612,1.578A2.1,2.1,0,0,1,25,.154,2.155,2.155,0,0,1,23.43-.458a2.181,2.181,0,0,1-.623-1.63Zm1.011.568a1.4,1.4,0,0,0,.322.951A1.087,1.087,0,0,0,25-.725a1.059,1.059,0,0,0,.842-.363,1.456,1.456,0,0,0,.315-.987v-.543a1.393,1.393,0,0,0-.319-.947,1.073,1.073,0,0,0-.853-.367,1.084,1.084,0,0,0-.846.363,1.413,1.413,0,0,0-.326.98ZM20.12-.806l-.769-.483,5.208-8.335.769.483Z" transform="translate(491 796)" fill="#6c6c6c"/>
    <path id="Trazado_125915" data-name="Trazado 125915" d="M5.339,0H3.977V-9.031l-2.732,1v-1.23l3.882-1.458h.212ZM9.932-5.347l.542-5.317h5.464v1.252H11.624L11.3-6.5a3.441,3.441,0,0,1,1.78-.461A2.942,2.942,0,0,1,15.4-6a3.775,3.775,0,0,1,.857,2.6,3.643,3.643,0,0,1-.89,2.6,3.243,3.243,0,0,1-2.487.948,3.371,3.371,0,0,1-2.307-.784A3.128,3.128,0,0,1,9.551-2.805h1.282a2.152,2.152,0,0,0,.652,1.381,2.027,2.027,0,0,0,1.392.465A1.828,1.828,0,0,0,14.359-1.6a2.694,2.694,0,0,0,.538-1.78A2.473,2.473,0,0,0,14.315-5.1a1.981,1.981,0,0,0-1.549-.648,2.234,2.234,0,0,0-1.392.388l-.359.293Zm7.683-3.267a2.164,2.164,0,0,1,.612-1.582,2.107,2.107,0,0,1,1.571-.623,2.094,2.094,0,0,1,1.578.626,2.239,2.239,0,0,1,.6,1.622v.52a2.136,2.136,0,0,1-.612,1.578,2.108,2.108,0,0,1-1.556.612,2.155,2.155,0,0,1-1.575-.612,2.181,2.181,0,0,1-.623-1.63Zm1.011.561a1.386,1.386,0,0,0,.322.943,1.087,1.087,0,0,0,.864.371,1.066,1.066,0,0,0,.839-.36,1.431,1.431,0,0,0,.319-.984v-.536a1.421,1.421,0,0,0-.315-.947,1.061,1.061,0,0,0-.857-.374,1.061,1.061,0,0,0-.857.374,1.465,1.465,0,0,0-.315.976Zm4.182,5.438a2.151,2.151,0,0,1,.612-1.578,2.113,2.113,0,0,1,1.571-.619,2.132,2.132,0,0,1,1.575.615,2.208,2.208,0,0,1,.615,1.633v.52a2.151,2.151,0,0,1-.612,1.578A2.1,2.1,0,0,1,25,.154,2.155,2.155,0,0,1,23.43-.458a2.181,2.181,0,0,1-.623-1.63Zm1.011.568a1.4,1.4,0,0,0,.322.951A1.087,1.087,0,0,0,25-.725a1.059,1.059,0,0,0,.842-.363,1.456,1.456,0,0,0,.315-.987v-.543a1.393,1.393,0,0,0-.319-.947,1.073,1.073,0,0,0-.853-.367,1.084,1.084,0,0,0-.846.363,1.413,1.413,0,0,0-.326.98ZM20.12-.806l-.769-.483,5.208-8.335.769.483Z" transform="translate(491 847)" fill="#6c6c6c"/>
    <path id="Trazado_125919" data-name="Trazado 125919" d="M5.339,0H3.977V-9.031l-2.732,1v-1.23l3.882-1.458h.212ZM16-4.548a6.2,6.2,0,0,1-.813,3.538A2.891,2.891,0,0,1,12.642.146,2.912,2.912,0,0,1,10.115-.985a5.882,5.882,0,0,1-.85-3.38V-6.174a6.059,6.059,0,0,1,.813-3.494,2.914,2.914,0,0,1,2.549-1.143,2.94,2.94,0,0,1,2.534,1.1A5.847,5.847,0,0,1,16-6.306ZM14.641-6.4a4.965,4.965,0,0,0-.483-2.509A1.664,1.664,0,0,0,12.627-9.7a1.642,1.642,0,0,0-1.516.784A4.848,4.848,0,0,0,10.62-6.5v2.168a5.045,5.045,0,0,0,.5,2.552,1.661,1.661,0,0,0,1.52.824,1.638,1.638,0,0,0,1.49-.776,4.862,4.862,0,0,0,.509-2.446Zm2.974-2.212a2.164,2.164,0,0,1,.612-1.582,2.107,2.107,0,0,1,1.571-.623,2.094,2.094,0,0,1,1.578.626,2.239,2.239,0,0,1,.6,1.622v.52a2.136,2.136,0,0,1-.612,1.578,2.108,2.108,0,0,1-1.556.612,2.155,2.155,0,0,1-1.575-.612,2.181,2.181,0,0,1-.623-1.63Zm1.011.561a1.386,1.386,0,0,0,.322.943,1.087,1.087,0,0,0,.864.371,1.066,1.066,0,0,0,.839-.36,1.431,1.431,0,0,0,.319-.984v-.536a1.421,1.421,0,0,0-.315-.947,1.061,1.061,0,0,0-.857-.374,1.061,1.061,0,0,0-.857.374,1.465,1.465,0,0,0-.315.976Zm4.182,5.438a2.151,2.151,0,0,1,.612-1.578,2.113,2.113,0,0,1,1.571-.619,2.132,2.132,0,0,1,1.575.615,2.208,2.208,0,0,1,.615,1.633v.52a2.151,2.151,0,0,1-.612,1.578A2.1,2.1,0,0,1,25,.154,2.155,2.155,0,0,1,23.43-.458a2.181,2.181,0,0,1-.623-1.63Zm1.011.568a1.4,1.4,0,0,0,.322.951A1.087,1.087,0,0,0,25-.725a1.059,1.059,0,0,0,.842-.363,1.456,1.456,0,0,0,.315-.987v-.543a1.393,1.393,0,0,0-.319-.947,1.073,1.073,0,0,0-.853-.367,1.084,1.084,0,0,0-.846.363,1.413,1.413,0,0,0-.326.98ZM20.12-.806l-.769-.483,5.208-8.335.769.483Z" transform="translate(491 901)" fill="#6c6c6c"/>
    <path id="Trazado_125920" data-name="Trazado 125920" d="M1.509-5.347l.542-5.317H7.515v1.252H3.2L2.878-6.5a3.441,3.441,0,0,1,1.78-.461A2.942,2.942,0,0,1,6.973-6,3.775,3.775,0,0,1,7.83-3.4,3.643,3.643,0,0,1,6.94-.8,3.243,3.243,0,0,1,4.453.146,3.371,3.371,0,0,1,2.146-.637,3.128,3.128,0,0,1,1.128-2.805H2.41a2.152,2.152,0,0,0,.652,1.381,2.027,2.027,0,0,0,1.392.465A1.828,1.828,0,0,0,5.936-1.6a2.694,2.694,0,0,0,.538-1.78A2.473,2.473,0,0,0,5.892-5.1,1.981,1.981,0,0,0,4.343-5.75a2.234,2.234,0,0,0-1.392.388l-.359.293ZM9.192-8.613A2.164,2.164,0,0,1,9.8-10.2a2.107,2.107,0,0,1,1.571-.623,2.094,2.094,0,0,1,1.578.626,2.239,2.239,0,0,1,.6,1.622v.52a2.136,2.136,0,0,1-.612,1.578,2.108,2.108,0,0,1-1.556.612,2.155,2.155,0,0,1-1.575-.612A2.181,2.181,0,0,1,9.192-8.1Zm1.011.561a1.386,1.386,0,0,0,.322.943,1.087,1.087,0,0,0,.864.371,1.066,1.066,0,0,0,.839-.36,1.431,1.431,0,0,0,.319-.984v-.536a1.421,1.421,0,0,0-.315-.947,1.061,1.061,0,0,0-.857-.374,1.061,1.061,0,0,0-.857.374,1.465,1.465,0,0,0-.315.976Zm4.182,5.438A2.151,2.151,0,0,1,15-4.193a2.113,2.113,0,0,1,1.571-.619,2.132,2.132,0,0,1,1.575.615,2.208,2.208,0,0,1,.615,1.633v.52a2.151,2.151,0,0,1-.612,1.578,2.1,2.1,0,0,1-1.564.619,2.155,2.155,0,0,1-1.575-.612,2.181,2.181,0,0,1-.623-1.63Zm1.011.568a1.4,1.4,0,0,0,.322.951,1.087,1.087,0,0,0,.864.371,1.059,1.059,0,0,0,.842-.363,1.456,1.456,0,0,0,.315-.987v-.543a1.393,1.393,0,0,0-.319-.947,1.073,1.073,0,0,0-.853-.367,1.084,1.084,0,0,0-.846.363,1.413,1.413,0,0,0-.326.98ZM11.7-.806l-.769-.483,5.208-8.335.769.483Z" transform="translate(491 952)" fill="#6c6c6c"/>
    <path id="Trazado_125925" data-name="Trazado 125925" d="M7.573-4.548A6.2,6.2,0,0,1,6.76-1.011,2.891,2.891,0,0,1,4.219.146,2.912,2.912,0,0,1,1.692-.985a5.882,5.882,0,0,1-.85-3.38V-6.174a6.059,6.059,0,0,1,.813-3.494A2.914,2.914,0,0,1,4.2-10.811a2.94,2.94,0,0,1,2.534,1.1,5.847,5.847,0,0,1,.835,3.4ZM6.218-6.4A4.965,4.965,0,0,0,5.735-8.91,1.664,1.664,0,0,0,4.2-9.7a1.642,1.642,0,0,0-1.516.784A4.848,4.848,0,0,0,2.2-6.5v2.168a5.045,5.045,0,0,0,.5,2.552,1.661,1.661,0,0,0,1.52.824,1.638,1.638,0,0,0,1.49-.776,4.862,4.862,0,0,0,.509-2.446ZM9.192-8.613A2.164,2.164,0,0,1,9.8-10.2a2.107,2.107,0,0,1,1.571-.623,2.094,2.094,0,0,1,1.578.626,2.239,2.239,0,0,1,.6,1.622v.52a2.136,2.136,0,0,1-.612,1.578,2.108,2.108,0,0,1-1.556.612,2.155,2.155,0,0,1-1.575-.612A2.181,2.181,0,0,1,9.192-8.1Zm1.011.561a1.386,1.386,0,0,0,.322.943,1.087,1.087,0,0,0,.864.371,1.066,1.066,0,0,0,.839-.36,1.431,1.431,0,0,0,.319-.984v-.536a1.421,1.421,0,0,0-.315-.947,1.061,1.061,0,0,0-.857-.374,1.061,1.061,0,0,0-.857.374,1.465,1.465,0,0,0-.315.976Zm4.182,5.438A2.151,2.151,0,0,1,15-4.193a2.113,2.113,0,0,1,1.571-.619,2.132,2.132,0,0,1,1.575.615,2.208,2.208,0,0,1,.615,1.633v.52a2.151,2.151,0,0,1-.612,1.578,2.1,2.1,0,0,1-1.564.619,2.155,2.155,0,0,1-1.575-.612,2.181,2.181,0,0,1-.623-1.63Zm1.011.568a1.4,1.4,0,0,0,.322.951,1.087,1.087,0,0,0,.864.371,1.059,1.059,0,0,0,.842-.363,1.456,1.456,0,0,0,.315-.987v-.543a1.393,1.393,0,0,0-.319-.947,1.073,1.073,0,0,0-.853-.367,1.084,1.084,0,0,0-.846.363,1.413,1.413,0,0,0-.326.98ZM11.7-.806l-.769-.483,5.208-8.335.769.483Z" transform="translate(491 1003)" fill="#6c6c6c"/>
    <path id="Trazado_125928" data-name="Trazado 125928" d="M9.082-3.384A3.923,3.923,0,0,1,7.833-.773,4.093,4.093,0,0,1,5.039.146,3.758,3.758,0,0,1,2.01-1.208,5.451,5.451,0,0,1,.872-4.834V-5.859A6.076,6.076,0,0,1,1.4-8.474a3.966,3.966,0,0,1,1.505-1.732,4.191,4.191,0,0,1,2.256-.6,3.853,3.853,0,0,1,2.725.948A3.971,3.971,0,0,1,9.082-7.236H7.668a3.064,3.064,0,0,0-.795-1.851,2.4,2.4,0,0,0-1.71-.573,2.516,2.516,0,0,0-2.113,1,4.577,4.577,0,0,0-.765,2.837v1.034A4.7,4.7,0,0,0,3.01-2.03,2.343,2.343,0,0,0,5.039-1a2.706,2.706,0,0,0,1.8-.531,2.947,2.947,0,0,0,.831-1.849ZM15.681,0a2.846,2.846,0,0,1-.19-.835,3.023,3.023,0,0,1-2.256.981,2.8,2.8,0,0,1-1.923-.663A2.145,2.145,0,0,1,10.562-2.2,2.24,2.24,0,0,1,11.5-4.12,4.437,4.437,0,0,1,14.15-4.8h1.318v-.623a1.522,1.522,0,0,0-.425-1.132,1.707,1.707,0,0,0-1.252-.421,1.976,1.976,0,0,0-1.216.366,1.079,1.079,0,0,0-.491.886H10.723a1.87,1.87,0,0,1,.421-1.146,2.874,2.874,0,0,1,1.143-.875,3.844,3.844,0,0,1,1.586-.322,3.133,3.133,0,0,1,2.146.685A2.47,2.47,0,0,1,16.824-5.5v3.647A4.459,4.459,0,0,0,17.1-.117V0ZM13.433-1.033a2.381,2.381,0,0,0,1.208-.33,1.994,1.994,0,0,0,.828-.857V-3.845H14.407q-2.49,0-2.49,1.458a1.234,1.234,0,0,0,.425,1A1.633,1.633,0,0,0,13.433-1.033ZM23.84-.784a2.878,2.878,0,0,1-2.322.93,2.464,2.464,0,0,1-1.93-.736,3.186,3.186,0,0,1-.67-2.179V-7.925h1.355v5.12q0,1.8,1.465,1.8A2.028,2.028,0,0,0,23.8-2.161V-7.925h1.355V0H23.87ZM31.831-2.1a1,1,0,0,0-.414-.853,3.983,3.983,0,0,0-1.443-.524,6.822,6.822,0,0,1-1.633-.527,2.324,2.324,0,0,1-.894-.732,1.752,1.752,0,0,1-.289-1.011A2.056,2.056,0,0,1,27.982-7.4a3.218,3.218,0,0,1,2.106-.674,3.311,3.311,0,0,1,2.186.7,2.21,2.21,0,0,1,.839,1.78H31.75a1.223,1.223,0,0,0-.472-.959,1.77,1.77,0,0,0-1.19-.4,1.852,1.852,0,0,0-1.157.322,1.014,1.014,0,0,0-.417.842.822.822,0,0,0,.388.74,4.776,4.776,0,0,0,1.4.476,7.308,7.308,0,0,1,1.644.542,2.4,2.4,0,0,1,.934.758,1.864,1.864,0,0,1,.3,1.08,2.028,2.028,0,0,1-.85,1.7,3.564,3.564,0,0,1-2.2.641A3.991,3.991,0,0,1,28.447-.19,2.74,2.74,0,0,1,27.3-1.132a2.268,2.268,0,0,1-.414-1.307h1.355a1.4,1.4,0,0,0,.546,1.08,2.117,2.117,0,0,0,1.344.4,2.185,2.185,0,0,0,1.234-.311A.956.956,0,0,0,31.831-2.1ZM39.844,0a2.846,2.846,0,0,1-.19-.835A3.023,3.023,0,0,1,37.4.146a2.8,2.8,0,0,1-1.923-.663A2.145,2.145,0,0,1,34.724-2.2a2.24,2.24,0,0,1,.941-1.923A4.437,4.437,0,0,1,38.313-4.8h1.318v-.623a1.522,1.522,0,0,0-.425-1.132,1.707,1.707,0,0,0-1.252-.421,1.976,1.976,0,0,0-1.216.366,1.079,1.079,0,0,0-.491.886H34.885a1.87,1.87,0,0,1,.421-1.146,2.874,2.874,0,0,1,1.143-.875,3.844,3.844,0,0,1,1.586-.322,3.133,3.133,0,0,1,2.146.685A2.47,2.47,0,0,1,40.986-5.5v3.647a4.459,4.459,0,0,0,.278,1.736V0ZM37.6-1.033a2.381,2.381,0,0,0,1.208-.33,1.994,1.994,0,0,0,.828-.857V-3.845H38.569q-2.49,0-2.49,1.458a1.234,1.234,0,0,0,.425,1A1.633,1.633,0,0,0,37.6-1.033ZM51.138,0H49.775V-9.031l-2.732,1v-1.23l3.882-1.458h.212Z" transform="translate(554 1060) rotate(-90)" fill="#6c6c6c"/>
    <path id="Trazado_125929" data-name="Trazado 125929" d="M9.082-3.384A3.923,3.923,0,0,1,7.833-.773,4.093,4.093,0,0,1,5.039.146,3.758,3.758,0,0,1,2.01-1.208,5.451,5.451,0,0,1,.872-4.834V-5.859A6.076,6.076,0,0,1,1.4-8.474a3.966,3.966,0,0,1,1.505-1.732,4.191,4.191,0,0,1,2.256-.6,3.853,3.853,0,0,1,2.725.948A3.971,3.971,0,0,1,9.082-7.236H7.668a3.064,3.064,0,0,0-.795-1.851,2.4,2.4,0,0,0-1.71-.573,2.516,2.516,0,0,0-2.113,1,4.577,4.577,0,0,0-.765,2.837v1.034A4.7,4.7,0,0,0,3.01-2.03,2.343,2.343,0,0,0,5.039-1a2.706,2.706,0,0,0,1.8-.531,2.947,2.947,0,0,0,.831-1.849ZM15.681,0a2.846,2.846,0,0,1-.19-.835,3.023,3.023,0,0,1-2.256.981,2.8,2.8,0,0,1-1.923-.663A2.145,2.145,0,0,1,10.562-2.2,2.24,2.24,0,0,1,11.5-4.12,4.437,4.437,0,0,1,14.15-4.8h1.318v-.623a1.522,1.522,0,0,0-.425-1.132,1.707,1.707,0,0,0-1.252-.421,1.976,1.976,0,0,0-1.216.366,1.079,1.079,0,0,0-.491.886H10.723a1.87,1.87,0,0,1,.421-1.146,2.874,2.874,0,0,1,1.143-.875,3.844,3.844,0,0,1,1.586-.322,3.133,3.133,0,0,1,2.146.685A2.47,2.47,0,0,1,16.824-5.5v3.647A4.459,4.459,0,0,0,17.1-.117V0ZM13.433-1.033a2.381,2.381,0,0,0,1.208-.33,1.994,1.994,0,0,0,.828-.857V-3.845H14.407q-2.49,0-2.49,1.458a1.234,1.234,0,0,0,.425,1A1.633,1.633,0,0,0,13.433-1.033ZM23.84-.784a2.878,2.878,0,0,1-2.322.93,2.464,2.464,0,0,1-1.93-.736,3.186,3.186,0,0,1-.67-2.179V-7.925h1.355v5.12q0,1.8,1.465,1.8A2.028,2.028,0,0,0,23.8-2.161V-7.925h1.355V0H23.87ZM31.831-2.1a1,1,0,0,0-.414-.853,3.983,3.983,0,0,0-1.443-.524,6.822,6.822,0,0,1-1.633-.527,2.324,2.324,0,0,1-.894-.732,1.752,1.752,0,0,1-.289-1.011A2.056,2.056,0,0,1,27.982-7.4a3.218,3.218,0,0,1,2.106-.674,3.311,3.311,0,0,1,2.186.7,2.21,2.21,0,0,1,.839,1.78H31.75a1.223,1.223,0,0,0-.472-.959,1.77,1.77,0,0,0-1.19-.4,1.852,1.852,0,0,0-1.157.322,1.014,1.014,0,0,0-.417.842.822.822,0,0,0,.388.74,4.776,4.776,0,0,0,1.4.476,7.308,7.308,0,0,1,1.644.542,2.4,2.4,0,0,1,.934.758,1.864,1.864,0,0,1,.3,1.08,2.028,2.028,0,0,1-.85,1.7,3.564,3.564,0,0,1-2.2.641A3.991,3.991,0,0,1,28.447-.19,2.74,2.74,0,0,1,27.3-1.132a2.268,2.268,0,0,1-.414-1.307h1.355a1.4,1.4,0,0,0,.546,1.08,2.117,2.117,0,0,0,1.344.4,2.185,2.185,0,0,0,1.234-.311A.956.956,0,0,0,31.831-2.1ZM39.844,0a2.846,2.846,0,0,1-.19-.835A3.023,3.023,0,0,1,37.4.146a2.8,2.8,0,0,1-1.923-.663A2.145,2.145,0,0,1,34.724-2.2a2.24,2.24,0,0,1,.941-1.923A4.437,4.437,0,0,1,38.313-4.8h1.318v-.623a1.522,1.522,0,0,0-.425-1.132,1.707,1.707,0,0,0-1.252-.421,1.976,1.976,0,0,0-1.216.366,1.079,1.079,0,0,0-.491.886H34.885a1.87,1.87,0,0,1,.421-1.146,2.874,2.874,0,0,1,1.143-.875,3.844,3.844,0,0,1,1.586-.322,3.133,3.133,0,0,1,2.146.685A2.47,2.47,0,0,1,40.986-5.5v3.647a4.459,4.459,0,0,0,.278,1.736V0ZM37.6-1.033a2.381,2.381,0,0,0,1.208-.33,1.994,1.994,0,0,0,.828-.857V-3.845H38.569q-2.49,0-2.49,1.458a1.234,1.234,0,0,0,.425,1A1.633,1.633,0,0,0,37.6-1.033ZM53.672,0H46.685V-.974l3.691-4.1a8.77,8.77,0,0,0,1.132-1.512,2.524,2.524,0,0,0,.311-1.2,1.913,1.913,0,0,0-.505-1.37A1.767,1.767,0,0,0,49.966-9.7a2.093,2.093,0,0,0-1.571.575,2.2,2.2,0,0,0-.56,1.6H46.479a3.145,3.145,0,0,1,.948-2.38,3.516,3.516,0,0,1,2.538-.908,3.379,3.379,0,0,1,2.351.78,2.661,2.661,0,0,1,.864,2.076q0,1.575-2.007,3.75l-2.856,3.1h5.354Z" transform="translate(608 1060) rotate(-90)" fill="#6c6c6c"/>
    <path id="Trazado_125930" data-name="Trazado 125930" d="M9.082-3.384A3.923,3.923,0,0,1,7.833-.773,4.093,4.093,0,0,1,5.039.146,3.758,3.758,0,0,1,2.01-1.208,5.451,5.451,0,0,1,.872-4.834V-5.859A6.076,6.076,0,0,1,1.4-8.474a3.966,3.966,0,0,1,1.505-1.732,4.191,4.191,0,0,1,2.256-.6,3.853,3.853,0,0,1,2.725.948A3.971,3.971,0,0,1,9.082-7.236H7.668a3.064,3.064,0,0,0-.795-1.851,2.4,2.4,0,0,0-1.71-.573,2.516,2.516,0,0,0-2.113,1,4.577,4.577,0,0,0-.765,2.837v1.034A4.7,4.7,0,0,0,3.01-2.03,2.343,2.343,0,0,0,5.039-1a2.706,2.706,0,0,0,1.8-.531,2.947,2.947,0,0,0,.831-1.849ZM15.681,0a2.846,2.846,0,0,1-.19-.835,3.023,3.023,0,0,1-2.256.981,2.8,2.8,0,0,1-1.923-.663A2.145,2.145,0,0,1,10.562-2.2,2.24,2.24,0,0,1,11.5-4.12,4.437,4.437,0,0,1,14.15-4.8h1.318v-.623a1.522,1.522,0,0,0-.425-1.132,1.707,1.707,0,0,0-1.252-.421,1.976,1.976,0,0,0-1.216.366,1.079,1.079,0,0,0-.491.886H10.723a1.87,1.87,0,0,1,.421-1.146,2.874,2.874,0,0,1,1.143-.875,3.844,3.844,0,0,1,1.586-.322,3.133,3.133,0,0,1,2.146.685A2.47,2.47,0,0,1,16.824-5.5v3.647A4.459,4.459,0,0,0,17.1-.117V0ZM13.433-1.033a2.381,2.381,0,0,0,1.208-.33,1.994,1.994,0,0,0,.828-.857V-3.845H14.407q-2.49,0-2.49,1.458a1.234,1.234,0,0,0,.425,1A1.633,1.633,0,0,0,13.433-1.033ZM23.84-.784a2.878,2.878,0,0,1-2.322.93,2.464,2.464,0,0,1-1.93-.736,3.186,3.186,0,0,1-.67-2.179V-7.925h1.355v5.12q0,1.8,1.465,1.8A2.028,2.028,0,0,0,23.8-2.161V-7.925h1.355V0H23.87ZM31.831-2.1a1,1,0,0,0-.414-.853,3.983,3.983,0,0,0-1.443-.524,6.822,6.822,0,0,1-1.633-.527,2.324,2.324,0,0,1-.894-.732,1.752,1.752,0,0,1-.289-1.011A2.056,2.056,0,0,1,27.982-7.4a3.218,3.218,0,0,1,2.106-.674,3.311,3.311,0,0,1,2.186.7,2.21,2.21,0,0,1,.839,1.78H31.75a1.223,1.223,0,0,0-.472-.959,1.77,1.77,0,0,0-1.19-.4,1.852,1.852,0,0,0-1.157.322,1.014,1.014,0,0,0-.417.842.822.822,0,0,0,.388.74,4.776,4.776,0,0,0,1.4.476,7.308,7.308,0,0,1,1.644.542,2.4,2.4,0,0,1,.934.758,1.864,1.864,0,0,1,.3,1.08,2.028,2.028,0,0,1-.85,1.7,3.564,3.564,0,0,1-2.2.641A3.991,3.991,0,0,1,28.447-.19,2.74,2.74,0,0,1,27.3-1.132a2.268,2.268,0,0,1-.414-1.307h1.355a1.4,1.4,0,0,0,.546,1.08,2.117,2.117,0,0,0,1.344.4,2.185,2.185,0,0,0,1.234-.311A.956.956,0,0,0,31.831-2.1ZM39.844,0a2.846,2.846,0,0,1-.19-.835A3.023,3.023,0,0,1,37.4.146a2.8,2.8,0,0,1-1.923-.663A2.145,2.145,0,0,1,34.724-2.2a2.24,2.24,0,0,1,.941-1.923A4.437,4.437,0,0,1,38.313-4.8h1.318v-.623a1.522,1.522,0,0,0-.425-1.132,1.707,1.707,0,0,0-1.252-.421,1.976,1.976,0,0,0-1.216.366,1.079,1.079,0,0,0-.491.886H34.885a1.87,1.87,0,0,1,.421-1.146,2.874,2.874,0,0,1,1.143-.875,3.844,3.844,0,0,1,1.586-.322,3.133,3.133,0,0,1,2.146.685A2.47,2.47,0,0,1,40.986-5.5v3.647a4.459,4.459,0,0,0,.278,1.736V0ZM37.6-1.033a2.381,2.381,0,0,0,1.208-.33,1.994,1.994,0,0,0,.828-.857V-3.845H38.569q-2.49,0-2.49,1.458a1.234,1.234,0,0,0,.425,1A1.633,1.633,0,0,0,37.6-1.033Zm11.06-4.958h1.018A2.238,2.238,0,0,0,51.182-6.5a1.688,1.688,0,0,0,.549-1.326A1.654,1.654,0,0,0,49.863-9.7a1.943,1.943,0,0,0-1.4.5,1.756,1.756,0,0,0-.524,1.329H46.582a2.72,2.72,0,0,1,.927-2.106,3.375,3.375,0,0,1,2.355-.839,3.335,3.335,0,0,1,2.366.8,2.884,2.884,0,0,1,.857,2.219,2.341,2.341,0,0,1-.45,1.348,2.72,2.72,0,0,1-1.227.974,2.621,2.621,0,0,1,1.359.923,2.563,2.563,0,0,1,.48,1.575A2.909,2.909,0,0,1,52.31-.7a3.511,3.511,0,0,1-2.439.842,3.6,3.6,0,0,1-2.443-.813,2.7,2.7,0,0,1-.941-2.146h1.362A1.743,1.743,0,0,0,48.4-1.465a2.089,2.089,0,0,0,1.472.505,2.05,2.05,0,0,0,1.5-.513,1.976,1.976,0,0,0,.52-1.472,1.793,1.793,0,0,0-.571-1.428,2.489,2.489,0,0,0-1.648-.513H48.655Z" transform="translate(662 1060) rotate(-90)" fill="#6c6c6c"/>
    <path id="Trazado_125931" data-name="Trazado 125931" d="M9.082-3.384A3.923,3.923,0,0,1,7.833-.773,4.093,4.093,0,0,1,5.039.146,3.758,3.758,0,0,1,2.01-1.208,5.451,5.451,0,0,1,.872-4.834V-5.859A6.076,6.076,0,0,1,1.4-8.474a3.966,3.966,0,0,1,1.505-1.732,4.191,4.191,0,0,1,2.256-.6,3.853,3.853,0,0,1,2.725.948A3.971,3.971,0,0,1,9.082-7.236H7.668a3.064,3.064,0,0,0-.795-1.851,2.4,2.4,0,0,0-1.71-.573,2.516,2.516,0,0,0-2.113,1,4.577,4.577,0,0,0-.765,2.837v1.034A4.7,4.7,0,0,0,3.01-2.03,2.343,2.343,0,0,0,5.039-1a2.706,2.706,0,0,0,1.8-.531,2.947,2.947,0,0,0,.831-1.849ZM15.681,0a2.846,2.846,0,0,1-.19-.835,3.023,3.023,0,0,1-2.256.981,2.8,2.8,0,0,1-1.923-.663A2.145,2.145,0,0,1,10.562-2.2,2.24,2.24,0,0,1,11.5-4.12,4.437,4.437,0,0,1,14.15-4.8h1.318v-.623a1.522,1.522,0,0,0-.425-1.132,1.707,1.707,0,0,0-1.252-.421,1.976,1.976,0,0,0-1.216.366,1.079,1.079,0,0,0-.491.886H10.723a1.87,1.87,0,0,1,.421-1.146,2.874,2.874,0,0,1,1.143-.875,3.844,3.844,0,0,1,1.586-.322,3.133,3.133,0,0,1,2.146.685A2.47,2.47,0,0,1,16.824-5.5v3.647A4.459,4.459,0,0,0,17.1-.117V0ZM13.433-1.033a2.381,2.381,0,0,0,1.208-.33,1.994,1.994,0,0,0,.828-.857V-3.845H14.407q-2.49,0-2.49,1.458a1.234,1.234,0,0,0,.425,1A1.633,1.633,0,0,0,13.433-1.033ZM23.84-.784a2.878,2.878,0,0,1-2.322.93,2.464,2.464,0,0,1-1.93-.736,3.186,3.186,0,0,1-.67-2.179V-7.925h1.355v5.12q0,1.8,1.465,1.8A2.028,2.028,0,0,0,23.8-2.161V-7.925h1.355V0H23.87ZM31.831-2.1a1,1,0,0,0-.414-.853,3.983,3.983,0,0,0-1.443-.524,6.822,6.822,0,0,1-1.633-.527,2.324,2.324,0,0,1-.894-.732,1.752,1.752,0,0,1-.289-1.011A2.056,2.056,0,0,1,27.982-7.4a3.218,3.218,0,0,1,2.106-.674,3.311,3.311,0,0,1,2.186.7,2.21,2.21,0,0,1,.839,1.78H31.75a1.223,1.223,0,0,0-.472-.959,1.77,1.77,0,0,0-1.19-.4,1.852,1.852,0,0,0-1.157.322,1.014,1.014,0,0,0-.417.842.822.822,0,0,0,.388.74,4.776,4.776,0,0,0,1.4.476,7.308,7.308,0,0,1,1.644.542,2.4,2.4,0,0,1,.934.758,1.864,1.864,0,0,1,.3,1.08,2.028,2.028,0,0,1-.85,1.7,3.564,3.564,0,0,1-2.2.641A3.991,3.991,0,0,1,28.447-.19,2.74,2.74,0,0,1,27.3-1.132a2.268,2.268,0,0,1-.414-1.307h1.355a1.4,1.4,0,0,0,.546,1.08,2.117,2.117,0,0,0,1.344.4,2.185,2.185,0,0,0,1.234-.311A.956.956,0,0,0,31.831-2.1ZM39.844,0a2.846,2.846,0,0,1-.19-.835A3.023,3.023,0,0,1,37.4.146a2.8,2.8,0,0,1-1.923-.663A2.145,2.145,0,0,1,34.724-2.2a2.24,2.24,0,0,1,.941-1.923A4.437,4.437,0,0,1,38.313-4.8h1.318v-.623a1.522,1.522,0,0,0-.425-1.132,1.707,1.707,0,0,0-1.252-.421,1.976,1.976,0,0,0-1.216.366,1.079,1.079,0,0,0-.491.886H34.885a1.87,1.87,0,0,1,.421-1.146,2.874,2.874,0,0,1,1.143-.875,3.844,3.844,0,0,1,1.586-.322,3.133,3.133,0,0,1,2.146.685A2.47,2.47,0,0,1,40.986-5.5v3.647a4.459,4.459,0,0,0,.278,1.736V0ZM37.6-1.033a2.381,2.381,0,0,0,1.208-.33,1.994,1.994,0,0,0,.828-.857V-3.845H38.569q-2.49,0-2.49,1.458a1.234,1.234,0,0,0,.425,1A1.633,1.633,0,0,0,37.6-1.033ZM52.4-3.582h1.479v1.106H52.4V0H51.042V-2.476H46.187v-.8l4.775-7.39H52.4Zm-4.68,0h3.318V-8.811l-.161.293Z" transform="translate(716 1060) rotate(-90)" fill="#6c6c6c"/>
    <path id="Trazado_125932" data-name="Trazado 125932" d="M9.082-3.384A3.923,3.923,0,0,1,7.833-.773,4.093,4.093,0,0,1,5.039.146,3.758,3.758,0,0,1,2.01-1.208,5.451,5.451,0,0,1,.872-4.834V-5.859A6.076,6.076,0,0,1,1.4-8.474a3.966,3.966,0,0,1,1.505-1.732,4.191,4.191,0,0,1,2.256-.6,3.853,3.853,0,0,1,2.725.948A3.971,3.971,0,0,1,9.082-7.236H7.668a3.064,3.064,0,0,0-.795-1.851,2.4,2.4,0,0,0-1.71-.573,2.516,2.516,0,0,0-2.113,1,4.577,4.577,0,0,0-.765,2.837v1.034A4.7,4.7,0,0,0,3.01-2.03,2.343,2.343,0,0,0,5.039-1a2.706,2.706,0,0,0,1.8-.531,2.947,2.947,0,0,0,.831-1.849ZM15.681,0a2.846,2.846,0,0,1-.19-.835,3.023,3.023,0,0,1-2.256.981,2.8,2.8,0,0,1-1.923-.663A2.145,2.145,0,0,1,10.562-2.2,2.24,2.24,0,0,1,11.5-4.12,4.437,4.437,0,0,1,14.15-4.8h1.318v-.623a1.522,1.522,0,0,0-.425-1.132,1.707,1.707,0,0,0-1.252-.421,1.976,1.976,0,0,0-1.216.366,1.079,1.079,0,0,0-.491.886H10.723a1.87,1.87,0,0,1,.421-1.146,2.874,2.874,0,0,1,1.143-.875,3.844,3.844,0,0,1,1.586-.322,3.133,3.133,0,0,1,2.146.685A2.47,2.47,0,0,1,16.824-5.5v3.647A4.459,4.459,0,0,0,17.1-.117V0ZM13.433-1.033a2.381,2.381,0,0,0,1.208-.33,1.994,1.994,0,0,0,.828-.857V-3.845H14.407q-2.49,0-2.49,1.458a1.234,1.234,0,0,0,.425,1A1.633,1.633,0,0,0,13.433-1.033ZM23.84-.784a2.878,2.878,0,0,1-2.322.93,2.464,2.464,0,0,1-1.93-.736,3.186,3.186,0,0,1-.67-2.179V-7.925h1.355v5.12q0,1.8,1.465,1.8A2.028,2.028,0,0,0,23.8-2.161V-7.925h1.355V0H23.87ZM31.831-2.1a1,1,0,0,0-.414-.853,3.983,3.983,0,0,0-1.443-.524,6.822,6.822,0,0,1-1.633-.527,2.324,2.324,0,0,1-.894-.732,1.752,1.752,0,0,1-.289-1.011A2.056,2.056,0,0,1,27.982-7.4a3.218,3.218,0,0,1,2.106-.674,3.311,3.311,0,0,1,2.186.7,2.21,2.21,0,0,1,.839,1.78H31.75a1.223,1.223,0,0,0-.472-.959,1.77,1.77,0,0,0-1.19-.4,1.852,1.852,0,0,0-1.157.322,1.014,1.014,0,0,0-.417.842.822.822,0,0,0,.388.74,4.776,4.776,0,0,0,1.4.476,7.308,7.308,0,0,1,1.644.542,2.4,2.4,0,0,1,.934.758,1.864,1.864,0,0,1,.3,1.08,2.028,2.028,0,0,1-.85,1.7,3.564,3.564,0,0,1-2.2.641A3.991,3.991,0,0,1,28.447-.19,2.74,2.74,0,0,1,27.3-1.132a2.268,2.268,0,0,1-.414-1.307h1.355a1.4,1.4,0,0,0,.546,1.08,2.117,2.117,0,0,0,1.344.4,2.185,2.185,0,0,0,1.234-.311A.956.956,0,0,0,31.831-2.1ZM39.844,0a2.846,2.846,0,0,1-.19-.835A3.023,3.023,0,0,1,37.4.146a2.8,2.8,0,0,1-1.923-.663A2.145,2.145,0,0,1,34.724-2.2a2.24,2.24,0,0,1,.941-1.923A4.437,4.437,0,0,1,38.313-4.8h1.318v-.623a1.522,1.522,0,0,0-.425-1.132,1.707,1.707,0,0,0-1.252-.421,1.976,1.976,0,0,0-1.216.366,1.079,1.079,0,0,0-.491.886H34.885a1.87,1.87,0,0,1,.421-1.146,2.874,2.874,0,0,1,1.143-.875,3.844,3.844,0,0,1,1.586-.322,3.133,3.133,0,0,1,2.146.685A2.47,2.47,0,0,1,40.986-5.5v3.647a4.459,4.459,0,0,0,.278,1.736V0ZM37.6-1.033a2.381,2.381,0,0,0,1.208-.33,1.994,1.994,0,0,0,.828-.857V-3.845H38.569q-2.49,0-2.49,1.458a1.234,1.234,0,0,0,.425,1A1.633,1.633,0,0,0,37.6-1.033Zm9.712-4.314.542-5.317h5.464v1.252H49L48.677-6.5a3.441,3.441,0,0,1,1.78-.461A2.942,2.942,0,0,1,52.771-6a3.775,3.775,0,0,1,.857,2.6,3.643,3.643,0,0,1-.89,2.6,3.243,3.243,0,0,1-2.487.948,3.371,3.371,0,0,1-2.307-.784,3.128,3.128,0,0,1-1.018-2.168h1.282a2.152,2.152,0,0,0,.652,1.381,2.027,2.027,0,0,0,1.392.465A1.828,1.828,0,0,0,51.735-1.6a2.694,2.694,0,0,0,.538-1.78A2.473,2.473,0,0,0,51.691-5.1a1.981,1.981,0,0,0-1.549-.648,2.234,2.234,0,0,0-1.392.388l-.359.293Z" transform="translate(764 1060) rotate(-90)" fill="#6c6c6c"/>
    <path id="Trazado_125935" data-name="Trazado 125935" d="M9.082-3.384A3.923,3.923,0,0,1,7.833-.773,4.093,4.093,0,0,1,5.039.146,3.758,3.758,0,0,1,2.01-1.208,5.451,5.451,0,0,1,.872-4.834V-5.859A6.076,6.076,0,0,1,1.4-8.474a3.966,3.966,0,0,1,1.505-1.732,4.191,4.191,0,0,1,2.256-.6,3.853,3.853,0,0,1,2.725.948A3.971,3.971,0,0,1,9.082-7.236H7.668a3.064,3.064,0,0,0-.795-1.851,2.4,2.4,0,0,0-1.71-.573,2.516,2.516,0,0,0-2.113,1,4.577,4.577,0,0,0-.765,2.837v1.034A4.7,4.7,0,0,0,3.01-2.03,2.343,2.343,0,0,0,5.039-1a2.706,2.706,0,0,0,1.8-.531,2.947,2.947,0,0,0,.831-1.849ZM15.681,0a2.846,2.846,0,0,1-.19-.835,3.023,3.023,0,0,1-2.256.981,2.8,2.8,0,0,1-1.923-.663A2.145,2.145,0,0,1,10.562-2.2,2.24,2.24,0,0,1,11.5-4.12,4.437,4.437,0,0,1,14.15-4.8h1.318v-.623a1.522,1.522,0,0,0-.425-1.132,1.707,1.707,0,0,0-1.252-.421,1.976,1.976,0,0,0-1.216.366,1.079,1.079,0,0,0-.491.886H10.723a1.87,1.87,0,0,1,.421-1.146,2.874,2.874,0,0,1,1.143-.875,3.844,3.844,0,0,1,1.586-.322,3.133,3.133,0,0,1,2.146.685A2.47,2.47,0,0,1,16.824-5.5v3.647A4.459,4.459,0,0,0,17.1-.117V0ZM13.433-1.033a2.381,2.381,0,0,0,1.208-.33,1.994,1.994,0,0,0,.828-.857V-3.845H14.407q-2.49,0-2.49,1.458a1.234,1.234,0,0,0,.425,1A1.633,1.633,0,0,0,13.433-1.033ZM23.84-.784a2.878,2.878,0,0,1-2.322.93,2.464,2.464,0,0,1-1.93-.736,3.186,3.186,0,0,1-.67-2.179V-7.925h1.355v5.12q0,1.8,1.465,1.8A2.028,2.028,0,0,0,23.8-2.161V-7.925h1.355V0H23.87ZM31.831-2.1a1,1,0,0,0-.414-.853,3.983,3.983,0,0,0-1.443-.524,6.822,6.822,0,0,1-1.633-.527,2.324,2.324,0,0,1-.894-.732,1.752,1.752,0,0,1-.289-1.011A2.056,2.056,0,0,1,27.982-7.4a3.218,3.218,0,0,1,2.106-.674,3.311,3.311,0,0,1,2.186.7,2.21,2.21,0,0,1,.839,1.78H31.75a1.223,1.223,0,0,0-.472-.959,1.77,1.77,0,0,0-1.19-.4,1.852,1.852,0,0,0-1.157.322,1.014,1.014,0,0,0-.417.842.822.822,0,0,0,.388.74,4.776,4.776,0,0,0,1.4.476,7.308,7.308,0,0,1,1.644.542,2.4,2.4,0,0,1,.934.758,1.864,1.864,0,0,1,.3,1.08,2.028,2.028,0,0,1-.85,1.7,3.564,3.564,0,0,1-2.2.641A3.991,3.991,0,0,1,28.447-.19,2.74,2.74,0,0,1,27.3-1.132a2.268,2.268,0,0,1-.414-1.307h1.355a1.4,1.4,0,0,0,.546,1.08,2.117,2.117,0,0,0,1.344.4,2.185,2.185,0,0,0,1.234-.311A.956.956,0,0,0,31.831-2.1ZM39.844,0a2.846,2.846,0,0,1-.19-.835A3.023,3.023,0,0,1,37.4.146a2.8,2.8,0,0,1-1.923-.663A2.145,2.145,0,0,1,34.724-2.2a2.24,2.24,0,0,1,.941-1.923A4.437,4.437,0,0,1,38.313-4.8h1.318v-.623a1.522,1.522,0,0,0-.425-1.132,1.707,1.707,0,0,0-1.252-.421,1.976,1.976,0,0,0-1.216.366,1.079,1.079,0,0,0-.491.886H34.885a1.87,1.87,0,0,1,.421-1.146,2.874,2.874,0,0,1,1.143-.875,3.844,3.844,0,0,1,1.586-.322,3.133,3.133,0,0,1,2.146.685A2.47,2.47,0,0,1,40.986-5.5v3.647a4.459,4.459,0,0,0,.278,1.736V0ZM37.6-1.033a2.381,2.381,0,0,0,1.208-.33,1.994,1.994,0,0,0,.828-.857V-3.845H38.569q-2.49,0-2.49,1.458a1.234,1.234,0,0,0,.425,1A1.633,1.633,0,0,0,37.6-1.033ZM52-10.671v1.15h-.249a3.568,3.568,0,0,0-2.52.938,3.9,3.9,0,0,0-1.084,2.556,2.892,2.892,0,0,1,2.3-.967,2.765,2.765,0,0,1,2.223.981A3.786,3.786,0,0,1,53.5-3.479a3.774,3.774,0,0,1-.9,2.637A3.089,3.089,0,0,1,50.2.146a3.044,3.044,0,0,1-2.483-1.176,4.659,4.659,0,0,1-.952-3.029v-.52a7.02,7.02,0,0,1,1.256-4.5,4.613,4.613,0,0,1,3.739-1.593Zm-1.78,4.8a2.162,2.162,0,0,0-1.282.417A2.175,2.175,0,0,0,48.127-4.4v.5a3.5,3.5,0,0,0,.593,2.124A1.778,1.778,0,0,0,50.2-.974a1.723,1.723,0,0,0,1.439-.674,2.8,2.8,0,0,0,.524-1.765,2.8,2.8,0,0,0-.531-1.776A1.7,1.7,0,0,0,50.222-5.867Z" transform="translate(818 1060) rotate(-90)" fill="#6c6c6c"/>
    <path id="Trazado_125938" data-name="Trazado 125938" d="M9.082-3.384A3.923,3.923,0,0,1,7.833-.773,4.093,4.093,0,0,1,5.039.146,3.758,3.758,0,0,1,2.01-1.208,5.451,5.451,0,0,1,.872-4.834V-5.859A6.076,6.076,0,0,1,1.4-8.474a3.966,3.966,0,0,1,1.505-1.732,4.191,4.191,0,0,1,2.256-.6,3.853,3.853,0,0,1,2.725.948A3.971,3.971,0,0,1,9.082-7.236H7.668a3.064,3.064,0,0,0-.795-1.851,2.4,2.4,0,0,0-1.71-.573,2.516,2.516,0,0,0-2.113,1,4.577,4.577,0,0,0-.765,2.837v1.034A4.7,4.7,0,0,0,3.01-2.03,2.343,2.343,0,0,0,5.039-1a2.706,2.706,0,0,0,1.8-.531,2.947,2.947,0,0,0,.831-1.849ZM15.681,0a2.846,2.846,0,0,1-.19-.835,3.023,3.023,0,0,1-2.256.981,2.8,2.8,0,0,1-1.923-.663A2.145,2.145,0,0,1,10.562-2.2,2.24,2.24,0,0,1,11.5-4.12,4.437,4.437,0,0,1,14.15-4.8h1.318v-.623a1.522,1.522,0,0,0-.425-1.132,1.707,1.707,0,0,0-1.252-.421,1.976,1.976,0,0,0-1.216.366,1.079,1.079,0,0,0-.491.886H10.723a1.87,1.87,0,0,1,.421-1.146,2.874,2.874,0,0,1,1.143-.875,3.844,3.844,0,0,1,1.586-.322,3.133,3.133,0,0,1,2.146.685A2.47,2.47,0,0,1,16.824-5.5v3.647A4.459,4.459,0,0,0,17.1-.117V0ZM13.433-1.033a2.381,2.381,0,0,0,1.208-.33,1.994,1.994,0,0,0,.828-.857V-3.845H14.407q-2.49,0-2.49,1.458a1.234,1.234,0,0,0,.425,1A1.633,1.633,0,0,0,13.433-1.033ZM23.84-.784a2.878,2.878,0,0,1-2.322.93,2.464,2.464,0,0,1-1.93-.736,3.186,3.186,0,0,1-.67-2.179V-7.925h1.355v5.12q0,1.8,1.465,1.8A2.028,2.028,0,0,0,23.8-2.161V-7.925h1.355V0H23.87ZM31.831-2.1a1,1,0,0,0-.414-.853,3.983,3.983,0,0,0-1.443-.524,6.822,6.822,0,0,1-1.633-.527,2.324,2.324,0,0,1-.894-.732,1.752,1.752,0,0,1-.289-1.011A2.056,2.056,0,0,1,27.982-7.4a3.218,3.218,0,0,1,2.106-.674,3.311,3.311,0,0,1,2.186.7,2.21,2.21,0,0,1,.839,1.78H31.75a1.223,1.223,0,0,0-.472-.959,1.77,1.77,0,0,0-1.19-.4,1.852,1.852,0,0,0-1.157.322,1.014,1.014,0,0,0-.417.842.822.822,0,0,0,.388.74,4.776,4.776,0,0,0,1.4.476,7.308,7.308,0,0,1,1.644.542,2.4,2.4,0,0,1,.934.758,1.864,1.864,0,0,1,.3,1.08,2.028,2.028,0,0,1-.85,1.7,3.564,3.564,0,0,1-2.2.641A3.991,3.991,0,0,1,28.447-.19,2.74,2.74,0,0,1,27.3-1.132a2.268,2.268,0,0,1-.414-1.307h1.355a1.4,1.4,0,0,0,.546,1.08,2.117,2.117,0,0,0,1.344.4,2.185,2.185,0,0,0,1.234-.311A.956.956,0,0,0,31.831-2.1ZM39.844,0a2.846,2.846,0,0,1-.19-.835A3.023,3.023,0,0,1,37.4.146a2.8,2.8,0,0,1-1.923-.663A2.145,2.145,0,0,1,34.724-2.2a2.24,2.24,0,0,1,.941-1.923A4.437,4.437,0,0,1,38.313-4.8h1.318v-.623a1.522,1.522,0,0,0-.425-1.132,1.707,1.707,0,0,0-1.252-.421,1.976,1.976,0,0,0-1.216.366,1.079,1.079,0,0,0-.491.886H34.885a1.87,1.87,0,0,1,.421-1.146,2.874,2.874,0,0,1,1.143-.875,3.844,3.844,0,0,1,1.586-.322,3.133,3.133,0,0,1,2.146.685A2.47,2.47,0,0,1,40.986-5.5v3.647a4.459,4.459,0,0,0,.278,1.736V0ZM37.6-1.033a2.381,2.381,0,0,0,1.208-.33,1.994,1.994,0,0,0,.828-.857V-3.845H38.569q-2.49,0-2.49,1.458a1.234,1.234,0,0,0,.425,1A1.633,1.633,0,0,0,37.6-1.033ZM53.569-9.9,49.153,0H47.732l4.4-9.551H46.362v-1.113h7.207Z" transform="translate(872 1060) rotate(-90)" fill="#6c6c6c"/>
    <path id="Trazado_125941" data-name="Trazado 125941" d="M9.082-3.384A3.923,3.923,0,0,1,7.833-.773,4.093,4.093,0,0,1,5.039.146,3.758,3.758,0,0,1,2.01-1.208,5.451,5.451,0,0,1,.872-4.834V-5.859A6.076,6.076,0,0,1,1.4-8.474a3.966,3.966,0,0,1,1.505-1.732,4.191,4.191,0,0,1,2.256-.6,3.853,3.853,0,0,1,2.725.948A3.971,3.971,0,0,1,9.082-7.236H7.668a3.064,3.064,0,0,0-.795-1.851,2.4,2.4,0,0,0-1.71-.573,2.516,2.516,0,0,0-2.113,1,4.577,4.577,0,0,0-.765,2.837v1.034A4.7,4.7,0,0,0,3.01-2.03,2.343,2.343,0,0,0,5.039-1a2.706,2.706,0,0,0,1.8-.531,2.947,2.947,0,0,0,.831-1.849ZM15.681,0a2.846,2.846,0,0,1-.19-.835,3.023,3.023,0,0,1-2.256.981,2.8,2.8,0,0,1-1.923-.663A2.145,2.145,0,0,1,10.562-2.2,2.24,2.24,0,0,1,11.5-4.12,4.437,4.437,0,0,1,14.15-4.8h1.318v-.623a1.522,1.522,0,0,0-.425-1.132,1.707,1.707,0,0,0-1.252-.421,1.976,1.976,0,0,0-1.216.366,1.079,1.079,0,0,0-.491.886H10.723a1.87,1.87,0,0,1,.421-1.146,2.874,2.874,0,0,1,1.143-.875,3.844,3.844,0,0,1,1.586-.322,3.133,3.133,0,0,1,2.146.685A2.47,2.47,0,0,1,16.824-5.5v3.647A4.459,4.459,0,0,0,17.1-.117V0ZM13.433-1.033a2.381,2.381,0,0,0,1.208-.33,1.994,1.994,0,0,0,.828-.857V-3.845H14.407q-2.49,0-2.49,1.458a1.234,1.234,0,0,0,.425,1A1.633,1.633,0,0,0,13.433-1.033ZM23.84-.784a2.878,2.878,0,0,1-2.322.93,2.464,2.464,0,0,1-1.93-.736,3.186,3.186,0,0,1-.67-2.179V-7.925h1.355v5.12q0,1.8,1.465,1.8A2.028,2.028,0,0,0,23.8-2.161V-7.925h1.355V0H23.87ZM31.831-2.1a1,1,0,0,0-.414-.853,3.983,3.983,0,0,0-1.443-.524,6.822,6.822,0,0,1-1.633-.527,2.324,2.324,0,0,1-.894-.732,1.752,1.752,0,0,1-.289-1.011A2.056,2.056,0,0,1,27.982-7.4a3.218,3.218,0,0,1,2.106-.674,3.311,3.311,0,0,1,2.186.7,2.21,2.21,0,0,1,.839,1.78H31.75a1.223,1.223,0,0,0-.472-.959,1.77,1.77,0,0,0-1.19-.4,1.852,1.852,0,0,0-1.157.322,1.014,1.014,0,0,0-.417.842.822.822,0,0,0,.388.74,4.776,4.776,0,0,0,1.4.476,7.308,7.308,0,0,1,1.644.542,2.4,2.4,0,0,1,.934.758,1.864,1.864,0,0,1,.3,1.08,2.028,2.028,0,0,1-.85,1.7,3.564,3.564,0,0,1-2.2.641A3.991,3.991,0,0,1,28.447-.19,2.74,2.74,0,0,1,27.3-1.132a2.268,2.268,0,0,1-.414-1.307h1.355a1.4,1.4,0,0,0,.546,1.08,2.117,2.117,0,0,0,1.344.4,2.185,2.185,0,0,0,1.234-.311A.956.956,0,0,0,31.831-2.1ZM39.844,0a2.846,2.846,0,0,1-.19-.835A3.023,3.023,0,0,1,37.4.146a2.8,2.8,0,0,1-1.923-.663A2.145,2.145,0,0,1,34.724-2.2a2.24,2.24,0,0,1,.941-1.923A4.437,4.437,0,0,1,38.313-4.8h1.318v-.623a1.522,1.522,0,0,0-.425-1.132,1.707,1.707,0,0,0-1.252-.421,1.976,1.976,0,0,0-1.216.366,1.079,1.079,0,0,0-.491.886H34.885a1.87,1.87,0,0,1,.421-1.146,2.874,2.874,0,0,1,1.143-.875,3.844,3.844,0,0,1,1.586-.322,3.133,3.133,0,0,1,2.146.685A2.47,2.47,0,0,1,40.986-5.5v3.647a4.459,4.459,0,0,0,.278,1.736V0ZM37.6-1.033a2.381,2.381,0,0,0,1.208-.33,1.994,1.994,0,0,0,.828-.857V-3.845H38.569q-2.49,0-2.49,1.458a1.234,1.234,0,0,0,.425,1A1.633,1.633,0,0,0,37.6-1.033ZM53.152-7.881a2.476,2.476,0,0,1-.421,1.421,2.865,2.865,0,0,1-1.139.974,3.056,3.056,0,0,1,1.322,1.047,2.636,2.636,0,0,1,.487,1.56,2.787,2.787,0,0,1-.934,2.2,3.588,3.588,0,0,1-2.457.82,3.572,3.572,0,0,1-2.465-.824,2.8,2.8,0,0,1-.927-2.2,2.714,2.714,0,0,1,.472-1.56A2.94,2.94,0,0,1,48.4-5.493a2.8,2.8,0,0,1-1.121-.974,2.512,2.512,0,0,1-.41-1.414,2.757,2.757,0,0,1,.864-2.139,3.242,3.242,0,0,1,2.278-.791,3.245,3.245,0,0,1,2.274.791A2.751,2.751,0,0,1,53.152-7.881ZM52.046-2.908a1.965,1.965,0,0,0-.568-1.458A2.013,2.013,0,0,0,50-4.929a1.978,1.978,0,0,0-1.469.557,1.988,1.988,0,0,0-.553,1.465,1.893,1.893,0,0,0,.538,1.428,2.066,2.066,0,0,0,1.5.52A2.06,2.06,0,0,0,51.5-1.483,1.888,1.888,0,0,0,52.046-2.908ZM50.01-9.7a1.748,1.748,0,0,0-1.293.494,1.816,1.816,0,0,0-.494,1.344,1.807,1.807,0,0,0,.487,1.315,1.729,1.729,0,0,0,1.3.5,1.729,1.729,0,0,0,1.3-.5A1.807,1.807,0,0,0,51.8-7.859a1.808,1.808,0,0,0-.505-1.326A1.724,1.724,0,0,0,50.01-9.7Z" transform="translate(926 1060) rotate(-90)" fill="#6c6c6c"/>
    <path id="Trazado_125944" data-name="Trazado 125944" d="M9.082-3.384A3.923,3.923,0,0,1,7.833-.773,4.093,4.093,0,0,1,5.039.146,3.758,3.758,0,0,1,2.01-1.208,5.451,5.451,0,0,1,.872-4.834V-5.859A6.076,6.076,0,0,1,1.4-8.474a3.966,3.966,0,0,1,1.505-1.732,4.191,4.191,0,0,1,2.256-.6,3.853,3.853,0,0,1,2.725.948A3.971,3.971,0,0,1,9.082-7.236H7.668a3.064,3.064,0,0,0-.795-1.851,2.4,2.4,0,0,0-1.71-.573,2.516,2.516,0,0,0-2.113,1,4.577,4.577,0,0,0-.765,2.837v1.034A4.7,4.7,0,0,0,3.01-2.03,2.343,2.343,0,0,0,5.039-1a2.706,2.706,0,0,0,1.8-.531,2.947,2.947,0,0,0,.831-1.849ZM15.681,0a2.846,2.846,0,0,1-.19-.835,3.023,3.023,0,0,1-2.256.981,2.8,2.8,0,0,1-1.923-.663A2.145,2.145,0,0,1,10.562-2.2,2.24,2.24,0,0,1,11.5-4.12,4.437,4.437,0,0,1,14.15-4.8h1.318v-.623a1.522,1.522,0,0,0-.425-1.132,1.707,1.707,0,0,0-1.252-.421,1.976,1.976,0,0,0-1.216.366,1.079,1.079,0,0,0-.491.886H10.723a1.87,1.87,0,0,1,.421-1.146,2.874,2.874,0,0,1,1.143-.875,3.844,3.844,0,0,1,1.586-.322,3.133,3.133,0,0,1,2.146.685A2.47,2.47,0,0,1,16.824-5.5v3.647A4.459,4.459,0,0,0,17.1-.117V0ZM13.433-1.033a2.381,2.381,0,0,0,1.208-.33,1.994,1.994,0,0,0,.828-.857V-3.845H14.407q-2.49,0-2.49,1.458a1.234,1.234,0,0,0,.425,1A1.633,1.633,0,0,0,13.433-1.033ZM23.84-.784a2.878,2.878,0,0,1-2.322.93,2.464,2.464,0,0,1-1.93-.736,3.186,3.186,0,0,1-.67-2.179V-7.925h1.355v5.12q0,1.8,1.465,1.8A2.028,2.028,0,0,0,23.8-2.161V-7.925h1.355V0H23.87ZM31.831-2.1a1,1,0,0,0-.414-.853,3.983,3.983,0,0,0-1.443-.524,6.822,6.822,0,0,1-1.633-.527,2.324,2.324,0,0,1-.894-.732,1.752,1.752,0,0,1-.289-1.011A2.056,2.056,0,0,1,27.982-7.4a3.218,3.218,0,0,1,2.106-.674,3.311,3.311,0,0,1,2.186.7,2.21,2.21,0,0,1,.839,1.78H31.75a1.223,1.223,0,0,0-.472-.959,1.77,1.77,0,0,0-1.19-.4,1.852,1.852,0,0,0-1.157.322,1.014,1.014,0,0,0-.417.842.822.822,0,0,0,.388.74,4.776,4.776,0,0,0,1.4.476,7.308,7.308,0,0,1,1.644.542,2.4,2.4,0,0,1,.934.758,1.864,1.864,0,0,1,.3,1.08,2.028,2.028,0,0,1-.85,1.7,3.564,3.564,0,0,1-2.2.641A3.991,3.991,0,0,1,28.447-.19,2.74,2.74,0,0,1,27.3-1.132a2.268,2.268,0,0,1-.414-1.307h1.355a1.4,1.4,0,0,0,.546,1.08,2.117,2.117,0,0,0,1.344.4,2.185,2.185,0,0,0,1.234-.311A.956.956,0,0,0,31.831-2.1ZM39.844,0a2.846,2.846,0,0,1-.19-.835A3.023,3.023,0,0,1,37.4.146a2.8,2.8,0,0,1-1.923-.663A2.145,2.145,0,0,1,34.724-2.2a2.24,2.24,0,0,1,.941-1.923A4.437,4.437,0,0,1,38.313-4.8h1.318v-.623a1.522,1.522,0,0,0-.425-1.132,1.707,1.707,0,0,0-1.252-.421,1.976,1.976,0,0,0-1.216.366,1.079,1.079,0,0,0-.491.886H34.885a1.87,1.87,0,0,1,.421-1.146,2.874,2.874,0,0,1,1.143-.875,3.844,3.844,0,0,1,1.586-.322,3.133,3.133,0,0,1,2.146.685A2.47,2.47,0,0,1,40.986-5.5v3.647a4.459,4.459,0,0,0,.278,1.736V0ZM37.6-1.033a2.381,2.381,0,0,0,1.208-.33,1.994,1.994,0,0,0,.828-.857V-3.845H38.569q-2.49,0-2.49,1.458a1.234,1.234,0,0,0,.425,1A1.633,1.633,0,0,0,37.6-1.033ZM51.877-4.687a3.315,3.315,0,0,1-1.014.813,2.752,2.752,0,0,1-1.293.308,2.841,2.841,0,0,1-1.608-.454A2.952,2.952,0,0,1,46.9-5.3a4.357,4.357,0,0,1-.374-1.82,4.439,4.439,0,0,1,.406-1.926,2.986,2.986,0,0,1,1.154-1.311,3.289,3.289,0,0,1,1.743-.454,2.978,2.978,0,0,1,2.494,1.183A5.159,5.159,0,0,1,53.24-6.4v.4a6.894,6.894,0,0,1-1.23,4.545A4.727,4.727,0,0,1,48.3.007h-.264v-1.15h.286A3.73,3.73,0,0,0,50.9-2.016,3.748,3.748,0,0,0,51.877-4.687Zm-2.087,0A2.092,2.092,0,0,0,51.046-5.1a2.461,2.461,0,0,0,.839-1.033V-6.68a3.729,3.729,0,0,0-.579-2.168,1.727,1.727,0,0,0-1.465-.835A1.74,1.74,0,0,0,48.406-9a2.825,2.825,0,0,0-.542,1.805,2.94,2.94,0,0,0,.524,1.8A1.658,1.658,0,0,0,49.79-4.687Z" transform="translate(978 1060) rotate(-90)" fill="#6c6c6c"/>
    <path id="Trazado_125947" data-name="Trazado 125947" d="M9.082-3.384A3.923,3.923,0,0,1,7.833-.773,4.093,4.093,0,0,1,5.039.146,3.758,3.758,0,0,1,2.01-1.208,5.451,5.451,0,0,1,.872-4.834V-5.859A6.076,6.076,0,0,1,1.4-8.474a3.966,3.966,0,0,1,1.505-1.732,4.191,4.191,0,0,1,2.256-.6,3.853,3.853,0,0,1,2.725.948A3.971,3.971,0,0,1,9.082-7.236H7.668a3.064,3.064,0,0,0-.795-1.851,2.4,2.4,0,0,0-1.71-.573,2.516,2.516,0,0,0-2.113,1,4.577,4.577,0,0,0-.765,2.837v1.034A4.7,4.7,0,0,0,3.01-2.03,2.343,2.343,0,0,0,5.039-1a2.706,2.706,0,0,0,1.8-.531,2.947,2.947,0,0,0,.831-1.849ZM15.681,0a2.846,2.846,0,0,1-.19-.835,3.023,3.023,0,0,1-2.256.981,2.8,2.8,0,0,1-1.923-.663A2.145,2.145,0,0,1,10.562-2.2,2.24,2.24,0,0,1,11.5-4.12,4.437,4.437,0,0,1,14.15-4.8h1.318v-.623a1.522,1.522,0,0,0-.425-1.132,1.707,1.707,0,0,0-1.252-.421,1.976,1.976,0,0,0-1.216.366,1.079,1.079,0,0,0-.491.886H10.723a1.87,1.87,0,0,1,.421-1.146,2.874,2.874,0,0,1,1.143-.875,3.844,3.844,0,0,1,1.586-.322,3.133,3.133,0,0,1,2.146.685A2.47,2.47,0,0,1,16.824-5.5v3.647A4.459,4.459,0,0,0,17.1-.117V0ZM13.433-1.033a2.381,2.381,0,0,0,1.208-.33,1.994,1.994,0,0,0,.828-.857V-3.845H14.407q-2.49,0-2.49,1.458a1.234,1.234,0,0,0,.425,1A1.633,1.633,0,0,0,13.433-1.033ZM23.84-.784a2.878,2.878,0,0,1-2.322.93,2.464,2.464,0,0,1-1.93-.736,3.186,3.186,0,0,1-.67-2.179V-7.925h1.355v5.12q0,1.8,1.465,1.8A2.028,2.028,0,0,0,23.8-2.161V-7.925h1.355V0H23.87ZM31.831-2.1a1,1,0,0,0-.414-.853,3.983,3.983,0,0,0-1.443-.524,6.822,6.822,0,0,1-1.633-.527,2.324,2.324,0,0,1-.894-.732,1.752,1.752,0,0,1-.289-1.011A2.056,2.056,0,0,1,27.982-7.4a3.218,3.218,0,0,1,2.106-.674,3.311,3.311,0,0,1,2.186.7,2.21,2.21,0,0,1,.839,1.78H31.75a1.223,1.223,0,0,0-.472-.959,1.77,1.77,0,0,0-1.19-.4,1.852,1.852,0,0,0-1.157.322,1.014,1.014,0,0,0-.417.842.822.822,0,0,0,.388.74,4.776,4.776,0,0,0,1.4.476,7.308,7.308,0,0,1,1.644.542,2.4,2.4,0,0,1,.934.758,1.864,1.864,0,0,1,.3,1.08,2.028,2.028,0,0,1-.85,1.7,3.564,3.564,0,0,1-2.2.641A3.991,3.991,0,0,1,28.447-.19,2.74,2.74,0,0,1,27.3-1.132a2.268,2.268,0,0,1-.414-1.307h1.355a1.4,1.4,0,0,0,.546,1.08,2.117,2.117,0,0,0,1.344.4,2.185,2.185,0,0,0,1.234-.311A.956.956,0,0,0,31.831-2.1ZM39.844,0a2.846,2.846,0,0,1-.19-.835A3.023,3.023,0,0,1,37.4.146a2.8,2.8,0,0,1-1.923-.663A2.145,2.145,0,0,1,34.724-2.2a2.24,2.24,0,0,1,.941-1.923A4.437,4.437,0,0,1,38.313-4.8h1.318v-.623a1.522,1.522,0,0,0-.425-1.132,1.707,1.707,0,0,0-1.252-.421,1.976,1.976,0,0,0-1.216.366,1.079,1.079,0,0,0-.491.886H34.885a1.87,1.87,0,0,1,.421-1.146,2.874,2.874,0,0,1,1.143-.875,3.844,3.844,0,0,1,1.586-.322,3.133,3.133,0,0,1,2.146.685A2.47,2.47,0,0,1,40.986-5.5v3.647a4.459,4.459,0,0,0,.278,1.736V0ZM37.6-1.033a2.381,2.381,0,0,0,1.208-.33,1.994,1.994,0,0,0,.828-.857V-3.845H38.569q-2.49,0-2.49,1.458a1.234,1.234,0,0,0,.425,1A1.633,1.633,0,0,0,37.6-1.033ZM51.138,0H49.775V-9.031l-2.732,1v-1.23l3.882-1.458h.212ZM61.794-4.548a6.2,6.2,0,0,1-.813,3.538A2.891,2.891,0,0,1,58.44.146,2.912,2.912,0,0,1,55.913-.985a5.882,5.882,0,0,1-.85-3.38V-6.174a6.059,6.059,0,0,1,.813-3.494,2.914,2.914,0,0,1,2.549-1.143,2.94,2.94,0,0,1,2.534,1.1,5.847,5.847,0,0,1,.835,3.4ZM60.439-6.4a4.965,4.965,0,0,0-.483-2.509A1.664,1.664,0,0,0,58.425-9.7a1.642,1.642,0,0,0-1.516.784,4.848,4.848,0,0,0-.491,2.41v2.168a5.045,5.045,0,0,0,.5,2.552,1.661,1.661,0,0,0,1.52.824,1.638,1.638,0,0,0,1.49-.776,4.862,4.862,0,0,0,.509-2.446Z" transform="translate(1032 1060) rotate(-90)" fill="#6c6c6c"/>
    <path id="Trazado_125949" data-name="Trazado 125949" d="M5.339,0H3.977V-9.031l-2.732,1v-1.23l3.882-1.458h.212ZM16.3,0H9.309V-.974L13-5.076a8.77,8.77,0,0,0,1.132-1.512,2.524,2.524,0,0,0,.311-1.2,1.913,1.913,0,0,0-.505-1.37A1.767,1.767,0,0,0,12.59-9.7a2.093,2.093,0,0,0-1.571.575,2.2,2.2,0,0,0-.56,1.6H9.1a3.145,3.145,0,0,1,.948-2.38,3.516,3.516,0,0,1,2.538-.908,3.379,3.379,0,0,1,2.351.78,2.661,2.661,0,0,1,.864,2.076q0,1.575-2.007,3.75l-2.856,3.1H16.3Zm8.123-4.548a6.2,6.2,0,0,1-.813,3.538A2.891,2.891,0,0,1,21.064.146,2.912,2.912,0,0,1,18.538-.985a5.882,5.882,0,0,1-.85-3.38V-6.174A6.059,6.059,0,0,1,18.5-9.668a2.914,2.914,0,0,1,2.549-1.143,2.94,2.94,0,0,1,2.534,1.1,5.847,5.847,0,0,1,.835,3.4ZM23.064-6.4a4.965,4.965,0,0,0-.483-2.509A1.664,1.664,0,0,0,21.05-9.7a1.642,1.642,0,0,0-1.516.784,4.848,4.848,0,0,0-.491,2.41v2.168a5.045,5.045,0,0,0,.5,2.552,1.661,1.661,0,0,0,1.52.824,1.638,1.638,0,0,0,1.49-.776,4.862,4.862,0,0,0,.509-2.446Zm2.974-2.212a2.164,2.164,0,0,1,.612-1.582,2.107,2.107,0,0,1,1.571-.623,2.094,2.094,0,0,1,1.578.626,2.239,2.239,0,0,1,.6,1.622v.52a2.136,2.136,0,0,1-.612,1.578,2.108,2.108,0,0,1-1.556.612,2.155,2.155,0,0,1-1.575-.612,2.181,2.181,0,0,1-.623-1.63Zm1.011.561a1.386,1.386,0,0,0,.322.943,1.087,1.087,0,0,0,.864.371,1.066,1.066,0,0,0,.839-.36,1.431,1.431,0,0,0,.319-.984v-.536a1.421,1.421,0,0,0-.315-.947,1.061,1.061,0,0,0-.857-.374,1.061,1.061,0,0,0-.857.374,1.465,1.465,0,0,0-.315.976ZM31.23-2.615a2.151,2.151,0,0,1,.612-1.578,2.113,2.113,0,0,1,1.571-.619,2.132,2.132,0,0,1,1.575.615A2.208,2.208,0,0,1,35.6-2.563v.52a2.151,2.151,0,0,1-.612,1.578,2.1,2.1,0,0,1-1.564.619,2.155,2.155,0,0,1-1.575-.612,2.181,2.181,0,0,1-.623-1.63Zm1.011.568a1.4,1.4,0,0,0,.322.951,1.087,1.087,0,0,0,.864.371,1.059,1.059,0,0,0,.842-.363,1.456,1.456,0,0,0,.315-.987v-.543a1.393,1.393,0,0,0-.319-.947,1.073,1.073,0,0,0-.853-.367,1.084,1.084,0,0,0-.846.363,1.413,1.413,0,0,0-.326.98Zm-3.7,1.241-.769-.483,5.208-8.335.769.483Z" transform="translate(1062 640)" fill="#6c6c6c"/>
    <path id="Trazado_125950" data-name="Trazado 125950" d="M5.339,0H3.977V-9.031l-2.732,1v-1.23l3.882-1.458h.212ZM16-4.548a6.2,6.2,0,0,1-.813,3.538A2.891,2.891,0,0,1,12.642.146,2.912,2.912,0,0,1,10.115-.985a5.882,5.882,0,0,1-.85-3.38V-6.174a6.059,6.059,0,0,1,.813-3.494,2.914,2.914,0,0,1,2.549-1.143,2.94,2.94,0,0,1,2.534,1.1A5.847,5.847,0,0,1,16-6.306ZM14.641-6.4a4.965,4.965,0,0,0-.483-2.509A1.664,1.664,0,0,0,12.627-9.7a1.642,1.642,0,0,0-1.516.784A4.848,4.848,0,0,0,10.62-6.5v2.168a5.045,5.045,0,0,0,.5,2.552,1.661,1.661,0,0,0,1.52.824,1.638,1.638,0,0,0,1.49-.776,4.862,4.862,0,0,0,.509-2.446Zm9.778,1.853a6.2,6.2,0,0,1-.813,3.538A2.891,2.891,0,0,1,21.064.146,2.912,2.912,0,0,1,18.538-.985a5.882,5.882,0,0,1-.85-3.38V-6.174A6.059,6.059,0,0,1,18.5-9.668a2.914,2.914,0,0,1,2.549-1.143,2.94,2.94,0,0,1,2.534,1.1,5.847,5.847,0,0,1,.835,3.4ZM23.064-6.4a4.965,4.965,0,0,0-.483-2.509A1.664,1.664,0,0,0,21.05-9.7a1.642,1.642,0,0,0-1.516.784,4.848,4.848,0,0,0-.491,2.41v2.168a5.045,5.045,0,0,0,.5,2.552,1.661,1.661,0,0,0,1.52.824,1.638,1.638,0,0,0,1.49-.776,4.862,4.862,0,0,0,.509-2.446Zm2.974-2.212a2.164,2.164,0,0,1,.612-1.582,2.107,2.107,0,0,1,1.571-.623,2.094,2.094,0,0,1,1.578.626,2.239,2.239,0,0,1,.6,1.622v.52a2.136,2.136,0,0,1-.612,1.578,2.108,2.108,0,0,1-1.556.612,2.155,2.155,0,0,1-1.575-.612,2.181,2.181,0,0,1-.623-1.63Zm1.011.561a1.386,1.386,0,0,0,.322.943,1.087,1.087,0,0,0,.864.371,1.066,1.066,0,0,0,.839-.36,1.431,1.431,0,0,0,.319-.984v-.536a1.421,1.421,0,0,0-.315-.947,1.061,1.061,0,0,0-.857-.374,1.061,1.061,0,0,0-.857.374,1.465,1.465,0,0,0-.315.976ZM31.23-2.615a2.151,2.151,0,0,1,.612-1.578,2.113,2.113,0,0,1,1.571-.619,2.132,2.132,0,0,1,1.575.615A2.208,2.208,0,0,1,35.6-2.563v.52a2.151,2.151,0,0,1-.612,1.578,2.1,2.1,0,0,1-1.564.619,2.155,2.155,0,0,1-1.575-.612,2.181,2.181,0,0,1-.623-1.63Zm1.011.568a1.4,1.4,0,0,0,.322.951,1.087,1.087,0,0,0,.864.371,1.059,1.059,0,0,0,.842-.363,1.456,1.456,0,0,0,.315-.987v-.543a1.393,1.393,0,0,0-.319-.947,1.073,1.073,0,0,0-.853-.367,1.084,1.084,0,0,0-.846.363,1.413,1.413,0,0,0-.326.98Zm-3.7,1.241-.769-.483,5.208-8.335.769.483Z" transform="translate(1062 696)" fill="#6c6c6c"/>
    <path id="Trazado_125951" data-name="Trazado 125951" d="M7.354-7.881A2.476,2.476,0,0,1,6.932-6.46a2.865,2.865,0,0,1-1.139.974A3.056,3.056,0,0,1,7.115-4.438,2.636,2.636,0,0,1,7.6-2.878a2.787,2.787,0,0,1-.934,2.2,3.588,3.588,0,0,1-2.457.82A3.572,3.572,0,0,1,1.747-.677a2.8,2.8,0,0,1-.927-2.2,2.714,2.714,0,0,1,.472-1.56A2.94,2.94,0,0,1,2.6-5.493a2.8,2.8,0,0,1-1.121-.974,2.512,2.512,0,0,1-.41-1.414,2.757,2.757,0,0,1,.864-2.139,3.242,3.242,0,0,1,2.278-.791,3.245,3.245,0,0,1,2.274.791A2.751,2.751,0,0,1,7.354-7.881ZM6.248-2.908A1.965,1.965,0,0,0,5.68-4.365,2.013,2.013,0,0,0,4.2-4.929a1.978,1.978,0,0,0-1.469.557,1.988,1.988,0,0,0-.553,1.465,1.893,1.893,0,0,0,.538,1.428,2.066,2.066,0,0,0,1.5.52,2.06,2.06,0,0,0,1.494-.524A1.888,1.888,0,0,0,6.248-2.908ZM4.211-9.7A1.748,1.748,0,0,0,2.919-9.2a1.816,1.816,0,0,0-.494,1.344,1.807,1.807,0,0,0,.487,1.315,1.729,1.729,0,0,0,1.3.5,1.729,1.729,0,0,0,1.3-.5A1.807,1.807,0,0,0,6-7.859a1.808,1.808,0,0,0-.505-1.326A1.724,1.724,0,0,0,4.211-9.7ZM16-4.548a6.2,6.2,0,0,1-.813,3.538A2.891,2.891,0,0,1,12.642.146,2.912,2.912,0,0,1,10.115-.985a5.882,5.882,0,0,1-.85-3.38V-6.174a6.059,6.059,0,0,1,.813-3.494,2.914,2.914,0,0,1,2.549-1.143,2.94,2.94,0,0,1,2.534,1.1A5.847,5.847,0,0,1,16-6.306ZM14.641-6.4a4.965,4.965,0,0,0-.483-2.509A1.664,1.664,0,0,0,12.627-9.7a1.642,1.642,0,0,0-1.516.784A4.848,4.848,0,0,0,10.62-6.5v2.168a5.045,5.045,0,0,0,.5,2.552,1.661,1.661,0,0,0,1.52.824,1.638,1.638,0,0,0,1.49-.776,4.862,4.862,0,0,0,.509-2.446Zm2.974-2.212a2.164,2.164,0,0,1,.612-1.582,2.107,2.107,0,0,1,1.571-.623,2.094,2.094,0,0,1,1.578.626,2.239,2.239,0,0,1,.6,1.622v.52a2.136,2.136,0,0,1-.612,1.578,2.108,2.108,0,0,1-1.556.612,2.155,2.155,0,0,1-1.575-.612,2.181,2.181,0,0,1-.623-1.63Zm1.011.561a1.386,1.386,0,0,0,.322.943,1.087,1.087,0,0,0,.864.371,1.066,1.066,0,0,0,.839-.36,1.431,1.431,0,0,0,.319-.984v-.536a1.421,1.421,0,0,0-.315-.947,1.061,1.061,0,0,0-.857-.374,1.061,1.061,0,0,0-.857.374,1.465,1.465,0,0,0-.315.976Zm4.182,5.438a2.151,2.151,0,0,1,.612-1.578,2.113,2.113,0,0,1,1.571-.619,2.132,2.132,0,0,1,1.575.615,2.208,2.208,0,0,1,.615,1.633v.52a2.151,2.151,0,0,1-.612,1.578A2.1,2.1,0,0,1,25,.154,2.155,2.155,0,0,1,23.43-.458a2.181,2.181,0,0,1-.623-1.63Zm1.011.568a1.4,1.4,0,0,0,.322.951A1.087,1.087,0,0,0,25-.725a1.059,1.059,0,0,0,.842-.363,1.456,1.456,0,0,0,.315-.987v-.543a1.393,1.393,0,0,0-.319-.947,1.073,1.073,0,0,0-.853-.367,1.084,1.084,0,0,0-.846.363,1.413,1.413,0,0,0-.326.98ZM20.12-.806l-.769-.483,5.208-8.335.769.483Z" transform="translate(1062 760)" fill="#6c6c6c"/>
    <path id="Trazado_125952" data-name="Trazado 125952" d="M6.2-10.671v1.15H5.955a3.568,3.568,0,0,0-2.52.938A3.9,3.9,0,0,0,2.351-6.028a2.892,2.892,0,0,1,2.3-.967,2.765,2.765,0,0,1,2.223.981,3.786,3.786,0,0,1,.831,2.534,3.774,3.774,0,0,1-.9,2.637A3.089,3.089,0,0,1,4.4.146,3.044,3.044,0,0,1,1.919-1.029,4.659,4.659,0,0,1,.967-4.058v-.52a7.02,7.02,0,0,1,1.256-4.5,4.613,4.613,0,0,1,3.739-1.593Zm-1.78,4.8a2.162,2.162,0,0,0-1.282.417A2.175,2.175,0,0,0,2.329-4.4v.5A3.5,3.5,0,0,0,2.922-1.78,1.778,1.778,0,0,0,4.4-.974a1.723,1.723,0,0,0,1.439-.674,2.8,2.8,0,0,0,.524-1.765,2.8,2.8,0,0,0-.531-1.776A1.7,1.7,0,0,0,4.424-5.867ZM16-4.548a6.2,6.2,0,0,1-.813,3.538A2.891,2.891,0,0,1,12.642.146,2.912,2.912,0,0,1,10.115-.985a5.882,5.882,0,0,1-.85-3.38V-6.174a6.059,6.059,0,0,1,.813-3.494,2.914,2.914,0,0,1,2.549-1.143,2.94,2.94,0,0,1,2.534,1.1A5.847,5.847,0,0,1,16-6.306ZM14.641-6.4a4.965,4.965,0,0,0-.483-2.509A1.664,1.664,0,0,0,12.627-9.7a1.642,1.642,0,0,0-1.516.784A4.848,4.848,0,0,0,10.62-6.5v2.168a5.045,5.045,0,0,0,.5,2.552,1.661,1.661,0,0,0,1.52.824,1.638,1.638,0,0,0,1.49-.776,4.862,4.862,0,0,0,.509-2.446Zm2.974-2.212a2.164,2.164,0,0,1,.612-1.582,2.107,2.107,0,0,1,1.571-.623,2.094,2.094,0,0,1,1.578.626,2.239,2.239,0,0,1,.6,1.622v.52a2.136,2.136,0,0,1-.612,1.578,2.108,2.108,0,0,1-1.556.612,2.155,2.155,0,0,1-1.575-.612,2.181,2.181,0,0,1-.623-1.63Zm1.011.561a1.386,1.386,0,0,0,.322.943,1.087,1.087,0,0,0,.864.371,1.066,1.066,0,0,0,.839-.36,1.431,1.431,0,0,0,.319-.984v-.536a1.421,1.421,0,0,0-.315-.947,1.061,1.061,0,0,0-.857-.374,1.061,1.061,0,0,0-.857.374,1.465,1.465,0,0,0-.315.976Zm4.182,5.438a2.151,2.151,0,0,1,.612-1.578,2.113,2.113,0,0,1,1.571-.619,2.132,2.132,0,0,1,1.575.615,2.208,2.208,0,0,1,.615,1.633v.52a2.151,2.151,0,0,1-.612,1.578A2.1,2.1,0,0,1,25,.154,2.155,2.155,0,0,1,23.43-.458a2.181,2.181,0,0,1-.623-1.63Zm1.011.568a1.4,1.4,0,0,0,.322.951A1.087,1.087,0,0,0,25-.725a1.059,1.059,0,0,0,.842-.363,1.456,1.456,0,0,0,.315-.987v-.543a1.393,1.393,0,0,0-.319-.947,1.073,1.073,0,0,0-.853-.367,1.084,1.084,0,0,0-.846.363,1.413,1.413,0,0,0-.326.98ZM20.12-.806l-.769-.483,5.208-8.335.769.483Z" transform="translate(1062 820)" fill="#6c6c6c"/>
    <path id="Trazado_125953" data-name="Trazado 125953" d="M6.606-3.582H8.086v1.106H6.606V0H5.244V-2.476H.388v-.8l4.775-7.39H6.606Zm-4.68,0H5.244V-8.811l-.161.293ZM16-4.548a6.2,6.2,0,0,1-.813,3.538A2.891,2.891,0,0,1,12.642.146,2.912,2.912,0,0,1,10.115-.985a5.882,5.882,0,0,1-.85-3.38V-6.174a6.059,6.059,0,0,1,.813-3.494,2.914,2.914,0,0,1,2.549-1.143,2.94,2.94,0,0,1,2.534,1.1A5.847,5.847,0,0,1,16-6.306ZM14.641-6.4a4.965,4.965,0,0,0-.483-2.509A1.664,1.664,0,0,0,12.627-9.7a1.642,1.642,0,0,0-1.516.784A4.848,4.848,0,0,0,10.62-6.5v2.168a5.045,5.045,0,0,0,.5,2.552,1.661,1.661,0,0,0,1.52.824,1.638,1.638,0,0,0,1.49-.776,4.862,4.862,0,0,0,.509-2.446Zm2.974-2.212a2.164,2.164,0,0,1,.612-1.582,2.107,2.107,0,0,1,1.571-.623,2.094,2.094,0,0,1,1.578.626,2.239,2.239,0,0,1,.6,1.622v.52a2.136,2.136,0,0,1-.612,1.578,2.108,2.108,0,0,1-1.556.612,2.155,2.155,0,0,1-1.575-.612,2.181,2.181,0,0,1-.623-1.63Zm1.011.561a1.386,1.386,0,0,0,.322.943,1.087,1.087,0,0,0,.864.371,1.066,1.066,0,0,0,.839-.36,1.431,1.431,0,0,0,.319-.984v-.536a1.421,1.421,0,0,0-.315-.947,1.061,1.061,0,0,0-.857-.374,1.061,1.061,0,0,0-.857.374,1.465,1.465,0,0,0-.315.976Zm4.182,5.438a2.151,2.151,0,0,1,.612-1.578,2.113,2.113,0,0,1,1.571-.619,2.132,2.132,0,0,1,1.575.615,2.208,2.208,0,0,1,.615,1.633v.52a2.151,2.151,0,0,1-.612,1.578A2.1,2.1,0,0,1,25,.154,2.155,2.155,0,0,1,23.43-.458a2.181,2.181,0,0,1-.623-1.63Zm1.011.568a1.4,1.4,0,0,0,.322.951A1.087,1.087,0,0,0,25-.725a1.059,1.059,0,0,0,.842-.363,1.456,1.456,0,0,0,.315-.987v-.543a1.393,1.393,0,0,0-.319-.947,1.073,1.073,0,0,0-.853-.367,1.084,1.084,0,0,0-.846.363,1.413,1.413,0,0,0-.326.98ZM20.12-.806l-.769-.483,5.208-8.335.769.483Z" transform="translate(1062 880)" fill="#6c6c6c"/>
    <path id="Trazado_125954" data-name="Trazado 125954" d="M7.874,0H.886V-.974l3.691-4.1A8.77,8.77,0,0,0,5.709-6.588a2.524,2.524,0,0,0,.311-1.2,1.913,1.913,0,0,0-.505-1.37A1.767,1.767,0,0,0,4.167-9.7,2.093,2.093,0,0,0,2.6-9.122a2.2,2.2,0,0,0-.56,1.6H.681A3.145,3.145,0,0,1,1.63-9.9a3.516,3.516,0,0,1,2.538-.908,3.379,3.379,0,0,1,2.351.78,2.661,2.661,0,0,1,.864,2.076q0,1.575-2.007,3.75L2.52-1.106H7.874ZM16-4.548a6.2,6.2,0,0,1-.813,3.538A2.891,2.891,0,0,1,12.642.146,2.912,2.912,0,0,1,10.115-.985a5.882,5.882,0,0,1-.85-3.38V-6.174a6.059,6.059,0,0,1,.813-3.494,2.914,2.914,0,0,1,2.549-1.143,2.94,2.94,0,0,1,2.534,1.1A5.847,5.847,0,0,1,16-6.306ZM14.641-6.4a4.965,4.965,0,0,0-.483-2.509A1.664,1.664,0,0,0,12.627-9.7a1.642,1.642,0,0,0-1.516.784A4.848,4.848,0,0,0,10.62-6.5v2.168a5.045,5.045,0,0,0,.5,2.552,1.661,1.661,0,0,0,1.52.824,1.638,1.638,0,0,0,1.49-.776,4.862,4.862,0,0,0,.509-2.446Zm2.974-2.212a2.164,2.164,0,0,1,.612-1.582,2.107,2.107,0,0,1,1.571-.623,2.094,2.094,0,0,1,1.578.626,2.239,2.239,0,0,1,.6,1.622v.52a2.136,2.136,0,0,1-.612,1.578,2.108,2.108,0,0,1-1.556.612,2.155,2.155,0,0,1-1.575-.612,2.181,2.181,0,0,1-.623-1.63Zm1.011.561a1.386,1.386,0,0,0,.322.943,1.087,1.087,0,0,0,.864.371,1.066,1.066,0,0,0,.839-.36,1.431,1.431,0,0,0,.319-.984v-.536a1.421,1.421,0,0,0-.315-.947,1.061,1.061,0,0,0-.857-.374,1.061,1.061,0,0,0-.857.374,1.465,1.465,0,0,0-.315.976Zm4.182,5.438a2.151,2.151,0,0,1,.612-1.578,2.113,2.113,0,0,1,1.571-.619,2.132,2.132,0,0,1,1.575.615,2.208,2.208,0,0,1,.615,1.633v.52a2.151,2.151,0,0,1-.612,1.578A2.1,2.1,0,0,1,25,.154,2.155,2.155,0,0,1,23.43-.458a2.181,2.181,0,0,1-.623-1.63Zm1.011.568a1.4,1.4,0,0,0,.322.951A1.087,1.087,0,0,0,25-.725a1.059,1.059,0,0,0,.842-.363,1.456,1.456,0,0,0,.315-.987v-.543a1.393,1.393,0,0,0-.319-.947,1.073,1.073,0,0,0-.853-.367,1.084,1.084,0,0,0-.846.363,1.413,1.413,0,0,0-.326.98ZM20.12-.806l-.769-.483,5.208-8.335.769.483Z" transform="translate(1062 944)" fill="#6c6c6c"/>
    <path id="Trazado_125955" data-name="Trazado 125955" d="M7.573-4.548A6.2,6.2,0,0,1,6.76-1.011,2.891,2.891,0,0,1,4.219.146,2.912,2.912,0,0,1,1.692-.985a5.882,5.882,0,0,1-.85-3.38V-6.174a6.059,6.059,0,0,1,.813-3.494A2.914,2.914,0,0,1,4.2-10.811a2.94,2.94,0,0,1,2.534,1.1,5.847,5.847,0,0,1,.835,3.4ZM6.218-6.4A4.965,4.965,0,0,0,5.735-8.91,1.664,1.664,0,0,0,4.2-9.7a1.642,1.642,0,0,0-1.516.784A4.848,4.848,0,0,0,2.2-6.5v2.168a5.045,5.045,0,0,0,.5,2.552,1.661,1.661,0,0,0,1.52.824,1.638,1.638,0,0,0,1.49-.776,4.862,4.862,0,0,0,.509-2.446ZM9.192-8.613A2.164,2.164,0,0,1,9.8-10.2a2.107,2.107,0,0,1,1.571-.623,2.094,2.094,0,0,1,1.578.626,2.239,2.239,0,0,1,.6,1.622v.52a2.136,2.136,0,0,1-.612,1.578,2.108,2.108,0,0,1-1.556.612,2.155,2.155,0,0,1-1.575-.612A2.181,2.181,0,0,1,9.192-8.1Zm1.011.561a1.386,1.386,0,0,0,.322.943,1.087,1.087,0,0,0,.864.371,1.066,1.066,0,0,0,.839-.36,1.431,1.431,0,0,0,.319-.984v-.536a1.421,1.421,0,0,0-.315-.947,1.061,1.061,0,0,0-.857-.374,1.061,1.061,0,0,0-.857.374,1.465,1.465,0,0,0-.315.976Zm4.182,5.438A2.151,2.151,0,0,1,15-4.193a2.113,2.113,0,0,1,1.571-.619,2.132,2.132,0,0,1,1.575.615,2.208,2.208,0,0,1,.615,1.633v.52a2.151,2.151,0,0,1-.612,1.578,2.1,2.1,0,0,1-1.564.619,2.155,2.155,0,0,1-1.575-.612,2.181,2.181,0,0,1-.623-1.63Zm1.011.568a1.4,1.4,0,0,0,.322.951,1.087,1.087,0,0,0,.864.371,1.059,1.059,0,0,0,.842-.363,1.456,1.456,0,0,0,.315-.987v-.543a1.393,1.393,0,0,0-.319-.947,1.073,1.073,0,0,0-.853-.367,1.084,1.084,0,0,0-.846.363,1.413,1.413,0,0,0-.326.98ZM11.7-.806l-.769-.483,5.208-8.335.769.483Z" transform="translate(1062 1000)" fill="#6c6c6c"/>
    <path id="Trazado_125261" data-name="Trazado 125261" d="M-1982-10843.969l55.23-74.857,52.762-57.154,51.688-31.027,50.436-13.268,54.414-12.086,51.15-9.971,52.459-6.123,50.654-5.111,55.021-5.105" transform="translate(2531 11753)" fill="none" stroke="red" stroke-width="2"/>
    <path id="Trazado_125921" data-name="Trazado 125921" d="M0,0H7V7H0Z" transform="translate(546 905)" fill="#ff361a"/>
    <path id="Trazado_125922" data-name="Trazado 125922" d="M0,0H7V7H0Z" transform="translate(600 833)" fill="#ff361a"/>
    <path id="Trazado_125923" data-name="Trazado 125923" d="M0,0H7V7H0Z" transform="translate(652 775)" fill="#ff361a"/>
    <path id="Trazado_125926" data-name="Trazado 125926" d="M0,0H7V7H0Z" transform="translate(704 743)" fill="#ff361a"/>
    <path id="Trazado_125933" data-name="Trazado 125933" d="M0,0H7V7H0Z" transform="translate(756 728)" fill="#ff361a"/>
    <path id="Trazado_125936" data-name="Trazado 125936" d="M0,0H7V7H0Z" transform="translate(810 717)" fill="#ff361a"/>
    <path id="Trazado_125939" data-name="Trazado 125939" d="M0,0H7V7H0Z" transform="translate(863 708)" fill="#ff361a"/>
    <path id="Trazado_125942" data-name="Trazado 125942" d="M0,0H7V7H0Z" transform="translate(915 701)" fill="#ff361a"/>
    <path id="Trazado_125945" data-name="Trazado 125945" d="M0,0H7V7H0Z" transform="translate(967 695)" fill="#ff361a"/>
    <path id="Trazado_125948" data-name="Trazado 125948" d="M0,0H7V7H0Z" transform="translate(1018 691)" fill="#ff361a"/>
    <g id="Trazado_125916" data-name="Trazado 125916" transform="translate(524 635)" fill="none">
      <path d="M0,0H526V363H0Z" stroke="none"/>
      <path d="M 1 1 L 1 362 L 525 362 L 525 1 L 1 1 M 0 0 L 526 0 L 526 363 L 0 363 L 0 0 Z" stroke="none" fill="#cbcbcb"/>
    </g>
    <path id="Trazado_125262" data-name="Trazado 125262" d="M-2007-11067h525.316" transform="translate(2531 11753)" fill="none" stroke="#707070" stroke-width="1"/>
    <path id="Trazado_125263" data-name="Trazado 125263" d="M-2007-11067h525.316" transform="translate(2531 11804)" fill="none" stroke="#707070" stroke-width="1"/>
    <path id="Trazado_125264" data-name="Trazado 125264" d="M-2007-11067h525.316" transform="translate(2531 11855)" fill="none" stroke="#707070" stroke-width="1"/>
    <path id="Trazado_125265" data-name="Trazado 125265" d="M-2007-11067h525.316" transform="translate(2531 11909)" fill="none" stroke="#707070" stroke-width="1"/>
    <path id="Trazado_125266" data-name="Trazado 125266" d="M-2007-11067h525.316" transform="translate(2531 11961)" fill="none" stroke="#707070" stroke-width="1"/>
    <path id="Trazado_125267" data-name="Trazado 125267" d="M-2007-11067h525.316" transform="translate(2531 12012)" fill="none" stroke="#707070" stroke-width="1"/>
    <path id="Trazado_125268" data-name="Trazado 125268" d="M-1481.684-11058.672h5.594" transform="translate(2531 11753)" fill="none" stroke="#707070" stroke-width="1"/>
    <path id="Trazado_125269" data-name="Trazado 125269" d="M-1481.684-11058.672h5.594" transform="translate(2531 11813.672)" fill="none" stroke="#707070" stroke-width="1"/>
    <path id="Trazado_125270" data-name="Trazado 125270" d="M-1481.684-11058.672h5.594" transform="translate(2531 11875.172)" fill="none" stroke="#707070" stroke-width="1"/>
    <path id="Trazado_125271" data-name="Trazado 125271" d="M-1481.684-11058.672h5.594" transform="translate(2531 11935.172)" fill="none" stroke="#707070" stroke-width="1"/>
    <path id="Trazado_125272" data-name="Trazado 125272" d="M-1481.684-11058.672h5.594" transform="translate(2531 11995.172)" fill="none" stroke="#707070" stroke-width="1"/>
    <path id="Trazado_125273" data-name="Trazado 125273" d="M-1481.684-11058.672h5.594" transform="translate(2531 11693.672)" fill="none" stroke="#707070" stroke-width="1"/>
  </g>
</svg>
