<svg xmlns="http://www.w3.org/2000/svg" width="587.031" height="283.049" viewBox="0 0 587.031 283.049">
  <g id="Grupo_84683" data-name="Grupo 84683" transform="translate(2054 5949.268)">
    <path id="Trazado_125149" data-name="Trazado 125149" d="M-320.892-7342.545s34.332-.319,53.018-42.754,39.366-76.813,57.63-39.784,42.811,84.716,64.047,80.336" transform="translate(-1524 1502)" fill="none" stroke="#12263f" stroke-width="2"/>
    <path id="Trazado_125150" data-name="Trazado 125150" d="M-119.7-7342.545s12.3-153.767,53.531-91.735,76.294,95.609,123.087,90.329" transform="translate(-1524 1502)" fill="none" stroke="#000" stroke-width="2"/>
    <path id="Trazado_125151" data-name="Trazado 125151" d="M-338.569-7344.789s-14.842-152.027-55.71-91.034-94.594,92.315-126.391,92.527" transform="translate(-1524 1502)" fill="none" stroke="#000" stroke-width="2"/>
    <path id="Trazado_125880" data-name="Trazado 125880" d="M0,0H201V5H0Z" transform="translate(-2054 -5843)"/>
    <path id="Trazado_125883" data-name="Trazado 125883" d="M0,0H183V5H0Z" transform="translate(-1848 -5843)"/>
    <path id="Trazado_125891" data-name="Trazado 125891" d="M0,0H183V5H0Z" transform="translate(-1650 -5843)"/>
    <path id="Trazado_125152" data-name="Trazado 125152" d="M-425.723-7396.776v52.747" transform="translate(-1524 1502)" fill="none" stroke="#db6e5f" stroke-width="3"/>
    <path id="Trazado_125153" data-name="Trazado 125153" d="M-425.723-7396.777v82.1" transform="translate(-1498 1472.646)" fill="none" stroke="#db6e5f" stroke-width="3"/>
    <path id="Trazado_125154" data-name="Trazado 125154" d="M-425.723-7396.777v106.228" transform="translate(-1472 1448.519)" fill="none" stroke="#db6e5f" stroke-width="3"/>
    <path id="Trazado_125155" data-name="Trazado 125155" d="M-425.723-7396.777v95.222" transform="translate(-1327 1459.525)" fill="none" stroke="#db6e5f" stroke-width="3"/>
    <path id="Trazado_125156" data-name="Trazado 125156" d="M-425.723-7396.777v104.994" transform="translate(-1185 1449.753)" fill="none" stroke="#db6e5f" stroke-width="3"/>
    <path id="Trazado_125157" data-name="Trazado 125157" d="M-425.723-7396.776v80.179" transform="translate(-1159 1474.567)" fill="none" stroke="#db6e5f" stroke-width="3"/>
    <path id="Trazado_125158" data-name="Trazado 125158" d="M-425.723-7396.776v45.8" transform="translate(-1133 1508.948)" fill="none" stroke="#db6e5f" stroke-width="3"/>
    <path id="Trazado_125881" data-name="Trazado 125881" d="M4.072-14.219l4.648,11.6,4.648-11.6H15.8V0H13.926V-5.537l.176-5.977L9.434,0H8L3.34-11.484l.186,5.947V0H1.65V-14.219ZM23.213.2a4.617,4.617,0,0,1-3.5-1.411A5.237,5.237,0,0,1,18.369-4.99v-.332a6.341,6.341,0,0,1,.6-2.808,4.685,4.685,0,0,1,1.68-1.934,4.223,4.223,0,0,1,2.339-.7,3.957,3.957,0,0,1,3.2,1.357,5.877,5.877,0,0,1,1.143,3.887v.752H20.176a3.756,3.756,0,0,0,.913,2.524,2.87,2.87,0,0,0,2.222.962,3.147,3.147,0,0,0,1.621-.391,4.073,4.073,0,0,0,1.162-1.035l1.1.859A4.437,4.437,0,0,1,23.213.2Zm-.225-9.473a2.41,2.41,0,0,0-1.836.8,3.868,3.868,0,0,0-.918,2.231h5.293v-.137a3.441,3.441,0,0,0-.742-2.134A2.269,2.269,0,0,0,22.988-9.277Zm6,3.906a6.19,6.19,0,0,1,1.152-3.911,3.644,3.644,0,0,1,3.018-1.479,3.665,3.665,0,0,1,2.939,1.27V-15H37.9V0H36.24l-.088-1.133A3.679,3.679,0,0,1,33.135.2a3.609,3.609,0,0,1-2.993-1.5,6.26,6.26,0,0,1-1.157-3.926Zm1.807.205a4.687,4.687,0,0,0,.742,2.813,2.4,2.4,0,0,0,2.051,1.016,2.636,2.636,0,0,0,2.51-1.543V-7.734A2.656,2.656,0,0,0,33.6-9.229,2.411,2.411,0,0,0,31.533-8.2,5.16,5.16,0,0,0,30.791-5.166ZM42.666,0H40.859V-10.566h1.807ZM40.713-13.369a1.078,1.078,0,0,1,.269-.742,1.008,1.008,0,0,1,.8-.3,1.024,1.024,0,0,1,.8.3,1.067,1.067,0,0,1,.273.742,1.032,1.032,0,0,1-.273.732,1.043,1.043,0,0,1-.8.293,1.026,1.026,0,0,1-.8-.293A1.043,1.043,0,0,1,40.713-13.369ZM52.08,0a3.8,3.8,0,0,1-.254-1.113A4.031,4.031,0,0,1,48.818.2a3.73,3.73,0,0,1-2.563-.884,2.859,2.859,0,0,1-1-2.241,2.987,2.987,0,0,1,1.255-2.563,5.916,5.916,0,0,1,3.53-.913H51.8v-.83a2.029,2.029,0,0,0-.566-1.509,2.276,2.276,0,0,0-1.67-.562,2.634,2.634,0,0,0-1.621.488,1.439,1.439,0,0,0-.654,1.182H45.469a2.493,2.493,0,0,1,.562-1.528,3.832,3.832,0,0,1,1.523-1.167,5.125,5.125,0,0,1,2.114-.43,4.177,4.177,0,0,1,2.861.913A3.294,3.294,0,0,1,53.6-7.334v4.863a5.946,5.946,0,0,0,.371,2.314V0Zm-3-1.377a3.175,3.175,0,0,0,1.611-.439,2.658,2.658,0,0,0,1.1-1.143V-5.127H50.381q-3.32,0-3.32,1.943a1.645,1.645,0,0,0,.566,1.328A2.177,2.177,0,0,0,49.082-1.377Z" transform="translate(-2027.5 -5801.938)" fill="#12263f"/>
    <path id="Trazado_125884" data-name="Trazado 125884" d="M4.072-14.219l4.648,11.6,4.648-11.6H15.8V0H13.926V-5.537l.176-5.977L9.434,0H8L3.34-11.484l.186,5.947V0H1.65V-14.219ZM23.213.2a4.617,4.617,0,0,1-3.5-1.411A5.237,5.237,0,0,1,18.369-4.99v-.332a6.341,6.341,0,0,1,.6-2.808,4.685,4.685,0,0,1,1.68-1.934,4.223,4.223,0,0,1,2.339-.7,3.957,3.957,0,0,1,3.2,1.357,5.877,5.877,0,0,1,1.143,3.887v.752H20.176a3.756,3.756,0,0,0,.913,2.524,2.87,2.87,0,0,0,2.222.962,3.147,3.147,0,0,0,1.621-.391,4.073,4.073,0,0,0,1.162-1.035l1.1.859A4.437,4.437,0,0,1,23.213.2Zm-.225-9.473a2.41,2.41,0,0,0-1.836.8,3.868,3.868,0,0,0-.918,2.231h5.293v-.137a3.441,3.441,0,0,0-.742-2.134A2.269,2.269,0,0,0,22.988-9.277Zm6,3.906a6.19,6.19,0,0,1,1.152-3.911,3.644,3.644,0,0,1,3.018-1.479,3.665,3.665,0,0,1,2.939,1.27V-15H37.9V0H36.24l-.088-1.133A3.679,3.679,0,0,1,33.135.2a3.609,3.609,0,0,1-2.993-1.5,6.26,6.26,0,0,1-1.157-3.926Zm1.807.205a4.687,4.687,0,0,0,.742,2.813,2.4,2.4,0,0,0,2.051,1.016,2.636,2.636,0,0,0,2.51-1.543V-7.734A2.656,2.656,0,0,0,33.6-9.229,2.411,2.411,0,0,0,31.533-8.2,5.16,5.16,0,0,0,30.791-5.166ZM42.666,0H40.859V-10.566h1.807ZM40.713-13.369a1.078,1.078,0,0,1,.269-.742,1.008,1.008,0,0,1,.8-.3,1.024,1.024,0,0,1,.8.3,1.067,1.067,0,0,1,.273.742,1.032,1.032,0,0,1-.273.732,1.043,1.043,0,0,1-.8.293,1.026,1.026,0,0,1-.8-.293A1.043,1.043,0,0,1,40.713-13.369ZM52.08,0a3.8,3.8,0,0,1-.254-1.113A4.031,4.031,0,0,1,48.818.2a3.73,3.73,0,0,1-2.563-.884,2.859,2.859,0,0,1-1-2.241,2.987,2.987,0,0,1,1.255-2.563,5.916,5.916,0,0,1,3.53-.913H51.8v-.83a2.029,2.029,0,0,0-.566-1.509,2.276,2.276,0,0,0-1.67-.562,2.634,2.634,0,0,0-1.621.488,1.439,1.439,0,0,0-.654,1.182H45.469a2.493,2.493,0,0,1,.562-1.528,3.832,3.832,0,0,1,1.523-1.167,5.125,5.125,0,0,1,2.114-.43,4.177,4.177,0,0,1,2.861.913A3.294,3.294,0,0,1,53.6-7.334v4.863a5.946,5.946,0,0,0,.371,2.314V0Zm-3-1.377a3.175,3.175,0,0,0,1.611-.439,2.658,2.658,0,0,0,1.1-1.143V-5.127H50.381q-3.32,0-3.32,1.943a1.645,1.645,0,0,0,.566,1.328A2.177,2.177,0,0,0,49.082-1.377Zm9.063-9.189L58.2-9.238a3.851,3.851,0,0,1,3.164-1.523q3.35,0,3.379,3.779V0H62.939V-6.992a2.432,2.432,0,0,0-.522-1.689,2.094,2.094,0,0,0-1.6-.547,2.607,2.607,0,0,0-1.543.469,3.183,3.183,0,0,0-1.035,1.23V0H56.436V-10.566ZM73.994,0a3.8,3.8,0,0,1-.254-1.113A4.031,4.031,0,0,1,70.732.2a3.73,3.73,0,0,1-2.563-.884,2.859,2.859,0,0,1-1-2.241,2.987,2.987,0,0,1,1.255-2.563,5.916,5.916,0,0,1,3.53-.913h1.758v-.83a2.029,2.029,0,0,0-.566-1.509,2.276,2.276,0,0,0-1.67-.562,2.634,2.634,0,0,0-1.621.488A1.439,1.439,0,0,0,69.2-7.637H67.383a2.493,2.493,0,0,1,.562-1.528,3.832,3.832,0,0,1,1.523-1.167,5.125,5.125,0,0,1,2.114-.43,4.177,4.177,0,0,1,2.861.913,3.294,3.294,0,0,1,1.074,2.515v4.863a5.946,5.946,0,0,0,.371,2.314V0ZM71-1.377a3.175,3.175,0,0,0,1.611-.439,2.658,2.658,0,0,0,1.1-1.143V-5.127H72.295q-3.32,0-3.32,1.943a1.645,1.645,0,0,0,.566,1.328A2.177,2.177,0,0,0,71-1.377Z" transform="translate(-1962.223 -5773.938)" fill="#12263f"/>
    <path id="Trazado_125882" data-name="Trazado 125882" d="M4.072-14.219l4.648,11.6,4.648-11.6H15.8V0H13.926V-5.537l.176-5.977L9.434,0H8L3.34-11.484l.186,5.947V0H1.65V-14.219ZM18.35-5.381a6.241,6.241,0,0,1,.61-2.793,4.553,4.553,0,0,1,1.7-1.914,4.626,4.626,0,0,1,2.485-.674,4.456,4.456,0,0,1,3.491,1.494,5.748,5.748,0,0,1,1.333,3.975v.127A6.3,6.3,0,0,1,27.378-2.4,4.486,4.486,0,0,1,25.688-.488,4.679,4.679,0,0,1,23.164.2,4.445,4.445,0,0,1,19.683-1.3,5.719,5.719,0,0,1,18.35-5.254Zm1.816.215a4.52,4.52,0,0,0,.815,2.822,2.61,2.61,0,0,0,2.183,1.064,2.594,2.594,0,0,0,2.188-1.079,4.943,4.943,0,0,0,.811-3.022A4.513,4.513,0,0,0,25.337-8.2a2.623,2.623,0,0,0-2.192-1.079,2.594,2.594,0,0,0-2.158,1.064A4.906,4.906,0,0,0,20.166-5.166Zm9.629-.205a6.19,6.19,0,0,1,1.152-3.911,3.644,3.644,0,0,1,3.018-1.479A3.665,3.665,0,0,1,36.9-9.492V-15h1.807V0h-1.66l-.088-1.133A3.679,3.679,0,0,1,33.945.2a3.609,3.609,0,0,1-2.993-1.5,6.26,6.26,0,0,1-1.157-3.926Zm1.807.205a4.687,4.687,0,0,0,.742,2.813,2.4,2.4,0,0,0,2.051,1.016A2.636,2.636,0,0,0,36.9-2.881V-7.734a2.656,2.656,0,0,0-2.49-1.494A2.411,2.411,0,0,0,32.344-8.2,5.16,5.16,0,0,0,31.6-5.166ZM48.037,0a3.8,3.8,0,0,1-.254-1.113A4.031,4.031,0,0,1,44.775.2a3.73,3.73,0,0,1-2.563-.884,2.859,2.859,0,0,1-1-2.241,2.987,2.987,0,0,1,1.255-2.563A5.916,5.916,0,0,1,46-6.406h1.758v-.83a2.029,2.029,0,0,0-.566-1.509,2.276,2.276,0,0,0-1.67-.562,2.634,2.634,0,0,0-1.621.488,1.439,1.439,0,0,0-.654,1.182H41.426a2.493,2.493,0,0,1,.562-1.528,3.832,3.832,0,0,1,1.523-1.167,5.125,5.125,0,0,1,2.114-.43,4.177,4.177,0,0,1,2.861.913,3.294,3.294,0,0,1,1.074,2.515v4.863a5.946,5.946,0,0,0,.371,2.314V0Zm-3-1.377a3.175,3.175,0,0,0,1.611-.439,2.658,2.658,0,0,0,1.1-1.143V-5.127H46.338q-3.32,0-3.32,1.943a1.645,1.645,0,0,0,.566,1.328A2.177,2.177,0,0,0,45.039-1.377Z" transform="translate(-1885.223 -5801.938)" fill="#12263f"/>
    <path id="Trazado_125885" data-name="Trazado 125885" d="M4.072-14.219l4.648,11.6,4.648-11.6H15.8V0H13.926V-5.537l.176-5.977L9.434,0H8L3.34-11.484l.186,5.947V0H1.65V-14.219ZM23.213.2a4.617,4.617,0,0,1-3.5-1.411A5.237,5.237,0,0,1,18.369-4.99v-.332a6.341,6.341,0,0,1,.6-2.808,4.685,4.685,0,0,1,1.68-1.934,4.223,4.223,0,0,1,2.339-.7,3.957,3.957,0,0,1,3.2,1.357,5.877,5.877,0,0,1,1.143,3.887v.752H20.176a3.756,3.756,0,0,0,.913,2.524,2.87,2.87,0,0,0,2.222.962,3.147,3.147,0,0,0,1.621-.391,4.073,4.073,0,0,0,1.162-1.035l1.1.859A4.437,4.437,0,0,1,23.213.2Zm-.225-9.473a2.41,2.41,0,0,0-1.836.8,3.868,3.868,0,0,0-.918,2.231h5.293v-.137a3.441,3.441,0,0,0-.742-2.134A2.269,2.269,0,0,0,22.988-9.277Zm6,3.906a6.19,6.19,0,0,1,1.152-3.911,3.644,3.644,0,0,1,3.018-1.479,3.665,3.665,0,0,1,2.939,1.27V-15H37.9V0H36.24l-.088-1.133A3.679,3.679,0,0,1,33.135.2a3.609,3.609,0,0,1-2.993-1.5,6.26,6.26,0,0,1-1.157-3.926Zm1.807.205a4.687,4.687,0,0,0,.742,2.813,2.4,2.4,0,0,0,2.051,1.016,2.636,2.636,0,0,0,2.51-1.543V-7.734A2.656,2.656,0,0,0,33.6-9.229,2.411,2.411,0,0,0,31.533-8.2,5.16,5.16,0,0,0,30.791-5.166ZM42.666,0H40.859V-10.566h1.807ZM40.713-13.369a1.078,1.078,0,0,1,.269-.742,1.008,1.008,0,0,1,.8-.3,1.024,1.024,0,0,1,.8.3,1.067,1.067,0,0,1,.273.742,1.032,1.032,0,0,1-.273.732,1.043,1.043,0,0,1-.8.293,1.026,1.026,0,0,1-.8-.293A1.043,1.043,0,0,1,40.713-13.369ZM52.08,0a3.8,3.8,0,0,1-.254-1.113A4.031,4.031,0,0,1,48.818.2a3.73,3.73,0,0,1-2.563-.884,2.859,2.859,0,0,1-1-2.241,2.987,2.987,0,0,1,1.255-2.563,5.916,5.916,0,0,1,3.53-.913H51.8v-.83a2.029,2.029,0,0,0-.566-1.509,2.276,2.276,0,0,0-1.67-.562,2.634,2.634,0,0,0-1.621.488,1.439,1.439,0,0,0-.654,1.182H45.469a2.493,2.493,0,0,1,.562-1.528,3.832,3.832,0,0,1,1.523-1.167,5.125,5.125,0,0,1,2.114-.43,4.177,4.177,0,0,1,2.861.913A3.294,3.294,0,0,1,53.6-7.334v4.863a5.946,5.946,0,0,0,.371,2.314V0Zm-3-1.377a3.175,3.175,0,0,0,1.611-.439,2.658,2.658,0,0,0,1.1-1.143V-5.127H50.381q-3.32,0-3.32,1.943a1.645,1.645,0,0,0,.566,1.328A2.177,2.177,0,0,0,49.082-1.377Z" transform="translate(-1780.223 -5808.938)" fill="#12263f"/>
    <path id="Trazado_125886" data-name="Trazado 125886" d="M4.072-14.219l4.648,11.6,4.648-11.6H15.8V0H13.926V-5.537l.176-5.977L9.434,0H8L3.34-11.484l.186,5.947V0H1.65V-14.219ZM23.213.2a4.617,4.617,0,0,1-3.5-1.411A5.237,5.237,0,0,1,18.369-4.99v-.332a6.341,6.341,0,0,1,.6-2.808,4.685,4.685,0,0,1,1.68-1.934,4.223,4.223,0,0,1,2.339-.7,3.957,3.957,0,0,1,3.2,1.357,5.877,5.877,0,0,1,1.143,3.887v.752H20.176a3.756,3.756,0,0,0,.913,2.524,2.87,2.87,0,0,0,2.222.962,3.147,3.147,0,0,0,1.621-.391,4.073,4.073,0,0,0,1.162-1.035l1.1.859A4.437,4.437,0,0,1,23.213.2Zm-.225-9.473a2.41,2.41,0,0,0-1.836.8,3.868,3.868,0,0,0-.918,2.231h5.293v-.137a3.441,3.441,0,0,0-.742-2.134A2.269,2.269,0,0,0,22.988-9.277Zm6,3.906a6.19,6.19,0,0,1,1.152-3.911,3.644,3.644,0,0,1,3.018-1.479,3.665,3.665,0,0,1,2.939,1.27V-15H37.9V0H36.24l-.088-1.133A3.679,3.679,0,0,1,33.135.2a3.609,3.609,0,0,1-2.993-1.5,6.26,6.26,0,0,1-1.157-3.926Zm1.807.205a4.687,4.687,0,0,0,.742,2.813,2.4,2.4,0,0,0,2.051,1.016,2.636,2.636,0,0,0,2.51-1.543V-7.734A2.656,2.656,0,0,0,33.6-9.229,2.411,2.411,0,0,0,31.533-8.2,5.16,5.16,0,0,0,30.791-5.166ZM42.666,0H40.859V-10.566h1.807ZM40.713-13.369a1.078,1.078,0,0,1,.269-.742,1.008,1.008,0,0,1,.8-.3,1.024,1.024,0,0,1,.8.3,1.067,1.067,0,0,1,.273.742,1.032,1.032,0,0,1-.273.732,1.043,1.043,0,0,1-.8.293,1.026,1.026,0,0,1-.8-.293A1.043,1.043,0,0,1,40.713-13.369ZM52.08,0a3.8,3.8,0,0,1-.254-1.113A4.031,4.031,0,0,1,48.818.2a3.73,3.73,0,0,1-2.563-.884,2.859,2.859,0,0,1-1-2.241,2.987,2.987,0,0,1,1.255-2.563,5.916,5.916,0,0,1,3.53-.913H51.8v-.83a2.029,2.029,0,0,0-.566-1.509,2.276,2.276,0,0,0-1.67-.562,2.634,2.634,0,0,0-1.621.488,1.439,1.439,0,0,0-.654,1.182H45.469a2.493,2.493,0,0,1,.562-1.528,3.832,3.832,0,0,1,1.523-1.167,5.125,5.125,0,0,1,2.114-.43,4.177,4.177,0,0,1,2.861.913A3.294,3.294,0,0,1,53.6-7.334v4.863a5.946,5.946,0,0,0,.371,2.314V0Zm-3-1.377a3.175,3.175,0,0,0,1.611-.439,2.658,2.658,0,0,0,1.1-1.143V-5.127H50.381q-3.32,0-3.32,1.943a1.645,1.645,0,0,0,.566,1.328A2.177,2.177,0,0,0,49.082-1.377Zm9.063-9.189L58.2-9.238a3.851,3.851,0,0,1,3.164-1.523q3.35,0,3.379,3.779V0H62.939V-6.992a2.432,2.432,0,0,0-.522-1.689,2.094,2.094,0,0,0-1.6-.547,2.607,2.607,0,0,0-1.543.469,3.183,3.183,0,0,0-1.035,1.23V0H56.436V-10.566ZM73.994,0a3.8,3.8,0,0,1-.254-1.113A4.031,4.031,0,0,1,70.732.2a3.73,3.73,0,0,1-2.563-.884,2.859,2.859,0,0,1-1-2.241,2.987,2.987,0,0,1,1.255-2.563,5.916,5.916,0,0,1,3.53-.913h1.758v-.83a2.029,2.029,0,0,0-.566-1.509,2.276,2.276,0,0,0-1.67-.562,2.634,2.634,0,0,0-1.621.488A1.439,1.439,0,0,0,69.2-7.637H67.383a2.493,2.493,0,0,1,.562-1.528,3.832,3.832,0,0,1,1.523-1.167,5.125,5.125,0,0,1,2.114-.43,4.177,4.177,0,0,1,2.861.913,3.294,3.294,0,0,1,1.074,2.515v4.863a5.946,5.946,0,0,0,.371,2.314V0ZM71-1.377a3.175,3.175,0,0,0,1.611-.439,2.658,2.658,0,0,0,1.1-1.143V-5.127H72.295q-3.32,0-3.32,1.943a1.645,1.645,0,0,0,.566,1.328A2.177,2.177,0,0,0,71-1.377Z" transform="translate(-1786.5 -5784.938)" fill="#12263f"/>
    <path id="Trazado_125887" data-name="Trazado 125887" d="M4.072-14.219l4.648,11.6,4.648-11.6H15.8V0H13.926V-5.537l.176-5.977L9.434,0H8L3.34-11.484l.186,5.947V0H1.65V-14.219ZM18.35-5.381a6.241,6.241,0,0,1,.61-2.793,4.553,4.553,0,0,1,1.7-1.914,4.626,4.626,0,0,1,2.485-.674,4.456,4.456,0,0,1,3.491,1.494,5.748,5.748,0,0,1,1.333,3.975v.127A6.3,6.3,0,0,1,27.378-2.4,4.486,4.486,0,0,1,25.688-.488,4.679,4.679,0,0,1,23.164.2,4.445,4.445,0,0,1,19.683-1.3,5.719,5.719,0,0,1,18.35-5.254Zm1.816.215a4.52,4.52,0,0,0,.815,2.822,2.61,2.61,0,0,0,2.183,1.064,2.594,2.594,0,0,0,2.188-1.079,4.943,4.943,0,0,0,.811-3.022A4.513,4.513,0,0,0,25.337-8.2a2.623,2.623,0,0,0-2.192-1.079,2.594,2.594,0,0,0-2.158,1.064A4.906,4.906,0,0,0,20.166-5.166Zm9.629-.205a6.19,6.19,0,0,1,1.152-3.911,3.644,3.644,0,0,1,3.018-1.479A3.665,3.665,0,0,1,36.9-9.492V-15h1.807V0h-1.66l-.088-1.133A3.679,3.679,0,0,1,33.945.2a3.609,3.609,0,0,1-2.993-1.5,6.26,6.26,0,0,1-1.157-3.926Zm1.807.205a4.687,4.687,0,0,0,.742,2.813,2.4,2.4,0,0,0,2.051,1.016A2.636,2.636,0,0,0,36.9-2.881V-7.734a2.656,2.656,0,0,0-2.49-1.494A2.411,2.411,0,0,0,32.344-8.2,5.16,5.16,0,0,0,31.6-5.166ZM48.037,0a3.8,3.8,0,0,1-.254-1.113A4.031,4.031,0,0,1,44.775.2a3.73,3.73,0,0,1-2.563-.884,2.859,2.859,0,0,1-1-2.241,2.987,2.987,0,0,1,1.255-2.563A5.916,5.916,0,0,1,46-6.406h1.758v-.83a2.029,2.029,0,0,0-.566-1.509,2.276,2.276,0,0,0-1.67-.562,2.634,2.634,0,0,0-1.621.488,1.439,1.439,0,0,0-.654,1.182H41.426a2.493,2.493,0,0,1,.562-1.528,3.832,3.832,0,0,1,1.523-1.167,5.125,5.125,0,0,1,2.114-.43,4.177,4.177,0,0,1,2.861.913,3.294,3.294,0,0,1,1.074,2.515v4.863a5.946,5.946,0,0,0,.371,2.314V0Zm-3-1.377a3.175,3.175,0,0,0,1.611-.439,2.658,2.658,0,0,0,1.1-1.143V-5.127H46.338q-3.32,0-3.32,1.943a1.645,1.645,0,0,0,.566,1.328A2.177,2.177,0,0,0,45.039-1.377Z" transform="translate(-1780.223 -5757.938)" fill="#12263f"/>
    <path id="Trazado_125890" data-name="Trazado 125890" d="M4.072-14.219l4.648,11.6,4.648-11.6H15.8V0H13.926V-5.537l.176-5.977L9.434,0H8L3.34-11.484l.186,5.947V0H1.65V-14.219ZM18.35-5.381a6.241,6.241,0,0,1,.61-2.793,4.553,4.553,0,0,1,1.7-1.914,4.626,4.626,0,0,1,2.485-.674,4.456,4.456,0,0,1,3.491,1.494,5.748,5.748,0,0,1,1.333,3.975v.127A6.3,6.3,0,0,1,27.378-2.4,4.486,4.486,0,0,1,25.688-.488,4.679,4.679,0,0,1,23.164.2,4.445,4.445,0,0,1,19.683-1.3,5.719,5.719,0,0,1,18.35-5.254Zm1.816.215a4.52,4.52,0,0,0,.815,2.822,2.61,2.61,0,0,0,2.183,1.064,2.594,2.594,0,0,0,2.188-1.079,4.943,4.943,0,0,0,.811-3.022A4.513,4.513,0,0,0,25.337-8.2a2.623,2.623,0,0,0-2.192-1.079,2.594,2.594,0,0,0-2.158,1.064A4.906,4.906,0,0,0,20.166-5.166Zm9.629-.205a6.19,6.19,0,0,1,1.152-3.911,3.644,3.644,0,0,1,3.018-1.479A3.665,3.665,0,0,1,36.9-9.492V-15h1.807V0h-1.66l-.088-1.133A3.679,3.679,0,0,1,33.945.2a3.609,3.609,0,0,1-2.993-1.5,6.26,6.26,0,0,1-1.157-3.926Zm1.807.205a4.687,4.687,0,0,0,.742,2.813,2.4,2.4,0,0,0,2.051,1.016A2.636,2.636,0,0,0,36.9-2.881V-7.734a2.656,2.656,0,0,0-2.49-1.494A2.411,2.411,0,0,0,32.344-8.2,5.16,5.16,0,0,0,31.6-5.166ZM48.037,0a3.8,3.8,0,0,1-.254-1.113A4.031,4.031,0,0,1,44.775.2a3.73,3.73,0,0,1-2.563-.884,2.859,2.859,0,0,1-1-2.241,2.987,2.987,0,0,1,1.255-2.563A5.916,5.916,0,0,1,46-6.406h1.758v-.83a2.029,2.029,0,0,0-.566-1.509,2.276,2.276,0,0,0-1.67-.562,2.634,2.634,0,0,0-1.621.488,1.439,1.439,0,0,0-.654,1.182H41.426a2.493,2.493,0,0,1,.562-1.528,3.832,3.832,0,0,1,1.523-1.167,5.125,5.125,0,0,1,2.114-.43,4.177,4.177,0,0,1,2.861.913,3.294,3.294,0,0,1,1.074,2.515v4.863a5.946,5.946,0,0,0,.371,2.314V0Zm-3-1.377a3.175,3.175,0,0,0,1.611-.439,2.658,2.658,0,0,0,1.1-1.143V-5.127H46.338q-3.32,0-3.32,1.943a1.645,1.645,0,0,0,.566,1.328A2.177,2.177,0,0,0,45.039-1.377Z" transform="translate(-1669.199 -5797.938)" fill="#12263f"/>
    <path id="Trazado_125894" data-name="Trazado 125894" d="M4.072-14.219l4.648,11.6,4.648-11.6H15.8V0H13.926V-5.537l.176-5.977L9.434,0H8L3.34-11.484l.186,5.947V0H1.65V-14.219ZM23.213.2a4.617,4.617,0,0,1-3.5-1.411A5.237,5.237,0,0,1,18.369-4.99v-.332a6.341,6.341,0,0,1,.6-2.808,4.685,4.685,0,0,1,1.68-1.934,4.223,4.223,0,0,1,2.339-.7,3.957,3.957,0,0,1,3.2,1.357,5.877,5.877,0,0,1,1.143,3.887v.752H20.176a3.756,3.756,0,0,0,.913,2.524,2.87,2.87,0,0,0,2.222.962,3.147,3.147,0,0,0,1.621-.391,4.073,4.073,0,0,0,1.162-1.035l1.1.859A4.437,4.437,0,0,1,23.213.2Zm-.225-9.473a2.41,2.41,0,0,0-1.836.8,3.868,3.868,0,0,0-.918,2.231h5.293v-.137a3.441,3.441,0,0,0-.742-2.134A2.269,2.269,0,0,0,22.988-9.277Zm6,3.906a6.19,6.19,0,0,1,1.152-3.911,3.644,3.644,0,0,1,3.018-1.479,3.665,3.665,0,0,1,2.939,1.27V-15H37.9V0H36.24l-.088-1.133A3.679,3.679,0,0,1,33.135.2a3.609,3.609,0,0,1-2.993-1.5,6.26,6.26,0,0,1-1.157-3.926Zm1.807.205a4.687,4.687,0,0,0,.742,2.813,2.4,2.4,0,0,0,2.051,1.016,2.636,2.636,0,0,0,2.51-1.543V-7.734A2.656,2.656,0,0,0,33.6-9.229,2.411,2.411,0,0,0,31.533-8.2,5.16,5.16,0,0,0,30.791-5.166ZM42.666,0H40.859V-10.566h1.807ZM40.713-13.369a1.078,1.078,0,0,1,.269-.742,1.008,1.008,0,0,1,.8-.3,1.024,1.024,0,0,1,.8.3,1.067,1.067,0,0,1,.273.742,1.032,1.032,0,0,1-.273.732,1.043,1.043,0,0,1-.8.293,1.026,1.026,0,0,1-.8-.293A1.043,1.043,0,0,1,40.713-13.369ZM52.08,0a3.8,3.8,0,0,1-.254-1.113A4.031,4.031,0,0,1,48.818.2a3.73,3.73,0,0,1-2.563-.884,2.859,2.859,0,0,1-1-2.241,2.987,2.987,0,0,1,1.255-2.563,5.916,5.916,0,0,1,3.53-.913H51.8v-.83a2.029,2.029,0,0,0-.566-1.509,2.276,2.276,0,0,0-1.67-.562,2.634,2.634,0,0,0-1.621.488,1.439,1.439,0,0,0-.654,1.182H45.469a2.493,2.493,0,0,1,.562-1.528,3.832,3.832,0,0,1,1.523-1.167,5.125,5.125,0,0,1,2.114-.43,4.177,4.177,0,0,1,2.861.913A3.294,3.294,0,0,1,53.6-7.334v4.863a5.946,5.946,0,0,0,.371,2.314V0Zm-3-1.377a3.175,3.175,0,0,0,1.611-.439,2.658,2.658,0,0,0,1.1-1.143V-5.127H50.381q-3.32,0-3.32,1.943a1.645,1.645,0,0,0,.566,1.328A2.177,2.177,0,0,0,49.082-1.377Z" transform="translate(-1532.223 -5801.938)" fill="#12263f"/>
    <path id="Trazado_125893" data-name="Trazado 125893" d="M4.072-14.219l4.648,11.6,4.648-11.6H15.8V0H13.926V-5.537l.176-5.977L9.434,0H8L3.34-11.484l.186,5.947V0H1.65V-14.219ZM23.213.2a4.617,4.617,0,0,1-3.5-1.411A5.237,5.237,0,0,1,18.369-4.99v-.332a6.341,6.341,0,0,1,.6-2.808,4.685,4.685,0,0,1,1.68-1.934,4.223,4.223,0,0,1,2.339-.7,3.957,3.957,0,0,1,3.2,1.357,5.877,5.877,0,0,1,1.143,3.887v.752H20.176a3.756,3.756,0,0,0,.913,2.524,2.87,2.87,0,0,0,2.222.962,3.147,3.147,0,0,0,1.621-.391,4.073,4.073,0,0,0,1.162-1.035l1.1.859A4.437,4.437,0,0,1,23.213.2Zm-.225-9.473a2.41,2.41,0,0,0-1.836.8,3.868,3.868,0,0,0-.918,2.231h5.293v-.137a3.441,3.441,0,0,0-.742-2.134A2.269,2.269,0,0,0,22.988-9.277Zm6,3.906a6.19,6.19,0,0,1,1.152-3.911,3.644,3.644,0,0,1,3.018-1.479,3.665,3.665,0,0,1,2.939,1.27V-15H37.9V0H36.24l-.088-1.133A3.679,3.679,0,0,1,33.135.2a3.609,3.609,0,0,1-2.993-1.5,6.26,6.26,0,0,1-1.157-3.926Zm1.807.205a4.687,4.687,0,0,0,.742,2.813,2.4,2.4,0,0,0,2.051,1.016,2.636,2.636,0,0,0,2.51-1.543V-7.734A2.656,2.656,0,0,0,33.6-9.229,2.411,2.411,0,0,0,31.533-8.2,5.16,5.16,0,0,0,30.791-5.166ZM42.666,0H40.859V-10.566h1.807ZM40.713-13.369a1.078,1.078,0,0,1,.269-.742,1.008,1.008,0,0,1,.8-.3,1.024,1.024,0,0,1,.8.3,1.067,1.067,0,0,1,.273.742,1.032,1.032,0,0,1-.273.732,1.043,1.043,0,0,1-.8.293,1.026,1.026,0,0,1-.8-.293A1.043,1.043,0,0,1,40.713-13.369ZM52.08,0a3.8,3.8,0,0,1-.254-1.113A4.031,4.031,0,0,1,48.818.2a3.73,3.73,0,0,1-2.563-.884,2.859,2.859,0,0,1-1-2.241,2.987,2.987,0,0,1,1.255-2.563,5.916,5.916,0,0,1,3.53-.913H51.8v-.83a2.029,2.029,0,0,0-.566-1.509,2.276,2.276,0,0,0-1.67-.562,2.634,2.634,0,0,0-1.621.488,1.439,1.439,0,0,0-.654,1.182H45.469a2.493,2.493,0,0,1,.562-1.528,3.832,3.832,0,0,1,1.523-1.167,5.125,5.125,0,0,1,2.114-.43,4.177,4.177,0,0,1,2.861.913A3.294,3.294,0,0,1,53.6-7.334v4.863a5.946,5.946,0,0,0,.371,2.314V0Zm-3-1.377a3.175,3.175,0,0,0,1.611-.439,2.658,2.658,0,0,0,1.1-1.143V-5.127H50.381q-3.32,0-3.32,1.943a1.645,1.645,0,0,0,.566,1.328A2.177,2.177,0,0,0,49.082-1.377Zm9.063-9.189L58.2-9.238a3.851,3.851,0,0,1,3.164-1.523q3.35,0,3.379,3.779V0H62.939V-6.992a2.432,2.432,0,0,0-.522-1.689,2.094,2.094,0,0,0-1.6-.547,2.607,2.607,0,0,0-1.543.469,3.183,3.183,0,0,0-1.035,1.23V0H56.436V-10.566ZM73.994,0a3.8,3.8,0,0,1-.254-1.113A4.031,4.031,0,0,1,70.732.2a3.73,3.73,0,0,1-2.563-.884,2.859,2.859,0,0,1-1-2.241,2.987,2.987,0,0,1,1.255-2.563,5.916,5.916,0,0,1,3.53-.913h1.758v-.83a2.029,2.029,0,0,0-.566-1.509,2.276,2.276,0,0,0-1.67-.562,2.634,2.634,0,0,0-1.621.488A1.439,1.439,0,0,0,69.2-7.637H67.383a2.493,2.493,0,0,1,.562-1.528,3.832,3.832,0,0,1,1.523-1.167,5.125,5.125,0,0,1,2.114-.43,4.177,4.177,0,0,1,2.861.913,3.294,3.294,0,0,1,1.074,2.515v4.863a5.946,5.946,0,0,0,.371,2.314V0ZM71-1.377a3.175,3.175,0,0,0,1.611-.439,2.658,2.658,0,0,0,1.1-1.143V-5.127H72.295q-3.32,0-3.32,1.943a1.645,1.645,0,0,0,.566,1.328A2.177,2.177,0,0,0,71-1.377Z" transform="translate(-1602.5 -5773.938)" fill="#12263f"/>
    <path id="Trazado_125888" data-name="Trazado 125888" d="M8.367-2.637H3.744L2.865,0H.062L4.825-12.8H7.269L12.059,0h-2.8ZM4.456-4.772h3.2L6.047-9.562ZM18.237-2.628a.818.818,0,0,0-.461-.734,5.241,5.241,0,0,0-1.481-.479Q12.9-4.553,12.9-6.724a2.613,2.613,0,0,1,1.05-2.114A4.237,4.237,0,0,1,16.7-9.686a4.56,4.56,0,0,1,2.9.853,2.687,2.687,0,0,1,1.085,2.215h-2.54a1.229,1.229,0,0,0-.352-.9,1.488,1.488,0,0,0-1.1-.356,1.52,1.52,0,0,0-.993.29.916.916,0,0,0-.352.738.783.783,0,0,0,.4.681,4.114,4.114,0,0,0,1.349.448,11.019,11.019,0,0,1,1.6.426,2.628,2.628,0,0,1,2.013,2.558,2.481,2.481,0,0,1-1.116,2.1,4.815,4.815,0,0,1-2.883.8A5.029,5.029,0,0,1,14.585-.25a3.561,3.561,0,0,1-1.455-1.169,2.716,2.716,0,0,1-.527-1.6h2.408a1.326,1.326,0,0,0,.5,1.037,1.987,1.987,0,0,0,1.248.36,1.839,1.839,0,0,0,1.1-.277A.861.861,0,0,0,18.237-2.628ZM25.022,0H22.474V-9.51h2.549Zm-2.7-11.971a1.251,1.251,0,0,1,.382-.94,1.436,1.436,0,0,1,1.042-.369,1.44,1.44,0,0,1,1.037.369,1.244,1.244,0,0,1,.387.94,1.247,1.247,0,0,1-.391.949,1.443,1.443,0,0,1-1.033.369,1.443,1.443,0,0,1-1.033-.369A1.247,1.247,0,0,1,22.324-11.971ZM29.5-9.51l.079,1.063a3.342,3.342,0,0,1,2.733-1.239,2.536,2.536,0,0,1,2.522,1.45,3.265,3.265,0,0,1,2.856-1.45,2.836,2.836,0,0,1,2.3.9,4.141,4.141,0,0,1,.756,2.711V0H38.2V-6.064a1.811,1.811,0,0,0-.316-1.182,1.4,1.4,0,0,0-1.116-.374,1.585,1.585,0,0,0-1.582,1.09L35.191,0h-2.54V-6.056a1.789,1.789,0,0,0-.325-1.2,1.416,1.416,0,0,0-1.107-.369,1.646,1.646,0,0,0-1.564.9V0h-2.54V-9.51ZM47.074.176a4.668,4.668,0,0,1-3.406-1.283,4.561,4.561,0,0,1-1.314-3.419v-.246a5.745,5.745,0,0,1,.554-2.562,4.064,4.064,0,0,1,1.569-1.74,4.4,4.4,0,0,1,2.316-.611,3.947,3.947,0,0,1,3.072,1.23,5,5,0,0,1,1.121,3.489v1.037H44.93a2.36,2.36,0,0,0,.743,1.494,2.245,2.245,0,0,0,1.569.563,2.742,2.742,0,0,0,2.294-1.063l1.248,1.4A3.813,3.813,0,0,1,49.236-.277,5.075,5.075,0,0,1,47.074.176Zm-.29-7.8a1.591,1.591,0,0,0-1.226.51,2.634,2.634,0,0,0-.6,1.459h3.533v-.2a1.878,1.878,0,0,0-.457-1.305A1.642,1.642,0,0,0,46.784-7.629Zm.229-5.871h2.769l-2.435,2.725H45.281Zm8.455,1.652V-9.51h1.626v1.863H55.468V-2.9a1.133,1.133,0,0,0,.2.756,1.015,1.015,0,0,0,.773.229,4.051,4.051,0,0,0,.747-.062V-.053a5.229,5.229,0,0,1-1.538.229,2.425,2.425,0,0,1-2.725-2.7V-7.646H51.539V-9.51h1.389v-2.338Zm8.385,4.72a6.9,6.9,0,0,0-.914-.07,1.86,1.86,0,0,0-1.89.976V0h-2.54V-9.51h2.4l.07,1.134A2.354,2.354,0,0,1,63.1-9.686a2.662,2.662,0,0,1,.791.114ZM67.755,0H65.206V-9.51h2.549Zm-2.7-11.971a1.251,1.251,0,0,1,.382-.94,1.436,1.436,0,0,1,1.042-.369,1.44,1.44,0,0,1,1.037.369,1.244,1.244,0,0,1,.387.94,1.247,1.247,0,0,1-.391.949,1.443,1.443,0,0,1-1.033.369,1.443,1.443,0,0,1-1.033-.369A1.247,1.247,0,0,1,65.057-11.971ZM73.8-1.872a1.666,1.666,0,0,0,1.143-.387A1.355,1.355,0,0,0,75.4-3.287h2.382a3.258,3.258,0,0,1-.527,1.771A3.48,3.48,0,0,1,75.836-.268a4.442,4.442,0,0,1-1.991.444,4.129,4.129,0,0,1-3.217-1.3A5.13,5.13,0,0,1,69.451-4.7v-.167A5.071,5.071,0,0,1,70.62-8.376a4.08,4.08,0,0,1,3.208-1.31A4,4,0,0,1,76.689-8.67a3.594,3.594,0,0,1,1.094,2.7H75.4a1.731,1.731,0,0,0-.457-1.2,1.528,1.528,0,0,0-1.16-.461,1.531,1.531,0,0,0-1.34.646,3.739,3.739,0,0,0-.453,2.1v.264a3.786,3.786,0,0,0,.448,2.109A1.55,1.55,0,0,0,73.8-1.872ZM84.744,0a2.821,2.821,0,0,1-.255-.853A3.073,3.073,0,0,1,82.09.176a3.376,3.376,0,0,1-2.316-.809,2.6,2.6,0,0,1-.918-2.039,2.687,2.687,0,0,1,1.121-2.32,5.529,5.529,0,0,1,3.239-.817h1.169v-.545a1.567,1.567,0,0,0-.338-1.055,1.331,1.331,0,0,0-1.068-.4,1.513,1.513,0,0,0-1.006.308,1.045,1.045,0,0,0-.365.844h-2.54a2.551,2.551,0,0,1,.51-1.529,3.37,3.37,0,0,1,1.441-1.1,5.253,5.253,0,0,1,2.092-.4A4.15,4.15,0,0,1,85.9-8.8a3.09,3.09,0,0,1,1.033,2.483V-2.2a4.546,4.546,0,0,0,.378,2.048V0Zm-2.1-1.767a2.188,2.188,0,0,0,1.037-.25,1.645,1.645,0,0,0,.7-.672V-4.324h-.949q-1.907,0-2.03,1.318l-.009.149a1.017,1.017,0,0,0,.334.782A1.3,1.3,0,0,0,82.644-1.767Zm13.2-6.706a3.17,3.17,0,0,1,2.54-1.213q3.094,0,3.138,3.595V0h-2.54V-6.021a1.767,1.767,0,0,0-.352-1.208,1.507,1.507,0,0,0-1.169-.391,1.729,1.729,0,0,0-1.617.861V0H93.3V-13.5h2.54ZM108.949,0a2.821,2.821,0,0,1-.255-.853,3.073,3.073,0,0,1-2.4,1.028,3.376,3.376,0,0,1-2.316-.809,2.6,2.6,0,0,1-.918-2.039,2.687,2.687,0,0,1,1.121-2.32,5.529,5.529,0,0,1,3.239-.817h1.169v-.545a1.567,1.567,0,0,0-.338-1.055,1.331,1.331,0,0,0-1.068-.4,1.513,1.513,0,0,0-1.006.308,1.045,1.045,0,0,0-.365.844h-2.54a2.551,2.551,0,0,1,.51-1.529,3.37,3.37,0,0,1,1.441-1.1,5.253,5.253,0,0,1,2.092-.4A4.15,4.15,0,0,1,110.1-8.8a3.09,3.09,0,0,1,1.033,2.483V-2.2a4.546,4.546,0,0,0,.378,2.048V0Zm-2.1-1.767a2.188,2.188,0,0,0,1.037-.25,1.645,1.645,0,0,0,.7-.672V-4.324h-.949q-1.907,0-2.03,1.318l-.009.149a1.017,1.017,0,0,0,.334.782A1.3,1.3,0,0,0,106.849-1.767Zm10.2-.105a1.666,1.666,0,0,0,1.143-.387,1.355,1.355,0,0,0,.457-1.028h2.382a3.258,3.258,0,0,1-.527,1.771,3.48,3.48,0,0,1-1.419,1.248,4.442,4.442,0,0,1-1.991.444,4.129,4.129,0,0,1-3.217-1.3A5.13,5.13,0,0,1,112.693-4.7v-.167a5.071,5.071,0,0,1,1.169-3.507,4.08,4.08,0,0,1,3.208-1.31,4,4,0,0,1,2.861,1.015,3.594,3.594,0,0,1,1.094,2.7h-2.382a1.731,1.731,0,0,0-.457-1.2,1.528,1.528,0,0,0-1.16-.461,1.531,1.531,0,0,0-1.34.646,3.739,3.739,0,0,0-.453,2.1v.264a3.786,3.786,0,0,0,.448,2.109A1.55,1.55,0,0,0,117.044-1.872ZM125.156,0h-2.549V-9.51h2.549Zm-2.7-11.971a1.251,1.251,0,0,1,.382-.94,1.436,1.436,0,0,1,1.042-.369,1.44,1.44,0,0,1,1.037.369,1.244,1.244,0,0,1,.387.94,1.247,1.247,0,0,1-.391.949,1.443,1.443,0,0,1-1.033.369,1.443,1.443,0,0,1-1.033-.369A1.247,1.247,0,0,1,122.458-11.971ZM132.759,0a2.821,2.821,0,0,1-.255-.853A3.073,3.073,0,0,1,130.1.176a3.376,3.376,0,0,1-2.316-.809,2.6,2.6,0,0,1-.918-2.039,2.687,2.687,0,0,1,1.121-2.32,5.529,5.529,0,0,1,3.239-.817H132.4v-.545a1.567,1.567,0,0,0-.338-1.055,1.331,1.331,0,0,0-1.068-.4,1.513,1.513,0,0,0-1.006.308,1.045,1.045,0,0,0-.365.844h-2.54a2.551,2.551,0,0,1,.51-1.529,3.37,3.37,0,0,1,1.441-1.1,5.253,5.253,0,0,1,2.092-.4,4.15,4.15,0,0,1,2.791.883,3.09,3.09,0,0,1,1.033,2.483V-2.2a4.546,4.546,0,0,0,.378,2.048V0Zm-2.1-1.767a2.188,2.188,0,0,0,1.037-.25,1.645,1.645,0,0,0,.7-.672V-4.324h-.949q-1.907,0-2.03,1.318l-.009.149a1.017,1.017,0,0,0,.334.782A1.3,1.3,0,0,0,130.658-1.767ZM3.779,24.882h5.6V27H1.143V14.2H3.779ZM16.233,27a2.821,2.821,0,0,1-.255-.853,3.073,3.073,0,0,1-2.4,1.028,3.376,3.376,0,0,1-2.316-.809,2.6,2.6,0,0,1-.918-2.039,2.687,2.687,0,0,1,1.121-2.32A5.529,5.529,0,0,1,14.7,21.19h1.169v-.545a1.567,1.567,0,0,0-.338-1.055,1.331,1.331,0,0,0-1.068-.4,1.513,1.513,0,0,0-1.006.308,1.045,1.045,0,0,0-.365.844h-2.54a2.551,2.551,0,0,1,.51-1.529,3.37,3.37,0,0,1,1.441-1.1,5.253,5.253,0,0,1,2.092-.4,4.15,4.15,0,0,1,2.791.883,3.09,3.09,0,0,1,1.033,2.483V24.8a4.546,4.546,0,0,0,.378,2.048V27Zm-2.1-1.767a2.188,2.188,0,0,0,1.037-.25,1.645,1.645,0,0,0,.7-.672V22.676h-.949q-1.907,0-2.03,1.318l-.009.149a1.017,1.017,0,0,0,.334.782A1.3,1.3,0,0,0,14.133,25.233ZM27.536,27H24.987V17.49h2.549Zm-2.7-11.971a1.251,1.251,0,0,1,.382-.94,1.648,1.648,0,0,1,2.079,0,1.342,1.342,0,0,1,0,1.89,1.629,1.629,0,0,1-2.065,0A1.247,1.247,0,0,1,24.838,15.029Zm7.708,9.923H37.2V27H29.3V25.453l4.474-5.906H29.435V17.49h7.62v1.5Zm5.7-2.795a5.684,5.684,0,0,1,1-3.542,3.261,3.261,0,0,1,2.738-1.3,2.92,2.92,0,0,1,2.435,1.169l.167-.993h2.232V30.656H44.271V26.183a2.928,2.928,0,0,1-2.3.993,3.237,3.237,0,0,1-2.707-1.318A5.963,5.963,0,0,1,38.25,22.157Zm2.54.185a3.719,3.719,0,0,0,.479,2.074,1.534,1.534,0,0,0,1.349.712,1.709,1.709,0,0,0,1.652-.932V20.268a1.7,1.7,0,0,0-1.635-.9,1.553,1.553,0,0,0-1.362.712A4.107,4.107,0,0,0,40.79,22.342Zm13.72,3.691a3.185,3.185,0,0,1-2.6,1.143,3,3,0,0,1-2.333-.879,3.752,3.752,0,0,1-.822-2.575V17.49h2.54v6.144q0,1.485,1.354,1.485a1.835,1.835,0,0,0,1.775-.9V17.49h2.549V27H54.58ZM61.567,27H59.019V17.49h2.549Zm-2.7-11.971a1.251,1.251,0,0,1,.382-.94,1.648,1.648,0,0,1,2.079,0,1.342,1.342,0,0,1,0,1.89,1.629,1.629,0,0,1-2.065,0A1.247,1.247,0,0,1,58.869,15.029Zm9.167,12.146a4.668,4.668,0,0,1-3.406-1.283,4.561,4.561,0,0,1-1.314-3.419v-.246a5.745,5.745,0,0,1,.554-2.562,4.064,4.064,0,0,1,1.569-1.74,4.4,4.4,0,0,1,2.316-.611,3.947,3.947,0,0,1,3.072,1.23,5,5,0,0,1,1.121,3.489v1.037H65.892a2.36,2.36,0,0,0,.743,1.494,2.245,2.245,0,0,0,1.569.563A2.742,2.742,0,0,0,70.5,24.064l1.248,1.4A3.813,3.813,0,0,1,70.2,26.723,5.075,5.075,0,0,1,68.036,27.176Zm-.29-7.8a1.591,1.591,0,0,0-1.226.51,2.634,2.634,0,0,0-.6,1.459h3.533v-.2a1.878,1.878,0,0,0-.457-1.305A1.642,1.642,0,0,0,67.746,19.371Zm10.986.5a6.9,6.9,0,0,0-.914-.07,1.86,1.86,0,0,0-1.89.976V27h-2.54V17.49h2.4l.07,1.134a2.354,2.354,0,0,1,2.118-1.31,2.662,2.662,0,0,1,.791.114Zm.659,2.3a5.731,5.731,0,0,1,1-3.542,3.237,3.237,0,0,1,2.729-1.318,2.913,2.913,0,0,1,2.294,1.037V13.5h2.549V27H85.667l-.123-1.011A2.989,2.989,0,0,1,83.1,27.176a3.228,3.228,0,0,1-2.694-1.323A5.916,5.916,0,0,1,79.392,22.175Zm2.54.185a3.744,3.744,0,0,0,.466,2.048,1.518,1.518,0,0,0,1.354.712,1.7,1.7,0,0,0,1.661-.993V20.373a1.676,1.676,0,0,0-1.644-.993Q81.932,19.38,81.932,22.359ZM95.44,27a2.821,2.821,0,0,1-.255-.853,3.073,3.073,0,0,1-2.4,1.028,3.376,3.376,0,0,1-2.316-.809,2.6,2.6,0,0,1-.918-2.039,2.687,2.687,0,0,1,1.121-2.32,5.529,5.529,0,0,1,3.239-.817H95.08v-.545a1.567,1.567,0,0,0-.338-1.055,1.331,1.331,0,0,0-1.068-.4,1.513,1.513,0,0,0-1.006.308,1.045,1.045,0,0,0-.365.844h-2.54a2.551,2.551,0,0,1,.51-1.529,3.37,3.37,0,0,1,1.441-1.1,5.253,5.253,0,0,1,2.092-.4A4.15,4.15,0,0,1,96.6,18.2a3.09,3.09,0,0,1,1.033,2.483V24.8a4.546,4.546,0,0,0,.378,2.048V27Zm-2.1-1.767a2.188,2.188,0,0,0,1.037-.25,1.645,1.645,0,0,0,.7-.672V22.676h-.949q-1.907,0-2.03,1.318l-.009.149a1.017,1.017,0,0,0,.334.782A1.3,1.3,0,0,0,93.34,25.233Z" transform="translate(-2017.126 -5696.875)" fill="#0d66bf"/>
    <path id="Trazado_125889" data-name="Trazado 125889" d="M7.778-3.357A1.353,1.353,0,0,0,7.251-4.5a6.917,6.917,0,0,0-1.9-.844,13.458,13.458,0,0,1-2.171-.875A3.547,3.547,0,0,1,1-9.4a3.09,3.09,0,0,1,.584-1.85,3.812,3.812,0,0,1,1.679-1.27,6.318,6.318,0,0,1,2.457-.457,5.751,5.751,0,0,1,2.443.5,3.891,3.891,0,0,1,1.666,1.4,3.668,3.668,0,0,1,.593,2.057H7.787a1.726,1.726,0,0,0-.554-1.367,2.276,2.276,0,0,0-1.556-.488,2.432,2.432,0,0,0-1.5.409,1.289,1.289,0,0,0-.536,1.077,1.235,1.235,0,0,0,.628,1.046,7.1,7.1,0,0,0,1.85.791A7.994,7.994,0,0,1,9.4-5.871a3.343,3.343,0,0,1,1.028,2.5A3.08,3.08,0,0,1,9.167-.769,5.5,5.5,0,0,1,5.783.176,6.534,6.534,0,0,1,3.094-.365a4.256,4.256,0,0,1-1.85-1.481,3.793,3.793,0,0,1-.637-2.18H3.252q0,2.118,2.531,2.118A2.462,2.462,0,0,0,7.251-2.29,1.244,1.244,0,0,0,7.778-3.357ZM14.722,0H12.173V-9.51h2.549Zm-2.7-11.971a1.251,1.251,0,0,1,.382-.94,1.436,1.436,0,0,1,1.042-.369,1.44,1.44,0,0,1,1.037.369,1.244,1.244,0,0,1,.387.94,1.247,1.247,0,0,1-.391.949,1.443,1.443,0,0,1-1.033.369,1.443,1.443,0,0,1-1.033-.369A1.247,1.247,0,0,1,12.023-11.971ZM19.2-9.51l.079,1.063a3.342,3.342,0,0,1,2.733-1.239,2.536,2.536,0,0,1,2.522,1.45,3.265,3.265,0,0,1,2.856-1.45,2.836,2.836,0,0,1,2.3.9,4.141,4.141,0,0,1,.756,2.711V0H27.9V-6.064a1.811,1.811,0,0,0-.316-1.182,1.4,1.4,0,0,0-1.116-.374,1.585,1.585,0,0,0-1.582,1.09L24.891,0h-2.54V-6.056a1.789,1.789,0,0,0-.325-1.2,1.416,1.416,0,0,0-1.107-.369,1.646,1.646,0,0,0-1.564.9V0h-2.54V-9.51ZM36.773.176a4.668,4.668,0,0,1-3.406-1.283,4.561,4.561,0,0,1-1.314-3.419v-.246a5.745,5.745,0,0,1,.554-2.562,4.064,4.064,0,0,1,1.569-1.74,4.4,4.4,0,0,1,2.316-.611,3.947,3.947,0,0,1,3.072,1.23,5,5,0,0,1,1.121,3.489v1.037H34.629a2.36,2.36,0,0,0,.743,1.494,2.245,2.245,0,0,0,1.569.563,2.742,2.742,0,0,0,2.294-1.063l1.248,1.4A3.813,3.813,0,0,1,38.936-.277,5.075,5.075,0,0,1,36.773.176Zm-.29-7.8a1.591,1.591,0,0,0-1.226.51,2.634,2.634,0,0,0-.6,1.459h3.533v-.2a1.878,1.878,0,0,0-.457-1.305A1.642,1.642,0,0,0,36.483-7.629Zm.229-5.871H39.48l-2.435,2.725H34.98Zm8.455,1.652V-9.51h1.626v1.863H45.167V-2.9a1.133,1.133,0,0,0,.2.756,1.015,1.015,0,0,0,.773.229,4.051,4.051,0,0,0,.747-.062V-.053a5.229,5.229,0,0,1-1.538.229,2.425,2.425,0,0,1-2.725-2.7V-7.646H41.238V-9.51h1.389v-2.338Zm8.385,4.72a6.9,6.9,0,0,0-.914-.07,1.86,1.86,0,0,0-1.89.976V0h-2.54V-9.51h2.4l.07,1.134A2.354,2.354,0,0,1,52.8-9.686a2.662,2.662,0,0,1,.791.114ZM57.454,0H54.905V-9.51h2.549Zm-2.7-11.971a1.251,1.251,0,0,1,.382-.94,1.436,1.436,0,0,1,1.042-.369,1.44,1.44,0,0,1,1.037.369,1.244,1.244,0,0,1,.387.94,1.247,1.247,0,0,1-.391.949,1.443,1.443,0,0,1-1.033.369,1.443,1.443,0,0,1-1.033-.369A1.247,1.247,0,0,1,54.756-11.971ZM63.5-1.872a1.666,1.666,0,0,0,1.143-.387A1.355,1.355,0,0,0,65.1-3.287h2.382a3.258,3.258,0,0,1-.527,1.771A3.48,3.48,0,0,1,65.536-.268a4.442,4.442,0,0,1-1.991.444,4.129,4.129,0,0,1-3.217-1.3A5.13,5.13,0,0,1,59.15-4.7v-.167a5.071,5.071,0,0,1,1.169-3.507,4.08,4.08,0,0,1,3.208-1.31A4,4,0,0,1,66.388-8.67a3.594,3.594,0,0,1,1.094,2.7H65.1a1.731,1.731,0,0,0-.457-1.2,1.528,1.528,0,0,0-1.16-.461,1.531,1.531,0,0,0-1.34.646,3.739,3.739,0,0,0-.453,2.1v.264a3.786,3.786,0,0,0,.448,2.109A1.55,1.55,0,0,0,63.5-1.872ZM74.443,0a2.821,2.821,0,0,1-.255-.853,3.073,3.073,0,0,1-2.4,1.028,3.376,3.376,0,0,1-2.316-.809,2.6,2.6,0,0,1-.918-2.039,2.687,2.687,0,0,1,1.121-2.32,5.529,5.529,0,0,1,3.239-.817h1.169v-.545a1.567,1.567,0,0,0-.338-1.055,1.331,1.331,0,0,0-1.068-.4A1.513,1.513,0,0,0,71.67-7.5a1.045,1.045,0,0,0-.365.844h-2.54a2.551,2.551,0,0,1,.51-1.529,3.37,3.37,0,0,1,1.441-1.1,5.253,5.253,0,0,1,2.092-.4A4.15,4.15,0,0,1,75.6-8.8a3.09,3.09,0,0,1,1.033,2.483V-2.2A4.546,4.546,0,0,0,77.01-.149V0Zm-2.1-1.767a2.188,2.188,0,0,0,1.037-.25,1.645,1.645,0,0,0,.7-.672V-4.324h-.949q-1.907,0-2.03,1.318l-.009.149a1.017,1.017,0,0,0,.334.782A1.3,1.3,0,0,0,72.343-1.767Z" transform="translate(-1798.5 -5694.938)" fill="#0d66bf"/>
    <path id="Trazado_125892" data-name="Trazado 125892" d="M8.367-2.637H3.744L2.865,0H.062L4.825-12.8H7.269L12.059,0h-2.8ZM4.456-4.772h3.2L6.047-9.562ZM18.237-2.628a.818.818,0,0,0-.461-.734,5.241,5.241,0,0,0-1.481-.479Q12.9-4.553,12.9-6.724a2.613,2.613,0,0,1,1.05-2.114A4.237,4.237,0,0,1,16.7-9.686a4.56,4.56,0,0,1,2.9.853,2.687,2.687,0,0,1,1.085,2.215h-2.54a1.229,1.229,0,0,0-.352-.9,1.488,1.488,0,0,0-1.1-.356,1.52,1.52,0,0,0-.993.29.916.916,0,0,0-.352.738.783.783,0,0,0,.4.681,4.114,4.114,0,0,0,1.349.448,11.019,11.019,0,0,1,1.6.426,2.628,2.628,0,0,1,2.013,2.558,2.481,2.481,0,0,1-1.116,2.1,4.815,4.815,0,0,1-2.883.8A5.029,5.029,0,0,1,14.585-.25a3.561,3.561,0,0,1-1.455-1.169,2.716,2.716,0,0,1-.527-1.6h2.408a1.326,1.326,0,0,0,.5,1.037,1.987,1.987,0,0,0,1.248.36,1.839,1.839,0,0,0,1.1-.277A.861.861,0,0,0,18.237-2.628ZM25.022,0H22.474V-9.51h2.549Zm-2.7-11.971a1.251,1.251,0,0,1,.382-.94,1.436,1.436,0,0,1,1.042-.369,1.44,1.44,0,0,1,1.037.369,1.244,1.244,0,0,1,.387.94,1.247,1.247,0,0,1-.391.949,1.443,1.443,0,0,1-1.033.369,1.443,1.443,0,0,1-1.033-.369A1.247,1.247,0,0,1,22.324-11.971ZM29.5-9.51l.079,1.063a3.342,3.342,0,0,1,2.733-1.239,2.536,2.536,0,0,1,2.522,1.45,3.265,3.265,0,0,1,2.856-1.45,2.836,2.836,0,0,1,2.3.9,4.141,4.141,0,0,1,.756,2.711V0H38.2V-6.064a1.811,1.811,0,0,0-.316-1.182,1.4,1.4,0,0,0-1.116-.374,1.585,1.585,0,0,0-1.582,1.09L35.191,0h-2.54V-6.056a1.789,1.789,0,0,0-.325-1.2,1.416,1.416,0,0,0-1.107-.369,1.646,1.646,0,0,0-1.564.9V0h-2.54V-9.51ZM47.074.176a4.668,4.668,0,0,1-3.406-1.283,4.561,4.561,0,0,1-1.314-3.419v-.246a5.745,5.745,0,0,1,.554-2.562,4.064,4.064,0,0,1,1.569-1.74,4.4,4.4,0,0,1,2.316-.611,3.947,3.947,0,0,1,3.072,1.23,5,5,0,0,1,1.121,3.489v1.037H44.93a2.36,2.36,0,0,0,.743,1.494,2.245,2.245,0,0,0,1.569.563,2.742,2.742,0,0,0,2.294-1.063l1.248,1.4A3.813,3.813,0,0,1,49.236-.277,5.075,5.075,0,0,1,47.074.176Zm-.29-7.8a1.591,1.591,0,0,0-1.226.51,2.634,2.634,0,0,0-.6,1.459h3.533v-.2a1.878,1.878,0,0,0-.457-1.305A1.642,1.642,0,0,0,46.784-7.629Zm.229-5.871h2.769l-2.435,2.725H45.281Zm8.455,1.652V-9.51h1.626v1.863H55.468V-2.9a1.133,1.133,0,0,0,.2.756,1.015,1.015,0,0,0,.773.229,4.051,4.051,0,0,0,.747-.062V-.053a5.229,5.229,0,0,1-1.538.229,2.425,2.425,0,0,1-2.725-2.7V-7.646H51.539V-9.51h1.389v-2.338Zm8.385,4.72a6.9,6.9,0,0,0-.914-.07,1.86,1.86,0,0,0-1.89.976V0h-2.54V-9.51h2.4l.07,1.134A2.354,2.354,0,0,1,63.1-9.686a2.662,2.662,0,0,1,.791.114ZM67.755,0H65.206V-9.51h2.549Zm-2.7-11.971a1.251,1.251,0,0,1,.382-.94,1.436,1.436,0,0,1,1.042-.369,1.44,1.44,0,0,1,1.037.369,1.244,1.244,0,0,1,.387.94,1.247,1.247,0,0,1-.391.949,1.443,1.443,0,0,1-1.033.369,1.443,1.443,0,0,1-1.033-.369A1.247,1.247,0,0,1,65.057-11.971ZM73.8-1.872a1.666,1.666,0,0,0,1.143-.387A1.355,1.355,0,0,0,75.4-3.287h2.382a3.258,3.258,0,0,1-.527,1.771A3.48,3.48,0,0,1,75.836-.268a4.442,4.442,0,0,1-1.991.444,4.129,4.129,0,0,1-3.217-1.3A5.13,5.13,0,0,1,69.451-4.7v-.167A5.071,5.071,0,0,1,70.62-8.376a4.08,4.08,0,0,1,3.208-1.31A4,4,0,0,1,76.689-8.67a3.594,3.594,0,0,1,1.094,2.7H75.4a1.731,1.731,0,0,0-.457-1.2,1.528,1.528,0,0,0-1.16-.461,1.531,1.531,0,0,0-1.34.646,3.739,3.739,0,0,0-.453,2.1v.264a3.786,3.786,0,0,0,.448,2.109A1.55,1.55,0,0,0,73.8-1.872ZM84.744,0a2.821,2.821,0,0,1-.255-.853A3.073,3.073,0,0,1,82.09.176a3.376,3.376,0,0,1-2.316-.809,2.6,2.6,0,0,1-.918-2.039,2.687,2.687,0,0,1,1.121-2.32,5.529,5.529,0,0,1,3.239-.817h1.169v-.545a1.567,1.567,0,0,0-.338-1.055,1.331,1.331,0,0,0-1.068-.4,1.513,1.513,0,0,0-1.006.308,1.045,1.045,0,0,0-.365.844h-2.54a2.551,2.551,0,0,1,.51-1.529,3.37,3.37,0,0,1,1.441-1.1,5.253,5.253,0,0,1,2.092-.4A4.15,4.15,0,0,1,85.9-8.8a3.09,3.09,0,0,1,1.033,2.483V-2.2a4.546,4.546,0,0,0,.378,2.048V0Zm-2.1-1.767a2.188,2.188,0,0,0,1.037-.25,1.645,1.645,0,0,0,.7-.672V-4.324h-.949q-1.907,0-2.03,1.318l-.009.149a1.017,1.017,0,0,0,.334.782A1.3,1.3,0,0,0,82.644-1.767Zm13.2-6.706a3.17,3.17,0,0,1,2.54-1.213q3.094,0,3.138,3.595V0h-2.54V-6.021a1.767,1.767,0,0,0-.352-1.208,1.507,1.507,0,0,0-1.169-.391,1.729,1.729,0,0,0-1.617.861V0H93.3V-13.5h2.54ZM108.949,0a2.821,2.821,0,0,1-.255-.853,3.073,3.073,0,0,1-2.4,1.028,3.376,3.376,0,0,1-2.316-.809,2.6,2.6,0,0,1-.918-2.039,2.687,2.687,0,0,1,1.121-2.32,5.529,5.529,0,0,1,3.239-.817h1.169v-.545a1.567,1.567,0,0,0-.338-1.055,1.331,1.331,0,0,0-1.068-.4,1.513,1.513,0,0,0-1.006.308,1.045,1.045,0,0,0-.365.844h-2.54a2.551,2.551,0,0,1,.51-1.529,3.37,3.37,0,0,1,1.441-1.1,5.253,5.253,0,0,1,2.092-.4A4.15,4.15,0,0,1,110.1-8.8a3.09,3.09,0,0,1,1.033,2.483V-2.2a4.546,4.546,0,0,0,.378,2.048V0Zm-2.1-1.767a2.188,2.188,0,0,0,1.037-.25,1.645,1.645,0,0,0,.7-.672V-4.324h-.949q-1.907,0-2.03,1.318l-.009.149a1.017,1.017,0,0,0,.334.782A1.3,1.3,0,0,0,106.849-1.767Zm10.2-.105a1.666,1.666,0,0,0,1.143-.387,1.355,1.355,0,0,0,.457-1.028h2.382a3.258,3.258,0,0,1-.527,1.771,3.48,3.48,0,0,1-1.419,1.248,4.442,4.442,0,0,1-1.991.444,4.129,4.129,0,0,1-3.217-1.3A5.13,5.13,0,0,1,112.693-4.7v-.167a5.071,5.071,0,0,1,1.169-3.507,4.08,4.08,0,0,1,3.208-1.31,4,4,0,0,1,2.861,1.015,3.594,3.594,0,0,1,1.094,2.7h-2.382a1.731,1.731,0,0,0-.457-1.2,1.528,1.528,0,0,0-1.16-.461,1.531,1.531,0,0,0-1.34.646,3.739,3.739,0,0,0-.453,2.1v.264a3.786,3.786,0,0,0,.448,2.109A1.55,1.55,0,0,0,117.044-1.872ZM125.156,0h-2.549V-9.51h2.549Zm-2.7-11.971a1.251,1.251,0,0,1,.382-.94,1.436,1.436,0,0,1,1.042-.369,1.44,1.44,0,0,1,1.037.369,1.244,1.244,0,0,1,.387.94,1.247,1.247,0,0,1-.391.949,1.443,1.443,0,0,1-1.033.369,1.443,1.443,0,0,1-1.033-.369A1.247,1.247,0,0,1,122.458-11.971ZM132.759,0a2.821,2.821,0,0,1-.255-.853A3.073,3.073,0,0,1,130.1.176a3.376,3.376,0,0,1-2.316-.809,2.6,2.6,0,0,1-.918-2.039,2.687,2.687,0,0,1,1.121-2.32,5.529,5.529,0,0,1,3.239-.817H132.4v-.545a1.567,1.567,0,0,0-.338-1.055,1.331,1.331,0,0,0-1.068-.4,1.513,1.513,0,0,0-1.006.308,1.045,1.045,0,0,0-.365.844h-2.54a2.551,2.551,0,0,1,.51-1.529,3.37,3.37,0,0,1,1.441-1.1,5.253,5.253,0,0,1,2.092-.4,4.15,4.15,0,0,1,2.791.883,3.09,3.09,0,0,1,1.033,2.483V-2.2a4.546,4.546,0,0,0,.378,2.048V0Zm-2.1-1.767a2.188,2.188,0,0,0,1.037-.25,1.645,1.645,0,0,0,.7-.672V-4.324h-.949q-1.907,0-2.03,1.318l-.009.149a1.017,1.017,0,0,0,.334.782A1.3,1.3,0,0,0,130.658-1.767ZM3.656,27H1.107V13.5H3.656Zm7.6,0A2.821,2.821,0,0,1,11,26.147a3.073,3.073,0,0,1-2.4,1.028,3.376,3.376,0,0,1-2.316-.809,2.6,2.6,0,0,1-.918-2.039,2.687,2.687,0,0,1,1.121-2.32,5.529,5.529,0,0,1,3.239-.817H10.9v-.545a1.567,1.567,0,0,0-.338-1.055,1.331,1.331,0,0,0-1.068-.4,1.513,1.513,0,0,0-1.006.308,1.045,1.045,0,0,0-.365.844H5.581a2.551,2.551,0,0,1,.51-1.529,3.37,3.37,0,0,1,1.441-1.1,5.253,5.253,0,0,1,2.092-.4,4.15,4.15,0,0,1,2.791.883,3.09,3.09,0,0,1,1.033,2.483V24.8a4.546,4.546,0,0,0,.378,2.048V27Zm-2.1-1.767a2.188,2.188,0,0,0,1.037-.25,1.645,1.645,0,0,0,.7-.672V22.676H9.949q-1.907,0-2.03,1.318l-.009.149a1.017,1.017,0,0,0,.334.782A1.3,1.3,0,0,0,9.158,25.233Zm14.81-3.059a5.731,5.731,0,0,1,1-3.542,3.237,3.237,0,0,1,2.729-1.318,2.913,2.913,0,0,1,2.294,1.037V13.5h2.549V27H30.243l-.123-1.011a2.989,2.989,0,0,1-2.443,1.187,3.228,3.228,0,0,1-2.694-1.323A5.916,5.916,0,0,1,23.968,22.175Zm2.54.185a3.744,3.744,0,0,0,.466,2.048,1.518,1.518,0,0,0,1.354.712,1.7,1.7,0,0,0,1.661-.993V20.373a1.676,1.676,0,0,0-1.644-.993Q26.508,19.38,26.508,22.359Zm12.375,4.816a4.668,4.668,0,0,1-3.406-1.283,4.561,4.561,0,0,1-1.314-3.419v-.246a5.745,5.745,0,0,1,.554-2.562,4.064,4.064,0,0,1,1.569-1.74,4.4,4.4,0,0,1,2.316-.611,3.947,3.947,0,0,1,3.072,1.23,5,5,0,0,1,1.121,3.489v1.037H36.738a2.36,2.36,0,0,0,.743,1.494,2.245,2.245,0,0,0,1.569.563,2.742,2.742,0,0,0,2.294-1.063l1.248,1.4a3.813,3.813,0,0,1-1.547,1.261A5.075,5.075,0,0,1,38.883,27.176Zm-.29-7.8a1.591,1.591,0,0,0-1.226.51,2.634,2.634,0,0,0-.6,1.459H40.3v-.2a1.878,1.878,0,0,0-.457-1.305A1.642,1.642,0,0,0,38.593,19.371Zm10.986.5a6.9,6.9,0,0,0-.914-.07,1.86,1.86,0,0,0-1.89.976V27h-2.54V17.49h2.4l.07,1.134a2.354,2.354,0,0,1,2.118-1.31,2.662,2.662,0,0,1,.791.114Zm5.432,7.3A4.668,4.668,0,0,1,51.6,25.893a4.561,4.561,0,0,1-1.314-3.419v-.246a5.745,5.745,0,0,1,.554-2.562,4.064,4.064,0,0,1,1.569-1.74,4.4,4.4,0,0,1,2.316-.611,3.947,3.947,0,0,1,3.072,1.23,5,5,0,0,1,1.121,3.489v1.037H52.866a2.36,2.36,0,0,0,.743,1.494,2.245,2.245,0,0,0,1.569.563,2.742,2.742,0,0,0,2.294-1.063l1.248,1.4a3.813,3.813,0,0,1-1.547,1.261A5.075,5.075,0,0,1,55.011,27.176Zm-.29-7.8a1.591,1.591,0,0,0-1.226.51,2.634,2.634,0,0,0-.6,1.459h3.533v-.2a1.878,1.878,0,0,0-.457-1.305A1.642,1.642,0,0,0,54.721,19.371Zm9.6,5.757a1.666,1.666,0,0,0,1.143-.387,1.355,1.355,0,0,0,.457-1.028H68.3a3.258,3.258,0,0,1-.527,1.771,3.48,3.48,0,0,1-1.419,1.248,4.442,4.442,0,0,1-1.991.444,4.129,4.129,0,0,1-3.217-1.3A5.13,5.13,0,0,1,59.968,22.3v-.167a5.071,5.071,0,0,1,1.169-3.507,4.08,4.08,0,0,1,3.208-1.31,4,4,0,0,1,2.861,1.015,3.594,3.594,0,0,1,1.094,2.7H65.918a1.731,1.731,0,0,0-.457-1.2,1.7,1.7,0,0,0-2.5.185,3.739,3.739,0,0,0-.453,2.1v.264a3.786,3.786,0,0,0,.448,2.109A1.55,1.55,0,0,0,64.318,25.128Zm7.91-6.6a3.17,3.17,0,0,1,2.54-1.213q3.094,0,3.138,3.595V27h-2.54V20.979a1.767,1.767,0,0,0-.352-1.208,1.507,1.507,0,0,0-1.169-.391,1.729,1.729,0,0,0-1.617.861V27h-2.54V13.5h2.54ZM85.333,27a2.821,2.821,0,0,1-.255-.853,3.073,3.073,0,0,1-2.4,1.028,3.376,3.376,0,0,1-2.316-.809,2.6,2.6,0,0,1-.918-2.039,2.687,2.687,0,0,1,1.121-2.32A5.529,5.529,0,0,1,83.8,21.19h1.169v-.545a1.567,1.567,0,0,0-.338-1.055,1.331,1.331,0,0,0-1.068-.4,1.513,1.513,0,0,0-1.006.308,1.045,1.045,0,0,0-.365.844h-2.54a2.551,2.551,0,0,1,.51-1.529,3.37,3.37,0,0,1,1.441-1.1,5.253,5.253,0,0,1,2.092-.4,4.15,4.15,0,0,1,2.791.883,3.09,3.09,0,0,1,1.033,2.483V24.8a4.546,4.546,0,0,0,.378,2.048V27Zm-2.1-1.767a2.188,2.188,0,0,0,1.037-.25,1.645,1.645,0,0,0,.7-.672V22.676h-.949q-1.907,0-2.03,1.318l-.009.149a1.017,1.017,0,0,0,.334.782A1.3,1.3,0,0,0,83.232,25.233Z" transform="translate(-1637.874 -5693.5)" fill="#0d66bf"/>
    <g id="Grupo_84087" data-name="Grupo 84087" transform="translate(-1524 1502)">
      <path id="Trazado_125159" data-name="Trazado 125159" d="M-429.619-7332.141l-13.917,13.544" fill="none" stroke="#a3a3a3" stroke-width="1"/>
      <path id="Polígono_12" data-name="Polígono 12" d="M3.5,0,7,6H0Z" transform="translate(-443.183 -7314) rotate(-135)" fill="#b4b4b4"/>
    </g>
    <g id="Grupo_84086" data-name="Grupo 84086" transform="translate(-1524 1502)">
      <path id="Trazado_125160" data-name="Trazado 125160" d="M-399.723-7334.191v33.952" fill="none" stroke="#a3a3a3" stroke-width="1"/>
      <path id="Polígono_13" data-name="Polígono 13" d="M3.5,0,7,6H0Z" transform="translate(-396.223 -7297.24) rotate(180)" fill="#b4b4b4"/>
    </g>
    <g id="Grupo_84085" data-name="Grupo 84085" transform="translate(-1524 1502)">
      <path id="Trazado_125161" data-name="Trazado 125161" d="M-373.723-7337l10.432,11.744" fill="none" stroke="#a3a3a3" stroke-width="1"/>
      <path id="Polígono_14" data-name="Polígono 14" d="M3.5,0,7,6H0Z" transform="translate(-357.126 -7324.61) rotate(135)" fill="#b4b4b4"/>
    </g>
    <g id="Grupo_84088" data-name="Grupo 84088" transform="translate(-8949.755 -5459.811) rotate(90)">
      <path id="Trazado_125161-2" data-name="Trazado 125161" d="M-373.723-7337l10.432,11.744" fill="none" stroke="#a3a3a3" stroke-width="1"/>
      <path id="Polígono_14-2" data-name="Polígono 14" d="M3.5,0,7,6H0Z" transform="translate(-357.126 -7324.61) rotate(135)" fill="#b4b4b4"/>
    </g>
    <g id="Grupo_84089" data-name="Grupo 84089" transform="translate(-1185 1502)">
      <path id="Trazado_125160-2" data-name="Trazado 125160" d="M-399.723-7334.191v33.952" fill="none" stroke="#a3a3a3" stroke-width="1"/>
      <path id="Polígono_13-2" data-name="Polígono 13" d="M3.5,0,7,6H0Z" transform="translate(-396.223 -7297.24) rotate(180)" fill="#b4b4b4"/>
    </g>
    <g id="Grupo_84090" data-name="Grupo 84090" transform="translate(-1182.968 1502)">
      <path id="Trazado_125161-3" data-name="Trazado 125161" d="M-373.723-7337l10.432,11.744" fill="none" stroke="#a3a3a3" stroke-width="1"/>
      <path id="Polígono_14-3" data-name="Polígono 14" d="M3.5,0,7,6H0Z" transform="translate(-357.126 -7324.61) rotate(135)" fill="#b4b4b4"/>
    </g>
  </g>
</svg>
