<svg xmlns="http://www.w3.org/2000/svg" width="686.526" height="415.973" viewBox="0 0 686.526 415.973">
  <g id="Grupo_84682" data-name="Grupo 84682" transform="translate(2090 6765.75)">
    <g id="Grupo_84664" data-name="Grupo 84664">
      <g id="Grupo_84081" data-name="Grupo 84081" transform="translate(-1547 1524)">
        <path id="Trazado_125131" data-name="Trazado 125131" d="M965.573-8189.666l93.518-144.126,79.241-96.925,89.193,44.28,73.843-92.251,81.326,193.83,149.2,98.131" transform="translate(-1425.984 243.223)" fill="none" stroke="#db6e5f" stroke-width="2"/>
        <path id="Trazado_125132" data-name="Trazado 125132" d="M947.055-8513.589v323.316H1549.26" transform="translate(-1424.647 245.743)" fill="none" stroke="#adadad" stroke-width="1"/>
        <path id="Polígono_10" data-name="Polígono 10" d="M9.278,0l9.278,15.773H0Z" transform="translate(-487.849 -8284)" fill="#12263f"/>
        <path id="Polígono_11" data-name="Polígono 11" d="M9.278,0l9.278,15.773H0Z" transform="translate(143.526 -7952.781) rotate(90)" fill="#12263f"/>
        <text id="_28" data-name="28" transform="translate(-402.491 -7914.938)" fill="#6c6c6c" font-size="11" font-family="Roboto-Regular, Roboto"><tspan x="0" y="0">28</tspan></text>
        <text id="_30" data-name="30" transform="translate(-323.627 -7914.938)" fill="#6c6c6c" font-size="11" font-family="Roboto-Regular, Roboto"><tspan x="0" y="0">30</tspan></text>
        <text id="_32" data-name="32" transform="translate(-244.763 -7914.938)" fill="#6c6c6c" font-size="11" font-family="Roboto-Regular, Roboto"><tspan x="0" y="0">32</tspan></text>
        <text id="_34" data-name="34" transform="translate(-165.899 -7914.938)" fill="#6c6c6c" font-size="11" font-family="Roboto-Regular, Roboto"><tspan x="0" y="0">34</tspan></text>
        <text id="_36" data-name="36" transform="translate(-87.035 -7914.938)" fill="#6c6c6c" font-size="11" font-family="Roboto-Regular, Roboto"><tspan x="0" y="0">36</tspan></text>
        <text id="_38" data-name="38" transform="translate(-5.388 -7914.938)" fill="#6c6c6c" font-size="11" font-family="Roboto-Regular, Roboto"><tspan x="0" y="0">38</tspan></text>
        <text id="_40" data-name="40" transform="translate(73.476 -7914.938)" fill="#6c6c6c" font-size="11" font-family="Roboto-Regular, Roboto"><tspan x="0" y="0">40</tspan></text>
        <text id="_12" data-name="12" transform="translate(-513.828 -8232.25)" fill="#6c6c6c" font-size="11" font-family="Roboto-Regular, Roboto"><tspan x="0" y="0">12</tspan></text>
        <text id="_10" data-name="10" transform="translate(-513.828 -8185.859)" fill="#6c6c6c" font-size="11" font-family="Roboto-Regular, Roboto"><tspan x="0" y="0">10</tspan></text>
        <text id="_8" data-name="8" transform="translate(-506.406 -8140.468)" fill="#6c6c6c" font-size="10" font-family="Roboto-Regular, Roboto"><tspan x="0" y="0">8</tspan></text>
        <text id="_6" data-name="6" transform="translate(-506.406 -8087.583)" fill="#6c6c6c" font-size="10" font-family="Roboto-Regular, Roboto"><tspan x="0" y="0">6</tspan></text>
        <text id="_4" data-name="4" transform="translate(-506.406 -8038.409)" fill="#6c6c6c" font-size="10" font-family="Roboto-Regular, Roboto"><tspan x="0" y="0">4</tspan></text>
        <text id="_2" data-name="2" transform="translate(-506.406 -7989.235)" fill="#6c6c6c" font-size="10" font-family="Roboto-Regular, Roboto"><tspan x="0" y="0">2</tspan></text>
      </g>
      <path id="Trazado_125877" data-name="Trazado 125877" d="M5.627-6.03V0H1.343V-17.773H8.435a8.261,8.261,0,0,1,3.607.751,5.658,5.658,0,0,1,2.429,2.136,5.834,5.834,0,0,1,.861,3.143A5.143,5.143,0,0,1,13.47-7.587,7.724,7.724,0,0,1,8.362-6.03Zm0-3.308H8.435a2.648,2.648,0,0,0,1.9-.623,2.313,2.313,0,0,0,.653-1.758,2.859,2.859,0,0,0-.671-1.99,2.377,2.377,0,0,0-1.831-.757H5.627ZM16.748-6.726a7.8,7.8,0,0,1,.769-3.522,5.5,5.5,0,0,1,2.209-2.374,6.654,6.654,0,0,1,3.381-.83,6.073,6.073,0,0,1,4.675,1.837,7.05,7.05,0,0,1,1.709,5v.146a6.84,6.84,0,0,1-1.715,4.9A6.089,6.089,0,0,1,23.132.244,6.159,6.159,0,0,1,18.6-1.447,6.613,6.613,0,0,1,16.76-6.03Zm4.114.256a4.914,4.914,0,0,0,.574,2.686,1.911,1.911,0,0,0,1.7.854q2.2,0,2.246-3.381v-.415q0-3.552-2.271-3.552-2.063,0-2.234,3.064ZM35.645,0H31.519V-18.75h4.126Zm7.019,0H38.525V-13.208h4.138ZM41.125-18.506h4.346l-3.394,3.833H38.721Zm3.7,11.8a8.918,8.918,0,0,1,.659-3.54,5.307,5.307,0,0,1,1.892-2.374,4.988,4.988,0,0,1,2.869-.836,3.966,3.966,0,0,1,3.223,1.392l.146-1.147h3.735V-.5a5.569,5.569,0,0,1-.812,3.033,5.209,5.209,0,0,1-2.35,1.978,8.637,8.637,0,0,1-3.564.69,7.451,7.451,0,0,1-2.814-.549,5.079,5.079,0,0,1-2.081-1.428L47.449.806a3.772,3.772,0,0,0,3.027,1.355q2.734,0,2.734-2.808v-.415A3.863,3.863,0,0,1,50.22.244a4.774,4.774,0,0,1-3.906-1.849,7.662,7.662,0,0,1-1.489-4.95Zm4.126.256a4.7,4.7,0,0,0,.61,2.57,1.926,1.926,0,0,0,1.709.946,2.185,2.185,0,0,0,1.941-.891V-9.375a2.13,2.13,0,0,0-1.917-.9,1.938,1.938,0,0,0-1.721.983A5.358,5.358,0,0,0,48.95-6.445Zm10.217-.281a7.8,7.8,0,0,1,.769-3.522,5.5,5.5,0,0,1,2.209-2.374,6.654,6.654,0,0,1,3.381-.83A6.073,6.073,0,0,1,70.2-11.615a7.05,7.05,0,0,1,1.709,5v.146a6.84,6.84,0,0,1-1.715,4.9A6.089,6.089,0,0,1,65.552.244a6.159,6.159,0,0,1-4.529-1.691A6.613,6.613,0,0,1,59.18-6.03Zm4.114.256a4.914,4.914,0,0,0,.574,2.686,1.911,1.911,0,0,0,1.7.854q2.2,0,2.246-3.381v-.415q0-3.552-2.271-3.552-2.063,0-2.234,3.064ZM77.5-13.208l.134,1.55a4.479,4.479,0,0,1,3.772-1.794,3.768,3.768,0,0,1,3.082,1.233,5.87,5.87,0,0,1,1.056,3.711V0H81.421V-8.337a2.229,2.229,0,0,0-.4-1.471,1.864,1.864,0,0,0-1.465-.47,1.962,1.962,0,0,0-1.794.952V0H73.645V-13.208Zm9.8,6.482a7.8,7.8,0,0,1,.769-3.522,5.5,5.5,0,0,1,2.209-2.374,6.654,6.654,0,0,1,3.381-.83,6.073,6.073,0,0,1,4.675,1.837,7.05,7.05,0,0,1,1.709,5v.146a6.84,6.84,0,0,1-1.715,4.9A6.089,6.089,0,0,1,93.689.244,6.159,6.159,0,0,1,89.16-1.447,6.613,6.613,0,0,1,87.317-6.03Zm4.114.256a4.915,4.915,0,0,0,.574,2.686,1.911,1.911,0,0,0,1.7.854q2.2,0,2.246-3.381v-.415q0-3.552-2.271-3.552-2.063,0-2.234,3.064Zm17.358,2.759a.95.95,0,0,0-.549-.842,8.356,8.356,0,0,0-2.087-.659,9.519,9.519,0,0,1-2.539-.9,4.253,4.253,0,0,1-1.526-1.349,3.221,3.221,0,0,1-.525-1.819,3.651,3.651,0,0,1,1.5-3,6.185,6.185,0,0,1,3.931-1.178,6.853,6.853,0,0,1,4.2,1.184,3.7,3.7,0,0,1,1.587,3.113h-4.126q0-1.587-1.672-1.587a1.658,1.658,0,0,0-1.086.36,1.115,1.115,0,0,0-.439.9,1.023,1.023,0,0,0,.537.891,5.075,5.075,0,0,0,1.715.562,14.821,14.821,0,0,1,2.069.525q2.979,1.025,2.979,3.674a3.459,3.459,0,0,1-1.605,2.942A7.039,7.039,0,0,1,106.982.244a7.184,7.184,0,0,1-3.027-.61,5.062,5.062,0,0,1-2.075-1.66,3.759,3.759,0,0,1-.745-2.209h3.845a1.59,1.59,0,0,0,.61,1.337,2.511,2.511,0,0,0,1.5.421,1.975,1.975,0,0,0,1.263-.342A1.093,1.093,0,0,0,108.777-3.711Zm11.6-2.991a8.068,8.068,0,0,1,1.355-4.944,4.46,4.46,0,0,1,3.784-1.807,3.793,3.793,0,0,1,2.979,1.392V-18.75h4.126V0h-3.7l-.208-1.416a3.9,3.9,0,0,1-3.223,1.66,4.452,4.452,0,0,1-3.735-1.807A8.324,8.324,0,0,1,120.374-6.7Zm4.114.256q0,3.516,2.051,3.516a2.025,2.025,0,0,0,1.953-1.147V-9.106a1.971,1.971,0,0,0-1.929-1.172q-1.9,0-2.063,3.076ZM141.345.244a6.79,6.79,0,0,1-4.919-1.813,6.26,6.26,0,0,1-1.88-4.718v-.342a8.111,8.111,0,0,1,.751-3.577,5.493,5.493,0,0,1,2.191-2.4,6.615,6.615,0,0,1,3.418-.848,5.717,5.717,0,0,1,4.395,1.727,6.788,6.788,0,0,1,1.611,4.816v1.6h-8.179a2.965,2.965,0,0,0,.964,1.746,2.869,2.869,0,0,0,1.929.635A3.7,3.7,0,0,0,144.678-4.3l1.88,2.222a5.255,5.255,0,0,1-2.179,1.691A7.363,7.363,0,0,1,141.345.244Zm-.464-10.522q-1.807,0-2.148,2.393h4.15V-8.2a2.038,2.038,0,0,0-.5-1.532A1.992,1.992,0,0,0,140.881-10.278Zm25.293,3.2h-6.909V0H154.98V-17.773h11.89v3.308h-7.6v4.089h6.909Zm9.961-2.4-1.355-.1a2.434,2.434,0,0,0-2.49,1.221V0h-4.114V-13.208h3.857l.134,1.7a3.185,3.185,0,0,1,2.893-1.941,4.012,4.012,0,0,1,1.147.146ZM183.777.244a6.79,6.79,0,0,1-4.919-1.813,6.26,6.26,0,0,1-1.88-4.718v-.342a8.111,8.111,0,0,1,.751-3.577,5.493,5.493,0,0,1,2.191-2.4,6.615,6.615,0,0,1,3.418-.848,5.717,5.717,0,0,1,4.395,1.727,6.788,6.788,0,0,1,1.611,4.816v1.6h-8.179a2.965,2.965,0,0,0,.964,1.746,2.869,2.869,0,0,0,1.929.635A3.7,3.7,0,0,0,187.109-4.3l1.88,2.222A5.255,5.255,0,0,1,186.81-.385,7.363,7.363,0,0,1,183.777.244Zm-.464-10.522q-1.807,0-2.148,2.393h4.15V-8.2a2.038,2.038,0,0,0-.5-1.532A1.992,1.992,0,0,0,183.313-10.278ZM196.582-2.93a1.83,1.83,0,0,0,1.343-.47,1.723,1.723,0,0,0,.464-1.312h3.857a4.566,4.566,0,0,1-1.556,3.564A5.789,5.789,0,0,1,196.68.244a5.862,5.862,0,0,1-4.541-1.807,7.118,7.118,0,0,1-1.66-5v-.171a8.045,8.045,0,0,1,.739-3.534,5.377,5.377,0,0,1,2.13-2.356,6.351,6.351,0,0,1,3.3-.824,5.716,5.716,0,0,1,4.089,1.428,5.066,5.066,0,0,1,1.514,3.87h-3.857a2.258,2.258,0,0,0-.5-1.575,1.728,1.728,0,0,0-1.343-.549q-1.6,0-1.868,2.039a14.386,14.386,0,0,0-.085,1.782,5.65,5.65,0,0,0,.476,2.759A1.648,1.648,0,0,0,196.582-2.93Zm15.271,1.5A4.241,4.241,0,0,1,208.325.244a4.16,4.16,0,0,1-3.29-1.263,5.314,5.314,0,0,1-1.117-3.632v-8.557h4.114v8.582a1.479,1.479,0,0,0,1.648,1.7,2.15,2.15,0,0,0,2.014-1.013v-9.265h4.138V0h-3.857ZM224.475.244a6.79,6.79,0,0,1-4.919-1.813,6.26,6.26,0,0,1-1.88-4.718v-.342a8.111,8.111,0,0,1,.751-3.577,5.493,5.493,0,0,1,2.191-2.4,6.615,6.615,0,0,1,3.418-.848,5.717,5.717,0,0,1,4.395,1.727,6.788,6.788,0,0,1,1.611,4.816v1.6h-8.179a2.965,2.965,0,0,0,.964,1.746,2.869,2.869,0,0,0,1.929.635A3.7,3.7,0,0,0,227.808-4.3l1.88,2.222a5.255,5.255,0,0,1-2.179,1.691A7.363,7.363,0,0,1,224.475.244Zm-.464-10.522q-1.807,0-2.148,2.393h4.15V-8.2a2.038,2.038,0,0,0-.5-1.532A1.992,1.992,0,0,0,224.011-10.278Zm11.462-2.93.134,1.55a4.479,4.479,0,0,1,3.772-1.794,3.768,3.768,0,0,1,3.082,1.233,5.87,5.87,0,0,1,1.056,3.711V0h-4.126V-8.337a2.229,2.229,0,0,0-.4-1.471,1.864,1.864,0,0,0-1.465-.47,1.962,1.962,0,0,0-1.794.952V0h-4.114V-13.208ZM251.379-2.93a1.83,1.83,0,0,0,1.343-.47,1.723,1.723,0,0,0,.464-1.312h3.857a4.566,4.566,0,0,1-1.556,3.564,5.789,5.789,0,0,1-4.01,1.392,5.862,5.862,0,0,1-4.541-1.807,7.118,7.118,0,0,1-1.66-5v-.171a8.045,8.045,0,0,1,.739-3.534,5.377,5.377,0,0,1,2.13-2.356,6.351,6.351,0,0,1,3.3-.824,5.716,5.716,0,0,1,4.089,1.428,5.066,5.066,0,0,1,1.514,3.87h-3.857a2.258,2.258,0,0,0-.5-1.575,1.728,1.728,0,0,0-1.343-.549q-1.6,0-1.868,2.039a14.386,14.386,0,0,0-.085,1.782,5.65,5.65,0,0,0,.476,2.759A1.648,1.648,0,0,0,251.379-2.93ZM263.123,0H259V-13.208h4.126Zm-4.37-16.614a1.836,1.836,0,0,1,.635-1.44,2.4,2.4,0,0,1,1.648-.562,2.4,2.4,0,0,1,1.648.562,1.836,1.836,0,0,1,.635,1.44,1.836,1.836,0,0,1-.635,1.44,2.4,2.4,0,0,1-1.648.562,2.4,2.4,0,0,1-1.648-.562A1.836,1.836,0,0,1,258.752-16.614ZM273.1,0a4.644,4.644,0,0,1-.391-1.184A3.825,3.825,0,0,1,269.531.244a4.686,4.686,0,0,1-3.174-1.129,3.594,3.594,0,0,1-1.306-2.838,3.694,3.694,0,0,1,1.587-3.247,8.085,8.085,0,0,1,4.614-1.1h1.27v-.7q0-1.819-1.575-1.819a1.284,1.284,0,0,0-1.465,1.44h-4.114A3.693,3.693,0,0,1,267-12.256a6.843,6.843,0,0,1,4.156-1.2,6,6,0,0,1,3.992,1.233,4.287,4.287,0,0,1,1.5,3.381v5.847a5.988,5.988,0,0,0,.562,2.783V0ZM270.52-2.686a2.3,2.3,0,0,0,1.276-.33,2.066,2.066,0,0,0,.726-.745V-5.872h-1.2q-2.148,0-2.148,1.929a1.178,1.178,0,0,0,.378.909A1.369,1.369,0,0,0,270.52-2.686Z" transform="translate(-1867 -6747)" fill="#12263f"/>
      <path id="Trazado_125878" data-name="Trazado 125878" d="M12.578-4.814a5.193,5.193,0,0,1-.8,2.622A4.833,4.833,0,0,1,9.722-.43,7,7,0,0,1,6.7.2,5.584,5.584,0,0,1,2.285-1.631,7.54,7.54,0,0,1,.674-6.787v-.7A8.607,8.607,0,0,1,1.4-11.147,5.513,5.513,0,0,1,3.5-13.569a5.844,5.844,0,0,1,3.164-.854,6.129,6.129,0,0,1,4.16,1.362,5.383,5.383,0,0,1,1.787,3.755H9.189a2.547,2.547,0,0,0-.654-1.865,2.691,2.691,0,0,0-1.875-.566,2.048,2.048,0,0,0-1.875.957A6.151,6.151,0,0,0,4.16-7.725v1.006a6.806,6.806,0,0,0,.571,3.252A2.091,2.091,0,0,0,6.7-2.49a2.632,2.632,0,0,0,1.807-.557A2.363,2.363,0,0,0,9.17-4.814ZM20,0a3.716,3.716,0,0,1-.312-.947A3.06,3.06,0,0,1,17.148.2a3.749,3.749,0,0,1-2.539-.9,2.875,2.875,0,0,1-1.045-2.271,2.955,2.955,0,0,1,1.27-2.6,6.468,6.468,0,0,1,3.691-.879h1.016v-.557q0-1.455-1.26-1.455a1.027,1.027,0,0,0-1.172,1.152H13.818a2.955,2.955,0,0,1,1.3-2.49,5.474,5.474,0,0,1,3.325-.957,4.8,4.8,0,0,1,3.193.986,3.429,3.429,0,0,1,1.2,2.705v4.678a4.79,4.79,0,0,0,.449,2.227V0ZM17.939-2.148a1.836,1.836,0,0,0,1.021-.264,1.653,1.653,0,0,0,.581-.6V-4.7h-.957q-1.719,0-1.719,1.543a.942.942,0,0,0,.3.728A1.1,1.1,0,0,0,17.939-2.148Zm9.746-8.418.107,1.24a3.583,3.583,0,0,1,3.018-1.436,3.015,3.015,0,0,1,2.466.986,4.7,4.7,0,0,1,.845,2.969V0h-3.3V-6.67A1.783,1.783,0,0,0,30.5-7.847a1.491,1.491,0,0,0-1.172-.376,1.569,1.569,0,0,0-1.436.762V0H24.6V-10.566Zm12.09-2.627v2.627h1.738v2.285H39.775v4.834a1.234,1.234,0,0,0,.215.83,1.152,1.152,0,0,0,.85.234,4.828,4.828,0,0,0,.82-.059V-.088A6.074,6.074,0,0,1,39.8.2a3.448,3.448,0,0,1-2.51-.8,3.282,3.282,0,0,1-.811-2.432V-8.281H35.137v-2.285h1.348v-2.627ZM46.279,0h-3.3V-10.566h3.3Zm-3.5-13.291a1.469,1.469,0,0,1,.508-1.152,1.916,1.916,0,0,1,1.318-.449,1.916,1.916,0,0,1,1.318.449,1.469,1.469,0,0,1,.508,1.152,1.469,1.469,0,0,1-.508,1.152,1.916,1.916,0,0,1-1.318.449,1.916,1.916,0,0,1-1.318-.449A1.469,1.469,0,0,1,42.783-13.291Zm5.107,7.93a6.455,6.455,0,0,1,1.084-3.955A3.568,3.568,0,0,1,52-10.762a3.035,3.035,0,0,1,2.383,1.113V-15h3.3V0H54.727l-.166-1.133A3.116,3.116,0,0,1,51.982.2,3.562,3.562,0,0,1,48.994-1.25,6.659,6.659,0,0,1,47.891-5.361Zm3.291.205q0,2.813,1.641,2.813a1.62,1.62,0,0,0,1.563-.918V-7.285a1.576,1.576,0,0,0-1.543-.937q-1.523,0-1.65,2.461ZM65.508,0A3.716,3.716,0,0,1,65.2-.947,3.06,3.06,0,0,1,62.656.2a3.749,3.749,0,0,1-2.539-.9,2.875,2.875,0,0,1-1.045-2.271,2.955,2.955,0,0,1,1.27-2.6,6.468,6.468,0,0,1,3.691-.879h1.016v-.557q0-1.455-1.26-1.455a1.027,1.027,0,0,0-1.172,1.152H59.326a2.955,2.955,0,0,1,1.3-2.49,5.474,5.474,0,0,1,3.325-.957,4.8,4.8,0,0,1,3.193.986,3.429,3.429,0,0,1,1.2,2.705v4.678A4.79,4.79,0,0,0,68.8-.166V0ZM63.447-2.148a1.836,1.836,0,0,0,1.021-.264,1.653,1.653,0,0,0,.581-.6V-4.7h-.957q-1.719,0-1.719,1.543a.942.942,0,0,0,.3.728A1.1,1.1,0,0,0,63.447-2.148Zm6.309-3.213A6.455,6.455,0,0,1,70.84-9.316a3.568,3.568,0,0,1,3.027-1.445A3.035,3.035,0,0,1,76.25-9.648V-15h3.3V0H76.592l-.166-1.133A3.116,3.116,0,0,1,73.848.2,3.562,3.562,0,0,1,70.859-1.25,6.659,6.659,0,0,1,69.756-5.361Zm3.291.205q0,2.813,1.641,2.813a1.62,1.62,0,0,0,1.563-.918V-7.285a1.576,1.576,0,0,0-1.543-.937q-1.523,0-1.65,2.461ZM86.533.2A5.432,5.432,0,0,1,82.6-1.255a5.008,5.008,0,0,1-1.5-3.774V-5.3a6.489,6.489,0,0,1,.6-2.861,4.395,4.395,0,0,1,1.753-1.919,5.292,5.292,0,0,1,2.734-.679A4.574,4.574,0,0,1,89.7-9.38a5.43,5.43,0,0,1,1.289,3.853v1.279H84.443a2.372,2.372,0,0,0,.771,1.4,2.3,2.3,0,0,0,1.543.508A2.958,2.958,0,0,0,89.2-3.437L90.7-1.66A4.2,4.2,0,0,1,88.96-.308,5.891,5.891,0,0,1,86.533.2Zm-.371-8.418q-1.445,0-1.719,1.914h3.32v-.254a1.63,1.63,0,0,0-.4-1.226A1.593,1.593,0,0,0,86.162-8.223Zm11.68,5.254a.76.76,0,0,0-.439-.674,6.685,6.685,0,0,0-1.67-.527A7.615,7.615,0,0,1,93.7-4.888,3.4,3.4,0,0,1,92.48-5.967a2.577,2.577,0,0,1-.42-1.455,2.92,2.92,0,0,1,1.2-2.4,4.948,4.948,0,0,1,3.145-.942,5.482,5.482,0,0,1,3.359.947,2.962,2.962,0,0,1,1.27,2.49h-3.3q0-1.27-1.338-1.27a1.326,1.326,0,0,0-.869.288.892.892,0,0,0-.352.718.819.819,0,0,0,.43.713,4.06,4.06,0,0,0,1.372.449,11.857,11.857,0,0,1,1.655.42,3.007,3.007,0,0,1,2.383,2.939A2.767,2.767,0,0,1,99.731-.713,5.631,5.631,0,0,1,96.406.2a5.747,5.747,0,0,1-2.422-.488,4.05,4.05,0,0,1-1.66-1.328,3.007,3.007,0,0,1-.6-1.768H94.8a1.272,1.272,0,0,0,.488,1.069,2.009,2.009,0,0,0,1.2.337A1.58,1.58,0,0,0,97.5-2.256.875.875,0,0,0,97.842-2.969Zm9.277-2.393A6.455,6.455,0,0,1,108.2-9.316a3.568,3.568,0,0,1,3.027-1.445,3.035,3.035,0,0,1,2.383,1.113V-15h3.3V0h-2.959l-.166-1.133A3.116,3.116,0,0,1,111.211.2a3.562,3.562,0,0,1-2.988-1.445A6.659,6.659,0,0,1,107.119-5.361Zm3.291.205q0,2.813,1.641,2.813a1.62,1.62,0,0,0,1.563-.918V-7.285a1.576,1.576,0,0,0-1.543-.937q-1.523,0-1.65,2.461ZM123.9.2a5.432,5.432,0,0,1-3.936-1.45,5.008,5.008,0,0,1-1.5-3.774V-5.3a6.489,6.489,0,0,1,.6-2.861,4.395,4.395,0,0,1,1.753-1.919,5.292,5.292,0,0,1,2.734-.679,4.574,4.574,0,0,1,3.516,1.382,5.43,5.43,0,0,1,1.289,3.853v1.279h-6.543a2.372,2.372,0,0,0,.771,1.4,2.3,2.3,0,0,0,1.543.508,2.958,2.958,0,0,0,2.441-1.094l1.5,1.777a4.2,4.2,0,0,1-1.743,1.353A5.891,5.891,0,0,1,123.9.2Zm-.371-8.418q-1.445,0-1.719,1.914h3.32v-.254a1.63,1.63,0,0,0-.4-1.226A1.593,1.593,0,0,0,123.525-8.223Zm20.938,3.018a6.372,6.372,0,0,1-1.108,3.931A3.554,3.554,0,0,1,140.361.2a3.046,3.046,0,0,1-2.393-1.064V4.063h-3.291V-10.566h3.076l.1.977a3.046,3.046,0,0,1,2.49-1.172,3.582,3.582,0,0,1,3.037,1.44,6.45,6.45,0,0,1,1.084,3.96Zm-3.291-.205q0-2.812-1.641-2.812a1.549,1.549,0,0,0-1.562.84v4.16a1.6,1.6,0,0,0,1.582.879q1.572,0,1.621-2.715ZM151.865,0a3.716,3.716,0,0,1-.312-.947A3.06,3.06,0,0,1,149.014.2a3.749,3.749,0,0,1-2.539-.9,2.875,2.875,0,0,1-1.045-2.271,2.955,2.955,0,0,1,1.27-2.6,6.468,6.468,0,0,1,3.691-.879h1.016v-.557q0-1.455-1.26-1.455a1.027,1.027,0,0,0-1.172,1.152h-3.291a2.955,2.955,0,0,1,1.3-2.49,5.474,5.474,0,0,1,3.325-.957,4.8,4.8,0,0,1,3.193.986,3.429,3.429,0,0,1,1.2,2.705v4.678a4.79,4.79,0,0,0,.449,2.227V0ZM149.8-2.148a1.836,1.836,0,0,0,1.021-.264,1.652,1.652,0,0,0,.581-.6V-4.7h-.957q-1.719,0-1.719,1.543a.942.942,0,0,0,.3.728A1.1,1.1,0,0,0,149.8-2.148ZM162.92-7.588l-1.084-.078a1.947,1.947,0,0,0-1.992.977V0h-3.291V-10.566h3.086l.107,1.357a2.548,2.548,0,0,1,2.314-1.553,3.209,3.209,0,0,1,.918.117Zm5.508-5.605v2.627h1.738v2.285h-1.738v4.834a1.234,1.234,0,0,0,.215.83,1.152,1.152,0,0,0,.85.234,4.828,4.828,0,0,0,.82-.059V-.088A6.074,6.074,0,0,1,168.457.2a3.448,3.448,0,0,1-2.51-.8,3.282,3.282,0,0,1-.811-2.432V-8.281h-1.348v-2.285h1.348v-2.627ZM174.932,0h-3.3V-10.566h3.3Zm-3.5-13.291a1.469,1.469,0,0,1,.508-1.152,1.916,1.916,0,0,1,1.318-.449,1.916,1.916,0,0,1,1.318.449,1.469,1.469,0,0,1,.508,1.152,1.469,1.469,0,0,1-.508,1.152,1.916,1.916,0,0,1-1.318.449,1.916,1.916,0,0,1-1.318-.449A1.469,1.469,0,0,1,171.436-13.291Zm9.99,10.947A1.464,1.464,0,0,0,182.5-2.72a1.379,1.379,0,0,0,.371-1.05h3.086a3.653,3.653,0,0,1-1.245,2.852A4.631,4.631,0,0,1,181.5.2a4.689,4.689,0,0,1-3.633-1.445,5.7,5.7,0,0,1-1.328-4v-.137a6.436,6.436,0,0,1,.591-2.827,4.3,4.3,0,0,1,1.7-1.885,5.081,5.081,0,0,1,2.637-.659,4.573,4.573,0,0,1,3.271,1.143,4.053,4.053,0,0,1,1.211,3.1h-3.086a1.807,1.807,0,0,0-.4-1.26,1.382,1.382,0,0,0-1.074-.439q-1.279,0-1.494,1.631a11.507,11.507,0,0,0-.068,1.426,4.52,4.52,0,0,0,.381,2.207A1.319,1.319,0,0,0,181.426-2.344ZM190.82,0h-3.3V-10.566h3.3Zm-3.5-13.291a1.469,1.469,0,0,1,.508-1.152,1.916,1.916,0,0,1,1.318-.449,1.916,1.916,0,0,1,1.318.449,1.469,1.469,0,0,1,.508,1.152,1.469,1.469,0,0,1-.508,1.152,1.916,1.916,0,0,1-1.318.449,1.916,1.916,0,0,1-1.318-.449A1.469,1.469,0,0,1,187.324-13.291Zm15.332,8.086a6.372,6.372,0,0,1-1.108,3.931A3.554,3.554,0,0,1,198.555.2a3.046,3.046,0,0,1-2.393-1.064V4.063h-3.291V-10.566h3.076l.1.977a3.046,3.046,0,0,1,2.49-1.172,3.582,3.582,0,0,1,3.037,1.44,6.45,6.45,0,0,1,1.084,3.96Zm-3.291-.205q0-2.812-1.641-2.812a1.549,1.549,0,0,0-1.562.84v4.16a1.6,1.6,0,0,0,1.582.879q1.572,0,1.621-2.715ZM210.059,0a3.716,3.716,0,0,1-.312-.947A3.06,3.06,0,0,1,207.207.2a3.749,3.749,0,0,1-2.539-.9,2.875,2.875,0,0,1-1.045-2.271,2.955,2.955,0,0,1,1.27-2.6,6.468,6.468,0,0,1,3.691-.879H209.6v-.557q0-1.455-1.26-1.455a1.027,1.027,0,0,0-1.172,1.152h-3.291a2.955,2.955,0,0,1,1.3-2.49,5.474,5.474,0,0,1,3.325-.957,4.8,4.8,0,0,1,3.193.986,3.429,3.429,0,0,1,1.2,2.705v4.678a4.79,4.79,0,0,0,.449,2.227V0ZM208-2.148a1.836,1.836,0,0,0,1.021-.264,1.652,1.652,0,0,0,.581-.6V-4.7h-.957q-1.719,0-1.719,1.543a.942.942,0,0,0,.3.728A1.1,1.1,0,0,0,208-2.148Zm9.746-8.418.107,1.24a3.583,3.583,0,0,1,3.018-1.436,3.015,3.015,0,0,1,2.466.986,4.7,4.7,0,0,1,.845,2.969V0h-3.3V-6.67a1.783,1.783,0,0,0-.322-1.177,1.491,1.491,0,0,0-1.172-.376,1.569,1.569,0,0,0-1.436.762V0h-3.291V-10.566Zm12.09-2.627v2.627h1.738v2.285h-1.738v4.834a1.234,1.234,0,0,0,.215.83,1.152,1.152,0,0,0,.85.234,4.828,4.828,0,0,0,.82-.059V-.088A6.074,6.074,0,0,1,229.863.2a3.448,3.448,0,0,1-2.51-.8,3.282,3.282,0,0,1-.811-2.432V-8.281H225.2v-2.285h1.348v-2.627ZM237.979.2a5.432,5.432,0,0,1-3.936-1.45,5.008,5.008,0,0,1-1.5-3.774V-5.3a6.489,6.489,0,0,1,.6-2.861,4.395,4.395,0,0,1,1.753-1.919,5.292,5.292,0,0,1,2.734-.679,4.574,4.574,0,0,1,3.516,1.382,5.43,5.43,0,0,1,1.289,3.853v1.279h-6.543a2.372,2.372,0,0,0,.771,1.4,2.3,2.3,0,0,0,1.543.508,2.958,2.958,0,0,0,2.441-1.094l1.5,1.777a4.2,4.2,0,0,1-1.743,1.353A5.891,5.891,0,0,1,237.979.2Zm-.371-8.418q-1.445,0-1.719,1.914h3.32v-.254a1.63,1.63,0,0,0-.4-1.226A1.593,1.593,0,0,0,237.607-8.223Zm11.68,5.254a.76.76,0,0,0-.439-.674,6.685,6.685,0,0,0-1.67-.527,7.615,7.615,0,0,1-2.031-.718,3.4,3.4,0,0,1-1.221-1.079,2.577,2.577,0,0,1-.42-1.455,2.92,2.92,0,0,1,1.2-2.4,4.948,4.948,0,0,1,3.145-.942,5.482,5.482,0,0,1,3.359.947,2.962,2.962,0,0,1,1.27,2.49h-3.3q0-1.27-1.338-1.27a1.326,1.326,0,0,0-.869.288.892.892,0,0,0-.352.718.819.819,0,0,0,.43.713,4.06,4.06,0,0,0,1.372.449,11.857,11.857,0,0,1,1.655.42,3.007,3.007,0,0,1,2.383,2.939,2.767,2.767,0,0,1-1.284,2.354A5.632,5.632,0,0,1,247.852.2a5.747,5.747,0,0,1-2.422-.488,4.05,4.05,0,0,1-1.66-1.328,3.007,3.007,0,0,1-.6-1.768h3.076a1.272,1.272,0,0,0,.488,1.069,2.009,2.009,0,0,0,1.2.337,1.58,1.58,0,0,0,1.011-.273A.875.875,0,0,0,249.287-2.969Z" transform="translate(-2075 -6447) rotate(-90)" fill="#12263f"/>
      <path id="Trazado_125879" data-name="Trazado 125879" d="M4.5-4.824V0H1.074V-14.219H6.748a6.608,6.608,0,0,1,2.886.6,4.526,4.526,0,0,1,1.943,1.709,4.667,4.667,0,0,1,.688,2.515,4.114,4.114,0,0,1-1.489,3.325A6.179,6.179,0,0,1,6.689-4.824Zm0-2.646H6.748a2.118,2.118,0,0,0,1.519-.5,1.85,1.85,0,0,0,.522-1.406,2.287,2.287,0,0,0-.537-1.592,1.9,1.9,0,0,0-1.465-.605H4.5ZM18.926.2a5.432,5.432,0,0,1-3.936-1.45,5.008,5.008,0,0,1-1.5-3.774V-5.3a6.489,6.489,0,0,1,.6-2.861,4.395,4.395,0,0,1,1.753-1.919,5.292,5.292,0,0,1,2.734-.679A4.574,4.574,0,0,1,22.09-9.38a5.43,5.43,0,0,1,1.289,3.853v1.279H16.836a2.372,2.372,0,0,0,.771,1.4,2.3,2.3,0,0,0,1.543.508,2.958,2.958,0,0,0,2.441-1.094L23.1-1.66A4.2,4.2,0,0,1,21.353-.308,5.891,5.891,0,0,1,18.926.2Zm-.371-8.418q-1.445,0-1.719,1.914h3.32v-.254a1.63,1.63,0,0,0-.4-1.226A1.593,1.593,0,0,0,18.555-8.223Zm11.68,5.254a.76.76,0,0,0-.439-.674,6.685,6.685,0,0,0-1.67-.527,7.615,7.615,0,0,1-2.031-.718,3.4,3.4,0,0,1-1.221-1.079,2.577,2.577,0,0,1-.42-1.455,2.92,2.92,0,0,1,1.2-2.4,4.948,4.948,0,0,1,3.145-.942,5.482,5.482,0,0,1,3.359.947,2.962,2.962,0,0,1,1.27,2.49h-3.3q0-1.27-1.338-1.27a1.326,1.326,0,0,0-.869.288.892.892,0,0,0-.352.718.819.819,0,0,0,.43.713,4.06,4.06,0,0,0,1.372.449,11.857,11.857,0,0,1,1.655.42,3.007,3.007,0,0,1,2.383,2.939A2.767,2.767,0,0,1,32.124-.713,5.631,5.631,0,0,1,28.8.2a5.747,5.747,0,0,1-2.422-.488,4.05,4.05,0,0,1-1.66-1.328,3.007,3.007,0,0,1-.6-1.768H27.2a1.272,1.272,0,0,0,.488,1.069,2.009,2.009,0,0,0,1.2.337A1.58,1.58,0,0,0,29.9-2.256.875.875,0,0,0,30.234-2.969Zm4.3-2.412A6.236,6.236,0,0,1,35.146-8.2a4.4,4.4,0,0,1,1.768-1.9,5.323,5.323,0,0,1,2.705-.664,4.858,4.858,0,0,1,3.74,1.47,5.64,5.64,0,0,1,1.367,4v.117a5.472,5.472,0,0,1-1.372,3.921A4.871,4.871,0,0,1,39.639.2a4.927,4.927,0,0,1-3.623-1.353,5.29,5.29,0,0,1-1.475-3.667Zm3.291.205a3.932,3.932,0,0,0,.459,2.148,1.529,1.529,0,0,0,1.357.684q1.758,0,1.8-2.705v-.332q0-2.842-1.816-2.842-1.65,0-1.787,2.451Zm18.32-.117L54.736-3.75V0H51.309V-14.219h3.428v6.27l1.191-1.807,3.066-4.463h4.238l-4.8,6.289L63.232,0H59.17Zm7.168-.068a7.134,7.134,0,0,1,.527-2.832,4.245,4.245,0,0,1,1.514-1.9,3.99,3.99,0,0,1,2.295-.669,3.173,3.173,0,0,1,2.578,1.113l.117-.918H73.33V-.4a4.455,4.455,0,0,1-.649,2.427A4.167,4.167,0,0,1,70.8,3.608a6.91,6.91,0,0,1-2.852.552A5.961,5.961,0,0,1,65.7,3.721a4.063,4.063,0,0,1-1.665-1.143L65.41.645a3.018,3.018,0,0,0,2.422,1.084A1.96,1.96,0,0,0,70.02-.518V-.85A3.09,3.09,0,0,1,67.627.2,3.819,3.819,0,0,1,64.5-1.284a6.13,6.13,0,0,1-1.191-3.96Zm3.3.205A3.759,3.759,0,0,0,67.1-3.1a1.541,1.541,0,0,0,1.367.757,1.748,1.748,0,0,0,1.553-.713V-7.5a1.7,1.7,0,0,0-1.533-.723,1.551,1.551,0,0,0-1.377.786A4.287,4.287,0,0,0,66.611-5.156Z" transform="translate(-1761.5 -6353.938)" fill="#12263f"/>
      <path id="Trazado_125134" data-name="Trazado 125134" d="M-468-8995.711h5.758" transform="translate(-1562.77 2285.034)" fill="none" stroke="#b1b1b1" stroke-width="1"/>
      <path id="Trazado_125135" data-name="Trazado 125135" d="M-468-8995.711h5.758" transform="translate(-1562.77 2330.034)" fill="none" stroke="#b1b1b1" stroke-width="1"/>
      <path id="Trazado_125136" data-name="Trazado 125136" d="M-468-8995.711h5.758" transform="translate(-1562.77 2377.034)" fill="none" stroke="#b1b1b1" stroke-width="1"/>
      <path id="Trazado_125137" data-name="Trazado 125137" d="M-468-8995.711h5.758" transform="translate(-1562.77 2428.034)" fill="none" stroke="#b1b1b1" stroke-width="1"/>
      <path id="Trazado_125138" data-name="Trazado 125138" d="M-468-8995.711h5.758" transform="translate(-1562.77 2479.034)" fill="none" stroke="#b1b1b1" stroke-width="1"/>
      <path id="Trazado_125139" data-name="Trazado 125139" d="M-468-8995.711h5.758" transform="translate(-1562.77 2528.034)" fill="none" stroke="#b1b1b1" stroke-width="1"/>
      <path id="Trazado_125140" data-name="Trazado 125140" d="M-468-8995.711h5.758" transform="translate(-10938.603 -5958.556) rotate(90)" fill="none" stroke="#b1b1b1" stroke-width="1"/>
      <path id="Trazado_125141" data-name="Trazado 125141" d="M-468-8995.711h5.758" transform="translate(-10860.603 -5958.556) rotate(90)" fill="none" stroke="#b1b1b1" stroke-width="1"/>
      <path id="Trazado_125142" data-name="Trazado 125142" d="M-468-8995.711h5.758" transform="translate(-10781.603 -5958.556) rotate(90)" fill="none" stroke="#b1b1b1" stroke-width="1"/>
      <path id="Trazado_125143" data-name="Trazado 125143" d="M-468-8995.711h5.758" transform="translate(-10701.603 -5958.556) rotate(90)" fill="none" stroke="#b1b1b1" stroke-width="1"/>
      <path id="Trazado_125144" data-name="Trazado 125144" d="M-468-8995.711h5.758" transform="translate(-10624.603 -5958.556) rotate(90)" fill="none" stroke="#b1b1b1" stroke-width="1"/>
      <path id="Trazado_125145" data-name="Trazado 125145" d="M-468-8995.711h5.758" transform="translate(-10543.603 -5958.556) rotate(90)" fill="none" stroke="#b1b1b1" stroke-width="1"/>
      <path id="Trazado_125146" data-name="Trazado 125146" d="M-468-8995.711h5.758" transform="translate(-10462.603 -5958.556) rotate(90)" fill="none" stroke="#b1b1b1" stroke-width="1"/>
    </g>
  </g>
</svg>
