<svg xmlns="http://www.w3.org/2000/svg" width="665.25" height="305.762" viewBox="0 0 665.25 305.762">
  <g id="Grupo_84681" data-name="Grupo 84681" transform="translate(2100.25 7531.616)">
    <g id="Trazado_125865" data-name="Trazado 125865" transform="translate(-1929 -7282)" fill="#0d66bf">
      <path d="M 48.5 39.5 L 0.5 39.5 L 0.5 0.5 L 48.5 0.5 L 48.5 39.5 Z" stroke="none"/>
      <path d="M 1 1 L 1 39 L 48 39 L 48 1 L 1 1 M 0 0 L 49 0 L 49 40 L 0 40 L 0 0 Z" stroke="none" fill="#000"/>
    </g>
    <g id="Trazado_125857" data-name="Trazado 125857" transform="translate(-1882 -7318)" fill="#0d66bf">
      <path d="M 48.5 75.5 L 0.5 75.5 L 0.5 0.5 L 48.5 0.5 L 48.5 75.5 Z" stroke="none"/>
      <path d="M 1 1 L 1 75 L 48 75 L 48 1 L 1 1 M 0 0 L 49 0 L 49 76 L 0 76 L 0 0 Z" stroke="none" fill="#000"/>
    </g>
    <g id="Trazado_125856" data-name="Trazado 125856" transform="translate(-1834 -7389)" fill="#0d66bf">
      <path d="M 46.5 146.5 L 0.5 146.5 L 0.5 0.5 L 46.5 0.5 L 46.5 146.5 Z" stroke="none"/>
      <path d="M 1 1 L 1 146 L 46 146 L 46 1 L 1 1 M 0 0 L 47 0 L 47 147 L 0 147 L 0 0 Z" stroke="none" fill="#000"/>
    </g>
    <g id="Trazado_125858" data-name="Trazado 125858" transform="translate(-1787 -7463)" fill="#0d66bf">
      <path d="M 47.5 220.5 L 0.5 220.5 L 0.5 0.5 L 47.5 0.5 L 47.5 220.5 Z" stroke="none"/>
      <path d="M 1 1 L 1 220 L 47 220 L 47 1 L 1 1 M 0 0 L 48 0 L 48 221 L 0 221 L 0 0 Z" stroke="none" fill="#000"/>
    </g>
    <g id="Trazado_125860" data-name="Trazado 125860" transform="translate(-1740 -7417)" fill="#0d66bf">
      <path d="M 49.5 174.5 L 0.5 174.5 L 0.5 0.5 L 49.5 0.5 L 49.5 174.5 Z" stroke="none"/>
      <path d="M 1 1 L 1 174 L 49 174 L 49 1 L 1 1 M 0 0 L 50 0 L 50 175 L 0 175 L 0 0 Z" stroke="none" fill="#000"/>
    </g>
    <g id="Trazado_125862" data-name="Trazado 125862" transform="translate(-1694 -7310)" fill="#0d66bf">
      <path d="M 49.5 67.5 L 0.5 67.5 L 0.5 0.5 L 49.5 0.5 L 49.5 67.5 Z" stroke="none"/>
      <path d="M 1 1 L 1 67 L 49 67 L 49 1 L 1 1 M 0 0 L 50 0 L 50 68 L 0 68 L 0 0 Z" stroke="none" fill="#000"/>
    </g>
    <g id="Trazado_125863" data-name="Trazado 125863" transform="translate(-1645 -7345)" fill="#0d66bf">
      <path d="M 48.5 102.5 L 0.5 102.5 L 0.5 0.5 L 48.5 0.5 L 48.5 102.5 Z" stroke="none"/>
      <path d="M 1 1 L 1 102 L 48 102 L 48 1 L 1 1 M 0 0 L 49 0 L 49 103 L 0 103 L 0 0 Z" stroke="none" fill="#000"/>
    </g>
    <g id="Trazado_125864" data-name="Trazado 125864" transform="translate(-1597 -7317)" fill="#0d66bf">
      <path d="M 47.5 74.5 L 0.5 74.5 L 0.5 0.5 L 47.5 0.5 L 47.5 74.5 Z" stroke="none"/>
      <path d="M 1 1 L 1 74 L 47 74 L 47 1 L 1 1 M 0 0 L 48 0 L 48 75 L 0 75 L 0 0 Z" stroke="none" fill="#000"/>
    </g>
    <g id="Trazado_125867" data-name="Trazado 125867" transform="translate(-1550 -7257)" fill="#0d66bf">
      <path d="M 47.5 14.5 L 0.5 14.5 L 0.5 0.5 L 47.5 0.5 L 47.5 14.5 Z" stroke="none"/>
      <path d="M 1 1 L 1 14 L 47 14 L 47 1 L 1 1 M 0 0 L 48 0 L 48 15 L 0 15 L 0 0 Z" stroke="none" fill="#000"/>
    </g>
    <g id="Trazado_125866" data-name="Trazado 125866" transform="translate(-1502 -7261)" fill="#0d66bf">
      <path d="M 46.5 18.5 L 0.5 18.5 L 0.5 0.5 L 46.5 0.5 L 46.5 18.5 Z" stroke="none"/>
      <path d="M 1 1 L 1 18 L 46 18 L 46 1 L 1 1 M 0 0 L 47 0 L 47 19 L 0 19 L 0 0 Z" stroke="none" fill="#000"/>
    </g>
    <path id="Trazado_125850" data-name="Trazado 125850" d="M8.923,0H1V-1.1L5.188-5.752A9.939,9.939,0,0,0,6.47-7.467a2.861,2.861,0,0,0,.353-1.365,2.169,2.169,0,0,0-.573-1.552,2,2,0,0,0-1.527-.606,2.372,2.372,0,0,0-1.781.652,2.489,2.489,0,0,0-.635,1.814H.772a3.565,3.565,0,0,1,1.075-2.7,3.985,3.985,0,0,1,2.876-1.029,3.829,3.829,0,0,1,2.665.884,3.015,3.015,0,0,1,.979,2.353q0,1.785-2.274,4.25L2.855-1.253H8.923Zm2.333-6.06.614-6.026h6.192v1.419H13.173l-.365,3.3a3.9,3.9,0,0,1,2.017-.523A3.334,3.334,0,0,1,17.448-6.8a4.278,4.278,0,0,1,.971,2.951A4.129,4.129,0,0,1,17.411-.909,3.676,3.676,0,0,1,14.593.166a3.82,3.82,0,0,1-2.615-.888,3.545,3.545,0,0,1-1.154-2.457h1.453a2.439,2.439,0,0,0,.739,1.565,2.3,2.3,0,0,0,1.577.527,2.072,2.072,0,0,0,1.681-.73,3.054,3.054,0,0,0,.61-2.017,2.8,2.8,0,0,0-.66-1.947,2.245,2.245,0,0,0-1.756-.735,2.532,2.532,0,0,0-1.577.44l-.407.332Z" transform="translate(-2055 -7465)" fill="#6c6c6c"/>
    <path id="Trazado_125869" data-name="Trazado 125869" d="M2.856-5.991H3.875A2.238,2.238,0,0,0,5.383-6.5a1.688,1.688,0,0,0,.549-1.326A1.654,1.654,0,0,0,4.065-9.7a1.943,1.943,0,0,0-1.4.5,1.756,1.756,0,0,0-.524,1.329H.784A2.72,2.72,0,0,1,1.71-9.972a3.375,3.375,0,0,1,2.355-.839,3.335,3.335,0,0,1,2.366.8,2.884,2.884,0,0,1,.857,2.219,2.341,2.341,0,0,1-.45,1.348,2.72,2.72,0,0,1-1.227.974,2.621,2.621,0,0,1,1.359.923,2.563,2.563,0,0,1,.48,1.575A2.909,2.909,0,0,1,6.511-.7,3.511,3.511,0,0,1,4.072.146,3.6,3.6,0,0,1,1.63-.667,2.7,2.7,0,0,1,.688-2.812H2.051A1.743,1.743,0,0,0,2.6-1.465a2.089,2.089,0,0,0,1.472.505,2.05,2.05,0,0,0,1.5-.513,1.976,1.976,0,0,0,.52-1.472,1.793,1.793,0,0,0-.571-1.428,2.489,2.489,0,0,0-1.648-.513H2.856Z" transform="translate(-1934 -7226)" fill="#6c6c6c"/>
    <path id="Trazado_125870" data-name="Trazado 125870" d="M6.606-3.582H8.086v1.106H6.606V0H5.244V-2.476H.388v-.8l4.775-7.39H6.606Zm-4.68,0H5.244V-8.811l-.161.293Z" transform="translate(-1837 -7226)" fill="#6c6c6c"/>
    <path id="Trazado_125871" data-name="Trazado 125871" d="M1.509-5.347l.542-5.317H7.515v1.252H3.2L2.878-6.5a3.441,3.441,0,0,1,1.78-.461A2.942,2.942,0,0,1,6.973-6,3.775,3.775,0,0,1,7.83-3.4,3.643,3.643,0,0,1,6.94-.8,3.243,3.243,0,0,1,4.453.146,3.371,3.371,0,0,1,2.146-.637,3.128,3.128,0,0,1,1.128-2.805H2.41a2.152,2.152,0,0,0,.652,1.381,2.027,2.027,0,0,0,1.392.465A1.828,1.828,0,0,0,5.936-1.6a2.694,2.694,0,0,0,.538-1.78A2.473,2.473,0,0,0,5.892-5.1,1.981,1.981,0,0,0,4.343-5.75a2.234,2.234,0,0,0-1.392.388l-.359.293Z" transform="translate(-1740 -7226)" fill="#6c6c6c"/>
    <path id="Trazado_125872" data-name="Trazado 125872" d="M6.2-10.671v1.15H5.955a3.568,3.568,0,0,0-2.52.938A3.9,3.9,0,0,0,2.351-6.028a2.892,2.892,0,0,1,2.3-.967,2.765,2.765,0,0,1,2.223.981,3.786,3.786,0,0,1,.831,2.534,3.774,3.774,0,0,1-.9,2.637A3.089,3.089,0,0,1,4.4.146,3.044,3.044,0,0,1,1.919-1.029,4.659,4.659,0,0,1,.967-4.058v-.52a7.02,7.02,0,0,1,1.256-4.5,4.613,4.613,0,0,1,3.739-1.593Zm-1.78,4.8a2.162,2.162,0,0,0-1.282.417A2.175,2.175,0,0,0,2.329-4.4v.5A3.5,3.5,0,0,0,2.922-1.78,1.778,1.778,0,0,0,4.4-.974a1.723,1.723,0,0,0,1.439-.674,2.8,2.8,0,0,0,.524-1.765,2.8,2.8,0,0,0-.531-1.776A1.7,1.7,0,0,0,4.424-5.867Z" transform="translate(-1642 -7226)" fill="#6c6c6c"/>
    <path id="Trazado_125873" data-name="Trazado 125873" d="M7.771-9.9,3.354,0H1.934l4.4-9.551H.564v-1.113H7.771Z" transform="translate(-1542 -7226)" fill="#6c6c6c"/>
    <path id="Trazado_125874" data-name="Trazado 125874" d="M7.354-7.881A2.476,2.476,0,0,1,6.932-6.46a2.865,2.865,0,0,1-1.139.974A3.056,3.056,0,0,1,7.115-4.438,2.636,2.636,0,0,1,7.6-2.878a2.787,2.787,0,0,1-.934,2.2,3.588,3.588,0,0,1-2.457.82A3.572,3.572,0,0,1,1.747-.677a2.8,2.8,0,0,1-.927-2.2,2.714,2.714,0,0,1,.472-1.56A2.94,2.94,0,0,1,2.6-5.493a2.8,2.8,0,0,1-1.121-.974,2.512,2.512,0,0,1-.41-1.414,2.757,2.757,0,0,1,.864-2.139,3.242,3.242,0,0,1,2.278-.791,3.245,3.245,0,0,1,2.274.791A2.751,2.751,0,0,1,7.354-7.881ZM6.248-2.908A1.965,1.965,0,0,0,5.68-4.365,2.013,2.013,0,0,0,4.2-4.929a1.978,1.978,0,0,0-1.469.557,1.988,1.988,0,0,0-.553,1.465,1.893,1.893,0,0,0,.538,1.428,2.066,2.066,0,0,0,1.5.52,2.06,2.06,0,0,0,1.494-.524A1.888,1.888,0,0,0,6.248-2.908ZM4.211-9.7A1.748,1.748,0,0,0,2.919-9.2a1.816,1.816,0,0,0-.494,1.344,1.807,1.807,0,0,0,.487,1.315,1.729,1.729,0,0,0,1.3.5,1.729,1.729,0,0,0,1.3-.5A1.807,1.807,0,0,0,6-7.859a1.808,1.808,0,0,0-.505-1.326A1.724,1.724,0,0,0,4.211-9.7Z" transform="translate(-1443 -7226)" fill="#6c6c6c"/>
    <path id="Trazado_125875" data-name="Trazado 125875" d="M7.354-7.881A2.476,2.476,0,0,1,6.932-6.46a2.865,2.865,0,0,1-1.139.974A3.056,3.056,0,0,1,7.115-4.438,2.636,2.636,0,0,1,7.6-2.878a2.787,2.787,0,0,1-.934,2.2,3.588,3.588,0,0,1-2.457.82A3.572,3.572,0,0,1,1.747-.677a2.8,2.8,0,0,1-.927-2.2,2.714,2.714,0,0,1,.472-1.56A2.94,2.94,0,0,1,2.6-5.493a2.8,2.8,0,0,1-1.121-.974,2.512,2.512,0,0,1-.41-1.414,2.757,2.757,0,0,1,.864-2.139,3.242,3.242,0,0,1,2.278-.791,3.245,3.245,0,0,1,2.274.791A2.751,2.751,0,0,1,7.354-7.881ZM6.248-2.908A1.965,1.965,0,0,0,5.68-4.365,2.013,2.013,0,0,0,4.2-4.929a1.978,1.978,0,0,0-1.469.557,1.988,1.988,0,0,0-.553,1.465,1.893,1.893,0,0,0,.538,1.428,2.066,2.066,0,0,0,1.5.52,2.06,2.06,0,0,0,1.494-.524A1.888,1.888,0,0,0,6.248-2.908ZM4.211-9.7A1.748,1.748,0,0,0,2.919-9.2a1.816,1.816,0,0,0-.494,1.344,1.807,1.807,0,0,0,.487,1.315,1.729,1.729,0,0,0,1.3.5,1.729,1.729,0,0,0,1.3-.5A1.807,1.807,0,0,0,6-7.859a1.808,1.808,0,0,0-.505-1.326A1.724,1.724,0,0,0,4.211-9.7Z" transform="translate(-1443 -7226)" fill="#6c6c6c"/>
    <path id="Trazado_125851" data-name="Trazado 125851" d="M8.923,0H1V-1.1L5.188-5.752A9.939,9.939,0,0,0,6.47-7.467a2.861,2.861,0,0,0,.353-1.365,2.169,2.169,0,0,0-.573-1.552,2,2,0,0,0-1.527-.606,2.372,2.372,0,0,0-1.781.652,2.489,2.489,0,0,0-.635,1.814H.772a3.565,3.565,0,0,1,1.075-2.7,3.985,3.985,0,0,1,2.876-1.029,3.829,3.829,0,0,1,2.665.884,3.015,3.015,0,0,1,.979,2.353q0,1.785-2.274,4.25L2.855-1.253H8.923Zm9.206-5.155a7.023,7.023,0,0,1-.921,4.009A3.277,3.277,0,0,1,14.327.166a3.3,3.3,0,0,1-2.864-1.282A6.666,6.666,0,0,1,10.5-4.947V-7a6.867,6.867,0,0,1,.921-3.959,3.3,3.3,0,0,1,2.889-1.295A3.332,3.332,0,0,1,17.183-11a6.627,6.627,0,0,1,.946,3.856Zm-1.536-2.1a5.627,5.627,0,0,0-.548-2.843,1.886,1.886,0,0,0-1.735-.892,1.861,1.861,0,0,0-1.718.888,5.494,5.494,0,0,0-.556,2.731v2.457A5.717,5.717,0,0,0,12.6-2.021a1.882,1.882,0,0,0,1.722.934,1.856,1.856,0,0,0,1.689-.88,5.51,5.51,0,0,0,.577-2.772Z" transform="translate(-2055 -7419)" fill="#6c6c6c"/>
    <path id="Trazado_125854" data-name="Trazado 125854" d="M6.051,0H4.507V-10.235L1.411-9.1v-1.395l4.4-1.652h.241Zm5.2-6.06.614-6.026h6.192v1.419H13.173l-.365,3.3a3.9,3.9,0,0,1,2.017-.523A3.334,3.334,0,0,1,17.448-6.8a4.278,4.278,0,0,1,.971,2.951A4.129,4.129,0,0,1,17.411-.909,3.676,3.676,0,0,1,14.593.166a3.82,3.82,0,0,1-2.615-.888,3.545,3.545,0,0,1-1.154-2.457h1.453a2.439,2.439,0,0,0,.739,1.565,2.3,2.3,0,0,0,1.577.527,2.072,2.072,0,0,0,1.681-.73,3.054,3.054,0,0,0,.61-2.017,2.8,2.8,0,0,0-.66-1.947,2.245,2.245,0,0,0-1.756-.735,2.532,2.532,0,0,0-1.577.44l-.407.332Z" transform="translate(-2055 -7374)" fill="#6c6c6c"/>
    <path id="Trazado_125855" data-name="Trazado 125855" d="M6.051,0H4.507V-10.235L1.411-9.1v-1.395l4.4-1.652h.241ZM18.129-5.155a7.023,7.023,0,0,1-.921,4.009A3.277,3.277,0,0,1,14.327.166a3.3,3.3,0,0,1-2.864-1.282A6.666,6.666,0,0,1,10.5-4.947V-7a6.867,6.867,0,0,1,.921-3.959,3.3,3.3,0,0,1,2.889-1.295A3.332,3.332,0,0,1,17.183-11a6.627,6.627,0,0,1,.946,3.856Zm-1.536-2.1a5.627,5.627,0,0,0-.548-2.843,1.886,1.886,0,0,0-1.735-.892,1.861,1.861,0,0,0-1.718.888,5.494,5.494,0,0,0-.556,2.731v2.457A5.717,5.717,0,0,0,12.6-2.021a1.882,1.882,0,0,0,1.722.934,1.856,1.856,0,0,0,1.689-.88,5.51,5.51,0,0,0,.577-2.772Z" transform="translate(-2055 -7329)" fill="#6c6c6c"/>
    <path id="Trazado_125861" data-name="Trazado 125861" d="M1.509-5.347l.542-5.317H7.515v1.252H3.2L2.878-6.5a3.441,3.441,0,0,1,1.78-.461A2.942,2.942,0,0,1,6.973-6,3.775,3.775,0,0,1,7.83-3.4,3.643,3.643,0,0,1,6.94-.8,3.243,3.243,0,0,1,4.453.146,3.371,3.371,0,0,1,2.146-.637,3.128,3.128,0,0,1,1.128-2.805H2.41a2.152,2.152,0,0,0,.652,1.381,2.027,2.027,0,0,0,1.392.465A1.828,1.828,0,0,0,5.936-1.6a2.694,2.694,0,0,0,.538-1.78A2.473,2.473,0,0,0,5.892-5.1,1.981,1.981,0,0,0,4.343-5.75a2.234,2.234,0,0,0-1.392.388l-.359.293Z" transform="translate(-2055 -7286)" fill="#6c6c6c"/>
    <path id="Trazado_125868" data-name="Trazado 125868" d="M7.573-4.548A6.2,6.2,0,0,1,6.76-1.011,2.891,2.891,0,0,1,4.219.146,2.912,2.912,0,0,1,1.692-.985a5.882,5.882,0,0,1-.85-3.38V-6.174a6.059,6.059,0,0,1,.813-3.494A2.914,2.914,0,0,1,4.2-10.811a2.94,2.94,0,0,1,2.534,1.1,5.847,5.847,0,0,1,.835,3.4ZM6.218-6.4A4.965,4.965,0,0,0,5.735-8.91,1.664,1.664,0,0,0,4.2-9.7a1.642,1.642,0,0,0-1.516.784A4.848,4.848,0,0,0,2.2-6.5v2.168a5.045,5.045,0,0,0,.5,2.552,1.661,1.661,0,0,0,1.52.824,1.638,1.638,0,0,0,1.49-.776,4.862,4.862,0,0,0,.509-2.446Z" transform="translate(-2055 -7239)" fill="#6c6c6c"/>
    <path id="Trazado_125876" data-name="Trazado 125876" d="M7.874,0H.886V-.974l3.691-4.1A8.77,8.77,0,0,0,5.709-6.588a2.524,2.524,0,0,0,.311-1.2,1.913,1.913,0,0,0-.505-1.37A1.767,1.767,0,0,0,4.167-9.7,2.093,2.093,0,0,0,2.6-9.122a2.2,2.2,0,0,0-.56,1.6H.681A3.145,3.145,0,0,1,1.63-9.9a3.516,3.516,0,0,1,2.538-.908,3.379,3.379,0,0,1,2.351.78,2.661,2.661,0,0,1,.864,2.076q0,1.575-2.007,3.75L2.52-1.106H7.874Z" transform="translate(-2031 -7226)" fill="#6c6c6c"/>
    <path id="Trazado_125859" data-name="Trazado 125859" d="M16.2,0h-4.26V-7.422H5.627V0H1.343V-17.773H5.627v7.056h6.311v-7.056H16.2Zm6.86,0H18.933V-13.208h4.126Zm-4.37-16.614a1.836,1.836,0,0,1,.635-1.44,2.4,2.4,0,0,1,1.648-.562,2.4,2.4,0,0,1,1.648.562,1.836,1.836,0,0,1,.635,1.44,1.836,1.836,0,0,1-.635,1.44,2.4,2.4,0,0,1-1.648.562,2.4,2.4,0,0,1-1.648-.562A1.836,1.836,0,0,1,18.689-16.614Zm13.818,12.9a.95.95,0,0,0-.549-.842,8.356,8.356,0,0,0-2.087-.659,9.519,9.519,0,0,1-2.539-.9,4.253,4.253,0,0,1-1.526-1.349,3.221,3.221,0,0,1-.525-1.819,3.651,3.651,0,0,1,1.5-3,6.185,6.185,0,0,1,3.931-1.178,6.853,6.853,0,0,1,4.2,1.184A3.7,3.7,0,0,1,36.5-9.155H32.373q0-1.587-1.672-1.587a1.658,1.658,0,0,0-1.086.36,1.115,1.115,0,0,0-.439.9,1.023,1.023,0,0,0,.537.891,5.075,5.075,0,0,0,1.715.562,14.821,14.821,0,0,1,2.069.525q2.979,1.025,2.979,3.674A3.459,3.459,0,0,1,34.869-.891,7.039,7.039,0,0,1,30.713.244a7.184,7.184,0,0,1-3.027-.61,5.062,5.062,0,0,1-2.075-1.66,3.759,3.759,0,0,1-.745-2.209h3.845a1.59,1.59,0,0,0,.61,1.337,2.511,2.511,0,0,0,1.5.421,1.975,1.975,0,0,0,1.263-.342A1.093,1.093,0,0,0,32.507-3.711ZM43.188-16.492v3.284h2.173v2.856H43.188v6.042a1.543,1.543,0,0,0,.269,1.038,1.44,1.44,0,0,0,1.062.293,6.035,6.035,0,0,0,1.025-.073V-.11a7.592,7.592,0,0,1-2.319.354,4.309,4.309,0,0,1-3.137-1A4.1,4.1,0,0,1,39.075-3.8v-6.555H37.39v-2.856h1.685v-3.284Zm2.905,9.766a7.8,7.8,0,0,1,.769-3.522,5.5,5.5,0,0,1,2.209-2.374,6.654,6.654,0,0,1,3.381-.83,6.073,6.073,0,0,1,4.675,1.837,7.05,7.05,0,0,1,1.709,5v.146a6.84,6.84,0,0,1-1.715,4.9A6.089,6.089,0,0,1,52.478.244a6.159,6.159,0,0,1-4.529-1.691A6.613,6.613,0,0,1,46.106-6.03Zm4.114.256a4.914,4.914,0,0,0,.574,2.686,1.911,1.911,0,0,0,1.7.854q2.2,0,2.246-3.381v-.415q0-3.552-2.271-3.552-2.063,0-2.234,3.064ZM60.168-6.7a8.918,8.918,0,0,1,.659-3.54,5.307,5.307,0,0,1,1.892-2.374,4.988,4.988,0,0,1,2.869-.836,3.966,3.966,0,0,1,3.223,1.392l.146-1.147h3.735V-.5a5.569,5.569,0,0,1-.812,3.033,5.209,5.209,0,0,1-2.35,1.978,8.637,8.637,0,0,1-3.564.69,7.451,7.451,0,0,1-2.814-.549,5.079,5.079,0,0,1-2.081-1.428L62.793.806A3.772,3.772,0,0,0,65.82,2.161q2.734,0,2.734-2.808v-.415A3.863,3.863,0,0,1,65.564.244a4.774,4.774,0,0,1-3.906-1.849,7.662,7.662,0,0,1-1.489-4.95Zm4.126.256a4.7,4.7,0,0,0,.61,2.57,1.926,1.926,0,0,0,1.709.946,2.185,2.185,0,0,0,1.941-.891V-9.375a2.13,2.13,0,0,0-1.917-.9,1.938,1.938,0,0,0-1.721.983A5.358,5.358,0,0,0,64.294-6.445ZM83.02-9.485l-1.355-.1a2.434,2.434,0,0,0-2.49,1.221V0H75.061V-13.208h3.857l.134,1.7a3.186,3.186,0,0,1,2.893-1.941,4.012,4.012,0,0,1,1.147.146ZM91.577,0a4.645,4.645,0,0,1-.391-1.184A3.825,3.825,0,0,1,88.013.244,4.686,4.686,0,0,1,84.839-.885a3.594,3.594,0,0,1-1.306-2.838A3.694,3.694,0,0,1,85.12-6.97a8.085,8.085,0,0,1,4.614-1.1H91v-.7q0-1.819-1.575-1.819a1.284,1.284,0,0,0-1.465,1.44H83.85a3.693,3.693,0,0,1,1.63-3.113,6.843,6.843,0,0,1,4.156-1.2,6,6,0,0,1,3.992,1.233,4.287,4.287,0,0,1,1.5,3.381v5.847a5.988,5.988,0,0,0,.562,2.783V0ZM89-2.686a2.3,2.3,0,0,0,1.276-.33A2.066,2.066,0,0,0,91-3.76V-5.872h-1.2q-2.148,0-2.148,1.929a1.178,1.178,0,0,0,.378.909A1.369,1.369,0,0,0,89-2.686Zm12.292-10.522.134,1.55a4.541,4.541,0,0,1,3.772-1.794,3.343,3.343,0,0,1,3.381,1.99,4.4,4.4,0,0,1,3.882-1.99q4.016,0,4.126,4.858V0h-4.126V-8.337a2.518,2.518,0,0,0-.342-1.477,1.455,1.455,0,0,0-1.245-.464,1.949,1.949,0,0,0-1.819,1.086l.012.171V0h-4.126V-8.313a2.647,2.647,0,0,0-.33-1.5,1.451,1.451,0,0,0-1.257-.464,1.973,1.973,0,0,0-1.807,1.086V0H97.437V-13.208ZM126.379,0a4.645,4.645,0,0,1-.391-1.184A3.825,3.825,0,0,1,122.815.244a4.686,4.686,0,0,1-3.174-1.129,3.594,3.594,0,0,1-1.306-2.838,3.694,3.694,0,0,1,1.587-3.247,8.085,8.085,0,0,1,4.614-1.1h1.27v-.7q0-1.819-1.575-1.819a1.284,1.284,0,0,0-1.465,1.44h-4.114a3.693,3.693,0,0,1,1.63-3.113,6.843,6.843,0,0,1,4.156-1.2,6,6,0,0,1,3.992,1.233,4.287,4.287,0,0,1,1.5,3.381v5.847a5.988,5.988,0,0,0,.562,2.783V0ZM123.8-2.686a2.3,2.3,0,0,0,1.276-.33,2.066,2.066,0,0,0,.726-.745V-5.872h-1.2q-2.148,0-2.148,1.929a1.178,1.178,0,0,0,.378.909A1.369,1.369,0,0,0,123.8-2.686Z" transform="translate(-1798 -7513)" fill="#12263f"/>
    <path id="Trazado_125852" data-name="Trazado 125852" d="M9.018-5.965H3.349V0H1.568V-13.508H9.936v1.466H3.349v4.62H9.018ZM16.412-8.5a5.143,5.143,0,0,0-.844-.065,2.262,2.262,0,0,0-2.292,1.438V0H11.56V-10.038h1.67l.028,1.16a2.672,2.672,0,0,1,2.394-1.345,1.753,1.753,0,0,1,.761.13ZM21.978.186a4.386,4.386,0,0,1-3.321-1.341,4.976,4.976,0,0,1-1.28-3.586v-.315a6.024,6.024,0,0,1,.571-2.667,4.451,4.451,0,0,1,1.6-1.837,4.012,4.012,0,0,1,2.222-.663,3.759,3.759,0,0,1,3.043,1.29,5.583,5.583,0,0,1,1.085,3.692v.714h-6.8a3.568,3.568,0,0,0,.867,2.4,2.727,2.727,0,0,0,2.111.914,2.989,2.989,0,0,0,1.54-.371,3.87,3.87,0,0,0,1.1-.983l1.048.816A4.215,4.215,0,0,1,21.978.186Zm-.213-9a2.289,2.289,0,0,0-1.744.756,3.675,3.675,0,0,0-.872,2.12h5.028v-.13a3.269,3.269,0,0,0-.705-2.027A2.155,2.155,0,0,0,21.765-8.813Zm10.14,7.6a2.472,2.472,0,0,0,1.6-.557,1.958,1.958,0,0,0,.761-1.392h1.624A3.112,3.112,0,0,1,35.3-1.521,3.911,3.911,0,0,1,33.839-.278,4.216,4.216,0,0,1,31.9.186a4.135,4.135,0,0,1-3.261-1.368,5.45,5.45,0,0,1-1.211-3.743v-.288a6.043,6.043,0,0,1,.538-2.607,4.1,4.1,0,0,1,1.545-1.772,4.388,4.388,0,0,1,2.38-.631A4.026,4.026,0,0,1,34.7-9.212a3.614,3.614,0,0,1,1.192,2.625H34.271a2.365,2.365,0,0,0-.738-1.6A2.294,2.294,0,0,0,31.9-8.813a2.4,2.4,0,0,0-2.027.942,4.422,4.422,0,0,0-.719,2.723v.325a4.334,4.334,0,0,0,.714,2.672A2.414,2.414,0,0,0,31.9-1.215Zm12.116.223A3.646,3.646,0,0,1,41.08.186a3.12,3.12,0,0,1-2.445-.932,4.036,4.036,0,0,1-.849-2.76v-6.531H39.5v6.485q0,2.282,1.855,2.282a2.569,2.569,0,0,0,2.616-1.466v-7.3h1.716V0H44.058ZM52.463.186a4.386,4.386,0,0,1-3.321-1.341,4.976,4.976,0,0,1-1.28-3.586v-.315a6.024,6.024,0,0,1,.571-2.667,4.451,4.451,0,0,1,1.6-1.837,4.012,4.012,0,0,1,2.222-.663,3.759,3.759,0,0,1,3.043,1.29,5.583,5.583,0,0,1,1.085,3.692v.714h-6.8a3.568,3.568,0,0,0,.867,2.4,2.727,2.727,0,0,0,2.111.914,2.989,2.989,0,0,0,1.54-.371,3.869,3.869,0,0,0,1.1-.983l1.048.816A4.215,4.215,0,0,1,52.463.186Zm-.213-9a2.289,2.289,0,0,0-1.744.756,3.675,3.675,0,0,0-.872,2.12h5.028v-.13a3.269,3.269,0,0,0-.705-2.027A2.155,2.155,0,0,0,52.25-8.813Zm7.737-1.225.056,1.262a3.658,3.658,0,0,1,3.006-1.447q3.182,0,3.21,3.59V0H64.542V-6.643a2.311,2.311,0,0,0-.5-1.6,1.989,1.989,0,0,0-1.517-.52,2.477,2.477,0,0,0-1.466.445,3.024,3.024,0,0,0-.983,1.169V0H58.364V-10.038ZM72.874-1.215a2.472,2.472,0,0,0,1.6-.557,1.958,1.958,0,0,0,.761-1.392h1.624a3.112,3.112,0,0,1-.594,1.642A3.911,3.911,0,0,1,74.808-.278a4.216,4.216,0,0,1-1.934.464,4.135,4.135,0,0,1-3.261-1.368A5.45,5.45,0,0,1,68.4-4.926v-.288a6.043,6.043,0,0,1,.538-2.607,4.1,4.1,0,0,1,1.545-1.772,4.388,4.388,0,0,1,2.38-.631,4.026,4.026,0,0,1,2.806,1.011,3.614,3.614,0,0,1,1.192,2.625H75.239a2.365,2.365,0,0,0-.738-1.6,2.294,2.294,0,0,0-1.637-.626,2.4,2.4,0,0,0-2.027.942,4.422,4.422,0,0,0-.719,2.723v.325a4.334,4.334,0,0,0,.714,2.672A2.414,2.414,0,0,0,72.874-1.215ZM80.657,0H78.941V-10.038h1.716ZM78.8-12.7a1.025,1.025,0,0,1,.255-.705.958.958,0,0,1,.756-.288.973.973,0,0,1,.761.288,1.014,1.014,0,0,1,.26.705.98.98,0,0,1-.26.7.99.99,0,0,1-.761.278A.975.975,0,0,1,79.057-12,.991.991,0,0,1,78.8-12.7ZM89.6,0a3.605,3.605,0,0,1-.241-1.058A3.829,3.829,0,0,1,86.5.186a3.543,3.543,0,0,1-2.435-.84,2.716,2.716,0,0,1-.951-2.129,2.838,2.838,0,0,1,1.192-2.435,5.621,5.621,0,0,1,3.354-.867h1.67v-.789a1.928,1.928,0,0,0-.538-1.433,2.163,2.163,0,0,0-1.586-.533,2.5,2.5,0,0,0-1.54.464,1.367,1.367,0,0,0-.622,1.123H83.32a2.369,2.369,0,0,1,.533-1.452A3.641,3.641,0,0,1,85.3-9.815a4.869,4.869,0,0,1,2.009-.408,3.968,3.968,0,0,1,2.718.867,3.129,3.129,0,0,1,1.021,2.389v4.62a5.649,5.649,0,0,0,.353,2.2V0ZM86.752-1.308a3.016,3.016,0,0,0,1.531-.417,2.525,2.525,0,0,0,1.048-1.085v-2.06H87.986q-3.154,0-3.154,1.846a1.562,1.562,0,0,0,.538,1.262A2.068,2.068,0,0,0,86.752-1.308ZM106.17-3.525h-5.659L99.24,0H97.4l5.158-13.508h1.559L109.287,0h-1.828Zm-5.121-1.466h4.592l-2.3-6.318Zm18.286.083a5.969,5.969,0,0,1-1.058,3.7,3.379,3.379,0,0,1-2.839,1.4A3.5,3.5,0,0,1,112.5-1.16L112.414,0h-1.577V-14.25h1.716v5.316a3.479,3.479,0,0,1,2.867-1.29,3.4,3.4,0,0,1,2.871,1.382,6.148,6.148,0,0,1,1.044,3.785ZM117.618-5.1a4.638,4.638,0,0,0-.677-2.709,2.242,2.242,0,0,0-1.948-.956,2.52,2.52,0,0,0-2.44,1.577v4.342a2.59,2.59,0,0,0,2.458,1.577,2.23,2.23,0,0,0,1.92-.956A4.932,4.932,0,0,0,117.618-5.1Zm9.723,2.44a1.263,1.263,0,0,0-.524-1.081,5.045,5.045,0,0,0-1.828-.663,8.641,8.641,0,0,1-2.069-.668A2.943,2.943,0,0,1,121.788-6a2.219,2.219,0,0,1-.366-1.28,2.6,2.6,0,0,1,1.044-2.087,4.076,4.076,0,0,1,2.667-.854,4.194,4.194,0,0,1,2.769.881,2.8,2.8,0,0,1,1.062,2.254h-1.726a1.549,1.549,0,0,0-.6-1.215,2.242,2.242,0,0,0-1.508-.51,2.347,2.347,0,0,0-1.466.408,1.285,1.285,0,0,0-.529,1.067,1.041,1.041,0,0,0,.492.937,6.05,6.05,0,0,0,1.777.6,9.257,9.257,0,0,1,2.083.687,3.038,3.038,0,0,1,1.183.96,2.361,2.361,0,0,1,.385,1.368,2.569,2.569,0,0,1-1.076,2.157,4.514,4.514,0,0,1-2.792.812,5.055,5.055,0,0,1-2.134-.427A3.47,3.47,0,0,1,121.6-1.433a2.873,2.873,0,0,1-.524-1.656h1.716a1.777,1.777,0,0,0,.691,1.368,2.681,2.681,0,0,0,1.7.506,2.768,2.768,0,0,0,1.563-.394A1.212,1.212,0,0,0,127.341-2.663Zm3.5-2.449a5.929,5.929,0,0,1,.58-2.653,4.325,4.325,0,0,1,1.614-1.818,4.394,4.394,0,0,1,2.361-.64A4.233,4.233,0,0,1,138.71-8.8a5.461,5.461,0,0,1,1.266,3.776v.121a5.981,5.981,0,0,1-.561,2.63,4.262,4.262,0,0,1-1.6,1.814,4.445,4.445,0,0,1-2.4.649A4.223,4.223,0,0,1,132.1-1.234a5.433,5.433,0,0,1-1.266-3.757Zm1.726.2a4.294,4.294,0,0,0,.775,2.681,2.479,2.479,0,0,0,2.073,1.011A2.464,2.464,0,0,0,137.49-2.24a4.7,4.7,0,0,0,.77-2.871,4.287,4.287,0,0,0-.784-2.677,2.492,2.492,0,0,0-2.083-1.025,2.465,2.465,0,0,0-2.05,1.011A4.661,4.661,0,0,0,132.564-4.908ZM143.994,0h-1.716V-14.25h1.716Zm8.943-.993A3.646,3.646,0,0,1,150,.186a3.12,3.12,0,0,1-2.445-.932,4.036,4.036,0,0,1-.849-2.76v-6.531h1.716v6.485q0,2.282,1.855,2.282a2.569,2.569,0,0,0,2.616-1.466v-7.3h1.716V0h-1.633Zm6.605-11.476v2.431h1.874v1.327h-1.874v6.225a1.39,1.39,0,0,0,.25.9,1.055,1.055,0,0,0,.854.3,4.155,4.155,0,0,0,.816-.111V0a4.976,4.976,0,0,1-1.317.186,2.137,2.137,0,0,1-1.735-.7,2.989,2.989,0,0,1-.584-1.976V-8.711H156v-1.327h1.828v-2.431ZM169.618,0a3.605,3.605,0,0,1-.241-1.058A3.829,3.829,0,0,1,166.519.186a3.543,3.543,0,0,1-2.435-.84,2.716,2.716,0,0,1-.951-2.129,2.838,2.838,0,0,1,1.192-2.435,5.621,5.621,0,0,1,3.354-.867h1.67v-.789a1.928,1.928,0,0,0-.538-1.433,2.163,2.163,0,0,0-1.586-.533,2.5,2.5,0,0,0-1.54.464,1.367,1.367,0,0,0-.622,1.123h-1.726a2.369,2.369,0,0,1,.533-1.452,3.641,3.641,0,0,1,1.447-1.109,4.869,4.869,0,0,1,2.009-.408,3.968,3.968,0,0,1,2.718.867,3.129,3.129,0,0,1,1.021,2.389v4.62a5.648,5.648,0,0,0,.353,2.2V0ZM166.77-1.308a3.016,3.016,0,0,0,1.531-.417,2.525,2.525,0,0,0,1.048-1.085v-2.06H168q-3.154,0-3.154,1.846a1.562,1.562,0,0,0,.538,1.262A2.068,2.068,0,0,0,166.77-1.308Z" transform="translate(-2086 -7257) rotate(-90)" fill="#12263f"/>
    <g id="Trazado_125853" data-name="Trazado 125853" transform="translate(-2027 -7474)" fill="none">
      <path d="M0,0H592V232H0Z" stroke="none"/>
      <path d="M 1 1 L 1 231 L 591 231 L 591 1 L 1 1 M 0 0 L 592 0 L 592 232 L 0 232 L 0 0 Z" stroke="none" fill="#b5b5b5"/>
    </g>
    <path id="Trazado_125125" data-name="Trazado 125125" d="M-468-8995.711h5.758" transform="translate(-1563.77 1522.034)" fill="none" stroke="#b1b1b1" stroke-width="1"/>
    <path id="Trazado_125126" data-name="Trazado 125126" d="M-468-8995.711h5.758" transform="translate(-1563.77 1571.892)" fill="none" stroke="#b1b1b1" stroke-width="1"/>
    <path id="Trazado_125127" data-name="Trazado 125127" d="M-468-8995.711h5.758" transform="translate(-1563.77 1615.814)" fill="none" stroke="#b1b1b1" stroke-width="1"/>
    <path id="Trazado_125128" data-name="Trazado 125128" d="M-468-8995.711h5.758" transform="translate(-1563.77 1661.517)" fill="none" stroke="#b1b1b1" stroke-width="1"/>
    <path id="Trazado_125129" data-name="Trazado 125129" d="M-468-8995.711h5.758" transform="translate(-1563.77 1705.44)" fill="none" stroke="#b1b1b1" stroke-width="1"/>
    <path id="Trazado_125130" data-name="Trazado 125130" d="M-468-8995.711h5.758" transform="translate(-1563.77 1751.737)" fill="none" stroke="#b1b1b1" stroke-width="1"/>
  </g>
</svg>
