<svg xmlns="http://www.w3.org/2000/svg" width="823" height="412" viewBox="0 0 823 412">
  <g id="Grupo_84680" data-name="Grupo 84680" transform="translate(2172 8676)">
    <path id="Trazado_125100" data-name="Trazado 125100" d="M-566-8829.878H174.917" transform="translate(-1524 425.878)" fill="none" stroke="#d8d8d8" stroke-width="1"/>
    <path id="Trazado_125089" data-name="Trazado 125089" d="M-532.875-8915.32l24.69-85.641,26.208,141.328,26.086-172.089,23.919,147.823,25.125-90.219,24.276,86.708,24.87-27.911,23.1,27.911,25.737-27.911,26.81-85.641,23.341,85.641,25.529-88.492,25.214,88.492h25.43l26.37-30h22.906l24.453-58.489,50.945,116.4L-33.8-8915.32l24.625-58.8,24.828,28.794,26.289-28.794,24.62,28.794" transform="translate(-1553 484)" fill="none" stroke="#0d66bf" stroke-width="1"/>
    <text id="_0_3" data-name="0,3" transform="translate(-2078 -8418)" fill="#6c6c6c" font-size="15" font-family="Roboto-Regular, Roboto"><tspan x="0" y="0">0,3</tspan></text>
    <text id="_0_1" data-name="0,1" transform="translate(-2027 -8371)" fill="#6c6c6c" font-size="15" font-family="Roboto-Regular, Roboto"><tspan x="0" y="0">0,1</tspan></text>
    <text id="_0_7" data-name="0,7" transform="translate(-2001 -8540)" fill="#6c6c6c" font-size="15" font-family="Roboto-Regular, Roboto"><tspan x="0" y="0">0,7</tspan></text>
    <text id="_0_2" data-name="0,2" transform="translate(-1981 -8400)" fill="#6c6c6c" font-size="15" font-family="Roboto-Regular, Roboto"><tspan x="0" y="0">0,2</tspan></text>
    <text id="_0_5" data-name="0,5" transform="translate(-1953 -8483)" fill="#6c6c6c" font-size="15" font-family="Roboto-Regular, Roboto"><tspan x="0" y="0">0,5</tspan></text>
    <text id="_0_2-2" data-name="0,2" transform="translate(-1928 -8398)" fill="#6c6c6c" font-size="15" font-family="Roboto-Regular, Roboto"><tspan x="0" y="0">0,2</tspan></text>
    <text id="_0_3-2" data-name="0,3" transform="translate(-1901 -8422)" fill="#6c6c6c" font-size="15" font-family="Roboto-Regular, Roboto"><tspan x="0" y="0">0,3</tspan></text>
    <text id="_0_2-3" data-name="0,2" transform="translate(-1877 -8398)" fill="#6c6c6c" font-size="15" font-family="Roboto-Regular, Roboto"><tspan x="0" y="0">0,2</tspan></text>
    <text id="_0_3-3" data-name="0,3" transform="translate(-1854 -8421)" fill="#6c6c6c" font-size="15" font-family="Roboto-Regular, Roboto"><tspan x="0" y="0">0,3</tspan></text>
    <text id="_0_3-4" data-name="0,3" transform="translate(-1757 -8412)" fill="#6c6c6c" font-size="15" font-family="Roboto-Regular, Roboto"><tspan x="0" y="0">0,3</tspan></text>
    <text id="_0_3-5" data-name="0,3" transform="translate(-1728 -8421)" fill="#6c6c6c" font-size="15" font-family="Roboto-Regular, Roboto"><tspan x="0" y="0">0,3</tspan></text>
    <text id="_0_4" data-name="0,4" transform="translate(-1708 -8469)" fill="#12263f" font-size="15" font-family="Roboto-Regular, Roboto"><tspan x="0" y="0">0,4</tspan></text>
    <text id="_0_4-2" data-name="0,4" transform="translate(-1680 -8455)" fill="#6c6c6c" font-size="15" font-family="Roboto-Regular, Roboto"><tspan x="0" y="0">0,4</tspan></text>
    <text id="_0_4-3" data-name="0,4" transform="translate(-1629 -8455)" fill="#6c6c6c" font-size="15" font-family="Roboto-Regular, Roboto"><tspan x="0" y="0">0,4</tspan></text>
    <text id="_0_2-4" data-name="0,2" transform="translate(-1603 -8398)" fill="#6c6c6c" font-size="15" font-family="Roboto-Regular, Roboto"><tspan x="0" y="0">0,2</tspan></text>
    <text id="_0_3-6" data-name="0,3" transform="translate(-1580 -8420)" fill="#6c6c6c" font-size="15" font-family="Roboto-Regular, Roboto"><tspan x="0" y="0">0,3</tspan></text>
    <text id="_0_5-2" data-name="0,5" transform="translate(-1555 -8483)" fill="#6c6c6c" font-size="15" font-family="Roboto-Regular, Roboto"><tspan x="0" y="0">0,5</tspan></text>
    <text id="_0_4-4" data-name="0,4" transform="translate(-1532 -8455)" fill="#6c6c6c" font-size="15" font-family="Roboto-Regular, Roboto"><tspan x="0" y="0">0,4</tspan></text>
    <text id="_0_5-3" data-name="0,5" transform="translate(-1504 -8483)" fill="#6c6c6c" font-size="15" font-family="Roboto-Regular, Roboto"><tspan x="0" y="0">0,5</tspan></text>
    <text id="_0_4-5" data-name="0,4" transform="translate(-1491 -8443)" fill="#6c6c6c" font-size="15" font-family="Roboto-Regular, Roboto"><tspan x="0" y="0">0,4</tspan></text>
    <path id="Trazado_125090" data-name="Trazado 125090" d="M87.941-8975.793h17.23" transform="translate(-1531 474)" fill="none" stroke="#0d66bf" stroke-width="2"/>
    <path id="Trazado_125091" data-name="Trazado 125091" d="M87.941-8975.793h17.23" transform="translate(-1531 500.793)" fill="none" stroke="#db6e5f" stroke-width="2"/>
    <path id="Trazado_125092" data-name="Trazado 125092" d="M87.941-8975.793h17.23" transform="translate(-1531 529.793)" fill="none" stroke="#70b446" stroke-width="2"/>
    <path id="Trazado_125093" data-name="Trazado 125093" d="M87.941-8975.793h17.23" transform="translate(-1531 556.586)" fill="none" stroke="#d93ae6" stroke-width="2"/>
    <circle id="Elipse_4818" data-name="Elipse 4818" cx="4" cy="4" r="4" transform="translate(-2090 -8439)" fill="#0d66bf"/>
    <circle id="Elipse_4819" data-name="Elipse 4819" cx="4" cy="4" r="4" transform="translate(-2065 -8521)" fill="#0d66bf"/>
    <circle id="Elipse_4820" data-name="Elipse 4820" cx="4" cy="4" r="4" transform="translate(-2039 -8382)" fill="#0d66bf"/>
    <circle id="Elipse_4821" data-name="Elipse 4821" cx="4" cy="4" r="4" transform="translate(-2013 -8549)" fill="#0d66bf"/>
    <circle id="Elipse_4822" data-name="Elipse 4822" cx="4" cy="4" r="4" transform="translate(-1989 -8407)" fill="#0d66bf"/>
    <circle id="Elipse_4823" data-name="Elipse 4823" cx="4" cy="4" r="4" transform="translate(-1964 -8496)" fill="#0d66bf"/>
    <circle id="Elipse_4824" data-name="Elipse 4824" cx="4" cy="4" r="4" transform="translate(-1939 -8409)" fill="#0d66bf"/>
    <circle id="Elipse_4825" data-name="Elipse 4825" cx="4" cy="4" r="4" transform="translate(-1915 -8435)" fill="#0d66bf"/>
    <circle id="Elipse_4826" data-name="Elipse 4826" cx="4" cy="4" r="4" transform="translate(-1892 -8409)" fill="#0d66bf"/>
    <circle id="Elipse_4827" data-name="Elipse 4827" cx="4" cy="4" r="4" transform="translate(-1865 -8435)" fill="#0d66bf"/>
    <circle id="Elipse_4828" data-name="Elipse 4828" cx="4" cy="4" r="4" transform="translate(-1839 -8521)" fill="#0d66bf"/>
    <circle id="Elipse_4829" data-name="Elipse 4829" cx="4" cy="4" r="4" transform="translate(-1816 -8435)" fill="#0d66bf"/>
    <circle id="Elipse_4830" data-name="Elipse 4830" cx="4" cy="4" r="4" transform="translate(-1790 -8523)" fill="#0d66bf"/>
    <circle id="Elipse_4831" data-name="Elipse 4831" cx="4" cy="4" r="4" transform="translate(-1765 -8435)" fill="#0d66bf"/>
    <circle id="Elipse_4832" data-name="Elipse 4832" cx="4" cy="4" r="4" transform="translate(-1739 -8435)" fill="#0d66bf"/>
    <circle id="Elipse_4833" data-name="Elipse 4833" cx="4" cy="4" r="4" transform="translate(-1714 -8465)" fill="#0d66bf"/>
    <circle id="Elipse_4834" data-name="Elipse 4834" cx="4" cy="4" r="4" transform="translate(-1689 -8465)" fill="#0d66bf"/>
    <circle id="Elipse_4835" data-name="Elipse 4835" cx="4" cy="4" r="4" transform="translate(-1665 -8523)" fill="#0d66bf"/>
    <circle id="Elipse_4836" data-name="Elipse 4836" cx="4" cy="4" r="4" transform="translate(-1615 -8409)" fill="#0d66bf"/>
    <circle id="Elipse_4837" data-name="Elipse 4837" cx="4" cy="4" r="4" transform="translate(-1591 -8436)" fill="#0d66bf"/>
    <circle id="Elipse_4838" data-name="Elipse 4838" cx="4" cy="4" r="4" transform="translate(-1566 -8493)" fill="#0d66bf"/>
    <circle id="Elipse_4839" data-name="Elipse 4839" cx="4" cy="4" r="4" transform="translate(-1541 -8466)" fill="#0d66bf"/>
    <circle id="Elipse_4840" data-name="Elipse 4840" cx="4" cy="4" r="4" transform="translate(-1516 -8493)" fill="#0d66bf"/>
    <circle id="Elipse_4841" data-name="Elipse 4841" cx="4" cy="4" r="4" transform="translate(-1490 -8464)" fill="#0d66bf"/>
    <path id="Trazado_125094" data-name="Trazado 125094" d="M-532.875-9077.033H66.84" transform="translate(-1553 484)" fill="none" stroke="#70b446" stroke-width="2"/>
    <path id="Trazado_125095" data-name="Trazado 125095" d="M-532.875-9077.033H66.84" transform="translate(-1553 759)" fill="none" stroke="#d93ae6" stroke-width="2"/>
    <text id="_0_3-7" data-name="0,3" transform="translate(-1803 -8421)" fill="#6c6c6c" font-size="15" font-family="Roboto-Regular, Roboto"><tspan x="0" y="0">0,3</tspan></text>
    <path id="Trazado_125096" data-name="Trazado 125096" d="M-532.875-9077.033H66.84" transform="translate(-1553 642.033)" fill="none" stroke="#db6e5f" stroke-width="2"/>
    <text id="_1_0" data-name="1,0" transform="translate(-2121 -8626)" fill="#6c6c6c" font-size="15" font-family="Roboto-Regular, Roboto"><tspan x="0" y="0">1,0</tspan></text>
    <text id="_0_8" data-name="0,8" transform="translate(-2121 -8569)" fill="#6c6c6c" font-size="15" font-family="Roboto-Regular, Roboto"><tspan x="0" y="0">0,8</tspan></text>
    <text id="_0_6" data-name="0,6" transform="translate(-2121 -8512)" fill="#6c6c6c" font-size="15" font-family="Roboto-Regular, Roboto"><tspan x="0" y="0">0,6</tspan></text>
    <text id="_0_4-6" data-name="0,4" transform="translate(-2121 -8455)" fill="#6c6c6c" font-size="15" font-family="Roboto-Regular, Roboto"><tspan x="0" y="0">0,4</tspan></text>
    <text id="_0_2-5" data-name="0,2" transform="translate(-2121 -8398)" fill="#6c6c6c" font-size="15" font-family="Roboto-Regular, Roboto"><tspan x="0" y="0">0,2</tspan></text>
    <text id="_-0_2" data-name="-0,2" transform="translate(-2125 -8286)" fill="#6c6c6c" font-size="15" font-family="Roboto-Regular, Roboto"><tspan x="0" y="0">-0,2</tspan></text>
    <text id="_1" data-name="1" transform="translate(-2090 -8268)" fill="#6c6c6c" font-size="15" font-family="Roboto-Regular, Roboto"><tspan x="0" y="0">1</tspan></text>
    <text id="_2" data-name="2" transform="translate(-2065 -8268)" fill="#6c6c6c" font-size="15" font-family="Roboto-Regular, Roboto"><tspan x="0" y="0">2</tspan></text>
    <text id="_3" data-name="3" transform="translate(-2038 -8268)" fill="#6c6c6c" font-size="15" font-family="Roboto-Regular, Roboto"><tspan x="0" y="0">3</tspan></text>
    <text id="_4" data-name="4" transform="translate(-2013 -8268)" fill="#6c6c6c" font-size="15" font-family="Roboto-Regular, Roboto"><tspan x="0" y="0">4</tspan></text>
    <text id="_5" data-name="5" transform="translate(-1988 -8268)" fill="#6c6c6c" font-size="15" font-family="Roboto-Regular, Roboto"><tspan x="0" y="0">5</tspan></text>
    <text id="_6" data-name="6" transform="translate(-1961 -8268)" fill="#6c6c6c" font-size="15" font-family="Roboto-Regular, Roboto"><tspan x="0" y="0">6</tspan></text>
    <text id="_7" data-name="7" transform="translate(-1939 -8268)" fill="#6c6c6c" font-size="15" font-family="Roboto-Regular, Roboto"><tspan x="0" y="0">7</tspan></text>
    <text id="_8" data-name="8" transform="translate(-1914 -8268)" fill="#6c6c6c" font-size="15" font-family="Roboto-Regular, Roboto"><tspan x="0" y="0">8</tspan></text>
    <text id="_9" data-name="9" transform="translate(-1887 -8268)" fill="#6c6c6c" font-size="15" font-family="Roboto-Regular, Roboto"><tspan x="0" y="0">9</tspan></text>
    <text id="_10" data-name="10" transform="translate(-1868 -8268)" fill="#6c6c6c" font-size="15" font-family="Roboto-Regular, Roboto"><tspan x="0" y="0">10</tspan></text>
    <text id="_11" data-name="11" transform="translate(-1842 -8268)" fill="#6c6c6c" font-size="15" font-family="Roboto-Regular, Roboto"><tspan x="0" y="0">11</tspan></text>
    <text id="_12" data-name="12" transform="translate(-1816 -8268)" fill="#6c6c6c" font-size="15" font-family="Roboto-Regular, Roboto"><tspan x="0" y="0">12</tspan></text>
    <text id="_13" data-name="13" transform="translate(-1793 -8268)" fill="#6c6c6c" font-size="15" font-family="Roboto-Regular, Roboto"><tspan x="0" y="0">13</tspan></text>
    <text id="_14" data-name="14" transform="translate(-1770 -8268)" fill="#6c6c6c" font-size="15" font-family="Roboto-Regular, Roboto"><tspan x="0" y="0">14</tspan></text>
    <text id="_15" data-name="15" transform="translate(-1744 -8268)" fill="#6c6c6c" font-size="15" font-family="Roboto-Regular, Roboto"><tspan x="0" y="0">15</tspan></text>
    <text id="_16" data-name="16" transform="translate(-1721 -8268)" fill="#6c6c6c" font-size="15" font-family="Roboto-Regular, Roboto"><tspan x="0" y="0">16</tspan></text>
    <text id="_17" data-name="17" transform="translate(-1695 -8268)" fill="#6c6c6c" font-size="15" font-family="Roboto-Regular, Roboto"><tspan x="0" y="0">17</tspan></text>
    <text id="_18" data-name="18" transform="translate(-1669 -8268)" fill="#6c6c6c" font-size="15" font-family="Roboto-Regular, Roboto"><tspan x="0" y="0">18</tspan></text>
    <text id="_19" data-name="19" transform="translate(-1646 -8268)" fill="#6c6c6c" font-size="15" font-family="Roboto-Regular, Roboto"><tspan x="0" y="0">19</tspan></text>
    <text id="_20" data-name="20" transform="translate(-1620 -8268)" fill="#6c6c6c" font-size="15" font-family="Roboto-Regular, Roboto"><tspan x="0" y="0">20</tspan></text>
    <text id="_21" data-name="21" transform="translate(-1594 -8268)" fill="#6c6c6c" font-size="15" font-family="Roboto-Regular, Roboto"><tspan x="0" y="0">21</tspan></text>
    <text id="_22" data-name="22" transform="translate(-1571 -8268)" fill="#6c6c6c" font-size="15" font-family="Roboto-Regular, Roboto"><tspan x="0" y="0">22</tspan></text>
    <text id="_23" data-name="23" transform="translate(-1543 -8268)" fill="#6c6c6c" font-size="15" font-family="Roboto-Regular, Roboto"><tspan x="0" y="0">23</tspan></text>
    <text id="_24" data-name="24" transform="translate(-1517 -8268)" fill="#6c6c6c" font-size="15" font-family="Roboto-Regular, Roboto"><tspan x="0" y="0">24</tspan></text>
    <text id="_25" data-name="25" transform="translate(-1494 -8268)" fill="#6c6c6c" font-size="15" font-family="Roboto-Regular, Roboto"><tspan x="0" y="0">25</tspan></text>
    <text id="Rango" transform="translate(-1416 -8497)" fill="#6c6c6c" font-size="15" font-family="Roboto-Regular, Roboto"><tspan x="0" y="0">Rango</tspan></text>
    <text id="LC" transform="translate(-1416 -8469)" fill="#6c6c6c" font-size="15" font-family="Roboto-Regular, Roboto"><tspan x="0" y="0">LC</tspan></text>
    <text id="LS" transform="translate(-1416 -8441)" fill="#6c6c6c" font-size="15" font-family="Roboto-Regular, Roboto"><tspan x="0" y="0">LS</tspan></text>
    <text id="LI" transform="translate(-1413 -8413)" fill="#6c6c6c" font-size="15" font-family="Roboto-Regular, Roboto"><tspan x="0" y="0">LI</tspan></text>
    <text id="Gráfico_de_Control_X-R" data-name="Gráfico de Control X-R" transform="translate(-1881 -8655)" fill="#12263f" font-size="22" font-family="Roboto-Black, Roboto" font-weight="800"><tspan x="0" y="0">Gráfico de Control X-R</tspan></text>
    <text id="Desviaciones" transform="translate(-2155 -8409) rotate(-90)" fill="#12263f" font-size="18" font-family="Roboto-Black, Roboto" font-weight="800"><tspan x="0" y="0">Desviaciones</tspan></text>
    <g id="Rectángulo_33933" data-name="Rectángulo 33933" transform="translate(-2090 -8631)" fill="none" stroke="#ccc" stroke-width="1">
      <rect width="741" height="340" stroke="none"/>
      <rect x="0.5" y="0.5" width="740" height="339" fill="none"/>
    </g>
    <path id="Trazado_125097" data-name="Trazado 125097" d="M-566-8829.878H174.917" transform="translate(-1524 478)" fill="none" stroke="#d8d8d8" stroke-width="1"/>
    <path id="Trazado_125098" data-name="Trazado 125098" d="M-566-8829.878H174.917" transform="translate(-1524 263.878)" fill="none" stroke="#d8d8d8" stroke-width="1"/>
    <path id="Trazado_125099" data-name="Trazado 125099" d="M-566-8829.878H174.917" transform="translate(-1524 310.878)" fill="none" stroke="#d8d8d8" stroke-width="1"/>
    <text id="_0_6-2" data-name="0,6" transform="translate(-1828 -8512)" fill="#6c6c6c" font-size="15" font-family="Roboto-Regular, Roboto"><tspan x="0" y="0">0,6</tspan></text>
    <text id="_0_6-3" data-name="0,6" transform="translate(-1778 -8512)" fill="#6c6c6c" font-size="15" font-family="Roboto-Regular, Roboto"><tspan x="0" y="0">0,6</tspan></text>
    <text id="_0_6-4" data-name="0,6" transform="translate(-1654 -8510)" fill="#6c6c6c" font-size="15" font-family="Roboto-Regular, Roboto"><tspan x="0" y="0">0,6</tspan></text>
    <text id="_0_6-5" data-name="0,6" transform="translate(-2054 -8512)" fill="#6c6c6c" font-size="15" font-family="Roboto-Regular, Roboto"><tspan x="0" y="0">0,6</tspan></text>
    <path id="Trazado_125101" data-name="Trazado 125101" d="M-537-8835.878v-11.511" transform="translate(-1524 484)" fill="none" stroke="#bebebe" stroke-width="1"/>
    <path id="Trazado_125102" data-name="Trazado 125102" d="M-537-8835.878v-11.511" transform="translate(-1498 484)" fill="none" stroke="#bebebe" stroke-width="1"/>
    <path id="Trazado_125103" data-name="Trazado 125103" d="M-537-8835.878v-11.511" transform="translate(-1476 484)" fill="none" stroke="#bebebe" stroke-width="1"/>
    <path id="Trazado_125104" data-name="Trazado 125104" d="M-537-8835.878v-11.511" transform="translate(-1447 484)" fill="none" stroke="#bebebe" stroke-width="1"/>
    <path id="Trazado_125105" data-name="Trazado 125105" d="M-537-8835.878v-11.511" transform="translate(-1423 484)" fill="none" stroke="#bebebe" stroke-width="1"/>
    <path id="Trazado_125106" data-name="Trazado 125106" d="M-537-8835.878v-11.511" transform="translate(-1397 484)" fill="none" stroke="#bebebe" stroke-width="1"/>
    <path id="Trazado_125107" data-name="Trazado 125107" d="M-537-8835.878v-11.511" transform="translate(-1375 484)" fill="none" stroke="#bebebe" stroke-width="1"/>
    <path id="Trazado_125108" data-name="Trazado 125108" d="M-537-8835.878v-11.511" transform="translate(-1346 484)" fill="none" stroke="#bebebe" stroke-width="1"/>
    <path id="Trazado_125109" data-name="Trazado 125109" d="M-537-8835.878v-11.511" transform="translate(-1324 484)" fill="none" stroke="#bebebe" stroke-width="1"/>
    <path id="Trazado_125110" data-name="Trazado 125110" d="M-537-8835.878v-11.511" transform="translate(-1298 484)" fill="none" stroke="#bebebe" stroke-width="1"/>
    <path id="Trazado_125111" data-name="Trazado 125111" d="M-537-8835.878v-11.511" transform="translate(-1276 484)" fill="none" stroke="#bebebe" stroke-width="1"/>
    <path id="Trazado_125112" data-name="Trazado 125112" d="M-537-8835.878v-11.511" transform="translate(-1247 484)" fill="none" stroke="#bebebe" stroke-width="1"/>
    <path id="Trazado_125113" data-name="Trazado 125113" d="M-537-8835.878v-11.511" transform="translate(-1223 484)" fill="none" stroke="#bebebe" stroke-width="1"/>
    <path id="Trazado_125114" data-name="Trazado 125114" d="M-537-8835.878v-11.511" transform="translate(-1197 484)" fill="none" stroke="#bebebe" stroke-width="1"/>
    <path id="Trazado_125115" data-name="Trazado 125115" d="M-537-8835.878v-11.511" transform="translate(-1175 484)" fill="none" stroke="#bebebe" stroke-width="1"/>
    <path id="Trazado_125116" data-name="Trazado 125116" d="M-537-8835.878v-11.511" transform="translate(-1149 484)" fill="none" stroke="#bebebe" stroke-width="1"/>
    <path id="Trazado_125117" data-name="Trazado 125117" d="M-537-8835.878v-11.511" transform="translate(-1127 484)" fill="none" stroke="#bebebe" stroke-width="1"/>
    <path id="Trazado_125118" data-name="Trazado 125118" d="M-537-8835.878v-11.511" transform="translate(-1098 484)" fill="none" stroke="#bebebe" stroke-width="1"/>
    <path id="Trazado_125119" data-name="Trazado 125119" d="M-537-8835.878v-11.511" transform="translate(-1074 484)" fill="none" stroke="#bebebe" stroke-width="1"/>
    <path id="Trazado_125120" data-name="Trazado 125120" d="M-537-8835.878v-11.511" transform="translate(-1048 484)" fill="none" stroke="#bebebe" stroke-width="1"/>
    <path id="Trazado_125121" data-name="Trazado 125121" d="M-537-8835.878v-11.511" transform="translate(-1026 484)" fill="none" stroke="#bebebe" stroke-width="1"/>
    <path id="Trazado_125122" data-name="Trazado 125122" d="M-537-8835.878v-11.511" transform="translate(-1000 484)" fill="none" stroke="#bebebe" stroke-width="1"/>
    <path id="Trazado_125123" data-name="Trazado 125123" d="M-537-8835.878v-11.511" transform="translate(-974 484)" fill="none" stroke="#bebebe" stroke-width="1"/>
    <path id="Trazado_125124" data-name="Trazado 125124" d="M-537-8835.878v-11.511" transform="translate(-948 484)" fill="none" stroke="#bebebe" stroke-width="1"/>
  </g>
</svg>
