<svg xmlns="http://www.w3.org/2000/svg" width="277.65" height="273.193" viewBox="0 0 277.65 273.193">
  <g id="Grupo_83822" data-name="Grupo 83822" transform="translate(-752.901 -1206)">
    <g id="Grupo_83821" data-name="Grupo 83821" transform="translate(752.901 1206)">
      <path id="Trazado_104412" data-name="Trazado 104412" d="M2258.684,363.4c1.551,18.626,15.473,28.892,30.645,37.443,23.019,12.972,51.382,10.679,75.562,2.409,19.412-6.64,38.7-15.547,59.219-15.515,19.3.03,38.62,8.037,57.476,3.921a46.686,46.686,0,0,0,33.419-29.5c9.187-26.025-11.28-49.911-16.144-74.73-4.349-22.2,3.761-44.646,9.121-66.62s7.282-47.466-6.972-65.028c-14.706-18.117-41.366-21.056-64.473-17.808s-45.865,11.232-69.14,9.566c-21.506-1.54-42.088-11.287-63.64-10.625a67.624,67.624,0,0,0-52.341,28.17c-22.22,31.518-8.629,67.56,6.128,98.727,6.2,13.084,10,26.47,10.2,41.134C2268.022,324.92,2257.025,343.475,2258.684,363.4Z" transform="translate(-2239.698 -136.816)" fill="#d8e5f3"/>
    </g>
    <g id="Grupo_83820" data-name="Grupo 83820" transform="translate(-17.086 10.743)">
      <circle id="Elipse_4182" data-name="Elipse 4182" cx="21.331" cy="21.331" r="21.331" transform="matrix(0.23, -0.973, 0.973, 0.23, 974.843, 1403.155)" fill="#d8e5ee"/>
      <g id="Grupo_83723" data-name="Grupo 83723" transform="translate(986.272 1244.079)">
        <g id="Grupo_83722" data-name="Grupo 83722">
          <path id="Trazado_104479" data-name="Trazado 104479" d="M1168.4,121.993c-.167,0-.333,0-.5-.007a.372.372,0,0,1,.01-.744h.01c.158,0,.317.006.475.006a21.343,21.343,0,0,0,19.96-15.31,19.907,19.907,0,0,0-2.262-15.49,19.452,19.452,0,0,0-29.707-4.715.372.372,0,0,1-.5-.555,20.2,20.2,0,0,1,30.839,4.887,20.647,20.647,0,0,1,2.344,16.064,22,22,0,0,1-20.674,15.865Z" transform="translate(-1155.761 -80.091)" fill="#292739"/>
          <path id="Trazado_104480" data-name="Trazado 104480" d="M1198.493,108.549a.372.372,0,0,1-.318-.565,9.8,9.8,0,0,0,.856-8.492,10.255,10.255,0,0,0-5.913-6.2.372.372,0,0,1,.252-.7,10.867,10.867,0,0,1,6.362,6.653,10.53,10.53,0,0,1-.921,9.125A.371.371,0,0,1,1198.493,108.549Z" transform="translate(-1170.544 -85.061)" fill="#292739"/>
        </g>
        <path id="Trazado_104481" data-name="Trazado 104481" d="M1190.383,104.147a1.85,1.85,0,1,1-.785,2.5A1.85,1.85,0,0,1,1190.383,104.147Z" transform="translate(-1169.156 -89.59)" fill="#a4d2f3" stroke="#292739" stroke-linecap="round" stroke-linejoin="round" stroke-width="1.237"/>
      </g>
      <g id="Grupo_83727" data-name="Grupo 83727" transform="translate(811.586 1224.478)">
        <path id="Trazado_104482" data-name="Trazado 104482" d="M895.7,124.772a34.264,34.264,0,1,1,38.021-30.04l-6.08-.713a28.143,28.143,0,1,0-31.229,24.673Z" transform="translate(-865.422 -51.082)" fill="#79a2e4"/>
        <g id="Grupo_83726" data-name="Grupo 83726" transform="translate(24.926)">
          <g id="Grupo_83725" data-name="Grupo 83725">
            <path id="Trazado_104483" data-name="Trazado 104483" d="M909.442,47.512l24.167.331a159.054,159.054,0,0,1-1.877,18.573c-1.605,9.752-1.808,12.808-1.808,12.808l-23.075-1s2.371-3.753,2.87-14.23A103.869,103.869,0,0,0,909.442,47.512Z" transform="translate(-906.85 -47.512)" fill="#eaeefa" stroke="#292739" stroke-linecap="round" stroke-linejoin="round" stroke-width="1.237"/>
            <g id="Grupo_83724" data-name="Grupo 83724" transform="translate(4.613 3.835)">
              <rect id="Rectángulo_33785" data-name="Rectángulo 33785" width="16.315" height="1.53" transform="translate(2.046 0.042) rotate(-0.146)" fill="#a4d2f3"/>
              <rect id="Rectángulo_33786" data-name="Rectángulo 33786" width="16.315" height="1.53" transform="translate(2.375 2.468) rotate(-0.146)" fill="#a4d2f3"/>
              <rect id="Rectángulo_33787" data-name="Rectángulo 33787" width="14.363" height="1.53" transform="matrix(1, -0.011, 0.011, 1, 3.211, 7.611)" fill="#a4d2f3"/>
              <rect id="Rectángulo_33788" data-name="Rectángulo 33788" width="1.53" height="15.997" transform="matrix(0.013, -1, 1, 0.013, 1.586, 11.445)" fill="#a4d2f3"/>
              <rect id="Rectángulo_33789" data-name="Rectángulo 33789" width="1.53" height="15.662" transform="translate(1.327 13.56) rotate(-88.411)" fill="#a4d2f3"/>
              <rect id="Rectángulo_33790" data-name="Rectángulo 33790" width="1.53" height="15.827" transform="translate(0.787 15.688) rotate(-88.111)" fill="#a4d2f3"/>
              <rect id="Rectángulo_33791" data-name="Rectángulo 33791" width="1.53" height="11.326" transform="translate(3.279 19.028) rotate(-88.111)" fill="#a4d2f3"/>
              <rect id="Rectángulo_33792" data-name="Rectángulo 33792" width="1.53" height="15.528" transform="translate(0 21.265) rotate(-86.871)" fill="#a4d2f3"/>
              <rect id="Rectángulo_33793" data-name="Rectángulo 33793" width="5.251" height="1.53" transform="matrix(1, -0.004, 0.004, 1, 7.578, 5.014)" fill="#a4d2f3"/>
            </g>
          </g>
        </g>
      </g>
      <g id="Grupo_83731" data-name="Grupo 83731" transform="translate(894.68 1213.801)">
        <path id="Trazado_104484" data-name="Trazado 104484" d="M1003.577,85.185c.419-1.058.827-2.1,1.27-3.121s.916-2.014,1.4-2.988q.754-1.452,1.576-2.829.84-1.368,1.755-2.646c.619-.847,1.268-1.656,1.94-2.433.348-.378.68-.767,1.047-1.118l.534-.538.264-.27.282-.253a29.289,29.289,0,0,1,4.766-3.618,31.319,31.319,0,0,1,10.9-4.126,28.04,28.04,0,0,1,5.7-.368l.354.011c.118.005.237,0,.354.016l.705.064.7.061c.234.029.468.072.7.106.467.074.938.122,1.4.236l.7.145.349.072.344.094a27.749,27.749,0,0,1,5.386,1.934,30.537,30.537,0,0,1,4.949,2.954c.385.289.786.563,1.145.884l.559.461.281.23c.09.08.177.164.266.245l.531.493.266.247.135.122.126.13,1.01,1.043a28.313,28.313,0,0,1,3.453,4.694,31.154,31.154,0,0,1,2.508,5.434l.237.724.123.363.061.181.05.185c.133.492.265.987.406,1.484.108.5.214,1.006.33,1.513s.168,1.022.262,1.537a35.552,35.552,0,0,1,.356,6.348,39.319,39.319,0,0,1-.816,6.576,23.873,23.873,0,0,0,3.192-6.1,28.542,28.542,0,0,0,1.54-6.9l.069-.893.033-.448c.012-.15.022-.3.022-.449.011-.6.011-1.2.016-1.8-.026-.6-.065-1.2-.1-1.809s-.135-1.2-.208-1.809a30.572,30.572,0,0,0-1.916-7.106,30.234,30.234,0,0,0-3.644-6.548l-1.165-1.481-.147-.185-.156-.176-.315-.35-.633-.7c-.107-.116-.211-.233-.319-.348l-.336-.33-.674-.658c-.444-.448-.93-.845-1.407-1.256a33.761,33.761,0,0,0-6.269-4.188l-.851-.416-.426-.206c-.142-.069-.283-.14-.431-.2l-1.752-.726c-.6-.209-1.2-.41-1.8-.612l-.225-.076-.229-.064-.459-.126-.919-.248-.461-.12-.468-.1-.935-.188c-.621-.138-1.255-.214-1.887-.3-.317-.039-.632-.085-.949-.117l-.956-.064-.956-.06c-.319-.019-.639-.005-.958-.007a31.739,31.739,0,0,0-7.542.883,32.883,32.883,0,0,0-13.241,6.684c-.465.409-.936.805-1.384,1.228l-1.306,1.306c-.411.459-.813.925-1.215,1.386-.207.225-.383.48-.571.722l-.554.732-.275.365-.254.383-.5.768c-.162.258-.339.506-.485.771l-.451.787a32.544,32.544,0,0,0-1.541,3.245,31.678,31.678,0,0,0-1.889,6.766c-.188,1.143-.308,2.29-.383,3.431A31.016,31.016,0,0,0,1003.577,85.185Z" transform="translate(-1003.528 -38.744)" fill="#d8e5ee"/>
        <g id="Grupo_83730" data-name="Grupo 83730" transform="translate(8.344)">
          <path id="Trazado_104485" data-name="Trazado 104485" d="M1075.726,53.314l11.013.047s3.139,2.476.375,8.808c0,0-7.044-5.019-10.75-5.4Z" transform="translate(-1040.631 -39.146)" fill="#79a2e4" stroke="#292739" stroke-linecap="round" stroke-linejoin="round" stroke-width="1.237"/>
          <g id="Grupo_83729" data-name="Grupo 83729">
            <path id="Trazado_104486" data-name="Trazado 104486" d="M1063.5,43.981l-33.931-14.215s-7.908,6.22-11.29,23.427a44.549,44.549,0,0,0,1.92,24.788l30.708,11.527a38.885,38.885,0,0,1-1.7-26.221C1054.359,44.743,1063.5,43.981,1063.5,43.981Z" transform="translate(-1017.396 -29.766)" fill="#eaeefa" stroke="#292739" stroke-linecap="round" stroke-linejoin="round" stroke-width="1.237"/>
            <g id="Grupo_83728" data-name="Grupo 83728" transform="translate(3.561 5.586)">
              <rect id="Rectángulo_33794" data-name="Rectángulo 33794" width="1.53" height="23.968" transform="translate(8.667 1.392) rotate(-65.491)" fill="#79a2e4"/>
              <rect id="Rectángulo_33795" data-name="Rectángulo 33795" width="1.53" height="23.968" transform="translate(6.757 4.44) rotate(-65.491)" fill="#79a2e4"/>
              <rect id="Rectángulo_33796" data-name="Rectángulo 33796" width="1.53" height="21.102" transform="translate(5.192 11.83) rotate(-64.981)" fill="#79a2e4"/>
              <rect id="Rectángulo_33797" data-name="Rectángulo 33797" width="1.53" height="23.502" transform="translate(3.577 15.403) rotate(-66.358)" fill="#79a2e4"/>
              <rect id="Rectángulo_33798" data-name="Rectángulo 33798" width="1.53" height="23.01" transform="translate(2.952 18.905) rotate(-67.222)" fill="#79a2e4"/>
              <rect id="Rectángulo_33799" data-name="Rectángulo 33799" width="1.53" height="23.252" transform="translate(2.112 22.098) rotate(-67.522)" fill="#79a2e4"/>
              <rect id="Rectángulo_33800" data-name="Rectángulo 33800" width="1.53" height="16.64" transform="translate(2.862 27.585) rotate(-67.521)" fill="#79a2e4"/>
              <rect id="Rectángulo_33801" data-name="Rectángulo 33801" width="1.53" height="22.813" transform="translate(0 30.66) rotate(-68.762)" fill="#79a2e4"/>
              <rect id="Rectángulo_33802" data-name="Rectángulo 33802" width="1.53" height="7.715" transform="translate(13.042 11.421) rotate(-65.376)" fill="#79a2e4"/>
            </g>
          </g>
        </g>
      </g>
      <g id="Grupo_83771" data-name="Grupo 83771" transform="translate(825.387 1244.854)">
        <g id="Grupo_83735" data-name="Grupo 83735">
          <path id="Trazado_104487" data-name="Trazado 104487" d="M1031.265,91.5l85.98,1.168-2.227,143.269-78.128-3.16-5.625,1.56Z" transform="translate(-945.284 -85.41)" fill="#2b47a0" stroke="#292739" stroke-linecap="round" stroke-linejoin="round" stroke-width="1.237"/>
          <path id="Trazado_104488" data-name="Trazado 104488" d="M974.34,91.5l-85.98,1.168,2.227,143.269,78.127-3.16,5.626,1.56Z" transform="translate(-888.36 -85.41)" fill="#2b47a0" stroke="#292739" stroke-linecap="round" stroke-linejoin="round" stroke-width="1.237"/>
          <path id="Trazado_104489" data-name="Trazado 104489" d="M1045.862,235.948c-7.44-.363-17.452-.564-28.192-.564s-20.752.2-28.191.564c-7.355.36-11.555.834-12.747,1.442-1.191-.608-5.391-1.082-12.746-1.442-7.44-.363-17.452-.564-28.191-.564s-20.752.2-28.192.564c-8.818.431-13.1,1.026-13.1,1.821V290.6c0,.073.16.134.357.134s.357-.06.357-.134c0-.184.9-.819,12.475-1.3,7.412-.307,17.394-.476,28.105-.476s20.693.169,28.105.476c11.575.48,12.475,1.115,12.475,1.3,0,.073.16.134.357.134s.357-.06.357-.134c0-.184.9-.819,12.475-1.3,7.412-.307,17.393-.476,28.105-.476s20.693.169,28.105.476c11.575.48,12.475,1.115,12.475,1.3,0,.073.16.134.357.134s.358-.06.358-.134V237.768C1058.965,236.974,1054.679,236.379,1045.862,235.948Z" transform="translate(-890.805 -142.726)" fill="#292739"/>
          <g id="Grupo_83734" data-name="Grupo 83734" transform="translate(3.536)">
            <g id="Grupo_83732" data-name="Grupo 83732">
              <path id="Trazado_104490" data-name="Trazado 104490" d="M976.681,87.467V230.3c0-6.878-82.445-6.878-82.445,0V87.467C894.236,79.351,976.681,79.351,976.681,87.467Z" transform="translate(-894.236 -81.38)" fill="#a4d2f3" stroke="#292739" stroke-linecap="round" stroke-linejoin="round" stroke-width="1.237"/>
              <path id="Trazado_104491" data-name="Trazado 104491" d="M975.5,226.755a70.468,70.468,0,0,0-9-1.48,315.387,315.387,0,0,0-57.454,0,70.464,70.464,0,0,0-9,1.48V90.89c1.094-.522,4.233-1.618,12.393-2.511a271.148,271.148,0,0,1,50.663,0c8.16.892,11.3,1.989,12.394,2.511Z" transform="translate(-896.552 -83.696)" fill="#fff"/>
            </g>
            <g id="Grupo_83733" data-name="Grupo 83733" transform="translate(82.445)">
              <path id="Trazado_104492" data-name="Trazado 104492" d="M1031.265,87.467V230.3c0-6.878,82.444-6.878,82.444,0V87.467C1113.709,79.351,1031.265,79.351,1031.265,87.467Z" transform="translate(-1031.265 -81.38)" fill="#a4d2f3" stroke="#292739" stroke-linecap="round" stroke-linejoin="round" stroke-width="1.237"/>
              <path id="Trazado_104493" data-name="Trazado 104493" d="M1037.078,226.755a70.443,70.443,0,0,1,9-1.48,315.381,315.381,0,0,1,57.454,0,70.453,70.453,0,0,1,9,1.48V90.89c-1.094-.522-4.233-1.618-12.394-2.511a271.147,271.147,0,0,0-50.663,0c-8.16.892-11.3,1.989-12.393,2.511Z" transform="translate(-1033.581 -83.696)" fill="#fff"/>
            </g>
          </g>
        </g>
        <g id="Grupo_83738" data-name="Grupo 83738" transform="translate(56.584 35.006)">
          <path id="Trazado_104494" data-name="Trazado 104494" d="M995.946,211.435a11.949,11.949,0,1,0,11.948,11.948A11.948,11.948,0,0,0,995.946,211.435Zm0,19.932a7.983,7.983,0,1,1,7.983-7.983A7.984,7.984,0,0,1,995.946,231.367Z" transform="translate(-983.04 -168.193)" fill="#79a2e4"/>
          <path id="Trazado_104495" data-name="Trazado 104495" d="M994.354,211.728a11.949,11.949,0,1,0,11.948,11.949A11.949,11.949,0,0,0,994.354,211.728Zm0,19.932a7.983,7.983,0,1,1,7.984-7.983A7.983,7.983,0,0,1,994.354,231.66Z" transform="translate(-982.406 -168.309)" fill="#eaeefa" stroke="#292739" stroke-linecap="round" stroke-linejoin="round" stroke-width="1.237"/>
          <g id="Grupo_83737" data-name="Grupo 83737" transform="translate(6.771)">
            <g id="Grupo_83736" data-name="Grupo 83736">
              <path id="Trazado_104496" data-name="Trazado 104496" d="M1002.709,144.013l-4.9,8.419,2.917.011-.021,42.98,3.893,4.886.036-47.851,2.918.011Z" transform="translate(-995.312 -141.336)" fill="#fff"/>
              <path id="Trazado_104497" data-name="Trazado 104497" d="M1000.663,141.817l-4.9,8.419,2.917.011-.021,47.866h3.893l.036-47.851,2.918.011Z" transform="translate(-994.497 -140.461)" fill="#79a2e4"/>
              <path id="Trazado_104498" data-name="Trazado 104498" d="M998.563,139.563l-4.9,8.419,2.917.011-.02,47.866h3.893l.036-47.851,2.918.011Z" transform="translate(-993.66 -139.563)" fill="#eaeefa" stroke="#292739" stroke-linecap="round" stroke-linejoin="round" stroke-width="1.237"/>
            </g>
          </g>
          <circle id="Elipse_4183" data-name="Elipse 4183" cx="2.503" cy="2.503" r="2.503" transform="translate(9.266 53.422)" fill="#eaeefa" stroke="#292739" stroke-linecap="round" stroke-linejoin="round" stroke-width="1.237"/>
        </g>
        <g id="Grupo_83739" data-name="Grupo 83739" transform="translate(36.68 32.653)">
          <rect id="Rectángulo_33803" data-name="Rectángulo 33803" width="18.248" height="1.507" transform="translate(3.461)" fill="#a4d2f3"/>
          <rect id="Rectángulo_33804" data-name="Rectángulo 33804" width="21.709" height="1.507" transform="translate(0 3.181)" fill="#a4d2f3"/>
          <rect id="Rectángulo_33805" data-name="Rectángulo 33805" width="8.301" height="4.542" transform="translate(0 6.508)" fill="#eaeefa" stroke="#292739" stroke-linecap="round" stroke-linejoin="round" stroke-width="1.237"/>
          <path id="Trazado_104499" data-name="Trazado 104499" d="M969.788,148.394a1.113,1.113,0,0,0-1.113,1.113h0a1.113,1.113,0,0,0,2.227,0h0A1.113,1.113,0,0,0,969.788,148.394Z" transform="translate(-957.033 -140.728)" fill="#292739" stroke="#292739" stroke-linecap="round" stroke-linejoin="round" stroke-width="1.237"/>
          <path id="Trazado_104500" data-name="Trazado 104500" d="M979.122,148.394a1.113,1.113,0,0,0-1.113,1.113h0a1.113,1.113,0,1,0,2.226,0h0A1.113,1.113,0,0,0,979.122,148.394Z" transform="translate(-960.751 -140.728)" fill="#292739" stroke="#292739" stroke-linecap="round" stroke-linejoin="round" stroke-width="1.237"/>
        </g>
        <g id="Grupo_83744" data-name="Grupo 83744" transform="translate(10.315 12.688)">
          <path id="Trazado_104501" data-name="Trazado 104501" d="M909.51,108.586a.688.688,0,0,1-.037-1.376l20.033-1.086a.688.688,0,1,1,.075,1.375l-20.033,1.086Z" transform="translate(-906.825 -103.924)" fill="#292739"/>
          <path id="Trazado_104502" data-name="Trazado 104502" d="M1000.013,108.586h-.038L979.942,107.5a.688.688,0,1,1,.075-1.375l20.033,1.086a.688.688,0,0,1-.037,1.376Z" transform="translate(-934.896 -103.924)" fill="#292739"/>
          <path id="Trazado_104503" data-name="Trazado 104503" d="M965.222,107.5H942.807a.689.689,0,1,1,0-1.377h22.415a.689.689,0,1,1,0,1.377Z" transform="translate(-920.088 -103.924)" fill="#292739"/>
          <g id="Grupo_83740" data-name="Grupo 83740" transform="translate(0 1.075)">
            <path id="Trazado_104504" data-name="Trazado 104504" d="M911.278,107.142a2.887,2.887,0,1,1-2.887-2.887A2.887,2.887,0,0,1,911.278,107.142Z" transform="translate(-905.503 -104.255)" fill="#79a2e4" stroke="#292739" stroke-linecap="round" stroke-linejoin="round" stroke-width="1.237"/>
            <path id="Trazado_104505" data-name="Trazado 104505" d="M910.964,107.765a1.947,1.947,0,1,1-1.947-1.947A1.947,1.947,0,0,1,910.964,107.765Z" transform="translate(-906.128 -104.878)" fill="#fff" stroke="#292739" stroke-linecap="round" stroke-linejoin="round" stroke-width="1.237"/>
          </g>
          <g id="Grupo_83741" data-name="Grupo 83741" transform="translate(62.226 1.075)">
            <circle id="Elipse_4184" data-name="Elipse 4184" cx="2.887" cy="2.887" r="2.887" fill="#79a2e4" stroke="#292739" stroke-linecap="round" stroke-linejoin="round" stroke-width="1.237"/>
            <circle id="Elipse_4185" data-name="Elipse 4185" cx="1.947" cy="1.947" r="1.947" transform="translate(0.943 0.941)" fill="#fff" stroke="#292739" stroke-linecap="round" stroke-linejoin="round" stroke-width="1.237"/>
          </g>
          <g id="Grupo_83742" data-name="Grupo 83742" transform="translate(20.955)">
            <path id="Trazado_104506" data-name="Trazado 104506" d="M946.106,105.355a2.887,2.887,0,1,1-2.887-2.887A2.888,2.888,0,0,1,946.106,105.355Z" transform="translate(-940.331 -102.468)" fill="#79a2e4" stroke="#292739" stroke-linecap="round" stroke-linejoin="round" stroke-width="1.237"/>
            <path id="Trazado_104507" data-name="Trazado 104507" d="M945.792,105.978a1.947,1.947,0,1,1-1.947-1.946A1.946,1.946,0,0,1,945.792,105.978Z" transform="translate(-940.956 -103.091)" fill="#fff" stroke="#292739" stroke-linecap="round" stroke-linejoin="round" stroke-width="1.237"/>
          </g>
          <g id="Grupo_83743" data-name="Grupo 83743" transform="translate(41.488)">
            <path id="Trazado_104508" data-name="Trazado 104508" d="M980.233,105.355a2.888,2.888,0,1,1-2.888-2.887A2.888,2.888,0,0,1,980.233,105.355Z" transform="translate(-974.458 -102.468)" fill="#79a2e4" stroke="#292739" stroke-linecap="round" stroke-linejoin="round" stroke-width="1.237"/>
            <path id="Trazado_104509" data-name="Trazado 104509" d="M979.92,105.978a1.947,1.947,0,1,1-1.947-1.946A1.947,1.947,0,0,1,979.92,105.978Z" transform="translate(-975.083 -103.091)" fill="#fff" stroke="#292739" stroke-linecap="round" stroke-linejoin="round" stroke-width="1.237"/>
          </g>
        </g>
        <g id="Grupo_83748" data-name="Grupo 83748" transform="translate(115.707 27.551)">
          <g id="Grupo_83745" data-name="Grupo 83745" transform="translate(25.094)">
            <path id="Trazado_104510" data-name="Trazado 104510" d="M1141.834,144.835l3.118,2.994-.325,2.693-22.128-.469-.119-2.68Z" transform="translate(-1122.381 -134.208)" fill="#79a2e4" stroke="#292739" stroke-linecap="round" stroke-linejoin="round" stroke-width="1.237"/>
            <path id="Trazado_104511" data-name="Trazado 104511" d="M1122.381,140.337l11.7-13.165a13.96,13.96,0,0,1,7.2,4.768c2.885,3.378,3.668,8.853,3.668,8.853Z" transform="translate(-1122.381 -127.172)" fill="#fff" stroke="#292739" stroke-linecap="round" stroke-linejoin="round" stroke-width="1.237"/>
          </g>
          <g id="Grupo_83747" data-name="Grupo 83747" transform="translate(0 0.893)">
            <g id="Grupo_83746" data-name="Grupo 83746">
              <path id="Trazado_104512" data-name="Trazado 104512" d="M1115.741,133.216l3.87-.831V136.1l-9.737,11.354L1105,146.147Z" transform="translate(-1090.363 -130.142)" fill="#79a2e4" stroke="#292739" stroke-linecap="round" stroke-linejoin="round" stroke-width="1.237"/>
              <path id="Trazado_104513" data-name="Trazado 104513" d="M1119.7,159.7v-3.07h-39.023v3.07c0,9.3,8.735,16.831,19.512,16.831S1119.7,169,1119.7,159.7Z" transform="translate(-1080.673 -139.801)" fill="#79a2e4" stroke="#292739" stroke-linecap="round" stroke-linejoin="round" stroke-width="1.237"/>
              <path id="Trazado_104514" data-name="Trazado 104514" d="M1119.7,145.488c0,9.3-8.735,16.831-19.511,16.831s-19.512-7.536-19.512-16.831,8.735-16.831,19.512-16.831a21.854,21.854,0,0,1,9.737,2.242l-11.768,13.467Z" transform="translate(-1080.673 -128.657)" fill="#fff" stroke="#292739" stroke-linecap="round" stroke-linejoin="round" stroke-width="1.237"/>
            </g>
            <path id="Trazado_104515" data-name="Trazado 104515" d="M1106.576,166.5c-6.065,0-13.867-1.848-17.577-7.037-2.287-3.2-2.655-7.137-1.093-11.708a.372.372,0,0,1,.7.241c-1.48,4.33-1.146,8.043.993,11.034,3.546,4.959,11.092,6.726,16.972,6.726a.372.372,0,1,1,0,.744Z" transform="translate(-1083.177 -136.164)" fill="#292739"/>
          </g>
        </g>
        <g id="Grupo_83750" data-name="Grupo 83750" transform="translate(104.857 7.777)">
          <g id="Grupo_83749" data-name="Grupo 83749" transform="translate(0.459)">
            <rect id="Rectángulo_33806" data-name="Rectángulo 33806" width="2.142" height="12.847" transform="translate(0 6.927)" fill="#79a2e4"/>
            <rect id="Rectángulo_33807" data-name="Rectángulo 33807" width="2.142" height="17.8" transform="translate(4.554 1.974)" fill="#79a2e4"/>
            <rect id="Rectángulo_33808" data-name="Rectángulo 33808" width="2.142" height="12.847" transform="translate(9.107 6.927)" fill="#79a2e4"/>
            <rect id="Rectángulo_33809" data-name="Rectángulo 33809" width="2.142" height="7.184" transform="translate(13.66 6.927)" fill="#79a2e4"/>
            <rect id="Rectángulo_33810" data-name="Rectángulo 33810" width="2.142" height="9.149" transform="translate(18.213)" fill="#79a2e4"/>
            <rect id="Rectángulo_33811" data-name="Rectángulo 33811" width="2.142" height="8.149" transform="translate(22.767 2.369)" fill="#79a2e4"/>
            <rect id="Rectángulo_33812" data-name="Rectángulo 33812" width="2.142" height="12.818" transform="translate(27.32 0.592)" fill="#79a2e4"/>
            <rect id="Rectángulo_33813" data-name="Rectángulo 33813" width="2.142" height="4.459" transform="translate(31.873 6.927)" fill="#79a2e4"/>
            <rect id="Rectángulo_33814" data-name="Rectángulo 33814" width="2.142" height="6.504" transform="translate(36.427 2.369)" fill="#79a2e4"/>
            <rect id="Rectángulo_33815" data-name="Rectángulo 33815" width="2.142" height="10.448" transform="translate(40.98 6.927)" fill="#79a2e4"/>
            <rect id="Rectángulo_33816" data-name="Rectángulo 33816" width="2.142" height="9.567" transform="translate(45.533 3.06)" fill="#79a2e4"/>
            <rect id="Rectángulo_33817" data-name="Rectángulo 33817" width="2.142" height="8.874" transform="translate(50.087)" fill="#79a2e4"/>
            <rect id="Rectángulo_33818" data-name="Rectángulo 33818" width="2.142" height="5.126" transform="translate(54.64 6.927)" fill="#79a2e4"/>
          </g>
          <path id="Trazado_104516" data-name="Trazado 104516" d="M1074.378,120.189h-11.74v-3.061h10.977l7.545-10.015a1.531,1.531,0,0,1,1.978-.41l8.3,4.716,8.327-5.374a1.53,1.53,0,0,1,2.218.642l3.606,7.774,7.372-7.758a1.53,1.53,0,0,1,1.962-.217l6.009,4.032-1.705,2.541-4.937-3.313-8.032,8.453a1.531,1.531,0,0,1-2.5-.41l-3.813-8.221-7.628,4.923a1.531,1.531,0,0,1-1.586.045l-7.938-4.51-7.195,9.551A1.531,1.531,0,0,1,1074.378,120.189Z" transform="translate(-1062.638 -98.885)" fill="#fff"/>
          <path id="Trazado_104517" data-name="Trazado 104517" d="M1074.935,119.9h-10.209a.689.689,0,1,1,0-1.377h9.865l7.8-10.35a.689.689,0,0,1,.891-.185l8.744,4.969,8.755-5.651a.689.689,0,0,1,1,.289l4.127,8.9,8.224-8.655a.688.688,0,0,1,.882-.1l4.739,3.179a.689.689,0,0,1-.767,1.144l-4.256-2.855-8.521,8.968a.689.689,0,0,1-1.124-.185l-4.22-9.1-8.442,5.448a.688.688,0,0,1-.714.02l-8.58-4.875-7.64,10.141A.689.689,0,0,1,1074.935,119.9Z" transform="translate(-1063.195 -99.442)" fill="#292739"/>
        </g>
        <g id="Grupo_83751" data-name="Grupo 83751" transform="translate(91.628 36.362)">
          <path id="Trazado_104518" data-name="Trazado 104518" d="M1043.36,143.171a1.354,1.354,0,1,1-1.354-1.354A1.354,1.354,0,0,1,1043.36,143.171Z" transform="translate(-1040.652 -141.817)" fill="#2b47a0" stroke="#292739" stroke-linecap="round" stroke-linejoin="round" stroke-width="1.237"/>
          <path id="Trazado_104519" data-name="Trazado 104519" d="M1043.36,150.427a1.354,1.354,0,1,1-1.354-1.354A1.354,1.354,0,0,1,1043.36,150.427Z" transform="translate(-1040.652 -144.707)" fill="#2b47a0" stroke="#292739" stroke-linecap="round" stroke-linejoin="round" stroke-width="1.237"/>
          <path id="Trazado_104520" data-name="Trazado 104520" d="M1043.36,157.683a1.354,1.354,0,1,1-1.354-1.354A1.354,1.354,0,0,1,1043.36,157.683Z" transform="translate(-1040.652 -147.598)" fill="#2b47a0" stroke="#292739" stroke-linecap="round" stroke-linejoin="round" stroke-width="1.237"/>
          <path id="Trazado_104521" data-name="Trazado 104521" d="M1043.36,164.94a1.354,1.354,0,1,1-1.354-1.354A1.354,1.354,0,0,1,1043.36,164.94Z" transform="translate(-1040.652 -150.488)" fill="#2b47a0" stroke="#292739" stroke-linecap="round" stroke-linejoin="round" stroke-width="1.237"/>
          <rect id="Rectángulo_33819" data-name="Rectángulo 33819" width="17.473" height="1.836" transform="translate(4.393 0.436)" fill="#79a2e4"/>
          <rect id="Rectángulo_33820" data-name="Rectángulo 33820" width="17.473" height="1.836" transform="translate(4.393 4.801)" fill="#79a2e4"/>
          <rect id="Rectángulo_33821" data-name="Rectángulo 33821" width="17.473" height="1.836" transform="translate(4.393 9.167)" fill="#79a2e4"/>
          <rect id="Rectángulo_33822" data-name="Rectángulo 33822" width="17.473" height="1.836" transform="translate(4.393 13.533)" fill="#79a2e4"/>
        </g>
        <g id="Grupo_83765" data-name="Grupo 83765" transform="translate(11.176 32.067)">
          <g id="Grupo_83755" data-name="Grupo 83755" transform="translate(7.651 33.387)">
            <g id="Grupo_83753" data-name="Grupo 83753">
              <g id="Grupo_83752" data-name="Grupo 83752">
                <path id="Trazado_104522" data-name="Trazado 104522" d="M932.793,190.169a13.143,13.143,0,1,0,13.141,13.143A13.157,13.157,0,0,0,932.793,190.169Z" transform="translate(-919.652 -190.169)" fill="#d8e5ee" stroke="#292739" stroke-linecap="round" stroke-linejoin="round" stroke-width="1.252"/>
                <circle id="Elipse_4186" data-name="Elipse 4186" cx="11.598" cy="11.598" r="11.598" transform="translate(1.543 1.545)" fill="#a4d2f3"/>
                <path id="Trazado_104523" data-name="Trazado 104523" d="M935.753,214.944a8.671,8.671,0,1,1,8.669-8.671A8.68,8.68,0,0,1,935.753,214.944Z" transform="translate(-922.613 -193.13)" fill="#d8e5ee"/>
              </g>
            </g>
            <g id="Grupo_83754" data-name="Grupo 83754" transform="translate(6.025 5.854)">
              <path id="Trazado_104524" data-name="Trazado 104524" d="M940.78,211.9a4.278,4.278,0,0,1-.9.393,3.683,3.683,0,0,1-1.1.155,3.1,3.1,0,0,1-1.78-.521,3.4,3.4,0,0,1-1.208-1.6,5.011,5.011,0,0,1-.2-.6h3.225l.7-1.461h-4.14c-.013-.213-.02-.433-.02-.663s.008-.469.022-.69h4.734l.656-1.441H935.6a5.015,5.015,0,0,1,.2-.6,3.459,3.459,0,0,1,1.208-1.61,3.06,3.06,0,0,1,1.78-.531,3.532,3.532,0,0,1,1.1.162,4.583,4.583,0,0,1,.913.406,6.588,6.588,0,0,1,.738.5l.947-2.016a5.6,5.6,0,0,0-1.681-.971,5.8,5.8,0,0,0-2.013-.342,5.563,5.563,0,0,0-3.069.856,5.759,5.759,0,0,0-2.094,2.452,7.427,7.427,0,0,0-.554,1.691h-1.394l-.535,1.441h1.746c-.013.226-.021.454-.021.69s.008.446.02.663h-1.21l-.535,1.461h1.929a7.383,7.383,0,0,0,.554,1.688,5.717,5.717,0,0,0,2.094,2.443,5.6,5.6,0,0,0,3.069.849,6.167,6.167,0,0,0,1.985-.318,4.9,4.9,0,0,0,1.668-.947l-.961-2.016A5.528,5.528,0,0,1,940.78,211.9Z" transform="translate(-930.252 -200.126)" fill="#79a2e4" stroke="#79a2e4" stroke-linecap="round" stroke-linejoin="round" stroke-width="1.237"/>
              <path id="Trazado_104525" data-name="Trazado 104525" d="M939.31,211.326a4.258,4.258,0,0,1-.9.392,3.668,3.668,0,0,1-1.1.156,3.1,3.1,0,0,1-1.779-.521,3.394,3.394,0,0,1-1.208-1.6,4.926,4.926,0,0,1-.2-.6h3.225l.7-1.461h-4.141c-.013-.214-.021-.433-.021-.663s.009-.469.022-.69h4.734l.656-1.441h-5.172a5.018,5.018,0,0,1,.2-.6,3.461,3.461,0,0,1,1.208-1.611,3.06,3.06,0,0,1,1.779-.531,3.536,3.536,0,0,1,1.1.162,4.575,4.575,0,0,1,.913.406,6.588,6.588,0,0,1,.737.5l.948-2.016a5.609,5.609,0,0,0-1.682-.97,5.789,5.789,0,0,0-2.013-.342,5.567,5.567,0,0,0-3.068.856,5.761,5.761,0,0,0-2.094,2.453,7.457,7.457,0,0,0-.554,1.691H930.2l-.534,1.441h1.747c-.013.225-.022.454-.022.69s.008.446.02.663H930.2l-.534,1.461h1.928a7.406,7.406,0,0,0,.554,1.688,5.711,5.711,0,0,0,2.094,2.442,5.6,5.6,0,0,0,3.068.85,6.182,6.182,0,0,0,1.985-.318,4.893,4.893,0,0,0,1.668-.947L940,210.852A5.5,5.5,0,0,1,939.31,211.326Z" transform="translate(-929.666 -199.899)" fill="#eaeefa" stroke="#292739" stroke-linecap="round" stroke-linejoin="round" stroke-width="1.237"/>
            </g>
          </g>
          <g id="Grupo_83761" data-name="Grupo 83761" transform="translate(19.875 17.095)">
            <g id="Grupo_83756" data-name="Grupo 83756">
              <path id="Trazado_104526" data-name="Trazado 104526" d="M955.071,163.09a15.1,15.1,0,1,0,15.1,15.1A15.12,15.12,0,0,0,955.071,163.09Z" transform="translate(-939.969 -163.09)" fill="#d8e5ee" stroke="#292739" stroke-linecap="round" stroke-linejoin="round" stroke-width="1.252"/>
              <circle id="Elipse_4187" data-name="Elipse 4187" cx="13.331" cy="13.331" r="13.331" transform="translate(1.727 28.39) rotate(-89.809)" fill="#a4d2f3"/>
              <circle id="Elipse_4188" data-name="Elipse 4188" cx="9.963" cy="9.963" r="9.963" transform="translate(5.072 5.209) rotate(-0.39)" fill="#d8e5ee"/>
            </g>
            <g id="Grupo_83760" data-name="Grupo 83760" transform="translate(8.93 5.309)">
              <g id="Grupo_83757" data-name="Grupo 83757" transform="translate(1.545 1.702)">
                <path id="Trazado_104527" data-name="Trazado 104527" d="M967.46,185.013s.3.306.3,1.418a3.222,3.222,0,0,1-.3,1.592,4.791,4.791,0,0,1-3.876,2.558v1.633h-1.495V190.6a4.925,4.925,0,0,1-4.073-2.558l-.637-1.063h2.309a3.1,3.1,0,0,0,3.108,2.105,2.991,2.991,0,0,0,2.814-1.594,1.9,1.9,0,0,0,0-1.771c-.517-.824-.846-1.121-2.3-1.5l-1.278-.315c-2.3-.59-2.971-1.141-3.66-2.184a3.324,3.324,0,0,1,0-3.128,4.861,4.861,0,0,1,3.719-2.243v-1.614h1.495v1.633a4.8,4.8,0,0,1,3.679,2.224l.5,1.062h-2.15a2.755,2.755,0,0,0-2.833-1.81,2.7,2.7,0,0,0-2.518,1.3,2.064,2.064,0,0,0,0,1.889c.256.472.59.807,2.046,1.2l1.278.354C966.24,183.3,966.987,184.148,967.46,185.013Z" transform="translate(-957.379 -174.743)" fill="#79a2e4" stroke="#79a2e4" stroke-linecap="round" stroke-linejoin="round" stroke-width="1.237"/>
              </g>
              <g id="Grupo_83759" data-name="Grupo 83759">
                <g id="Grupo_83758" data-name="Grupo 83758">
                  <path id="Trazado_104528" data-name="Trazado 104528" d="M960.511,190.747a.372.372,0,0,1-.372-.372v-1.284a5.258,5.258,0,0,1-4.025-2.705l-.632-1.053a.372.372,0,0,1,.319-.563h2.31a.372.372,0,0,1,.357.268,2.738,2.738,0,0,0,2.752,1.837,2.606,2.606,0,0,0,2.479-1.384l.008-.016a1.536,1.536,0,0,0,.011-1.395c-.444-.708-.67-.97-2.079-1.333l-1.276-.314c-2.406-.617-3.141-1.22-3.881-2.34a3.207,3.207,0,0,1-.452-1.771,3.263,3.263,0,0,1,.448-1.761,5.162,5.162,0,0,1,3.662-2.368V172.9a.372.372,0,0,1,.372-.372h1.5a.372.372,0,0,1,.372.372v1.311a5.11,5.11,0,0,1,3.632,2.364c0,.008.008.016.013.024l.5,1.062a.372.372,0,0,1-.336.53h-2.15a.372.372,0,0,1-.352-.252,2.411,2.411,0,0,0-2.481-1.558,2.334,2.334,0,0,0-2.207,1.131,1.707,1.707,0,0,0,.019,1.515c.193.354.437.64,1.812,1.011l1.281.354c2.579.688,3.506,1.525,4.085,2.567a2.656,2.656,0,0,1,.364,1.629,3.635,3.635,0,0,1-.347,1.772,5.148,5.148,0,0,1-3.83,2.7v1.309a.372.372,0,0,1-.372.372Z" transform="translate(-955.058 -172.16)" fill="#eaeefa"/>
                  <path id="Trazado_104529" data-name="Trazado 104529" d="M961.761,172.658v1.634a4.8,4.8,0,0,1,3.679,2.223l.5,1.063h-2.15a2.755,2.755,0,0,0-2.833-1.81,2.7,2.7,0,0,0-2.519,1.3,2.067,2.067,0,0,0,0,1.889c.256.472.59.806,2.046,1.2l1.279.354c2.656.708,3.4,1.554,3.876,2.42,0,0,.3.306.3,1.418a3.221,3.221,0,0,1-.3,1.592,4.792,4.792,0,0,1-3.876,2.558v1.633h-1.5v-1.614a4.926,4.926,0,0,1-4.073-2.558l-.637-1.063h2.31A3.1,3.1,0,0,0,960.974,187a2.991,2.991,0,0,0,2.813-1.594,1.9,1.9,0,0,0,0-1.771c-.517-.824-.846-1.121-2.3-1.5l-1.279-.315c-2.3-.59-2.97-1.141-3.66-2.184a3.325,3.325,0,0,1,0-3.128,4.863,4.863,0,0,1,3.718-2.243v-1.614h1.5m0-.744h-1.5a.744.744,0,0,0-.744.744v.983a5.5,5.5,0,0,0-3.6,2.477,4.047,4.047,0,0,0,.013,3.94c.777,1.174,1.589,1.847,4.091,2.489l1.286.316c1.331.342,1.461.55,1.85,1.168a1.155,1.155,0,0,1-.023,1.018l-.016.032a2.24,2.24,0,0,1-2.144,1.175,2.371,2.371,0,0,1-2.395-1.569.744.744,0,0,0-.714-.536h-2.31a.744.744,0,0,0-.638,1.126l.626,1.044a5.587,5.587,0,0,0,3.977,2.837v.969a.743.743,0,0,0,.744.744h1.5a.743.743,0,0,0,.744-.744v-1a5.493,5.493,0,0,0,3.785-2.833,4.011,4.011,0,0,0,.392-1.949,3.083,3.083,0,0,0-.422-1.83c-.625-1.116-1.613-2.008-4.307-2.727l-1.272-.352c-1.312-.355-1.459-.6-1.585-.827a1.347,1.347,0,0,1-.037-1.137,1.949,1.949,0,0,1,1.9-.962,2,2,0,0,1,2.129,1.306.744.744,0,0,0,.7.5h2.15a.744.744,0,0,0,.674-1.06l-.5-1.063-.024-.047a5.431,5.431,0,0,0-3.585-2.489v-1a.744.744,0,0,0-.744-.744Z" transform="translate(-954.812 -171.914)" fill="#292739"/>
                </g>
              </g>
            </g>
          </g>
          <g id="Grupo_83764" data-name="Grupo 83764">
            <g id="Grupo_83762" data-name="Grupo 83762" transform="translate(0 17.36)">
              <path id="Trazado_104530" data-name="Trazado 104530" d="M909.331,164.729a1.2,1.2,0,1,1-1.2-1.2A1.2,1.2,0,0,1,909.331,164.729Z" transform="translate(-906.935 -163.531)" fill="#2b47a0" stroke="#292739" stroke-linecap="round" stroke-linejoin="round" stroke-width="1.237"/>
              <path id="Trazado_104531" data-name="Trazado 104531" d="M909.331,171.149a1.2,1.2,0,1,1-1.2-1.2A1.2,1.2,0,0,1,909.331,171.149Z" transform="translate(-906.935 -166.088)" fill="#2b47a0" stroke="#292739" stroke-linecap="round" stroke-linejoin="round" stroke-width="1.237"/>
              <path id="Trazado_104532" data-name="Trazado 104532" d="M909.331,177.569a1.2,1.2,0,1,1-1.2-1.2A1.2,1.2,0,0,1,909.331,177.569Z" transform="translate(-906.935 -168.646)" fill="#2b47a0" stroke="#292739" stroke-linecap="round" stroke-linejoin="round" stroke-width="1.237"/>
              <rect id="Rectángulo_33823" data-name="Rectángulo 33823" width="15.459" height="1.836" transform="translate(3.887 0.28)" fill="#79a2e4"/>
              <rect id="Rectángulo_33824" data-name="Rectángulo 33824" width="15.459" height="1.836" transform="translate(3.887 4.142)" fill="#79a2e4"/>
              <rect id="Rectángulo_33825" data-name="Rectángulo 33825" width="15.459" height="1.836" transform="translate(3.887 8.005)" fill="#79a2e4"/>
            </g>
            <path id="Trazado_104533" data-name="Trazado 104533" d="M934.124,168.129a.687.687,0,0,1-.564-.292l-8.784-12.508H908.337a.689.689,0,0,1,0-1.377h16.8a.69.69,0,0,1,.564.293l8.989,12.8a.689.689,0,0,1-.562,1.084Z" transform="translate(-907.219 -142.355)" fill="#292739"/>
            <g id="Grupo_83763" data-name="Grupo 83763" transform="translate(2.818)">
              <rect id="Rectángulo_33826" data-name="Rectángulo 33826" width="7.752" height="1.836" transform="translate(3.974)" fill="#a4d2f3"/>
              <rect id="Rectángulo_33827" data-name="Rectángulo 33827" width="11.965" height="1.836" transform="translate(1.867 3.323)" fill="#a4d2f3"/>
              <rect id="Rectángulo_33828" data-name="Rectángulo 33828" width="15.699" height="1.836" transform="translate(0 6.645)" fill="#a4d2f3"/>
            </g>
          </g>
        </g>
        <g id="Grupo_83769" data-name="Grupo 83769" transform="translate(13.572 23.092)">
          <path id="Trazado_104534" data-name="Trazado 104534" d="M912.96,125.113h-2.042v-.65h.651V120.41h-.651v-.65h2.042v.65h-.643v4.052h.643Z" transform="translate(-910.917 -119.76)" fill="#292739"/>
          <g id="Grupo_83766" data-name="Grupo 83766" transform="translate(17.346)">
            <path id="Trazado_104535" data-name="Trazado 104535" d="M941.79,125.113h-2.043v-.65h.65V120.41h-.65v-.65h2.043v.65h-.643v4.052h.643Z" transform="translate(-939.747 -119.76)" fill="#292739"/>
            <path id="Trazado_104536" data-name="Trazado 104536" d="M947.073,125.113h-2.042v-.65h.651V120.41h-.651v-.65h2.042v.65h-.642v4.052h.642Z" transform="translate(-941.852 -119.76)" fill="#292739"/>
          </g>
          <g id="Grupo_83767" data-name="Grupo 83767" transform="translate(34.991)">
            <path id="Trazado_104537" data-name="Trazado 104537" d="M971.118,125.113h-2.042v-.65h.651V120.41h-.651v-.65h2.042v.65h-.642v4.052h.642Z" transform="translate(-969.075 -119.76)" fill="#292739"/>
            <path id="Trazado_104538" data-name="Trazado 104538" d="M976.4,125.113h-2.043v-.65h.65V120.41h-.65v-.65H976.4v.65h-.643v4.052h.643Z" transform="translate(-971.18 -119.76)" fill="#292739"/>
            <path id="Trazado_104539" data-name="Trazado 104539" d="M981.685,125.113h-2.043v-.65h.651V120.41h-.651v-.65h2.043v.65h-.643v4.052h.643Z" transform="translate(-973.284 -119.76)" fill="#292739"/>
          </g>
          <g id="Grupo_83768" data-name="Grupo 83768" transform="translate(53.113)">
            <path id="Trazado_104540" data-name="Trazado 104540" d="M1001.237,125.113H999.2v-.65h.65V120.41h-.65v-.65h2.042v.65h-.642v4.052h.642Z" transform="translate(-999.195 -119.76)" fill="#292739"/>
            <path id="Trazado_104541" data-name="Trazado 104541" d="M1009.331,120.41h-.495l-1.927,4.7h-.568l-1.919-4.7h-.519v-.65h2.01v.65h-.667l1.4,3.574h.05l1.375-3.574h-.691v-.65h1.952Z" transform="translate(-1001.07 -119.76)" fill="#292739"/>
          </g>
        </g>
        <g id="Grupo_83770" data-name="Grupo 83770" transform="translate(91.628 15.362)">
          <path id="Trazado_104542" data-name="Trazado 104542" d="M1042.041,107.607a.695.695,0,1,1-.694-.694A.695.695,0,0,1,1042.041,107.607Z" transform="translate(-1040.652 -106.913)" fill="#2b47a0" stroke="#292739" stroke-linecap="round" stroke-linejoin="round" stroke-width="1.237"/>
          <circle id="Elipse_4189" data-name="Elipse 4189" cx="0.694" cy="0.694" r="0.694" transform="translate(0 2.239)" fill="#2b47a0" stroke="#292739" stroke-linecap="round" stroke-linejoin="round" stroke-width="1.237"/>
          <circle id="Elipse_4190" data-name="Elipse 4190" cx="0.694" cy="0.694" r="0.694" transform="translate(0 4.478)" fill="#2b47a0" stroke="#292739" stroke-linecap="round" stroke-linejoin="round" stroke-width="1.237"/>
          <path id="Trazado_104543" data-name="Trazado 104543" d="M1053.8,108.192h-7.925a.372.372,0,0,1,0-.744h7.925a.372.372,0,0,1,0,.744Z" transform="translate(-1042.584 -107.126)" fill="#292739"/>
          <path id="Trazado_104544" data-name="Trazado 104544" d="M1053.8,111.914h-7.925a.372.372,0,0,1,0-.744h7.925a.372.372,0,0,1,0,.744Z" transform="translate(-1042.584 -108.609)" fill="#292739"/>
          <path id="Trazado_104545" data-name="Trazado 104545" d="M1053.8,115.636h-7.925a.372.372,0,1,1,0-.744h7.925a.372.372,0,1,1,0,.744Z" transform="translate(-1042.584 -110.091)" fill="#292739"/>
          <path id="Trazado_104546" data-name="Trazado 104546" d="M1042.041,118.867a.695.695,0,1,1-.694-.694A.694.694,0,0,1,1042.041,118.867Z" transform="translate(-1040.652 -111.398)" fill="#2b47a0" stroke="#292739" stroke-linecap="round" stroke-linejoin="round" stroke-width="1.237"/>
          <path id="Trazado_104547" data-name="Trazado 104547" d="M1053.8,119.453h-7.925a.372.372,0,0,1,0-.744h7.925a.372.372,0,0,1,0,.744Z" transform="translate(-1042.584 -111.612)" fill="#292739"/>
          <circle id="Elipse_4191" data-name="Elipse 4191" cx="0.694" cy="0.694" r="0.694" transform="translate(0 9.071)" fill="#2b47a0" stroke="#292739" stroke-linecap="round" stroke-linejoin="round" stroke-width="1.237"/>
          <path id="Trazado_104548" data-name="Trazado 104548" d="M1053.8,123.27h-7.925a.372.372,0,0,1,0-.744h7.925a.372.372,0,0,1,0,.744Z" transform="translate(-1042.584 -113.132)" fill="#292739"/>
        </g>
      </g>
      <circle id="Elipse_4192" data-name="Elipse 4192" cx="12.727" cy="12.727" r="12.727" transform="translate(855.737 1363.612) rotate(-76.717)" fill="#eaeefa"/>
      <g id="Grupo_83773" data-name="Grupo 83773" transform="translate(993.905 1290.025)">
        <path id="Trazado_104549" data-name="Trazado 104549" d="M1175.442,235.887c-.19,0-.38,0-.57-.005a.372.372,0,0,1-.365-.379.377.377,0,0,1,.379-.365c.185,0,.37.005.555.005h.2a.372.372,0,0,1,0,.744Zm2.495-.107a.372.372,0,0,1-.031-.742c.251-.021.5-.046.752-.074a.372.372,0,1,1,.083.739q-.384.043-.771.076Zm-5.348-.034-.037,0c-.256-.026-.515-.055-.77-.088a.372.372,0,1,1,.094-.738c.249.031.5.06.75.085a.372.372,0,0,1-.037.742Zm8.378-.384a.372.372,0,0,1-.069-.738q.371-.071.74-.152a.372.372,0,0,1,.159.727c-.252.055-.505.107-.76.155A.349.349,0,0,1,1180.967,235.361Zm-11.4-.085a.346.346,0,0,1-.078-.008c-.252-.054-.506-.111-.756-.171a.372.372,0,1,1,.175-.723c.242.059.49.115.736.167a.372.372,0,0,1-.077.736Zm14.371-.646a.372.372,0,0,1-.108-.729q.362-.109.72-.228a.372.372,0,0,1,.234.706c-.244.081-.493.159-.739.234A.375.375,0,0,1,1183.938,234.63Zm2.879-1.038a.372.372,0,0,1-.145-.715c.232-.1.465-.2.692-.3a.372.372,0,0,1,.307.677c-.233.105-.472.21-.71.31A.375.375,0,0,1,1186.816,233.592Zm2.751-1.338a.372.372,0,0,1-.181-.7c.22-.122.44-.248.655-.375a.372.372,0,0,1,.379.64c-.221.131-.447.26-.673.386A.368.368,0,0,1,1189.567,232.254Zm2.59-1.632a.372.372,0,0,1-.215-.675c.2-.145.409-.3.611-.447a.372.372,0,1,1,.447.594c-.206.156-.418.31-.627.459A.369.369,0,0,1,1192.156,230.621Zm2.4-1.907a.372.372,0,0,1-.248-.65c.188-.167.375-.338.558-.51a.372.372,0,0,1,.51.541c-.188.177-.381.353-.573.525A.372.372,0,0,1,1194.551,228.714Zm2.171-2.157a.372.372,0,0,1-.276-.621c.168-.186.335-.377.5-.569a.372.372,0,0,1,.565.484c-.167.2-.34.392-.512.583A.371.371,0,0,1,1196.722,226.557Zm1.923-2.38a.373.373,0,0,1-.3-.59q.221-.306.434-.618a.372.372,0,0,1,.614.419c-.146.214-.3.427-.446.634A.371.371,0,0,1,1198.645,224.178Zm1.656-2.572a.365.365,0,0,1-.184-.049.372.372,0,0,1-.139-.507q.188-.328.366-.661a.372.372,0,0,1,.656.351c-.12.224-.247.452-.375.678A.372.372,0,0,1,1200.3,221.606Zm1.375-2.732a.364.364,0,0,1-.149-.032.372.372,0,0,1-.191-.49q.151-.346.295-.7a.372.372,0,0,1,.689.282c-.1.236-.2.476-.3.713A.372.372,0,0,1,1201.676,218.873Zm1.084-2.86a.376.376,0,0,1-.114-.018.372.372,0,0,1-.24-.468q.115-.359.221-.721a.372.372,0,0,1,.714.209q-.109.372-.227.74A.372.372,0,0,1,1202.76,216.014Zm.785-2.955a.379.379,0,0,1-.077-.008.372.372,0,0,1-.287-.441c.052-.246.1-.493.147-.74a.372.372,0,1,1,.731.136q-.071.38-.15.759A.374.374,0,0,1,1203.545,213.058Zm.483-3.019-.041,0a.373.373,0,0,1-.33-.41q.042-.375.073-.751a.372.372,0,0,1,.741.063q-.032.385-.074.77A.373.373,0,0,1,1204.027,210.039Zm.178-3.053h0a.372.372,0,0,1-.371-.374v-.085c0-.22,0-.444-.01-.668a.372.372,0,0,1,.744-.023c.007.232.01.463.01.689v.09A.372.372,0,0,1,1204.206,206.986Zm-.2-3.052a.372.372,0,0,1-.368-.325c-.032-.247-.068-.5-.108-.746a.372.372,0,1,1,.734-.117c.041.256.078.514.11.768a.371.371,0,0,1-.321.416A.33.33,0,0,1,1204.011,203.934Zm-.565-3.006a.372.372,0,0,1-.361-.284c-.059-.244-.123-.489-.188-.732a.372.372,0,0,1,.718-.194q.1.374.193.75a.373.373,0,0,1-.362.46Zm-.862-2.935a.37.37,0,0,1-.352-.252q-.123-.358-.252-.715a.372.372,0,1,1,.7-.253q.13.363.255.728a.372.372,0,0,1-.232.472A.363.363,0,0,1,1202.584,197.993Zm-1.089-2.859a.372.372,0,0,1-.343-.229q-.147-.35-.3-.7a.372.372,0,0,1,.683-.3q.153.354.3.709a.373.373,0,0,1-.344.516Zm-1.248-2.794a.373.373,0,0,1-.337-.213q-.163-.346-.329-.688a.372.372,0,0,1,.67-.324q.168.346.332.694a.372.372,0,0,1-.177.5A.377.377,0,0,1,1200.248,192.34Zm-1.353-2.747a.372.372,0,0,1-.332-.2q-.174-.341-.347-.681a.372.372,0,0,1,.662-.34q.175.341.349.684a.372.372,0,0,1-.332.541Zm-1.4-2.721a.373.373,0,0,1-.331-.2c-.117-.226-.234-.452-.351-.68a.372.372,0,0,1,.662-.34q.174.34.35.678a.371.371,0,0,1-.159.5A.362.362,0,0,1,1197.493,186.872Zm-1.385-2.728a.371.371,0,0,1-.334-.208q-.169-.343-.337-.689a.372.372,0,0,1,.67-.325q.166.343.335.685a.372.372,0,0,1-.333.537Zm-1.312-2.765a.371.371,0,0,1-.339-.219q-.158-.35-.313-.7a.372.372,0,1,1,.681-.3q.153.348.31.7a.372.372,0,0,1-.339.525Zm-1.191-2.819a.373.373,0,0,1-.347-.237q-.14-.359-.275-.721a.372.372,0,0,1,.7-.26q.133.356.271.71a.372.372,0,0,1-.346.508Zm-1.019-2.887a.372.372,0,0,1-.355-.262q-.116-.37-.223-.741a.372.372,0,1,1,.715-.206q.1.364.218.726a.372.372,0,0,1-.245.466A.351.351,0,0,1,1192.586,175.672Zm-.779-2.961a.371.371,0,0,1-.363-.295c-.053-.252-.1-.508-.151-.761a.372.372,0,0,1,.732-.135c.046.247.095.5.148.742a.373.373,0,0,1-.287.441A.381.381,0,0,1,1191.807,172.711Zm-.463-3.024a.373.373,0,0,1-.37-.338c-.024-.262-.043-.523-.057-.776a.372.372,0,1,1,.742-.043c.014.244.033.5.056.75a.372.372,0,0,1-.336.4Zm-.067-3.057h-.019a.372.372,0,0,1-.353-.39c.013-.258.032-.52.055-.778a.372.372,0,1,1,.741.067c-.022.249-.039.5-.052.749A.373.373,0,0,1,1191.276,166.63Zm.4-3.031a.389.389,0,0,1-.078-.008.373.373,0,0,1-.286-.442c.024-.11.048-.22.074-.33a.372.372,0,0,1,.725.168c-.024.106-.048.212-.071.318A.372.372,0,0,1,1191.674,163.6Z" transform="translate(-1168.448 -158.875)" fill="#292739"/>
        <g id="Grupo_83772" data-name="Grupo 83772" transform="translate(18.564)">
          <path id="Trazado_104550" data-name="Trazado 104550" d="M1208.1,160.813l-1.616,1.162.355,1.958-1.964-.321-1.133,1.636-1.162-1.616-1.958.355.321-1.964-1.636-1.133,1.616-1.162-.355-1.958,1.964.321,1.133-1.636,1.162,1.616,1.958-.355-.321,1.965Z" transform="translate(-1199.302 -156.455)" fill="#eaeefa" stroke="#292739" stroke-linecap="round" stroke-linejoin="round" stroke-width="1.237"/>
        </g>
      </g>
      <g id="Grupo_83775" data-name="Grupo 83775" transform="translate(819.621 1366.434)">
        <path id="Trazado_104551" data-name="Trazado 104551" d="M1108.512,313.309l-3.629,2.035v-22l3.629-5.2Z" transform="translate(-968.843 -285.321)" fill="#79a2e4" stroke="#292739" stroke-linecap="round" stroke-linejoin="round" stroke-width="1.237"/>
        <rect id="Rectángulo_33829" data-name="Rectángulo 33829" width="3.629" height="21.858" transform="translate(132.411 8.166)" fill="#d8e5ee" stroke="#292739" stroke-linecap="round" stroke-linejoin="round" stroke-width="1.237"/>
        <path id="Trazado_104552" data-name="Trazado 104552" d="M1070.677,350.626l-3.629,2.035v-22l3.629-5.2Z" transform="translate(-953.772 -300.185)" fill="#79a2e4" stroke="#292739" stroke-linecap="round" stroke-linejoin="round" stroke-width="1.237"/>
        <rect id="Rectángulo_33830" data-name="Rectángulo 33830" width="3.629" height="21.858" transform="translate(0 30.618)" fill="#a4d2f3" stroke="#292739" stroke-linecap="round" stroke-linejoin="round" stroke-width="1.237"/>
        <path id="Trazado_104553" data-name="Trazado 104553" d="M888.436,352.849l-3.629,2.035v-22l3.629-1.842Z" transform="translate(-881.178 -302.408)" fill="#79a2e4" stroke="#292739" stroke-linecap="round" stroke-linejoin="round" stroke-width="1.237"/>
        <g id="Grupo_83774" data-name="Grupo 83774" transform="translate(0)">
          <path id="Trazado_104554" data-name="Trazado 104554" d="M992.052,307.953H878.776l34.834-24.5h104.835Z" transform="translate(-878.776 -283.453)" fill="#fff" stroke="#292739" stroke-linecap="round" stroke-linejoin="round" stroke-width="1.237"/>
          <path id="Trazado_104555" data-name="Trazado 104555" d="M1093.441,283.453v5.379l-26.393,25.093v-5.972Z" transform="translate(-953.772 -283.453)" fill="#79a2e4" stroke="#292739" stroke-linecap="round" stroke-linejoin="round" stroke-width="1.237"/>
          <rect id="Rectángulo_33831" data-name="Rectángulo 33831" width="113.276" height="5.972" transform="translate(0 24.501)" fill="#a4d2f3" stroke="#292739" stroke-linecap="round" stroke-linejoin="round" stroke-width="1.237"/>
        </g>
        <rect id="Rectángulo_33832" data-name="Rectángulo 33832" width="3.629" height="21.858" transform="translate(109.647 30.618)" fill="#a4d2f3" stroke="#292739" stroke-linecap="round" stroke-linejoin="round" stroke-width="1.237"/>
      </g>
      <g id="Grupo_83783" data-name="Grupo 83783" transform="translate(952.032 1323.554)">
        <g id="Grupo_83776" data-name="Grupo 83776">
          <path id="Trazado_104556" data-name="Trazado 104556" d="M1173.061,239.868l6.673-8.481,1.474-10.969s0-5.822-8.147-8.234Z" transform="translate(-1128.413 -212.184)" fill="#a4d2f3" stroke="#292739" stroke-linecap="round" stroke-linejoin="round" stroke-width="1.237"/>
          <path id="Trazado_104557" data-name="Trazado 104557" d="M1098.852,232.327v21.261h41.78c11.852,0,11.016-5.949,11.016-5.949V225.87s-.063,6.727-11.016,6.727S1098.852,232.327,1098.852,232.327Z" transform="translate(-1098.852 -217.636)" fill="#79a2e4" stroke="#292739" stroke-linecap="round" stroke-linejoin="round" stroke-width="1.237"/>
          <path id="Trazado_104558" data-name="Trazado 104558" d="M1102.3,255.935v-17.1c7.13.06,30.529.252,39.707.252a16.573,16.573,0,0,0,8.943-2.124v15.313l.014.045a2.221,2.221,0,0,1-.676,1.469c-.751.8-2.825,2.142-8.281,2.142Z" transform="translate(-1100.225 -222.056)" fill="#fff"/>
        </g>
        <g id="Grupo_83782" data-name="Grupo 83782" transform="translate(4.57 17.718)">
          <path id="Trazado_104559" data-name="Trazado 104559" d="M1145.705,257.461h-37.161V245.336l5.276,4.018,3.926-3.793,7.75,6.331,4.921-4.055,7.081,5.1,6.73-4.685Z" transform="translate(-1107.283 -243.107)" fill="#d8e5ee"/>
          <g id="Grupo_83781" data-name="Grupo 83781">
            <g id="Grupo_83780" data-name="Grupo 83780">
              <g id="Grupo_83779" data-name="Grupo 83779">
                <path id="Trazado_104560" data-name="Trazado 104560" d="M1145.738,256.674H1108.3a.372.372,0,0,1-.372-.372V242.8a.372.372,0,0,1,.744,0v13.132h37.068a.372.372,0,1,1,0,.744Z" transform="translate(-1107.037 -241.949)" fill="#292739"/>
                <g id="Grupo_83777" data-name="Grupo 83777">
                  <path id="Trazado_104561" data-name="Trazado 104561" d="M1106.448,243.964l1.261-1.262,1.261,1.262v-1.071l-1.261-1.261-1.261,1.261Z" transform="translate(-1106.448 -241.632)" fill="#292739"/>
                </g>
                <g id="Grupo_83778" data-name="Grupo 83778" transform="translate(37.22 13.093)">
                  <path id="Trazado_104562" data-name="Trazado 104562" d="M1168.31,265.915l1.262-1.261-1.262-1.261h1.071l1.261,1.261-1.261,1.261Z" transform="translate(-1168.31 -263.393)" fill="#292739"/>
                </g>
              </g>
            </g>
          </g>
          <path id="Trazado_104563" data-name="Trazado 104563" d="M1144.784,257.763a.608.608,0,0,1-.364-.12l-6.448-4.774-7.425,3.177a.605.605,0,0,1-.2.048l-6.13.377a.612.612,0,0,1-.506-.218l-5.288-6.3-7.547,4.622a.612.612,0,0,1-.64-1.044l8-4.9a.613.613,0,0,1,.789.128l5.428,6.464,5.717-.351,7.65-3.274a.612.612,0,0,1,.6.07l6.73,4.984a.612.612,0,0,1-.365,1.1Z" transform="translate(-1107.839 -244.387)" fill="#79a2e4"/>
          <path id="Trazado_104564" data-name="Trazado 104564" d="M1135.505,256.078a.613.613,0,0,1-.409-.156l-7.069-6.341-6.869,1.96-4.605,4.37a.612.612,0,0,1-.842-.888l4.713-4.473a.615.615,0,0,1,.253-.145l7.339-2.094a.614.614,0,0,1,.576.133l6.733,6.039,4.6-8.882a.613.613,0,0,1,.455-.324l6.541-.952a.612.612,0,0,1,.177,1.212l-6.23.906-4.816,9.3a.61.61,0,0,1-.433.321A.566.566,0,0,1,1135.505,256.078Z" transform="translate(-1110.062 -242.702)" fill="#79a2e4"/>
        </g>
      </g>
      <g id="Grupo_83795" data-name="Grupo 83795" transform="translate(825.978 1309.241)">
        <g id="Grupo_83790" data-name="Grupo 83790" transform="translate(74.765)">
          <circle id="Elipse_4193" data-name="Elipse 4193" cx="18.674" cy="18.674" r="18.674" transform="matrix(0.264, -0.965, 0.965, 0.264, 15.916, 36.023)" fill="#79a2e4"/>
          <g id="Grupo_83786" data-name="Grupo 83786" transform="translate(25.786 8.665)">
            <g id="Grupo_83784" data-name="Grupo 83784" transform="translate(0.7 0.635)">
              <rect id="Rectángulo_33833" data-name="Rectángulo 33833" width="22.072" height="3.502" transform="translate(12.674 22.072) rotate(-89.754)" fill="#2b47a0"/>
              <rect id="Rectángulo_33834" data-name="Rectángulo 33834" width="15.676" height="3.502" transform="matrix(0.004, -1, 1, 0.004, 6.337, 22.045)" fill="#2b47a0"/>
              <rect id="Rectángulo_33835" data-name="Rectángulo 33835" width="15.676" height="3.502" transform="matrix(0.004, -1, 1, 0.004, 18.789, 22.098)" fill="#2b47a0"/>
              <rect id="Rectángulo_33836" data-name="Rectángulo 33836" width="8.481" height="3.502" transform="translate(0 22.017) rotate(-89.754)" fill="#2b47a0"/>
            </g>
            <g id="Grupo_83785" data-name="Grupo 83785" transform="translate(0 0)">
              <rect id="Rectángulo_33837" data-name="Rectángulo 33837" width="22.072" height="3.502" transform="translate(12.674 22.072) rotate(-89.754)" fill="#fff"/>
              <rect id="Rectángulo_33838" data-name="Rectángulo 33838" width="15.676" height="3.502" transform="matrix(0.004, -1, 1, 0.004, 6.337, 22.045)" fill="#fff"/>
              <rect id="Rectángulo_33839" data-name="Rectángulo 33839" width="15.676" height="3.502" transform="matrix(0.004, -1, 1, 0.004, 18.789, 22.098)" fill="#fff"/>
              <rect id="Rectángulo_33840" data-name="Rectángulo 33840" width="8.481" height="3.502" transform="translate(0 22.017) rotate(-89.754)" fill="#fff"/>
            </g>
          </g>
          <g id="Grupo_83789" data-name="Grupo 83789" transform="translate(0 1.502)">
            <g id="Grupo_83788" data-name="Grupo 83788">
              <g id="Grupo_83787" data-name="Grupo 83787">
                <path id="Trazado_104565" data-name="Trazado 104565" d="M1017.365,265.974a3.872,3.872,0,0,1-2.507-1.2,2.1,2.1,0,0,1-.628-1.589c.03-.4,1.582-2.5,9.767-13.2,5.944-7.77,12.682-16.576,14.871-19.928.532-.814.164-1.14.12-1.174l-.02-.017a21.175,21.175,0,1,1,4.107,2.774.188.188,0,0,1-.058-.037h0a.347.347,0,0,0-.152-.033c-.248,0-.548.228-.844.642-1.27,1.771-3.67,5.2-6.449,9.168-11.444,16.343-17.009,24.176-17.682,24.488a1.243,1.243,0,0,1-.525.1Zm35.506-70.562a17.471,17.471,0,0,0-3,.261,17.274,17.274,0,1,0,3-.261Z" transform="translate(-1013.854 -191.138)" fill="#eaeefa"/>
                <path id="Trazado_104566" data-name="Trazado 104566" d="M1052.641,191.635a20.876,20.876,0,1,1-9.64,39.432.653.653,0,0,0-.381-.113c-.277,0-.683.15-1.146.8-4.5,6.28-23.007,33.084-23.984,33.536a.893.893,0,0,1-.37.067c-1,0-2.865-1.035-2.764-2.384.06-.792,20.45-26.631,24.58-32.952.76-1.163.03-1.677.03-1.677a20.875,20.875,0,0,1,13.677-36.706m-.082,38.585a17.7,17.7,0,1,0-10.128-3.2,17.684,17.684,0,0,0,10.128,3.2m.082-39.329a21.614,21.614,0,0,0-14.161,38.015l.022.018c.072.082.043.33-.19.687-2.182,3.339-8.915,12.14-14.856,19.9-9.439,12.338-9.806,12.92-9.843,13.4a2.463,2.463,0,0,0,.727,1.87,4.216,4.216,0,0,0,2.779,1.315,1.609,1.609,0,0,0,.682-.137c.3-.139.64-.3,6.66-8.743,3.409-4.786,7.533-10.674,11.17-15.869,2.778-3.969,5.178-7.4,6.446-9.165.271-.378.466-.477.531-.486l.049.028a21.634,21.634,0,1,0,9.983-40.837Zm-.082,38.585a16.794,16.794,0,0,1-9.7-3.069,16.977,16.977,0,0,1,9.767-30.869,16.969,16.969,0,0,1,13.839,26.713,16.985,16.985,0,0,1-13.906,7.225Z" transform="translate(-1013.607 -190.891)" fill="#292739"/>
              </g>
            </g>
          </g>
        </g>
        <g id="Grupo_83794" data-name="Grupo 83794" transform="translate(0 16.795)">
          <path id="Trazado_104567" data-name="Trazado 104567" d="M988.343,226.41c-.465-.288-.949-.559-1.417-.824a18.991,18.991,0,0,0-10.753-2.763c-6.109.509-9.815,5.319-11.278,10.922a7.512,7.512,0,0,0,.206,4.889c1.156,2.626,4.289,4,7.143,3.713A11.252,11.252,0,0,0,978.7,239.3c.676-.668,1.108-1.443,1.829-2.069a28.776,28.776,0,0,0,2.978-2.391,1.977,1.977,0,0,1,1.862-.9c.65.021,1.292.173,1.942.159a3.927,3.927,0,0,0,3.422-2.272C991.933,229.138,990.3,227.62,988.343,226.41Z" transform="translate(-919.315 -218.885)" fill="#292739" stroke="#292739" stroke-linecap="round" stroke-linejoin="round" stroke-width="1.237"/>
          <g id="Grupo_83791" data-name="Grupo 83791" transform="translate(44.742 7.862)">
            <path id="Trazado_104568" data-name="Trazado 104568" d="M981.2,244.989c-1.5,1.5-4.363,3.673-5.819,1.351,0,0-1.624,3.372-1.4,4.162a3.941,3.941,0,0,0,1.139,1.606l5.124,5.118a14.835,14.835,0,0,1-10.462-.362,10.537,10.537,0,0,1-4.579-3.486c-1.121-1.587-1.835-1.96-1.333-3.837-.135.5,3.319-1.224,3.8-2.257.6-1.288.636-3.341.953-4.753.555-2.484.988-5.073,1.777-7.5,1.113-3.419,3.363-5.677,7.116-5.659C986.594,229.423,986.268,239.919,981.2,244.989Z" transform="translate(-963.706 -229.377)" fill="#fd9572" stroke="#292739" stroke-linecap="round" stroke-linejoin="round" stroke-width="1.237"/>
          </g>
          <path id="Trazado_104569" data-name="Trazado 104569" d="M1017.694,277.826l.723.011c1.534.017,3.884.719,5.328.082,1.271-.56,2.636-2.188,3.694-3.109,3.835-3.336,5.8-8.156,9.5-11.712,1.2-1.154,2.851-2.3,4.405-1.7a8.488,8.488,0,0,1-2.167,3.63.474.474,0,0,0-.087.564,5.056,5.056,0,0,1-2.072,6.7,10.878,10.878,0,0,0-2.1,1.009c-1.262,1.005-1.393,2.863-2.147,4.2a22.8,22.8,0,0,1-3.037,4.314,7.868,7.868,0,0,1-2.161,1.762c-2.436,1.206-6.029.473-8.684.644-3.631.234-5.878-2.429-7.541-5.384a.177.177,0,0,1-.033-.122c.013-.053.069-.082.12-.1A14.241,14.241,0,0,1,1017.694,277.826Z" transform="translate(-937.928 -234.206)" fill="#fd9572" stroke="#292739" stroke-linecap="round" stroke-linejoin="round" stroke-width="1.237"/>
          <path id="Trazado_104570" data-name="Trazado 104570" d="M943.637,297.436a108.264,108.264,0,0,0,2.787,13.578c1.3,4.745,2.055,7.608,7.035,7.935a98.2,98.2,0,0,1,12.1,1.716c1.335.256,2.689.93,4.016,1.05a17.606,17.606,0,0,0,5.432-.915,8.6,8.6,0,0,0,3.289-1.415c2.138-1.7,2.462-4.761,2.617-7.485.1-1.682-4.59-5.458-6.167-6.209a5.045,5.045,0,0,1-2.54-4.423c-.106-2.689.995-5.594,1.642-8.18.182-.729,2.961-9.138,3.137-9.106a92.657,92.657,0,0,0,21.2.924c-.814-2.432-.973-5.676-1.787-8.108-3.319.574-7.26-.581-10.21-2.041q-4.973-2.462-9.87-5.072c-2.567-1.366-5.655-3.056-8.7-2.729-2.786.3-5.7.582-8.311-.422s-4.148-1.137-3.549-3.874c.187-.858-5.531.084-5.821.36C943.55,269.107,942.759,291.137,943.637,297.436Z" transform="translate(-910.852 -234.632)" fill="#fff" stroke="#292739" stroke-linecap="round" stroke-linejoin="round" stroke-width="1.237"/>
          <path id="Trazado_104571" data-name="Trazado 104571" d="M996.725,297.911l-.042,0a16.932,16.932,0,0,1-3.549-.848.372.372,0,0,1,.259-.7,16.418,16.418,0,0,0,3.374.806.372.372,0,0,1-.042.742Z" transform="translate(-930.59 -248.189)" fill="#292739"/>
          <path id="Trazado_104572" data-name="Trazado 104572" d="M1031.064,285.112l-3.667.816.818,8.244,4.609.509Z" transform="translate(-944.335 -243.717)" fill="#79a2e4" stroke="#292739" stroke-linecap="round" stroke-linejoin="round" stroke-width="1.237"/>
          <path id="Trazado_104573" data-name="Trazado 104573" d="M977.322,339.792c-.466.184-.6,1.614-1.074,1.766.623-.2,8.992,16.324,9.953,18.071l23.871-16.088-3.641-5.678c-1.733-2.7-4.912-3.777-7.961-4.089a53.481,53.481,0,0,0-7.559.158C989.875,334.023,980.369,338.587,977.322,339.792Z" transform="translate(-923.96 -263.068)" fill="#2b47a0" stroke="#292739" stroke-linecap="round" stroke-linejoin="round" stroke-width="1.252"/>
          <g id="Grupo_83793" data-name="Grupo 83793" transform="translate(0 31.835)">
            <path id="Trazado_104574" data-name="Trazado 104574" d="M980.294,318.806a3.487,3.487,0,0,0-4.84-.946l-7.52,5.06c-.312-.671-.661-1.389-1.044-2.125-2.474-4.756-4.968-7.723-7.625-9.069-3.609-1.828-7.736-.983-12.51.986-2.726-5.681-5.775-14.108-9.094-27.007a21.976,21.976,0,0,0-21.289-16.482H895.547a6.2,6.2,0,0,0-6.012,7.724l.182.842h0l12.124,56.024a3.487,3.487,0,0,0,2.452,5.966h51.082l23.974-16.131A3.488,3.488,0,0,0,980.294,318.806Zm-25.178,12.738a80.537,80.537,0,0,0-5.17-12.605c2.665-1.062,4.931-1.619,6.167-.993,1.9.965,4.345,5.25,5.962,8.917Z" transform="translate(-889.342 -269.222)" fill="#a4d2f3"/>
            <path id="Trazado_104575" data-name="Trazado 104575" d="M980.3,318.806a3.487,3.487,0,0,0-4.84-.946l-7.52,5.06c-.312-.671-.661-1.389-1.044-2.125-2.473-4.756-4.968-7.723-7.625-9.069-3.609-1.828-7.736-.983-12.51.986-2.726-5.681-5.775-14.108-9.094-27.007a21.977,21.977,0,0,0-21.289-16.482H895.548a6.2,6.2,0,0,0-6.07,7.462c.1,0,.209-.009.315-.009h20.825a21.975,21.975,0,0,1,21.289,16.482c3.32,12.9,6.369,21.326,9.095,27.007,2.879,7.038,5.967,14.361,8.2,19.613h6.175l23.974-16.131A3.488,3.488,0,0,0,980.3,318.806Zm-25.178,12.738a80.549,80.549,0,0,0-5.17-12.605c2.665-1.062,4.931-1.619,6.167-.993,1.9.965,4.345,5.25,5.962,8.917Z" transform="translate(-889.344 -269.222)" fill="#d8e5ee"/>
            <g id="Grupo_83792" data-name="Grupo 83792" transform="translate(3.103 2.194)">
              <path id="Trazado_104576" data-name="Trazado 104576" d="M894.5,274.467q1.542-.313,3.1-.537t3.111-.406c2.077-.234,4.16-.411,6.25-.517s4.184-.161,6.284-.128c.525.007,1.051.022,1.576.035s1.052.045,1.579.078c1.054.058,2.109.147,3.167.277a26.651,26.651,0,0,1,6.307,1.506,21,21,0,0,1,2.962,1.393,18.533,18.533,0,0,1,2.687,1.879,16.743,16.743,0,0,1,4.056,5.043,18.309,18.309,0,0,1,1.9,6.031,24.035,24.035,0,0,0-2.839-5.458,17.68,17.68,0,0,0-4.215-4.2,19.846,19.846,0,0,0-5.291-2.615,28.7,28.7,0,0,0-5.842-1.219c-1.007-.111-2.026-.188-3.047-.262s-2.047-.126-3.076-.174-2.058-.1-3.091-.125l-3.1-.105-6.222-.2C898.674,274.685,896.592,274.606,894.5,274.467Z" transform="translate(-894.499 -272.868)" fill="#fff"/>
            </g>
            <path id="Trazado_104577" data-name="Trazado 104577" d="M978.858,332.507l-3.174,1.342-.011,0a.3.3,0,0,1-.4-.161l-.005-.014-5.718-15.612,6.292,15.389-.412-.17,3.122-1.458a.372.372,0,0,1,.315.674Z" transform="translate(-921.293 -288.679)" fill="#292739"/>
            <path id="Trazado_104578" data-name="Trazado 104578" d="M987.688,351.947l-3.54,1.491.153-.416,4.875,10.811-5.429-10.543a.3.3,0,0,1,.129-.4l.011-.005.013-.006,3.489-1.608a.372.372,0,0,1,.311.676Z" transform="translate(-926.934 -301.89)" fill="#292739"/>
          </g>
          <path id="Trazado_104579" data-name="Trazado 104579" d="M980.294,318.806a3.487,3.487,0,0,0-4.84-.946l-7.52,5.06c-.312-.671-.661-1.389-1.044-2.125-2.474-4.756-4.968-7.723-7.625-9.069-3.609-1.828-7.736-.983-12.51.986-2.726-5.681-5.775-14.108-9.094-27.007a21.976,21.976,0,0,0-21.289-16.482H895.547a6.2,6.2,0,0,0-6.012,7.724l.182.842h0l12.124,56.024a3.487,3.487,0,0,0,2.452,5.966h51.082l23.974-16.131A3.488,3.488,0,0,0,980.294,318.806Zm-25.178,12.738a80.537,80.537,0,0,0-5.17-12.605c2.665-1.062,4.931-1.619,6.167-.993,1.9.965,4.345,5.25,5.962,8.917Z" transform="translate(-889.342 -237.387)" fill="none" stroke="#292739" stroke-linecap="round" stroke-linejoin="round" stroke-width="1.237"/>
          <path id="Trazado_104580" data-name="Trazado 104580" d="M973.707,265.226l2.96,1.623a14.4,14.4,0,0,1-10.09,1.32,8.495,8.495,0,0,1-6.416-5.863h2.134C963.632,264.613,970.833,266.892,973.707,265.226Z" transform="translate(-917.552 -234.632)" fill="#79a2e4" stroke="#292739" stroke-linecap="round" stroke-linejoin="round" stroke-width="1.237"/>
          <path id="Trazado_104581" data-name="Trazado 104581" d="M958.9,231.809a21.981,21.981,0,0,1-6.845,5.082c-3.807,1.709-8.837,1.358-11.5-1.853-.61-.734-1.27-1.684-2.221-1.608a1.745,1.745,0,0,0-1.379,1.218,6.515,6.515,0,0,0-.246,1.92c-.215,4.44-2.262,8.557-4.267,12.525-1.375,2.721-2.821,5.529-5.2,7.432a8.152,8.152,0,0,1-6.06,1.819c-2.642-.385-3.562-2.385-5.42-3.976-1.239-1.061-2.284-1.049-3.917-1.575a12.292,12.292,0,0,1-7.523-6.368c-1.925-4.255-.419-9.991,3.722-12.149a4.372,4.372,0,0,1,4.066-.264c1.16.649,1.729,1.981,2.617,2.97,2.027,2.256,5.619,2.483,8.435,1.354,4.8-1.927,6.984-5.2,8.385-9.823.571-1.883,1.448-4.041,3.315-4.976a4.9,4.9,0,0,1,3.041-.39c.844.153,1.781.9,2.654.628,1.049-.332,1.559-2.058,2.112-2.885a10.271,10.271,0,0,1,9.641-4.509c5.348.661,9.811,6.175,8.732,11.609A8.7,8.7,0,0,1,958.9,231.809Z" transform="translate(-894.977 -216.31)" fill="#292739" stroke="#292739" stroke-linecap="round" stroke-linejoin="round" stroke-width="1.237"/>
        </g>
      </g>
      <g id="Grupo_83818" data-name="Grupo 83818" transform="translate(913.902 1343.16)">
        <g id="Grupo_83799" data-name="Grupo 83799" transform="translate(0 43.25)">
          <path id="Trazado_104582" data-name="Trazado 104582" d="M1077.027,351.012h19.343a13.522,13.522,0,0,0,9.005-3.437l15.866-14.457a8.56,8.56,0,0,0,2.857-6.384v-1.519a8.56,8.56,0,0,0-8.56-8.56h-51.017a9.957,9.957,0,0,0-5.954,1.976l-17.718,14.453a9.964,9.964,0,0,0-3.618,5.234h0Z" transform="translate(-1036.177 -316.655)" fill="#eaeefa" stroke="#292739" stroke-linecap="round" stroke-linejoin="round" stroke-width="1.237"/>
          <path id="Trazado_104583" data-name="Trazado 104583" d="M1145.245,335.567,1162.95,322.3l-16.432,14.949a1.057,1.057,0,1,1-1.407-1.577A1.276,1.276,0,0,1,1145.245,335.567Z" transform="translate(-1079.009 -318.902)" fill="#a4d2f3"/>
          <path id="Trazado_104584" data-name="Trazado 104584" d="M1148.824,353.486l17.534-14.878-16.768,15.762a.586.586,0,1,1-.8-.853C1148.8,353.506,1148.812,353.5,1148.824,353.486Z" transform="translate(-1080.541 -325.4)" fill="#a4d2f3"/>
          <path id="Trazado_104585" data-name="Trazado 104585" d="M1094.5,344.77h-52.224a7.275,7.275,0,0,0-2.5.44,9.96,9.96,0,0,0-2.547,4.308l39.8,12.693h19.343a8.809,8.809,0,0,0,3.871-.567,5.66,5.66,0,0,0,2.809-5.212v-3.115A8.548,8.548,0,0,0,1094.5,344.77Z" transform="translate(-1036.177 -327.854)" fill="#a4d2f3"/>
          <path id="Trazado_104586" data-name="Trazado 104586" d="M1115.5,316.655h-51.017a9.958,9.958,0,0,0-5.955,1.976l-17.718,14.453a9.708,9.708,0,0,0-3.682,5.086l39.859,12.842h19.342a13.522,13.522,0,0,0,9.006-3.437l15.866-14.457a8.559,8.559,0,0,0,2.857-6.384v-1.519A8.56,8.56,0,0,0,1115.5,316.655Z" transform="translate(-1036.134 -316.655)" fill="none" stroke="#292739" stroke-linecap="round" stroke-linejoin="round" stroke-width="1.237"/>
          <g id="Grupo_83798" data-name="Grupo 83798" transform="translate(0 18.437)">
            <rect id="Rectángulo_33841" data-name="Rectángulo 33841" width="65.35" height="15.92" rx="7.96" fill="#79a2e4" stroke="#292739" stroke-linecap="round" stroke-linejoin="round" stroke-width="1.237"/>
            <g id="Grupo_83796" data-name="Grupo 83796" transform="translate(4.038 4.218)">
              <rect id="Rectángulo_33842" data-name="Rectángulo 33842" width="10.66" height="3.742" fill="#eaeefa"/>
              <rect id="Rectángulo_33843" data-name="Rectángulo 33843" width="10.66" height="3.742" transform="translate(14.201)" fill="#eaeefa"/>
              <rect id="Rectángulo_33844" data-name="Rectángulo 33844" width="10.66" height="3.742" transform="translate(28.402)" fill="#eaeefa"/>
              <rect id="Rectángulo_33845" data-name="Rectángulo 33845" width="10.66" height="3.742" transform="translate(42.603)" fill="#eaeefa"/>
            </g>
            <g id="Grupo_83797" data-name="Grupo 83797" transform="translate(4.572 10.755)">
              <path id="Trazado_104587" data-name="Trazado 104587" d="M1045.487,366.372a1.2,1.2,0,1,1-1.2-1.2A1.2,1.2,0,0,1,1045.487,366.372Z" transform="translate(-1043.077 -365.174)" fill="#2b47a0"/>
              <path id="Trazado_104588" data-name="Trazado 104588" d="M1056.329,366.372a1.2,1.2,0,1,1-1.2-1.2A1.2,1.2,0,0,1,1056.329,366.372Z" transform="translate(-1047.396 -365.174)" fill="#a4d2f3"/>
              <path id="Trazado_104589" data-name="Trazado 104589" d="M1067.172,366.372a1.2,1.2,0,1,1-1.2-1.2A1.2,1.2,0,0,1,1067.172,366.372Z" transform="translate(-1051.715 -365.174)" fill="#fff"/>
              <path id="Trazado_104590" data-name="Trazado 104590" d="M1078.015,366.372a1.2,1.2,0,1,1-1.2-1.2A1.2,1.2,0,0,1,1078.015,366.372Z" transform="translate(-1056.034 -365.174)" fill="#fff"/>
              <path id="Trazado_104591" data-name="Trazado 104591" d="M1088.857,366.372a1.2,1.2,0,1,1-1.2-1.2A1.2,1.2,0,0,1,1088.857,366.372Z" transform="translate(-1060.354 -365.174)" fill="#2b47a0"/>
              <ellipse id="Elipse_4194" data-name="Elipse 4194" cx="1.205" cy="1.199" rx="1.205" ry="1.199" transform="translate(32.618)" fill="#fd9572" stroke="#292739" stroke-linecap="round" stroke-linejoin="round" stroke-width="1.237"/>
            </g>
          </g>
        </g>
        <g id="Grupo_83808" data-name="Grupo 83808" transform="translate(15.632 20.594)">
          <path id="Trazado_104592" data-name="Trazado 104592" d="M1092.459,315.906h14.62a10.215,10.215,0,0,0,6.806-2.6l7.113-6.353a6.469,6.469,0,0,0,2.16-4.825V285.47a6.47,6.47,0,0,0-6.47-6.47h-38.562a7.527,7.527,0,0,0-4.5,1.494l-8.512,6.349a7.529,7.529,0,0,0-2.734,3.957h0Z" transform="translate(-1061.825 -279)" fill="#79a2e4" stroke="#292739" stroke-linecap="round" stroke-linejoin="round" stroke-width="1.237"/>
          <path id="Trazado_104593" data-name="Trazado 104593" d="M1144.021,288.72l8.5-5.457-7.54,6.725a.8.8,0,0,1-1.063-1.192A.909.909,0,0,1,1144.021,288.72Z" transform="translate(-1094.201 -280.698)" fill="#fff"/>
          <path id="Trazado_104594" data-name="Trazado 104594" d="M1146.727,328.045l8.373-6.671-7.794,7.339a.443.443,0,1,1-.607-.644Z" transform="translate(-1095.358 -295.879)" fill="#fff"/>
          <path id="Trazado_104595" data-name="Trazado 104595" d="M1106.3,292.647h-40.418a5.492,5.492,0,0,0-1.889.333c-.9.9-2.04,3.991-2.4,5.229l30.55,23.133h14.62a10.208,10.208,0,0,0,3.615-.662,5.493,5.493,0,0,0,1.434-3.706v-18.81A5.523,5.523,0,0,0,1106.3,292.647Z" transform="translate(-1061.514 -284.436)" fill="#fff"/>
          <path id="Trazado_104596" data-name="Trazado 104596" d="M1116.484,279h-38.562a7.529,7.529,0,0,0-4.5,1.494l-8.512,6.349a7.049,7.049,0,0,0-3.041,5.829l30.387,23.233h14.62a10.215,10.215,0,0,0,6.807-2.6l7.113-6.353a6.469,6.469,0,0,0,2.16-4.825V285.47A6.47,6.47,0,0,0,1116.484,279Z" transform="translate(-1061.622 -279)" fill="none" stroke="#292739" stroke-linecap="round" stroke-linejoin="round" stroke-width="1.237"/>
          <path id="Trazado_104597" data-name="Trazado 104597" d="M1104.594,322.1h-37.119c-3.323,0-6.017-1.028-6.017-4.351V300.575a6.017,6.017,0,0,1,6.017-6.017h37.119a6.017,6.017,0,0,1,6.017,6.017v17.178C1110.611,321.075,1107.917,322.1,1104.594,322.1Z" transform="translate(-1061.459 -285.197)" fill="#eaeefa" stroke="#292739" stroke-linecap="round" stroke-linejoin="round" stroke-width="1.237"/>
          <path id="Trazado_104598" data-name="Trazado 104598" d="M1103.47,321.541H1069.1c-2.638,0-4.777-1.467-4.777-4.105V301.252a4.777,4.777,0,0,1,4.777-4.777h34.367a4.777,4.777,0,0,1,4.777,4.777v16.184C1108.247,320.075,1106.108,321.541,1103.47,321.541Z" transform="translate(-1062.601 -285.961)" fill="#fff"/>
          <g id="Grupo_83803" data-name="Grupo 83803" transform="translate(5.404 12.568)">
            <g id="Grupo_83800" data-name="Grupo 83800" transform="translate(0.715)">
              <rect id="Rectángulo_33846" data-name="Rectángulo 33846" width="9.275" height="3.688" fill="#79a2e4"/>
              <rect id="Rectángulo_33847" data-name="Rectángulo 33847" width="9.275" height="3.688" transform="translate(12.87)" fill="#79a2e4"/>
              <rect id="Rectángulo_33848" data-name="Rectángulo 33848" width="9.275" height="3.688" transform="translate(25.741)" fill="#79a2e4"/>
            </g>
            <g id="Grupo_83801" data-name="Grupo 83801">
              <rect id="Rectángulo_33849" data-name="Rectángulo 33849" width="9.275" height="3.272" fill="#a4d2f3"/>
              <rect id="Rectángulo_33850" data-name="Rectángulo 33850" width="9.275" height="3.272" transform="translate(12.87)" fill="#a4d2f3"/>
              <rect id="Rectángulo_33851" data-name="Rectángulo 33851" width="9.275" height="3.272" transform="translate(25.741)" fill="#a4d2f3"/>
            </g>
            <g id="Grupo_83802" data-name="Grupo 83802" transform="translate(0.488 5.716)">
              <path id="Trazado_104599" data-name="Trazado 104599" d="M1073.349,310.437a1.048,1.048,0,1,1-1.048-1.048A1.048,1.048,0,0,1,1073.349,310.437Z" transform="translate(-1071.253 -309.389)" fill="#79a2e4"/>
              <path id="Trazado_104600" data-name="Trazado 104600" d="M1082.783,310.437a1.048,1.048,0,1,1-1.048-1.048A1.048,1.048,0,0,1,1082.783,310.437Z" transform="translate(-1075.011 -309.389)" fill="#79a2e4"/>
              <path id="Trazado_104601" data-name="Trazado 104601" d="M1092.218,310.437a1.048,1.048,0,1,1-1.049-1.048A1.048,1.048,0,0,1,1092.218,310.437Z" transform="translate(-1078.769 -309.389)" fill="#2b47a0"/>
              <path id="Trazado_104602" data-name="Trazado 104602" d="M1101.652,310.437a1.048,1.048,0,1,1-1.048-1.048A1.048,1.048,0,0,1,1101.652,310.437Z" transform="translate(-1082.527 -309.389)" fill="#fd9572" stroke="#292739" stroke-linecap="round" stroke-linejoin="round" stroke-width="1.237"/>
            </g>
            <rect id="Rectángulo_33852" data-name="Rectángulo 33852" width="12.711" height="2.096" transform="translate(22.304 5.715)" fill="#79a2e4" stroke="#292739" stroke-linecap="round" stroke-linejoin="round" stroke-width="1.237"/>
          </g>
          <g id="Grupo_83807" data-name="Grupo 83807" transform="translate(5.404 25.054)">
            <g id="Grupo_83804" data-name="Grupo 83804" transform="translate(0.715)">
              <rect id="Rectángulo_33853" data-name="Rectángulo 33853" width="9.275" height="3.689" fill="#79a2e4"/>
              <rect id="Rectángulo_33854" data-name="Rectángulo 33854" width="9.275" height="3.689" transform="translate(12.87)" fill="#79a2e4"/>
              <rect id="Rectángulo_33855" data-name="Rectángulo 33855" width="9.275" height="3.689" transform="translate(25.741)" fill="#79a2e4"/>
            </g>
            <g id="Grupo_83805" data-name="Grupo 83805">
              <rect id="Rectángulo_33856" data-name="Rectángulo 33856" width="9.275" height="3.272" fill="#a4d2f3"/>
              <rect id="Rectángulo_33857" data-name="Rectángulo 33857" width="9.275" height="3.272" transform="translate(12.87)" fill="#a4d2f3"/>
              <rect id="Rectángulo_33858" data-name="Rectángulo 33858" width="9.275" height="3.272" transform="translate(25.741)" fill="#a4d2f3"/>
            </g>
            <g id="Grupo_83806" data-name="Grupo 83806" transform="translate(0.488 5.716)">
              <path id="Trazado_104603" data-name="Trazado 104603" d="M1073.349,331.189a1.048,1.048,0,1,1-1.048-1.048A1.048,1.048,0,0,1,1073.349,331.189Z" transform="translate(-1071.253 -330.141)" fill="#79a2e4"/>
              <path id="Trazado_104604" data-name="Trazado 104604" d="M1082.783,331.189a1.048,1.048,0,1,1-1.048-1.048A1.048,1.048,0,0,1,1082.783,331.189Z" transform="translate(-1075.011 -330.141)" fill="#a4d2f3"/>
              <path id="Trazado_104605" data-name="Trazado 104605" d="M1092.218,331.189a1.048,1.048,0,1,1-1.049-1.048A1.048,1.048,0,0,1,1092.218,331.189Z" transform="translate(-1078.769 -330.141)" fill="#79a2e4"/>
              <path id="Trazado_104606" data-name="Trazado 104606" d="M1101.652,331.189a1.048,1.048,0,1,1-1.048-1.048A1.048,1.048,0,0,1,1101.652,331.189Z" transform="translate(-1082.527 -330.141)" fill="#79a2e4"/>
            </g>
            <rect id="Rectángulo_33859" data-name="Rectángulo 33859" width="12.711" height="2.096" transform="translate(22.304 5.715)" fill="#eaeefa" stroke="#292739" stroke-linecap="round" stroke-linejoin="round" stroke-width="1.237"/>
          </g>
        </g>
        <g id="Grupo_83817" data-name="Grupo 83817" transform="translate(70.438)">
          <g id="Grupo_83809" data-name="Grupo 83809" transform="translate(0 34.798)">
            <path id="Trazado_104607" data-name="Trazado 104607" d="M1156.959,306.393c0,2.09-.987,3.785-2.2,3.785s-2.2-1.695-2.2-3.785.987-3.785,2.2-3.785S1156.959,304.3,1156.959,306.393Z" transform="translate(-1152.551 -302.608)" fill="#292739" stroke="#292739" stroke-linecap="round" stroke-linejoin="round" stroke-width="1.237"/>
            <path id="Trazado_104608" data-name="Trazado 104608" d="M1159.126,306.932a2.886,2.886,0,0,1-2.792,2.97c-1.542,0-1.542-5.941,0-5.941A2.886,2.886,0,0,1,1159.126,306.932Z" transform="translate(-1153.597 -303.147)" fill="#eaeefa" stroke="#292739" stroke-linecap="round" stroke-linejoin="round" stroke-width="1.237"/>
          </g>
          <g id="Grupo_83810" data-name="Grupo 83810" transform="translate(7.92 54.117)">
            <path id="Trazado_104609" data-name="Trazado 104609" d="M1170.121,338.5c0,2.09-.987,3.785-2.2,3.785s-2.2-1.695-2.2-3.785.987-3.785,2.2-3.785S1170.121,336.412,1170.121,338.5Z" transform="translate(-1165.714 -334.717)" fill="#292739" stroke="#292739" stroke-linecap="round" stroke-linejoin="round" stroke-width="1.237"/>
            <path id="Trazado_104610" data-name="Trazado 104610" d="M1172.288,339.041a2.885,2.885,0,0,1-2.792,2.97c-1.542,0-1.542-5.941,0-5.941A2.885,2.885,0,0,1,1172.288,339.041Z" transform="translate(-1166.76 -335.256)" fill="#eaeefa" stroke="#292739" stroke-linecap="round" stroke-linejoin="round" stroke-width="1.237"/>
          </g>
          <g id="Grupo_83813" data-name="Grupo 83813" transform="translate(3.899 36.954)">
            <path id="Trazado_104611" data-name="Trazado 104611" d="M1169.152,328.465a.765.765,0,0,1-.163-1.513c5.555-1.219,5.9-4.962,5.614-7.085-.727-5.36-6.587-11.084-13.328-10.722a.765.765,0,0,1-.082-1.528,14.938,14.938,0,0,1,14.927,12.045c.6,4.434-1.941,7.719-6.8,8.785A.776.776,0,0,1,1169.152,328.465Z" transform="translate(-1159.604 -306.751)" fill="#292739"/>
            <g id="Grupo_83811" data-name="Grupo 83811">
              <path id="Trazado_104612" data-name="Trazado 104612" d="M1160.865,309.383a1.438,1.438,0,1,1,1.359-1.513A1.437,1.437,0,0,1,1160.865,309.383Z" transform="translate(-1159.158 -306.317)" fill="#fff"/>
              <path id="Trazado_104613" data-name="Trazado 104613" d="M1160.748,309.447a1.63,1.63,0,1,0-1.715-1.54,1.632,1.632,0,0,0,1.715,1.54Zm-.155-2.873a1.247,1.247,0,1,1-1.178,1.312,1.248,1.248,0,0,1,1.178-1.312Z" transform="translate(-1159.031 -306.19)" fill="#292739"/>
            </g>
            <g id="Grupo_83812" data-name="Grupo 83812" transform="translate(7.919 19.301)">
              <path id="Trazado_104614" data-name="Trazado 104614" d="M1173.642,338.651a1.438,1.438,0,1,0,1.713,1.1A1.438,1.438,0,0,0,1173.642,338.651Z" transform="translate(-1172.32 -338.408)" fill="#fff"/>
              <path id="Trazado_104615" data-name="Trazado 104615" d="M1173.474,338.325a1.63,1.63,0,1,1-1.243,1.941,1.632,1.632,0,0,1,1.243-1.941Zm.616,2.81a1.247,1.247,0,1,0-1.485-.951,1.248,1.248,0,0,0,1.485.951C1174.762,340.988,1173.419,341.283,1174.09,341.135Z" transform="translate(-1172.193 -338.27)" fill="#292739"/>
            </g>
          </g>
          <g id="Grupo_83816" data-name="Grupo 83816" transform="translate(3.899)">
            <path id="Trazado_104616" data-name="Trazado 104616" d="M1161.233,284.691a.765.765,0,0,1-.04-1.529c7.648-.4,15.744-7.391,18.83-16.253,2.623-7.529,1.024-14.587-4.388-19.363a.765.765,0,1,1,1.012-1.147c5.9,5.209,7.659,12.868,4.821,21.014a28.551,28.551,0,0,1-7.984,11.829,20.583,20.583,0,0,1-12.21,5.449Z" transform="translate(-1159.604 -245.343)" fill="#292739"/>
            <g id="Grupo_83814" data-name="Grupo 83814" transform="translate(14.908)">
              <path id="Trazado_104617" data-name="Trazado 104617" d="M1184.613,247.6a1.438,1.438,0,1,1,2.03-.127A1.439,1.439,0,0,1,1184.613,247.6Z" transform="translate(-1183.936 -244.897)" fill="#fff"/>
              <path id="Trazado_104618" data-name="Trazado 104618" d="M1184.36,247.622a1.63,1.63,0,1,0-.144-2.3,1.631,1.631,0,0,0,.144,2.3Zm1.9-2.157a1.247,1.247,0,1,1-1.761.109,1.249,1.249,0,0,1,1.761-.109Z" transform="translate(-1183.81 -244.771)" fill="#292739"/>
            </g>
            <g id="Grupo_83815" data-name="Grupo 83815" transform="translate(0 36.942)">
              <path id="Trazado_104619" data-name="Trazado 104619" d="M1160.711,306.511a1.438,1.438,0,1,0,1.512,1.36A1.438,1.438,0,0,0,1160.711,306.511Z" transform="translate(-1159.158 -306.306)" fill="#fff"/>
              <path id="Trazado_104620" data-name="Trazado 104620" d="M1160.575,306.185a1.63,1.63,0,1,1-1.541,1.714,1.631,1.631,0,0,1,1.541-1.714Zm.152,2.873a1.247,1.247,0,1,0-1.311-1.18,1.248,1.248,0,0,0,1.311,1.18Z" transform="translate(-1159.031 -306.171)" fill="#292739"/>
            </g>
          </g>
        </g>
      </g>
      <g id="Grupo_83819" data-name="Grupo 83819" transform="translate(813.017 1322.828)">
        <path id="Trazado_104621" data-name="Trazado 104621" d="M882.059,224.744l-8.829-.88-3.307-1.817s-.376-6.324,2.846-8.559,9.29-2.511,9.29-2.511Z" transform="translate(-868.64 -210.977)" fill="#79a2e4" stroke="#292739" stroke-linecap="round" stroke-linejoin="round" stroke-width="1.237"/>
        <path id="Trazado_104622" data-name="Trazado 104622" d="M889.215,229.511H877.206c-3.307,0-9.406-.658-9.406-5.8s4.129-8.559,4.129-8.559c-3.6,2.944-2.13,8.371,5.277,8.371h12.009v-4.579l7.573,7.573-7.573,7.573Z" transform="translate(-867.8 -212.64)" fill="#a4d2f3" stroke="#292739" stroke-linecap="round" stroke-linejoin="round" stroke-width="1.237"/>
      </g>
    </g>
  </g>
</svg>
