<svg xmlns="http://www.w3.org/2000/svg" width="277.65" height="292.96" viewBox="0 0 277.65 292.96">
  <g id="Grupo_83719" data-name="Grupo 83719" transform="translate(-2239.698 -80.844)">
    <g id="Grupo_83631" data-name="Grupo 83631" transform="translate(2239.698 100.61)">
      <path id="Trazado_104412" data-name="Trazado 104412" d="M2258.684,363.4c1.551,18.626,15.473,28.892,30.645,37.443,23.019,12.972,51.382,10.679,75.562,2.409,19.412-6.64,38.7-15.547,59.219-15.515,19.3.03,38.62,8.037,57.476,3.921a46.686,46.686,0,0,0,33.419-29.5c9.187-26.025-11.28-49.911-16.144-74.73-4.349-22.2,3.761-44.646,9.121-66.62s7.282-47.466-6.972-65.028c-14.706-18.117-41.366-21.056-64.473-17.808s-45.865,11.232-69.14,9.566c-21.506-1.54-42.088-11.287-63.64-10.625a67.624,67.624,0,0,0-52.341,28.17c-22.22,31.518-8.629,67.56,6.128,98.727,6.2,13.084,10,26.47,10.2,41.134C2268.022,324.92,2257.025,343.475,2258.684,363.4Z" transform="translate(-2239.698 -136.816)" fill="#d8e5f3"/>
    </g>
    <g id="Grupo_83664" data-name="Grupo 83664" transform="translate(2250.646 119.185)">
      <g id="Grupo_83634" data-name="Grupo 83634" transform="translate(0 45.342)">
        <g id="Grupo_83632" data-name="Grupo 83632">
          <path id="Trazado_104413" data-name="Trazado 104413" d="M2276.773,324.41a.529.529,0,0,1-.375-.155l-5.542-5.542a.529.529,0,0,1,.749-.749l5.542,5.542a.53.53,0,0,1-.375.9Z" transform="translate(-2270.701 -317.808)"/>
        </g>
        <g id="Grupo_83633" data-name="Grupo 83633">
          <path id="Trazado_104414" data-name="Trazado 104414" d="M2271.231,324.41a.53.53,0,0,1-.374-.9l5.542-5.542a.53.53,0,0,1,.749.749l-5.542,5.542A.53.53,0,0,1,2271.231,324.41Z" transform="translate(-2270.701 -317.808)"/>
        </g>
      </g>
      <g id="Grupo_83639" data-name="Grupo 83639" transform="translate(23.763)">
        <g id="Grupo_83635" data-name="Grupo 83635" transform="translate(2.959)">
          <path id="Trazado_104415" data-name="Trazado 104415" d="M2346.9,191.8a.53.53,0,0,1-.53-.53v-1.332a.53.53,0,0,1,1.06,0v1.332A.53.53,0,0,1,2346.9,191.8Z" transform="translate(-2346.371 -189.413)"/>
        </g>
        <g id="Grupo_83636" data-name="Grupo 83636" transform="translate(2.959 4.586)">
          <path id="Trazado_104416" data-name="Trazado 104416" d="M2346.9,204.792a.53.53,0,0,1-.53-.53V202.93a.53.53,0,0,1,1.06,0v1.332A.53.53,0,0,1,2346.9,204.792Z" transform="translate(-2346.371 -202.4)"/>
        </g>
        <g id="Grupo_83637" data-name="Grupo 83637" transform="translate(4.587 2.959)">
          <path id="Trazado_104417" data-name="Trazado 104417" d="M2352.841,198.852h-1.333a.53.53,0,0,1,0-1.059h1.333a.53.53,0,1,1,0,1.059Z" transform="translate(-2350.979 -197.793)"/>
        </g>
        <g id="Grupo_83638" data-name="Grupo 83638" transform="translate(0 2.959)">
          <path id="Trazado_104418" data-name="Trazado 104418" d="M2339.853,198.852h-1.333a.53.53,0,1,1,0-1.059h1.333a.53.53,0,0,1,0,1.059Z" transform="translate(-2337.991 -197.793)"/>
        </g>
      </g>
      <g id="Grupo_83644" data-name="Grupo 83644" transform="translate(248.432 23.741)">
        <g id="Grupo_83640" data-name="Grupo 83640" transform="translate(2.96)">
          <path id="Trazado_104419" data-name="Trazado 104419" d="M2983.095,259.033a.529.529,0,0,1-.529-.53v-1.332a.53.53,0,1,1,1.059,0V258.5A.53.53,0,0,1,2983.095,259.033Z" transform="translate(-2982.566 -256.641)"/>
        </g>
        <g id="Grupo_83641" data-name="Grupo 83641" transform="translate(2.96 4.587)">
          <path id="Trazado_104420" data-name="Trazado 104420" d="M2983.095,272.021a.53.53,0,0,1-.529-.53v-1.332a.53.53,0,1,1,1.059,0v1.332A.53.53,0,0,1,2983.095,272.021Z" transform="translate(-2982.566 -269.629)"/>
        </g>
        <g id="Grupo_83642" data-name="Grupo 83642" transform="translate(4.587 2.959)">
          <path id="Trazado_104421" data-name="Trazado 104421" d="M2989.036,266.08H2987.7a.53.53,0,1,1,0-1.059h1.332a.53.53,0,0,1,0,1.059Z" transform="translate(-2987.174 -265.021)"/>
        </g>
        <g id="Grupo_83643" data-name="Grupo 83643" transform="translate(0 2.959)">
          <path id="Trazado_104422" data-name="Trazado 104422" d="M2976.048,266.08h-1.333a.53.53,0,1,1,0-1.059h1.333a.53.53,0,0,1,0,1.059Z" transform="translate(-2974.185 -265.021)"/>
        </g>
      </g>
      <g id="Grupo_83649" data-name="Grupo 83649" transform="translate(231.837 182.108)">
        <g id="Grupo_83645" data-name="Grupo 83645" transform="translate(2.96)">
          <path id="Trazado_104423" data-name="Trazado 104423" d="M2936.1,707.48a.53.53,0,0,1-.529-.53v-1.332a.53.53,0,1,1,1.059,0v1.332A.53.53,0,0,1,2936.1,707.48Z" transform="translate(-2935.574 -705.088)"/>
        </g>
        <g id="Grupo_83646" data-name="Grupo 83646" transform="translate(2.96 4.587)">
          <path id="Trazado_104424" data-name="Trazado 104424" d="M2936.1,720.468a.53.53,0,0,1-.529-.53v-1.332a.53.53,0,1,1,1.059,0v1.332A.53.53,0,0,1,2936.1,720.468Z" transform="translate(-2935.574 -718.076)"/>
        </g>
        <g id="Grupo_83647" data-name="Grupo 83647" transform="translate(4.587 2.96)">
          <path id="Trazado_104425" data-name="Trazado 104425" d="M2942.044,714.528h-1.333a.53.53,0,0,1,0-1.059h1.333a.53.53,0,0,1,0,1.059Z" transform="translate(-2940.182 -713.469)"/>
        </g>
        <g id="Grupo_83648" data-name="Grupo 83648" transform="translate(0 2.96)">
          <path id="Trazado_104426" data-name="Trazado 104426" d="M2929.055,714.528h-1.333a.53.53,0,0,1,0-1.059h1.333a.53.53,0,1,1,0,1.059Z" transform="translate(-2927.193 -713.469)"/>
        </g>
      </g>
      <g id="Grupo_83654" data-name="Grupo 83654" transform="translate(38.509 183.735)">
        <g id="Grupo_83650" data-name="Grupo 83650" transform="translate(2.959)">
          <path id="Trazado_104427" data-name="Trazado 104427" d="M2388.658,712.087a.53.53,0,0,1-.53-.53v-1.333a.53.53,0,0,1,1.06,0v1.333A.53.53,0,0,1,2388.658,712.087Z" transform="translate(-2388.128 -709.695)"/>
        </g>
        <g id="Grupo_83651" data-name="Grupo 83651" transform="translate(2.959 4.587)">
          <path id="Trazado_104428" data-name="Trazado 104428" d="M2388.658,725.075a.53.53,0,0,1-.53-.53v-1.332a.53.53,0,0,1,1.06,0v1.332A.53.53,0,0,1,2388.658,725.075Z" transform="translate(-2388.128 -722.684)"/>
        </g>
        <g id="Grupo_83652" data-name="Grupo 83652" transform="translate(4.586 2.96)">
          <path id="Trazado_104429" data-name="Trazado 104429" d="M2394.6,719.135h-1.333a.53.53,0,0,1,0-1.059h1.333a.53.53,0,1,1,0,1.059Z" transform="translate(-2392.735 -718.076)"/>
        </g>
        <g id="Grupo_83653" data-name="Grupo 83653" transform="translate(0 2.96)">
          <path id="Trazado_104430" data-name="Trazado 104430" d="M2381.61,719.135h-1.332a.53.53,0,1,1,0-1.059h1.332a.53.53,0,1,1,0,1.059Z" transform="translate(-2379.748 -718.076)"/>
        </g>
      </g>
      <g id="Grupo_83655" data-name="Grupo 83655" transform="translate(2.771 184.084)">
        <path id="Trazado_104431" data-name="Trazado 104431" d="M2301.688,770.393a.533.533,0,0,1-.272-.075c-8.178-4.888-14.26-11.051-18.073-18.319a42.983,42.983,0,0,1-4.787-19.4,56.038,56.038,0,0,1,4.059-21.6.53.53,0,0,1,.966.436,54.917,54.917,0,0,0-3.965,21.184,41.922,41.922,0,0,0,4.677,18.913c3.721,7.083,9.666,13.1,17.667,17.88a.53.53,0,0,1-.272.985Z" transform="translate(-2278.549 -710.684)" fill="#8abae7"/>
      </g>
      <g id="Grupo_83656" data-name="Grupo 83656" transform="translate(0.286 213.41)">
        <path id="Trazado_104432" data-name="Trazado 104432" d="M2287.466,820.206a.529.529,0,0,1-.313-.1c-13.687-10.056-15.619-25.633-15.637-25.789a.53.53,0,0,1,1.053-.121c.018.151,1.908,15.283,15.21,25.056a.53.53,0,0,1-.313.957Z" transform="translate(-2271.512 -793.725)" fill="#8abae7"/>
      </g>
      <g id="Grupo_83657" data-name="Grupo 83657" transform="translate(251.403 78.866)">
        <path id="Trazado_104433" data-name="Trazado 104433" d="M2987.713,476.075a.53.53,0,0,1-.477-.3c-.115-.235-2.826-5.877-4.061-16.466-1.135-9.742-1.155-25.666,5.208-46.2a.53.53,0,0,1,1.013.314c-12.063,38.933-1.318,61.664-1.207,61.89a.53.53,0,0,1-.476.762Z" transform="translate(-2982.597 -412.736)" fill="#8abae7"/>
      </g>
      <g id="Grupo_83658" data-name="Grupo 83658" transform="translate(255.075 96.672)">
        <path id="Trazado_104434" data-name="Trazado 104434" d="M2997.351,503.479a.529.529,0,0,1-.481-.307c-.074-.16-7.352-16.268-1.769-39.607a.529.529,0,1,1,1.03.246,71.8,71.8,0,0,0-1.234,28.162,45.985,45.985,0,0,0,2.935,10.753.53.53,0,0,1-.48.752Z" transform="translate(-2992.995 -463.158)" fill="#8abae7"/>
      </g>
      <g id="Grupo_83659" data-name="Grupo 83659" transform="translate(17.373 88.856)">
        <path id="Trazado_104435" data-name="Trazado 104435" d="M2325.1,451.436a5.2,5.2,0,1,1,5.2-5.2A5.211,5.211,0,0,1,2325.1,451.436Zm0-9.349a4.145,4.145,0,1,0,4.144,4.145A4.15,4.15,0,0,0,2325.1,442.086Z" transform="translate(-2319.897 -441.027)"/>
      </g>
      <g id="Grupo_83660" data-name="Grupo 83660" transform="translate(225.726 157.913)">
        <rect id="Rectángulo_33777" data-name="Rectángulo 33777" width="16.297" height="16.297" fill="#fff"/>
      </g>
      <g id="Grupo_83661" data-name="Grupo 83661" transform="translate(233.225 151.758)">
        <path id="Trazado_104436" data-name="Trazado 104436" d="M2939.257,635.412a8.133,8.133,0,1,1,8.133-8.133A8.142,8.142,0,0,1,2939.257,635.412Zm0-15.207a7.074,7.074,0,1,0,7.074,7.074A7.082,7.082,0,0,0,2939.257,620.205Z" transform="translate(-2931.124 -619.146)"/>
      </g>
      <g id="Grupo_83662" data-name="Grupo 83662" transform="translate(23.27 211.86)">
        <path id="Trazado_104437" data-name="Trazado 104437" d="M2352.363,807.36l-15.769-8.735,15.45-9.289Z" transform="translate(-2336.594 -789.336)" fill="#8abae7"/>
      </g>
      <g id="Grupo_83663" data-name="Grupo 83663" transform="translate(34.386 220.435)">
        <path id="Trazado_104438" data-name="Trazado 104438" d="M2377.978,814.677H2368.6a.53.53,0,0,1,0-1.06h9.375a.53.53,0,1,1,0,1.06Z" transform="translate(-2368.073 -813.617)"/>
      </g>
    </g>
    <g id="Grupo_83718" data-name="Grupo 83718" transform="translate(2266.651 80.844)">
      <g id="Grupo_83665" data-name="Grupo 83665" transform="translate(4.266 89.168)">
        <circle id="Elipse_4175" data-name="Elipse 4175" cx="4.688" cy="4.688" r="4.688" transform="translate(0 2.154) rotate(-13.283)" fill="#fff"/>
      </g>
      <g id="Grupo_83666" data-name="Grupo 83666" transform="translate(0 94.278)">
        <path id="Trazado_104439" data-name="Trazado 104439" d="M2321.239,358.247a5.218,5.218,0,1,1,5.218-5.218A5.223,5.223,0,0,1,2321.239,358.247Zm0-9.377a4.159,4.159,0,1,0,4.159,4.159A4.164,4.164,0,0,0,2321.239,348.87Z" transform="translate(-2316.021 -347.811)" fill="#f57a3e"/>
      </g>
      <g id="Grupo_83667" data-name="Grupo 83667" transform="translate(118.452 167.995)">
        <path id="Trazado_104440" data-name="Trazado 104440" d="M2651.441,603.759l1.112,29.777,49.212-38.4s-21.927,52.093-48.2,65.654l.324,8.672s45.332,7.877,74.78-29.045V556.554Z" transform="translate(-2651.441 -556.554)" fill="#fff"/>
      </g>
      <g id="Grupo_83668" data-name="Grupo 83668" transform="translate(17.596 64.612)">
        <path id="Trazado_104441" data-name="Trazado 104441" d="M2383.115,313.4c-4.835,21.537,16.522,35.58,3.22,57.246-5.529,9.005-21.732,21.945-20.413,26.78s9.67,11.428,21.538,7.912c0,0,3.516,53.3,23.185,68.128,31.483,23.735,89.007-32.416,112.083-78.018,21.279-18.81,43.752-36.469,44.845-131.642Z" transform="translate(-2365.846 -263.806)" fill="#fff"/>
      </g>
      <g id="Grupo_83669" data-name="Grupo 83669" transform="translate(137.225 66.539)">
        <path id="Trazado_104442" data-name="Trazado 104442" d="M2730.723,371.567l-1.831,14.444h-13.3V350.848l-10.99-6.75V323.592s69.774-17.782,82.072-54.33c0,0,3.731,59.128-19.3,101.232Z" transform="translate(-2704.6 -269.262)" fill="#8abae7"/>
      </g>
      <g id="Grupo_83670" data-name="Grupo 83670" transform="translate(136.516 145.605)">
        <path id="Trazado_104443" data-name="Trazado 104443" d="M2719.9,504.428a.528.528,0,0,1-.275-.077l-16.779-10.215a.53.53,0,0,1,.551-.9l16.779,10.215a.53.53,0,0,1-.276.982Z" transform="translate(-2702.594 -493.153)"/>
      </g>
      <g id="Grupo_83671" data-name="Grupo 83671" transform="translate(136.516 151.26)">
        <path id="Trazado_104444" data-name="Trazado 104444" d="M2719.9,520.442a.529.529,0,0,1-.275-.077l-16.779-10.215a.53.53,0,0,1,.551-.9l16.779,10.215a.53.53,0,0,1-.276.983Z" transform="translate(-2702.594 -509.168)"/>
      </g>
      <g id="Grupo_83672" data-name="Grupo 83672" transform="translate(136.516 156.916)">
        <path id="Trazado_104445" data-name="Trazado 104445" d="M2719.9,536.456a.528.528,0,0,1-.275-.077l-16.779-10.216a.53.53,0,0,1,.551-.9l16.779,10.215a.53.53,0,0,1-.276.982Z" transform="translate(-2702.594 -525.181)"/>
      </g>
      <g id="Grupo_83673" data-name="Grupo 83673" transform="translate(149.741 126.587)">
        <ellipse id="Elipse_4176" data-name="Elipse 4176" cx="35.283" cy="23.277" rx="35.283" ry="23.277" transform="translate(0 49.898) rotate(-45)" fill="#fff"/>
      </g>
      <g id="Grupo_83674" data-name="Grupo 83674" transform="translate(34.785 49.786)">
        <path id="Trazado_104446" data-name="Trazado 104446" d="M2414.99,290.273c-10.736-31.168,166.634-94.665,182.848-56.7C2615.859,275.768,2428.615,329.832,2414.99,290.273Z" transform="translate(-2414.522 -221.824)" fill="#fff"/>
      </g>
      <g id="Grupo_83675" data-name="Grupo 83675" transform="translate(44.385 54.063)">
        <path id="Trazado_104447" data-name="Trazado 104447" d="M2442.126,295.263c-9.619-27.925,149.3-84.815,163.824-50.8C2622.095,282.267,2454.334,330.706,2442.126,295.263Z" transform="translate(-2441.706 -233.935)" fill="#d8e5f3"/>
      </g>
      <g id="Grupo_83676" data-name="Grupo 83676" transform="translate(171.829 32.724)">
        <path id="Trazado_104448" data-name="Trazado 104448" d="M2838.914,217.247q-.412.668-.835,1.336c-.282.446-.563.895-.849,1.343-.215.334-.428.668-.643,1-.2.306-.4.612-.6.915-.213.331-.428.658-.644.985-6.393,7.888-18.258,15.631-32.758,22.437.128-.463.268-.94.421-1.427.028-.087.056-.178.083-.265q.272-.872.592-1.792c.1-.285.2-.571.3-.86a.548.548,0,0,0,.027-.073c.213-.585.435-1.183.671-1.792.146-.376.3-.759.453-1.145.108-.265.216-.532.328-.8.03-.07.059-.143.09-.216.132-.324.268-.647.408-.974.024-.059.048-.115.075-.174.133-.317.272-.633.415-.957s.279-.633.421-.953c.182-.407.365-.814.558-1.225.159-.352.323-.7.49-1.058.184-.4.372-.793.567-1.194q.24-.5.49-1.012c1.006-2.056,2.1-4.189,3.289-6.375q.256-.48.522-.961,1.419-2.6,2.992-5.286c.2-.345.4-.685.61-1.03.508-.86,1.026-1.719,1.555-2.585q.36-.595.73-1.19.46-.746.936-1.5c.258-.41.519-.825.783-1.239q1.044-1.634,2.091-3.219c.337-.508.675-1.012,1.009-1.514q.935-1.388,1.865-2.728c.205-.3.415-.6.62-.891.415-.592.828-1.172,1.243-1.75s.824-1.145,1.235-1.7l.313-.428c11.532-15.665,22.256-25.475,26-23.084C2859.238,176.712,2852.174,195.836,2838.914,217.247Z" transform="translate(-2802.589 -173.508)" fill="#db6e5f"/>
      </g>
      <g id="Grupo_83677" data-name="Grupo 83677" transform="translate(61.764 32.965)">
        <path id="Trazado_104449" data-name="Trazado 104449" d="M2490.917,267.683c34.5,6.748,109.879-14.461,137.523-38.953l-76.126-54.538Z" transform="translate(-2490.917 -174.192)" fill="#8abae7"/>
      </g>
      <g id="Grupo_83678" data-name="Grupo 83678" transform="translate(68.458 41.213)">
        <path id="Trazado_104450" data-name="Trazado 104450" d="M2510.4,284.288a.53.53,0,0,1-.443-.819l55.932-85.681a.529.529,0,0,1,.751-.142l69.657,49.569a.53.53,0,0,1-.615.863l-69.208-49.249-55.63,85.219A.528.528,0,0,1,2510.4,284.288Z" transform="translate(-2509.873 -197.548)" fill="#fff"/>
      </g>
      <g id="Grupo_83679" data-name="Grupo 83679" transform="translate(37.555 227.001)">
        <path id="Trazado_104451" data-name="Trazado 104451" d="M2438.191,745.815a22.549,22.549,0,0,1-15.668-6.356.53.53,0,0,1,.741-.758,21.248,21.248,0,0,0,31.324-1.758,14.845,14.845,0,0,1-1.452-1.026c-1.4-1.118-3.752-3.469-3.86-6.66a5.842,5.842,0,0,1,1.67-4.211,4.489,4.489,0,0,1,3.238-1.4c2.633.05,4.521,2.505,4.825,4.85a10.381,10.381,0,0,1-1.847,6.675q-.461.752-.981,1.462a15.026,15.026,0,0,0,21.98-11.568.53.53,0,0,1,1.052.121,16.329,16.329,0,0,1-9.873,13.058,16.622,16.622,0,0,1-13.814-.76,22.548,22.548,0,0,1-14.651,8.169A21.9,21.9,0,0,1,2438.191,745.815ZM2454.11,724.7a3.4,3.4,0,0,0-2.408,1.089,4.827,4.827,0,0,0-1.366,3.431c.094,2.767,2.21,4.865,3.464,5.869a13.921,13.921,0,0,0,1.449,1.015q.54-.724,1.012-1.492a9.375,9.375,0,0,0,1.7-5.985c-.241-1.859-1.76-3.889-3.794-3.927Z" transform="translate(-2422.365 -723.641)"/>
      </g>
      <g id="Grupo_83680" data-name="Grupo 83680" transform="translate(46.328 195.724)">
        <path id="Trazado_104452" data-name="Trazado 104452" d="M2481.688,720.857q-.894,0-1.725-.049c-14.653-.84-25.665-12.166-32.73-33.664a.53.53,0,0,1,1.007-.331c6.915,21.042,17.608,32.124,31.784,32.937,35.763,2.049,84.483-61.883,94.851-84.369a.53.53,0,0,1,.962.444c-5.185,11.245-20.193,33.068-37.794,51.361C2511.585,714.686,2493.016,720.857,2481.688,720.857Z" transform="translate(-2447.206 -635.074)"/>
      </g>
      <g id="Grupo_83683" data-name="Grupo 83683" transform="translate(89.828 215.91)">
        <g id="Grupo_83681" data-name="Grupo 83681" transform="translate(0 0.845)">
          <path id="Trazado_104453" data-name="Trazado 104453" d="M2570.917,703.123a.53.53,0,0,1-.335-.94l9.125-7.435a.53.53,0,1,1,.669.821L2571.252,703A.53.53,0,0,1,2570.917,703.123Z" transform="translate(-2570.387 -694.629)"/>
        </g>
        <g id="Grupo_83682" data-name="Grupo 83682" transform="translate(0.845)">
          <path id="Trazado_104454" data-name="Trazado 104454" d="M2580.746,702.421a.528.528,0,0,1-.411-.2L2572.9,693.1a.53.53,0,0,1,.822-.669l7.435,9.125a.53.53,0,0,1-.411.864Z" transform="translate(-2572.781 -692.236)"/>
        </g>
      </g>
      <g id="Grupo_83684" data-name="Grupo 83684" transform="translate(17.142 197.702)">
        <path id="Trazado_104455" data-name="Trazado 104455" d="M2392.213,684.284a.53.53,0,0,1-.51-.388,166.356,166.356,0,0,1-5.569-34.127c-4.955,1.049-11.724,1.339-17.024-2.7a14.031,14.031,0,0,1-4.516-5.677.53.53,0,0,1,.993-.369h0a13.239,13.239,0,0,0,4.211,5.237c4.108,3.107,9.887,3.917,16.711,2.343a.53.53,0,0,1,.648.488,165.3,165.3,0,0,0,5.567,34.523.53.53,0,0,1-.369.652A.524.524,0,0,1,2392.213,684.284Z" transform="translate(-2364.561 -640.675)"/>
      </g>
      <g id="Grupo_83688" data-name="Grupo 83688" transform="translate(52.451 158.071)">
        <g id="Grupo_83685" data-name="Grupo 83685" transform="translate(0 0)">
          <circle id="Elipse_4177" data-name="Elipse 4177" cx="10.549" cy="10.549" r="10.549" transform="translate(0 4.847) rotate(-13.283)" fill="#4666c9"/>
        </g>
        <g id="Grupo_83686" data-name="Grupo 83686" transform="translate(5.987 13.381)">
          <path id="Trazado_104456" data-name="Trazado 104456" d="M2481.5,566.343a6.7,6.7,0,1,0,13.406,0Z" transform="translate(-2481.502 -566.343)"/>
        </g>
        <g id="Grupo_83687" data-name="Grupo 83687" transform="translate(8.344 7.331)">
          <rect id="Rectángulo_33778" data-name="Rectángulo 33778" width="4.737" height="4.737" fill="#fff"/>
        </g>
      </g>
      <g id="Grupo_83689" data-name="Grupo 83689" transform="translate(181.09 150.232)">
        <path id="Trazado_104457" data-name="Trazado 104457" d="M2829.342,536.568a.53.53,0,0,1-.394-.883l26.184-29.253a.529.529,0,1,1,.789.707l-26.184,29.253A.529.529,0,0,1,2829.342,536.568Z" transform="translate(-2828.813 -506.255)"/>
      </g>
      <g id="Grupo_83690" data-name="Grupo 83690" transform="translate(85.71 57.898)">
        <path id="Trazado_104458" data-name="Trazado 104458" d="M2570.74,289.688a.544.544,0,0,1-.1-.01.53.53,0,0,1-.408-.385l-11.486-43.836a.53.53,0,0,1,.616-.654l39.055,7.794a.53.53,0,0,1,.317.841l-27.57,36.042A.531.531,0,0,1,2570.74,289.688Zm-10.758-43.68,11,41.968,26.4-34.507Z" transform="translate(-2558.726 -244.793)"/>
      </g>
      <g id="Grupo_83691" data-name="Grupo 83691" transform="translate(87.998 49.786)">
        <path id="Trazado_104459" data-name="Trazado 104459" d="M2565.2,221.823l11.486,43.836,27.57-36.042Z" transform="translate(-2565.204 -221.823)" fill="#4666c9"/>
      </g>
      <g id="Grupo_83693" data-name="Grupo 83693" transform="translate(116.635 53.232)">
        <g id="Grupo_83692" data-name="Grupo 83692">
          <path id="Trazado_104460" data-name="Trazado 104460" d="M2653.757,299.43l-7.461,1.739,7.633-37.132,17.42,1.494,6.426-22.862,13.336,5.413,6.808-16.5,6.433,2.654-9.447,22.9-12.537-5.088-5.879,20.913L2659.5,271.5Z" transform="translate(-2646.296 -231.582)" fill="#db6e5f"/>
        </g>
      </g>
      <g id="Grupo_83694" data-name="Grupo 83694" transform="translate(173.256 98.273)">
        <path id="Trazado_104461" data-name="Trazado 104461" d="M2807.3,359.124q-.354.913-.671,1.792C2806.838,360.331,2807.063,359.733,2807.3,359.124Z" transform="translate(-2806.628 -359.124)" fill="#4666c9"/>
      </g>
      <g id="Grupo_83695" data-name="Grupo 83695" transform="translate(187.773 0)">
        <rect id="Rectángulo_33779" data-name="Rectángulo 33779" width="29.01" height="29.01" fill="#4666c9"/>
      </g>
      <g id="Grupo_83696" data-name="Grupo 83696" transform="translate(2.611 64.305)">
        <path id="Trazado_104462" data-name="Trazado 104462" d="M2376.836,323.94a.53.53,0,0,1-.528-.492,60.58,60.58,0,0,0-17.982-38.6c-4.125-4.008-8.063-6.514-12-7.627,1.869,4.777,1.721,9.811-.4,13.474-2.5,4.327-8.1,6.423-12.209,4.578a8.4,8.4,0,0,1-4.577-5.653,10.637,10.637,0,0,1,1.4-8.746c2.835-4.017,8.364-6.028,13.954-5.143a21.967,21.967,0,0,0-20.512-11.688.54.54,0,0,1-.564-.494.53.53,0,0,1,.494-.564,23.036,23.036,0,0,1,21.89,13c4.383,1.038,8.728,3.691,13.264,8.1a61.654,61.654,0,0,1,18.3,39.287.529.529,0,0,1-.49.566Zm-35.01-47.371a12.755,12.755,0,0,0-10.423,4.911,9.555,9.555,0,0,0-1.24,7.855,7.37,7.37,0,0,0,3.989,4.966c4.017,1.8,8.859-.686,10.859-4.142,1.965-3.4,2.083-8.105.315-12.6q-.131-.332-.274-.659A15.92,15.92,0,0,0,2341.826,276.57Z" transform="translate(-2323.414 -262.937)"/>
      </g>
      <g id="Grupo_83697" data-name="Grupo 83697" transform="translate(23.375 28.576)">
        <rect id="Rectángulo_33780" data-name="Rectángulo 33780" width="6.911" height="47.47" transform="translate(0 4.595) rotate(-41.676)" fill="#89bae7"/>
      </g>
      <g id="Grupo_83698" data-name="Grupo 83698" transform="translate(61.894 27.904)">
        <circle id="Elipse_4178" data-name="Elipse 4178" cx="7.093" cy="7.093" r="7.093" fill="#89bae7"/>
      </g>
      <g id="Grupo_83699" data-name="Grupo 83699" transform="translate(71.125 29.01)">
        <circle id="Elipse_4179" data-name="Elipse 4179" cx="3.547" cy="3.547" r="3.547" fill="#4666c9"/>
      </g>
      <g id="Grupo_83700" data-name="Grupo 83700" transform="translate(135.479 10.988)">
        <rect id="Rectángulo_33781" data-name="Rectángulo 33781" width="31.636" height="10.109" fill="#89bae7"/>
      </g>
      <g id="Grupo_83701" data-name="Grupo 83701" transform="translate(2.611 61.885)">
        <path id="Trazado_104463" data-name="Trazado 104463" d="M2327.377,262.106a.531.531,0,0,1-.312-.1l-3.433-2.5a.53.53,0,0,1,0-.859l3.433-2.465a.53.53,0,1,1,.618.86l-2.837,2.038,2.84,2.067a.53.53,0,0,1-.312.958Z" transform="translate(-2323.415 -256.083)"/>
      </g>
      <g id="Grupo_83702" data-name="Grupo 83702" transform="translate(34.255 31.74)">
        <path id="Trazado_104464" data-name="Trazado 104464" d="M2437.094,208.114a.53.53,0,0,1-.368-.911l4.251-4.11L2413.154,171.6a.53.53,0,1,1,.794-.7l28.159,31.871a.53.53,0,0,1-.028.731l-4.616,4.462A.529.529,0,0,1,2437.094,208.114Z" transform="translate(-2413.021 -170.721)"/>
      </g>
      <g id="Grupo_83703" data-name="Grupo 83703" transform="translate(145.592 23.205)">
        <path id="Trazado_104465" data-name="Trazado 104465" d="M2754.531,147.614h-25.707a.53.53,0,1,1,0-1.059h25.707a.53.53,0,1,1,0,1.059Z" transform="translate(-2728.294 -146.555)"/>
      </g>
      <g id="Grupo_83704" data-name="Grupo 83704" transform="translate(173.927 29.01)">
        <rect id="Rectángulo_33782" data-name="Rectángulo 33782" width="13.846" height="7.093" fill="#fff"/>
      </g>
      <g id="Grupo_83705" data-name="Grupo 83705" transform="translate(91.534 9.03)">
        <path id="Trazado_104466" data-name="Trazado 104466" d="M2583.493,115.221h-7.747a.53.53,0,0,1-.53-.53v-7.747a.53.53,0,0,1,.53-.53h7.747a.53.53,0,0,1,.53.53v7.747A.53.53,0,0,1,2583.493,115.221Zm-7.217-1.059h6.688v-6.687h-6.687Z" transform="translate(-2575.217 -106.415)"/>
      </g>
      <g id="Grupo_83706" data-name="Grupo 83706" transform="translate(36.152 76.939)">
        <path id="Trazado_104467" data-name="Trazado 104467" d="M2438.274,335.044a.531.531,0,0,1-.521-.438,61.28,61.28,0,0,0-19.16-34.951.53.53,0,0,1,.661-.828,62.376,62.376,0,0,1,19.543,35.6.529.529,0,0,1-.43.613A.539.539,0,0,1,2438.274,335.044Z" transform="translate(-2418.393 -298.712)"/>
      </g>
      <g id="Grupo_83707" data-name="Grupo 83707" transform="translate(191.615 82.263)">
        <path id="Trazado_104468" data-name="Trazado 104468" d="M2859.145,329.613a.53.53,0,0,1-.272-.984,113.367,113.367,0,0,0,19.835-14.7.53.53,0,0,1,.73.767,114.354,114.354,0,0,1-20.022,14.838A.522.522,0,0,1,2859.145,329.613Z" transform="translate(-2858.615 -313.787)" fill="#d8e5f3"/>
      </g>
      <g id="Grupo_83708" data-name="Grupo 83708" transform="translate(41.209 101.349)">
        <path id="Trazado_104469" data-name="Trazado 104469" d="M2461.039,399.4c-13.507,0-23.41-2.194-28.153-6.49a.529.529,0,0,1,.71-.785c16.4,14.849,93.452,1.715,142.153-24.229a.53.53,0,0,1,.5.935c-23.182,12.35-54.523,22.672-83.838,27.612A192.5,192.5,0,0,1,2461.039,399.4Z" transform="translate(-2432.711 -367.834)" fill="#d8e5f3"/>
      </g>
      <g id="Grupo_83709" data-name="Grupo 83709" transform="translate(162.818 137.526)">
        <path id="Trazado_104470" data-name="Trazado 104470" d="M2777.6,502.122a.53.53,0,0,1-.462-.788c6.742-12.114,14.82-21.218,23.361-26.329,7.372-4.412,15.03-5.8,21.561-3.9,8.84,2.565,14.188,10.649,13.623,20.595a.53.53,0,0,1-1.059-.06c.537-9.434-4.51-17.1-12.859-19.517-6.244-1.811-13.6-.464-20.721,3.8-8.382,5.016-16.328,13.984-22.98,25.936A.53.53,0,0,1,2777.6,502.122Z" transform="translate(-2777.072 -470.275)"/>
      </g>
      <g id="Grupo_83710" data-name="Grupo 83710" transform="translate(136.516 85.031)">
        <path id="Trazado_104471" data-name="Trazado 104471" d="M2704.457,354.273a.53.53,0,0,1-.5-.355,24.261,24.261,0,0,1,44.835-18.38.53.53,0,1,1-.958.452,23.2,23.2,0,0,0-42.878,17.577.53.53,0,0,1-.5.706Z" transform="translate(-2702.594 -321.627)"/>
      </g>
      <g id="Grupo_83711" data-name="Grupo 83711" transform="translate(89.556 112.212)">
        <path id="Trazado_104472" data-name="Trazado 104472" d="M2570.146,404.06a.53.53,0,0,1-.157-1.036l14.175-4.406a.53.53,0,1,1,.315,1.012l-14.175,4.406A.534.534,0,0,1,2570.146,404.06Z" transform="translate(-2569.616 -398.594)"/>
      </g>
      <g id="Grupo_83712" data-name="Grupo 83712" transform="translate(62.415 79.816)">
        <path id="Trazado_104473" data-name="Trazado 104473" d="M2504.058,321.194a.528.528,0,0,1-.412-.2l-10.768-13.276a.53.53,0,1,1,.823-.667l10.768,13.276a.53.53,0,0,1-.411.863Z" transform="translate(-2492.76 -306.858)"/>
      </g>
      <g id="Grupo_83713" data-name="Grupo 83713" transform="translate(187.243 44.633)">
        <path id="Trazado_104474" data-name="Trazado 104474" d="M2846.766,223.455a.53.53,0,0,1-.43-.837l10.818-15.164a.53.53,0,0,1,.863.615L2847.2,223.233A.529.529,0,0,1,2846.766,223.455Z" transform="translate(-2846.237 -207.231)"/>
      </g>
      <g id="Grupo_83714" data-name="Grupo 83714" transform="translate(192.181 43.204)">
        <path id="Trazado_104475" data-name="Trazado 104475" d="M2860.75,243.3a.53.53,0,0,1-.444-.819l25.39-39.058a.53.53,0,1,1,.888.577l-25.39,39.058A.529.529,0,0,1,2860.75,243.3Z" transform="translate(-2860.22 -203.186)" fill="#fff"/>
      </g>
      <g id="Grupo_83715" data-name="Grupo 83715" transform="translate(52.744 150.232)">
        <path id="Trazado_104476" data-name="Trazado 104476" d="M2490.96,507.314h-25.054a.53.53,0,1,1,0-1.059h25.054a.53.53,0,1,1,0,1.059Z" transform="translate(-2465.377 -506.255)"/>
      </g>
      <g id="Grupo_83716" data-name="Grupo 83716" transform="translate(26.066 5.833)">
        <rect id="Rectángulo_33783" data-name="Rectángulo 33783" width="22.798" height="7.6" fill="#db6e5f"/>
      </g>
      <g id="Grupo_83717" data-name="Grupo 83717" transform="translate(2.666 12.977)">
        <path id="Trazado_104477" data-name="Trazado 104477" d="M2346.9,126.251h-22.8a.53.53,0,0,1-.53-.53v-7.6a.53.53,0,0,1,.53-.53h22.8a.53.53,0,0,1,.53.53v7.6A.53.53,0,0,1,2346.9,126.251Zm-22.269-1.059h21.739V118.65h-21.739Z" transform="translate(-2323.57 -117.591)"/>
      </g>
    </g>
  </g>
</svg>
