<svg xmlns="http://www.w3.org/2000/svg" xmlns:xlink="http://www.w3.org/1999/xlink" width="277.65" height="273.194" viewBox="0 0 277.65 273.194">
  <defs>
    <clipPath id="clip-path">
      <path id="Trazado_104651" data-name="Trazado 104651" d="M650.332,90.969,673.268,97s4.319-7.745,4.84-13.479a51,51,0,0,0,0-9.9l-6.292-.819-2.5,4.542L661.8,76.15l-1.547,2.5-7.091-1.306Z" transform="translate(-650.332 -72.799)" fill="none"/>
    </clipPath>
    <clipPath id="clip-path-2">
      <circle id="Elipse_4207" data-name="Elipse 4207" cx="26.165" cy="26.165" r="26.165" fill="none" stroke="#292739" stroke-linecap="round" stroke-linejoin="round" stroke-width="1.237"/>
    </clipPath>
    <clipPath id="clip-path-3">
      <path id="Trazado_104720" data-name="Trazado 104720" d="M529.691,132.258l-.064.046a6.966,6.966,0,0,1-2.972,8.874,7.042,7.042,0,0,1-9.049-2.75,6.608,6.608,0,0,1-4.443,1.946,10.811,10.811,0,0,1-4.828-.97,13.445,13.445,0,0,1-7.741-8.352,10.164,10.164,0,0,1,3.176-10.626c3.049-2.372,7.372-2.481,11.064-1.343a8.441,8.441,0,0,1,7.309-5.368,10.852,10.852,0,0,1,8.555,3.6,10.714,10.714,0,0,1,2.394,10.085A9.222,9.222,0,0,1,529.691,132.258Z" transform="translate(-500.2 -113.691)" fill="none" stroke="#292739" stroke-linecap="round" stroke-linejoin="round" stroke-width="1.237"/>
    </clipPath>
    <clipPath id="clip-path-4">
      <path id="Trazado_104724" data-name="Trazado 104724" d="M558.483,77.849a7.708,7.708,0,0,0-8.042-5.329,9.081,9.081,0,0,0-.658-9,13.954,13.954,0,0,0-7.878-5.506,13.328,13.328,0,0,0-9.04.32c-2.786,1.247-4.907,3.958-4.813,6.848a10.946,10.946,0,0,0-8.84-2.14,13.937,13.937,0,0,0-7.882,4.576,13.526,13.526,0,0,0-2.878,13.115,12.827,12.827,0,0,0,10.9,8.332,5.543,5.543,0,0,0,1.291,5.159,10.4,10.4,0,0,0,4.88,2.939,16.644,16.644,0,0,0,9.808-.054c2.992-.951,5.019-2.969,7.63-4.493,4.235-2.472,9.543-2.418,13.069-6.134A9.114,9.114,0,0,0,558.483,77.849Z" transform="translate(-507.802 -57.377)" fill="none" stroke="#292739" stroke-linecap="round" stroke-linejoin="round" stroke-width="1.237"/>
    </clipPath>
    <clipPath id="clip-path-5">
      <path id="Trazado_104728" data-name="Trazado 104728" d="M595.765,89.45a8.308,8.308,0,1,1,15.688,5.3,6.849,6.849,0,0,1,9.278,4.91c.611,4.018-4.628,11.724-11.587,7.449-5.353,14.039-24.248-.022-18.589-4.49C579.167,93.806,589.195,82.09,595.765,89.45Z" transform="translate(-585.383 -83.182)" fill="none" stroke="#292739" stroke-linecap="round" stroke-linejoin="round" stroke-width="1.237"/>
    </clipPath>
    <clipPath id="clip-path-6">
      <path id="Trazado_104740" data-name="Trazado 104740" d="M551.891,195.647c-.029-8.168-.1-11.124-.186-19.292-.137-12.452-.2-24.929-.827-37.367-.119-2.366-.078-4.635-1.176-6.791-2.3-4.513-6.985-7.259-11.227-9.684a39.64,39.64,0,0,1-8.159-5.675c-1.117-1.088-5.356-5.636-4.261-7.147a21.38,21.38,0,0,0,6.461,5.771c.979.539,2.24,1.552,3.34.909.952-.555,1.513-2.648,1.531-3.635,1.285,3.329,1.23,6.525,4.643,8.709.839.573,6.875,4.368,7.85,3.468.894-.824-2.458-23.065-2.458-23.065-2.886-1.276-5.747-2.62-8.56-4.049-4.928-2.5-9.124-6.051-13.575-9.325l6.332,1.457a.9.9,0,0,0,1.248-.675l2.29-4.891a22.788,22.788,0,0,0,.588,5.782,6.977,6.977,0,0,0,5.7,5.407c1.356.267,3.088.67,4.44.209,1.775-.607,1.807-2.905,2.229-4.55a23.457,23.457,0,0,0-1.014-14.7,8.984,8.984,0,0,1,4.666,5.962c1.737,6.252-1.136,12.528.348,18.682a73.527,73.527,0,0,0,2.614,8.394c.873,2.345,1.691,5.312,3.085,7.391a3.615,3.615,0,0,0,2.763,1.722c1.505.04,2.729-1.151,3.729-2.277a28.8,28.8,0,0,0,5.154-7.439c1.6-3.676.66-6.625.6-10.365a8.972,8.972,0,0,1,1.552-5.763,15.9,15.9,0,0,0-.1,5.182c.379,1.875,1.345,3.812,3.4,3.571,2.578-.3,5.364-2.652,6.917-4.583a12.057,12.057,0,0,1-4.666,6.407,7.438,7.438,0,0,0-2.489,2.121,5.654,5.654,0,0,0-.549,1.78c-.518,2.709-.619,6.228-1.865,8.676-3.208,6.3-11.562,10.437-10.943,18.4.3,3.917.305,7.885.453,11.811.515,13.689,1.295,27.421,1.3,41.123,0,9.391-.67,10.748-.67,10.748Z" transform="translate(-525.288 -76.51)" fill="none" stroke="#292739" stroke-linecap="round" stroke-linejoin="round" stroke-width="1.237"/>
    </clipPath>
    <clipPath id="clip-path-7">
      <path id="Trazado_104772" data-name="Trazado 104772" d="M612.876,186.027c-2.716-.5-5.449,1.6-6.595,4.851l-1.555-6.772-17.16,6.533,2.174,3.5a.691.691,0,0,1-.946.956l-8.287-5.034s-9.377,6.127-8.076,7.082,8.529-2.284,8.529-2.284l12.863,7.726,5.26,8.1,10.8-4.115-1.511-6.581a4.522,4.522,0,0,0,1.779.755c3.105.575,6.232-2.253,6.985-6.317S615.981,186.6,612.876,186.027Zm2.14,7.954a5.465,5.465,0,0,1-2.108,3.5,3.39,3.39,0,0,1-1.685.625c-.765.053-1.1-.035-1.39-.751a1.324,1.324,0,0,0-.464-.652.55.55,0,0,0-.73.091c-.634-1.764-1.193-4.32-.23-6.037a3.861,3.861,0,0,1,3.851-2.214C614.269,188.919,615.5,191.352,615.016,193.981Z" transform="translate(-572.307 -184.106)" fill="none" stroke="#292739" stroke-linecap="round" stroke-linejoin="round" stroke-width="1.237"/>
    </clipPath>
  </defs>
  <g id="Grupo_83917" data-name="Grupo 83917" transform="translate(3656 10521)">
    <g id="Grupo_83823" data-name="Grupo 83823" transform="translate(-4408.901 -11727)">
      <g id="Grupo_83821" data-name="Grupo 83821" transform="translate(752.901 1206)">
        <path id="Trazado_104412" data-name="Trazado 104412" d="M2258.684,363.4c1.551,18.626,15.473,28.892,30.645,37.443,23.019,12.972,51.382,10.679,75.562,2.409,19.412-6.64,38.7-15.547,59.219-15.515,19.3.03,38.62,8.037,57.476,3.921a46.686,46.686,0,0,0,33.419-29.5c9.187-26.025-11.28-49.911-16.144-74.73-4.349-22.2,3.761-44.646,9.121-66.62s7.282-47.466-6.972-65.028c-14.706-18.117-41.366-21.056-64.473-17.808s-45.865,11.232-69.14,9.566c-21.506-1.54-42.088-11.287-63.64-10.625a67.624,67.624,0,0,0-52.341,28.17c-22.22,31.518-8.629,67.56,6.128,98.727,6.2,13.084,10,26.47,10.2,41.134C2268.022,324.92,2257.025,343.475,2258.684,363.4Z" transform="translate(-2239.698 -136.816)" fill="#d8e5f3"/>
      </g>
    </g>
    <g id="Grupo_83916" data-name="Grupo 83916" transform="translate(-4080.546 -10522.957)">
      <g id="Grupo_83826" data-name="Grupo 83826" transform="translate(459.604 31.197)">
        <path id="Trazado_104623" data-name="Trazado 104623" d="M608.976,43.56a36.385,36.385,0,0,0-7.65-4.98,38.272,38.272,0,0,0-36.238,1.989C558.4,44.754,553.2,50.8,547.856,56.5c-5.075,5.413-11.123,7.8-17.918,11.064-8.241,3.963-16.547,7.967-23.8,13.531-16.465,12.625-26.384,33.008-27.381,53.732s6.615,41.517,19.811,57.528c3.135,3.8,6.643,7.469,8.431,12.063,1.514,3.892,1.675,8.163,2.631,12.228,3.205,13.626,15.671,23.989,29.391,26.768s28.229-1.255,39.974-8.87a87.237,87.237,0,0,0,20.752-19.268c3.661-4.647,7.694-10.956,14.066-11.915,6.355-.957,13.09,1.828,19.855.692,22.573-3.793,41.189-25.083,44.192-47.3,2.987-22.1-8.735-45.47-28.239-56.292-7.376-4.093-23.393-12.044-25.9-20.551-1.115-3.783-.948-7.808-1.392-11.727A38.342,38.342,0,0,0,608.976,43.56Z" transform="translate(-468.601 -34.947)" fill="#a4d2f3"/>
        <g id="Grupo_83824" data-name="Grupo 83824" transform="translate(0 1.231)">
          <circle id="Elipse_4195" data-name="Elipse 4195" cx="71.157" cy="71.157" r="71.157" transform="translate(4.366 100.631) rotate(-45)" fill="#eaeefa"/>
          <circle id="Elipse_4196" data-name="Elipse 4196" cx="71.157" cy="71.157" r="71.157" transform="translate(0 102.748) rotate(-45)" fill="#fff"/>
        </g>
        <g id="Grupo_83825" data-name="Grupo 83825" transform="translate(95.281 122.098)">
          <path id="Trazado_104624" data-name="Trazado 104624" d="M626.919,244.031a1.532,1.532,0,1,1-2.154-.237A1.532,1.532,0,0,1,626.919,244.031Z" transform="translate(-624.192 -243.457)" fill="#fff" stroke="#292739" stroke-linecap="round" stroke-linejoin="round" stroke-width="1.237"/>
          <path id="Trazado_104625" data-name="Trazado 104625" d="M640.325,257.494a1.308,1.308,0,1,1-1.838-.2A1.307,1.307,0,0,1,640.325,257.494Z" transform="translate(-629.913 -249.071)" fill="#79a2e4"/>
        </g>
      </g>
      <g id="Grupo_83841" data-name="Grupo 83841" transform="translate(456.957 25.897)">
        <g id="Grupo_83831" data-name="Grupo 83831" transform="translate(0 30.042)">
          <circle id="Elipse_4197" data-name="Elipse 4197" cx="11.316" cy="11.316" r="11.316" transform="translate(0 11.808) rotate(-31.449)" fill="#a4d2f3" stroke="#292739" stroke-linecap="round" stroke-linejoin="round" stroke-width="1.237"/>
          <g id="Grupo_83830" data-name="Grupo 83830" transform="translate(8.34 7.203)">
            <path id="Trazado_104626" data-name="Trazado 104626" d="M476.842,91.409l-1.9,1.161.816,1.336a4.888,4.888,0,0,0-1.748,3.687,3.509,3.509,0,0,0,1.77,2.881c1.15.538,2.042.661,4.282-.026l1.171-.372c1.282-.393,1.565-.3,2.263.045a1.374,1.374,0,0,1,.636,1.064v.019a2.375,2.375,0,0,1-1.272,2.254,2.5,2.5,0,0,1-3.016-.116l-.229-.208-2.729,1.669,1.663.869a4.977,4.977,0,0,0,4.539.219l.813,1.329,1.9-1.161-.826-1.35a4.876,4.876,0,0,0,1.719-4.043,3.484,3.484,0,0,0-.6-1.614,2.563,2.563,0,0,0-1.113-1.147c-.984-.557-2.147-.775-4.56-.06l-1.2.343c-1.352.4-1.628.235-1.89.084a1.534,1.534,0,0,1-.724-1.142,2.128,2.128,0,0,1,1.179-1.927,2.195,2.195,0,0,1,2.666.027l.227.189,2.522-1.542-1.457-.963-.025-.015a4.835,4.835,0,0,0-4.059-.138Z" transform="translate(-472.365 -90.292)" fill="#79a2e4"/>
            <path id="Trazado_104627" data-name="Trazado 104627" d="M475.908,89.764l-1.9,1.161.817,1.336a4.888,4.888,0,0,0-1.748,3.687,3.509,3.509,0,0,0,1.77,2.881c1.15.538,2.043.661,4.282-.026l1.171-.372c1.282-.393,1.565-.3,2.263.045a1.37,1.37,0,0,1,.636,1.064l0,.019a2.375,2.375,0,0,1-1.272,2.254,2.5,2.5,0,0,1-3.016-.116l-.229-.208-2.729,1.669,1.662.869a4.978,4.978,0,0,0,4.539.219l.813,1.329,1.9-1.161-.826-1.35a4.873,4.873,0,0,0,1.719-4.043,3.479,3.479,0,0,0-.6-1.614,2.572,2.572,0,0,0-1.113-1.147c-.984-.556-2.147-.775-4.561-.059l-1.2.343c-1.352.4-1.629.235-1.89.084a1.536,1.536,0,0,1-.723-1.142,2.127,2.127,0,0,1,1.179-1.927,2.195,2.195,0,0,1,2.666.027l.227.189,2.522-1.542-1.458-.963-.025-.015a4.835,4.835,0,0,0-4.059-.138Z" transform="translate(-471.978 -89.61)" fill="#a4d2f3"/>
            <g id="Grupo_83829" data-name="Grupo 83829">
              <g id="Grupo_83828" data-name="Grupo 83828">
                <g id="Grupo_83827" data-name="Grupo 83827">
                  <path id="Trazado_104628" data-name="Trazado 104628" d="M481.8,105.52a.361.361,0,0,1-.309-.173l-.621-1.014a5.411,5.411,0,0,1-2.123.454,4.768,4.768,0,0,1-2.412-.654l-1.018-.532a.362.362,0,0,1-.022-.629l1.844-1.128a.362.362,0,0,1,.433.041,2.326,2.326,0,0,0,1.556.575,2.89,2.89,0,0,0,1.52-.453,2.424,2.424,0,0,0,1.3-2.3v-.018a1.423,1.423,0,0,0-.664-1.107,2.178,2.178,0,0,0-1.025-.306,4.552,4.552,0,0,0-1.275.258l-1.171.372a8.515,8.515,0,0,1-2.449.47,4.045,4.045,0,0,1-1.8-.444,3.02,3.02,0,0,1-1.231-1.2,3.062,3.062,0,0,1-.5-1.632,4.841,4.841,0,0,1,1.763-3.681l-.624-1.019a.362.362,0,0,1,.119-.5l1.194-.73a.36.36,0,0,1,.189-.053.348.348,0,0,1,.085.011.361.361,0,0,1,.224.163l.634,1.036a5.3,5.3,0,0,1,1.965-.387,4.273,4.273,0,0,1,2.089.506l.022.013.916.605a.362.362,0,0,1-.01.611l-1.717,1.05a.359.359,0,0,1-.189.053.365.365,0,0,1-.232-.084,2.013,2.013,0,0,0-1.3-.477,2.738,2.738,0,0,0-1.422.446,2.172,2.172,0,0,0-1.2,1.969,1.59,1.59,0,0,0,.748,1.187,1.122,1.122,0,0,0,.625.171h0a5.023,5.023,0,0,0,1.3-.25l1.2-.342a9.254,9.254,0,0,1,2.574-.45,3.705,3.705,0,0,1,1.951.506,2.5,2.5,0,0,1,1.091,1.128,3.432,3.432,0,0,1,.591,1.591,4.83,4.83,0,0,1-1.734,4.031l.633,1.034a.362.362,0,0,1-.12.5l-1.193.73A.359.359,0,0,1,481.8,105.52Z" transform="translate(-471.456 -89.757)" fill="#eaeefa"/>
                  <path id="Trazado_104629" data-name="Trazado 104629" d="M474.2,90.225l.8,1.3a5.021,5.021,0,0,1,2.111-.481,3.968,3.968,0,0,1,1.911.46l.916.605-1.716,1.049a2.377,2.377,0,0,0-1.534-.561,3.088,3.088,0,0,0-1.612.5,2.524,2.524,0,0,0-1.376,2.266,1.933,1.933,0,0,0,.922,1.508,1.483,1.483,0,0,0,.813.223,5.246,5.246,0,0,0,1.407-.264l1.193-.342a8.871,8.871,0,0,1,2.474-.436,3.356,3.356,0,0,1,1.8.476s.389.1.932.985a3.01,3.01,0,0,1,.537,1.418,4.482,4.482,0,0,1-1.845,3.934l.8,1.3-1.194.73-.788-1.288a5.135,5.135,0,0,1-2.265.554,4.375,4.375,0,0,1-2.235-.607l-1.027-.537,1.844-1.128a2.675,2.675,0,0,0,1.8.669,3.266,3.266,0,0,0,1.709-.506,2.8,2.8,0,0,0,1.467-2.646A1.774,1.774,0,0,0,481.182,98,2.51,2.51,0,0,0,480,97.656a4.863,4.863,0,0,0-1.381.274l-1.175.373a8.18,8.18,0,0,1-2.339.453,3.643,3.643,0,0,1-1.648-.41,3.107,3.107,0,0,1-1.527-2.5,4.546,4.546,0,0,1,1.873-3.605l-.788-1.288,1.193-.73m0-.724a.717.717,0,0,0-.377.107l-1.193.73a.724.724,0,0,0-.24,1l.468.765a5.172,5.172,0,0,0-1.66,3.742A3.814,3.814,0,0,0,473.15,99a4.366,4.366,0,0,0,1.95.475,8.821,8.821,0,0,0,2.551-.485l1.182-.375A4.285,4.285,0,0,1,480,98.379a1.825,1.825,0,0,1,.864.269,1.051,1.051,0,0,1,.463.8c0,.013,0,.015,0,.03a2.071,2.071,0,0,1-1.125,1.959,2.537,2.537,0,0,1-1.331.4,1.962,1.962,0,0,1-1.313-.481.725.725,0,0,0-.865-.083l-1.843,1.128a.724.724,0,0,0,.042,1.26l1.01.528a5.135,5.135,0,0,0,2.588.7,5.656,5.656,0,0,0,1.974-.367l.461.754a.725.725,0,0,0,1,.24l1.194-.73a.725.725,0,0,0,.24-1l-.477-.779a5.168,5.168,0,0,0,1.63-4.115,3.787,3.787,0,0,0-.643-1.761,2.924,2.924,0,0,0-1.241-1.265,4.038,4.038,0,0,0-2.11-.543,9.606,9.606,0,0,0-2.68.467l-1.188.34a4.73,4.73,0,0,1-1.207.237.759.759,0,0,1-.44-.121c-.038-.025-.586-.4-.571-.864a1.8,1.8,0,0,1,1.03-1.671,2.385,2.385,0,0,1,1.233-.393,1.663,1.663,0,0,1,1.072.394.723.723,0,0,0,.841.061l1.716-1.049a.725.725,0,0,0,.022-1.222l-.916-.605-.044-.026a4.639,4.639,0,0,0-2.267-.553,5.587,5.587,0,0,0-1.812.306l-.479-.783a.723.723,0,0,0-.618-.346Z" transform="translate(-471.2 -89.501)" fill="#292739"/>
                </g>
              </g>
            </g>
          </g>
        </g>
        <g id="Grupo_83834" data-name="Grupo 83834" transform="translate(22.036)">
          <path id="Trazado_104630" data-name="Trazado 104630" d="M497.854,65a.745.745,0,0,1-.745-.745,21.134,21.134,0,0,1,16.446-20.514,18.47,18.47,0,0,1,13.7,2.651,41.579,41.579,0,0,1,5.289,4.319c2.629,2.4,5.113,4.674,8.751,5.931a17.39,17.39,0,0,0,14.132-.906c4.8-2.756,7.344-7.742,10.035-13.02,2.174-4.264,4.422-8.673,7.988-11.884a19.363,19.363,0,0,1,31.7,9.524.745.745,0,0,1-1.442.374,17.873,17.873,0,0,0-29.259-8.791c-3.361,3.026-5.545,7.31-7.658,11.453-2.672,5.24-5.435,10.659-10.621,13.636a18.894,18.894,0,0,1-15.36,1.022c-3.929-1.358-6.644-3.84-9.269-6.24a40.468,40.468,0,0,0-5.1-4.171,16.97,16.97,0,0,0-12.585-2.44A19.622,19.622,0,0,0,498.6,64.259.744.744,0,0,1,497.854,65Z" transform="translate(-495.633 -25.897)" fill="#292739"/>
          <g id="Grupo_83832" data-name="Grupo 83832" transform="translate(106.57 12.429)">
            <path id="Trazado_104631" data-name="Trazado 104631" d="M680.883,49.035a1.96,1.96,0,1,1-2.389-1.4A1.96,1.96,0,0,1,680.883,49.035Z" transform="translate(-676.766 -47.307)" fill="#fff"/>
            <path id="Trazado_104632" data-name="Trazado 104632" d="M680.951,48.785a2.22,2.22,0,1,0-1.591,2.708,2.223,2.223,0,0,0,1.591-2.708C680.644,47.6,681.259,49.971,680.951,48.785Zm-3.794.985a1.7,1.7,0,1,1,2.072,1.218,1.7,1.7,0,0,1-2.072-1.218Z" transform="translate(-676.582 -47.123)" fill="#292739"/>
          </g>
          <g id="Grupo_83833" data-name="Grupo 83833" transform="translate(0 36.141)">
            <path id="Trazado_104633" data-name="Trazado 104633" d="M495.034,90.022a1.96,1.96,0,1,0,1.96-1.959A1.96,1.96,0,0,0,495.034,90.022Z" transform="translate(-494.773 -87.802)" fill="#fff"/>
            <path id="Trazado_104634" data-name="Trazado 104634" d="M494.589,89.838a2.22,2.22,0,1,1,2.221,2.22,2.223,2.223,0,0,1-2.221-2.22Zm3.92,0a1.7,1.7,0,1,0-1.7,1.7,1.7,1.7,0,0,0,1.7-1.7Z" transform="translate(-494.589 -87.617)" fill="#292739"/>
          </g>
        </g>
        <g id="Grupo_83837" data-name="Grupo 83837" transform="translate(5.481 73.218)">
          <circle id="Elipse_4198" data-name="Elipse 4198" cx="22.706" cy="22.706" r="22.706" transform="matrix(0.144, -0.99, 0.99, 0.144, 0, 44.942)" fill="#eaeefa" stroke="#292739" stroke-linecap="round" stroke-linejoin="round" stroke-width="1.237"/>
          <g id="Grupo_83835" data-name="Grupo 83835" transform="translate(7.656 5.269)">
            <path id="Trazado_104635" data-name="Trazado 104635" d="M505.013,202.23a16.816,16.816,0,0,1-6.105-1.263,33.66,33.66,0,0,1-19.439-26.037c-.444-5.158,1.028-9.281,4.148-11.61a.362.362,0,0,1,.433.58c-6.065,4.528-5,16.243,2.369,26.115a30.473,30.473,0,0,0,12.754,10.277c4.577,1.8,8.7,1.59,11.612-.583a.362.362,0,1,1,.433.58A10.176,10.176,0,0,1,505.013,202.23Z" transform="translate(-479.39 -161.306)" fill="#292739"/>
            <path id="Trazado_104636" data-name="Trazado 104636" d="M514.057,198.914a.362.362,0,0,1-.217-.652c6.065-4.528,5-16.243-2.369-26.115s-18.3-14.221-24.365-9.694a.362.362,0,1,1-.433-.58c3.119-2.329,7.491-2.57,12.309-.677a33.66,33.66,0,0,1,19.439,26.037c.444,5.158-1.028,9.281-4.148,11.61A.36.36,0,0,1,514.057,198.914Z" transform="translate(-482.348 -159.932)" fill="#292739"/>
            <path id="Trazado_104637" data-name="Trazado 104637" d="M513.888,200.362a.36.36,0,0,1-.29-.146l-27.168-36.389a.362.362,0,1,1,.58-.433l27.168,36.389a.362.362,0,0,1-.074.507A.359.359,0,0,1,513.888,200.362Z" transform="translate(-482.278 -161.306)" fill="#292739"/>
          </g>
          <g id="Grupo_83836" data-name="Grupo 83836" transform="translate(3.045 2.793)">
            <path id="Trazado_104638" data-name="Trazado 104638" d="M477.542,191.57a4.93,4.93,0,0,1-4.174-1.651.362.362,0,1,1,.58-.433c1.176,1.574,3.984,1.8,7.908.632a53.489,53.489,0,0,0,24.8-18.518c2.234-3.431,2.817-6.187,1.641-7.761a.362.362,0,0,1,.581-.433c2.813,3.768-2.7,12.309-12.822,19.867a47.484,47.484,0,0,1-14,7.54A16.176,16.176,0,0,1,477.542,191.57Z" transform="translate(-472.254 -158.835)" fill="#292739"/>
            <path id="Trazado_104639" data-name="Trazado 104639" d="M492.046,208.539a12.2,12.2,0,0,1-5.509-1.073.362.362,0,0,1,.347-.636h0a12.343,12.343,0,0,0,5.925.969c3.51-.151,9.215-1.466,16.454-6.871s10.137-10.512,11.292-13.845a12.485,12.485,0,0,0,.782-5.979.362.362,0,0,1,.709-.148,12.87,12.87,0,0,1-.787,6.3c-1.181,3.443-4.146,8.708-11.563,14.246s-13.294,6.873-16.918,7.017Q492.4,208.54,492.046,208.539Z" transform="translate(-477.663 -166.049)" fill="#292739"/>
            <path id="Trazado_104640" data-name="Trazado 104640" d="M472.592,174.972a1.844,1.844,0,0,1-.893-.166.362.362,0,0,1,.347-.635c.077.032,2.972,1.114,13.681-6.882,10.811-8.072,10.6-11.131,10.592-11.161a.357.357,0,0,1,.286-.419.369.369,0,0,1,.427.292c.066.334.325,3.508-10.872,11.868C477.909,174.03,474.13,174.972,472.592,174.972Z" transform="translate(-471.516 -155.703)" fill="#292739"/>
          </g>
        </g>
        <g id="Grupo_83840" data-name="Grupo 83840" transform="translate(2.833 50.426)">
          <path id="Trazado_104641" data-name="Trazado 104641" d="M476.54,144.165a.745.745,0,0,1-.37-.1c-7.554-4.33-12.817-10.7-14.079-17.048a14.771,14.771,0,0,1,2.985-12.2.745.745,0,1,1,1.178.911,13.151,13.151,0,0,0-2.7,11c1.179,5.929,6.173,11.928,13.359,16.047a.745.745,0,0,1-.371,1.391Z" transform="translate(-461.795 -113.055)" fill="#292739"/>
          <g id="Grupo_83838" data-name="Grupo 83838" transform="translate(1.65)">
            <path id="Trazado_104642" data-name="Trazado 104642" d="M465.466,113.217a1.96,1.96,0,1,1,.353,2.749A1.96,1.96,0,0,1,465.466,113.217Z" transform="translate(-464.797 -112.195)" fill="#fff"/>
            <path id="Trazado_104643" data-name="Trazado 104643" d="M465.076,112.874a2.22,2.22,0,1,0,3.115-.4,2.223,2.223,0,0,0-3.115.4Zm3.1,2.4a1.7,1.7,0,1,1-.306-2.383,1.7,1.7,0,0,1,.306,2.383Z" transform="translate(-464.614 -112.012)" fill="#292739"/>
          </g>
          <g id="Grupo_83839" data-name="Grupo 83839" transform="translate(12.525 28.145)">
            <path id="Trazado_104644" data-name="Trazado 104644" d="M484.614,164.18a1.96,1.96,0,1,0-.726-2.675A1.96,1.96,0,0,0,484.614,164.18Z" transform="translate(-483.368 -160.259)" fill="#fff"/>
            <path id="Trazado_104645" data-name="Trazado 104645" d="M484.3,164.222a2.22,2.22,0,1,1,3.031-.822,2.223,2.223,0,0,1-3.031.822Zm1.949-3.4a1.7,1.7,0,1,0,.629,2.319,1.7,1.7,0,0,0-.629-2.319Z" transform="translate(-483.184 -160.075)" fill="#292739"/>
          </g>
        </g>
      </g>
      <path id="Trazado_104646" data-name="Trazado 104646" d="M517.789,176.462c-.451,10.514,1.3,21.79,8.33,29.625,7.145,7.966,18.492,10.9,29.193,10.858q-2.36-36.6-6.007-73.094-.884-8.847-1.843-17.685c-.576-5.3-.6-11.957-6.147-5.946a89.571,89.571,0,0,0-16.11,24.67A88.171,88.171,0,0,0,517.789,176.462Z" transform="translate(-25.183 -38.104)" fill="#fff" stroke="#292739" stroke-linecap="round" stroke-linejoin="round" stroke-width="1.237"/>
      <g id="Grupo_83847" data-name="Grupo 83847" transform="translate(560.686 35.953)">
        <path id="Trazado_104647" data-name="Trazado 104647" d="M643.594,43.069l32.217,8.958a102.588,102.588,0,0,1-4.23,27.71c-3.93,13.708-7.031,17.289-7.031,17.289L634.1,87.508s4.638-4.418,9.018-18.907S643.594,43.069,643.594,43.069Z" transform="translate(-634.098 -43.069)" fill="#eaeefa" stroke="#292739" stroke-linecap="round" stroke-linejoin="round" stroke-width="1.237"/>
        <g id="Grupo_83844" data-name="Grupo 83844" transform="translate(9.506 17.409)">
          <g id="Grupo_83843" data-name="Grupo 83843" clip-path="url(#clip-path)">
            <g id="Grupo_83842" data-name="Grupo 83842" transform="translate(-0.218)">
              <path id="Trazado_104648" data-name="Trazado 104648" d="M655.41,97.269l-5.451-2.4a51.266,51.266,0,0,0,3.724-14.617l5.947.361A56.418,56.418,0,0,1,655.41,97.269Z" transform="translate(-649.959 -75.886)" fill="#79a2e4"/>
              <path id="Trazado_104649" data-name="Trazado 104649" d="M668.887,98.639l-5.451-2.4c2.338-5.3,4.548-13.906,4.548-17.712h5.957C673.941,83.626,671.277,93.221,668.887,98.639Z" transform="translate(-655.544 -75.171)" fill="#79a2e4"/>
              <path id="Trazado_104650" data-name="Trazado 104650" d="M682.645,98.917l-5.3-2.722c3.3-6.414,5.7-19.188,5.7-23.4h5.958C689.006,77.515,686.528,91.355,682.645,98.917Z" transform="translate(-661.308 -72.799)" fill="#79a2e4"/>
            </g>
          </g>
        </g>
        <g id="Grupo_83846" data-name="Grupo 83846" transform="translate(15.091 9.734)">
          <path id="Trazado_104652" data-name="Trazado 104652" d="M660.763,69.342a.894.894,0,0,1-.232-1.757l17.945-4.831a.894.894,0,0,1,.464,1.726L661,69.311A.89.89,0,0,1,660.763,69.342Z" transform="translate(-659.87 -60.948)" fill="#292739"/>
          <g id="Grupo_83845" data-name="Grupo 83845" transform="translate(14.613)">
            <path id="Trazado_104653" data-name="Trazado 104653" d="M686.4,66.212l2.14-3.714-3.715-2.138,2.484-.669,3.713,2.138-2.138,3.713Z" transform="translate(-684.825 -59.692)" fill="#292739"/>
          </g>
        </g>
      </g>
      <g id="Grupo_83851" data-name="Grupo 83851" transform="translate(560.571 197.171)">
        <g id="Grupo_83850" data-name="Grupo 83850">
          <g id="Grupo_83849" data-name="Grupo 83849">
            <g id="Grupo_83848" data-name="Grupo 83848">
              <path id="Trazado_104654" data-name="Trazado 104654" d="M633.9,330.316l51.647,1.8L700.4,319.288l-46.96-.9Z" transform="translate(-633.9 -318.386)" fill="#fff" stroke="#292739" stroke-linecap="round" stroke-linejoin="round" stroke-width="1.237"/>
              <path id="Trazado_104655" data-name="Trazado 104655" d="M722.1,332.75v22.464l14.84-14.351V319.907Z" transform="translate(-670.452 -319.016)" fill="#79a2e4" stroke="#292739" stroke-linecap="round" stroke-linejoin="round" stroke-width="1.237"/>
              <path id="Trazado_104656" data-name="Trazado 104656" d="M633.9,338.758l51.647,1.8v22.464L633.9,360.475Z" transform="translate(-633.9 -326.829)" fill="#a4d2f3" stroke="#292739" stroke-linecap="round" stroke-linejoin="round" stroke-width="1.237"/>
            </g>
          </g>
        </g>
      </g>
      <g id="Grupo_83853" data-name="Grupo 83853" transform="translate(632.862 146.334)">
        <path id="Trazado_104657" data-name="Trazado 104657" d="M764.318,268.653a.362.362,0,0,1-.012-.724,23.02,23.02,0,0,0,18.353-35.8.362.362,0,1,1,.6-.4,23.843,23.843,0,0,1-18.93,36.922Z" transform="translate(-760.09 -231.569)" fill="#292739"/>
        <g id="Grupo_83852" data-name="Grupo 83852" transform="translate(0 32.953)">
          <path id="Trazado_104658" data-name="Trazado 104658" d="M762.714,288.918a3.041,3.041,0,1,0-.352,4.286A3.04,3.04,0,0,0,762.714,288.918Z" transform="translate(-757.354 -287.844)" fill="#a4d2f3" stroke="#292739" stroke-linecap="round" stroke-linejoin="round" stroke-width="1.237"/>
          <path id="Trazado_104659" data-name="Trazado 104659" d="M763.357,289.047a2.525,2.525,0,1,0-.292,3.56A2.526,2.526,0,0,0,763.357,289.047Z" transform="translate(-757.997 -287.973)" fill="#eaeefa" stroke="#292739" stroke-linecap="round" stroke-linejoin="round" stroke-width="1.237"/>
        </g>
        <path id="Trazado_104660" data-name="Trazado 104660" d="M777.463,267.454a.362.362,0,0,1-.132-.7,18.938,18.938,0,0,0,9.483-27.085.362.362,0,1,1,.627-.362,19.662,19.662,0,0,1-9.845,28.121A.364.364,0,0,1,777.463,267.454Z" transform="translate(-765.537 -234.701)" fill="#292739"/>
      </g>
      <g id="Grupo_83857" data-name="Grupo 83857" transform="translate(464.898 148.432)">
        <g id="Grupo_83854" data-name="Grupo 83854" transform="translate(0.79 25.18)">
          <circle id="Elipse_4199" data-name="Elipse 4199" cx="9.008" cy="9.008" r="9.008" transform="translate(0 3.373) rotate(-10.791)" fill="#d8e5ee"/>
          <path id="Trazado_104661" data-name="Trazado 104661" d="M491.934,288.091a7.173,7.173,0,1,1,3.129,9.65A7.173,7.173,0,0,1,491.934,288.091Z" transform="translate(-479.858 -280.649)" fill="#79a2e4"/>
        </g>
        <g id="Grupo_83856" data-name="Grupo 83856">
          <path id="Trazado_104662" data-name="Trazado 104662" d="M486.053,273.17l-.043,0c-7.073-.835-12.73-6.491-14.762-14.761-1.839-7.482-.43-17.263,6.862-22.246a.362.362,0,1,1,.409.6c-7.006,4.787-8.347,14.235-6.568,21.475,1.535,6.246,6.057,13.26,14.144,14.215a.362.362,0,0,1-.042.721Z" transform="translate(-470.519 -235.543)" fill="#292739"/>
          <g id="Grupo_83855" data-name="Grupo 83855" transform="translate(4.053)">
            <path id="Trazado_104663" data-name="Trazado 104663" d="M481.041,239.915l-.712-.133.659-3.509-3.548-.4.082-.72,4.321.49Z" transform="translate(-477.44 -235.152)" fill="#292739"/>
          </g>
        </g>
        <path id="Trazado_104664" data-name="Trazado 104664" d="M484.548,272.595a.362.362,0,0,1-.078-.009c-3.815-.846-5.979-4.262-7.122-6.978-2.246-5.338-2.367-12.43-.268-15.809a.362.362,0,1,1,.615.382c-1.99,3.2-1.846,10,.32,15.146,1.077,2.56,3.1,5.774,6.612,6.553a.362.362,0,0,1-.078.716Z" transform="translate(-472.617 -241.151)" fill="#292739"/>
        <path id="Trazado_104665" data-name="Trazado 104665" d="M495.554,296.2a1.383,1.383,0,1,1-.541,1.879A1.382,1.382,0,0,1,495.554,296.2Z" transform="translate(-480.598 -260.382)" fill="#eaeefa" stroke="#292739" stroke-linecap="round" stroke-linejoin="round" stroke-width="1.237"/>
      </g>
      <g id="Grupo_83877" data-name="Grupo 83877" transform="translate(573.652 58.932)">
        <g id="Grupo_83858" data-name="Grupo 83858" transform="translate(0)">
          <path id="Trazado_104666" data-name="Trazado 104666" d="M738.063,102.7,717.521,82.631s-9.613-2.338-15.79,5.624l53.541,34.164Z" transform="translate(-675.093 -82.311)" fill="#79a2e4" stroke="#292739" stroke-linecap="round" stroke-linejoin="round" stroke-width="1.237"/>
          <path id="Trazado_104667" data-name="Trazado 104667" d="M698.668,82.857s19.486,10.238,32.707,20.182,20.729,15.6,20.729,15.6,3.121,24.021-11.908,44.18c-19.393,26.014-32.522,45-33.8,49.9s1.05,17.4,1.05,17.4l-43.58-27.764s-11.145-12.244-6.5-25.787,25.794-41.546,36.961-58.764C709.616,94.246,698.668,82.857,698.668,82.857Z" transform="translate(-656.24 -82.537)" fill="#eaeefa" stroke="#292739" stroke-linecap="round" stroke-linejoin="round" stroke-width="1.237"/>
          <path id="Trazado_104668" data-name="Trazado 104668" d="M669.27,284.558a18.156,18.156,0,0,0,10,.857,26.437,26.437,0,0,0,9.742-4.211,204.181,204.181,0,0,0,26.033,16.711c14.357,7.42,25.837,8.233,25.837,8.233s-1.394,3.094-11.547,5.66-16.486.515-16.486.515Z" transform="translate(-661.64 -164.737)" fill="#79a2e4" stroke="#292739" stroke-linecap="round" stroke-linejoin="round" stroke-width="1.237"/>
        </g>
        <g id="Grupo_83859" data-name="Grupo 83859" transform="translate(46.054 14.35)">
          <path id="Trazado_104669" data-name="Trazado 104669" d="M760.362,117.775a.745.745,0,0,1-.4-.118l-13.531-8.683a.745.745,0,0,1,.8-1.254l13.531,8.683a.745.745,0,0,1-.4,1.371Z" transform="translate(-739.528 -107.142)" fill="#79a2e4"/>
          <path id="Trazado_104670" data-name="Trazado 104670" d="M760.106,125.314a.741.741,0,0,1-.4-.116l-13.893-8.807a.745.745,0,1,1,.8-1.258l13.893,8.807a.745.745,0,0,1-.4,1.374Z" transform="translate(-739.272 -110.215)" fill="#79a2e4"/>
          <path id="Trazado_104671" data-name="Trazado 104671" d="M758.622,132.816a.737.737,0,0,1-.4-.118l-13.531-8.683a.744.744,0,1,1,.8-1.253l13.531,8.683a.745.745,0,0,1-.4,1.371Z" transform="translate(-738.807 -113.375)" fill="#79a2e4"/>
          <path id="Trazado_104672" data-name="Trazado 104672" d="M756.883,140.23a.743.743,0,0,1-.4-.118l-13.531-8.684a.745.745,0,0,1,.8-1.254l13.531,8.684a.745.745,0,0,1-.4,1.371Z" transform="translate(-738.086 -116.447)" fill="#79a2e4"/>
          <path id="Trazado_104673" data-name="Trazado 104673" d="M753.64,146.346a.742.742,0,0,1-.415-.126l-14.053-9.443A.745.745,0,1,1,740,135.54l14.053,9.443a.745.745,0,0,1-.416,1.363Z" transform="translate(-736.526 -118.667)" fill="#79a2e4"/>
          <path id="Trazado_104674" data-name="Trazado 104674" d="M750.3,152.652a.74.74,0,0,1-.415-.127L736,143.161a.744.744,0,0,1,.833-1.234l13.882,9.363a.745.745,0,0,1-.418,1.362Z" transform="translate(-735.213 -121.314)" fill="#79a2e4"/>
          <circle id="Elipse_4200" data-name="Elipse 4200" cx="1.205" cy="1.205" r="1.205" transform="translate(5.735 4.342)" fill="#79a2e4" stroke="#292739" stroke-linecap="round" stroke-linejoin="round" stroke-width="1.237"/>
          <circle id="Elipse_4201" data-name="Elipse 4201" cx="1.205" cy="1.205" r="1.205" transform="translate(4.892 8.807)" fill="#79a2e4" stroke="#292739" stroke-linecap="round" stroke-linejoin="round" stroke-width="1.237"/>
          <circle id="Elipse_4202" data-name="Elipse 4202" cx="1.205" cy="1.205" r="1.205" transform="translate(3.686 12.828)" fill="#79a2e4" stroke="#292739" stroke-linecap="round" stroke-linejoin="round" stroke-width="1.237"/>
          <path id="Trazado_104675" data-name="Trazado 104675" d="M740.467,135.832a1.205,1.205,0,1,1-1.206-1.205A1.206,1.206,0,0,1,740.467,135.832Z" transform="translate(-736.2 -118.341)" fill="#79a2e4" stroke="#292739" stroke-linecap="round" stroke-linejoin="round" stroke-width="1.237"/>
          <path id="Trazado_104676" data-name="Trazado 104676" d="M737.3,142.218a1.205,1.205,0,1,1-1.206-1.206A1.205,1.205,0,0,1,737.3,142.218Z" transform="translate(-734.887 -120.987)" fill="#79a2e4" stroke="#292739" stroke-linecap="round" stroke-linejoin="round" stroke-width="1.237"/>
          <circle id="Elipse_4203" data-name="Elipse 4203" cx="1.205" cy="1.205" r="1.205" transform="translate(6.097)" fill="#79a2e4" stroke="#292739" stroke-linecap="round" stroke-linejoin="round" stroke-width="1.237"/>
        </g>
        <g id="Grupo_83860" data-name="Grupo 83860" transform="translate(67.221 35.621)">
          <path id="Trazado_104677" data-name="Trazado 104677" d="M799.021,166.879s5.955-12.976,4.465-21.652L801,143.792c.378,10.3-4.484,20.789-4.484,20.789Z" transform="translate(-781.594 -143.411)" fill="#79a2e4" stroke="#292739" stroke-linecap="round" stroke-linejoin="round" stroke-width="1.237"/>
          <path id="Trazado_104678" data-name="Trazado 104678" d="M789.021,163.194s4.432-9.72,4.5-18.116l-2.9-1.935c.341,5.951-4.006,17.571-4.006,17.571Z" transform="translate(-777.49 -143.142)" fill="#79a2e4" stroke="#292739" stroke-linecap="round" stroke-linejoin="round" stroke-width="1.237"/>
          <path id="Trazado_104679" data-name="Trazado 104679" d="M779.959,159.255s3.557-9.115,3.277-13.427L780.8,144.2c0,5.437-3.253,12.572-3.253,12.572Z" transform="translate(-773.735 -143.581)" fill="#79a2e4" stroke="#292739" stroke-linecap="round" stroke-linejoin="round" stroke-width="1.237"/>
          <path id="Trazado_104680" data-name="Trazado 104680" d="M772.068,161.107l17.945,12.636-1.119,2.938-17.859-13.008Z" transform="translate(-771.035 -150.587)" fill="#a4d2f3" stroke="#292739" stroke-linecap="round" stroke-linejoin="round" stroke-width="1.237"/>
        </g>
        <g id="Grupo_83863" data-name="Grupo 83863" transform="translate(34.483 51.287)">
          <g id="Grupo_83862" data-name="Grupo 83862">
            <g id="Grupo_83861" data-name="Grupo 83861" transform="translate(0 5.852)">
              <path id="Trazado_104681" data-name="Trazado 104681" d="M724.32,191.811a10.664,10.664,0,0,1,4.279-5.121l-4.87-6.8a18.27,18.27,0,0,0-7.333,8.774c-3.2,8.1-.145,17.239,6.862,22.559l5.066-6.243A11.386,11.386,0,0,1,724.32,191.811Z" transform="translate(-715.128 -179.888)" fill="#a4d2f3"/>
              <path id="Trazado_104682" data-name="Trazado 104682" d="M763.695,200.655a10.915,10.915,0,0,1-7.156,6.417l2.818,7.727A18.7,18.7,0,0,0,771.618,203.8c3.483-8.815-.446-18.87-8.82-23.88l-4.251,6.793A11.494,11.494,0,0,1,763.695,200.655Z" transform="translate(-732.29 -179.903)" fill="#a4d2f3"/>
            </g>
            <path id="Trazado_104683" data-name="Trazado 104683" d="M737.059,224.414a12.645,12.645,0,0,1-2.979-1.681l-5.066,6.243a21.65,21.65,0,0,0,5.1,2.88,21.155,21.155,0,0,0,13.832.684l-2.818-7.727A12.353,12.353,0,0,1,737.059,224.414Z" transform="translate(-720.883 -191.792)" fill="#eaeefa" stroke="#292739" stroke-linecap="round" stroke-linejoin="round" stroke-width="1.237"/>
            <path id="Trazado_104684" data-name="Trazado 104684" d="M729.841,182.561l9.122,11.326,6.614-12.193L750.3,173a26.984,26.984,0,0,0-3.989-1.711,25.512,25.512,0,0,0-22.972,3.2Z" transform="translate(-718.529 -169.895)" fill="#d8e5ee" stroke="#292739" stroke-linecap="round" stroke-linejoin="round" stroke-width="1.237"/>
            <path id="Trazado_104685" data-name="Trazado 104685" d="M731.33,177.538q.9-.461,1.855-.837a22.634,22.634,0,0,1,15.491-.327q.247.083.494.172l-7.5,13.828Z" transform="translate(-721.843 -172.08)" fill="#2b47a0"/>
          </g>
          <path id="Trazado_104686" data-name="Trazado 104686" d="M743.682,211.213a10.019,10.019,0,0,1-7.922-4,10.727,10.727,0,0,1-1.46-9.75.362.362,0,0,1,.686.234,9.991,9.991,0,0,0,1.356,9.083,9.219,9.219,0,0,0,8.327,3.653,8.546,8.546,0,0,0,7.016-5.633,8.062,8.062,0,0,0-2.428-8.56.362.362,0,1,1,.456-.562,8.809,8.809,0,0,1,2.659,9.351,9.284,9.284,0,0,1-7.617,6.123A9.113,9.113,0,0,1,743.682,211.213Z" transform="translate(-722.836 -180.545)" fill="#292739"/>
          <path id="Trazado_104687" data-name="Trazado 104687" d="M755.276,234.974a.362.362,0,0,1-.354-.287l-1.7-7.978a.362.362,0,0,1,.708-.15l1.7,7.978a.362.362,0,0,1-.279.429A.379.379,0,0,1,755.276,234.974Z" transform="translate(-730.913 -193.258)" fill="#292739"/>
          <path id="Trazado_104688" data-name="Trazado 104688" d="M751.616,235.306a.363.363,0,0,1-.361-.338l-.519-8.08a.361.361,0,0,1,.338-.384.357.357,0,0,1,.384.338l.519,8.079a.362.362,0,0,1-.338.385Z" transform="translate(-729.884 -193.355)" fill="#292739"/>
          <path id="Trazado_104689" data-name="Trazado 104689" d="M747.78,235.181h-.009a.362.362,0,0,1-.352-.371l.207-8.067a.361.361,0,0,1,.361-.353H748a.362.362,0,0,1,.352.371l-.207,8.067A.361.361,0,0,1,747.78,235.181Z" transform="translate(-728.51 -193.308)" fill="#292739"/>
          <path id="Trazado_104690" data-name="Trazado 104690" d="M743.168,234.569a.432.432,0,0,1-.061,0,.362.362,0,0,1-.3-.418l1.349-7.917a.362.362,0,0,1,.714.122l-1.349,7.917A.362.362,0,0,1,743.168,234.569Z" transform="translate(-726.599 -193.116)" fill="#292739"/>
          <path id="Trazado_104691" data-name="Trazado 104691" d="M738.246,233.326a.362.362,0,0,1-.344-.474l2.489-7.617a.362.362,0,1,1,.688.225l-2.489,7.616A.362.362,0,0,1,738.246,233.326Z" transform="translate(-724.559 -192.726)" fill="#292739"/>
          <path id="Trazado_104692" data-name="Trazado 104692" d="M733.544,231.523a.357.357,0,0,1-.163-.039.362.362,0,0,1-.159-.487l3.618-7.152a.362.362,0,0,1,.646.327l-3.618,7.152A.361.361,0,0,1,733.544,231.523Z" transform="translate(-722.61 -192.171)" fill="#292739"/>
        </g>
        <g id="Grupo_83876" data-name="Grupo 83876" transform="translate(15.164 91.35)">
          <g id="Grupo_83866" data-name="Grupo 83866" transform="translate(28.822 8.266)">
            <path id="Trazado_104693" data-name="Trazado 104693" d="M737.485,269.785a.744.744,0,0,1-.727-.589l-2.866-13.348a.745.745,0,0,1,1.456-.313l2.866,13.348a.744.744,0,0,1-.729.9Z" transform="translate(-732.4 -253.471)" fill="#292739"/>
            <g id="Grupo_83864" data-name="Grupo 83864" transform="translate(2.866 13.349)">
              <path id="Trazado_104694" data-name="Trazado 104694" d="M740.57,277.216a1.96,1.96,0,1,1-2.328-1.5A1.96,1.96,0,0,1,740.57,277.216Z" transform="translate(-736.433 -275.406)" fill="#fff"/>
              <path id="Trazado_104695" data-name="Trazado 104695" d="M740.641,276.976a2.22,2.22,0,1,0-1.705,2.637,2.223,2.223,0,0,0,1.705-2.637Zm-3.833.823a1.7,1.7,0,1,1,2.018,1.3,1.7,1.7,0,0,1-2.018-1.3C736.611,276.883,737.005,278.716,736.808,277.8Z" transform="translate(-736.249 -275.222)" fill="#292739"/>
            </g>
            <g id="Grupo_83865" data-name="Grupo 83865">
              <path id="Trazado_104696" data-name="Trazado 104696" d="M735.676,254.42a1.96,1.96,0,1,0-1.5,2.328A1.96,1.96,0,0,0,735.676,254.42Z" transform="translate(-731.539 -252.611)" fill="#fff"/>
              <path id="Trazado_104697" data-name="Trazado 104697" d="M735.747,254.181a2.22,2.22,0,1,1-2.637-1.705,2.222,2.222,0,0,1,2.637,1.705Zm-3.833.823a1.7,1.7,0,1,0,1.305-2.018A1.7,1.7,0,0,0,731.914,255C732.112,255.92,731.718,254.087,731.914,255Z" transform="translate(-731.355 -252.426)" fill="#292739"/>
            </g>
          </g>
          <g id="Grupo_83869" data-name="Grupo 83869" transform="translate(16.295 8.266)">
            <path id="Trazado_104698" data-name="Trazado 104698" d="M713.228,261.1a.745.745,0,0,1-.26-1.443l12.527-4.663a.745.745,0,1,1,.519,1.4l-12.527,4.663A.75.75,0,0,1,713.228,261.1Z" transform="translate(-711.007 -253.471)" fill="#292739"/>
            <g id="Grupo_83867" data-name="Grupo 83867" transform="translate(0 4.663)">
              <path id="Trazado_104699" data-name="Trazado 104699" d="M713.052,264.631a1.96,1.96,0,1,1,1.153-2.521A1.961,1.961,0,0,1,713.052,264.631Z" transform="translate(-710.147 -260.574)" fill="#fff"/>
              <path id="Trazado_104700" data-name="Trazado 104700" d="M712.958,264.692a2.221,2.221,0,1,0-2.856-1.306,2.224,2.224,0,0,0,2.856,1.306Zm-1.367-3.674a1.7,1.7,0,1,1-1,2.185,1.7,1.7,0,0,1,1-2.185Z" transform="translate(-709.963 -260.39)" fill="#292739"/>
            </g>
            <g id="Grupo_83868" data-name="Grupo 83868" transform="translate(12.527)">
              <path id="Trazado_104701" data-name="Trazado 104701" d="M734.444,256.669a1.96,1.96,0,1,0-2.52-1.153A1.96,1.96,0,0,0,734.444,256.669Z" transform="translate(-731.54 -252.611)" fill="#fff"/>
              <path id="Trazado_104702" data-name="Trazado 104702" d="M734.351,256.729a2.221,2.221,0,1,1,1.306-2.856,2.223,2.223,0,0,1-1.306,2.856Zm-1.367-3.674a1.7,1.7,0,1,0,2.185,1,1.7,1.7,0,0,0-2.185-1Z" transform="translate(-731.356 -252.427)" fill="#292739"/>
            </g>
          </g>
          <g id="Grupo_83872" data-name="Grupo 83872" transform="translate(12.793)">
            <path id="Trazado_104703" data-name="Trazado 104703" d="M710.749,255.25a.746.746,0,0,1-.719-.55l-3.5-12.928a.745.745,0,0,1,1.438-.389l3.5,12.928a.744.744,0,0,1-.524.913A.724.724,0,0,1,710.749,255.25Z" transform="translate(-705.026 -239.356)" fill="#292739"/>
            <g id="Grupo_83870" data-name="Grupo 83870" transform="translate(3.502 12.929)">
              <path id="Trazado_104704" data-name="Trazado 104704" d="M714.259,262.282a1.96,1.96,0,1,1-2.4-1.38A1.96,1.96,0,0,1,714.259,262.282Z" transform="translate(-710.147 -260.574)" fill="#fff"/>
              <path id="Trazado_104705" data-name="Trazado 104705" d="M714.327,262.029a2.22,2.22,0,1,0-1.563,2.724,2.222,2.222,0,0,0,1.563-2.724C714.007,260.848,714.647,263.211,714.327,262.029Zm-3.783,1.025a1.7,1.7,0,1,1,2.085,1.2,1.7,1.7,0,0,1-2.085-1.2C710.3,262.15,710.789,263.959,710.543,263.055Z" transform="translate(-709.963 -260.39)" fill="#292739"/>
            </g>
            <g id="Grupo_83871" data-name="Grupo 83871">
              <path id="Trazado_104706" data-name="Trazado 104706" d="M708.279,240.2a1.96,1.96,0,1,0-1.38,2.4A1.96,1.96,0,0,0,708.279,240.2Z" transform="translate(-704.166 -238.495)" fill="#fff"/>
              <path id="Trazado_104707" data-name="Trazado 104707" d="M708.346,239.951a2.22,2.22,0,1,1-2.724-1.563,2.223,2.223,0,0,1,2.724,1.563C708.666,241.133,708.026,238.769,708.346,239.951Zm-3.783,1.025a1.7,1.7,0,1,0,1.2-2.084,1.7,1.7,0,0,0-1.2,2.084C704.808,241.881,704.318,240.071,704.563,240.976Z" transform="translate(-703.982 -238.311)" fill="#292739"/>
            </g>
          </g>
          <g id="Grupo_83875" data-name="Grupo 83875" transform="translate(0 0)">
            <path id="Trazado_104708" data-name="Trazado 104708" d="M685.4,246.624a.745.745,0,0,1-.237-1.45l12.792-4.3a.745.745,0,0,1,.475,1.412l-12.793,4.3A.73.73,0,0,1,685.4,246.624Z" transform="translate(-683.18 -239.356)" fill="#292739"/>
            <g id="Grupo_83873" data-name="Grupo 83873" transform="translate(0 4.303)">
              <path id="Trazado_104709" data-name="Trazado 104709" d="M685.165,249.922a1.96,1.96,0,1,1,1.233-2.482A1.96,1.96,0,0,1,685.165,249.922Z" transform="translate(-682.32 -245.844)" fill="#fff"/>
              <path id="Trazado_104710" data-name="Trazado 104710" d="M685.064,249.985a2.22,2.22,0,1,0-2.813-1.4,2.222,2.222,0,0,0,2.813,1.4Zm-1.25-3.715a1.7,1.7,0,1,1-1.069,2.152,1.7,1.7,0,0,1,1.069-2.152Z" transform="translate(-682.136 -245.66)" fill="#292739"/>
            </g>
            <g id="Grupo_83874" data-name="Grupo 83874" transform="translate(12.793)">
              <path id="Trazado_104711" data-name="Trazado 104711" d="M707.012,242.574a1.96,1.96,0,1,0-2.483-1.233A1.961,1.961,0,0,0,707.012,242.574Z" transform="translate(-704.166 -238.495)" fill="#fff"/>
              <path id="Trazado_104712" data-name="Trazado 104712" d="M706.911,242.637a2.221,2.221,0,1,1,1.4-2.813,2.224,2.224,0,0,1-1.4,2.813Zm-1.25-3.715a1.7,1.7,0,1,0,2.153,1.069,1.7,1.7,0,0,0-2.153-1.069Z" transform="translate(-703.982 -238.311)" fill="#292739"/>
            </g>
          </g>
        </g>
      </g>
      <g id="Grupo_83898" data-name="Grupo 83898" transform="translate(482.279 44.331)">
        <path id="Trazado_104713" data-name="Trazado 104713" d="M504.928,262.945s10.629,11.484,49.319,9.22c10.839-.634,6.734,14.862,21.407,7.207,13.038-6.8,10.574-14.487,10.574-14.487s-1.036-10.2-39.616-10.2c-14.222,0-31.469-2.27-30.979-4.8.879-4.53-4.207,1.25-9.979,5.883C501.493,259.106,504.928,262.945,504.928,262.945Z" transform="translate(-501.607 -136.475)" fill="#79a2e4" stroke="#292739" stroke-linecap="round" stroke-linejoin="round" stroke-width="1.252"/>
        <g id="Grupo_83881" data-name="Grupo 83881" transform="translate(18.786 128.741)">
          <path id="Trazado_104714" data-name="Trazado 104714" d="M586.161,368.613c0,2.058-8.751,3.727-19.547,3.727s-19.547-1.668-19.547-3.727v-4.727c3.242-1.2,11.966,1,19.547,1,7.019,0,16.1-2.059,19.547-1Z" transform="translate(-538.409 -312.994)" fill="#eaeefa" stroke="#292739" stroke-linecap="round" stroke-linejoin="round" stroke-width="1.237"/>
          <path id="Trazado_104715" data-name="Trazado 104715" d="M586.161,361.5c0,2.058-8.751,3.727-19.547,3.727s-19.547-1.668-19.547-3.727,8.751-3.727,19.547-3.727S586.161,359.445,586.161,361.5Z" transform="translate(-538.409 -310.611)" fill="#79a2e4" stroke="#292739" stroke-linecap="round" stroke-linejoin="round" stroke-width="1.237"/>
          <path id="Trazado_104716" data-name="Trazado 104716" d="M584.211,361.152c0,1.865-5.766,3.376-12.878,3.376s-12.877-1.511-12.877-3.376,5.765-3.376,12.877-3.376S584.211,359.287,584.211,361.152Z" transform="translate(-543.129 -310.611)" fill="#2b47a0"/>
          <g id="Grupo_83880" data-name="Grupo 83880" transform="translate(2.04 0.699)">
            <g id="Grupo_83879" data-name="Grupo 83879">
              <g id="Grupo_83878" data-name="Grupo 83878" clip-path="url(#clip-path-2)">
                <circle id="Elipse_4204" data-name="Elipse 4204" cx="26.165" cy="26.165" r="26.165" fill="#79a2e4"/>
                <circle id="Elipse_4205" data-name="Elipse 4205" cx="24.275" cy="24.275" r="24.275" transform="translate(-4.928 41.284) rotate(-76.717)" fill="#a4d2f3"/>
                <circle id="Elipse_4206" data-name="Elipse 4206" cx="18.418" cy="18.418" r="18.418" transform="translate(-0.073 4.744)" fill="#fff"/>
              </g>
              <circle id="Elipse_4208" data-name="Elipse 4208" cx="26.165" cy="26.165" r="26.165" fill="none" stroke="#292739" stroke-linecap="round" stroke-linejoin="round" stroke-width="1.237"/>
            </g>
          </g>
          <path id="Trazado_104717" data-name="Trazado 104717" d="M586.161,288.855c0,2.058-8.751,3.727-19.547,3.727s-19.547-1.668-19.547-3.727,8.751-3.727,19.547-3.727S586.161,286.8,586.161,288.855Z" transform="translate(-538.409 -280.504)" fill="#2b47a0"/>
          <ellipse id="Elipse_4209" data-name="Elipse 4209" cx="28.205" cy="5.39" rx="28.205" ry="5.39" fill="#fff" stroke="#292739" stroke-linecap="round" stroke-linejoin="round" stroke-width="1.237"/>
          <ellipse id="Elipse_4210" data-name="Elipse 4210" cx="19.547" cy="2.865" rx="19.547" ry="2.865" transform="translate(8.658)" fill="#292739" stroke="#292739" stroke-linecap="round" stroke-linejoin="round" stroke-width="1.237"/>
          <ellipse id="Elipse_4211" data-name="Elipse 4211" cx="14.694" cy="1.432" rx="14.694" ry="1.432" transform="translate(13.51 2.865)" fill="#2b47a0" stroke="#292739" stroke-linecap="round" stroke-linejoin="round" stroke-width="1.237"/>
        </g>
        <g id="Grupo_83895" data-name="Grupo 83895">
          <g id="Grupo_83894" data-name="Grupo 83894">
            <g id="Grupo_83884" data-name="Grupo 83884" transform="translate(0 32.976)">
              <g id="Grupo_83883" data-name="Grupo 83883">
                <g id="Grupo_83882" data-name="Grupo 83882" clip-path="url(#clip-path-3)">
                  <path id="Trazado_104718" data-name="Trazado 104718" d="M529.691,132.258l-.064.046a6.966,6.966,0,0,1-2.972,8.874,7.042,7.042,0,0,1-9.049-2.75,6.608,6.608,0,0,1-4.443,1.946,10.811,10.811,0,0,1-4.828-.97,13.445,13.445,0,0,1-7.741-8.352,10.164,10.164,0,0,1,3.176-10.626c3.049-2.372,7.372-2.481,11.064-1.343a8.441,8.441,0,0,1,7.309-5.368,10.852,10.852,0,0,1,8.555,3.6,10.714,10.714,0,0,1,2.394,10.085A9.222,9.222,0,0,1,529.691,132.258Z" transform="translate(-500.2 -113.691)" fill="#79a2e4"/>
                  <path id="Trazado_104719" data-name="Trazado 104719" d="M525.951,110.333a8.675,8.675,0,0,1-2.94,14.987,3.9,3.9,0,0,1-.977,4.635,5.963,5.963,0,0,1-4.8,1.229A13.254,13.254,0,0,1,512.5,129.3c-3.135,3.851-9.23,4.644-13.514,2.133a13.149,13.149,0,0,1-5.973-12.746,16.747,16.747,0,0,1,8.055-11.932,23.234,23.234,0,0,1,14.343-2.935,25.184,25.184,0,0,1,10.207,3.221C527.116,107.917,525.381,108.7,525.951,110.333Z" transform="translate(-497.184 -109.545)" fill="#eaeefa"/>
                </g>
                <path id="Trazado_104721" data-name="Trazado 104721" d="M529.691,132.258l-.064.046a6.966,6.966,0,0,1-2.972,8.874,7.042,7.042,0,0,1-9.049-2.75,6.608,6.608,0,0,1-4.443,1.946,10.811,10.811,0,0,1-4.828-.97,13.445,13.445,0,0,1-7.741-8.352,10.164,10.164,0,0,1,3.176-10.626c3.049-2.372,7.372-2.481,11.064-1.343a8.441,8.441,0,0,1,7.309-5.368,10.852,10.852,0,0,1,8.555,3.6,10.714,10.714,0,0,1,2.394,10.085A9.222,9.222,0,0,1,529.691,132.258Z" transform="translate(-500.2 -113.691)" fill="none" stroke="#292739" stroke-linecap="round" stroke-linejoin="round" stroke-width="1.237"/>
              </g>
            </g>
            <g id="Grupo_83887" data-name="Grupo 83887" transform="translate(4.452)">
              <g id="Grupo_83886" data-name="Grupo 83886">
                <g id="Grupo_83885" data-name="Grupo 83885" clip-path="url(#clip-path-4)">
                  <path id="Trazado_104722" data-name="Trazado 104722" d="M558.483,77.849a7.708,7.708,0,0,0-8.042-5.329,9.081,9.081,0,0,0-.658-9,13.954,13.954,0,0,0-7.878-5.506,13.328,13.328,0,0,0-9.04.32c-2.786,1.247-4.907,3.958-4.813,6.848a10.946,10.946,0,0,0-8.84-2.14,13.937,13.937,0,0,0-7.882,4.576,13.526,13.526,0,0,0-2.878,13.115,12.827,12.827,0,0,0,10.9,8.332,5.543,5.543,0,0,0,1.291,5.159,10.4,10.4,0,0,0,4.88,2.939,16.644,16.644,0,0,0,9.808-.054c2.992-.951,5.019-2.969,7.63-4.493,4.235-2.472,9.543-2.418,13.069-6.134A9.114,9.114,0,0,0,558.483,77.849Z" transform="translate(-507.802 -57.377)" fill="#79a2e4"/>
                  <path id="Trazado_104723" data-name="Trazado 104723" d="M512.282,75.851a11.1,11.1,0,0,0,11.286,6.985,10.048,10.048,0,0,0,8.265,7.765,10.6,10.6,0,0,0,10.534-4.784,15.427,15.427,0,0,0,8.736-1.758c2.552-1.525,4.359-4.346,3.949-7.155a5.684,5.684,0,0,0-6.415-4.614,11.76,11.76,0,0,0-.179-12.643,16.931,16.931,0,0,0-11.491-7.1,24.529,24.529,0,0,0-13.808,2C515.416,57.985,509.207,67.774,512.282,75.851Z" transform="translate(-509.326 -55.257)" fill="#eaeefa"/>
                </g>
                <path id="Trazado_104725" data-name="Trazado 104725" d="M558.483,77.849a7.708,7.708,0,0,0-8.042-5.329,9.081,9.081,0,0,0-.658-9,13.954,13.954,0,0,0-7.878-5.506,13.328,13.328,0,0,0-9.04.32c-2.786,1.247-4.907,3.958-4.813,6.848a10.946,10.946,0,0,0-8.84-2.14,13.937,13.937,0,0,0-7.882,4.576,13.526,13.526,0,0,0-2.878,13.115,12.827,12.827,0,0,0,10.9,8.332,5.543,5.543,0,0,0,1.291,5.159,10.4,10.4,0,0,0,4.88,2.939,16.644,16.644,0,0,0,9.808-.054c2.992-.951,5.019-2.969,7.63-4.493,4.235-2.472,9.543-2.418,13.069-6.134A9.114,9.114,0,0,0,558.483,77.849Z" transform="translate(-507.802 -57.377)" fill="none" stroke="#292739" stroke-linecap="round" stroke-linejoin="round" stroke-width="1.237"/>
              </g>
            </g>
            <g id="Grupo_83890" data-name="Grupo 83890" transform="translate(49.881 15.111)">
              <g id="Grupo_83889" data-name="Grupo 83889">
                <g id="Grupo_83888" data-name="Grupo 83888" clip-path="url(#clip-path-5)">
                  <path id="Trazado_104726" data-name="Trazado 104726" d="M595.765,89.45a8.308,8.308,0,1,1,15.688,5.3,6.849,6.849,0,0,1,9.278,4.91c.611,4.018-4.628,11.724-11.587,7.449-5.353,14.039-24.248-.022-18.589-4.49C579.167,93.806,589.195,82.09,595.765,89.45Z" transform="translate(-585.383 -83.182)" fill="#79a2e4"/>
                  <path id="Trazado_104727" data-name="Trazado 104727" d="M595.93,82.777a8.657,8.657,0,0,1,10.724-5.884c4.342,1.466,8.072,5.873,6.247,10.077,3.666-1.754,7.384,2,7.994,6.014s-4.628,11.724-11.587,7.449c-5.353,14.039-19.938,4.31-15.669-3.435C582.251,88.189,584.207,78.53,595.93,82.777Z" transform="translate(-585.658 -80.417)" fill="#eaeefa"/>
                </g>
                <path id="Trazado_104729" data-name="Trazado 104729" d="M595.765,89.45a8.308,8.308,0,1,1,15.688,5.3,6.849,6.849,0,0,1,9.278,4.91c.611,4.018-4.628,11.724-11.587,7.449-5.353,14.039-24.248-.022-18.589-4.49C579.167,93.806,589.195,82.09,595.765,89.45Z" transform="translate(-585.383 -83.182)" fill="none" stroke="#292739" stroke-linecap="round" stroke-linejoin="round" stroke-width="1.237"/>
              </g>
            </g>
            <g id="Grupo_83893" data-name="Grupo 83893" transform="translate(14.691 11.204)">
              <g id="Grupo_83892" data-name="Grupo 83892">
                <g id="Grupo_83891" data-name="Grupo 83891" clip-path="url(#clip-path-6)">
                  <path id="Trazado_104730" data-name="Trazado 104730" d="M551.891,195.647c-.029-8.168-.1-11.124-.186-19.292-.137-12.452-.2-24.929-.827-37.367-.119-2.366-.078-4.635-1.176-6.791-2.3-4.513-6.985-7.259-11.227-9.684a39.64,39.64,0,0,1-8.159-5.675c-1.117-1.088-5.356-5.636-4.261-7.147a21.38,21.38,0,0,0,6.461,5.771c.979.539,2.24,1.552,3.34.909.952-.555,1.513-2.648,1.531-3.635,1.285,3.329,1.23,6.525,4.643,8.709.839.573,6.875,4.368,7.85,3.468.894-.824-2.458-23.065-2.458-23.065-2.886-1.276-5.747-2.62-8.56-4.049-4.928-2.5-9.124-6.051-13.575-9.325l6.332,1.457a.9.9,0,0,0,1.248-.675l2.29-4.891a22.788,22.788,0,0,0,.588,5.782,6.977,6.977,0,0,0,5.7,5.407c1.356.267,3.088.67,4.44.209,1.775-.607,1.807-2.905,2.229-4.55a23.457,23.457,0,0,0-1.014-14.7,8.984,8.984,0,0,1,4.666,5.962c1.737,6.252-1.136,12.528.348,18.682a73.527,73.527,0,0,0,2.614,8.394c.873,2.345,1.691,5.312,3.085,7.391a3.615,3.615,0,0,0,2.763,1.722c1.505.04,2.729-1.151,3.729-2.277a28.8,28.8,0,0,0,5.154-7.439c1.6-3.676.66-6.625.6-10.365a8.972,8.972,0,0,1,1.552-5.763,15.9,15.9,0,0,0-.1,5.182c.379,1.875,1.345,3.812,3.4,3.571,2.578-.3,5.364-2.652,6.917-4.583a12.057,12.057,0,0,1-4.666,6.407,7.438,7.438,0,0,0-2.489,2.121,5.654,5.654,0,0,0-.549,1.78c-.518,2.709-.619,6.228-1.865,8.676-3.208,6.3-11.562,10.437-10.943,18.4.3,3.917.305,7.885.453,11.811.515,13.689,1.295,27.421,1.3,41.123,0,9.391-.67,10.748-.67,10.748Z" transform="translate(-525.288 -76.51)" fill="#a4d2f3"/>
                  <path id="Trazado_104731" data-name="Trazado 104731" d="M576.008,157.979a47.965,47.965,0,0,1-.349-10.818,15.725,15.725,0,0,1,1.556-6,28.681,28.681,0,0,1,3.616-4.226,66.651,66.651,0,0,0,6.444-7.331,21.285,21.285,0,0,0,3.559-10,7.112,7.112,0,0,1,.412-2.272,5.991,5.991,0,0,1,2.223-2.192,18.371,18.371,0,0,0,2.366-2.216,17.748,17.748,0,0,0,3.621-6.092c-.122.353.925,2.314,1.039,2.814a12,12,0,0,1,.282,3.416c-.124,2.017-.995,4.029-1.542,5.977-.515,1.834-1.117,3.642-1.7,5.455-.518,1.61-1.416,3.5-1.356,5.205.134,3.785.07,7.588,0,11.4l-.488,24.758c-.133,6.73.273,13.745-.5,20.424a110.235,110.235,0,0,1-3.837,20.13c-.7,2.235-1.534,2.811-2.8,4.78s-3,.119-5.13,1.081c-2.728,1.229-5.866,1.123-8.825.682a13.538,13.538,0,0,1-5.691-1.892,5.8,5.8,0,0,1-2.731-5.077c2.53.809,4.886,1.668,7.572,1.566,1.791-.068,3.3.146,4.014-1.5s.774.088.809-1.7a318.639,318.639,0,0,0-2.3-44.228C576.177,159.406,576.091,158.693,576.008,157.979Z" transform="translate(-542.223 -89.076)" fill="#79a2e4"/>
                  <path id="Trazado_104732" data-name="Trazado 104732" d="M604.486,111.77c.837,1.2,2.255,1.486,4.487-.183a13.333,13.333,0,0,0,2.875-3.294,10.085,10.085,0,0,1-2.416.484,3.39,3.39,0,0,1-2.311-.7c-1.178-1-1.028-3.6-1.456-5.013-.109-.359-.3-.764-.669-.833-.5-.093-.841.48-1,.964C603.3,105.407,603.113,109.808,604.486,111.77Z" transform="translate(-557.685 -87.166)" fill="#79a2e4"/>
                  <path id="Trazado_104733" data-name="Trazado 104733" d="M576.476,118.418a3.678,3.678,0,0,1-2.849-1.289c-1.9-1.887-2.876-4.493-3.793-7.012-1.554-4.265-3.122-8.6-3.424-13.13-.3-4.546.685-9.113.287-13.652a44.976,44.976,0,0,0-2.021-8.9,2.721,2.721,0,0,1,2.446.632,6.231,6.231,0,0,1,1.5,2.136c2.7,5.621,2.361,12.16,3.51,18.289a56.553,56.553,0,0,0,4.551,13.245c.814,1.756,2.6,4.093,2.8,6.029A3.907,3.907,0,0,1,576.476,118.418Z" transform="translate(-541.611 -75.613)" fill="#79a2e4"/>
                  <path id="Trazado_104734" data-name="Trazado 104734" d="M558.158,148.04c.026,1.528.287,3.054-.309,2.942a22.534,22.534,0,0,1-8.973-4.542c-2.544-2.226-4.3-5.571-3.92-8.931a2.065,2.065,0,0,1,.57-1.381,1.57,1.57,0,0,1,1.565-.176,4.331,4.331,0,0,1,1.34.95,44.342,44.342,0,0,1,7.254,8.767C556.138,146.39,558.143,147.189,558.158,148.04Z" transform="translate(-533.418 -101.092)" fill="#79a2e4"/>
                  <path id="Trazado_104735" data-name="Trazado 104735" d="M553.176,97.661c.8,1.123-.159,2.806-1.468,3.242a6.715,6.715,0,0,1-4.05-.384c-2.5-.778-5.22-1.721-6.566-3.967-1.36-2.268-.888-5.141-.373-7.734.169-.85.432-1.824,1.224-2.177a1.852,1.852,0,0,1,1.761.269,5.472,5.472,0,0,1,1.244,1.374l6.166,8.6C551.528,97.465,552.763,97.083,553.176,97.661Z" transform="translate(-531.469 -80.658)" fill="#79a2e4"/>
                  <path id="Trazado_104736" data-name="Trazado 104736" d="M579.028,143.05l-.1.066c-.293.193-.661.389-.974.232a1.025,1.025,0,0,1-.419-.6c-.463-1.227-.943-2.306-1.312-3.57a19.326,19.326,0,0,0-1.79-4.2,18.862,18.862,0,0,1,2.619,2.654c.705.873,1.244,1.617,2.457,1.759,1.021.12,1.537-.456,2.12-1.131.762-.881,1.725-1.62,2.564-2.431a30.91,30.91,0,0,0,4.69-5.509c1.982-3.1,3.121-6.926,2.274-10.51.171.725.747,1.47.99,2.2a12.111,12.111,0,0,1,.562,2.676,11.3,11.3,0,0,1-.477,4.069q-.1.367-.208.732c-.081.239-.172.474-.262.712-.046.118-.087.24-.138.355s-.1.229-.157.344c-.108.228-.212.46-.325.685l-.365.661c-.122.222-.254.434-.391.643s-.271.422-.413.628c-.293.4-.582.812-.9,1.189l-.474.572-.494.548A46.521,46.521,0,0,1,579.028,143.05Z" transform="translate(-545.656 -94.454)" fill="#d8e5ee"/>
                  <path id="Trazado_104737" data-name="Trazado 104737" d="M522.966,127.946a12.761,12.761,0,0,0,2.267,3.951,31.9,31.9,0,0,0,3.113,3.309c1.108,1.039,2.266,2.018,3.454,2.989l.452.369.231.193.119.1.112.088.9.7c.6.464,1.2.928,1.8,1.383,1.2.911,2.411,1.8,3.641,2.662s2.478,1.7,3.751,2.548c.638.426,1.277.865,1.923,1.325.319.235.641.475.96.727s.63.525.933.814a7.411,7.411,0,0,1,1.542,2.018,31.218,31.218,0,0,1,1.525,5.687c-.206-.344-1.372-3.971-1.6-4.273a6.677,6.677,0,0,0-.743-.82,8.425,8.425,0,0,0-1.761-1.217q-.478-.26-.983-.5t-1.023-.48c-.689-.325-1.4-.645-2.1-1a35.135,35.135,0,0,1-4.11-2.388,33.568,33.568,0,0,1-3.751-2.953q-.881-.8-1.7-1.662c-.273-.288-.539-.581-.8-.874l-.1-.11-.093-.1-.2-.2-.409-.41a45.68,45.68,0,0,1-3.2-3.48c-.5-.614-.986-1.241-1.438-1.9a21.765,21.765,0,0,1-1.259-2.025,14.526,14.526,0,0,1-.974-2.178A8.4,8.4,0,0,1,522.966,127.946Z" transform="translate(-524.326 -97.826)" fill="#d8e5ee"/>
                  <path id="Trazado_104738" data-name="Trazado 104738" d="M520.465,94.246c2.8,1.515,5.81,2.644,8.461,4.365q4.308,2.8,8.773,5.342c2.62,1.493,6.708,2.679,7.2,6.127-.077-.542-1.489-1.23-1.92-1.479a26.642,26.642,0,0,0-3.273-1.522c-1.14-.461-2.313-.907-3.5-1.41a26.358,26.358,0,0,1-3.554-1.775,11.488,11.488,0,0,1-1.706-1.262q-.2-.185-.4-.386c-.061-.063-.142-.15-.173-.178l-.063-.061-.073-.066c-.2-.18-.439-.37-.681-.555-.489-.372-1.008-.74-1.523-1.113l-1.563-1.12c-1.046-.749-2.082-1.525-3.1-2.329A32.689,32.689,0,0,1,520.465,94.246Z" transform="translate(-523.289 -83.86)" fill="#d8e5ee"/>
                  <path id="Trazado_104739" data-name="Trazado 104739" d="M567.254,193.308c-.956-.566-1.6-.063-1.748-1.2-.263-1.974.549-.461.664-2.438q.2-3.441.327-6.885.25-6.757.225-13.523l-.018-4.076,0-4.08.011-8.147c-.006-2.712-.012-5.421-.067-8.125s-.121-5.4-.26-8.1-.314-5.383-.54-8.083-.47-5.392-.74-8.087c-.4-3.983-1.164-7.822-1.606-11.808-.4-3.58-1.238-7.369-1.1-10.944.22-5.874.977-11.949.328-17.793a16.253,16.253,0,0,0-.511-3.164,6.058,6.058,0,0,1-.446-2.687l1.011.859a35.294,35.294,0,0,1,2,13.021,47.653,47.653,0,0,1-.847,6.563c-.289,1.665.573,3.76.88,5.427l.367,2.011.351,2.014q.343,2.016.672,4.035c.111.673.212,1.347.315,2.021l.3,2.023c.4,2.7.759,5.4,1.091,8.112s.61,5.427.864,8.147.447,5.454.583,8.19.2,5.472.222,8.205,0,5.462-.051,8.188c-.046,2.358-.449,4.7-.375,7.03q.136,4.286.272,8.571c1.919-5.024,2.2-10.5,2.457-15.873.788,5.624.341,11.313.015,16.953-.313,5.427-.46,10.78-.48,16.229a26.889,26.889,0,0,0,2.4-7.061,32.158,32.158,0,0,0,0,4.558q-.088,2.518-.368,5.024c-.3,2.654-.335.957-1.774,3.273a3.733,3.733,0,0,1-3.458,1.96A2.627,2.627,0,0,1,567.254,193.308Z" transform="translate(-540.398 -75.541)" fill="#d8e5ee"/>
                </g>
                <path id="Trazado_104741" data-name="Trazado 104741" d="M551.891,195.647c-.029-8.168-.1-11.124-.186-19.292-.137-12.452-.2-24.929-.827-37.367-.119-2.366-.078-4.635-1.176-6.791-2.3-4.513-6.985-7.259-11.227-9.684a39.64,39.64,0,0,1-8.159-5.675c-1.117-1.088-5.356-5.636-4.261-7.147a21.38,21.38,0,0,0,6.461,5.771c.979.539,2.24,1.552,3.34.909.952-.555,1.513-2.648,1.531-3.635,1.285,3.329,1.23,6.525,4.643,8.709.839.573,6.875,4.368,7.85,3.468.894-.824-2.458-23.065-2.458-23.065-2.886-1.276-5.747-2.62-8.56-4.049-4.928-2.5-9.124-6.051-13.575-9.325l6.332,1.457a.9.9,0,0,0,1.248-.675l2.29-4.891a22.788,22.788,0,0,0,.588,5.782,6.977,6.977,0,0,0,5.7,5.407c1.356.267,3.088.67,4.44.209,1.775-.607,1.807-2.905,2.229-4.55a23.457,23.457,0,0,0-1.014-14.7,8.984,8.984,0,0,1,4.666,5.962c1.737,6.252-1.136,12.528.348,18.682a73.527,73.527,0,0,0,2.614,8.394c.873,2.345,1.691,5.312,3.085,7.391a3.615,3.615,0,0,0,2.763,1.722c1.505.04,2.729-1.151,3.729-2.277a28.8,28.8,0,0,0,5.154-7.439c1.6-3.676.66-6.625.6-10.365a8.972,8.972,0,0,1,1.552-5.763,15.9,15.9,0,0,0-.1,5.182c.379,1.875,1.345,3.812,3.4,3.571,2.578-.3,5.364-2.652,6.917-4.583a12.057,12.057,0,0,1-4.666,6.407,7.438,7.438,0,0,0-2.489,2.121,5.654,5.654,0,0,0-.549,1.78c-.518,2.709-.619,6.228-1.865,8.676-3.208,6.3-11.562,10.437-10.943,18.4.3,3.917.305,7.885.453,11.811.515,13.689,1.295,27.421,1.3,41.123,0,9.391-.67,10.748-.67,10.748Z" transform="translate(-525.288 -76.51)" fill="none" stroke="#292739" stroke-linecap="round" stroke-linejoin="round" stroke-width="1.237"/>
              </g>
            </g>
          </g>
          <path id="Trazado_104742" data-name="Trazado 104742" d="M581.826,270c-1.44-.334-3.361,1.845-5.472,1.845-2.267,0-4.315-2.148-5.784-1.769v9.259a24.312,24.312,0,0,0,5.784.615,25.175,25.175,0,0,0,5.472-.539Z" transform="translate(-529.363 -145.478)" fill="#79a2e4" stroke="#292739" stroke-linecap="round" stroke-linejoin="round" stroke-width="1.237"/>
        </g>
        <g id="Grupo_83896" data-name="Grupo 83896" transform="translate(0.643 129.44)">
          <path id="Trazado_104743" data-name="Trazado 104743" d="M512.521,323.107l-7.238,10.97s-.547,6.7,1.446,11.221,17.407,10.29,17.407,10.29-1.962-16.515,3.487-23.316S512.521,323.107,512.521,323.107Z" transform="translate(-502.921 -296.942)" fill="#79a2e4" stroke="#292739" stroke-linecap="round" stroke-linejoin="round" stroke-width="1.252"/>
          <path id="Trazado_104744" data-name="Trazado 104744" d="M585.462,278.425s3.085,16.773-2.568,26.312c-2.866,4.836-21.557,19.3-65.345,12.863-13.888-2.041-12.442,9.181-12.442,9.181s-9.683-16.22,1.83-29.281c6.307-7.155,27.462,2.721,50.444-1.5C583.043,291.286,585.462,278.425,585.462,278.425Z" transform="translate(-501.298 -278.425)" fill="#eaeefa" stroke="#292739" stroke-linecap="round" stroke-linejoin="round" stroke-width="1.237"/>
          <path id="Trazado_104745" data-name="Trazado 104745" d="M507.037,324.327c-.121-.526-.23-1.072-.323-1.633-1.082-6.539.454-12.217,4.562-16.879,1.01-1.145,3.048-1.679,6.414-1.679a100.6,100.6,0,0,1,10.866.922,152.961,152.961,0,0,0,18.164,1.359h0a72.941,72.941,0,0,0,13.3-1.142c11.247-2.066,19.735-5.893,25.229-11.377l.161-.162c.125,5.1-.374,11.433-2.978,15.827-1.631,2.751-13.514,13.025-41.86,13.025a141.734,141.734,0,0,1-20.49-1.59,24.9,24.9,0,0,0-3.6-.28C512.4,320.719,509.217,321.933,507.037,324.327Z" transform="translate(-503.404 -284.771)" fill="#fff"/>
        </g>
        <g id="Grupo_83897" data-name="Grupo 83897" transform="translate(0.152 44.5)">
          <path id="Trazado_104746" data-name="Trazado 104746" d="M621.108,151.464l-9.589-18.093-10.741,18.391,7.244-2.181c-.616,25.653-17.374,37.2-27.573,36.757,0,0,2.354,3.167,12.878,1.545,17.773-2.74,17.714-14.613,17.714-14.613s2.35-8.481,2.54-23.886Z" transform="translate(-533.609 -133.371)" fill="#79a2e4" stroke="#292739" stroke-linecap="round" stroke-linejoin="round" stroke-width="1.252"/>
          <path id="Trazado_104747" data-name="Trazado 104747" d="M503.629,244.811c-1.923-1.652,2.067-5.765,5.94-8.264,7.535-4.861,18.214-7.268,31.819-8.233,28.139-2,34.2-11.365,36.348-23.834,0,0-2.147,8.9-37.92,8.347-10.4-.162-18.7.163-24.729,1.448C496.015,218.344,499.675,241.415,503.629,244.811Z" transform="translate(-500.46 -162.841)" fill="#eaeefa" stroke="#292739" stroke-linecap="round" stroke-linejoin="round" stroke-width="1.237"/>
          <path id="Trazado_104748" data-name="Trazado 104748" d="M505.858,242.688a22.817,22.817,0,0,1,.419-9.535c1.582-5.76,5.463-9.337,11.538-10.633,4.544-.969,10.717-1.421,19.43-1.421,1.449,0,3.007.013,4.631.039,1.084.016,2.164.025,3.209.025,12.963,0,22.832-1.284,29.376-3.819a17.116,17.116,0,0,1-4.882,5.966c-5.2,4.069-13.8,6.478-26.3,7.364-15.129,1.073-25.686,3.838-33.223,8.7A29.616,29.616,0,0,0,505.858,242.688Z" transform="translate(-502.567 -168.172)" fill="#fff"/>
        </g>
      </g>
      <g id="Grupo_83915" data-name="Grupo 83915" transform="translate(506.498 76.826)">
        <g id="Grupo_83913" data-name="Grupo 83913" transform="translate(17.998)">
          <path id="Trazado_104749" data-name="Trazado 104749" d="M636.4,188.527l-2.437-.195a1.364,1.364,0,0,1-1.137-1.876,2.572,2.572,0,0,1,1.128-1.325,4.094,4.094,0,0,1,3.362-.429,10.761,10.761,0,0,1,2.688,1.59c.724.5,1.807,1.205,2.728.984.9-.215,1.6-.839,2.6-.864,1.4-.035,4.857,1.847,3.4,2.623a12.341,12.341,0,0,1-5.461,1.079C641.511,189.974,638.158,188.668,636.4,188.527Z" transform="translate(-597.345 -142.563)" fill="#fd9572" stroke="#292739" stroke-linecap="round" stroke-linejoin="round" stroke-width="1.237"/>
          <path id="Trazado_104750" data-name="Trazado 104750" d="M693.8,199.6c-10.2,4.579-11.622,2.369-12.044,1.416,0,0,1.64-2.492,2.545-3.524,2.252-2.568,4.142-3.236,7.429-4.145,1.808-.5,7.253-.185,7.253-.185C699.274,194.967,695.294,198.927,693.8,199.6Z" transform="translate(-617.66 -146.103)" fill="#292739" stroke="#292739" stroke-linecap="round" stroke-linejoin="round" stroke-width="1.237"/>
          <g id="Grupo_83899" data-name="Grupo 83899" transform="translate(57.868 108.824)">
            <path id="Trazado_104751" data-name="Trazado 104751" d="M671.512,323.217a1.616,1.616,0,0,0-.382.7,1.069,1.069,0,0,0,.565,1.039,2.577,2.577,0,0,0,1.213.279,9.835,9.835,0,0,0,8.4-4.247c.23-.34.645-1.192,1.2-.935a.5.5,0,0,1,.267.55.7.7,0,0,0,.911-.054,1.766,1.766,0,0,0,.467-.87c.768-2.651,1.7-6.981-2.216-7.3-2.683-.217-4.486,3.309-5.884,5.082Q673.782,320.34,671.512,323.217Z" transform="translate(-671.119 -304.372)" fill="#292739" stroke="#292739" stroke-linecap="round" stroke-linejoin="round" stroke-width="1.237"/>
            <path id="Trazado_104752" data-name="Trazado 104752" d="M679.622,312.537a5.362,5.362,0,0,0,6.817-1.791,10.383,10.383,0,0,0,1.126-3.05l2.173-8.565c.039-.151-4.207-.7-4.689-.244-.383.36-.314,1.463-.4,1.951q-.224,1.245-.559,2.466A28.19,28.19,0,0,1,679.622,312.537Z" transform="translate(-674.643 -298.711)" fill="#fd9572" stroke="#292739" stroke-linecap="round" stroke-linejoin="round" stroke-width="1.237"/>
          </g>
          <g id="Grupo_83900" data-name="Grupo 83900" transform="translate(69.927 108.823)">
            <path id="Trazado_104753" data-name="Trazado 104753" d="M692.1,326.945a1.614,1.614,0,0,0-.382.7,1.07,1.07,0,0,0,.564,1.039,2.593,2.593,0,0,0,1.213.279,9.837,9.837,0,0,0,8.4-4.247c.229-.34.645-1.192,1.2-.935a.5.5,0,0,1,.268.55.7.7,0,0,0,.911-.053,1.773,1.773,0,0,0,.466-.871c.768-2.651,1.7-6.98-2.216-7.3-2.683-.216-4.486,3.309-5.884,5.082Q694.375,324.067,692.1,326.945Z" transform="translate(-691.711 -305.916)" fill="#292739" stroke="#292739" stroke-linecap="round" stroke-linejoin="round" stroke-width="1.237"/>
            <path id="Trazado_104754" data-name="Trazado 104754" d="M701.182,314.748a5.361,5.361,0,0,0,5.823-3.972,10.359,10.359,0,0,0,.039-3.251q-.41-4.4-.821-8.8c-.015-.155-4.2.751-4.5,1.342-.239.467.2,1.483.276,1.973.138.832.237,1.67.3,2.511A28.191,28.191,0,0,1,701.182,314.748Z" transform="translate(-695.636 -298.71)" fill="#fd9572" stroke="#292739" stroke-linecap="round" stroke-linejoin="round" stroke-width="1.237"/>
          </g>
          <g id="Grupo_83902" data-name="Grupo 83902" transform="translate(63.07 47.123)">
            <g id="Grupo_83901" data-name="Grupo 83901">
              <path id="Trazado_104755" data-name="Trazado 104755" d="M682.271,200.843c-.211.446-.443.913-.659,1.446a22.5,22.5,0,0,0-1.42,6.1,67.938,67.938,0,0,0,.282,12.372,271.428,271.428,0,0,1-.125,45.143c2.214.411,4.91.887,6.48,1.36l.029,3.165c2.907.522,8.379-1.178,14.586-1.788,5.055-.5,7.246-2.586,7.537-3.773,0,0-9.2-17.044-12.385-21.566-2.587-3.667-3.3-6.613-1.116-10.677,2.15-4,2.724-8.567,5.182-12.43.912-1.434,2.052-2.724,2.837-4.23a12.991,12.991,0,0,0,.237-10.555c-1.736-4.483-5.928-9.829-10.732-11.211a26.964,26.964,0,0,0-5.923-.791,4.046,4.046,0,0,0-2.558.312,2.974,2.974,0,0,0-1.62,3.355A5.423,5.423,0,0,1,682.271,200.843Z" transform="translate(-680.002 -193.342)" fill="#79a2e4" stroke="#292739" stroke-linecap="round" stroke-linejoin="round" stroke-width="1.237"/>
            </g>
          </g>
          <path id="Trazado_104756" data-name="Trazado 104756" d="M713.052,271.1a.361.361,0,0,1-.362-.362c0-3.675-4.34-11.968-6.441-15.409-.615-1.007-1.278-2.012-1.92-2.985a50.557,50.557,0,0,1-3.694-6.23c-1.475-3.137-1.3-7.231.547-12.516.385-1.1.83-2.185,1.26-3.229a32.487,32.487,0,0,0,2.051-6.1c.227-1.142.56-2.267.882-3.354a27.51,27.51,0,0,0,1.063-4.505,22.687,22.687,0,0,0-3.915-15.747.362.362,0,1,1,.589-.421,23.416,23.416,0,0,1,4.044,16.255,28.075,28.075,0,0,1-1.087,4.625c-.318,1.071-.646,2.178-.866,3.288a33.541,33.541,0,0,1-2.092,6.233c-.426,1.035-.867,2.106-1.246,3.193-1.777,5.1-1.965,9.012-.575,11.969a49.907,49.907,0,0,0,3.644,6.14c.645.978,1.312,1.989,1.934,3.006,1.7,2.781,6.547,11.65,6.547,15.786A.362.362,0,0,1,713.052,271.1Z" transform="translate(-625.074 -149.016)" fill="#292739"/>
          <path id="Trazado_104757" data-name="Trazado 104757" d="M690.026,278.281a.362.362,0,0,1-.363-.359c-.063-7.733-.392-14.466-.952-19.472a123.557,123.557,0,0,1-.995-13.12,69.269,69.269,0,0,1,1.072-12.165c.332-1.9.751-3.871,1.246-5.862.213-.857,1.4-4.825,1.45-4.993a.361.361,0,0,1,.1-.158l.026-.023c.163-.133,1.087-.9,3.255-2.962a.362.362,0,0,1,.5.525c-1.951,1.855-2.912,2.678-3.215,2.931-.193.649-1.219,4.091-1.409,4.855-.491,1.975-.907,3.93-1.236,5.811a68.606,68.606,0,0,0-1.062,12.037,122.951,122.951,0,0,0,.991,13.044c.563,5.03.894,11.789.957,19.546a.362.362,0,0,1-.359.365Z" transform="translate(-620.129 -156.881)" fill="#292739"/>
          <path id="Trazado_104758" data-name="Trazado 104758" d="M694.723,216.114a.362.362,0,0,1-.3-.157c-.846-1.227-1.687-8.757-1.573-10.82a.362.362,0,0,1,.723.04c-.11,2.011.758,9.371,1.446,10.369a.363.363,0,0,1-.3.568Z" transform="translate(-622.253 -150.966)" fill="#292739"/>
          <path id="Trazado_104759" data-name="Trazado 104759" d="M692.327,217.651a.357.357,0,0,1-.178-.047c-1.348-.761-1.994-3.7-2.449-6.476a18.679,18.679,0,0,1-.252-5.523.362.362,0,1,1,.715.114,18.033,18.033,0,0,0,.251,5.291c.214,1.3.863,5.269,2.09,5.963a.362.362,0,0,1-.178.677Z" transform="translate(-620.797 -151.175)" fill="#292739"/>
          <path id="Trazado_104760" data-name="Trazado 104760" d="M684.043,196.687l-1.291,5.22s.787-.521,5.154-1.5,10.429-4.34,10.429-4.34l-3.828-3.642Z" transform="translate(-618.072 -145.838)" fill="#a4d2f3" stroke="#292739" stroke-linecap="round" stroke-linejoin="round" stroke-width="1.237"/>
          <path id="Trazado_104761" data-name="Trazado 104761" d="M664.367,115.032c1.259-.028,2.447-.983,3.708-1.556a6.887,6.887,0,0,1,9.558,4.712c.242,1.045.356,2.319,1.307,2.815.884.461,1.941-.059,2.807-.552a12.385,12.385,0,0,1,3.277-1.436,4.672,4.672,0,0,1,3.475.422c1.619.994,2.151,3.053,2.584,4.9s1.071,3.908,2.766,4.765c1.491.754,3.294.3,4.848-.312s3.139-1.39,4.8-1.243a4.879,4.879,0,0,1,4.229,4.8,5.4,5.4,0,0,1-4.173,5,18.762,18.762,0,0,1-4.436.017,5.09,5.09,0,0,0-4.072,1.388c-.481.569-.74,1.292-1.176,1.9a5.088,5.088,0,0,1-5.664,1.456,11.248,11.248,0,0,1-4.879-3.787c-1.127-1.367-2.439-2.985-4.207-2.892a5.331,5.331,0,0,0-2.572,1.133,4.993,4.993,0,0,1-2.588,1.084c-1.982.03-2.89-2.895-3.733-4.239a4.073,4.073,0,0,0-1.809-1.761,6.565,6.565,0,0,0-3.006.007,7.139,7.139,0,0,1-6.3-2.606,5.75,5.75,0,0,1-.221-6.648c.159-.219.345-.483.246-.735-.174-.446-.908-.945-1.193-1.41a4.268,4.268,0,0,1-.642-1.411,4.214,4.214,0,0,1,1.4-4.077c1.479-1.186,2.964-.793,4.449-.019A2.467,2.467,0,0,0,664.367,115.032Z" transform="translate(-607.487 -112.87)" fill="#292739"/>
          <g id="Grupo_83903" data-name="Grupo 83903" transform="translate(44.589 21.2)">
            <path id="Trazado_104762" data-name="Trazado 104762" d="M677.739,167.659a18.586,18.586,0,0,0,3.721,4.025c.59.5,3.717,3.245,3.717,3.245-1.739.616-2.123.067-2.941.7a12.072,12.072,0,0,0-1.747,2.242c-1.139,1.428-2.675.9-4.265,1.039a28.677,28.677,0,0,0-4.422.664c-2.141.528-2.842,2.455-3.851,3.207,0,0-.064-4.895-.538-5.8-1.058-2.02-3.136-2.991-5.015-4.155a13.458,13.458,0,0,1-3.4-3.242c.3.518-.812,5.244-5.21,4.569-.546-.084-5.344-1.4-5.344-1.4,1.688-1.009,5.071-2.471,5.486-3.172.878-1.486.968-10.43,1.565-13.427.289-1.449.641-3.549,1.647-4.71,1.026-1.184,3.455-1.637,4.919-1.938,4.1-.844,11.131-.885,13.047,3.712.719,1.725.413,3.677.385,5.546a18.285,18.285,0,0,0,2.105,8.634C677.64,167.49,677.688,167.575,677.739,167.659Z" transform="translate(-648.441 -149.074)" fill="#eaeefa" stroke="#292739" stroke-linecap="round" stroke-linejoin="round" stroke-width="1.237"/>
          </g>
          <path id="Trazado_104763" data-name="Trazado 104763" d="M674.715,147.487a11.67,11.67,0,0,1-3.535,2.4.638.638,0,0,1-.358.094.646.646,0,0,1-.382-.3c-.606-.8-1.715-1.968-1.442-3.074.318-1.287,2.115-1.111,1.626-2.834a6.71,6.71,0,0,0-1.087-1.847,2.706,2.706,0,0,1-.6-2.007c.217-1.022,2.11-3.64,2.468-3.426.413.248,3.489,7.862,4.679,7.862.563.042-.474,1.826-.567,2A5.458,5.458,0,0,1,674.715,147.487Z" transform="translate(-612.332 -122.655)" fill="#fd9572" stroke="#292739" stroke-linecap="round" stroke-linejoin="round" stroke-width="1.237"/>
          <path id="Trazado_104764" data-name="Trazado 104764" d="M661.571,131.311c-.244,2.046-.543,4.647,1.47,5.083a5.733,5.733,0,0,0,4.037-1.085,10.255,10.255,0,0,0,1.832-2.78c1.339-2.613,2.721-8.237-2.013-8.488C663.576,123.864,661.881,128.714,661.571,131.311Z" transform="translate(-609.221 -117.497)" fill="#fd9572" stroke="#292739" stroke-linecap="round" stroke-linejoin="round" stroke-width="1.237"/>
          <path id="Trazado_104765" data-name="Trazado 104765" d="M668.439,123.682a15.713,15.713,0,0,0,4.428,7.218.666.666,0,0,0,.526.244c.237-.043.351-.311.41-.544a6.888,6.888,0,0,0-4.9-8.1Z" transform="translate(-612.14 -116.86)" fill="#292739"/>
          <path id="Trazado_104766" data-name="Trazado 104766" d="M665.335,175.589a.362.362,0,0,1-.289-.143c-1.837-2.425-1.354-4.637-.844-6.978a13.531,13.531,0,0,0,.4-5.366.362.362,0,0,1,.714-.118,14.311,14.311,0,0,1-.405,5.639c-.494,2.268-.922,4.226.714,6.386a.363.363,0,0,1-.289.581Z" transform="translate(-610.192 -133.512)" fill="#292739"/>
          <g id="Grupo_83910" data-name="Grupo 83910" transform="translate(0 39.651)">
            <g id="Grupo_83906" data-name="Grupo 83906" transform="translate(0.007 2.064)">
              <g id="Grupo_83905" data-name="Grupo 83905">
                <g id="Grupo_83904" data-name="Grupo 83904" clip-path="url(#clip-path-7)">
                  <path id="Trazado_104767" data-name="Trazado 104767" d="M612.876,186.027c-2.716-.5-5.449,1.6-6.595,4.851l-1.555-6.772-17.16,6.533,2.174,3.5a.691.691,0,0,1-.946.956l-8.287-5.034s-9.377,6.127-8.076,7.082,8.529-2.284,8.529-2.284l12.863,7.726,5.26,8.1,10.8-4.115-1.511-6.581a4.522,4.522,0,0,0,1.779.755c3.105.575,6.232-2.253,6.985-6.317S615.981,186.6,612.876,186.027Zm2.14,7.954a5.465,5.465,0,0,1-2.108,3.5,3.39,3.39,0,0,1-1.685.625c-.765.053-1.1-.035-1.39-.751a1.324,1.324,0,0,0-.464-.652.55.55,0,0,0-.73.091c-.634-1.764-1.193-4.32-.23-6.037a3.861,3.861,0,0,1,3.851-2.214C614.269,188.919,615.5,191.352,615.016,193.981Z" transform="translate(-572.307 -184.106)" fill="#a4d2f3"/>
                  <path id="Trazado_104768" data-name="Trazado 104768" d="M589.155,189.227l-5.109-1.74.2,6.211,9.579,4.507a1.844,1.844,0,0,0,2.464-2.433c-1.645-3.608-3.7-8.076-3.871-8.311C592.126,187.063,589.155,189.227,589.155,189.227Z" transform="translate(-577.172 -185.476)" fill="#79a2e4"/>
                  <path id="Trazado_104769" data-name="Trazado 104769" d="M603.711,187.657l10.669,25.4-3.78.405-12.229-23.359Z" transform="translate(-583.109 -185.578)" fill="#d8e5ee"/>
                  <path id="Trazado_104770" data-name="Trazado 104770" d="M626.133,177.473l-7.7,3.91,4.555,21.166s-6.152,3.109-9.852,3.121.061,7.807.061,7.807l28.894-12.23s-4.446-20.1-4.742-20.5S626.133,177.473,626.133,177.473Z" transform="translate(-588.552 -181.357)" fill="#79a2e4"/>
                  <path id="Trazado_104771" data-name="Trazado 104771" d="M569.416,200.708s5.076.135,7.844-2.957a8.811,8.811,0,0,0,2.027-6.989Z" transform="translate(-571.109 -186.864)" fill="#d8e5ee"/>
                </g>
                <path id="Trazado_104773" data-name="Trazado 104773" d="M612.876,186.027c-2.716-.5-5.449,1.6-6.595,4.851l-1.555-6.772-17.16,6.533,2.174,3.5a.691.691,0,0,1-.946.956l-8.287-5.034s-9.377,6.127-8.076,7.082,8.529-2.284,8.529-2.284l12.863,7.726,5.26,8.1,10.8-4.115-1.511-6.581a4.522,4.522,0,0,0,1.779.755c3.105.575,6.232-2.253,6.985-6.317S615.981,186.6,612.876,186.027Zm2.14,7.954a5.465,5.465,0,0,1-2.108,3.5,3.39,3.39,0,0,1-1.685.625c-.765.053-1.1-.035-1.39-.751a1.324,1.324,0,0,0-.464-.652.55.55,0,0,0-.73.091c-.634-1.764-1.193-4.32-.23-6.037a3.861,3.861,0,0,1,3.851-2.214C614.269,188.919,615.5,191.352,615.016,193.981Z" transform="translate(-572.307 -184.106)" fill="none" stroke="#292739" stroke-linecap="round" stroke-linejoin="round" stroke-width="1.237"/>
              </g>
            </g>
            <path id="Trazado_104774" data-name="Trazado 104774" d="M580.5,194.251c-1.861-.569-9.276,6.552-8.076,7.082C573.437,201.78,582.363,194.82,580.5,194.251Z" transform="translate(-572.296 -186.233)" fill="#79a2e4" stroke="#292739" stroke-linecap="round" stroke-linejoin="round" stroke-width="1.237"/>
            <path id="Trazado_104775" data-name="Trazado 104775" d="M629.307,223.109c.5,1.332-12,6.044-12.5,4.712l-.289-.765c-.332-.881.288-1.4,1.168-1.731a30.411,30.411,0,0,0,9.311-3.51c.88-.332,1.688-.351,2.02.529Z" transform="translate(-590.585 -197.582)" fill="#79a2e4" stroke="#292739" stroke-linecap="round" stroke-linejoin="round" stroke-width="1.237"/>
            <g id="Grupo_83907" data-name="Grupo 83907" transform="translate(13.939 0)">
              <path id="Trazado_104776" data-name="Trazado 104776" d="M615.821,182.333c.526,1.388-3.45,4.185-8.883,6.247s-10.265,2.608-10.792,1.22,3.451-4.185,8.884-6.247S615.294,180.944,615.821,182.333Z" transform="translate(-596.099 -180.989)" fill="#d8e5ee" stroke="#292739" stroke-linecap="round" stroke-linejoin="round" stroke-width="1.237"/>
              <ellipse id="Elipse_4212" data-name="Elipse 4212" cx="8.003" cy="1.797" rx="8.003" ry="1.797" transform="matrix(0.935, -0.355, 0.355, 0.935, 1.526, 5.68)" fill="#a4d2f3" stroke="#292739" stroke-linecap="round" stroke-linejoin="round" stroke-width="1.237"/>
              <path id="Trazado_104777" data-name="Trazado 104777" d="M614.6,185.714c.212.559-2.08,1.946-5.119,3.1s-5.674,1.636-5.886,1.077,2.08-1.946,5.119-3.1S614.388,185.156,614.6,185.714Z" transform="translate(-599.2 -182.612)" fill="#292739" stroke="#292739" stroke-linecap="round" stroke-linejoin="round" stroke-width="1.237"/>
            </g>
            <g id="Grupo_83908" data-name="Grupo 83908" transform="translate(35.929 14.321)">
              <path id="Trazado_104778" data-name="Trazado 104778" d="M634.4,205.6a3.274,3.274,0,0,0-.213.438,4.08,4.08,0,0,0-.162.48,2.361,2.361,0,0,0-.062,1.025,2.217,2.217,0,0,1-.206-.5,3.437,3.437,0,0,1-.093-.549,4.5,4.5,0,0,1-.009-.563,4.122,4.122,0,0,1,.064-.578l0-.011a.369.369,0,1,1,.677.262Z" transform="translate(-633.653 -205.037)" fill="#292739"/>
            </g>
            <g id="Grupo_83909" data-name="Grupo 83909" transform="translate(8.257 11.037)">
              <path id="Trazado_104779" data-name="Trazado 104779" d="M586.529,200.968l1.854-1.538-1.313,2.02a.366.366,0,0,1-.614-.4A.4.4,0,0,1,586.529,200.968Z" transform="translate(-586.397 -199.43)" fill="#292739"/>
            </g>
          </g>
          <path id="Trazado_104780" data-name="Trazado 104780" d="M644.464,191.576a.77.77,0,0,0,.467-.663,2.285,2.285,0,0,0-.3-.818,2.943,2.943,0,0,1-.176-2.047.655.655,0,0,1,.662-.312c.405,1.53,1.3,2.136,2.8,2.7a9.149,9.149,0,0,0,4.2.272c2.109-.122,7.972-1.51,8.973.784a6.254,6.254,0,0,1,.366,2.359s-3.975.664-7.335.932a24.489,24.489,0,0,1-4.14-.327c-1.21-.109-2.164.818-3.316,1.236a5.454,5.454,0,0,1-2.3.392,2.7,2.7,0,0,1-2.01-1.075,2.168,2.168,0,0,1-.113-2.208C642.555,192.21,643.781,191.989,644.464,191.576Z" transform="translate(-601.177 -143.893)" fill="#fd9572" stroke="#292739" stroke-linecap="round" stroke-linejoin="round" stroke-width="1.237"/>
          <g id="Grupo_83912" data-name="Grupo 83912" transform="translate(50.097 29.168)">
            <g id="Grupo_83911" data-name="Grupo 83911">
              <path id="Trazado_104781" data-name="Trazado 104781" d="M671.411,163.3c-.843,3.17-3.129,11.989-3.834,15.546l-9.106.922,0,5.128,10.747.253a3.609,3.609,0,0,0,1.777-.26c1.365-.719,1.551-3.05,2.126-4.337,1.017-2.277,1.752-4.737,2.59-7.1l2.135-6.011Z" transform="translate(-658.104 -162.937)" fill="#eaeefa"/>
              <path id="Trazado_104782" data-name="Trazado 104782" d="M669.332,185.261c-.132,0-.261,0-.384-.006L658.2,185a.362.362,0,0,1-.354-.362l0-5.129a.361.361,0,0,1,.326-.36l8.84-.9c.771-3.769,3.035-12.482,3.786-15.306a.362.362,0,0,1,.7.186c-.768,2.886-3.118,11.933-3.828,15.524a.362.362,0,0,1-.318.29l-8.781.889,0,4.448,10.393.244a3.327,3.327,0,0,0,1.6-.219c.825-.434,1.183-1.675,1.5-2.77a10.914,10.914,0,0,1,.466-1.394c.72-1.612,1.308-3.348,1.876-5.028.227-.672.463-1.367.7-2.043l2.135-6.012a.362.362,0,0,1,.683.242l-2.135,6.011c-.238.671-.473,1.364-.7,2.034-.574,1.7-1.167,3.448-1.9,5.091a10.462,10.462,0,0,0-.431,1.3c-.356,1.234-.759,2.633-1.857,3.211A3.341,3.341,0,0,1,669.332,185.261Z" transform="translate(-657.848 -162.681)" fill="#292739"/>
            </g>
          </g>
        </g>
        <g id="Grupo_83914" data-name="Grupo 83914" transform="translate(0 43.675)">
          <path id="Trazado_104783" data-name="Trazado 104783" d="M567.73,196.76c-.746-2.2-3.128-3.01-5.384-3.55a9.709,9.709,0,0,0-6.729,1.028c-4.815,2.57-6.49,7.469-8.631,12.148-1.334,2.917-.815,7.351-.662,10.5a66.218,66.218,0,0,0,1.359,9.732c.534,2.67.3,5.649,1.72,8.043a10.427,10.427,0,0,1,1.076,1.962,2.076,2.076,0,0,1-.333,2.1,6.2,6.2,0,0,1-1.1.7,1.722,1.722,0,0,0-.368,2.369,4.153,4.153,0,0,0,1.031.672c.348.221.658.633.514,1.019s-.654.5-.933.815a1.155,1.155,0,0,0,.135,1.487c.9.978,2.623.856,3.828,1q2.465.3,4.94.489,5.042.391,10.1.34c.5-.005,1.116-.091,1.288-.56.2-.553-.4-1.046-.913-1.332-2.289-1.268-5.2-2.363-7.112-4.164a17.525,17.525,0,0,1-3.968-6.143,39.079,39.079,0,0,1-3.179-14.2C554,197.4,563.729,195.4,567.73,196.76Z" transform="translate(-543.439 -189.747)" fill="#2b47a0" stroke="#292739" stroke-linecap="round" stroke-linejoin="round" stroke-width="1.237"/>
          <path id="Trazado_104784" data-name="Trazado 104784" d="M565.85,194.467s-2.062-8.2-10.922-6.866c-7.672,1.155-16.762,14.9-12.094,35.448,4.157,18.3,12.094,20.173,12.094,20.173a56.309,56.309,0,0,1-4.3-34.657C554.929,186.57,565.85,194.467,565.85,194.467Z" transform="translate(-541.56 -187.454)" fill="#fff" stroke="#292739" stroke-linecap="round" stroke-linejoin="round" stroke-width="1.237"/>
          <path id="Trazado_104785" data-name="Trazado 104785" d="M567.939,195a7.514,7.514,0,0,0-1.888-2.527,8.491,8.491,0,0,0-2.759-1.621,8.37,8.37,0,0,0-1.568-.393,7.176,7.176,0,0,0-1.617-.043,10.715,10.715,0,0,0-3.167.762,12.956,12.956,0,0,0-5.18,3.944,19.648,19.648,0,0,0-3.132,5.8,19.713,19.713,0,0,1,3.027-5.881,13.167,13.167,0,0,1,5.182-4.109,11.016,11.016,0,0,1,3.241-.849,8.446,8.446,0,0,1,3.354.347,8.995,8.995,0,0,1,3,1.6,8.162,8.162,0,0,1,2.165,2.662h0a.362.362,0,0,1-.647.325Z" transform="translate(-544.489 -188.525)" fill="#292739"/>
          <path id="Trazado_104786" data-name="Trazado 104786" d="M567.553,195.644a8.742,8.742,0,0,0-1.72-.939,9.339,9.339,0,0,0-1.9-.537,10.784,10.784,0,0,0-3.957.076,10.124,10.124,0,0,0-3.665,1.509,12.907,12.907,0,0,0-2.914,2.752,17.272,17.272,0,0,0-2.088,3.463,23.36,23.36,0,0,0-1.343,3.837,59.878,59.878,0,0,0-1.342,8.058,60.032,60.032,0,0,1,1.156-8.1,23.546,23.546,0,0,1,1.267-3.908,17.605,17.605,0,0,1,2.047-3.578,13.338,13.338,0,0,1,2.945-2.912,10.611,10.611,0,0,1,3.82-1.665,11.393,11.393,0,0,1,4.176-.162,10.015,10.015,0,0,1,2.044.535,9.478,9.478,0,0,1,1.883.98.362.362,0,0,1-.4.6l0,0Z" transform="translate(-544.489 -189.923)" fill="#292739"/>
          <path id="Trazado_104787" data-name="Trazado 104787" d="M547.224,253.471a50.924,50.924,0,0,0,9.328,16.407.362.362,0,0,1-.552.468l-.009-.011A51.285,51.285,0,0,1,547.224,253.471Z" transform="translate(-543.907 -214.813)" fill="#292739"/>
          <path id="Trazado_104788" data-name="Trazado 104788" d="M560.692,257.881a41.677,41.677,0,0,0,1.155,5.142,20.356,20.356,0,0,0,2.1,4.792,14.755,14.755,0,0,0,3.426,3.877,16.458,16.458,0,0,0,4.524,2.479h0a.362.362,0,0,1-.252.679l-.011,0a17.1,17.1,0,0,1-4.608-2.734A15.209,15.209,0,0,1,563.631,268a20.627,20.627,0,0,1-1.958-4.926A41.749,41.749,0,0,1,560.692,257.881Z" transform="translate(-549.489 -216.64)" fill="#292739"/>
        </g>
      </g>
    </g>
  </g>
</svg>
