<?xml version="1.0" encoding="utf-8"?>
<!-- Generator: Adobe Illustrator 25.4.1, SVG Export Plug-In . SVG Version: 6.00 Build 0)  -->
<svg version="1.1" id="Capa_1" xmlns="http://www.w3.org/2000/svg" xmlns:xlink="http://www.w3.org/1999/xlink" x="0px" y="0px"
	 viewBox="0 0 260 260" style="enable-background:new 0 0 260 260;" xml:space="preserve">
<style type="text/css">
	.st0{fill:#7EB9C7;}
	.st1{fill:#FDC345;}
	.st2{fill:#F04F4C;}
	.st3{fill:#3D4451;}
	.st4{fill:#FFFFFF;}
	.st5{fill:none;}
</style>
<g id="Grupo_84676" transform="translate(-486.914 -3105.795)">
	<path id="Trazado_125908" d="M520.2,3143.2h-5.5v5.7h-3.4v-14.2h9.5v2.6h-6.1v3.3h5.5V3143.2z M528.1,3147.8
		c-0.7,0.9-1.7,1.4-2.8,1.3c-1,0.1-1.9-0.3-2.6-1c-0.6-0.8-1-1.9-0.9-2.9v-6.8h3.3v6.9c-0.1,0.6,0.3,1.3,1,1.4c0.1,0,0.2,0,0.3,0
		c0.6,0.1,1.3-0.3,1.6-0.8v-7.4h3.3v10.6h-3.1L528.1,3147.8z M538.2,3149.1c-1.5,0.1-2.9-0.5-3.9-1.4c-1-1-1.6-2.4-1.5-3.8v-0.3
		c0-1,0.2-2,0.6-2.9c0.4-0.8,1-1.5,1.8-1.9c0.8-0.5,1.8-0.7,2.7-0.7c1.3-0.1,2.6,0.4,3.5,1.4c0.9,1.1,1.4,2.5,1.3,3.9v1.3h-6.5
		c0.1,0.5,0.4,1,0.8,1.4c0.4,0.4,1,0.5,1.5,0.5c0.9,0,1.8-0.4,2.4-1.1l1.5,1.8c-0.5,0.6-1.1,1.1-1.7,1.3
		C539.8,3148.9,539,3149.1,538.2,3149.1z M537.8,3140.7c-1,0-1.5,0.6-1.7,1.9h3.3v-0.3c0-0.4-0.1-0.9-0.4-1.2
		C538.7,3140.8,538.3,3140.7,537.8,3140.7L537.8,3140.7z M547,3138.3l0.1,1.2c0.7-0.9,1.8-1.5,3-1.4c0.9-0.1,1.8,0.3,2.5,1
		c0.6,0.9,0.9,1.9,0.8,3v6.8h-3.3v-6.7c0-0.4-0.1-0.8-0.3-1.2c-0.3-0.3-0.7-0.4-1.2-0.4c-0.6,0-1.1,0.3-1.4,0.8v7.5h-3.3v-10.6
		L547,3138.3z M559.1,3135.7v2.6h1.7v2.3h-1.7v4.8c0,0.3,0,0.6,0.2,0.8c0.2,0.2,0.5,0.3,0.9,0.2c0.3,0,0.5,0,0.8-0.1v2.3
		c-0.6,0.2-1.2,0.3-1.9,0.3c-0.9,0.1-1.8-0.2-2.5-0.8c-0.6-0.7-0.9-1.5-0.8-2.4v-5.2h-1.3v-2.3h1.3v-2.6L559.1,3135.7z
		 M567.2,3149.1c-1.5,0.1-2.9-0.5-3.9-1.4c-1-1-1.6-2.4-1.5-3.8v-0.3c0-1,0.2-2,0.6-2.9c0.4-0.8,1-1.5,1.8-1.9
		c0.8-0.5,1.8-0.7,2.7-0.7c1.3-0.1,2.6,0.4,3.5,1.4c0.9,1.1,1.4,2.5,1.3,3.9v1.3h-6.5c0.1,0.5,0.4,1,0.8,1.4c0.4,0.4,1,0.5,1.5,0.5
		c0.9,0,1.8-0.4,2.4-1.1l1.5,1.8c-0.4,0.6-1,1.1-1.7,1.3C568.9,3148.9,568.1,3149.1,567.2,3149.1z M566.9,3140.7
		c-1,0-1.5,0.6-1.7,1.9h3.3v-0.3c0-0.4-0.1-0.9-0.4-1.2C567.7,3140.8,567.3,3140.7,566.9,3140.7L566.9,3140.7z M578.5,3145.9
		c0-0.3-0.2-0.6-0.4-0.7c-0.5-0.2-1.1-0.4-1.7-0.5c-0.7-0.1-1.4-0.4-2-0.7c-0.5-0.3-0.9-0.6-1.2-1.1c-0.3-0.4-0.4-0.9-0.4-1.5
		c0-0.9,0.4-1.8,1.2-2.4c0.9-0.7,2-1,3.1-0.9c1.2-0.1,2.4,0.3,3.4,0.9c0.8,0.6,1.3,1.5,1.3,2.5h-3.3c0-0.8-0.4-1.3-1.3-1.3
		c-0.3,0-0.6,0.1-0.9,0.3c-0.2,0.2-0.4,0.4-0.4,0.7c0,0.3,0.2,0.6,0.4,0.7c0.4,0.2,0.9,0.4,1.4,0.4c0.6,0.1,1.1,0.2,1.7,0.4
		c1.4,0.3,2.4,1.5,2.4,2.9c0,1-0.5,1.8-1.3,2.4c-1,0.6-2.1,1-3.3,0.9c-0.8,0-1.7-0.2-2.4-0.5c-0.7-0.3-1.2-0.7-1.7-1.3
		c-0.4-0.5-0.6-1.1-0.6-1.8h3.1c0,0.4,0.2,0.8,0.5,1.1c0.4,0.2,0.8,0.4,1.2,0.3c0.4,0,0.7-0.1,1-0.3
		C578.4,3146.5,578.5,3146.2,578.5,3145.9L578.5,3145.9z M587.8,3143.5c-0.1-1.4,0.3-2.8,1.1-4c0.7-1,1.8-1.5,3-1.4
		c0.9,0,1.8,0.4,2.4,1.1v-5.4h3.3v15h-3l-0.2-1.1c-0.6,0.8-1.6,1.3-2.6,1.3c-1.2,0-2.3-0.5-3-1.4
		C588.1,3146.4,587.7,3145,587.8,3143.5z M591.1,3143.7c0,1.9,0.5,2.8,1.6,2.8c0.7,0,1.3-0.3,1.6-0.9v-4c-0.3-0.6-0.9-1-1.5-0.9
		c-1,0-1.6,0.8-1.7,2.5L591.1,3143.7z M604.6,3149.1c-1.5,0.1-2.9-0.5-3.9-1.4c-1-1-1.6-2.4-1.5-3.8v-0.3c0-1,0.2-2,0.6-2.9
		c0.4-0.8,1-1.5,1.8-1.9c0.8-0.5,1.8-0.7,2.7-0.7c1.3-0.1,2.6,0.4,3.5,1.4c0.9,1.1,1.4,2.5,1.3,3.9v1.3h-6.5c0.1,0.5,0.4,1,0.8,1.4
		c0.4,0.4,1,0.5,1.5,0.5c0.9,0,1.8-0.4,2.4-1.1l1.5,1.8c-0.4,0.6-1,1.1-1.7,1.3C606.2,3148.9,605.4,3149.1,604.6,3149.1z
		 M604.2,3140.7c-1,0-1.5,0.6-1.7,1.9h3.3v-0.3c0-0.4-0.1-0.9-0.4-1.2C605.1,3140.8,604.7,3140.6,604.2,3140.7z M618.8,3148.9h-3.3
		v-10.6h3.3V3148.9z M615.3,3135.6c0-0.4,0.2-0.9,0.5-1.2c0.4-0.3,0.8-0.5,1.3-0.5c0.5,0,1,0.1,1.3,0.5c0.3,0.3,0.5,0.7,0.5,1.2
		c0,0.4-0.2,0.9-0.5,1.2c-0.4,0.3-0.8,0.5-1.3,0.5c-0.5,0-1-0.1-1.3-0.5C615.5,3136.5,615.3,3136,615.3,3135.6L615.3,3135.6z
		 M623.9,3138.3l0.1,1.2c0.7-0.9,1.8-1.5,3-1.4c0.9-0.1,1.8,0.3,2.5,1c0.6,0.9,0.9,1.9,0.8,3v6.8H627v-6.7c0-0.4-0.1-0.8-0.3-1.2
		c-0.3-0.3-0.7-0.4-1.2-0.4c-0.6,0-1.1,0.3-1.4,0.8v7.5h-3.3v-10.6H623.9z M632.8,3148.9v-8.3h-1.5v-2.3h1.5v-0.8
		c-0.1-1,0.3-2.1,1.1-2.8c0.8-0.7,1.9-1.1,3-1c0.5,0,1,0.1,1.5,0.2l0,2.4c-0.3-0.1-0.5-0.1-0.8-0.1c-1,0-1.5,0.4-1.5,1.3v0.8h2.1
		v2.3h-2.1v8.3H632.8z M638.9,3143.5c0-1,0.2-1.9,0.6-2.8c0.4-0.8,1-1.5,1.8-1.9c0.8-0.5,1.8-0.7,2.7-0.7c1.4-0.1,2.8,0.5,3.7,1.5
		c1,1.1,1.4,2.5,1.4,4v0.1c0.1,1.4-0.4,2.8-1.4,3.9c-1,1-2.3,1.5-3.7,1.5c-1.3,0.1-2.7-0.4-3.6-1.4c-0.9-1-1.5-2.3-1.5-3.7
		L638.9,3143.5z M642.2,3143.7c-0.1,0.7,0.1,1.5,0.5,2.1c0.3,0.5,0.8,0.7,1.4,0.7c1.2,0,1.8-0.9,1.8-2.7v-0.3c0-1.9-0.6-2.8-1.8-2.8
		c-1.1,0-1.7,0.8-1.8,2.5L642.2,3143.7z M657,3141.3l-1.1-0.1c-0.8-0.1-1.6,0.3-2,1v6.7h-3.3v-10.6h3.1l0.1,1.4
		c0.4-0.9,1.3-1.5,2.3-1.6c0.3,0,0.6,0,0.9,0.1L657,3141.3z M661.3,3138.3l0.1,1.2c0.7-0.9,1.8-1.5,3-1.4c1.1-0.1,2.2,0.5,2.7,1.6
		c0.7-1,1.9-1.6,3.1-1.6c2.1,0,3.2,1.3,3.3,3.9v6.9h-3.3v-6.7c0-0.4-0.1-0.8-0.3-1.2c-0.3-0.3-0.6-0.4-1-0.4c-0.6,0-1.2,0.3-1.5,0.9
		l0,0.1v7.2h-3.3v-6.6c0-0.4-0.1-0.8-0.3-1.2c-0.3-0.3-0.6-0.4-1-0.4c-0.6,0-1.2,0.3-1.4,0.9v7.4h-3.3v-10.6L661.3,3138.3z
		 M681.4,3148.9c-0.1-0.3-0.3-0.6-0.3-0.9c-0.6,0.8-1.6,1.2-2.5,1.1c-0.9,0-1.8-0.3-2.5-0.9c-0.7-0.6-1.1-1.4-1-2.3
		c-0.1-1,0.4-2,1.3-2.6c1.1-0.7,2.4-1,3.7-0.9h1v-0.6c0-1-0.4-1.5-1.3-1.5c-0.6-0.1-1.1,0.3-1.2,0.9c0,0.1,0,0.2,0,0.3h-3.3
		c0-1,0.5-1.9,1.3-2.5c1-0.7,2.1-1,3.3-1c1.1-0.1,2.3,0.3,3.2,1c0.8,0.7,1.2,1.7,1.2,2.7v4.7c0,0.8,0.1,1.5,0.4,2.2v0.2H681.4z
		 M679.3,3146.8c0.4,0,0.7-0.1,1-0.3c0.2-0.1,0.4-0.4,0.6-0.6v-1.7h-1c-1.1,0-1.7,0.5-1.7,1.5c0,0.3,0.1,0.5,0.3,0.7
		C678.7,3146.7,679,3146.8,679.3,3146.8z M690.5,3146.6c0.4,0,0.8-0.1,1.1-0.4c0.3-0.3,0.4-0.7,0.4-1h3.1c0,1.1-0.4,2.1-1.2,2.9
		c-0.9,0.8-2,1.2-3.2,1.1c-1.4,0.1-2.7-0.5-3.6-1.4c-0.9-1.1-1.4-2.5-1.3-4v-0.1c0-1,0.2-1.9,0.6-2.8c0.4-0.8,1-1.4,1.7-1.9
		c0.8-0.5,1.7-0.7,2.6-0.7c1.2-0.1,2.4,0.3,3.3,1.1c0.8,0.8,1.3,1.9,1.2,3.1h-3.1c0-0.5-0.1-0.9-0.4-1.3c-0.3-0.3-0.7-0.5-1.1-0.4
		c-0.9,0-1.4,0.5-1.5,1.6c-0.1,0.5-0.1,0.9-0.1,1.4c-0.1,0.8,0.1,1.5,0.4,2.2C689.5,3146.4,690,3146.6,690.5,3146.6L690.5,3146.6z
		 M699.9,3148.9h-3.3v-10.6h3.3V3148.9z M696.4,3135.6c0-0.4,0.2-0.9,0.5-1.2c0.4-0.3,0.8-0.5,1.3-0.5c0.5,0,1,0.1,1.3,0.5
		c0.3,0.3,0.5,0.7,0.5,1.2c0,0.4-0.2,0.9-0.5,1.2c-0.4,0.3-0.8,0.5-1.3,0.5c-0.5,0-1-0.1-1.3-0.5
		C696.6,3136.5,696.4,3136,696.4,3135.6L696.4,3135.6z M701.5,3143.5c0-1,0.2-1.9,0.6-2.8c0.4-0.8,1-1.5,1.8-1.9
		c0.8-0.5,1.8-0.7,2.7-0.7c1.4-0.1,2.8,0.5,3.7,1.5c1,1.1,1.4,2.5,1.4,4v0.1c0.1,1.4-0.4,2.8-1.4,3.9c-1,1-2.3,1.5-3.7,1.5
		c-1.3,0.1-2.7-0.4-3.6-1.4c-0.9-1-1.5-2.3-1.5-3.7L701.5,3143.5z M704.8,3143.7c-0.1,0.7,0.1,1.5,0.5,2.1c0.3,0.5,0.8,0.7,1.4,0.7
		c1.2,0,1.8-0.9,1.8-2.7v-0.3c0-1.9-0.6-2.8-1.8-2.8c-1.1,0-1.7,0.8-1.8,2.5L704.8,3143.7z M707,3133.9h3.5l-2.7,3.1h-2.7
		L707,3133.9z M716.2,3138.3l0.1,1.2c0.7-0.9,1.8-1.5,3-1.4c0.9-0.1,1.8,0.3,2.5,1c0.6,0.9,0.9,1.9,0.8,3v6.8h-3.3v-6.7
		c0-0.4-0.1-0.8-0.3-1.2c-0.3-0.3-0.7-0.4-1.2-0.4c-0.6,0-1.1,0.3-1.4,0.8v7.5h-3.3v-10.6H716.2z M587,3170.7
		c0.1,1.4-0.3,2.8-1.1,3.9c-0.7,1-1.8,1.5-3,1.5c-0.9,0-1.8-0.4-2.4-1.1v4.9h-3.3v-14.6h3.1l0.1,1c0.6-0.8,1.5-1.2,2.5-1.2
		c1.2-0.1,2.3,0.5,3,1.4c0.8,1.2,1.2,2.6,1.1,4L587,3170.7z M583.7,3170.5c0-1.9-0.5-2.8-1.6-2.8c-0.6-0.1-1.3,0.3-1.6,0.8v4.2
		c0.3,0.6,0.9,0.9,1.6,0.9c1,0,1.6-0.9,1.6-2.7V3170.5z M594.8,3168.3l-1.1-0.1c-0.8-0.1-1.6,0.3-2,1v6.7h-3.3v-10.6h3.1l0.1,1.4
		c0.4-0.9,1.3-1.5,2.3-1.6c0.3,0,0.6,0,0.9,0.1L594.8,3168.3z M599.5,3175.9h-3.3v-10.6h3.3V3175.9z M596,3162.6
		c0-0.4,0.2-0.9,0.5-1.2c0.4-0.3,0.8-0.5,1.3-0.5c0.5,0,1,0.1,1.3,0.5c0.3,0.3,0.5,0.7,0.5,1.2c0,0.4-0.2,0.9-0.5,1.2
		c-0.4,0.3-0.8,0.5-1.3,0.5c-0.5,0-1-0.1-1.3-0.5C596.2,3163.5,596,3163,596,3162.6L596,3162.6z M604.6,3165.3l0.1,1.2
		c0.7-0.9,1.8-1.5,3-1.4c1.2-0.1,2.2,0.5,2.7,1.6c0.7-1,1.9-1.6,3.1-1.6c2.1,0,3.2,1.3,3.3,3.9v6.9h-3.3v-6.7c0-0.4-0.1-0.8-0.3-1.2
		c-0.3-0.3-0.6-0.4-1-0.4c-0.6,0-1.2,0.3-1.5,0.9l0,0.1v7.2h-3.3v-6.6c0-0.4-0.1-0.8-0.3-1.2c-0.3-0.3-0.6-0.4-1-0.4
		c-0.6,0-1.2,0.3-1.4,0.9v7.4h-3.3v-10.6H604.6z M624.7,3175.9c-0.1-0.3-0.3-0.6-0.3-0.9c-0.6,0.8-1.6,1.2-2.5,1.1
		c-0.9,0-1.8-0.3-2.5-0.9c-0.7-0.6-1.1-1.4-1-2.3c-0.1-1,0.4-2,1.3-2.6c1.1-0.7,2.4-1,3.7-0.9h1v-0.6c0-1-0.4-1.5-1.3-1.5
		c-0.6-0.1-1.1,0.3-1.2,0.9c0,0.1,0,0.2,0,0.3h-3.3c0-1,0.5-1.9,1.3-2.5c1-0.7,2.1-1,3.3-1c1.1-0.1,2.3,0.3,3.2,1
		c0.8,0.7,1.2,1.7,1.2,2.7v4.7c0,0.8,0.1,1.5,0.4,2.2v0.2H624.7z M622.6,3173.8c0.4,0,0.7-0.1,1-0.3c0.2-0.1,0.4-0.4,0.6-0.6v-1.7
		h-1c-1.1,0-1.7,0.5-1.7,1.5c0,0.3,0.1,0.5,0.3,0.7C622.1,3173.7,622.3,3173.8,622.6,3173.8z M635.7,3168.3l-1.1-0.1
		c-0.8-0.1-1.6,0.3-2,1v6.7h-3.3v-10.6h3.1l0.1,1.4c0.4-0.9,1.3-1.5,2.3-1.6c0.3,0,0.6,0,0.9,0.1L635.7,3168.3z M640.4,3175.9h-3.3
		v-10.6h3.3V3175.9z M636.9,3162.6c0-0.4,0.2-0.9,0.5-1.2c0.8-0.6,1.9-0.6,2.6,0c0.6,0.6,0.7,1.6,0.1,2.2c0,0-0.1,0.1-0.1,0.1
		c-0.8,0.6-1.9,0.6-2.6,0C637.1,3163.5,636.9,3163,636.9,3162.6z M648.4,3175.9c-0.1-0.3-0.3-0.6-0.3-0.9c-0.6,0.8-1.6,1.2-2.5,1.1
		c-0.9,0-1.8-0.3-2.5-0.9c-0.7-0.6-1.1-1.4-1-2.3c-0.1-1,0.4-2,1.3-2.6c1.1-0.7,2.4-1,3.7-0.9h1v-0.6c0-1-0.4-1.5-1.3-1.5
		c-0.6-0.1-1.1,0.3-1.2,0.9c0,0.1,0,0.2,0,0.3h-3.3c0-1,0.5-1.9,1.3-2.5c1-0.7,2.1-1,3.3-1c1.1-0.1,2.3,0.3,3.2,1
		c0.8,0.7,1.2,1.7,1.2,2.7v4.7c0,0.8,0.1,1.5,0.4,2.2v0.2H648.4z M646.3,3173.8c0.4,0,0.7-0.1,1-0.3c0.2-0.1,0.4-0.4,0.6-0.6v-1.7
		h-1c-1.1,0-1.7,0.5-1.7,1.5c0,0.3,0.1,0.5,0.3,0.7C645.8,3173.7,646,3173.8,646.3,3173.8L646.3,3173.8z M658.6,3172.9
		c0-0.3-0.2-0.6-0.4-0.7c-0.5-0.2-1.1-0.4-1.7-0.5c-0.7-0.1-1.4-0.4-2-0.7c-0.5-0.3-0.9-0.6-1.2-1.1c-0.3-0.4-0.4-0.9-0.4-1.5
		c0-0.9,0.4-1.8,1.2-2.4c0.9-0.7,2-1,3.1-0.9c1.2-0.1,2.4,0.3,3.4,0.9c0.8,0.6,1.3,1.5,1.3,2.5h-3.3c0-0.8-0.4-1.3-1.3-1.3
		c-0.3,0-0.6,0.1-0.9,0.3c-0.2,0.2-0.4,0.4-0.4,0.7c0,0.3,0.2,0.6,0.4,0.7c0.4,0.2,0.9,0.4,1.4,0.4c0.6,0.1,1.1,0.2,1.7,0.4
		c1.4,0.3,2.4,1.5,2.4,2.9c0,1-0.5,1.8-1.3,2.4c-1,0.6-2.1,1-3.3,0.9c-0.8,0-1.7-0.2-2.4-0.5c-0.7-0.3-1.2-0.7-1.7-1.3
		c-0.4-0.5-0.6-1.1-0.6-1.8h3.1c0,0.4,0.2,0.8,0.5,1.1c0.4,0.2,0.8,0.4,1.2,0.3c0.4,0,0.7-0.1,1-0.3
		C658.5,3173.5,658.6,3173.2,658.6,3172.9L658.6,3172.9z"/>
	<g id="Grupo_83480" transform="translate(-3 93)">
		<g id="Grupo_83456" transform="translate(-3996.173 1582.938)">
			<path id="Trazado_104218" class="st0" d="M4609.2,1553.4h31.6c2.6,0,4.8,2.9,4.8,6.4v16.3c0,3.5-2.1,6.4-4.8,6.4h-3.7l0.2,9.7
				l-7.2-9.7h-21c-2.6,0-4.8-2.9-4.8-6.4v-16.3C4604.5,1556.3,4606.6,1553.4,4609.2,1553.4z"/>
			<path id="Trazado_104219" class="st1" d="M4624.7,1559.1h-34.2c-2.8-0.1-5.1,2.1-5.2,4.9v12.5c0.1,2.8,2.4,4.9,5.2,4.9h4
				l-0.9,9.6l8.4-9.6h22.7c2.8,0.1,5.1-2.1,5.2-4.9v-12.5C4629.8,1561.2,4627.5,1559,4624.7,1559.1z"/>
			<path id="Trazado_104220" class="st2" d="M4624.1,1556.4h-22.2v15.4c0,4.6,2.5,8.4,5.6,8.4h19c1.8-0.9,3-2.7,3-4.8v-13.7
				C4629.4,1558.8,4627,1556.4,4624.1,1556.4z"/>
			<g id="Grupo_83441" transform="translate(4554.706 1572.334)">
				<g id="Grupo_83440" transform="translate(0)">
					<g id="Grupo_83439">
						<path id="Trazado_104221" class="st3" d="M40,48.3c5.6,0.5,10.6-3.6,11.2-9.2S47.6,28.5,41.9,28c-5.6-0.5-10.6,3.6-11.2,9.2
							c0,0.5-0.1,1,0,1.5C30.9,43.7,34.9,47.9,40,48.3z"/>
						<path id="Trazado_104222" class="st3" d="M54.9,72.5c1.9-0.1,3.3-1.8,3.2-3.7c0-0.2,0-0.4-0.1-0.6
							c-1.7-9.3-8.6-17.6-16.8-17.7s-15.1,8.3-16.8,17.6c-0.4,1.9,0.7,3.7,2.6,4.2c0.2,0,0.4,0.1,0.6,0.1L54.9,72.5z"/>
					</g>
				</g>
			</g>
			<g id="Grupo_83443" transform="translate(4549.284 1569.783)">
				<g id="Grupo_83442" transform="translate(0)">
					<path id="Trazado_104223" class="st3" d="M43.7,52.1c-0.2,0-0.4,0-0.6,0c-6.7-0.3-11.9-6.1-11.5-12.8s6.1-11.9,12.8-11.5
						c6.7,0.3,11.9,6.1,11.5,12.8C55.5,47.1,50.2,52.1,43.7,52.1z M43.8,30.7c-5.2,0-9.3,4.2-9.3,9.3c0,5,3.9,9.1,8.8,9.3l0,0
						c5.2,0.3,9.6-3.7,9.8-8.8c0.3-5.2-3.7-9.6-8.8-9.8C44.1,30.7,43.9,30.7,43.8,30.7L43.8,30.7z"/>
					<path id="Trazado_104224" class="st3" d="M59.4,75.2L59.4,75.2l-30.2,0c-2.7,0-4.9-2.2-4.9-4.9c0-0.3,0-0.6,0.1-1
						c1-4.9,3.4-9.5,7-13c3.4-3.5,8-5.6,12.9-5.7h0c4.9,0.1,9.6,2.2,13,5.7c3.5,3.6,6,8.1,6.9,13c0.5,2.7-1.2,5.3-3.9,5.8
						C60,75.2,59.7,75.2,59.4,75.2L59.4,75.2z M44.3,53.4c-4.2,0.1-8.1,1.9-11,4.9c-3.2,3.2-5.3,7.2-6.2,11.6
						c-0.1,0.6,0,1.3,0.4,1.8c0.4,0.5,1,0.8,1.7,0.8l30.2,0l0,0c0.6,0,1.2-0.3,1.7-0.8c0.4-0.5,0.6-1.2,0.4-1.8
						c-0.9-4.4-3-8.4-6.2-11.6C52.5,55.3,48.5,53.5,44.3,53.4L44.3,53.4z"/>
				</g>
			</g>
			<g id="Grupo_83446" transform="translate(4549.172 1569.67)">
				<g id="Grupo_83445" transform="translate(0 0)">
					<g id="Grupo_83444">
						<path id="Trazado_104225" class="st3" d="M43.9,52.3c-0.2,0-0.4,0-0.6,0c-6.8-0.3-12-6.1-11.6-12.9c0.3-6.8,6.1-12,12.9-11.6
							c6.8,0.3,12,6.1,11.6,12.9C55.8,47.2,50.4,52.3,43.9,52.3z M43.9,30.9c-5.1,0-9.2,4.1-9.2,9.2c0,4.9,3.8,9,8.7,9.2l0,0
							c5.1,0.3,9.4-3.6,9.7-8.7s-3.6-9.4-8.7-9.7l0,0C44.2,30.9,44,30.9,43.9,30.9L43.9,30.9z"/>
						<path id="Trazado_104226" class="st3" d="M59.5,75.5L59.5,75.5l-30.2,0c-2.8,0-5-2.3-5-5c0-0.3,0-0.7,0.1-1
							c1-4.9,3.4-9.5,7-13.1c3.4-3.6,8.1-5.6,13-5.7h0c4.9,0.1,9.6,2.2,13,5.8c3.6,3.6,6,8.1,7,13.1c0.5,2.7-1.2,5.4-3.9,5.9
							C60.2,75.4,59.8,75.5,59.5,75.5L59.5,75.5z M44.4,53.6c-4.1,0.1-8.1,1.9-10.9,4.9c-3.1,3.2-5.3,7.2-6.2,11.5
							c-0.1,0.6,0,1.2,0.4,1.7c0.4,0.5,1,0.7,1.6,0.7l30.2,0l0,0c0.6,0,1.2-0.3,1.6-0.7c0.4-0.5,0.5-1.1,0.4-1.7
							c-0.9-4.4-3-8.4-6.1-11.5C52.5,55.5,48.6,53.7,44.4,53.6L44.4,53.6z"/>
					</g>
				</g>
			</g>
			<g id="Grupo_83449" transform="translate(4604.144 1575.063)">
				<g id="Grupo_83448">
					<g id="Grupo_83447">
						<path id="Trazado_104227" class="st4" d="M41.2,48.6c5.7,0.3,10.6-4.1,10.9-9.8s-4.1-10.6-9.8-10.9S31.7,32,31.4,37.7
							c0,0.4,0,0.7,0,1.1C31.7,44.1,35.9,48.4,41.2,48.6z"/>
						<path id="Trazado_104228" class="st4" d="M56.9,71c1.9,0,3.4-1.5,3.4-3.4c0-0.2,0-0.5-0.1-0.7c-1.8-9-9.1-17.1-17.9-17.1
							s-16.2,8-18,17c-0.4,1.8,0.8,3.7,2.7,4c0.2,0,0.4,0.1,0.7,0.1L56.9,71z"/>
					</g>
				</g>
			</g>
			<g id="Grupo_83451" transform="translate(4598.203 1571.087)">
				<g id="Grupo_83450" transform="translate(0)">
					<path id="Trazado_104229" class="st3" d="M43.1,51.3c-0.2,0-0.4,0-0.6,0l0,0C36,51,31.1,45.5,31.4,39s5.9-11.4,12.3-11.1
						c6.5,0.3,11.4,5.9,11.1,12.3C54.5,46.5,49.4,51.3,43.1,51.3z M42.6,48.6c5,0.3,9.2-3.6,9.5-8.5c0.3-5-3.6-9.2-8.5-9.5
						c-5-0.3-9.2,3.6-9.5,8.5c0,0.3,0,0.6,0,0.9C34.4,44.7,38,48.4,42.6,48.6z"/>
					<path id="Trazado_104230" class="st3" d="M58.3,73.7L58.3,73.7l-29.2,0c-2.6,0-4.8-2.1-4.7-4.8c0-0.3,0-0.6,0.1-0.9
						c1-4.8,3.3-9.1,6.7-12.6c3.3-3.4,7.8-5.4,12.5-5.5h0c4.7,0.1,9.3,2.1,12.5,5.6c3.4,3.5,5.8,7.8,6.7,12.6
						c0.5,2.6-1.2,5.1-3.7,5.6C58.9,73.7,58.6,73.7,58.3,73.7L58.3,73.7z M58.3,71L58.3,71c0.6,0,1.2-0.3,1.6-0.8
						c0.4-0.5,0.6-1.1,0.4-1.7c-0.8-4.2-2.9-8.2-6-11.2c-2.8-2.9-6.6-4.7-10.6-4.8h0c-4,0.1-7.9,1.8-10.6,4.8c-3.1,3.1-5.1,7-6,11.2
						c-0.1,0.6,0,1.3,0.4,1.7c0.4,0.5,1,0.8,1.6,0.8L58.3,71z"/>
				</g>
			</g>
			<g id="Grupo_83454" transform="translate(4598.095 1570.98)">
				<g id="Grupo_83453" transform="translate(0)">
					<g id="Grupo_83452">
						<path id="Trazado_104231" class="st3" d="M43.2,51.6c-0.2,0-0.4,0-0.6,0l0,0c-6.5-0.3-11.6-5.9-11.3-12.4
							c0.3-6.5,5.9-11.6,12.4-11.3s11.6,5.9,11.3,12.4C54.7,46.6,49.5,51.5,43.2,51.6z M42.8,48.6c4.9,0.3,9.1-3.5,9.4-8.4
							c0.3-4.9-3.5-9.1-8.4-9.4c-4.9-0.3-9.1,3.5-9.4,8.4c0,0.3,0,0.6,0,0.9C34.6,44.8,38.2,48.4,42.8,48.6z"/>
						<path id="Trazado_104232" class="st3" d="M58.4,73.9L58.4,73.9l-29.2,0c-2.7,0-4.9-2.2-4.9-4.9c0-0.3,0-0.6,0.1-1
							c1-4.8,3.3-9.2,6.8-12.6C34.5,52,39,50,43.8,49.9h0c4.8,0.1,9.3,2.1,12.6,5.6c3.4,3.5,5.8,7.9,6.7,12.7
							c0.5,2.6-1.2,5.2-3.8,5.7C59,73.9,58.7,73.9,58.4,73.9L58.4,73.9z M58.4,71L58.4,71c0.6,0,1.1-0.3,1.5-0.7
							c0.4-0.5,0.5-1.1,0.4-1.6c-0.8-4.2-2.9-8.1-5.9-11.2c-2.8-2.9-6.6-4.6-10.6-4.7h0c-4,0.1-7.8,1.8-10.6,4.7
							c-3,3.1-5.1,6.9-6,11.2c-0.1,0.6,0,1.2,0.4,1.7c0.4,0.5,0.9,0.7,1.5,0.7L58.4,71z"/>
					</g>
				</g>
			</g>
			<g id="Grupo_83455" transform="translate(4582.289 1530.502)">
				<path id="Trazado_104233" class="st1" d="M40.7,39.3c0.2-0.6,0.2-1.2,0.2-1.9l2-0.9l-0.8-2.8L40,34.1c-0.3-0.6-0.7-1.1-1.2-1.5
					l0.7-2l-2.5-1.4l-1.3,1.6c-0.6-0.2-1.3-0.3-2-0.3L33,28.7l-2.8,0.8l0.3,2c-0.6,0.3-1.1,0.8-1.6,1.3L27,32l-1.4,2.5l1.6,1.2
					c-0.2,0.6-0.2,1.3-0.2,2l-1.9,0.8l0.8,2.8l2.1-0.3c0.3,0.6,0.7,1.1,1.2,1.5l-0.8,2l2.5,1.4l1.3-1.7c0.6,0.2,1.2,0.2,1.9,0.2
					l0.9,2l2.8-0.8l-0.3-2.2c0.5-0.3,1-0.7,1.5-1.1l2.1,0.8l1.4-2.5L40.7,39.3z M33.3,41c-1.9-0.4-3.2-2.2-2.9-4.1
					c0.4-1.9,2.2-3.2,4.1-2.9c1.9,0.4,3.2,2.2,2.9,4.1C37.1,40,35.3,41.3,33.3,41C33.3,41,33.3,41,33.3,41L33.3,41z"/>
				<path id="Trazado_104234" class="st3" d="M35,47.3c-0.3,0-0.6-0.2-0.7-0.4l-0.7-1.6c-0.4,0-0.7-0.1-1.1-0.1l-1,1.3
					c-0.2,0.3-0.6,0.4-1,0.2L28,45.3c-0.3-0.2-0.5-0.6-0.3-0.9l0.6-1.5c-0.3-0.3-0.5-0.6-0.7-0.9l-1.6,0.2c-0.4,0-0.7-0.2-0.8-0.5
					l-0.8-2.8c-0.1-0.4,0.1-0.7,0.4-0.9l1.4-0.6c0-0.4,0.1-0.8,0.1-1.2l-1.2-1c-0.3-0.2-0.4-0.6-0.2-1l1.4-2.5
					c0.2-0.3,0.6-0.5,0.9-0.3l1.4,0.5c0.3-0.3,0.6-0.5,1-0.8l-0.2-1.5c0-0.4,0.2-0.7,0.5-0.8l2.8-0.8c0.4-0.1,0.7,0.1,0.9,0.4
					l0.6,1.4c0.4,0,0.8,0.1,1.2,0.2l1-1.2c0.2-0.3,0.6-0.4,1-0.2l2.5,1.4c0.3,0.2,0.5,0.6,0.3,0.9l-0.6,1.5c0.3,0.3,0.5,0.6,0.7,0.9
					L42,33c0.4,0,0.7,0.2,0.8,0.5l0.8,2.8c0.1,0.4-0.1,0.7-0.4,0.9l-1.5,0.7c0,0.4-0.1,0.7-0.1,1.1l1.3,1c0.3,0.2,0.4,0.6,0.2,1
					l-1.4,2.5c-0.2,0.3-0.6,0.5-0.9,0.3l-1.6-0.6c-0.3,0.2-0.5,0.4-0.8,0.6l0.2,1.7c0,0.4-0.2,0.7-0.5,0.8l-2.8,0.8
					C35.1,47.2,35.1,47.3,35,47.3z M34.1,43.8c0.3,0,0.6,0.2,0.7,0.4l0.6,1.4l1.5-0.4l-0.2-1.5c0-0.3,0.1-0.6,0.4-0.7
					c0.5-0.3,0.9-0.6,1.3-1c0.2-0.2,0.5-0.3,0.8-0.2l1.5,0.6l0.8-1.4l-1.2-0.9c-0.2-0.2-0.3-0.5-0.3-0.8c0.1-0.5,0.2-1.1,0.2-1.7
					c0-0.3,0.2-0.6,0.4-0.7l1.4-0.6l-0.4-1.5l-1.5,0.2c-0.3,0-0.6-0.1-0.8-0.4c-0.3-0.5-0.6-1-1.1-1.4c-0.2-0.2-0.3-0.5-0.2-0.8
					l0.5-1.4l-1.4-0.8l-0.9,1.1c-0.2,0.2-0.5,0.3-0.8,0.3c-0.6-0.2-1.2-0.2-1.8-0.2c-0.3,0-0.6-0.2-0.7-0.4l-0.6-1.3L31,30l0.2,1.4
					c0,0.3-0.1,0.6-0.4,0.7c-0.5,0.3-1,0.7-1.4,1.1c-0.2,0.2-0.5,0.3-0.8,0.2l-1.3-0.5l-0.8,1.4l1.1,0.8c0.2,0.2,0.3,0.5,0.3,0.8
					c-0.2,0.6-0.2,1.2-0.2,1.8c0,0.3-0.2,0.6-0.4,0.7L26,39l0.4,1.5l1.4-0.2c0.3,0,0.6,0.1,0.7,0.4c0.3,0.5,0.7,0.9,1.1,1.3
					c0.2,0.2,0.3,0.5,0.2,0.8l-0.5,1.4l1.4,0.8l0.9-1.2c0.2-0.2,0.5-0.3,0.8-0.3C33,43.7,33.5,43.8,34.1,43.8L34.1,43.8z M34,41.8
					c-0.3,0-0.5,0-0.8-0.1l0,0c-2.3-0.4-3.9-2.7-3.5-5c0.4-2.3,2.7-3.9,5-3.5c2.3,0.4,3.9,2.7,3.5,5C37.8,40.3,36.1,41.8,34,41.8z
					 M34,34.7c-1.6,0-2.8,1.3-2.8,2.8c0,1.4,1,2.5,2.3,2.8l0,0c1.5,0.3,3-0.7,3.3-2.3s-0.7-3-2.3-3.3C34.3,34.7,34.1,34.7,34,34.7z"
					/>
			</g>
			<path id="Trazado_104235" class="st3" d="M4589.6,1595.3l0.8-13.4h-3.3c-3.6,0-6.6-2.9-6.6-6.6v-14.3c0-3.6,3-6.6,6.6-6.6h37.1
				c3.6,0,6.6,2.9,6.6,6.6v14.3c0,3.6-3,6.6-6.6,6.6H4600L4589.6,1595.3z M4587,1556.5c-2.5,0-4.6,2-4.6,4.6v14.3
				c0,2.5,2.1,4.6,4.6,4.6h5.4l-0.5,9.1l7.1-9.1h25.1c2.5,0,4.6-2,4.6-4.6v-14.3c0-2.5-2.1-4.6-4.6-4.6H4587z"/>
			<path id="Trazado_104236" class="st3" d="M4643.1,1595.9l-11.5-13.9h-24.3c-3.8,0-6.9-3.7-6.9-8.1v-17.8c0-4.5,3.1-8.1,6.9-8.1
				h37.5c3.8,0,6.9,3.7,6.9,8.1v17.8c0,4.5-3.1,8.1-6.9,8.1h-3.1L4643.1,1595.9z M4607.3,1550.4c-2.4,0-4.4,2.6-4.4,5.7v17.8
				c0,3.1,2,5.7,4.4,5.7h25.5l7.2,8.6l-0.8-8.6h5.8c2.4,0,4.4-2.6,4.4-5.7v-17.8c0-3.1-2-5.7-4.4-5.7H4607.3z"/>
		</g>
		<rect id="Rectángulo_24300" x="558.3" y="3115.9" class="st5" width="129" height="129"/>
	</g>
</g>
</svg>
