<svg xmlns="http://www.w3.org/2000/svg" width="384.815" height="360.872" viewBox="0 0 384.815 360.872">
  <g id="Grupo_84132" data-name="Grupo 84132" transform="translate(-1184.838 -112.285)">
    <path id="Trazado_125274" data-name="Trazado 125274" d="M1210.021,274.258s-47.214-39.971-7.145-86.749,87.494-4.988,143.372-22.6c20.983-6.615,107.951-75.91,168.8-44.489s20.523,109.785,19.7,128.487c-1.668,37.818,47.581,79.958,34.655,115.079S1319.942,408.554,1210.021,274.258Z" transform="translate(-1.91 0)" fill="#e4e6f2"/>
    <path id="Trazado_125275" data-name="Trazado 125275" d="M1791.39,509.316h0c-2.823-4.291.038-9.66,4.535-8.508h0c5.09,1.3,9.678-2.152,10.249-7.719l.294-2.865c.57-5.566-3.093-11.135-8.182-12.439h0c-4.5-1.152-6.138-7.674-2.6-10.336h0c4-3.015,4.656-9.4,1.461-14.253l-1.644-2.5c-3.2-4.858-9.031-6.353-13.033-3.338h0c-3.536,2.663-8.719-1.192-8.215-6.109h0c.571-5.567-3.093-11.136-8.182-12.44l-2.619-.671c-5.089-1.3-9.678,2.152-10.249,7.719h0c-.5,4.917-6.193,5.987-9.015,1.7h0c-3.2-4.857-9.031-6.352-13.033-3.338l-2.06,1.552c-4,3.014-4.657,9.4-1.461,14.253,2.823,4.291-.038,9.66-4.535,8.508h0c-5.09-1.3-9.679,2.152-10.249,7.719l-.294,2.865c-.57,5.566,3.093,11.136,8.183,12.439h0c4.5,1.151,6.138,7.674,2.6,10.336h0c-4,3.014-4.657,9.4-1.461,14.254l1.645,2.5c3.2,4.857,9.03,6.352,13.032,3.338,3.536-2.663,8.719,1.192,8.215,6.109-.57,5.566,3.092,11.135,8.182,12.438l2.62.671c5.09,1.3,9.679-2.152,10.249-7.719h0c.5-4.917,6.193-5.987,9.015-1.7h0c3.2,4.858,9.031,6.352,13.033,3.338l2.06-1.551C1793.931,520.556,1794.585,514.174,1791.39,509.316Zm-49.866-16.1c-7.93-12.056-6.307-27.893,3.626-35.374s24.415-3.772,32.345,8.284,6.307,27.893-3.626,35.374S1749.454,505.269,1741.524,493.213Z" transform="translate(-272.898 -162.661)" fill="#beccf0"/>
    <path id="Trazado_125276" data-name="Trazado 125276" d="M1559.811,684.9,1374.276,643.7c-7.593-1.686-9.656-6.113-4.608-9.888l32.281-24.143c5.048-3.776,15.3-5.469,22.889-3.784l185.535,41.194c7.593,1.686,9.656,6.113,4.608,9.889L1582.7,681.113C1577.651,684.888,1567.4,686.582,1559.811,684.9Z" transform="translate(-94.77 -254.084)" fill="#e4e6f2"/>
    <g id="Grupo_84107" data-name="Grupo 84107" transform="translate(1232.066 149.418)">
      <g id="Grupo_84106" data-name="Grupo 84106" transform="translate(0 0)">
        <rect id="Rectángulo_33974" data-name="Rectángulo 33974" width="147.695" height="15.767" transform="matrix(0.758, -0.652, 0.652, 0.758, 0, 110.646)" fill="#9bb3f0"/>
        <rect id="Rectángulo_33975" data-name="Rectángulo 33975" width="75.799" height="15.768" transform="translate(126.967 54.277) rotate(-40.704)" fill="#9bb3f0"/>
        <rect id="Rectángulo_33976" data-name="Rectángulo 33976" width="15.768" height="54.056" transform="translate(101.127 26.073) rotate(-41.377)" fill="#9bb3f0"/>
        <path id="Trazado_125289" data-name="Trazado 125289" d="M1629.264,192.463l33.6-3.545L1655.4,220.15Z" transform="translate(-1462.065 -188.918)" fill="#9bb3f0"/>
      </g>
    </g>
    <path id="Trazado_125290" data-name="Trazado 125290" d="M1576.771,317.931l-211.5-48.143h0l-.018,0-.418-.1h0c-.318-.072-.7-.158-.74-.167-.1-.019-.192-.037-.287-.053s-.194-.031-.291-.043-.193-.024-.289-.033-.2-.017-.3-.023-.2-.01-.3-.012-.211,0-.315,0h-.049c-.091,0-.181.006-.27.012-.045,0-.09.008-.136.012l-.111.01-.086.008c-.109.013-.217.028-.324.046l-.027,0h0c-.127.021-.253.046-.375.075l-.042.011c-.057.014-.112.03-.168.045s-.134.033-.2.052l-.055.019c-.09.028-.178.061-.265.093-.048.017-.1.031-.144.05l-.03.014a5.534,5.534,0,0,0-.5.233l-.035.016c-.018.009-.033.022-.051.033a4.986,4.986,0,0,0-.6.379l-7.213,5.4a5.075,5.075,0,0,1,.586-.373c.079-.044.161-.083.242-.123.1-.048.2-.1.3-.138.12-.05.243-.1.369-.139.048-.016.094-.034.141-.049q.263-.081.538-.141l.1-.02c.187-.037.377-.069.572-.09l.043,0c.205-.021.415-.034.628-.038h.051c.209,0,.422,0,.637.021l.064,0c.228.019.458.046.692.085.1.016.191.034.286.053l.223.048,1.554.356h0l217.492,49.756C1576.471,325.154,1577.462,318.09,1576.771,317.931Zm-214.043-47.173Z" transform="translate(-86.897 -80.96)" fill="#89a1de"/>
    <path id="Trazado_125291" data-name="Trazado 125291" d="M1809.6,375.009l0-.022q-.016-.119-.037-.238t-.048-.237c0-.011-.006-.022-.008-.033l-.008-.032c-.013-.055-.026-.11-.04-.165-.021-.076-.042-.153-.066-.229-.011-.036-.024-.072-.035-.108l-.015-.047-.024-.073c-.027-.076-.055-.151-.084-.226s-.057-.142-.088-.212l0-.008,0-.006c-.032-.075-.067-.149-.1-.223s-.072-.146-.109-.219l-.031-.058-.023-.042c-.021-.039-.041-.078-.063-.116q-.058-.1-.12-.2c-.031-.051-.064-.1-.1-.153l-.014-.022-.014-.023c-.042-.063-.084-.127-.128-.19s-.085-.121-.129-.181l-.057-.076-.025-.032-.053-.07q-.072-.092-.147-.183t-.153-.18l-.015-.017-.024-.027c-.055-.063-.112-.125-.169-.187s-.112-.112-.168-.169c-.036-.037-.073-.076-.111-.112-.018-.017-.035-.036-.052-.053-.094-.09-.193-.176-.292-.262-.032-.028-.062-.058-.095-.085l-.015-.014c-.127-.108-.258-.212-.392-.314l-.058-.043-.053-.038-.14-.1c-.079-.056-.159-.11-.24-.164l-.094-.06-.048-.031-.089-.057c-.079-.049-.158-.1-.239-.144-.061-.035-.123-.069-.186-.1l-.033-.018-.03-.017c-.086-.047-.174-.092-.261-.136s-.183-.089-.275-.132l-.006,0-.006,0c-.089-.041-.178-.08-.269-.118s-.191-.078-.287-.115l-.035-.013-.041-.015c-.069-.026-.139-.052-.21-.076-.1-.033-.191-.064-.288-.094l-.081-.023-.026-.009h-.008c-.057-.017-.114-.034-.171-.049q-.143-.039-.288-.073l-1.557-.354-7.5,5.331s2.039.47,2.135.5.192.054.286.083.193.061.288.094.192.067.286.1l.119.047c.152.06.3.123.449.191h0c.149.068.3.142.44.218l.055.029c.138.073.273.15.406.23l.061.037q.194.118.381.245l.067.046c.123.085.244.173.363.263.061.047.119.1.178.143s.146.116.216.176.159.142.237.214c.051.047.1.093.154.14s.084.086.127.128c.075.076.151.151.223.228l.057.063c.1.108.193.216.285.328l.022.028q.143.177.275.358l.027.037q.127.177.243.36l.029.047c.075.12.146.241.214.363l.03.056c.066.123.128.246.186.37l.026.058c.057.125.109.251.158.378l.021.056q.071.193.13.388c.006.017.01.034.015.052.038.131.072.264.1.4.014.066.028.133.04.2s.027.159.037.238.021.167.028.251.013.168.017.252,0,.183,0,.275c0,.072,0,.143-.007.214l-.021.387-9.56,163.524,5.427-5.358a6.6,6.6,0,0,0,2.1-4.177l9.171-158.047c.038-.691.1-1.728.1-1.728q.005-.107.007-.214c0-.061,0-.121,0-.181,0,0,0-.007,0-.011s0-.016,0-.024,0-.04,0-.06c0-.084-.009-.168-.016-.252-.006-.066-.014-.133-.022-.2C1809.6,375.028,1809.6,375.019,1809.6,375.009Z" transform="translate(-314.311 -131.892)" fill="#7b90c7"/>
    <circle id="Elipse_4843" data-name="Elipse 4843" cx="4.965" cy="4.965" r="4.965" transform="translate(1515.246 397.92)" fill="none" stroke="#272b47" stroke-linecap="round" stroke-linejoin="round" stroke-width="2"/>
    <circle id="Elipse_4844" data-name="Elipse 4844" cx="4.965" cy="4.965" r="4.965" transform="translate(1217.523 192.963)" fill="none" stroke="#272b47" stroke-linecap="round" stroke-linejoin="round" stroke-width="2"/>
    <path id="Trazado_125292" data-name="Trazado 125292" d="M1753.953,278.5l-4.409-12.21,14.507,2.262Z" transform="translate(-291.996 -79.378)" fill="none" stroke="#272b47" stroke-linecap="round" stroke-linejoin="round" stroke-width="2"/>
    <g id="Grupo_84111" data-name="Grupo 84111" transform="translate(1303.746 365.607)">
      <g id="Grupo_84110" data-name="Grupo 84110" transform="translate(0)">
        <path id="Trazado_125293" data-name="Trazado 125293" d="M1626.97,664.5s-1.142.885-1.22,1c-.036.055-.406.571-.579.775-.129.152-.564.612-.644.691-.234.23-50.694,42.173-50.694,42.173l1.225,7.807,49.729-41.6a1.87,1.87,0,0,0,.965-.57c.08-.079.145-.157.22-.236.146-.152.3-.3.424-.455l0,0c.171-.2.322-.405.464-.607.038-.055.074-.11.111-.164s.087-.125.126-.187.055-.11.087-.166q.137-.237.247-.471c.025-.054.062-.109.085-.162s.027-.084.043-.127c.054-.137.1-.273.138-.408.019-.065.05-.131.066-.2.009-.032.009-.064.016-.1.029-.128.045-.254.061-.38.009-.071.03-.143.034-.214,0-.025,0-.048,0-.073a3.468,3.468,0,0,0-.011-.391c0-.07,0-.142-.006-.21,0-.033-.009-.067-.014-.1Z" transform="translate(-1505.174 -650.238)" fill="#7b90c7"/>
        <path id="Trazado_125294" data-name="Trazado 125294" d="M1500.613,748.358c-.336.27-.692.531-1.062.783-.114.077-.229.154-.345.229-.411.266-.836.522-1.282.764l-.072.042q-.56.3-1.149.575c-.057.027-.116.049-.174.076-.338.154-.68.3-1.03.445-.043.017-.089.033-.132.05-.451.178-.91.343-1.375.5-.171.057-.343.111-.515.165-.271.084-.543.165-.817.241-.193.054-.386.106-.581.156-.237.06-.475.116-.714.171-.206.046-.411.092-.617.134-.222.045-.444.085-.665.125s-.423.074-.635.106-.44.063-.66.09-.417.051-.625.072c-.237.024-.471.042-.707.059-.2.014-.391.028-.585.037-.287.013-.569.017-.851.019-.158,0-.317.006-.473,0-.506-.008-1-.034-1.487-.08-.241-.023-.477-.055-.712-.087-.12-.017-.244-.029-.363-.048-.359-.059-.71-.128-1.05-.21l-45.491-11.091c-2.812-.686-4,.291-4.265-1.406l.845,5.435c.267,1.7,1.834,3.093,4.645,3.778l45.491,11.091c.34.083.691.152,1.05.21.119.019.243.032.363.049.205.029.408.061.618.082.03,0,.063,0,.093,0q.727.069,1.487.08c.033,0,.064.005.1.005.123,0,.251-.007.376-.008.282,0,.564-.006.85-.019.064,0,.127,0,.192,0,.13-.007.262-.023.394-.033.234-.016.468-.034.7-.058.08-.008.158-.011.238-.02.129-.014.259-.037.389-.053.219-.028.437-.056.657-.09.085-.013.17-.021.256-.035.128-.021.255-.049.383-.072.22-.039.441-.079.661-.124.088-.018.177-.031.264-.049.119-.025.237-.058.355-.085.238-.054.475-.11.712-.17.095-.025.191-.044.286-.069s.2-.06.3-.087q.41-.113.815-.24c.109-.034.22-.062.328-.1.064-.021.125-.047.189-.068.465-.155.924-.319,1.374-.5.036-.014.074-.025.11-.039l.023-.01c.35-.141.692-.291,1.03-.446.057-.026.117-.049.174-.075q.589-.275,1.149-.576l.015-.008c.019-.01.036-.022.055-.032.446-.242.872-.5,1.284-.766.117-.075.23-.152.344-.229.371-.252.727-.512,1.063-.783.04-.032.088-.061.128-.094l.08-.066-1.225-7.807C1500.754,748.252,1500.68,748.3,1500.613,748.358Z" transform="translate(-1432.162 -689.295)" fill="#89a1de"/>
        <g id="Grupo_84109" data-name="Grupo 84109">
          <g id="Grupo_84108" data-name="Grupo 84108">
            <path id="Trazado_125295" data-name="Trazado 125295" d="M1549.144,645.763c5.464,1.332,6.257,5.373,1.787,9.112l-49.729,41.6c-4.655,3.893-13.194,5.96-18.883,4.573l-45.491-11.091c-5.689-1.387-6.284-5.681-1.314-9.5l53.134-40.772c4.776-3.665,12.934-5.523,18.4-4.191Z" transform="translate(-1432.141 -635.069)" fill="#bfcef5"/>
          </g>
        </g>
      </g>
      <path id="Trazado_125296" data-name="Trazado 125296" d="M1476.4,686.97l65.683,15.11,13.9-11.668-63.26-15.639Z" transform="translate(-1454.952 -655.534)" fill="#8fa8e8"/>
      <path id="Trazado_125297" data-name="Trazado 125297" d="M1611.947,716.1l.812,5.059,17.48-14.334-.779-4.854Z" transform="translate(-1524.819 -669.552)" fill="#45446c" opacity="0.29" style="mix-blend-mode: multiply;isolation: isolate"/>
    </g>
    <g id="Grupo_84113" data-name="Grupo 84113" transform="translate(1256.321 208.692)">
      <g id="Grupo_84112" data-name="Grupo 84112" transform="translate(0)">
        <path id="Trazado_125298" data-name="Trazado 125298" d="M1560.251,509.709c-.25,5.045-6.827,9.541-12.169,8.319l-207.177-47.4c-3.842-.879-6.809-4.223-6.627-7.473l8.185-147.411c.181-3.25,3.438-5.17,7.28-4.292L1567.6,361.294Z" transform="translate(-1334.27 -311.242)" fill="#ced9f5"/>
      </g>
    </g>
    <g id="Grupo_84115" data-name="Grupo 84115" transform="translate(1256.938 191.591)">
      <g id="Grupo_84114" data-name="Grupo 84114" transform="translate(0)">
        <path id="Trazado_125299" data-name="Trazado 125299" d="M1562.141,468.632c-.426,7.662-10.128,14.339-18.179,12.511l-201.784-45.8c-3.842-.879-6.809-4.223-6.627-7.473l8.185-147.411c.181-3.25,3.438-5.171,7.28-4.292l209.753,47.986a11.3,11.3,0,0,1,8.762,11.643Z" transform="translate(-1335.543 -275.95)" fill="#36518a"/>
      </g>
    </g>
    <g id="Grupo_84117" data-name="Grupo 84117" transform="translate(1264.196 206.319)">
      <g id="Grupo_84116" data-name="Grupo 84116">
        <path id="Trazado_125300" data-name="Trazado 125300" d="M1561.333,477.838c-.31,5.018-6.479,9.345-11.672,8.187L1356.834,443c-3.648-.818-6.471-3.737-6.306-6.523l7.44-126.361c.165-2.786,3.251-4.38,6.9-3.562l195.7,43.369a10.354,10.354,0,0,1,8.006,10.768Z" transform="translate(-1350.521 -306.345)" fill="#8497d9"/>
      </g>
    </g>
    <path id="Trazado_125301" data-name="Trazado 125301" d="M1578.883,337.583a1.7,1.7,0,0,1-2.041,1.711,2.491,2.491,0,0,1-1.81-2.544,1.7,1.7,0,0,1,2.041-1.711A2.49,2.49,0,0,1,1578.883,337.583Z" transform="translate(-202.044 -114.795)" fill="#fff"/>
    <g id="Grupo_84120" data-name="Grupo 84120" transform="translate(1411.003 363.987)">
      <path id="Trazado_125302" data-name="Trazado 125302" d="M1718.4,832.375c-4.731-3.036-13.137-3.805-18.776-1.717a11.258,11.258,0,0,0-2.452,1.234,17.287,17.287,0,0,0-11.447-.326c-3.962,1.467-4.478,4.385-1.154,6.518,3.195,2.05,8.769,2.624,12.715,1.364.218.164.447.327.7.486,4.731,3.036,13.136,3.8,18.775,1.717S1723.132,835.411,1718.4,832.375Z" transform="translate(-1668.381 -733.657)" fill="#e4e6f2"/>
      <path id="Trazado_125303" data-name="Trazado 125303" d="M1685.9,831.719l4.327-4.514a4.9,4.9,0,0,1,2.761-.137.774.774,0,0,1,.635.821l.059.8c.058,1.336.2,1.782-.653,2.171l-5.052,2.31C1686.924,833.9,1684.1,833.347,1685.9,831.719Z" transform="translate(-1669.892 -732.345)" fill="#313363"/>
      <path id="Trazado_125304" data-name="Trazado 125304" d="M1693.375,828.5s-2.478,2.7-2.191,2.912c1.192.9,4.236-1.425,4.236-1.425S1693.919,828.383,1693.375,828.5Z" transform="translate(-1672.906 -733.146)" fill="#de5840"/>
      <path id="Trazado_125305" data-name="Trazado 125305" d="M1698.043,776.531c-.918,1.5-3.179.359-3.208-1.277.612-9.113-.876-16.4-.31-24.916.636-9.566,1.348-9.685,2.344-24.346l8.8,1.985c-2.32,10.44-3.868,23.716-3.868,23.716C1703.5,762.067,1700.562,764.075,1698.043,776.531Z" transform="translate(-1674.572 -680.314)" fill="#de5840"/>
      <path id="Trazado_125306" data-name="Trazado 125306" d="M1741.767,836.9l.313-5.417a4.254,4.254,0,0,1,1.745-1.645.671.671,0,0,1,.881.184l.489.494c.79.849,1.134,1.065.791,1.8l-2.033,4.371C1743.67,837.765,1741.5,838.993,1741.767,836.9Z" transform="translate(-1698.978 -733.795)" fill="#313363"/>
      <path id="Trazado_125307" data-name="Trazado 125307" d="M1743.169,833.705s-.118,3.175.194,3.156c1.293-.078,2.018-2.991,2.018-2.991S1743.464,833.324,1743.169,833.705Z" transform="translate(-1699.701 -735.764)" fill="#de5840"/>
      <path id="Trazado_125308" data-name="Trazado 125308" d="M1733.42,782.214c-.488,1.686-1.9,1.166-2.358-.4-1.83-8.948-5.2-15.575-6.915-23.939-1.927-9.391-1.272-9.7-4.205-24.094l9.013-.424c.536,10.682,2.569,23.892,2.569,23.892C1735.916,766.8,1732.541,769.536,1733.42,782.214Z" transform="translate(-1687.741 -684.108)" fill="#de5840"/>
      <path id="Trazado_125309" data-name="Trazado 125309" d="M1717.956,709.018a14.621,14.621,0,0,1,.776,8.047c-.966,3.9-.043,26.266-.043,26.266s3.482,8.478.746,22c0,0-1.51,3.162-4.065,2.276,0,0-5.065-16.725-5.458-18.176s-4.369-26.174-4.369-26.174l-1.243.157-2.725,18.867a43.838,43.838,0,0,1-3.894,22.166s-3.39.993-4.753.033c0,0-.73-19.232-.662-20.284s3.21-34.182,3.21-34.182Z" transform="translate(-1673.474 -671.565)" fill="#36518a"/>
      <path id="Trazado_125310" data-name="Trazado 125310" d="M1654.017,636.443h0a1.328,1.328,0,0,0-.264,1.838l2.068,1.315c.441.464.177.1.763-.452h0c.585-.548,1.078-.175.434-1.247l-1.275-1.282a2.122,2.122,0,0,0-.567-.416A.887.887,0,0,0,1654.017,636.443Z" transform="translate(-1653.488 -633.969)" fill="#de5840"/>
      <path id="Trazado_125311" data-name="Trazado 125311" d="M1714.7,638.148s1.185,4.958,7.826,5.7c4,.447,5.274,4.007,6.643,8.4,2.19,7.025,9.206,4.2,9.489,14.415.173,6.26-5.473,11.192-15.206,5.358s-25.373,1.821-26.161-19.424c-.137-3.672,6.292-3.517,6.2-6.9-.1-3.706,2.95-8.873,2.95-8.873Z" transform="translate(-1676.063 -634.353)" fill="#24386b" fill-rule="evenodd"/>
      <path id="Trazado_125312" data-name="Trazado 125312" d="M1682.6,657.151a2.881,2.881,0,0,0,3.211-3.574l-3.392-6.931c-2.479-.739-8.527,1.813-13.422,2.7a4.082,4.082,0,0,1-2.971-1.655l-6.653-7.413-1.916,1.268,4.451,10.012c1.508,3.888,7.285,4.446,8.242,4.625C1670.152,656.187,1677.893,657.07,1682.6,657.151Z" transform="translate(-1655.535 -636.136)" fill="#fff"/>
      <path id="Trazado_125313" data-name="Trazado 125313" d="M1706.866,659.783s.3-7.908,4.622-7.646c.6.036,1.632-.491,2.327-.434,3.608.294,3.1.3,5.685,1.394.976.413,1.507,3.29,1.313,4.354l1.5,3.26Z" transform="translate(-1681.001 -642.02)" fill="#de5840"/>
      <path id="Trazado_125314" data-name="Trazado 125314" d="M1705.349,651.948c.712-.075,1.648-.224,1.539.185-.478,1.792-.373,3.032.23,3.587,3.637,3.346,5.7-1.026,6.152-2.59.078-.266.448-.643.708-.47l1.406.617c9.722.842,6.91,5.21,4.89,9.276,0,0-3.735,6.6-3.907,9.575-.148,2.576,2.051,6.625,2.467,7.463.539,1.086-3.105,7.688-13.013,6.272-7.8-1.115-8.219-4.227-7.934-8.487.179-2.681,2.007-10.126,2.027-12.253s-1.584-3.548-.353-6.932,2.026-5.684,2.026-5.684Z" transform="translate(-1676.342 -642.103)" fill="#fff"/>
      <path id="Trazado_125315" data-name="Trazado 125315" d="M1721.847,648.008l-.18.016a1.031,1.031,0,0,1-1.141-.989l-.107-3.364a1.177,1.177,0,0,1,1.072-1.181l.18-.016c.609-.053,1.5.236,1.519.832l.263,3.575C1723.472,647.477,1722.456,647.955,1721.847,648.008Z" transform="translate(-1687.986 -637.262)" fill="#de5840"/>
      <path id="Trazado_125316" data-name="Trazado 125316" d="M1720.484,647.646a3.22,3.22,0,0,0,2.553-1.175s-1.174,2.025-2.512,2.115Z" transform="translate(-1688.02 -639.326)" fill="#de5840"/>
      <path id="Trazado_125317" data-name="Trazado 125317" d="M1715.4,636.174s-1.125,3.441.8,4.474,3.4-6.1,3.4-6.1Z" transform="translate(-1685.232 -633.178)" fill="#313363"/>
      <path id="Trazado_125318" data-name="Trazado 125318" d="M1722.513,634.439a1.371,1.371,0,0,0-1.976-.871c-.678-.429-1.616-.123-2.425.918-1.126,1.45-1.729,3.944-1.154,5.352a1.535,1.535,0,0,0,1.262.918,3.727,3.727,0,0,0,1.429-.022c1.7-.343,1.7-.1,2.447-1.065A5.735,5.735,0,0,0,1722.513,634.439Z" transform="translate(-1686.089 -632.579)" fill="#de5840"/>
      <path id="Trazado_125319" data-name="Trazado 125319" d="M1726.361,635.547c.386,1.642.009,5.241.033,5.728,0,0,3.282.314,3.313-3.432.039-4.663-2.869-2.67-2.869-2.67Z" transform="translate(-1691.049 -633.285)" fill="#24386b"/>
      <path id="Trazado_125320" data-name="Trazado 125320" d="M1721.935,634.759c-1.689-.961-3.09-1.728-6.145.242-.158-.418.547-1.664,1.178-2.016a7.35,7.35,0,0,1,3.335-1.259l.322,0c1.944.031,2.866.895,3.042,2.791.015.167.249.948.243,1.086l-.588-.283C1723.27,636.427,1723.054,634.747,1721.935,634.759Z" transform="translate(-1685.589 -631.726)" fill="#24386b"/>
      <g id="Grupo_84119" data-name="Grupo 84119" transform="translate(31.423 5.757)">
        <g id="Grupo_84118" data-name="Grupo 84118">
          <path id="Trazado_125321" data-name="Trazado 125321" d="M1718.907,644.916h0a1.383,1.383,0,0,1-.567-1.309l1.269.555C1719.572,644.732,1719.257,645.07,1718.907,644.916Z" transform="translate(-1718.336 -643.607)" fill="#fff"/>
        </g>
      </g>
      <path id="Trazado_125322" data-name="Trazado 125322" d="M1754.953,722.844h0a1.3,1.3,0,0,0,1.434-1.115l-.563-2.333c0-.626-.059-.188-.843-.2h0c-.783-.012-.877-.609-1.151.583l.028,1.77a2.057,2.057,0,0,0,.117.678C1754.121,722.632,1754.337,722.835,1754.953,722.844Z" transform="translate(-1705.207 -676.729)" fill="#de5840"/>
      <path id="Trazado_125323" data-name="Trazado 125323" d="M1744.7,658.745c-2.561-3.309-5.367-3.614-5.367-3.614l.61,12.737,7.609,5.64c.8,1.044,1.324,1.721,1.071,2.913L1746.5,686.4l2.365.658,5.257-9.327c2.192-3.459-1.3-8.078-1.81-8.9C1752.314,668.833,1747.576,662.467,1744.7,658.745Z" transform="translate(-1697.734 -643.79)" fill="#fff"/>
      <path id="Trazado_125324" data-name="Trazado 125324" d="M1744.7,658.745c-2.561-3.309-5.367-3.614-5.367-3.614l2.423,4.695,9.178,10.318c.8,1.044,3.074,5.73,2.821,6.922l.373.662c2.192-3.459-1.3-8.078-1.81-8.9C1752.314,668.833,1747.576,662.467,1744.7,658.745Z" transform="translate(-1697.734 -643.79)" fill="#e4e6f2"/>
      <path id="Trazado_125325" data-name="Trazado 125325" d="M1727.3,643.728a.941.941,0,1,1-.878-1A.941.941,0,0,1,1727.3,643.728Z" transform="translate(-1690.564 -637.396)" fill="#de5840"/>
      <path id="Trazado_125326" data-name="Trazado 125326" d="M1733.233,690.254c-.416-.838-2.529-5.291-2.381-7.867.1-1.687-.2-7.392.523-9.709-1.37,2.552-2.4,5.158-3.531,7.1a11.875,11.875,0,0,0-1.329,8.014,7.746,7.746,0,0,1-5.462,9.079C1728.552,696.634,1733.709,691.214,1733.233,690.254Z" transform="translate(-1688.314 -652.834)" fill="#e4e6f2"/>
      <path id="Trazado_125327" data-name="Trazado 125327" d="M1705.529,757.339l2.74-19.1-2.351.515-2.212,19.432s-1.625,16.794-3.774,21.676l1.7-.353S1707.076,770.493,1705.529,757.339Z" transform="translate(-1677.427 -686.625)" fill="#213361"/>
    </g>
    <path id="Trazado_125328" data-name="Trazado 125328" d="M1452.088,463.562l-65.2-14.643c-2.632-.591-4.571-4.328-4.31-8.3l4.4-67.042c.261-3.976,2.628-6.746,5.26-6.155l65.2,14.643c2.632.591,4.572,4.328,4.311,8.3l-4.4,67.042C1457.087,461.383,1454.72,464.153,1452.088,463.562Z" transform="translate(-102.836 -131.464)" fill="#fff"/>
    <path id="Trazado_125329" data-name="Trazado 125329" d="M1651.373,507.731,1565.6,488.538c-3.463-.775-6.08-4.722-5.818-8.772l4.429-68.285c.263-4.05,3.311-6.73,6.773-5.955l85.773,19.193c3.463.775,6.08,4.723,5.818,8.773l-4.429,68.284C1657.883,505.825,1654.835,508.506,1651.373,507.731Z" transform="translate(-194.176 -151.078)" fill="#fff"/>
    <g id="Grupo_84121" data-name="Grupo 84121" transform="translate(1285.341 247.686)">
      <ellipse id="Elipse_4845" data-name="Elipse 4845" cx="25.157" cy="29.069" rx="25.157" ry="29.069" transform="translate(0 18.658) rotate(-21.766)" fill="#92a5e8"/>
      <path id="Trazado_125330" data-name="Trazado 125330" d="M1412.544,444.656a29.562,29.562,0,0,0-.923,5.3,32.66,32.66,0,0,0,3.183,16.783l22.445-11.417Z" transform="translate(-1403.106 -419.002)" fill="#f25c4b"/>
      <path id="Trazado_125331" data-name="Trazado 125331" d="M1412.841,470.219a33.391,33.391,0,0,0,7.02,14.7l18.071-18.24Z" transform="translate(-1403.788 -430.354)" fill="#7378bf"/>
      <path id="Trazado_125332" data-name="Trazado 125332" d="M1412.345,430.13l25.33,7.749L1427.1,410.8C1419.55,413.741,1413.855,420.814,1412.345,430.13Z" transform="translate(-1403.533 -401.554)" fill="#fcefe3"/>
      <path id="Trazado_125333" data-name="Trazado 125333" d="M1426.895,410.762c-7.551,2.936-13.245,10.009-14.755,19.325" transform="translate(-1403.427 -401.532)" fill="none" stroke="#2d4973" stroke-linecap="round" stroke-linejoin="round" stroke-width="2.118"/>
      <path id="Trazado_125334" data-name="Trazado 125334" d="M1436.31,493.767l5.681-27.088-16.887,9.9-4.385,3.74A30.1,30.1,0,0,0,1436.31,493.767Z" transform="translate(-1407.849 -430.354)" fill="#667bc4"/>
    </g>
    <g id="Grupo_84122" data-name="Grupo 84122" transform="translate(1375.859 289.405)">
      <line id="Línea_240" data-name="Línea 240" x2="5.665" y2="1.239" transform="translate(5.5 37.035)" fill="none" stroke="#2d4973" stroke-linecap="round" stroke-linejoin="round" stroke-width="2.231"/>
      <line id="Línea_241" data-name="Línea 241" x2="5.665" y2="1.239" transform="translate(21.104 40.448)" fill="none" stroke="#2d4973" stroke-linecap="round" stroke-linejoin="round" stroke-width="2.231"/>
      <line id="Línea_242" data-name="Línea 242" x2="5.665" y2="1.239" transform="translate(36.708 43.861)" fill="none" stroke="#2d4973" stroke-linecap="round" stroke-linejoin="round" stroke-width="2.231"/>
      <line id="Línea_243" data-name="Línea 243" x2="5.665" y2="1.239" transform="translate(52.312 47.275)" fill="none" stroke="#2d4973" stroke-linecap="round" stroke-linejoin="round" stroke-width="2.231"/>
      <line id="Línea_244" data-name="Línea 244" x2="5.665" y2="1.239" transform="translate(67.915 50.688)" fill="none" stroke="#2d4973" stroke-linecap="round" stroke-linejoin="round" stroke-width="2.231"/>
      <path id="Trazado_125335" data-name="Trazado 125335" d="M1594.163,509.872l-3.134-.685,2.052-31.377,3.134.685Z" transform="translate(-1586.15 -477.81)" fill="#92a5e8"/>
      <path id="Trazado_125336" data-name="Trazado 125336" d="M1605.853,523.021l-3.133-.685,1.4-21.42,3.133.685Z" transform="translate(-1592.176 -489.72)" fill="#dbcbbc"/>
      <path id="Trazado_125337" data-name="Trazado 125337" d="M1623.066,544.055l-3.134-.685.339-5.186,3.134.686Z" transform="translate(-1601.048 -508.929)" fill="#92a5e8"/>
      <path id="Trazado_125338" data-name="Trazado 125338" d="M1634.7,527.008l-3.134-.685,1.6-24.465,3.134.685Z" transform="translate(-1607.043 -490.205)" fill="#92a5e8"/>
      <path id="Trazado_125339" data-name="Trazado 125339" d="M1657.349,523.694l-3.133-.685,2.052-31.377,3.133.685Z" transform="translate(-1618.718 -484.934)" fill="#92a5e8"/>
      <path id="Trazado_125340" data-name="Trazado 125340" d="M1669.039,536.015l-3.133-.685,1.451-22.2,3.134.685Z" transform="translate(-1624.744 -496.016)" fill="#92a5e8"/>
      <path id="Trazado_125341" data-name="Trazado 125341" d="M1689.041,552.97l-3.134-.685.678-10.371,3.134.685Z" transform="translate(-1635.054 -510.851)" fill="#dbcbbc"/>
      <path id="Trazado_125342" data-name="Trazado 125342" d="M1700.732,527.253l-3.133-.685,2.416-36.952,3.133.685Z" transform="translate(-1641.08 -483.895)" fill="#92a5e8"/>
      <path id="Trazado_125343" data-name="Trazado 125343" d="M1721.211,560.007l-3.133-.686.678-10.371,3.134.685Z" transform="translate(-1651.636 -514.478)" fill="#dbcbbc"/>
      <path id="Trazado_125344" data-name="Trazado 125344" d="M1732.9,538.895l-3.134-.685,2.133-32.624,3.134.685Z" transform="translate(-1657.661 -492.127)" fill="#92a5e8"/>
      <line id="Línea_245" data-name="Línea 245" x2="80.639" y2="17.639" transform="translate(0 30.641)" fill="none" stroke="#2d4973" stroke-linecap="round" stroke-linejoin="round" stroke-width="2.231"/>
    </g>
    <path id="Trazado_125352" data-name="Trazado 125352" d="M1379.447,500.15l-38.543-9.292s-1.369,30.578-1.621,35.734l6.236,20.117,37.347,8.2s1.524-29.383,2.289-44.753C1385.411,504.892,1383.236,501.078,1379.447,500.15Z" transform="translate(-80.532 -195.13)" fill="#272a47" opacity="0.29" style="mix-blend-mode: multiply;isolation: isolate"/>
    <g id="Grupo_84131" data-name="Grupo 84131" transform="translate(1199.809 293.316)">
      <g id="Grupo_84130" data-name="Grupo 84130" transform="translate(0)">
        <path id="Trazado_125353" data-name="Trazado 125353" d="M1304.219,504.393,1235.6,487.969l-7.761-1.929a5.567,5.567,0,0,0-6.811,5.074l-3.369,42.321a8.126,8.126,0,0,0,5.776,8.177l77.6,18.576c3.387.811,6.331-1.541,6.542-5.228L1310,512.57A8.126,8.126,0,0,0,1304.219,504.393Z" transform="translate(-1217.644 -485.881)" fill="#95a9f0"/>
      </g>
      <path id="Trazado_125354" data-name="Trazado 125354" d="M1254.206,561.387l-19.412-4.7,1.856-28.033,19.412,4.7Z" transform="translate(-1226.484 -507.93)" fill="#c4d2ff"/>
      <path id="Trazado_125355" data-name="Trazado 125355" d="M1309.389,566.857l-19.412-4.7,2.347-35.441,19.412,4.7Z" transform="translate(-1254.927 -506.931)" fill="#c4d2ff"/>
      <path id="Trazado_125356" data-name="Trazado 125356" d="M1364.236,574.939l-19.412-4.7,2.669-40.316,19.412,4.7Z" transform="translate(-1283.197 -508.584)" fill="#c4d2ff"/>
      <path id="Trazado_125357" data-name="Trazado 125357" d="M1371.265,553.223l5.039.756-2.185,4.539" transform="translate(-1296.826 -520.592)" fill="none" stroke="#fff" stroke-linecap="round" stroke-linejoin="round" stroke-width="4.191"/>
      <path id="Trazado_125358" data-name="Trazado 125358" d="M1240.005,562.913l24.6-14.35,13.86,21.7,29.472-18.4" transform="translate(-1229.17 -518.189)" fill="none" stroke="#fff" stroke-linecap="round" stroke-linejoin="round" stroke-width="4.191"/>
    </g>
  </g>
</svg>
