<svg xmlns="http://www.w3.org/2000/svg" xmlns:xlink="http://www.w3.org/1999/xlink" width="890" height="303" viewBox="0 0 890 303">
  <defs>
    <linearGradient id="linear-gradient" x1="0.035" y1="0.56" x2="1.045" y2="0.565" gradientUnits="objectBoundingBox">
      <stop offset="0" stop-color="#5c8841"/>
      <stop offset="1" stop-color="#c0eda4"/>
    </linearGradient>
    <linearGradient id="linear-gradient-2" x1="0.33" y1="0.5" x2="0.965" y2="0.655" gradientUnits="objectBoundingBox">
      <stop offset="0" stop-color="#2f5f12"/>
      <stop offset="1" stop-color="#c0eda4"/>
    </linearGradient>
    <linearGradient id="linear-gradient-9" x1="0.035" y1="0.56" x2="1.045" y2="0.565" gradientUnits="objectBoundingBox">
      <stop offset="0" stop-color="#db6e5f"/>
      <stop offset="1" stop-color="#f8beb6"/>
    </linearGradient>
    <linearGradient id="linear-gradient-10" x1="0.33" y1="0.5" x2="0.965" y2="0.655" gradientUnits="objectBoundingBox">
      <stop offset="0" stop-color="#b95041"/>
      <stop offset="1" stop-color="#f8beb6"/>
    </linearGradient>
    <linearGradient id="linear-gradient-13" x1="0.104" y1="0.243" x2="0.847" y2="0.806" gradientUnits="objectBoundingBox">
      <stop offset="0" stop-color="#70b446"/>
      <stop offset="1" stop-color="#c0eda4"/>
    </linearGradient>
    <linearGradient id="linear-gradient-14" x1="0.232" y1="0.668" x2="0.952" y2="0.913" xlink:href="#linear-gradient-13"/>
    <linearGradient id="linear-gradient-15" x1="0.284" y1="0.472" x2="1.276" y2="0.416" xlink:href="#linear-gradient-13"/>
  </defs>
  <g id="Grupo_84811" data-name="Grupo 84811" transform="translate(-307 -3477)">
    <rect id="Rectángulo_34060" data-name="Rectángulo 34060" width="890" height="303" rx="10" transform="translate(307 3477)" fill="#fff"/>
    <g id="Grupo_84724" data-name="Grupo 84724" transform="translate(-81.309 -66)">
      <g id="Grupo_84701" data-name="Grupo 84701" transform="translate(6768.924 10358.897)">
        <path id="Trazado_125912" data-name="Trazado 125912" d="M583.945,337v14.014c0,1.043-2.9,1.887-6.472,1.887S571,352.057,571,351.014V337c0,1.043,2.9,1.886,6.472,1.886S583.945,338.043,583.945,337Z" transform="translate(-6864 -7047.869)" stroke="#000" stroke-miterlimit="10" stroke-width="0.5" fill="url(#linear-gradient)"/>
        <ellipse id="Elipse_4897" data-name="Elipse 4897" cx="6.5" cy="1.5" rx="6.5" ry="1.5" transform="translate(-6292.924 -6711.897)" stroke="#000" stroke-miterlimit="10" stroke-width="0.5" fill="url(#linear-gradient-2)"/>
      </g>
      <g id="Grupo_84702" data-name="Grupo 84702" transform="translate(6776.924 10359.897)">
        <path id="Trazado_125912-2" data-name="Trazado 125912" d="M583.945,337v14.014c0,1.043-2.9,1.887-6.472,1.887S571,352.057,571,351.014V337c0,1.043,2.9,1.886,6.472,1.886S583.945,338.043,583.945,337Z" transform="translate(-6864 -7047.869)" stroke="#000" stroke-miterlimit="10" stroke-width="0.5" fill="url(#linear-gradient)"/>
        <ellipse id="Elipse_4897-2" data-name="Elipse 4897" cx="6.5" cy="1.5" rx="6.5" ry="1.5" transform="translate(-6292.924 -6711.897)" stroke="#000" stroke-miterlimit="10" stroke-width="0.5" fill="url(#linear-gradient-2)"/>
      </g>
      <g id="Grupo_84703" data-name="Grupo 84703" transform="translate(6788 10360.897)">
        <path id="Trazado_125912-3" data-name="Trazado 125912" d="M588.092,337v14.014c0,1.043-3.828,1.887-8.546,1.887S571,352.057,571,351.014V337c0,1.043,3.828,1.886,8.546,1.886S588.092,338.043,588.092,337Z" transform="translate(-6864 -7047.869)" stroke="#000" stroke-miterlimit="10" stroke-width="0.5" fill="url(#linear-gradient)"/>
        <ellipse id="Elipse_4897-3" data-name="Elipse 4897" cx="8.574" cy="1.5" rx="8.574" ry="1.5" transform="translate(-6292.924 -6711.897)" stroke="#000" stroke-miterlimit="10" stroke-width="0.5" fill="url(#linear-gradient-2)"/>
      </g>
      <g id="Grupo_84704" data-name="Grupo 84704" transform="translate(6916 10368.361)">
        <path id="Trazado_125912-4" data-name="Trazado 125912" d="M598.9,337v22.873c0,1.7-6.248,3.079-13.949,3.079S571,361.576,571,359.873V337c0,1.7,6.248,3.079,13.949,3.079S598.9,338.7,598.9,337Z" transform="translate(-6864 -7047.219)" stroke="#000" stroke-miterlimit="10" stroke-width="0.5" fill="url(#linear-gradient)"/>
        <ellipse id="Elipse_4897-4" data-name="Elipse 4897" cx="13.994" cy="2.448" rx="13.994" ry="2.448" transform="translate(-6292.876 -6711.897)" stroke="#000" stroke-miterlimit="10" stroke-width="0.5" fill="url(#linear-gradient-2)"/>
      </g>
      <g id="Grupo_84705" data-name="Grupo 84705" transform="translate(6730 10363)">
        <path id="Trazado_125913" data-name="Trazado 125913" d="M-6198.386-6710.038c.758,0,63.744,4.2,63.744,4.2" fill="none" stroke="#0d66bf" stroke-width="2"/>
        <path id="Polígono_15" data-name="Polígono 15" d="M4.5,0,9,8H0Z" transform="translate(-6127.196 -6709.746) rotate(94)" fill="#0d66bf"/>
      </g>
      <g id="Grupo_84706" data-name="Grupo 84706" transform="matrix(0.995, -0.105, 0.105, 0.995, 7405.159, 9697.079)">
        <path id="Trazado_125913-2" data-name="Trazado 125913" d="M-6198.386-6710.038c.758,0,63.744,4.2,63.744,4.2" fill="none" stroke="#0d66bf" stroke-width="2"/>
        <path id="Polígono_15-2" data-name="Polígono 15" d="M4.5,0,9,8H0Z" transform="translate(-6127.196 -6709.746) rotate(94)" fill="#0d66bf"/>
      </g>
      <g id="Grupo_84707" data-name="Grupo 84707" transform="matrix(0.946, -0.326, 0.326, 0.946, 8588.352, 8023.959)">
        <path id="Trazado_125913-3" data-name="Trazado 125913" d="M-6198.386-6710.038c.758,0,63.744,4.2,63.744,4.2" fill="none" stroke="#0d66bf" stroke-width="2"/>
        <path id="Polígono_15-3" data-name="Polígono 15" d="M4.5,0,9,8H0Z" transform="translate(-6127.196 -6709.746) rotate(94)" fill="#0d66bf"/>
      </g>
      <g id="Grupo_84708" data-name="Grupo 84708" transform="translate(6779.389 10391.897)">
        <path id="Trazado_125912-5" data-name="Trazado 125912" d="M588.092,337v14.014c0,1.043-3.828,1.887-8.546,1.887S571,352.057,571,351.014V337c0,1.043,3.828,1.886,8.546,1.886S588.092,338.043,588.092,337Z" transform="translate(-6864 -7047.869)" stroke="#000" stroke-miterlimit="10" stroke-width="0.5" fill="url(#linear-gradient-9)"/>
        <ellipse id="Elipse_4897-5" data-name="Elipse 4897" cx="8.574" cy="1.5" rx="8.574" ry="1.5" transform="translate(-6292.924 -6711.897)" stroke="#000" stroke-miterlimit="10" stroke-width="0.5" fill="url(#linear-gradient-10)"/>
      </g>
      <g id="Grupo_84709" data-name="Grupo 84709" transform="translate(6764.389 10391.897)">
        <path id="Trazado_125912-6" data-name="Trazado 125912" d="M588.092,337v14.014c0,1.043-3.828,1.887-8.546,1.887S571,352.057,571,351.014V337c0,1.043,3.828,1.886,8.546,1.886S588.092,338.043,588.092,337Z" transform="translate(-6864 -7047.869)" stroke="#000" stroke-miterlimit="10" stroke-width="0.5" fill="url(#linear-gradient-9)"/>
        <ellipse id="Elipse_4897-6" data-name="Elipse 4897" cx="8.574" cy="1.5" rx="8.574" ry="1.5" transform="translate(-6292.924 -6711.897)" stroke="#000" stroke-miterlimit="10" stroke-width="0.5" fill="url(#linear-gradient-10)"/>
      </g>
      <g id="Grupo_84710" data-name="Grupo 84710" transform="translate(6730 10363)">
        <g id="Rectángulo_34048" data-name="Rectángulo 34048" transform="translate(-6217 -6685)" fill="#ddd" stroke="#000" stroke-width="1">
          <rect width="23" height="33" stroke="none"/>
          <rect x="0.5" y="0.5" width="22" height="32" fill="none"/>
        </g>
        <path id="Trazado_125914" data-name="Trazado 125914" d="M4,0V4H0Z" transform="translate(-6199 -6657)"/>
      </g>
      <g id="Grupo_84711" data-name="Grupo 84711" transform="matrix(0.998, -0.07, 0.07, 0.998, 7314.742, 9930.549)">
        <path id="Trazado_125913-4" data-name="Trazado 125913" d="M-6198.386-6710.038c.758,0,63.744,4.2,63.744,4.2" fill="none" stroke="#0d66bf" stroke-width="2"/>
        <path id="Polígono_15-4" data-name="Polígono 15" d="M4.5,0,9,8H0Z" transform="translate(-6127.196 -6709.746) rotate(94)" fill="#0d66bf"/>
      </g>
      <g id="Grupo_84712" data-name="Grupo 84712" transform="translate(6695 10363)">
        <g id="Rectángulo_34049" data-name="Rectángulo 34049" transform="translate(-5950 -6711)" stroke="#000" stroke-width="1" fill="url(#linear-gradient-13)">
          <rect width="31" height="42" stroke="none"/>
          <rect x="0.5" y="0.5" width="30" height="41" fill="none"/>
        </g>
        <path id="Trazado_125915" data-name="Trazado 125915" d="M-5942.3-6711v41.6" fill="none" stroke="#0b0b0b" stroke-width="1"/>
        <path id="Trazado_125916" data-name="Trazado 125916" d="M-5950-6701.872h30.582" fill="none" stroke="#000" stroke-width="1"/>
      </g>
      <g id="Grupo_84713" data-name="Grupo 84713" transform="matrix(0.998, -0.07, 0.07, 0.998, 7434.742, 9930.549)">
        <path id="Trazado_125913-5" data-name="Trazado 125913" d="M-6198.386-6710.038c.758,0,63.744,4.2,63.744,4.2" fill="none" stroke="#0d66bf" stroke-width="2"/>
        <path id="Polígono_15-5" data-name="Polígono 15" d="M4.5,0,9,8H0Z" transform="translate(-6127.196 -6709.746) rotate(94)" fill="#0d66bf"/>
      </g>
      <g id="Grupo_84714" data-name="Grupo 84714" transform="translate(6802 10396)">
        <g id="Rectángulo_34050" data-name="Rectángulo 34050" transform="translate(-5932 -6743)" fill="#dfd" stroke="#000" stroke-width="1">
          <rect width="55" height="42" stroke="none"/>
          <rect x="0.5" y="0.5" width="54" height="41" fill="none"/>
        </g>
        <path id="Trazado_125917" data-name="Trazado 125917" d="M-5921.575-6702.056l43.752-39.835" fill="none" stroke="#000" stroke-width="1"/>
        <path id="Trazado_125920" data-name="Trazado 125920" d="M4.253-4.958H6.83v1.111H4.253v2.92H3.072v-2.92H.5V-4.958H3.072v-2.7H4.253Z" transform="translate(-5926 -6730)" fill="#ed1c24"/>
        <path id="Trazado_125921" data-name="Trazado 125921" d="M4.253-4.958H6.83v1.111H4.253v2.92H3.072v-2.92H.5V-4.958H3.072v-2.7H4.253Z" transform="translate(-5911 -6730)" fill="#ed1c24"/>
        <path id="Trazado_125918" data-name="Trazado 125918" d="M4.253-4.958H6.83v1.111H4.253v2.92H3.072v-2.92H.5V-4.958H3.072v-2.7H4.253Z" transform="translate(-5926 -6719)" fill="#ed1c24"/>
        <path id="Trazado_125919" data-name="Trazado 125919" d="M4.253-4.958H6.83v1.111H4.253v2.92H3.072v-2.92H.5V-4.958H3.072v-2.7H4.253Z" transform="translate(-5911 -6719)" fill="#ed1c24"/>
        <path id="Trazado_125922" data-name="Trazado 125922" d="M3.333-3.447H.235v-.958h3.1Z" transform="translate(-5890 -6718)" fill="#0d66bf"/>
        <path id="Trazado_125923" data-name="Trazado 125923" d="M3.333-3.447H.235v-.958h3.1Z" transform="translate(-5890 -6706)" fill="#0d66bf"/>
        <path id="Trazado_125924" data-name="Trazado 125924" d="M3.333-3.447H.235v-.958h3.1Z" transform="translate(-5903.031 -6706)" fill="#0d66bf"/>
      </g>
      <g id="Grupo_84715" data-name="Grupo 84715" transform="translate(6730 10359)">
        <path id="Trazado_125925" data-name="Trazado 125925" d="M424.5,336.774,443.64,293.5l19.294,43.274Z" transform="translate(-6148.5 -7002.825)" fill="url(#linear-gradient-14)"/>
        <path id="Trazado_125926" data-name="Trazado 125926" d="M518.377,251.5,509.5,263.151l19.294,43.274,7.891-14.147Z" transform="translate(-6214.283 -6972.476)" fill="url(#linear-gradient-15)"/>
      </g>
      <g id="Grupo_84716" data-name="Grupo 84716" transform="translate(6730 10403)">
        <g id="Rectángulo_34051" data-name="Rectángulo 34051" transform="translate(-5595 -6738)" fill="#cfc" stroke="#121212" stroke-width="1">
          <rect width="44" height="32" stroke="none"/>
          <rect x="0.5" y="0.5" width="43" height="31" fill="none"/>
        </g>
        <path id="Trazado_125927" data-name="Trazado 125927" d="M-5595-6712.028l18.489-13.972" fill="none" stroke="#0d66bf" stroke-width="1"/>
        <path id="Trazado_125928" data-name="Trazado 125928" d="M-5566.545-6712.028l-10.563-13.839" fill="none" stroke="#db6e5f" stroke-width="1"/>
        <path id="Trazado_125929" data-name="Trazado 125929" d="M-5552.087-6723.051l-14.51,10.67" fill="none" stroke="#0d66bf" stroke-width="1"/>
      </g>
      <g id="Grupo_84717" data-name="Grupo 84717" transform="matrix(0.998, -0.07, 0.07, 0.998, 7580.742, 9930.549)">
        <path id="Trazado_125913-6" data-name="Trazado 125913" d="M-6198.386-6710.038c.758,0,63.744,4.2,63.744,4.2" fill="none" stroke="#0d66bf" stroke-width="2"/>
        <path id="Polígono_15-6" data-name="Polígono 15" d="M4.5,0,9,8H0Z" transform="translate(-6127.196 -6709.746) rotate(94)" fill="#0d66bf"/>
      </g>
      <g id="Grupo_84718" data-name="Grupo 84718" transform="matrix(0.998, -0.07, 0.07, 0.998, 7711.742, 9930.549)">
        <path id="Trazado_125913-7" data-name="Trazado 125913" d="M-6198.386-6710.038c.758,0,63.744,4.2,63.744,4.2" fill="none" stroke="#0d66bf" stroke-width="2"/>
        <path id="Polígono_15-7" data-name="Polígono 15" d="M4.5,0,9,8H0Z" transform="translate(-6127.196 -6709.746) rotate(94)" fill="#0d66bf"/>
      </g>
      <g id="Grupo_84719" data-name="Grupo 84719" transform="translate(6729 10363)">
        <path id="Trazado_125930" data-name="Trazado 125930" d="M-6095.048-6631.174v27.956" transform="translate(1.048)" fill="none" stroke="#585858" stroke-width="1" stroke-dasharray="3"/>
        <path id="Polígono_20" data-name="Polígono 20" d="M4,0,8,7H0Z" transform="translate(-6098 -6638)" fill="#606060"/>
        <path id="Polígono_21" data-name="Polígono 21" d="M4,0,8,7H0Z" transform="translate(-6090 -6598) rotate(180)" fill="#606060"/>
      </g>
      <g id="Grupo_84720" data-name="Grupo 84720" transform="translate(6854.5 10363)">
        <path id="Trazado_125930-2" data-name="Trazado 125930" d="M-6095.048-6631.174v27.956" transform="translate(1.048)" fill="none" stroke="#585858" stroke-width="1" stroke-dasharray="3"/>
        <path id="Polígono_20-2" data-name="Polígono 20" d="M4,0,8,7H0Z" transform="translate(-6098 -6638)" fill="#606060"/>
        <path id="Polígono_21-2" data-name="Polígono 21" d="M4,0,8,7H0Z" transform="translate(-6090 -6598) rotate(180)" fill="#606060"/>
      </g>
      <g id="Grupo_84721" data-name="Grupo 84721" transform="translate(6994 10363)">
        <path id="Trazado_125930-3" data-name="Trazado 125930" d="M-6095.048-6631.174v27.956" transform="translate(1.048)" fill="none" stroke="#585858" stroke-width="1" stroke-dasharray="3"/>
        <path id="Polígono_20-3" data-name="Polígono 20" d="M4,0,8,7H0Z" transform="translate(-6098 -6638)" fill="#606060"/>
        <path id="Polígono_21-3" data-name="Polígono 21" d="M4,0,8,7H0Z" transform="translate(-6090 -6598) rotate(180)" fill="#606060"/>
      </g>
      <g id="Grupo_84722" data-name="Grupo 84722" transform="translate(7128 10363)">
        <path id="Trazado_125930-4" data-name="Trazado 125930" d="M-6095.048-6631.174v27.956" transform="translate(1.048)" fill="none" stroke="#585858" stroke-width="1" stroke-dasharray="3"/>
        <path id="Polígono_20-4" data-name="Polígono 20" d="M4,0,8,7H0Z" transform="translate(-6098 -6638)" fill="#606060"/>
        <path id="Polígono_21-4" data-name="Polígono 21" d="M4,0,8,7H0Z" transform="translate(-6090 -6598) rotate(180)" fill="#606060"/>
      </g>
      <g id="Grupo_84723" data-name="Grupo 84723" transform="translate(7250 10363)">
        <path id="Trazado_125930-5" data-name="Trazado 125930" d="M-6095.048-6631.174v27.956" transform="translate(1.048)" fill="none" stroke="#585858" stroke-width="1" stroke-dasharray="3"/>
        <path id="Polígono_20-5" data-name="Polígono 20" d="M4,0,8,7H0Z" transform="translate(-6098 -6638)" fill="#606060"/>
        <path id="Polígono_21-5" data-name="Polígono 21" d="M4,0,8,7H0Z" transform="translate(-6090 -6598) rotate(180)" fill="#606060"/>
      </g>
      <path id="Trazado_125932" data-name="Trazado 125932" d="M-5570-6585.24h-571.252" transform="translate(6730 10363)" fill="none" stroke="#707070" stroke-width="2" stroke-dasharray="6"/>
      <path id="Polígono_27" data-name="Polígono 27" d="M4,0,8,7H0Z" transform="translate(583.5 3781.76) rotate(-90)" fill="#606060"/>
      <path id="Trazado_125933" data-name="Trazado 125933" d="M-18.8,0V-9.953h2.81a4.523,4.523,0,0,1,2.3.574,3.884,3.884,0,0,1,1.542,1.634,5.318,5.318,0,0,1,.55,2.434v.636a5.336,5.336,0,0,1-.543,2.468A3.823,3.823,0,0,1-13.692-.581,4.811,4.811,0,0,1-16.041,0Zm1.313-8.873v7.8H-16.1a3.006,3.006,0,0,0,2.362-.943A3.9,3.9,0,0,0-12.9-4.7v-.581a3.957,3.957,0,0,0-.8-2.635,2.835,2.835,0,0,0-2.259-.954ZM-5.247,0a2.657,2.657,0,0,1-.178-.779A2.822,2.822,0,0,1-7.53.137,2.611,2.611,0,0,1-9.324-.482a2,2,0,0,1-.7-1.569,2.091,2.091,0,0,1,.878-1.794,4.142,4.142,0,0,1,2.471-.639h1.23v-.581a1.42,1.42,0,0,0-.4-1.056A1.593,1.593,0,0,0-7.01-6.515a1.844,1.844,0,0,0-1.135.342,1.007,1.007,0,0,0-.458.827H-9.875a1.745,1.745,0,0,1,.393-1.07,2.683,2.683,0,0,1,1.066-.817,3.588,3.588,0,0,1,1.48-.3,2.924,2.924,0,0,1,2,.639,2.306,2.306,0,0,1,.752,1.76v3.4a4.162,4.162,0,0,0,.26,1.62V0Zm-2.1-.964a2.223,2.223,0,0,0,1.128-.308,1.861,1.861,0,0,0,.772-.8V-3.589h-.991q-2.324,0-2.324,1.36a1.151,1.151,0,0,0,.4.93A1.524,1.524,0,0,0-7.345-.964ZM-.482-9.187V-7.4H.9v.978H-.482v4.587A1.024,1.024,0,0,0-.3-1.166a.777.777,0,0,0,.629.222,3.062,3.062,0,0,0,.6-.082V0A3.666,3.666,0,0,1-.038.137,1.575,1.575,0,0,1-1.316-.376a2.2,2.2,0,0,1-.431-1.456V-6.419H-3.093V-7.4h1.347V-9.187ZM1.9-3.767a4.369,4.369,0,0,1,.427-1.955,3.187,3.187,0,0,1,1.189-1.34,3.238,3.238,0,0,1,1.74-.472A3.119,3.119,0,0,1,7.7-6.487a4.024,4.024,0,0,1,.933,2.782v.089a4.407,4.407,0,0,1-.414,1.938A3.14,3.14,0,0,1,7.041-.342,3.275,3.275,0,0,1,5.274.137,3.111,3.111,0,0,1,2.837-.909,4,4,0,0,1,1.9-3.678Zm1.271.15a3.164,3.164,0,0,0,.571,1.976A1.827,1.827,0,0,0,5.274-.9a1.816,1.816,0,0,0,1.531-.755,3.46,3.46,0,0,0,.567-2.116,3.159,3.159,0,0,0-.578-1.972A1.836,1.836,0,0,0,5.26-6.494a1.816,1.816,0,0,0-1.511.745A3.434,3.434,0,0,0,3.175-3.616ZM14.53-1.962a.931.931,0,0,0-.386-.8A3.718,3.718,0,0,0,12.8-3.247a6.367,6.367,0,0,1-1.524-.492,2.169,2.169,0,0,1-.834-.684,1.635,1.635,0,0,1-.27-.943A1.919,1.919,0,0,1,10.938-6.9,3,3,0,0,1,12.9-7.533a3.091,3.091,0,0,1,2.041.649,2.063,2.063,0,0,1,.783,1.661H14.455a1.142,1.142,0,0,0-.441-.9A1.652,1.652,0,0,0,12.9-6.494a1.729,1.729,0,0,0-1.08.3.947.947,0,0,0-.39.786.767.767,0,0,0,.362.69,4.458,4.458,0,0,0,1.309.444,6.821,6.821,0,0,1,1.535.506,2.239,2.239,0,0,1,.872.708,1.74,1.74,0,0,1,.284,1.008A1.893,1.893,0,0,1,15-.461a3.326,3.326,0,0,1-2.058.6,3.725,3.725,0,0,1-1.572-.314,2.557,2.557,0,0,1-1.07-.878,2.117,2.117,0,0,1-.386-1.22H11.18a1.309,1.309,0,0,0,.509,1.008A1.976,1.976,0,0,0,12.944-.9,2.039,2.039,0,0,0,14.1-1.186.893.893,0,0,0,14.53-1.962ZM-23.088,18H-24.4V8.047h1.313Zm3.4-7.4.041.93a2.7,2.7,0,0,1,2.215-1.066q2.345,0,2.365,2.646V18h-1.265V13.105a1.7,1.7,0,0,0-.366-1.183,1.466,1.466,0,0,0-1.118-.383,1.825,1.825,0,0,0-1.08.328,2.228,2.228,0,0,0-.725.861V18h-1.265V10.6Zm7.9,7.4h-1.265V10.6h1.265Zm-1.367-9.358a.755.755,0,0,1,.188-.52.706.706,0,0,1,.557-.212.717.717,0,0,1,.561.212.747.747,0,0,1,.191.52.722.722,0,0,1-.191.513.73.73,0,0,1-.561.205.718.718,0,0,1-.557-.205A.73.73,0,0,1-13.156,8.642ZM-6.8,17.1a1.822,1.822,0,0,0,1.183-.41,1.443,1.443,0,0,0,.561-1.025h1.2a2.293,2.293,0,0,1-.437,1.21,2.881,2.881,0,0,1-1.077.916,3.107,3.107,0,0,1-1.425.342,3.047,3.047,0,0,1-2.4-1.008,4.016,4.016,0,0,1-.892-2.758v-.212a4.453,4.453,0,0,1,.4-1.921,3.02,3.02,0,0,1,1.138-1.306,3.233,3.233,0,0,1,1.753-.465,2.966,2.966,0,0,1,2.068.745,2.663,2.663,0,0,1,.878,1.935h-1.2A1.743,1.743,0,0,0-5.6,11.967a1.691,1.691,0,0,0-1.207-.461A1.77,1.77,0,0,0-8.3,12.2a3.259,3.259,0,0,0-.53,2.006v.239A3.194,3.194,0,0,0-8.3,16.414,1.779,1.779,0,0,0-6.8,17.1Zm5.735.9H-2.328V10.6h1.265ZM-2.43,8.642a.755.755,0,0,1,.188-.52.706.706,0,0,1,.557-.212.717.717,0,0,1,.561.212.747.747,0,0,1,.191.52.722.722,0,0,1-.191.513.73.73,0,0,1-.561.205.718.718,0,0,1-.557-.205A.73.73,0,0,1-2.43,8.642ZM5.527,18a2.657,2.657,0,0,1-.178-.779,2.822,2.822,0,0,1-2.105.916,2.611,2.611,0,0,1-1.794-.619,2,2,0,0,1-.7-1.569,2.091,2.091,0,0,1,.878-1.794A4.142,4.142,0,0,1,4.1,13.516h1.23v-.581a1.42,1.42,0,0,0-.4-1.056,1.593,1.593,0,0,0-1.169-.393,1.844,1.844,0,0,0-1.135.342,1.007,1.007,0,0,0-.458.827H.9a1.745,1.745,0,0,1,.393-1.07,2.683,2.683,0,0,1,1.066-.817,3.588,3.588,0,0,1,1.48-.3,2.924,2.924,0,0,1,2,.639,2.306,2.306,0,0,1,.752,1.76v3.4a4.162,4.162,0,0,0,.26,1.62V18Zm-2.1-.964a2.223,2.223,0,0,0,1.128-.308,1.861,1.861,0,0,0,.772-.8V14.411H4.337q-2.324,0-2.324,1.36a1.151,1.151,0,0,0,.4.93A1.524,1.524,0,0,0,3.428,17.036ZM9.95,18H8.685V7.5H9.95Zm5.093.137a3.232,3.232,0,0,1-2.447-.988,3.666,3.666,0,0,1-.943-2.642v-.232a4.438,4.438,0,0,1,.42-1.965,3.28,3.28,0,0,1,1.176-1.354,2.956,2.956,0,0,1,1.637-.489,2.77,2.77,0,0,1,2.242.95,4.114,4.114,0,0,1,.8,2.721v.526H12.917a2.629,2.629,0,0,0,.639,1.767,2.009,2.009,0,0,0,1.555.673,2.2,2.2,0,0,0,1.135-.273,2.851,2.851,0,0,0,.813-.725l.772.6A3.106,3.106,0,0,1,15.042,18.137Zm-.157-6.631a1.687,1.687,0,0,0-1.285.557,2.708,2.708,0,0,0-.643,1.562h3.705v-.1a2.409,2.409,0,0,0-.52-1.494A1.588,1.588,0,0,0,14.885,11.506ZM23.7,16.038a.931.931,0,0,0-.386-.8,3.718,3.718,0,0,0-1.347-.489,6.367,6.367,0,0,1-1.524-.492,2.169,2.169,0,0,1-.834-.684,1.635,1.635,0,0,1-.27-.943A1.919,1.919,0,0,1,20.1,11.1a3,3,0,0,1,1.965-.629,3.091,3.091,0,0,1,2.041.649,2.063,2.063,0,0,1,.783,1.661H23.622a1.142,1.142,0,0,0-.441-.9,1.652,1.652,0,0,0-1.111-.376,1.729,1.729,0,0,0-1.08.3.947.947,0,0,0-.39.786.767.767,0,0,0,.362.69,4.458,4.458,0,0,0,1.309.444,6.821,6.821,0,0,1,1.535.506,2.239,2.239,0,0,1,.872.708,1.74,1.74,0,0,1,.284,1.008,1.893,1.893,0,0,1-.793,1.589,3.326,3.326,0,0,1-2.058.6,3.725,3.725,0,0,1-1.572-.314,2.557,2.557,0,0,1-1.07-.878,2.117,2.117,0,0,1-.386-1.22h1.265a1.309,1.309,0,0,0,.509,1.008,1.976,1.976,0,0,0,1.254.373,2.039,2.039,0,0,0,1.152-.291A.893.893,0,0,0,23.7,16.038Z" transform="translate(487 3720.658)" fill="#00223d"/>
      <path id="Trazado_125936" data-name="Trazado 125936" d="M-20.289-3.616A4.429,4.429,0,0,1-21.062-.9,2.476,2.476,0,0,1-23.153.137a2.713,2.713,0,0,1-2.119-.854V2.844h-1.265V-7.4h1.155l.062.82a2.605,2.605,0,0,1,2.146-.957,2.522,2.522,0,0,1,2.109,1,4.477,4.477,0,0,1,.776,2.8Zm-1.265-.144a3.268,3.268,0,0,0-.533-1.976A1.718,1.718,0,0,0-23.55-6.46a1.859,1.859,0,0,0-1.723,1.019v3.534A1.863,1.863,0,0,0-23.536-.9a1.71,1.71,0,0,0,1.446-.721A3.567,3.567,0,0,0-21.554-3.76ZM-14.116,0a2.657,2.657,0,0,1-.178-.779A2.822,2.822,0,0,1-16.4.137a2.611,2.611,0,0,1-1.794-.619,2,2,0,0,1-.7-1.569,2.091,2.091,0,0,1,.878-1.794,4.142,4.142,0,0,1,2.471-.639h1.23v-.581a1.42,1.42,0,0,0-.4-1.056,1.593,1.593,0,0,0-1.169-.393,1.844,1.844,0,0,0-1.135.342,1.007,1.007,0,0,0-.458.827h-1.271a1.745,1.745,0,0,1,.393-1.07,2.683,2.683,0,0,1,1.066-.817,3.588,3.588,0,0,1,1.48-.3,2.924,2.924,0,0,1,2,.639,2.306,2.306,0,0,1,.752,1.76v3.4a4.162,4.162,0,0,0,.26,1.62V0Zm-2.1-.964a2.223,2.223,0,0,0,1.128-.308,1.861,1.861,0,0,0,.772-.8V-3.589h-.991q-2.324,0-2.324,1.36a1.151,1.151,0,0,0,.4.93A1.524,1.524,0,0,0-16.215-.964Zm6.863-8.224V-7.4h1.381v.978H-9.352v4.587a1.024,1.024,0,0,0,.185.667.777.777,0,0,0,.629.222,3.062,3.062,0,0,0,.6-.082V0a3.666,3.666,0,0,1-.971.137,1.575,1.575,0,0,1-1.278-.513,2.2,2.2,0,0,1-.431-1.456V-6.419h-1.347V-7.4h1.347V-9.187Zm6.433,2.926a3.79,3.79,0,0,0-.622-.048A1.667,1.667,0,0,0-5.229-5.25V0H-6.494V-7.4h1.23l.021.854a1.969,1.969,0,0,1,1.764-.991,1.292,1.292,0,0,1,.561.1Zm.69,2.5A4.369,4.369,0,0,1-1.8-5.722,3.187,3.187,0,0,1-.612-7.062a3.238,3.238,0,0,1,1.74-.472A3.119,3.119,0,0,1,3.572-6.487,4.024,4.024,0,0,1,4.5-3.705v.089a4.407,4.407,0,0,1-.414,1.938A3.14,3.14,0,0,1,2.909-.342,3.275,3.275,0,0,1,1.142.137,3.111,3.111,0,0,1-1.3-.909a4,4,0,0,1-.933-2.769Zm1.271.15A3.164,3.164,0,0,0-.386-1.641,1.827,1.827,0,0,0,1.142-.9a1.816,1.816,0,0,0,1.531-.755A3.46,3.46,0,0,0,3.24-3.767a3.159,3.159,0,0,0-.578-1.972,1.836,1.836,0,0,0-1.535-.755,1.816,1.816,0,0,0-1.511.745A3.434,3.434,0,0,0-.957-3.616ZM7.287-7.4l.041.93A2.7,2.7,0,0,1,9.543-7.533q2.345,0,2.365,2.646V0H10.644V-4.895a1.7,1.7,0,0,0-.366-1.183A1.466,1.466,0,0,0,9.16-6.46a1.825,1.825,0,0,0-1.08.328,2.228,2.228,0,0,0-.725.861V0H6.091V-7.4Zm9.6,7.533a3.232,3.232,0,0,1-2.447-.988,3.666,3.666,0,0,1-.943-2.642v-.232a4.438,4.438,0,0,1,.42-1.965A3.28,3.28,0,0,1,15.09-7.044a2.956,2.956,0,0,1,1.637-.489,2.77,2.77,0,0,1,2.242.95,4.114,4.114,0,0,1,.8,2.721v.526H14.759A2.629,2.629,0,0,0,15.4-1.569,2.009,2.009,0,0,0,16.953-.9a2.2,2.2,0,0,0,1.135-.273,2.851,2.851,0,0,0,.813-.725l.772.6A3.106,3.106,0,0,1,16.885.137Zm-.157-6.631a1.687,1.687,0,0,0-1.285.557A2.708,2.708,0,0,0,14.8-4.375H18.5v-.1a2.409,2.409,0,0,0-.52-1.494A1.588,1.588,0,0,0,16.728-6.494Zm8.812,4.532a.931.931,0,0,0-.386-.8,3.718,3.718,0,0,0-1.347-.489,6.367,6.367,0,0,1-1.524-.492,2.169,2.169,0,0,1-.834-.684,1.635,1.635,0,0,1-.27-.943A1.919,1.919,0,0,1,21.947-6.9a3,3,0,0,1,1.965-.629,3.091,3.091,0,0,1,2.041.649,2.063,2.063,0,0,1,.783,1.661H25.464a1.142,1.142,0,0,0-.441-.9,1.652,1.652,0,0,0-1.111-.376,1.729,1.729,0,0,0-1.08.3.947.947,0,0,0-.39.786.767.767,0,0,0,.362.69,4.458,4.458,0,0,0,1.309.444,6.821,6.821,0,0,1,1.535.506,2.239,2.239,0,0,1,.872.708A1.74,1.74,0,0,1,26.8-2.051a1.893,1.893,0,0,1-.793,1.589,3.326,3.326,0,0,1-2.058.6,3.725,3.725,0,0,1-1.572-.314,2.557,2.557,0,0,1-1.07-.878,2.117,2.117,0,0,1-.386-1.22h1.265A1.309,1.309,0,0,0,22.7-1.268,1.976,1.976,0,0,0,23.953-.9,2.039,2.039,0,0,0,25.1-1.186.893.893,0,0,0,25.539-1.962Z" transform="translate(900 3710.658)" fill="#00223d"/>
      <path id="Trazado_125937" data-name="Trazado 125937" d="M-38.565-.9a1.822,1.822,0,0,0,1.183-.41,1.443,1.443,0,0,0,.561-1.025h1.2a2.293,2.293,0,0,1-.437,1.21,2.881,2.881,0,0,1-1.077.916,3.107,3.107,0,0,1-1.425.342,3.047,3.047,0,0,1-2.4-1.008A4.016,4.016,0,0,1-41.86-3.63v-.212a4.453,4.453,0,0,1,.4-1.921,3.02,3.02,0,0,1,1.138-1.306,3.233,3.233,0,0,1,1.753-.465,2.966,2.966,0,0,1,2.068.745,2.663,2.663,0,0,1,.878,1.935h-1.2a1.743,1.743,0,0,0-.543-1.179,1.691,1.691,0,0,0-1.207-.461,1.77,1.77,0,0,0-1.494.694,3.259,3.259,0,0,0-.53,2.006v.239a3.194,3.194,0,0,0,.526,1.969A1.779,1.779,0,0,0-38.565-.9Zm4.026-2.871a4.369,4.369,0,0,1,.427-1.955,3.187,3.187,0,0,1,1.189-1.34,3.238,3.238,0,0,1,1.74-.472,3.119,3.119,0,0,1,2.444,1.046,4.024,4.024,0,0,1,.933,2.782v.089a4.407,4.407,0,0,1-.414,1.938A3.14,3.14,0,0,1-29.4-.342a3.275,3.275,0,0,1-1.767.479A3.111,3.111,0,0,1-33.605-.909a4,4,0,0,1-.933-2.769Zm1.271.15A3.164,3.164,0,0,0-32.7-1.641,1.827,1.827,0,0,0-31.168-.9a1.816,1.816,0,0,0,1.531-.755,3.46,3.46,0,0,0,.567-2.116,3.159,3.159,0,0,0-.578-1.972,1.836,1.836,0,0,0-1.535-.755,1.816,1.816,0,0,0-1.511.745A3.434,3.434,0,0,0-33.267-3.616Zm8.244-3.78.041.93a2.7,2.7,0,0,1,2.215-1.066q2.345,0,2.365,2.646V0h-1.265V-4.895a1.7,1.7,0,0,0-.366-1.183A1.466,1.466,0,0,0-23.15-6.46a1.825,1.825,0,0,0-1.08.328,2.228,2.228,0,0,0-.725.861V0h-1.265V-7.4Zm6.193,3.63A4.369,4.369,0,0,1-18.4-5.722a3.187,3.187,0,0,1,1.189-1.34,3.238,3.238,0,0,1,1.74-.472,3.119,3.119,0,0,1,2.444,1.046A4.024,4.024,0,0,1-12.1-3.705v.089a4.407,4.407,0,0,1-.414,1.938A3.14,3.14,0,0,1-13.692-.342a3.275,3.275,0,0,1-1.767.479A3.111,3.111,0,0,1-17.9-.909a4,4,0,0,1-.933-2.769Zm1.271.15a3.164,3.164,0,0,0,.571,1.976A1.827,1.827,0,0,0-15.459-.9a1.816,1.816,0,0,0,1.531-.755,3.46,3.46,0,0,0,.567-2.116,3.159,3.159,0,0,0-.578-1.972,1.836,1.836,0,0,0-1.535-.755,1.816,1.816,0,0,0-1.511.745A3.434,3.434,0,0,0-17.558-3.616ZM-7.543-.9a1.822,1.822,0,0,0,1.183-.41A1.443,1.443,0,0,0-5.8-2.331h1.2a2.293,2.293,0,0,1-.437,1.21,2.881,2.881,0,0,1-1.077.916A3.107,3.107,0,0,1-7.543.137a3.047,3.047,0,0,1-2.4-1.008,4.016,4.016,0,0,1-.892-2.758v-.212a4.453,4.453,0,0,1,.4-1.921A3.02,3.02,0,0,1-9.3-7.068,3.233,3.233,0,0,1-7.55-7.533a2.966,2.966,0,0,1,2.068.745A2.663,2.663,0,0,1-4.6-4.854H-5.8a1.743,1.743,0,0,0-.543-1.179A1.691,1.691,0,0,0-7.55-6.494,1.77,1.77,0,0,0-9.044-5.8a3.259,3.259,0,0,0-.53,2.006v.239a3.194,3.194,0,0,0,.526,1.969A1.779,1.779,0,0,0-7.543-.9Zm5.735.9H-3.073V-7.4h1.265ZM-3.175-9.358a.755.755,0,0,1,.188-.52.706.706,0,0,1,.557-.212.717.717,0,0,1,.561.212.747.747,0,0,1,.191.52.722.722,0,0,1-.191.513.73.73,0,0,1-.561.205.718.718,0,0,1-.557-.205A.73.73,0,0,1-3.175-9.358ZM1.4-7.4l.034.82a2.732,2.732,0,0,1,2.194-.957A2.115,2.115,0,0,1,5.746-6.344a2.8,2.8,0,0,1,.96-.861,2.837,2.837,0,0,1,1.4-.328q2.434,0,2.475,2.577V0H9.314V-4.881a1.7,1.7,0,0,0-.362-1.186A1.6,1.6,0,0,0,7.735-6.46a1.677,1.677,0,0,0-1.169.42,1.706,1.706,0,0,0-.54,1.131V0H4.754V-4.847A1.411,1.411,0,0,0,3.175-6.46a1.692,1.692,0,0,0-1.7,1.06V0H.208V-7.4ZM13.86,0H12.6V-7.4H13.86ZM12.493-9.358a.755.755,0,0,1,.188-.52.706.706,0,0,1,.557-.212.717.717,0,0,1,.561.212.747.747,0,0,1,.191.52.722.722,0,0,1-.191.513.73.73,0,0,1-.561.205.718.718,0,0,1-.557-.205A.73.73,0,0,1,12.493-9.358Zm6.46,9.5a3.232,3.232,0,0,1-2.447-.988,3.666,3.666,0,0,1-.943-2.642v-.232a4.438,4.438,0,0,1,.42-1.965,3.28,3.28,0,0,1,1.176-1.354A2.956,2.956,0,0,1,18.8-7.533a2.77,2.77,0,0,1,2.242.95,4.114,4.114,0,0,1,.8,2.721v.526H16.827a2.629,2.629,0,0,0,.639,1.767A2.009,2.009,0,0,0,19.021-.9a2.2,2.2,0,0,0,1.135-.273,2.851,2.851,0,0,0,.813-.725l.772.6A3.106,3.106,0,0,1,18.953.137ZM18.8-6.494a1.687,1.687,0,0,0-1.285.557,2.708,2.708,0,0,0-.643,1.562h3.705v-.1a2.409,2.409,0,0,0-.52-1.494A1.588,1.588,0,0,0,18.8-6.494Zm5.7-.9.041.93a2.7,2.7,0,0,1,2.215-1.066q2.345,0,2.365,2.646V0H27.853V-4.895a1.7,1.7,0,0,0-.366-1.183A1.466,1.466,0,0,0,26.37-6.46a1.825,1.825,0,0,0-1.08.328,2.228,2.228,0,0,0-.725.861V0H23.3V-7.4Zm8.244-1.791V-7.4h1.381v.978H32.741v4.587a1.024,1.024,0,0,0,.185.667.777.777,0,0,0,.629.222,3.062,3.062,0,0,0,.6-.082V0a3.666,3.666,0,0,1-.971.137,1.575,1.575,0,0,1-1.278-.513,2.2,2.2,0,0,1-.431-1.456V-6.419H30.129V-7.4h1.347V-9.187Zm2.386,5.421a4.369,4.369,0,0,1,.427-1.955,3.187,3.187,0,0,1,1.189-1.34,3.238,3.238,0,0,1,1.74-.472,3.119,3.119,0,0,1,2.444,1.046,4.024,4.024,0,0,1,.933,2.782v.089a4.407,4.407,0,0,1-.414,1.938A3.14,3.14,0,0,1,40.264-.342,3.275,3.275,0,0,1,38.5.137,3.111,3.111,0,0,1,36.06-.909a4,4,0,0,1-.933-2.769Zm1.271.15a3.164,3.164,0,0,0,.571,1.976A1.827,1.827,0,0,0,38.5-.9a1.816,1.816,0,0,0,1.531-.755A3.46,3.46,0,0,0,40.6-3.767a3.159,3.159,0,0,0-.578-1.972,1.836,1.836,0,0,0-1.535-.755,1.816,1.816,0,0,0-1.511.745A3.434,3.434,0,0,0,36.4-3.616Z" transform="translate(1034 3712.658)" fill="#00223d"/>
      <path id="Trazado_125938" data-name="Trazado 125938" d="M-32.85-3.76A4.333,4.333,0,0,1-32.043-6.5a2.551,2.551,0,0,1,2.112-1.036,2.565,2.565,0,0,1,2.058.889V-10.5h1.265V0h-1.162l-.062-.793a2.575,2.575,0,0,1-2.112.93,2.526,2.526,0,0,1-2.1-1.053,4.382,4.382,0,0,1-.81-2.748Zm1.265.144a3.281,3.281,0,0,0,.52,1.969,1.68,1.68,0,0,0,1.436.711,1.845,1.845,0,0,0,1.757-1.08v-3.4A1.859,1.859,0,0,0-29.617-6.46a1.687,1.687,0,0,0-1.449.718A3.612,3.612,0,0,0-31.585-3.616ZM-21.578.137a3.232,3.232,0,0,1-2.447-.988,3.666,3.666,0,0,1-.943-2.642v-.232a4.438,4.438,0,0,1,.42-1.965,3.28,3.28,0,0,1,1.176-1.354,2.956,2.956,0,0,1,1.637-.489,2.77,2.77,0,0,1,2.242.95,4.114,4.114,0,0,1,.8,2.721v.526H-23.7a2.629,2.629,0,0,0,.639,1.767A2.009,2.009,0,0,0-21.509-.9a2.2,2.2,0,0,0,1.135-.273,2.851,2.851,0,0,0,.813-.725l.772.6A3.106,3.106,0,0,1-21.578.137Zm-.157-6.631a1.687,1.687,0,0,0-1.285.557,2.708,2.708,0,0,0-.643,1.562h3.705v-.1a2.409,2.409,0,0,0-.52-1.494A1.588,1.588,0,0,0-21.735-6.494Zm7.472,5.6a1.822,1.822,0,0,0,1.183-.41,1.443,1.443,0,0,0,.561-1.025h1.2a2.293,2.293,0,0,1-.437,1.21,2.881,2.881,0,0,1-1.077.916,3.107,3.107,0,0,1-1.425.342,3.047,3.047,0,0,1-2.4-1.008,4.016,4.016,0,0,1-.892-2.758v-.212a4.453,4.453,0,0,1,.4-1.921,3.02,3.02,0,0,1,1.138-1.306,3.233,3.233,0,0,1,1.753-.465,2.966,2.966,0,0,1,2.068.745,2.663,2.663,0,0,1,.878,1.935h-1.2a1.743,1.743,0,0,0-.543-1.179,1.691,1.691,0,0,0-1.207-.461,1.77,1.77,0,0,0-1.494.694,3.259,3.259,0,0,0-.53,2.006v.239a3.194,3.194,0,0,0,.526,1.969A1.779,1.779,0,0,0-14.263-.9Zm5.735.9H-9.792V-7.4h1.265ZM-9.9-9.358a.755.755,0,0,1,.188-.52.706.706,0,0,1,.557-.212.717.717,0,0,1,.561.212.747.747,0,0,1,.191.52.722.722,0,0,1-.191.513.73.73,0,0,1-.561.205.718.718,0,0,1-.557-.205A.73.73,0,0,1-9.9-9.358Zm7.7,7.4a.931.931,0,0,0-.386-.8,3.718,3.718,0,0,0-1.347-.489,6.367,6.367,0,0,1-1.524-.492,2.169,2.169,0,0,1-.834-.684,1.635,1.635,0,0,1-.27-.943A1.919,1.919,0,0,1-5.79-6.9a3,3,0,0,1,1.965-.629,3.091,3.091,0,0,1,2.041.649A2.063,2.063,0,0,1-1-5.223H-2.273a1.142,1.142,0,0,0-.441-.9,1.652,1.652,0,0,0-1.111-.376,1.729,1.729,0,0,0-1.08.3.947.947,0,0,0-.39.786.767.767,0,0,0,.362.69,4.458,4.458,0,0,0,1.309.444,6.821,6.821,0,0,1,1.535.506,2.239,2.239,0,0,1,.872.708A1.74,1.74,0,0,1-.933-2.051,1.893,1.893,0,0,1-1.726-.461a3.326,3.326,0,0,1-2.058.6A3.725,3.725,0,0,1-5.356-.178a2.557,2.557,0,0,1-1.07-.878,2.117,2.117,0,0,1-.386-1.22h1.265a1.309,1.309,0,0,0,.509,1.008A1.976,1.976,0,0,0-3.784-.9a2.039,2.039,0,0,0,1.152-.291A.893.893,0,0,0-2.2-1.962ZM2.088,0H.824V-7.4H2.088ZM.721-9.358a.755.755,0,0,1,.188-.52.706.706,0,0,1,.557-.212.717.717,0,0,1,.561.212.747.747,0,0,1,.191.52.722.722,0,0,1-.191.513.73.73,0,0,1-.561.205.718.718,0,0,1-.557-.205A.73.73,0,0,1,.721-9.358ZM3.777-3.767A4.369,4.369,0,0,1,4.2-5.722a3.187,3.187,0,0,1,1.189-1.34,3.238,3.238,0,0,1,1.74-.472A3.119,3.119,0,0,1,9.577-6.487a4.024,4.024,0,0,1,.933,2.782v.089A4.407,4.407,0,0,1,10.1-1.678,3.14,3.14,0,0,1,8.914-.342,3.275,3.275,0,0,1,7.147.137,3.111,3.111,0,0,1,4.71-.909a4,4,0,0,1-.933-2.769Zm1.271.15a3.164,3.164,0,0,0,.571,1.976A1.827,1.827,0,0,0,7.147-.9a1.816,1.816,0,0,0,1.531-.755,3.46,3.46,0,0,0,.567-2.116,3.159,3.159,0,0,0-.578-1.972,1.836,1.836,0,0,0-1.535-.755,1.816,1.816,0,0,0-1.511.745A3.434,3.434,0,0,0,5.048-3.616ZM13.292-7.4l.041.93a2.7,2.7,0,0,1,2.215-1.066q2.345,0,2.365,2.646V0H16.649V-4.895a1.7,1.7,0,0,0-.366-1.183,1.466,1.466,0,0,0-1.118-.383,1.825,1.825,0,0,0-1.08.328,2.228,2.228,0,0,0-.725.861V0H12.1V-7.4ZM22.89.137a3.232,3.232,0,0,1-2.447-.988A3.666,3.666,0,0,1,19.5-3.493v-.232a4.438,4.438,0,0,1,.42-1.965A3.28,3.28,0,0,1,21.1-7.044a2.956,2.956,0,0,1,1.637-.489,2.77,2.77,0,0,1,2.242.95,4.114,4.114,0,0,1,.8,2.721v.526H20.764A2.629,2.629,0,0,0,21.4-1.569,2.009,2.009,0,0,0,22.958-.9a2.2,2.2,0,0,0,1.135-.273,2.851,2.851,0,0,0,.813-.725l.772.6A3.106,3.106,0,0,1,22.89.137Zm-.157-6.631a1.687,1.687,0,0,0-1.285.557,2.708,2.708,0,0,0-.643,1.562H24.51v-.1a2.409,2.409,0,0,0-.52-1.494A1.588,1.588,0,0,0,22.733-6.494Zm8.812,4.532a.931.931,0,0,0-.386-.8,3.718,3.718,0,0,0-1.347-.489,6.367,6.367,0,0,1-1.524-.492,2.169,2.169,0,0,1-.834-.684,1.635,1.635,0,0,1-.27-.943A1.919,1.919,0,0,1,27.952-6.9a3,3,0,0,1,1.965-.629,3.091,3.091,0,0,1,2.041.649,2.063,2.063,0,0,1,.783,1.661H31.469a1.142,1.142,0,0,0-.441-.9,1.652,1.652,0,0,0-1.111-.376,1.729,1.729,0,0,0-1.08.3.947.947,0,0,0-.39.786.767.767,0,0,0,.362.69,4.458,4.458,0,0,0,1.309.444,6.821,6.821,0,0,1,1.535.506,2.239,2.239,0,0,1,.872.708,1.74,1.74,0,0,1,.284,1.008,1.893,1.893,0,0,1-.793,1.589,3.326,3.326,0,0,1-2.058.6,3.725,3.725,0,0,1-1.572-.314,2.557,2.557,0,0,1-1.07-.878,2.117,2.117,0,0,1-.386-1.22h1.265A1.309,1.309,0,0,0,28.7-1.268,1.976,1.976,0,0,0,29.958-.9a2.039,2.039,0,0,0,1.152-.291A.893.893,0,0,0,31.544-1.962Z" transform="translate(1167 3714.658)" fill="#00223d"/>
      <path id="Trazado_125939" data-name="Trazado 125939" d="M0,0H95V45.82H0Z" transform="translate(528 3723.795)" fill="#f7eab0"/>
      <path id="Trazado_125940" data-name="Trazado 125940" d="M-39.187,0h-1.265V-7.4h1.265Zm-1.367-9.358a.755.755,0,0,1,.188-.52.706.706,0,0,1,.557-.212.717.717,0,0,1,.561.212.747.747,0,0,1,.191.52.722.722,0,0,1-.191.513.73.73,0,0,1-.561.205.718.718,0,0,1-.557-.205A.73.73,0,0,1-40.554-9.358ZM-35.967-7.4l.041.93a2.7,2.7,0,0,1,2.215-1.066q2.345,0,2.365,2.646V0h-1.265V-4.895a1.7,1.7,0,0,0-.366-1.183,1.466,1.466,0,0,0-1.118-.383,1.825,1.825,0,0,0-1.08.328,2.228,2.228,0,0,0-.725.861V0h-1.265V-7.4Zm8.244-1.791V-7.4h1.381v.978h-1.381v4.587a1.024,1.024,0,0,0,.185.667.777.777,0,0,0,.629.222,3.062,3.062,0,0,0,.6-.082V0a3.666,3.666,0,0,1-.971.137,1.575,1.575,0,0,1-1.278-.513,2.2,2.2,0,0,1-.431-1.456V-6.419h-1.347V-7.4h1.347V-9.187ZM-21.8.137a3.232,3.232,0,0,1-2.447-.988,3.666,3.666,0,0,1-.943-2.642v-.232a4.438,4.438,0,0,1,.42-1.965,3.28,3.28,0,0,1,1.176-1.354,2.956,2.956,0,0,1,1.637-.489,2.77,2.77,0,0,1,2.242.95,4.114,4.114,0,0,1,.8,2.721v.526h-5.011a2.629,2.629,0,0,0,.639,1.767A2.009,2.009,0,0,0-21.728-.9a2.2,2.2,0,0,0,1.135-.273,2.851,2.851,0,0,0,.813-.725l.772.6A3.106,3.106,0,0,1-21.8.137Zm-.157-6.631a1.687,1.687,0,0,0-1.285.557,2.708,2.708,0,0,0-.643,1.562h3.705v-.1a2.409,2.409,0,0,0-.52-1.494A1.588,1.588,0,0,0-21.954-6.494Zm4.2,2.734a4.347,4.347,0,0,1,.8-2.751,2.558,2.558,0,0,1,2.119-1.022,2.544,2.544,0,0,1,2.112.957l.062-.82H-11.5V-.178a3.009,3.009,0,0,1-.851,2.263,3.141,3.141,0,0,1-2.287.827A3.8,3.8,0,0,1-16.2,2.57a2.7,2.7,0,0,1-1.169-.937l.656-.759a2.473,2.473,0,0,0,1.989,1,1.938,1.938,0,0,0,1.439-.52A1.986,1.986,0,0,0-12.773-.1V-.738a2.6,2.6,0,0,1-2.071.875,2.527,2.527,0,0,1-2.1-1.046A4.571,4.571,0,0,1-17.75-3.76Zm1.271.144a3.316,3.316,0,0,0,.513,1.965,1.666,1.666,0,0,0,1.436.714,1.852,1.852,0,0,0,1.757-1.087V-5.4a1.874,1.874,0,0,0-1.743-1.06,1.681,1.681,0,0,0-1.442.718A3.612,3.612,0,0,0-16.478-3.616ZM-6.019-6.262a3.79,3.79,0,0,0-.622-.048A1.667,1.667,0,0,0-8.33-5.25V0H-9.594V-7.4h1.23l.021.854A1.969,1.969,0,0,1-6.58-7.533a1.292,1.292,0,0,1,.561.1ZM-.564,0A2.657,2.657,0,0,1-.742-.779,2.822,2.822,0,0,1-2.847.137,2.611,2.611,0,0,1-4.642-.482a2,2,0,0,1-.7-1.569,2.091,2.091,0,0,1,.878-1.794,4.142,4.142,0,0,1,2.471-.639h1.23v-.581a1.42,1.42,0,0,0-.4-1.056,1.593,1.593,0,0,0-1.169-.393,1.844,1.844,0,0,0-1.135.342,1.007,1.007,0,0,0-.458.827H-5.192A1.745,1.745,0,0,1-4.8-6.416a2.683,2.683,0,0,1,1.066-.817,3.588,3.588,0,0,1,1.48-.3,2.924,2.924,0,0,1,2,.639A2.306,2.306,0,0,1,.5-5.134v3.4a4.162,4.162,0,0,0,.26,1.62V0Zm-2.1-.964a2.223,2.223,0,0,0,1.128-.308,1.861,1.861,0,0,0,.772-.8V-3.589h-.991q-2.324,0-2.324,1.36a1.151,1.151,0,0,0,.4.93A1.524,1.524,0,0,0-2.663-.964ZM5.452-.9a1.822,1.822,0,0,0,1.183-.41,1.443,1.443,0,0,0,.561-1.025h1.2a2.293,2.293,0,0,1-.437,1.21,2.881,2.881,0,0,1-1.077.916A3.107,3.107,0,0,1,5.452.137a3.047,3.047,0,0,1-2.4-1.008A4.016,4.016,0,0,1,2.157-3.63v-.212a4.453,4.453,0,0,1,.4-1.921A3.02,3.02,0,0,1,3.691-7.068a3.233,3.233,0,0,1,1.753-.465,2.966,2.966,0,0,1,2.068.745,2.663,2.663,0,0,1,.878,1.935h-1.2a1.743,1.743,0,0,0-.543-1.179,1.691,1.691,0,0,0-1.207-.461A1.77,1.77,0,0,0,3.951-5.8a3.259,3.259,0,0,0-.53,2.006v.239a3.194,3.194,0,0,0,.526,1.969A1.779,1.779,0,0,0,5.452-.9Zm5.735.9H9.922V-7.4h1.265ZM9.82-9.358a.755.755,0,0,1,.188-.52.706.706,0,0,1,.557-.212.717.717,0,0,1,.561.212.747.747,0,0,1,.191.52.722.722,0,0,1-.191.513.73.73,0,0,1-.561.205.718.718,0,0,1-.557-.205A.73.73,0,0,1,9.82-9.358Zm3.056,5.592A4.369,4.369,0,0,1,13.3-5.722a3.187,3.187,0,0,1,1.189-1.34,3.238,3.238,0,0,1,1.74-.472,3.119,3.119,0,0,1,2.444,1.046,4.024,4.024,0,0,1,.933,2.782v.089A4.407,4.407,0,0,1,19.2-1.678,3.14,3.14,0,0,1,18.013-.342a3.275,3.275,0,0,1-1.767.479A3.111,3.111,0,0,1,13.809-.909a4,4,0,0,1-.933-2.769Zm1.271.15a3.164,3.164,0,0,0,.571,1.976A1.827,1.827,0,0,0,16.246-.9a1.816,1.816,0,0,0,1.531-.755,3.46,3.46,0,0,0,.567-2.116,3.159,3.159,0,0,0-.578-1.972,1.836,1.836,0,0,0-1.535-.755,1.816,1.816,0,0,0-1.511.745A3.434,3.434,0,0,0,14.147-3.616ZM16.806-10.5h1.531L16.505-8.49H15.487Zm5.585,3.1.041.93a2.7,2.7,0,0,1,2.215-1.066q2.345,0,2.365,2.646V0H25.748V-4.895a1.7,1.7,0,0,0-.366-1.183,1.466,1.466,0,0,0-1.118-.383,1.825,1.825,0,0,0-1.08.328,2.228,2.228,0,0,0-.725.861V0H21.195V-7.4ZM34.805-1.853,36.528-7.4h1.354L34.908,1.142q-.69,1.846-2.194,1.846l-.239-.021L32,2.878V1.853l.342.027a1.683,1.683,0,0,0,1-.26,1.88,1.88,0,0,0,.591-.95l.28-.752L31.579-7.4h1.381ZM-33.486,11.738a3.79,3.79,0,0,0-.622-.048A1.667,1.667,0,0,0-35.8,12.75V18h-1.265V10.6h1.23l.021.854a1.969,1.969,0,0,1,1.764-.991,1.292,1.292,0,0,1,.561.1Zm4.1,6.4a3.232,3.232,0,0,1-2.447-.988,3.666,3.666,0,0,1-.943-2.642v-.232a4.438,4.438,0,0,1,.42-1.965,3.28,3.28,0,0,1,1.176-1.354,2.956,2.956,0,0,1,1.637-.489,2.77,2.77,0,0,1,2.242.95,4.114,4.114,0,0,1,.8,2.721v.526H-31.51a2.629,2.629,0,0,0,.639,1.767,2.009,2.009,0,0,0,1.555.673,2.2,2.2,0,0,0,1.135-.273,2.851,2.851,0,0,0,.813-.725l.772.6A3.106,3.106,0,0,1-29.384,18.137Zm-.157-6.631a1.687,1.687,0,0,0-1.285.557,2.708,2.708,0,0,0-.643,1.562h3.705v-.1a2.409,2.409,0,0,0-.52-1.494A1.588,1.588,0,0,0-29.542,11.506Zm7.472,5.6a1.822,1.822,0,0,0,1.183-.41,1.443,1.443,0,0,0,.561-1.025h1.2a2.293,2.293,0,0,1-.437,1.21,2.881,2.881,0,0,1-1.077.916,3.107,3.107,0,0,1-1.425.342,3.047,3.047,0,0,1-2.4-1.008,4.016,4.016,0,0,1-.892-2.758v-.212a4.453,4.453,0,0,1,.4-1.921,3.02,3.02,0,0,1,1.138-1.306,3.233,3.233,0,0,1,1.753-.465,2.966,2.966,0,0,1,2.068.745,2.663,2.663,0,0,1,.878,1.935h-1.2a1.743,1.743,0,0,0-.543-1.179,1.691,1.691,0,0,0-1.207-.461,1.77,1.77,0,0,0-1.494.694,3.259,3.259,0,0,0-.53,2.006v.239a3.194,3.194,0,0,0,.526,1.969A1.779,1.779,0,0,0-22.07,17.1Zm4.026-2.871a4.369,4.369,0,0,1,.427-1.955,3.187,3.187,0,0,1,1.189-1.34,3.238,3.238,0,0,1,1.74-.472,3.119,3.119,0,0,1,2.444,1.046,4.024,4.024,0,0,1,.933,2.782v.089a4.407,4.407,0,0,1-.414,1.938,3.14,3.14,0,0,1-1.183,1.336,3.275,3.275,0,0,1-1.767.479,3.111,3.111,0,0,1-2.437-1.046,4,4,0,0,1-.933-2.769Zm1.271.15a3.164,3.164,0,0,0,.571,1.976,1.827,1.827,0,0,0,1.528.745,1.816,1.816,0,0,0,1.531-.755,3.46,3.46,0,0,0,.567-2.116,3.159,3.159,0,0,0-.578-1.972,1.836,1.836,0,0,0-1.535-.755,1.816,1.816,0,0,0-1.511.745A3.435,3.435,0,0,0-16.772,14.384Zm13.3,0A4.429,4.429,0,0,1-4.249,17.1,2.476,2.476,0,0,1-6.34,18.137a2.713,2.713,0,0,1-2.119-.854v3.562H-9.724V10.6h1.155l.062.82a2.605,2.605,0,0,1,2.146-.957,2.522,2.522,0,0,1,2.109,1,4.477,4.477,0,0,1,.776,2.8Zm-1.265-.144a3.268,3.268,0,0,0-.533-1.976,1.718,1.718,0,0,0-1.463-.725,1.859,1.859,0,0,0-1.723,1.019v3.534A1.863,1.863,0,0,0-6.723,17.1a1.71,1.71,0,0,0,1.446-.721A3.567,3.567,0,0,0-4.741,14.24ZM-.5,18H-1.76V10.6H-.5ZM-1.863,8.642a.755.755,0,0,1,.188-.52.706.706,0,0,1,.557-.212.717.717,0,0,1,.561.212.747.747,0,0,1,.191.52.722.722,0,0,1-.191.513.73.73,0,0,1-.561.205.718.718,0,0,1-.557-.205A.73.73,0,0,1-1.863,8.642ZM2.9,18H1.637V7.5H2.9Zm6.59,0a2.657,2.657,0,0,1-.178-.779,2.822,2.822,0,0,1-2.105.916,2.611,2.611,0,0,1-1.794-.619,2,2,0,0,1-.7-1.569,2.091,2.091,0,0,1,.878-1.794,4.142,4.142,0,0,1,2.471-.639h1.23v-.581a1.42,1.42,0,0,0-.4-1.056,1.593,1.593,0,0,0-1.169-.393,1.844,1.844,0,0,0-1.135.342,1.007,1.007,0,0,0-.458.827H4.864a1.745,1.745,0,0,1,.393-1.07,2.683,2.683,0,0,1,1.066-.817,3.588,3.588,0,0,1,1.48-.3,2.924,2.924,0,0,1,2,.639,2.306,2.306,0,0,1,.752,1.76v3.4a4.162,4.162,0,0,0,.26,1.62V18Zm-2.1-.964a2.223,2.223,0,0,0,1.128-.308,1.861,1.861,0,0,0,.772-.8V14.411H8.3q-2.324,0-2.324,1.36a1.151,1.151,0,0,0,.4.93A1.524,1.524,0,0,0,7.393,17.036Zm8.114.068a1.822,1.822,0,0,0,1.183-.41,1.443,1.443,0,0,0,.561-1.025h1.2a2.293,2.293,0,0,1-.437,1.21,2.881,2.881,0,0,1-1.077.916,3.107,3.107,0,0,1-1.425.342,3.047,3.047,0,0,1-2.4-1.008,4.016,4.016,0,0,1-.892-2.758v-.212a4.453,4.453,0,0,1,.4-1.921,3.02,3.02,0,0,1,1.138-1.306,3.233,3.233,0,0,1,1.753-.465,2.966,2.966,0,0,1,2.068.745,2.663,2.663,0,0,1,.878,1.935h-1.2a1.743,1.743,0,0,0-.543-1.179,1.691,1.691,0,0,0-1.207-.461,1.77,1.77,0,0,0-1.494.694,3.259,3.259,0,0,0-.53,2.006v.239A3.194,3.194,0,0,0,14,16.414,1.779,1.779,0,0,0,15.507,17.1Zm5.735.9H19.978V10.6h1.265ZM19.875,8.642a.755.755,0,0,1,.188-.52.706.706,0,0,1,.557-.212.717.717,0,0,1,.561.212.747.747,0,0,1,.191.52.722.722,0,0,1-.191.513.73.73,0,0,1-.561.205.718.718,0,0,1-.557-.205A.73.73,0,0,1,19.875,8.642Zm3.056,5.592a4.369,4.369,0,0,1,.427-1.955,3.187,3.187,0,0,1,1.189-1.34,3.238,3.238,0,0,1,1.74-.472,3.119,3.119,0,0,1,2.444,1.046,4.024,4.024,0,0,1,.933,2.782v.089a4.407,4.407,0,0,1-.414,1.938,3.14,3.14,0,0,1-1.183,1.336,3.275,3.275,0,0,1-1.767.479,3.111,3.111,0,0,1-2.437-1.046,4,4,0,0,1-.933-2.769Zm1.271.15a3.164,3.164,0,0,0,.571,1.976,1.934,1.934,0,0,0,3.059-.01,3.46,3.46,0,0,0,.567-2.116,3.159,3.159,0,0,0-.578-1.972,1.836,1.836,0,0,0-1.535-.755,1.816,1.816,0,0,0-1.511.745A3.435,3.435,0,0,0,24.2,14.384ZM26.862,7.5h1.531L26.561,9.51H25.542Zm5.585,3.1.041.93A2.7,2.7,0,0,1,34.7,10.467q2.345,0,2.365,2.646V18H35.8V13.105a1.7,1.7,0,0,0-.366-1.183,1.466,1.466,0,0,0-1.118-.383,1.825,1.825,0,0,0-1.08.328,2.228,2.228,0,0,0-.725.861V18H31.25V10.6Z" transform="translate(575 3742.658)" fill="#00223d"/>
      <path id="Trazado_125941" data-name="Trazado 125941" d="M0,0H89V39.957H0Z" transform="translate(651 3726.658)" fill="#f7eab0"/>
      <path id="Trazado_125942" data-name="Trazado 125942" d="M-29.726-3.616A4.429,4.429,0,0,1-30.5-.9,2.476,2.476,0,0,1-32.59.137a2.713,2.713,0,0,1-2.119-.854V2.844h-1.265V-7.4h1.155l.062.82a2.605,2.605,0,0,1,2.146-.957,2.522,2.522,0,0,1,2.109,1,4.477,4.477,0,0,1,.776,2.8Zm-1.265-.144a3.268,3.268,0,0,0-.533-1.976,1.718,1.718,0,0,0-1.463-.725,1.859,1.859,0,0,0-1.723,1.019v3.534A1.863,1.863,0,0,0-32.973-.9a1.71,1.71,0,0,0,1.446-.721A3.567,3.567,0,0,0-30.991-3.76Zm6.446-2.5a3.79,3.79,0,0,0-.622-.048,1.667,1.667,0,0,0-1.688,1.06V0H-28.12V-7.4h1.23l.021.854A1.969,1.969,0,0,1-25.1-7.533a1.292,1.292,0,0,1,.561.1Zm4.1,6.4A3.232,3.232,0,0,1-22.89-.851a3.666,3.666,0,0,1-.943-2.642v-.232a4.438,4.438,0,0,1,.42-1.965,3.28,3.28,0,0,1,1.176-1.354A2.956,2.956,0,0,1-20.6-7.533a2.77,2.77,0,0,1,2.242.95,4.114,4.114,0,0,1,.8,2.721v.526h-5.011a2.629,2.629,0,0,0,.639,1.767A2.009,2.009,0,0,0-20.375-.9a2.2,2.2,0,0,0,1.135-.273,2.851,2.851,0,0,0,.813-.725l.772.6A3.106,3.106,0,0,1-20.443.137ZM-20.6-6.494a1.687,1.687,0,0,0-1.285.557,2.708,2.708,0,0,0-.643,1.562h3.705v-.1a2.409,2.409,0,0,0-.52-1.494A1.588,1.588,0,0,0-20.6-6.494ZM-9.847-3.616A4.429,4.429,0,0,1-10.62-.9,2.476,2.476,0,0,1-12.711.137a2.713,2.713,0,0,1-2.119-.854V2.844H-16.1V-7.4h1.155l.062.82a2.605,2.605,0,0,1,2.146-.957,2.522,2.522,0,0,1,2.109,1,4.477,4.477,0,0,1,.776,2.8Zm-1.265-.144a3.268,3.268,0,0,0-.533-1.976,1.718,1.718,0,0,0-1.463-.725,1.859,1.859,0,0,0-1.723,1.019v3.534A1.863,1.863,0,0,0-13.094-.9a1.71,1.71,0,0,0,1.446-.721A3.567,3.567,0,0,0-11.112-3.76ZM-3.674,0a2.657,2.657,0,0,1-.178-.779A2.822,2.822,0,0,1-5.958.137,2.611,2.611,0,0,1-7.752-.482a2,2,0,0,1-.7-1.569,2.091,2.091,0,0,1,.878-1.794A4.142,4.142,0,0,1-5.1-4.484h1.23v-.581a1.42,1.42,0,0,0-.4-1.056,1.593,1.593,0,0,0-1.169-.393,1.844,1.844,0,0,0-1.135.342,1.007,1.007,0,0,0-.458.827H-8.3a1.745,1.745,0,0,1,.393-1.07,2.683,2.683,0,0,1,1.066-.817,3.588,3.588,0,0,1,1.48-.3,2.924,2.924,0,0,1,2,.639,2.306,2.306,0,0,1,.752,1.76v3.4a4.162,4.162,0,0,0,.26,1.62V0Zm-2.1-.964a2.223,2.223,0,0,0,1.128-.308,1.861,1.861,0,0,0,.772-.8V-3.589h-.991q-2.324,0-2.324,1.36a1.151,1.151,0,0,0,.4.93A1.524,1.524,0,0,0-5.773-.964Zm8.723-5.3a3.79,3.79,0,0,0-.622-.048A1.667,1.667,0,0,0,.639-5.25V0H-.625V-7.4H.6l.021.854a1.969,1.969,0,0,1,1.764-.991,1.292,1.292,0,0,1,.561.1ZM8.4,0a2.657,2.657,0,0,1-.178-.779A2.822,2.822,0,0,1,6.122.137,2.611,2.611,0,0,1,4.327-.482a2,2,0,0,1-.7-1.569A2.091,2.091,0,0,1,4.5-3.845a4.142,4.142,0,0,1,2.471-.639h1.23v-.581a1.42,1.42,0,0,0-.4-1.056,1.593,1.593,0,0,0-1.169-.393,1.844,1.844,0,0,0-1.135.342,1.007,1.007,0,0,0-.458.827H3.777a1.745,1.745,0,0,1,.393-1.07,2.683,2.683,0,0,1,1.066-.817,3.588,3.588,0,0,1,1.48-.3,2.924,2.924,0,0,1,2,.639,2.306,2.306,0,0,1,.752,1.76v3.4a4.162,4.162,0,0,0,.26,1.62V0Zm-2.1-.964a2.223,2.223,0,0,0,1.128-.308,1.861,1.861,0,0,0,.772-.8V-3.589H7.215q-2.324,0-2.324,1.36a1.151,1.151,0,0,0,.4.93A1.524,1.524,0,0,0,6.306-.964ZM14.42-.9a1.822,1.822,0,0,0,1.183-.41,1.443,1.443,0,0,0,.561-1.025h1.2a2.293,2.293,0,0,1-.437,1.21,2.881,2.881,0,0,1-1.077.916A3.107,3.107,0,0,1,14.42.137a3.047,3.047,0,0,1-2.4-1.008,4.016,4.016,0,0,1-.892-2.758v-.212a4.453,4.453,0,0,1,.4-1.921A3.02,3.02,0,0,1,12.66-7.068a3.233,3.233,0,0,1,1.753-.465,2.966,2.966,0,0,1,2.068.745,2.663,2.663,0,0,1,.878,1.935h-1.2a1.743,1.743,0,0,0-.543-1.179,1.691,1.691,0,0,0-1.207-.461A1.77,1.77,0,0,0,12.92-5.8a3.259,3.259,0,0,0-.53,2.006v.239a3.194,3.194,0,0,0,.526,1.969A1.779,1.779,0,0,0,14.42-.9Zm5.735.9H18.891V-7.4h1.265ZM18.789-9.358a.755.755,0,0,1,.188-.52.706.706,0,0,1,.557-.212.717.717,0,0,1,.561.212.747.747,0,0,1,.191.52.722.722,0,0,1-.191.513.73.73,0,0,1-.561.205.718.718,0,0,1-.557-.205A.73.73,0,0,1,18.789-9.358Zm3.056,5.592a4.369,4.369,0,0,1,.427-1.955,3.187,3.187,0,0,1,1.189-1.34,3.238,3.238,0,0,1,1.74-.472,3.119,3.119,0,0,1,2.444,1.046,4.024,4.024,0,0,1,.933,2.782v.089a4.407,4.407,0,0,1-.414,1.938A3.14,3.14,0,0,1,26.981-.342a3.275,3.275,0,0,1-1.767.479A3.111,3.111,0,0,1,22.777-.909a4,4,0,0,1-.933-2.769Zm1.271.15a3.164,3.164,0,0,0,.571,1.976A1.827,1.827,0,0,0,25.214-.9a1.816,1.816,0,0,0,1.531-.755,3.46,3.46,0,0,0,.567-2.116,3.159,3.159,0,0,0-.578-1.972A1.836,1.836,0,0,0,25.2-6.494a1.816,1.816,0,0,0-1.511.745A3.434,3.434,0,0,0,23.116-3.616ZM25.775-10.5h1.531L25.474-8.49H24.456ZM31.36-7.4l.041.93a2.7,2.7,0,0,1,2.215-1.066q2.345,0,2.365,2.646V0H34.716V-4.895a1.7,1.7,0,0,0-.366-1.183,1.466,1.466,0,0,0-1.118-.383,1.825,1.825,0,0,0-1.08.328,2.228,2.228,0,0,0-.725.861V0H30.164V-7.4ZM-26.315,14.24a4.333,4.333,0,0,1,.807-2.738A2.551,2.551,0,0,1-23.4,10.467a2.565,2.565,0,0,1,2.058.889V7.5h1.265V18h-1.162l-.062-.793a2.575,2.575,0,0,1-2.112.93,2.526,2.526,0,0,1-2.1-1.053,4.382,4.382,0,0,1-.81-2.748Zm1.265.144a3.281,3.281,0,0,0,.52,1.969,1.68,1.68,0,0,0,1.436.711,1.845,1.845,0,0,0,1.757-1.08v-3.4a1.859,1.859,0,0,0-1.743-1.046,1.687,1.687,0,0,0-1.449.718A3.612,3.612,0,0,0-25.05,14.384Zm10.008,3.753a3.232,3.232,0,0,1-2.447-.988,3.666,3.666,0,0,1-.943-2.642v-.232a4.438,4.438,0,0,1,.42-1.965,3.28,3.28,0,0,1,1.176-1.354,2.956,2.956,0,0,1,1.637-.489,2.77,2.77,0,0,1,2.242.95,4.114,4.114,0,0,1,.8,2.721v.526h-5.011a2.629,2.629,0,0,0,.639,1.767,2.009,2.009,0,0,0,1.555.673,2.2,2.2,0,0,0,1.135-.273,2.851,2.851,0,0,0,.813-.725l.772.6A3.106,3.106,0,0,1-15.042,18.137Zm-.157-6.631a1.687,1.687,0,0,0-1.285.557,2.708,2.708,0,0,0-.643,1.562h3.705v-.1a2.409,2.409,0,0,0-.52-1.494A1.588,1.588,0,0,0-15.2,11.506Zm7.663,2.734A4.333,4.333,0,0,1-6.73,11.5a2.551,2.551,0,0,1,2.112-1.036,2.565,2.565,0,0,1,2.058.889V7.5H-1.3V18H-2.458l-.062-.793a2.575,2.575,0,0,1-2.112.93,2.526,2.526,0,0,1-2.1-1.053,4.382,4.382,0,0,1-.81-2.748Zm1.265.144a3.281,3.281,0,0,0,.52,1.969,1.68,1.68,0,0,0,1.436.711,1.845,1.845,0,0,0,1.757-1.08v-3.4A1.859,1.859,0,0,0-4.3,11.54a1.687,1.687,0,0,0-1.449.718A3.612,3.612,0,0,0-6.272,14.384ZM5.233,18a2.657,2.657,0,0,1-.178-.779,2.822,2.822,0,0,1-2.105.916,2.611,2.611,0,0,1-1.794-.619,2,2,0,0,1-.7-1.569,2.091,2.091,0,0,1,.878-1.794A4.142,4.142,0,0,1,3.8,13.516h1.23v-.581a1.42,1.42,0,0,0-.4-1.056,1.593,1.593,0,0,0-1.169-.393,1.844,1.844,0,0,0-1.135.342,1.007,1.007,0,0,0-.458.827H.6A1.745,1.745,0,0,1,1,11.584a2.683,2.683,0,0,1,1.066-.817,3.588,3.588,0,0,1,1.48-.3,2.924,2.924,0,0,1,2,.639,2.306,2.306,0,0,1,.752,1.76v3.4a4.162,4.162,0,0,0,.26,1.62V18Zm-2.1-.964a2.223,2.223,0,0,0,1.128-.308,1.861,1.861,0,0,0,.772-.8V14.411H4.043q-2.324,0-2.324,1.36a1.151,1.151,0,0,0,.4.93A1.524,1.524,0,0,0,3.134,17.036ZM10,8.813V10.6h1.381v.978H10v4.587a1.024,1.024,0,0,0,.185.667.777.777,0,0,0,.629.222,3.062,3.062,0,0,0,.6-.082V18a3.666,3.666,0,0,1-.971.137,1.575,1.575,0,0,1-1.278-.513,2.2,2.2,0,0,1-.431-1.456V11.581H7.386V10.6H8.733V8.813Zm2.386,5.421a4.369,4.369,0,0,1,.427-1.955A3.187,3.187,0,0,1,14,10.938a3.238,3.238,0,0,1,1.74-.472,3.119,3.119,0,0,1,2.444,1.046,4.024,4.024,0,0,1,.933,2.782v.089a4.407,4.407,0,0,1-.414,1.938,3.14,3.14,0,0,1-1.183,1.336,3.275,3.275,0,0,1-1.767.479,3.111,3.111,0,0,1-2.437-1.046,4,4,0,0,1-.933-2.769Zm1.271.15a3.164,3.164,0,0,0,.571,1.976,1.934,1.934,0,0,0,3.059-.01,3.46,3.46,0,0,0,.567-2.116,3.159,3.159,0,0,0-.578-1.972,1.836,1.836,0,0,0-1.535-.755,1.816,1.816,0,0,0-1.511.745A3.435,3.435,0,0,0,13.655,14.384Zm11.354,1.654a.931.931,0,0,0-.386-.8,3.718,3.718,0,0,0-1.347-.489,6.367,6.367,0,0,1-1.524-.492,2.169,2.169,0,0,1-.834-.684,1.635,1.635,0,0,1-.27-.943,1.919,1.919,0,0,1,.769-1.538,3,3,0,0,1,1.965-.629,3.091,3.091,0,0,1,2.041.649,2.063,2.063,0,0,1,.783,1.661H24.934a1.142,1.142,0,0,0-.441-.9,1.652,1.652,0,0,0-1.111-.376,1.729,1.729,0,0,0-1.08.3.947.947,0,0,0-.39.786.767.767,0,0,0,.362.69,4.458,4.458,0,0,0,1.309.444,6.821,6.821,0,0,1,1.535.506,2.239,2.239,0,0,1,.872.708,1.74,1.74,0,0,1,.284,1.008,1.893,1.893,0,0,1-.793,1.589,3.326,3.326,0,0,1-2.058.6,3.725,3.725,0,0,1-1.572-.314,2.557,2.557,0,0,1-1.07-.878,2.117,2.117,0,0,1-.386-1.22H21.66a1.309,1.309,0,0,0,.509,1.008,1.976,1.976,0,0,0,1.254.373,2.039,2.039,0,0,0,1.152-.291A.893.893,0,0,0,25.009,16.038Z" transform="translate(696 3742.658)" fill="#00223d"/>
      <path id="Trazado_125943" data-name="Trazado 125943" d="M0,0H76V33H0Z" transform="translate(787 3729.658)" fill="#f7eab0"/>
      <path id="Trazado_125944" data-name="Trazado 125944" d="M-29.083-7.4l.034.82a2.732,2.732,0,0,1,2.194-.957,2.115,2.115,0,0,1,2.112,1.189,2.8,2.8,0,0,1,.96-.861,2.837,2.837,0,0,1,1.4-.328q2.434,0,2.475,2.577V0h-1.265V-4.881a1.7,1.7,0,0,0-.362-1.186,1.6,1.6,0,0,0-1.217-.393,1.677,1.677,0,0,0-1.169.42,1.706,1.706,0,0,0-.54,1.131V0h-1.271V-4.847A1.411,1.411,0,0,0-27.313-6.46a1.692,1.692,0,0,0-1.7,1.06V0H-30.28V-7.4Zm10.746,3.63a4.369,4.369,0,0,1,.427-1.955,3.187,3.187,0,0,1,1.189-1.34,3.238,3.238,0,0,1,1.74-.472,3.119,3.119,0,0,1,2.444,1.046A4.024,4.024,0,0,1-11.6-3.705v.089a4.407,4.407,0,0,1-.414,1.938A3.14,3.14,0,0,1-13.2-.342a3.275,3.275,0,0,1-1.767.479A3.111,3.111,0,0,1-17.4-.909a4,4,0,0,1-.933-2.769Zm1.271.15A3.164,3.164,0,0,0-16.5-1.641,1.827,1.827,0,0,0-14.967-.9a1.816,1.816,0,0,0,1.531-.755,3.46,3.46,0,0,0,.567-2.116,3.159,3.159,0,0,0-.578-1.972,1.836,1.836,0,0,0-1.535-.755,1.816,1.816,0,0,0-1.511.745A3.434,3.434,0,0,0-17.066-3.616Zm6.74-.144A4.333,4.333,0,0,1-9.519-6.5,2.551,2.551,0,0,1-7.407-7.533a2.565,2.565,0,0,1,2.058.889V-10.5h1.265V0H-5.247l-.062-.793A2.575,2.575,0,0,1-7.42.137a2.526,2.526,0,0,1-2.1-1.053,4.382,4.382,0,0,1-.81-2.748Zm1.265.144a3.281,3.281,0,0,0,.52,1.969,1.68,1.68,0,0,0,1.436.711,1.845,1.845,0,0,0,1.757-1.08v-3.4A1.859,1.859,0,0,0-7.092-6.46a1.687,1.687,0,0,0-1.449.718A3.612,3.612,0,0,0-9.061-3.616ZM.947.137A3.232,3.232,0,0,1-1.5-.851a3.666,3.666,0,0,1-.943-2.642v-.232a4.438,4.438,0,0,1,.42-1.965A3.28,3.28,0,0,1-.848-7.044,2.956,2.956,0,0,1,.79-7.533a2.77,2.77,0,0,1,2.242.95,4.114,4.114,0,0,1,.8,2.721v.526H-1.179A2.629,2.629,0,0,0-.54-1.569,2.009,2.009,0,0,0,1.015-.9,2.2,2.2,0,0,0,2.15-1.169a2.851,2.851,0,0,0,.813-.725l.772.6A3.106,3.106,0,0,1,.947.137ZM.79-6.494A1.687,1.687,0,0,0-.5-5.937a2.708,2.708,0,0,0-.643,1.562H2.567v-.1a2.409,2.409,0,0,0-.52-1.494A1.588,1.588,0,0,0,.79-6.494ZM6.668,0H5.4V-10.5H6.668Zm6.59,0a2.657,2.657,0,0,1-.178-.779,2.822,2.822,0,0,1-2.105.916A2.611,2.611,0,0,1,9.181-.482a2,2,0,0,1-.7-1.569,2.091,2.091,0,0,1,.878-1.794,4.142,4.142,0,0,1,2.471-.639h1.23v-.581a1.42,1.42,0,0,0-.4-1.056,1.593,1.593,0,0,0-1.169-.393,1.844,1.844,0,0,0-1.135.342,1.007,1.007,0,0,0-.458.827H8.63a1.745,1.745,0,0,1,.393-1.07,2.683,2.683,0,0,1,1.066-.817,3.588,3.588,0,0,1,1.48-.3,2.924,2.924,0,0,1,2,.639,2.306,2.306,0,0,1,.752,1.76v3.4a4.162,4.162,0,0,0,.26,1.62V0Zm-2.1-.964a2.223,2.223,0,0,0,1.128-.308,1.861,1.861,0,0,0,.772-.8V-3.589h-.991q-2.324,0-2.324,1.36a1.151,1.151,0,0,0,.4.93A1.524,1.524,0,0,0,11.16-.964ZM16-3.76A4.333,4.333,0,0,1,16.806-6.5a2.551,2.551,0,0,1,2.112-1.036,2.565,2.565,0,0,1,2.058.889V-10.5h1.265V0H21.079l-.062-.793A2.575,2.575,0,0,1,18.9.137a2.526,2.526,0,0,1-2.1-1.053A4.382,4.382,0,0,1,16-3.664Zm1.265.144a3.281,3.281,0,0,0,.52,1.969,1.68,1.68,0,0,0,1.436.711,1.845,1.845,0,0,0,1.757-1.08v-3.4A1.859,1.859,0,0,0,19.233-6.46a1.687,1.687,0,0,0-1.449.718A3.612,3.612,0,0,0,17.264-3.616Zm6.6-.15a4.369,4.369,0,0,1,.427-1.955,3.187,3.187,0,0,1,1.189-1.34,3.238,3.238,0,0,1,1.74-.472,3.119,3.119,0,0,1,2.444,1.046A4.024,4.024,0,0,1,30.6-3.705v.089a4.407,4.407,0,0,1-.414,1.938A3.14,3.14,0,0,1,29-.342a3.275,3.275,0,0,1-1.767.479A3.111,3.111,0,0,1,24.8-.909a4,4,0,0,1-.933-2.769Zm1.271.15a3.164,3.164,0,0,0,.571,1.976A1.827,1.827,0,0,0,27.238-.9a1.816,1.816,0,0,0,1.531-.755,3.46,3.46,0,0,0,.567-2.116,3.159,3.159,0,0,0-.578-1.972,1.836,1.836,0,0,0-1.535-.755,1.816,1.816,0,0,0-1.511.745A3.434,3.434,0,0,0,25.139-3.616Z" transform="translate(825 3749.658)" fill="#00223d"/>
      <path id="Trazado_125945" data-name="Trazado 125945" d="M0,0H82.346V30H0Z" transform="translate(930 3730.658)" fill="#f7eab0"/>
      <path id="Trazado_125946" data-name="Trazado 125946" d="M-29.367.137a3.232,3.232,0,0,1-2.447-.988,3.666,3.666,0,0,1-.943-2.642v-.232a4.438,4.438,0,0,1,.42-1.965,3.28,3.28,0,0,1,1.176-1.354,2.956,2.956,0,0,1,1.637-.489,2.77,2.77,0,0,1,2.242.95,4.114,4.114,0,0,1,.8,2.721v.526h-5.011a2.629,2.629,0,0,0,.639,1.767A2.009,2.009,0,0,0-29.3-.9a2.2,2.2,0,0,0,1.135-.273,2.851,2.851,0,0,0,.813-.725l.772.6A3.106,3.106,0,0,1-29.367.137Zm-.157-6.631a1.687,1.687,0,0,0-1.285.557,2.708,2.708,0,0,0-.643,1.562h3.705v-.1a2.409,2.409,0,0,0-.52-1.494A1.588,1.588,0,0,0-29.524-6.494Zm6.856,4.778L-20.836-7.4h1.292L-22.2,0h-.964l-2.68-7.4h1.292ZM-13.863,0a2.657,2.657,0,0,1-.178-.779,2.822,2.822,0,0,1-2.105.916,2.611,2.611,0,0,1-1.794-.619,2,2,0,0,1-.7-1.569,2.091,2.091,0,0,1,.878-1.794,4.142,4.142,0,0,1,2.471-.639h1.23v-.581a1.42,1.42,0,0,0-.4-1.056,1.593,1.593,0,0,0-1.169-.393,1.844,1.844,0,0,0-1.135.342,1.007,1.007,0,0,0-.458.827h-1.271a1.745,1.745,0,0,1,.393-1.07,2.683,2.683,0,0,1,1.066-.817,3.588,3.588,0,0,1,1.48-.3,2.924,2.924,0,0,1,2,.639,2.306,2.306,0,0,1,.752,1.76v3.4a4.162,4.162,0,0,0,.26,1.62V0Zm-2.1-.964a2.223,2.223,0,0,0,1.128-.308,1.861,1.861,0,0,0,.772-.8V-3.589h-.991q-2.324,0-2.324,1.36a1.151,1.151,0,0,0,.4.93A1.524,1.524,0,0,0-15.962-.964ZM-9.44,0h-1.265V-10.5H-9.44Zm6.59-.731A2.686,2.686,0,0,1-5.018.137a2.3,2.3,0,0,1-1.8-.687,2.974,2.974,0,0,1-.625-2.034V-7.4H-6.18v4.778q0,1.682,1.367,1.682a1.893,1.893,0,0,0,1.928-1.08V-7.4H-1.62V0h-1.2ZM4.867,0a2.657,2.657,0,0,1-.178-.779A2.822,2.822,0,0,1,2.584.137,2.611,2.611,0,0,1,.79-.482a2,2,0,0,1-.7-1.569A2.091,2.091,0,0,1,.967-3.845a4.142,4.142,0,0,1,2.471-.639h1.23v-.581a1.42,1.42,0,0,0-.4-1.056A1.593,1.593,0,0,0,3.1-6.515a1.844,1.844,0,0,0-1.135.342,1.007,1.007,0,0,0-.458.827H.239a1.745,1.745,0,0,1,.393-1.07A2.683,2.683,0,0,1,1.7-7.232a3.588,3.588,0,0,1,1.48-.3,2.924,2.924,0,0,1,2,.639,2.306,2.306,0,0,1,.752,1.76v3.4a4.162,4.162,0,0,0,.26,1.62V0Zm-2.1-.964A2.223,2.223,0,0,0,3.9-1.271a1.861,1.861,0,0,0,.772-.8V-3.589H3.678q-2.324,0-2.324,1.36a1.151,1.151,0,0,0,.4.93A1.524,1.524,0,0,0,2.769-.964ZM10.883-.9a1.822,1.822,0,0,0,1.183-.41,1.443,1.443,0,0,0,.561-1.025h1.2a2.293,2.293,0,0,1-.437,1.21,2.881,2.881,0,0,1-1.077.916,3.107,3.107,0,0,1-1.425.342A3.047,3.047,0,0,1,8.48-.872,4.016,4.016,0,0,1,7.588-3.63v-.212a4.453,4.453,0,0,1,.4-1.921A3.02,3.02,0,0,1,9.123-7.068a3.233,3.233,0,0,1,1.753-.465,2.966,2.966,0,0,1,2.068.745,2.663,2.663,0,0,1,.878,1.935h-1.2a1.743,1.743,0,0,0-.543-1.179,1.691,1.691,0,0,0-1.207-.461A1.77,1.77,0,0,0,9.382-5.8a3.259,3.259,0,0,0-.53,2.006v.239a3.194,3.194,0,0,0,.526,1.969A1.779,1.779,0,0,0,10.883-.9Zm5.735.9H15.354V-7.4h1.265ZM15.251-9.358a.755.755,0,0,1,.188-.52A.706.706,0,0,1,16-10.09a.717.717,0,0,1,.561.212.747.747,0,0,1,.191.52.722.722,0,0,1-.191.513A.73.73,0,0,1,16-8.641a.718.718,0,0,1-.557-.205A.73.73,0,0,1,15.251-9.358Zm3.056,5.592a4.369,4.369,0,0,1,.427-1.955,3.187,3.187,0,0,1,1.189-1.34,3.238,3.238,0,0,1,1.74-.472,3.119,3.119,0,0,1,2.444,1.046,4.024,4.024,0,0,1,.933,2.782v.089a4.407,4.407,0,0,1-.414,1.938A3.14,3.14,0,0,1,23.444-.342a3.275,3.275,0,0,1-1.767.479A3.111,3.111,0,0,1,19.24-.909a4,4,0,0,1-.933-2.769Zm1.271.15a3.164,3.164,0,0,0,.571,1.976A1.827,1.827,0,0,0,21.677-.9a1.816,1.816,0,0,0,1.531-.755,3.46,3.46,0,0,0,.567-2.116A3.159,3.159,0,0,0,23.2-5.739a1.836,1.836,0,0,0-1.535-.755,1.816,1.816,0,0,0-1.511.745A3.434,3.434,0,0,0,19.578-3.616ZM22.237-10.5h1.531L21.937-8.49H20.918Zm5.585,3.1.041.93a2.7,2.7,0,0,1,2.215-1.066q2.345,0,2.365,2.646V0H31.179V-4.895a1.7,1.7,0,0,0-.366-1.183A1.466,1.466,0,0,0,29.7-6.46a1.825,1.825,0,0,0-1.08.328,2.228,2.228,0,0,0-.725.861V0H26.626V-7.4Z" transform="translate(970 3747.658)" fill="#00223d"/>
      <path id="Trazado_125947" data-name="Trazado 125947" d="M0,0H76V30H0Z" transform="translate(1051 3730.658)" fill="#f7eab0"/>
      <path id="Trazado_125948" data-name="Trazado 125948" d="M-33.144-3.76A4.333,4.333,0,0,1-32.337-6.5a2.551,2.551,0,0,1,2.112-1.036,2.565,2.565,0,0,1,2.058.889V-10.5H-26.9V0h-1.162l-.062-.793a2.575,2.575,0,0,1-2.112.93,2.526,2.526,0,0,1-2.1-1.053,4.382,4.382,0,0,1-.81-2.748Zm1.265.144a3.281,3.281,0,0,0,.52,1.969,1.68,1.68,0,0,0,1.436.711,1.845,1.845,0,0,0,1.757-1.08v-3.4A1.859,1.859,0,0,0-29.911-6.46a1.687,1.687,0,0,0-1.449.718A3.612,3.612,0,0,0-31.879-3.616ZM-21.872.137a3.232,3.232,0,0,1-2.447-.988,3.666,3.666,0,0,1-.943-2.642v-.232a4.438,4.438,0,0,1,.42-1.965,3.28,3.28,0,0,1,1.176-1.354,2.956,2.956,0,0,1,1.637-.489,2.77,2.77,0,0,1,2.242.95,4.114,4.114,0,0,1,.8,2.721v.526H-24a2.629,2.629,0,0,0,.639,1.767A2.009,2.009,0,0,0-21.8-.9a2.2,2.2,0,0,0,1.135-.273,2.851,2.851,0,0,0,.813-.725l.772.6A3.106,3.106,0,0,1-21.872.137Zm-.157-6.631a1.687,1.687,0,0,0-1.285.557,2.708,2.708,0,0,0-.643,1.562h3.705v-.1a2.409,2.409,0,0,0-.52-1.494A1.588,1.588,0,0,0-22.029-6.494Zm8.812,4.532a.931.931,0,0,0-.386-.8,3.718,3.718,0,0,0-1.347-.489,6.367,6.367,0,0,1-1.524-.492,2.169,2.169,0,0,1-.834-.684,1.635,1.635,0,0,1-.27-.943A1.919,1.919,0,0,1-16.81-6.9a3,3,0,0,1,1.965-.629,3.091,3.091,0,0,1,2.041.649,2.063,2.063,0,0,1,.783,1.661h-1.271a1.142,1.142,0,0,0-.441-.9,1.652,1.652,0,0,0-1.111-.376,1.729,1.729,0,0,0-1.08.3.947.947,0,0,0-.39.786.767.767,0,0,0,.362.69,4.458,4.458,0,0,0,1.309.444,6.821,6.821,0,0,1,1.535.506,2.239,2.239,0,0,1,.872.708,1.74,1.74,0,0,1,.284,1.008,1.893,1.893,0,0,1-.793,1.589,3.326,3.326,0,0,1-2.058.6,3.725,3.725,0,0,1-1.572-.314,2.557,2.557,0,0,1-1.07-.878,2.117,2.117,0,0,1-.386-1.22h1.265a1.309,1.309,0,0,0,.509,1.008A1.976,1.976,0,0,0-14.8-.9a2.039,2.039,0,0,0,1.152-.291A.893.893,0,0,0-13.217-1.962Zm9.16-1.654A4.429,4.429,0,0,1-4.83-.9,2.476,2.476,0,0,1-6.921.137,2.713,2.713,0,0,1-9.041-.718V2.844h-1.265V-7.4H-9.15l.062.82a2.605,2.605,0,0,1,2.146-.957,2.522,2.522,0,0,1,2.109,1,4.477,4.477,0,0,1,.776,2.8ZM-5.322-3.76a3.268,3.268,0,0,0-.533-1.976A1.718,1.718,0,0,0-7.318-6.46,1.859,1.859,0,0,0-9.041-5.441v3.534A1.863,1.863,0,0,0-7.3-.9a1.71,1.71,0,0,0,1.446-.721A3.567,3.567,0,0,0-5.322-3.76ZM-1.077,0H-2.341V-10.5h1.265Zm3.4,0H1.056V-7.4H2.321ZM.954-9.358a.755.755,0,0,1,.188-.52A.706.706,0,0,1,1.7-10.09a.717.717,0,0,1,.561.212.747.747,0,0,1,.191.52.722.722,0,0,1-.191.513.73.73,0,0,1-.561.205.718.718,0,0,1-.557-.205A.73.73,0,0,1,.954-9.358Zm6.46,9.5A3.232,3.232,0,0,1,4.966-.851a3.666,3.666,0,0,1-.943-2.642v-.232a4.438,4.438,0,0,1,.42-1.965A3.28,3.28,0,0,1,5.619-7.044a2.956,2.956,0,0,1,1.637-.489,2.77,2.77,0,0,1,2.242.95,4.114,4.114,0,0,1,.8,2.721v.526H5.288a2.629,2.629,0,0,0,.639,1.767A2.009,2.009,0,0,0,7.482-.9a2.2,2.2,0,0,0,1.135-.273,2.851,2.851,0,0,0,.813-.725l.772.6A3.106,3.106,0,0,1,7.414.137ZM7.256-6.494a1.687,1.687,0,0,0-1.285.557,2.708,2.708,0,0,0-.643,1.562H9.034v-.1a2.409,2.409,0,0,0-.52-1.494A1.588,1.588,0,0,0,7.256-6.494Zm4.2,2.734a4.347,4.347,0,0,1,.8-2.751,2.558,2.558,0,0,1,2.119-1.022,2.544,2.544,0,0,1,2.112.957l.062-.82h1.155V-.178a3.009,3.009,0,0,1-.851,2.263,3.141,3.141,0,0,1-2.287.827,3.8,3.8,0,0,1-1.565-.342,2.7,2.7,0,0,1-1.169-.937l.656-.759a2.473,2.473,0,0,0,1.989,1,1.938,1.938,0,0,0,1.439-.52A1.986,1.986,0,0,0,16.437-.1V-.738a2.6,2.6,0,0,1-2.071.875,2.527,2.527,0,0,1-2.1-1.046A4.571,4.571,0,0,1,11.46-3.76Zm1.271.144a3.316,3.316,0,0,0,.513,1.965,1.666,1.666,0,0,0,1.436.714,1.852,1.852,0,0,0,1.757-1.087V-5.4a1.874,1.874,0,0,0-1.743-1.06,1.681,1.681,0,0,0-1.442.718A3.612,3.612,0,0,0,12.732-3.616ZM24.182-.731a2.686,2.686,0,0,1-2.167.868,2.3,2.3,0,0,1-1.8-.687,2.974,2.974,0,0,1-.625-2.034V-7.4h1.265v4.778q0,1.682,1.367,1.682a1.893,1.893,0,0,0,1.928-1.08V-7.4h1.265V0h-1.2ZM30.4.137a3.232,3.232,0,0,1-2.447-.988,3.666,3.666,0,0,1-.943-2.642v-.232a4.438,4.438,0,0,1,.42-1.965,3.28,3.28,0,0,1,1.176-1.354,2.956,2.956,0,0,1,1.637-.489,2.77,2.77,0,0,1,2.242.95,4.114,4.114,0,0,1,.8,2.721v.526H28.277a2.629,2.629,0,0,0,.639,1.767A2.009,2.009,0,0,0,30.471-.9a2.2,2.2,0,0,0,1.135-.273,2.851,2.851,0,0,0,.813-.725l.772.6A3.106,3.106,0,0,1,30.4.137Zm-.157-6.631a1.687,1.687,0,0,0-1.285.557,2.708,2.708,0,0,0-.643,1.562h3.705v-.1a2.409,2.409,0,0,0-.52-1.494A1.588,1.588,0,0,0,30.246-6.494Z" transform="translate(1089 3748.658)" fill="#00223d"/>
      <path id="Trazado_125949" data-name="Trazado 125949" d="M0,0H76V30H0Z" transform="translate(1119 3786.658)" fill="#f7eab0"/>
      <path id="Trazado_125950" data-name="Trazado 125950" d="M-19.687-6.262a3.79,3.79,0,0,0-.622-.048A1.667,1.667,0,0,0-22-5.25V0h-1.265V-7.4h1.23l.021.854a1.969,1.969,0,0,1,1.764-.991,1.292,1.292,0,0,1,.561.1Zm4.1,6.4a3.232,3.232,0,0,1-2.447-.988,3.666,3.666,0,0,1-.943-2.642v-.232a4.438,4.438,0,0,1,.42-1.965A3.28,3.28,0,0,1-17.38-7.044a2.956,2.956,0,0,1,1.637-.489,2.77,2.77,0,0,1,2.242.95,4.114,4.114,0,0,1,.8,2.721v.526h-5.011a2.629,2.629,0,0,0,.639,1.767A2.009,2.009,0,0,0-15.518-.9a2.2,2.2,0,0,0,1.135-.273,2.851,2.851,0,0,0,.813-.725l.772.6A3.106,3.106,0,0,1-15.586.137Zm-.157-6.631a1.687,1.687,0,0,0-1.285.557,2.708,2.708,0,0,0-.643,1.562h3.705v-.1a2.409,2.409,0,0,0-.52-1.494A1.588,1.588,0,0,0-15.743-6.494Zm6.856,4.778L-7.055-7.4h1.292L-8.415,0h-.964l-2.68-7.4h1.292ZM-3.172,0H-4.437V-7.4h1.265ZM-4.539-9.358a.755.755,0,0,1,.188-.52.706.706,0,0,1,.557-.212.717.717,0,0,1,.561.212.747.747,0,0,1,.191.52.722.722,0,0,1-.191.513.73.73,0,0,1-.561.205.718.718,0,0,1-.557-.205A.73.73,0,0,1-4.539-9.358Zm7.7,7.4a.931.931,0,0,0-.386-.8,3.718,3.718,0,0,0-1.347-.489A6.367,6.367,0,0,1-.1-3.739a2.169,2.169,0,0,1-.834-.684,1.635,1.635,0,0,1-.27-.943A1.919,1.919,0,0,1-.434-6.9a3,3,0,0,1,1.965-.629,3.091,3.091,0,0,1,2.041.649,2.063,2.063,0,0,1,.783,1.661H3.083a1.142,1.142,0,0,0-.441-.9,1.652,1.652,0,0,0-1.111-.376,1.729,1.729,0,0,0-1.08.3.947.947,0,0,0-.39.786.767.767,0,0,0,.362.69,4.458,4.458,0,0,0,1.309.444,6.821,6.821,0,0,1,1.535.506,2.239,2.239,0,0,1,.872.708,1.74,1.74,0,0,1,.284,1.008A1.893,1.893,0,0,1,3.63-.461a3.326,3.326,0,0,1-2.058.6A3.725,3.725,0,0,1,0-.178a2.557,2.557,0,0,1-1.07-.878,2.117,2.117,0,0,1-.386-1.22H-.191A1.309,1.309,0,0,0,.318-1.268,1.976,1.976,0,0,0,1.572-.9a2.039,2.039,0,0,0,1.152-.291A.893.893,0,0,0,3.158-1.962ZM7.444,0H6.18V-7.4H7.444ZM6.077-9.358a.755.755,0,0,1,.188-.52.706.706,0,0,1,.557-.212.717.717,0,0,1,.561.212.747.747,0,0,1,.191.52.722.722,0,0,1-.191.513.73.73,0,0,1-.561.205.718.718,0,0,1-.557-.205A.73.73,0,0,1,6.077-9.358ZM9.133-3.767A4.369,4.369,0,0,1,9.56-5.722a3.187,3.187,0,0,1,1.189-1.34,3.238,3.238,0,0,1,1.74-.472,3.119,3.119,0,0,1,2.444,1.046,4.024,4.024,0,0,1,.933,2.782v.089a4.407,4.407,0,0,1-.414,1.938A3.14,3.14,0,0,1,14.27-.342,3.275,3.275,0,0,1,12.5.137,3.111,3.111,0,0,1,10.066-.909a4,4,0,0,1-.933-2.769Zm1.271.15a3.164,3.164,0,0,0,.571,1.976A1.827,1.827,0,0,0,12.5-.9a1.816,1.816,0,0,0,1.531-.755A3.46,3.46,0,0,0,14.6-3.767a3.159,3.159,0,0,0-.578-1.972,1.836,1.836,0,0,0-1.535-.755,1.816,1.816,0,0,0-1.511.745A3.434,3.434,0,0,0,10.4-3.616ZM13.063-10.5h1.531L12.763-8.49H11.744Zm5.585,3.1.041.93A2.7,2.7,0,0,1,20.9-7.533q2.345,0,2.365,2.646V0H22V-4.895a1.7,1.7,0,0,0-.366-1.183,1.466,1.466,0,0,0-1.118-.383,1.825,1.825,0,0,0-1.08.328,2.228,2.228,0,0,0-.725.861V0H17.452V-7.4Z" transform="translate(1157 3804.658)" fill="#00223d"/>
    </g>
    <path id="Trazado_125951" data-name="Trazado 125951" d="M8.235-2.391H4.008L3.27,0h-3.3L4.667-12.8h2.9L12.3,0H8.982ZM4.746-4.772H7.5L6.117-9.211ZM6.521-16.225H9.65l-2.443,2.76H4.79ZM15.469-9.51l.1,1.116a3.27,3.27,0,0,1,2.716-1.292,2.407,2.407,0,0,1,2.435,1.433,3.165,3.165,0,0,1,2.795-1.433q2.892,0,2.971,3.5V0H23.511V-6a1.813,1.813,0,0,0-.246-1.063,1.048,1.048,0,0,0-.9-.334,1.4,1.4,0,0,0-1.31.782l.009.123V0H18.1V-5.985a1.906,1.906,0,0,0-.237-1.081,1.045,1.045,0,0,0-.905-.334,1.42,1.42,0,0,0-1.3.782V0H12.691V-9.51ZM37-4.676a5.8,5.8,0,0,1-.967,3.595A3.238,3.238,0,0,1,33.311.176,2.81,2.81,0,0,1,30.973-.976L30.85,0H28.2V-13.5h2.962v4.755a2.711,2.711,0,0,1,2.136-.94,3.239,3.239,0,0,1,2.742,1.274A5.826,5.826,0,0,1,37-4.825ZM34.031-4.86a3.878,3.878,0,0,0-.365-1.956A1.229,1.229,0,0,0,32.546-7.4a1.418,1.418,0,0,0-1.389.765v3.779a1.426,1.426,0,0,0,1.406.756,1.258,1.258,0,0,0,1.327-1.02A7.333,7.333,0,0,0,34.031-4.86ZM41.432,0H38.461V-9.51h2.971ZM38.285-11.962A1.322,1.322,0,0,1,38.742-13a1.724,1.724,0,0,1,1.187-.4,1.724,1.724,0,0,1,1.187.4,1.322,1.322,0,0,1,.457,1.037,1.322,1.322,0,0,1-.457,1.037,1.724,1.724,0,0,1-1.187.4,1.724,1.724,0,0,1-1.187-.4A1.322,1.322,0,0,1,38.285-11.962Zm8.42.088V-9.51H48.27v2.057H46.705V-3.1a1.111,1.111,0,0,0,.193.747,1.037,1.037,0,0,0,.765.211A4.345,4.345,0,0,0,48.4-2.2V-.079a5.466,5.466,0,0,1-1.67.255,3.1,3.1,0,0,1-2.259-.721,2.954,2.954,0,0,1-.729-2.188v-4.72H42.53V-9.51h1.213v-2.364ZM48.8-4.843a5.613,5.613,0,0,1,.554-2.536,3.96,3.96,0,0,1,1.591-1.709,4.791,4.791,0,0,1,2.435-.6,4.373,4.373,0,0,1,3.366,1.323,5.076,5.076,0,0,1,1.23,3.6v.105a4.925,4.925,0,0,1-1.235,3.529A4.384,4.384,0,0,1,53.394.176a4.434,4.434,0,0,1-3.261-1.217,4.761,4.761,0,0,1-1.327-3.3Zm2.962.185a3.538,3.538,0,0,0,.413,1.934,1.376,1.376,0,0,0,1.222.615q1.582,0,1.617-2.435v-.3q0-2.558-1.635-2.558-1.485,0-1.608,2.206Zm8.561,8.1-1.494-.7.3-.6a4.874,4.874,0,0,0,.642-2.18v-2.2h2.373L62.13-.325a4.767,4.767,0,0,1-.519,2.057A5.226,5.226,0,0,1,60.319,3.445Zm19.266-9.58a7.546,7.546,0,0,1-.694,3.313A5.132,5.132,0,0,1,76.917-.6,5.494,5.494,0,0,1,74,.176a5.572,5.572,0,0,1-2.9-.751A5.123,5.123,0,0,1,69.13-2.725a7.329,7.329,0,0,1-.743-3.208v-.721a7.58,7.58,0,0,1,.69-3.318,5.119,5.119,0,0,1,1.978-2.219,5.533,5.533,0,0,1,2.931-.782,5.479,5.479,0,0,1,2.9.773A5.211,5.211,0,0,1,78.869-10a7.362,7.362,0,0,1,.716,3.274Zm-3.138-.536a5.381,5.381,0,0,0-.637-2.9,2.044,2.044,0,0,0-1.824-.989q-2.32,0-2.452,3.48l-.009.94a5.535,5.535,0,0,0,.624,2.892A2.041,2.041,0,0,0,74-2.232a2.016,2.016,0,0,0,1.8-.993,5.383,5.383,0,0,0,.642-2.856Zm13.421,2A5.8,5.8,0,0,1,88.9-1.081,3.238,3.238,0,0,1,86.177.176,2.81,2.81,0,0,1,83.839-.976L83.716,0H81.062V-13.5h2.962v4.755a2.711,2.711,0,0,1,2.136-.94A3.239,3.239,0,0,1,88.9-8.411a5.826,5.826,0,0,1,.967,3.586ZM86.9-4.86a3.878,3.878,0,0,0-.365-1.956A1.229,1.229,0,0,0,85.412-7.4a1.418,1.418,0,0,0-1.389.765v3.779A1.426,1.426,0,0,0,85.43-2.1a1.258,1.258,0,0,0,1.327-1.02A7.333,7.333,0,0,0,86.9-4.86ZM94.359-9.51V.325a3.452,3.452,0,0,1-.967,2.6,3.714,3.714,0,0,1-2.672.914,6.308,6.308,0,0,1-1.4-.149V1.45a5.667,5.667,0,0,0,.835.079A1.084,1.084,0,0,0,91.389.308V-9.51Zm-3.19-2.452A1.322,1.322,0,0,1,91.626-13a1.724,1.724,0,0,1,1.187-.4A1.724,1.724,0,0,1,94-13a1.322,1.322,0,0,1,.457,1.037A1.322,1.322,0,0,1,94-10.925a1.724,1.724,0,0,1-1.187.4,1.724,1.724,0,0,1-1.187-.4A1.322,1.322,0,0,1,91.169-11.962ZM100.635.176a4.889,4.889,0,0,1-3.542-1.305,4.507,4.507,0,0,1-1.354-3.4v-.246a5.84,5.84,0,0,1,.541-2.575,3.955,3.955,0,0,1,1.578-1.727,4.763,4.763,0,0,1,2.461-.611,4.117,4.117,0,0,1,3.164,1.244,4.887,4.887,0,0,1,1.16,3.467v1.151H98.754a2.135,2.135,0,0,0,.694,1.257,2.066,2.066,0,0,0,1.389.457,2.662,2.662,0,0,0,2.2-.984l1.354,1.6a3.784,3.784,0,0,1-1.569,1.217A5.3,5.3,0,0,1,100.635.176ZM100.3-7.4q-1.3,0-1.547,1.723h2.988v-.229a1.467,1.467,0,0,0-.36-1.1A1.434,1.434,0,0,0,100.3-7.4Zm8.982-4.474V-9.51h1.564v2.057h-1.564V-3.1a1.111,1.111,0,0,0,.193.747,1.037,1.037,0,0,0,.765.211,4.345,4.345,0,0,0,.738-.053V-.079a5.466,5.466,0,0,1-1.67.255,3.1,3.1,0,0,1-2.259-.721,2.954,2.954,0,0,1-.729-2.188v-4.72h-1.213V-9.51h1.213v-2.364ZM115.137,0h-2.971V-9.51h2.971ZM111.99-11.962A1.322,1.322,0,0,1,112.447-13a1.724,1.724,0,0,1,1.187-.4,1.724,1.724,0,0,1,1.187.4,1.322,1.322,0,0,1,.457,1.037,1.322,1.322,0,0,1-.457,1.037,1.724,1.724,0,0,1-1.187.4,1.724,1.724,0,0,1-1.187-.4A1.322,1.322,0,0,1,111.99-11.962Zm8.763,8.438,1.5-5.985h3.12L122.273,0H119.25l-3.1-9.51h3.129Zm5-1.318a5.613,5.613,0,0,1,.554-2.536A3.96,3.96,0,0,1,127.9-9.088a4.791,4.791,0,0,1,2.435-.6A4.373,4.373,0,0,1,133.7-8.363a5.076,5.076,0,0,1,1.23,3.6v.105a4.925,4.925,0,0,1-1.235,3.529A4.384,4.384,0,0,1,130.351.176a4.434,4.434,0,0,1-3.261-1.217,4.761,4.761,0,0,1-1.327-3.3Zm2.962.185a3.538,3.538,0,0,0,.413,1.934,1.376,1.376,0,0,0,1.222.615q1.582,0,1.617-2.435v-.3q0-2.558-1.635-2.558-1.485,0-1.608,2.206Zm12.5,1.986a.684.684,0,0,0-.4-.606,6.016,6.016,0,0,0-1.5-.475,6.853,6.853,0,0,1-1.828-.646,3.062,3.062,0,0,1-1.1-.971,2.319,2.319,0,0,1-.378-1.31,2.628,2.628,0,0,1,1.081-2.158,4.453,4.453,0,0,1,2.83-.848,4.934,4.934,0,0,1,3.023.853,2.666,2.666,0,0,1,1.143,2.241h-2.971q0-1.143-1.2-1.143a1.194,1.194,0,0,0-.782.259.8.8,0,0,0-.316.646.737.737,0,0,0,.387.642,3.654,3.654,0,0,0,1.235.4,10.671,10.671,0,0,1,1.49.378A2.706,2.706,0,0,1,144.07-2.76a2.491,2.491,0,0,1-1.156,2.118,5.068,5.068,0,0,1-2.993.817,5.172,5.172,0,0,1-2.18-.439,3.645,3.645,0,0,1-1.494-1.2,2.707,2.707,0,0,1-.536-1.591h2.769a1.145,1.145,0,0,0,.439.962,1.808,1.808,0,0,0,1.081.3,1.422,1.422,0,0,0,.91-.246A.787.787,0,0,0,141.214-2.672Zm8.35-2.153a5.809,5.809,0,0,1,.976-3.56,3.211,3.211,0,0,1,2.725-1.3,2.731,2.731,0,0,1,2.145,1V-13.5h2.971V0h-2.663l-.149-1.02a2.8,2.8,0,0,1-2.32,1.2,3.205,3.205,0,0,1-2.689-1.3A5.993,5.993,0,0,1,149.563-4.825Zm2.962.185q0,2.531,1.477,2.531a1.458,1.458,0,0,0,1.406-.826V-6.557A1.419,1.419,0,0,0,154.02-7.4q-1.371,0-1.485,2.215ZM164.663.176a4.889,4.889,0,0,1-3.542-1.305,4.507,4.507,0,0,1-1.354-3.4v-.246a5.84,5.84,0,0,1,.541-2.575,3.955,3.955,0,0,1,1.578-1.727,4.763,4.763,0,0,1,2.461-.611,4.117,4.117,0,0,1,3.164,1.244,4.887,4.887,0,0,1,1.16,3.467v1.151h-5.889a2.135,2.135,0,0,0,.694,1.257,2.066,2.066,0,0,0,1.389.457,2.662,2.662,0,0,0,2.2-.984l1.354,1.6a3.784,3.784,0,0,1-1.569,1.217A5.3,5.3,0,0,1,164.663.176ZM164.329-7.4q-1.3,0-1.547,1.723h2.988v-.229a1.467,1.467,0,0,0-.36-1.1A1.434,1.434,0,0,0,164.329-7.4ZM177.064-9.51l.1,1.116a3.225,3.225,0,0,1,2.716-1.292A2.713,2.713,0,0,1,182.1-8.8a4.226,4.226,0,0,1,.76,2.672V0h-2.971V-6a1.6,1.6,0,0,0-.29-1.059,1.342,1.342,0,0,0-1.055-.338,1.413,1.413,0,0,0-1.292.686V0h-2.962V-9.51ZM189.1.176a4.889,4.889,0,0,1-3.542-1.305,4.507,4.507,0,0,1-1.354-3.4v-.246a5.84,5.84,0,0,1,.541-2.575,3.955,3.955,0,0,1,1.578-1.727,4.763,4.763,0,0,1,2.461-.611,4.117,4.117,0,0,1,3.164,1.244,4.887,4.887,0,0,1,1.16,3.467v1.151h-5.889a2.135,2.135,0,0,0,.694,1.257,2.066,2.066,0,0,0,1.389.457,2.662,2.662,0,0,0,2.2-.984l1.354,1.6a3.784,3.784,0,0,1-1.569,1.217A5.3,5.3,0,0,1,189.1.176ZM188.763-7.4q-1.3,0-1.547,1.723H190.2v-.229a1.467,1.467,0,0,0-.36-1.1A1.434,1.434,0,0,0,188.763-7.4Zm5.186,2.575a6.421,6.421,0,0,1,.475-2.549,3.821,3.821,0,0,1,1.362-1.709,3.591,3.591,0,0,1,2.065-.6,2.855,2.855,0,0,1,2.32,1l.105-.826h2.689V-.36a4.009,4.009,0,0,1-.584,2.184,3.75,3.75,0,0,1-1.692,1.424,6.219,6.219,0,0,1-2.566.5,5.365,5.365,0,0,1-2.026-.4,3.657,3.657,0,0,1-1.5-1.028L195.838.58a2.716,2.716,0,0,0,2.18.976,1.764,1.764,0,0,0,1.969-2.021v-.3a2.781,2.781,0,0,1-2.153.94,3.437,3.437,0,0,1-2.812-1.332,5.517,5.517,0,0,1-1.072-3.564Zm2.971.185a3.383,3.383,0,0,0,.439,1.85,1.387,1.387,0,0,0,1.23.681,1.573,1.573,0,0,0,1.4-.642v-4a1.534,1.534,0,0,0-1.38-.65,1.4,1.4,0,0,0-1.239.708A3.858,3.858,0,0,0,196.919-4.641Zm7.356-.2a5.613,5.613,0,0,1,.554-2.536,3.96,3.96,0,0,1,1.591-1.709,4.791,4.791,0,0,1,2.435-.6,4.373,4.373,0,0,1,3.366,1.323,5.076,5.076,0,0,1,1.23,3.6v.105a4.925,4.925,0,0,1-1.235,3.529A4.384,4.384,0,0,1,208.872.176a4.434,4.434,0,0,1-3.261-1.217,4.761,4.761,0,0,1-1.327-3.3Zm2.962.185a3.538,3.538,0,0,0,.413,1.934,1.376,1.376,0,0,0,1.222.615q1.582,0,1.617-2.435v-.3q0-2.558-1.635-2.558-1.485,0-1.608,2.206Zm11.54,2.549a1.317,1.317,0,0,0,.967-.338,1.241,1.241,0,0,0,.334-.945h2.777a3.288,3.288,0,0,1-1.121,2.566,4.168,4.168,0,0,1-2.887,1,4.22,4.22,0,0,1-3.27-1.3,5.125,5.125,0,0,1-1.2-3.6v-.123a5.792,5.792,0,0,1,.532-2.544,3.872,3.872,0,0,1,1.534-1.7,4.573,4.573,0,0,1,2.373-.593,4.116,4.116,0,0,1,2.944,1.028,3.647,3.647,0,0,1,1.09,2.786h-2.777A1.626,1.626,0,0,0,219.718-7a1.244,1.244,0,0,0-.967-.4q-1.151,0-1.345,1.468a10.357,10.357,0,0,0-.062,1.283,4.068,4.068,0,0,0,.343,1.986A1.187,1.187,0,0,0,218.777-2.109ZM227.232,0h-2.971V-9.51h2.971Zm-3.146-11.962A1.322,1.322,0,0,1,224.543-13a1.724,1.724,0,0,1,1.187-.4,1.724,1.724,0,0,1,1.187.4,1.322,1.322,0,0,1,.457,1.037,1.322,1.322,0,0,1-.457,1.037,1.724,1.724,0,0,1-1.187.4,1.724,1.724,0,0,1-1.187-.4A1.322,1.322,0,0,1,224.086-11.962Zm4.6,7.119a5.613,5.613,0,0,1,.554-2.536,3.96,3.96,0,0,1,1.591-1.709,4.791,4.791,0,0,1,2.435-.6,4.373,4.373,0,0,1,3.366,1.323,5.076,5.076,0,0,1,1.23,3.6v.105a4.925,4.925,0,0,1-1.235,3.529A4.384,4.384,0,0,1,233.279.176a4.434,4.434,0,0,1-3.261-1.217,4.761,4.761,0,0,1-1.327-3.3Zm2.962.185a3.538,3.538,0,0,0,.413,1.934,1.376,1.376,0,0,0,1.222.615q1.582,0,1.617-2.435v-.3q0-2.558-1.635-2.558-1.485,0-1.608,2.206Zm15.8.51,1.582-5.361H252.2l-3.876,11.1-.167.4a2.944,2.944,0,0,1-2.918,1.846,4.625,4.625,0,0,1-1.222-.176V1.547h.387a2.027,2.027,0,0,0,.954-.18,1.093,1.093,0,0,0,.488-.646l.237-.633-3.3-9.6h3.164ZM260.253-9.51l.1,1.116a3.27,3.27,0,0,1,2.716-1.292A2.407,2.407,0,0,1,265.5-8.253a3.165,3.165,0,0,1,2.795-1.433q2.892,0,2.971,3.5V0h-2.971V-6a1.813,1.813,0,0,0-.246-1.063,1.048,1.048,0,0,0-.9-.334,1.4,1.4,0,0,0-1.31.782l.009.123V0h-2.971V-5.985a1.906,1.906,0,0,0-.237-1.081,1.045,1.045,0,0,0-.905-.334,1.42,1.42,0,0,0-1.3.782V0h-2.962V-9.51ZM276.082,0h-2.971V-9.51h2.971Zm-3.146-11.962A1.322,1.322,0,0,1,273.393-13a1.724,1.724,0,0,1,1.187-.4,1.724,1.724,0,0,1,1.187.4,1.322,1.322,0,0,1,.457,1.037,1.322,1.322,0,0,1-.457,1.037,1.724,1.724,0,0,1-1.187.4,1.724,1.724,0,0,1-1.187-.4A1.322,1.322,0,0,1,272.936-11.962Zm7.69,2.452.1,1.116a3.225,3.225,0,0,1,2.716-1.292,2.713,2.713,0,0,1,2.219.888,4.226,4.226,0,0,1,.76,2.672V0h-2.971V-6a1.6,1.6,0,0,0-.29-1.059A1.342,1.342,0,0,0,282.1-7.4a1.413,1.413,0,0,0-1.292.686V0h-2.962V-9.51ZM292.658.176a4.889,4.889,0,0,1-3.542-1.305,4.507,4.507,0,0,1-1.354-3.4v-.246a5.84,5.84,0,0,1,.541-2.575,3.955,3.955,0,0,1,1.578-1.727,4.763,4.763,0,0,1,2.461-.611,4.117,4.117,0,0,1,3.164,1.244,4.887,4.887,0,0,1,1.16,3.467v1.151h-5.889a2.135,2.135,0,0,0,.694,1.257,2.066,2.066,0,0,0,1.389.457,2.662,2.662,0,0,0,2.2-.984l1.354,1.6a3.784,3.784,0,0,1-1.569,1.217A5.3,5.3,0,0,1,292.658.176ZM292.324-7.4q-1.3,0-1.547,1.723h2.988v-.229a1.467,1.467,0,0,0-.36-1.1A1.434,1.434,0,0,0,292.324-7.4Zm11.285.571-.976-.07a1.752,1.752,0,0,0-1.793.879V0h-2.962V-9.51h2.777l.1,1.222a2.294,2.294,0,0,1,2.083-1.4,2.888,2.888,0,0,1,.826.105ZM307.907,0h-2.979V-9.51h2.979ZM306.8-13.324h3.129l-2.443,2.76h-2.417ZM315.167,0a3.344,3.344,0,0,1-.281-.853A2.754,2.754,0,0,1,312.6.176a3.374,3.374,0,0,1-2.285-.813,2.588,2.588,0,0,1-.94-2.043,2.66,2.66,0,0,1,1.143-2.338,5.821,5.821,0,0,1,3.322-.791h.914v-.5q0-1.31-1.134-1.31a.925.925,0,0,0-1.055,1.037H309.6a2.659,2.659,0,0,1,1.173-2.241,4.927,4.927,0,0,1,2.993-.861,4.323,4.323,0,0,1,2.874.888,3.086,3.086,0,0,1,1.081,2.435v4.21a4.311,4.311,0,0,0,.4,2V0Zm-1.854-1.934a1.652,1.652,0,0,0,.918-.237,1.487,1.487,0,0,0,.523-.536V-4.228h-.861q-1.547,0-1.547,1.389a.848.848,0,0,0,.272.655A.986.986,0,0,0,313.313-1.934Zm10.16-2.892a5.809,5.809,0,0,1,.976-3.56,3.211,3.211,0,0,1,2.725-1.3,2.731,2.731,0,0,1,2.145,1V-13.5h2.971V0h-2.663l-.149-1.02a2.8,2.8,0,0,1-2.32,1.2,3.205,3.205,0,0,1-2.689-1.3A5.993,5.993,0,0,1,323.473-4.825Zm2.962.185q0,2.531,1.477,2.531a1.458,1.458,0,0,0,1.406-.826V-6.557a1.419,1.419,0,0,0-1.389-.844q-1.371,0-1.485,2.215ZM338.572.176a4.889,4.889,0,0,1-3.542-1.305,4.507,4.507,0,0,1-1.354-3.4v-.246a5.84,5.84,0,0,1,.541-2.575,3.955,3.955,0,0,1,1.578-1.727,4.763,4.763,0,0,1,2.461-.611,4.117,4.117,0,0,1,3.164,1.244,4.887,4.887,0,0,1,1.16,3.467v1.151h-5.889a2.135,2.135,0,0,0,.694,1.257,2.066,2.066,0,0,0,1.389.457,2.662,2.662,0,0,0,2.2-.984l1.354,1.6a3.784,3.784,0,0,1-1.569,1.217A5.3,5.3,0,0,1,338.572.176ZM338.238-7.4q-1.3,0-1.547,1.723h2.988v-.229a1.467,1.467,0,0,0-.36-1.1A1.434,1.434,0,0,0,338.238-7.4Zm9.642,2.575a5.809,5.809,0,0,1,.976-3.56,3.211,3.211,0,0,1,2.725-1.3,2.731,2.731,0,0,1,2.145,1V-13.5H356.7V0h-2.663l-.149-1.02a2.8,2.8,0,0,1-2.32,1.2,3.205,3.205,0,0,1-2.689-1.3A5.993,5.993,0,0,1,347.88-4.825Zm2.962.185q0,2.531,1.477,2.531a1.458,1.458,0,0,0,1.406-.826V-6.557a1.419,1.419,0,0,0-1.389-.844q-1.371,0-1.485,2.215ZM363.735,0a3.344,3.344,0,0,1-.281-.853A2.754,2.754,0,0,1,361.169.176a3.374,3.374,0,0,1-2.285-.813,2.588,2.588,0,0,1-.94-2.043,2.66,2.66,0,0,1,1.143-2.338,5.821,5.821,0,0,1,3.322-.791h.914v-.5q0-1.31-1.134-1.31a.925.925,0,0,0-1.055,1.037h-2.962a2.659,2.659,0,0,1,1.173-2.241,4.927,4.927,0,0,1,2.993-.861,4.323,4.323,0,0,1,2.874.888,3.086,3.086,0,0,1,1.081,2.435v4.21a4.311,4.311,0,0,0,.4,2V0Zm-1.854-1.934a1.652,1.652,0,0,0,.918-.237,1.487,1.487,0,0,0,.523-.536V-4.228h-.861q-1.547,0-1.547,1.389a.848.848,0,0,0,.272.655A.986.986,0,0,0,361.881-1.934Zm9.5-9.94V-9.51h1.564v2.057h-1.564V-3.1a1.111,1.111,0,0,0,.193.747,1.037,1.037,0,0,0,.765.211,4.345,4.345,0,0,0,.738-.053V-.079a5.466,5.466,0,0,1-1.67.255,3.1,3.1,0,0,1-2.259-.721,2.954,2.954,0,0,1-.729-2.188v-4.72h-1.213V-9.51h1.213v-2.364Zm2.092,7.031a5.613,5.613,0,0,1,.554-2.536,3.96,3.96,0,0,1,1.591-1.709,4.791,4.791,0,0,1,2.435-.6,4.373,4.373,0,0,1,3.366,1.323,5.076,5.076,0,0,1,1.23,3.6v.105a4.925,4.925,0,0,1-1.235,3.529A4.384,4.384,0,0,1,378.07.176a4.434,4.434,0,0,1-3.261-1.217,4.761,4.761,0,0,1-1.327-3.3Zm2.962.185a3.538,3.538,0,0,0,.413,1.934,1.376,1.376,0,0,0,1.222.615q1.582,0,1.617-2.435v-.3q0-2.558-1.635-2.558-1.485,0-1.608,2.206Zm12.5,1.986a.684.684,0,0,0-.4-.606,6.016,6.016,0,0,0-1.5-.475,6.853,6.853,0,0,1-1.828-.646,3.062,3.062,0,0,1-1.1-.971,2.319,2.319,0,0,1-.378-1.31,2.628,2.628,0,0,1,1.081-2.158,4.453,4.453,0,0,1,2.83-.848,4.934,4.934,0,0,1,3.023.853,2.666,2.666,0,0,1,1.143,2.241h-2.971q0-1.143-1.2-1.143a1.194,1.194,0,0,0-.782.259.8.8,0,0,0-.316.646.737.737,0,0,0,.387.642,3.654,3.654,0,0,0,1.235.4,10.671,10.671,0,0,1,1.49.378A2.706,2.706,0,0,1,391.79-2.76a2.491,2.491,0,0,1-1.156,2.118,5.068,5.068,0,0,1-2.993.817,5.172,5.172,0,0,1-2.18-.439,3.645,3.645,0,0,1-1.494-1.2,2.707,2.707,0,0,1-.536-1.591H386.2a1.145,1.145,0,0,0,.439.962,1.808,1.808,0,0,0,1.081.3,1.422,1.422,0,0,0,.91-.246A.787.787,0,0,0,388.934-2.672Z" transform="translate(569 3535)" fill="#12263f"/>
    <path id="flecha-correcta" d="M12.217,30.071a2.231,2.231,0,0,0-3.155,3.155l3.1,3.1H2.128a2.128,2.128,0,0,0,0,4.255H12.165l-3.1,3.1a2.231,2.231,0,0,0,3.155,3.155L20.3,38.758a.426.426,0,0,0,0-.6Z" transform="translate(529.917 3559.787) rotate(90)" fill="#db6e5f"/>
    <path id="flecha-correcta-2" data-name="flecha-correcta" d="M12.217,30.071a2.231,2.231,0,0,0-3.155,3.155l3.1,3.1H2.128a2.128,2.128,0,0,0,0,4.255H12.165l-3.1,3.1a2.231,2.231,0,0,0,3.155,3.155L20.3,38.758a.426.426,0,0,0,0-.6Z" transform="translate(654.917 3573.787) rotate(90)" fill="#db6e5f"/>
    <path id="flecha-correcta-3" data-name="flecha-correcta" d="M12.217,30.071a2.231,2.231,0,0,0-3.155,3.155l3.1,3.1H2.128a2.128,2.128,0,0,0,0,4.255H12.165l-3.1,3.1a2.231,2.231,0,0,0,3.155,3.155L20.3,38.758a.426.426,0,0,0,0-.6Z" transform="translate(925.917 3570) rotate(90)" fill="#db6e5f"/>
    <path id="flecha-correcta-4" data-name="flecha-correcta" d="M12.217,30.071a2.231,2.231,0,0,0-3.155,3.155l3.1,3.1H2.128a2.128,2.128,0,0,0,0,4.255H12.165l-3.1,3.1a2.231,2.231,0,0,0,3.155,3.155L20.3,38.758a.426.426,0,0,0,0-.6Z" transform="translate(1052.917 3570) rotate(90)" fill="#db6e5f"/>
    <path id="Trazado_126013" data-name="Trazado 126013" d="M-53.419,0a2.846,2.846,0,0,1-.19-.835,3.023,3.023,0,0,1-2.256.981,2.8,2.8,0,0,1-1.923-.663A2.145,2.145,0,0,1-58.539-2.2,2.24,2.24,0,0,1-57.6-4.12,4.437,4.437,0,0,1-54.95-4.8h1.318v-.623a1.522,1.522,0,0,0-.425-1.132,1.707,1.707,0,0,0-1.252-.421,1.976,1.976,0,0,0-1.216.366,1.079,1.079,0,0,0-.491.886h-1.362a1.87,1.87,0,0,1,.421-1.146,2.874,2.874,0,0,1,1.143-.875,3.844,3.844,0,0,1,1.586-.322,3.133,3.133,0,0,1,2.146.685A2.47,2.47,0,0,1-52.277-5.5v3.647A4.459,4.459,0,0,0-52-.117V0Zm-2.249-1.033a2.381,2.381,0,0,0,1.208-.33,1.994,1.994,0,0,0,.828-.857V-3.845h-1.062q-2.49,0-2.49,1.458a1.234,1.234,0,0,0,.425,1A1.633,1.633,0,0,0-55.668-1.033ZM-48.68,0h-1.355V-11.25h1.355Zm3.442-7.925.037.879A2.927,2.927,0,0,1-42.85-8.071,2.266,2.266,0,0,1-40.587-6.8a3,3,0,0,1,1.029-.923,3.039,3.039,0,0,1,1.5-.352q2.607,0,2.651,2.761V0h-1.355V-5.229A1.82,1.82,0,0,0-37.152-6.5a1.71,1.71,0,0,0-1.3-.421,1.8,1.8,0,0,0-1.252.45,1.827,1.827,0,0,0-.579,1.212V0h-1.362V-5.193a1.512,1.512,0,0,0-1.692-1.729,1.813,1.813,0,0,0-1.824,1.135V0H-46.52V-7.925ZM-28.473,0a2.846,2.846,0,0,1-.19-.835,3.023,3.023,0,0,1-2.256.981,2.8,2.8,0,0,1-1.923-.663A2.145,2.145,0,0,1-33.593-2.2a2.24,2.24,0,0,1,.941-1.923A4.437,4.437,0,0,1-30-4.8h1.318v-.623a1.522,1.522,0,0,0-.425-1.132,1.707,1.707,0,0,0-1.252-.421,1.976,1.976,0,0,0-1.216.366,1.079,1.079,0,0,0-.491.886h-1.362a1.87,1.87,0,0,1,.421-1.146,2.874,2.874,0,0,1,1.143-.875,3.844,3.844,0,0,1,1.586-.322,3.133,3.133,0,0,1,2.146.685A2.47,2.47,0,0,1-27.33-5.5v3.647a4.459,4.459,0,0,0,.278,1.736V0Zm-2.249-1.033a2.381,2.381,0,0,0,1.208-.33,1.994,1.994,0,0,0,.828-.857V-3.845h-1.062q-2.49,0-2.49,1.458a1.234,1.234,0,0,0,.425,1A1.633,1.633,0,0,0-30.721-1.033Zm8.694.073A1.952,1.952,0,0,0-20.76-1.4a1.546,1.546,0,0,0,.6-1.1h1.282a2.457,2.457,0,0,1-.469,1.3A3.087,3.087,0,0,1-20.5-.22a3.329,3.329,0,0,1-1.527.366A3.265,3.265,0,0,1-24.6-.934a4.3,4.3,0,0,1-.956-2.955v-.227a4.771,4.771,0,0,1,.425-2.058,3.236,3.236,0,0,1,1.219-1.4,3.464,3.464,0,0,1,1.879-.5,3.178,3.178,0,0,1,2.216.8A2.853,2.853,0,0,1-18.878-5.2H-20.16a1.867,1.867,0,0,0-.582-1.263,1.811,1.811,0,0,0-1.293-.494,1.9,1.9,0,0,0-1.6.743,3.491,3.491,0,0,0-.568,2.15v.256A3.422,3.422,0,0,0-23.639-1.7,1.906,1.906,0,0,0-22.028-.959ZM-14.066.146A3.463,3.463,0,0,1-16.688-.912,3.928,3.928,0,0,1-17.7-3.743v-.249a4.756,4.756,0,0,1,.45-2.106,3.514,3.514,0,0,1,1.26-1.45,3.167,3.167,0,0,1,1.754-.524,2.968,2.968,0,0,1,2.4,1.018,4.408,4.408,0,0,1,.857,2.915v.564h-5.369a2.817,2.817,0,0,0,.685,1.893,2.153,2.153,0,0,0,1.666.721,2.36,2.36,0,0,0,1.216-.293,3.055,3.055,0,0,0,.872-.776l.828.645A3.328,3.328,0,0,1-14.066.146Zm-.168-7.1a1.807,1.807,0,0,0-1.377.6A2.9,2.9,0,0,0-16.3-4.687h3.97v-.1a2.581,2.581,0,0,0-.557-1.6A1.7,1.7,0,0,0-14.235-6.958Zm.659-4.292h1.641L-13.9-9.1h-1.091Zm5.449,3.325.044,1A2.888,2.888,0,0,1-5.709-8.071q2.512,0,2.534,2.834V0H-4.53V-5.244a1.824,1.824,0,0,0-.392-1.267,1.57,1.57,0,0,0-1.2-.41,1.956,1.956,0,0,0-1.157.352,2.387,2.387,0,0,0-.776.923V0H-9.408V-7.925Zm10.378,3.9a4.642,4.642,0,0,1,.864-2.933A2.733,2.733,0,0,1,5.38-8.071a2.748,2.748,0,0,1,2.2.952V-11.25H8.939V0H7.694L7.628-.85a2.759,2.759,0,0,1-2.263,1A2.707,2.707,0,0,1,3.12-.981a4.7,4.7,0,0,1-.868-2.944Zm1.355.154a3.515,3.515,0,0,0,.557,2.109A1.8,1.8,0,0,0,5.7-1,1.977,1.977,0,0,0,7.584-2.161V-5.8A1.992,1.992,0,0,0,5.717-6.921a1.808,1.808,0,0,0-1.553.769A3.87,3.87,0,0,0,3.607-3.875ZM14.33.146A3.463,3.463,0,0,1,11.708-.912,3.928,3.928,0,0,1,10.7-3.743v-.249a4.756,4.756,0,0,1,.45-2.106,3.514,3.514,0,0,1,1.26-1.45,3.167,3.167,0,0,1,1.754-.524,2.968,2.968,0,0,1,2.4,1.018,4.408,4.408,0,0,1,.857,2.915v.564H12.052a2.817,2.817,0,0,0,.685,1.893A2.153,2.153,0,0,0,14.4-.959a2.36,2.36,0,0,0,1.216-.293,3.055,3.055,0,0,0,.872-.776l.828.645A3.328,3.328,0,0,1,14.33.146Zm-.168-7.1a1.807,1.807,0,0,0-1.377.6A2.9,2.9,0,0,0,12.1-4.687h3.97v-.1a2.581,2.581,0,0,0-.557-1.6A1.7,1.7,0,0,0,14.161-6.958Zm8.21,2.93a4.642,4.642,0,0,1,.864-2.933A2.733,2.733,0,0,1,25.5-8.071a2.748,2.748,0,0,1,2.2.952V-11.25h1.355V0H27.814l-.066-.85a2.759,2.759,0,0,1-2.263,1A2.707,2.707,0,0,1,23.24-.981a4.7,4.7,0,0,1-.868-2.944Zm1.355.154a3.515,3.515,0,0,0,.557,2.109A1.8,1.8,0,0,0,25.822-1,1.977,1.977,0,0,0,27.7-2.161V-5.8a1.992,1.992,0,0,0-1.868-1.121,1.808,1.808,0,0,0-1.553.769A3.87,3.87,0,0,0,23.727-3.875ZM36.053,0a2.846,2.846,0,0,1-.19-.835,3.023,3.023,0,0,1-2.256.981,2.8,2.8,0,0,1-1.923-.663A2.145,2.145,0,0,1,30.934-2.2a2.24,2.24,0,0,1,.941-1.923A4.437,4.437,0,0,1,34.523-4.8h1.318v-.623a1.522,1.522,0,0,0-.425-1.132,1.707,1.707,0,0,0-1.252-.421,1.976,1.976,0,0,0-1.216.366,1.079,1.079,0,0,0-.491.886H31.095a1.87,1.87,0,0,1,.421-1.146,2.874,2.874,0,0,1,1.143-.875,3.844,3.844,0,0,1,1.586-.322,3.133,3.133,0,0,1,2.146.685A2.47,2.47,0,0,1,37.2-5.5v3.647a4.459,4.459,0,0,0,.278,1.736V0ZM33.8-1.033a2.381,2.381,0,0,0,1.208-.33,1.994,1.994,0,0,0,.828-.857V-3.845H34.779q-2.49,0-2.49,1.458a1.234,1.234,0,0,0,.425,1A1.633,1.633,0,0,0,33.8-1.033Zm7.354-8.811v1.919h1.479v1.047H41.158v4.915a1.1,1.1,0,0,0,.2.714.833.833,0,0,0,.674.238,3.281,3.281,0,0,0,.645-.088V0a3.928,3.928,0,0,1-1.04.146A1.687,1.687,0,0,1,40.265-.4a2.36,2.36,0,0,1-.461-1.56V-6.877H38.361V-7.925H39.8V-9.844Zm2.556,5.808a4.681,4.681,0,0,1,.458-2.095,3.415,3.415,0,0,1,1.274-1.436,3.469,3.469,0,0,1,1.864-.505,3.342,3.342,0,0,1,2.618,1.121,4.311,4.311,0,0,1,1,2.981v.1A4.722,4.722,0,0,1,50.486-1.8,3.365,3.365,0,0,1,49.219-.366a3.509,3.509,0,0,1-1.893.513A3.334,3.334,0,0,1,44.714-.974a4.29,4.29,0,0,1-1-2.966Zm1.362.161a3.39,3.39,0,0,0,.612,2.117,1.957,1.957,0,0,0,1.637.8,1.945,1.945,0,0,0,1.641-.809,3.707,3.707,0,0,0,.608-2.267,3.384,3.384,0,0,0-.619-2.113,1.968,1.968,0,0,0-1.644-.809,1.946,1.946,0,0,0-1.619.8A3.68,3.68,0,0,0,45.077-3.875ZM57.242-2.1a1,1,0,0,0-.414-.853,3.983,3.983,0,0,0-1.443-.524,6.822,6.822,0,0,1-1.633-.527,2.324,2.324,0,0,1-.894-.732A1.752,1.752,0,0,1,52.57-5.75,2.056,2.056,0,0,1,53.394-7.4,3.218,3.218,0,0,1,55.5-8.071a3.311,3.311,0,0,1,2.186.7,2.21,2.21,0,0,1,.839,1.78H57.162a1.223,1.223,0,0,0-.472-.959,1.77,1.77,0,0,0-1.19-.4,1.852,1.852,0,0,0-1.157.322,1.014,1.014,0,0,0-.417.842.822.822,0,0,0,.388.74,4.776,4.776,0,0,0,1.4.476,7.308,7.308,0,0,1,1.644.542,2.4,2.4,0,0,1,.934.758,1.864,1.864,0,0,1,.3,1.08,2.028,2.028,0,0,1-.85,1.7,3.564,3.564,0,0,1-2.2.641A3.991,3.991,0,0,1,53.859-.19a2.74,2.74,0,0,1-1.146-.941A2.268,2.268,0,0,1,52.3-2.439h1.355a1.4,1.4,0,0,0,.546,1.08,2.117,2.117,0,0,0,1.344.4,2.185,2.185,0,0,0,1.234-.311A.956.956,0,0,0,57.242-2.1Z" transform="translate(550 3644)" fill="#12263f"/>
    <path id="Trazado_126014" data-name="Trazado 126014" d="M-40.679-1.838l1.963-6.086h1.384L-40.173,0h-1.033l-2.871-7.925h1.384ZM-34.556,0h-1.355V-7.925h1.355Zm-1.465-10.027a.809.809,0,0,1,.2-.557.756.756,0,0,1,.6-.227.768.768,0,0,1,.6.227.8.8,0,0,1,.205.557.774.774,0,0,1-.205.549.782.782,0,0,1-.6.22.77.77,0,0,1-.6-.22A.782.782,0,0,1-36.021-10.027ZM-27.773-2.1a1,1,0,0,0-.414-.853,3.983,3.983,0,0,0-1.443-.524,6.822,6.822,0,0,1-1.633-.527,2.324,2.324,0,0,1-.894-.732,1.752,1.752,0,0,1-.289-1.011A2.056,2.056,0,0,1-31.622-7.4a3.218,3.218,0,0,1,2.106-.674,3.311,3.311,0,0,1,2.186.7,2.21,2.21,0,0,1,.839,1.78h-1.362a1.223,1.223,0,0,0-.472-.959,1.77,1.77,0,0,0-1.19-.4,1.852,1.852,0,0,0-1.157.322,1.014,1.014,0,0,0-.417.842.822.822,0,0,0,.388.74,4.776,4.776,0,0,0,1.4.476,7.308,7.308,0,0,1,1.644.542,2.4,2.4,0,0,1,.934.758,1.864,1.864,0,0,1,.3,1.08,2.028,2.028,0,0,1-.85,1.7,3.564,3.564,0,0,1-2.2.641A3.991,3.991,0,0,1-31.157-.19,2.74,2.74,0,0,1-32.3-1.132a2.268,2.268,0,0,1-.414-1.307h1.355a1.4,1.4,0,0,0,.546,1.08,2.117,2.117,0,0,0,1.344.4,2.185,2.185,0,0,0,1.234-.311A.956.956,0,0,0-27.773-2.1Zm4.958-7.742v1.919h1.479v1.047h-1.479v4.915a1.1,1.1,0,0,0,.2.714.833.833,0,0,0,.674.238A3.281,3.281,0,0,0-21.3-1.1V0a3.928,3.928,0,0,1-1.04.146A1.687,1.687,0,0,1-23.708-.4a2.36,2.36,0,0,1-.461-1.56V-6.877h-1.443V-7.925h1.443V-9.844ZM-14.861,0a2.846,2.846,0,0,1-.19-.835,3.023,3.023,0,0,1-2.256.981A2.8,2.8,0,0,1-19.23-.516,2.145,2.145,0,0,1-19.98-2.2a2.24,2.24,0,0,1,.941-1.923A4.437,4.437,0,0,1-16.392-4.8h1.318v-.623A1.522,1.522,0,0,0-15.5-6.559,1.707,1.707,0,0,0-16.75-6.98a1.976,1.976,0,0,0-1.216.366,1.079,1.079,0,0,0-.491.886h-1.362A1.87,1.87,0,0,1-19.4-6.874a2.874,2.874,0,0,1,1.143-.875,3.844,3.844,0,0,1,1.586-.322,3.133,3.133,0,0,1,2.146.685A2.47,2.47,0,0,1-13.718-5.5v3.647A4.459,4.459,0,0,0-13.44-.117V0Zm-2.249-1.033a2.381,2.381,0,0,0,1.208-.33,1.994,1.994,0,0,0,.828-.857V-3.845h-1.062q-2.49,0-2.49,1.458a1.234,1.234,0,0,0,.425,1A1.633,1.633,0,0,0-17.109-1.033Zm10.5-6.892.037.879A2.927,2.927,0,0,1-4.219-8.071,2.266,2.266,0,0,1-1.956-6.8,3,3,0,0,1-.927-7.72a3.039,3.039,0,0,1,1.5-.352q2.607,0,2.651,2.761V0H1.868V-5.229A1.82,1.82,0,0,0,1.479-6.5a1.71,1.71,0,0,0-1.3-.421,1.8,1.8,0,0,0-1.252.45,1.827,1.827,0,0,0-.579,1.212V0H-3.018V-5.193A1.512,1.512,0,0,0-4.709-6.921,1.813,1.813,0,0,0-6.533-5.786V0H-7.888V-7.925ZM6.738,0H5.383V-7.925H6.738ZM5.273-10.027a.809.809,0,0,1,.2-.557.756.756,0,0,1,.6-.227.768.768,0,0,1,.6.227.8.8,0,0,1,.205.557.774.774,0,0,1-.205.549.782.782,0,0,1-.6.22.77.77,0,0,1-.6-.22A.782.782,0,0,1,5.273-10.027Zm4.915,2.1.044,1A2.888,2.888,0,0,1,12.6-8.071q2.512,0,2.534,2.834V0H13.784V-5.244a1.824,1.824,0,0,0-.392-1.267,1.57,1.57,0,0,0-1.2-.41,1.956,1.956,0,0,0-1.157.352,2.387,2.387,0,0,0-.776.923V0H8.906V-7.925ZM22.075,0a2.846,2.846,0,0,1-.19-.835,3.023,3.023,0,0,1-2.256.981,2.8,2.8,0,0,1-1.923-.663A2.145,2.145,0,0,1,16.956-2.2,2.24,2.24,0,0,1,17.9-4.12,4.437,4.437,0,0,1,20.544-4.8h1.318v-.623a1.522,1.522,0,0,0-.425-1.132,1.707,1.707,0,0,0-1.252-.421,1.976,1.976,0,0,0-1.216.366,1.079,1.079,0,0,0-.491.886H17.117a1.87,1.87,0,0,1,.421-1.146,2.874,2.874,0,0,1,1.143-.875,3.844,3.844,0,0,1,1.586-.322,3.133,3.133,0,0,1,2.146.685A2.47,2.47,0,0,1,23.218-5.5v3.647A4.459,4.459,0,0,0,23.5-.117V0ZM19.827-1.033a2.381,2.381,0,0,0,1.208-.33,1.994,1.994,0,0,0,.828-.857V-3.845H20.8q-2.49,0-2.49,1.458a1.234,1.234,0,0,0,.425,1A1.633,1.633,0,0,0,19.827-1.033ZM32.051-3.875a4.712,4.712,0,0,1-.835,2.919,2.668,2.668,0,0,1-2.241,1.1A2.763,2.763,0,0,1,26.653-.916L26.587,0H25.342V-11.25H26.7v4.2A2.747,2.747,0,0,1,28.96-8.071,2.684,2.684,0,0,1,31.227-6.98a4.853,4.853,0,0,1,.824,2.988ZM30.7-4.028a3.662,3.662,0,0,0-.535-2.139,1.77,1.77,0,0,0-1.538-.754A1.989,1.989,0,0,0,26.7-5.676v3.428A2.045,2.045,0,0,0,28.638-1a1.76,1.76,0,0,0,1.516-.754A3.894,3.894,0,0,0,30.7-4.028ZM35.229,0H33.875V-11.25h1.355Zm5.457.146A3.463,3.463,0,0,1,38.064-.912a3.928,3.928,0,0,1-1.011-2.831v-.249A4.756,4.756,0,0,1,37.5-6.1a3.514,3.514,0,0,1,1.26-1.45,3.167,3.167,0,0,1,1.754-.524,2.968,2.968,0,0,1,2.4,1.018,4.408,4.408,0,0,1,.857,2.915v.564H38.408a2.817,2.817,0,0,0,.685,1.893,2.153,2.153,0,0,0,1.666.721,2.36,2.36,0,0,0,1.216-.293,3.055,3.055,0,0,0,.872-.776l.828.645A3.328,3.328,0,0,1,40.686.146Zm-.168-7.1a1.807,1.807,0,0,0-1.377.6,2.9,2.9,0,0,0-.688,1.674h3.97v-.1a2.581,2.581,0,0,0-.557-1.6A1.7,1.7,0,0,0,40.518-6.958Z" transform="translate(684 3644)" fill="#12263f"/>
  </g>
</svg>
