<svg xmlns="http://www.w3.org/2000/svg" xmlns:xlink="http://www.w3.org/1999/xlink" width="321.207" height="370.34" viewBox="0 0 321.207 370.34">
  <defs>
    <clipPath id="clip-path">
      <path id="Trazado_104120" data-name="Trazado 104120" d="M358.8,131.713C318.777,89.27,367.978-10.639,469.721.924c111.971,12.726,140.216,67.259,86.995,158.768C549.813,171.561,353.41,145.13,358.8,131.713Z" transform="translate(-344.891 0)" fill="none"/>
    </clipPath>
  </defs>
  <g id="Grupo_84053" data-name="Grupo 84053" transform="translate(-194.664 0)">
    <g id="Grupo_83304" data-name="Grupo 83304" transform="translate(194.664 48.738)">
      <path id="Trazado_104071" data-name="Trazado 104071" d="M328.841,416.164q-10.339-.446-20.69-.059c-23.426.875-41.764,6.351-63.316,14.264-20.214,7.423-39.5-3.481-46.39-23.542-9.323-27.16.581-50.048,8.311-76.291a205.429,205.429,0,0,0,5.124-93.869c-3.3-18.391-9.121-36.4-10.238-55.052s3.337-38.872,17.263-51.329c14.455-12.93,36.008-14.734,55.018-10.9s36.67,12.492,55.181,18.279a189.765,189.765,0,0,0,110.492.6c15.989-4.809,32.914-11.8,48.77-6.568,16.989,5.6,26.972,24.322,27.478,42.2s-6.59,35.055-14.483,51.109c-11.539,23.47-13.751,45.622-7.744,71.22,5.217,22.234,14.24,43.607,17.2,66.253s-1.434,48.062-18.688,63.025c-14.433,12.518-35.15,15.318-54.1,12.918s-36.989-9.34-55.47-14.185A255.265,255.265,0,0,0,328.841,416.164Z" transform="translate(-194.664 -117.607)" fill="#d8e5f3"/>
    </g>
    <g id="Grupo_83331" data-name="Grupo 83331" transform="translate(203.527 67.965)">
      <g id="Grupo_83305" data-name="Grupo 83305" transform="translate(5.015 235.065)">
        <circle id="Elipse_4123" data-name="Elipse 4123" cx="6.542" cy="6.542" r="6.542" fill="#8abae7"/>
      </g>
      <g id="Grupo_83306" data-name="Grupo 83306" transform="translate(36.207 212.93)">
        <path id="Trazado_104072" data-name="Trazado 104072" d="M342.04,751.311a.615.615,0,0,1-.394-.142c-15.536-12.774-25.1-31.846-30.387-45.6a159.118,159.118,0,0,1-7.829-27.035.621.621,0,1,1,1.225-.209,157.834,157.834,0,0,0,7.774,26.823c5.233,13.6,14.687,32.46,30.006,45.057a.621.621,0,0,1-.4,1.1Z" transform="translate(-303.42 -677.812)" fill="#8abae7"/>
      </g>
      <g id="Grupo_83307" data-name="Grupo 83307" transform="translate(37.913 234.443)">
        <path id="Trazado_104073" data-name="Trazado 104073" d="M332.013,774.6a.617.617,0,0,1-.459-.2c-17.338-18.963-23.933-43.647-24-43.894a.622.622,0,1,1,1.2-.315c.064.245,6.587,24.641,23.712,43.371a.622.622,0,0,1-.459,1.041Z" transform="translate(-307.537 -729.723)" fill="#8abae7"/>
      </g>
      <g id="Grupo_83308" data-name="Grupo 83308" transform="translate(236.129 182.084)">
        <path id="Trazado_104074" data-name="Trazado 104074" d="M786.46,643.354a.622.622,0,0,1-.233-1.2c.2-.083,20.675-8.648,37.8-38.464a.622.622,0,0,1,1.078.619c-9.064,15.778-19.006,25.531-25.75,30.934-7.333,5.874-12.451,7.977-12.665,8.063A.619.619,0,0,1,786.46,643.354Z" transform="translate(-785.839 -603.38)" fill="#8abae7"/>
      </g>
      <g id="Grupo_83309" data-name="Grupo 83309" transform="translate(247.735 191.996)">
        <path id="Trazado_104075" data-name="Trazado 104075" d="M814.467,655.23a.621.621,0,0,1-.337-1.144,83.692,83.692,0,0,0,23.93-26.477.622.622,0,1,1,1.079.618,84.987,84.987,0,0,1-24.335,26.9A.62.62,0,0,1,814.467,655.23Z" transform="translate(-813.845 -627.297)" fill="#8abae7"/>
      </g>
      <g id="Grupo_83310" data-name="Grupo 83310" transform="translate(0 102.253)">
        <path id="Trazado_104076" data-name="Trazado 104076" d="M216.672,495.808a.614.614,0,0,1-.231-.045.622.622,0,0,1-.346-.808c.139-.347,13.767-35.212,4.151-83.467a.622.622,0,0,1,1.219-.243,176.213,176.213,0,0,1,1.576,60.507c-2.252,14.728-5.757,23.578-5.792,23.666A.623.623,0,0,1,216.672,495.808Z" transform="translate(-216.051 -410.745)" fill="#8abae7"/>
      </g>
      <g id="Grupo_83311" data-name="Grupo 83311" transform="translate(290.622 92.67)">
        <path id="Trazado_104077" data-name="Trazado 104077" d="M921.824,459.131a.622.622,0,0,1-.6-.444,114.6,114.6,0,0,1-3.742-23.965c-.668-12.673.515-31.08,9.945-46.8a.622.622,0,0,1,1.066.639c-9.269,15.451-10.429,33.6-9.77,46.1a113.225,113.225,0,0,0,3.692,23.675.622.622,0,0,1-.6.8Z" transform="translate(-917.332 -387.619)" fill="#8abae7"/>
      </g>
      <g id="Grupo_83314" data-name="Grupo 83314" transform="translate(280.47 213.117)">
        <g id="Grupo_83312" data-name="Grupo 83312">
          <path id="Trazado_104078" data-name="Trazado 104078" d="M901.4,687.448a.621.621,0,0,1-.44-.182l-7.941-7.942a.621.621,0,0,1,.879-.879l7.942,7.942a.622.622,0,0,1-.44,1.061Z" transform="translate(-892.836 -678.262)"/>
        </g>
        <g id="Grupo_83313" data-name="Grupo 83313">
          <path id="Trazado_104079" data-name="Trazado 104079" d="M893.457,687.448a.622.622,0,0,1-.439-1.061l7.941-7.942a.622.622,0,1,1,.88.879l-7.942,7.942A.62.62,0,0,1,893.457,687.448Z" transform="translate(-892.836 -678.262)"/>
        </g>
      </g>
      <g id="Grupo_83317" data-name="Grupo 83317" transform="translate(23.344 106.503)">
        <g id="Grupo_83315" data-name="Grupo 83315">
          <path id="Trazado_104080" data-name="Trazado 104080" d="M280.944,430.183A.62.62,0,0,1,280.5,430l-7.942-7.942a.622.622,0,0,1,.879-.879l7.942,7.942a.621.621,0,0,1-.44,1.061Z" transform="translate(-272.38 -420.998)"/>
        </g>
        <g id="Grupo_83316" data-name="Grupo 83316">
          <path id="Trazado_104081" data-name="Trazado 104081" d="M273,430.183a.621.621,0,0,1-.44-1.061l7.942-7.942a.622.622,0,1,1,.879.879L273.442,430A.619.619,0,0,1,273,430.183Z" transform="translate(-272.38 -420.998)"/>
        </g>
      </g>
      <g id="Grupo_83322" data-name="Grupo 83322" transform="translate(280.414 58.476)">
        <g id="Grupo_83318" data-name="Grupo 83318" transform="translate(3.431)">
          <path id="Trazado_104082" data-name="Trazado 104082" d="M901.6,307.9a.621.621,0,0,1-.621-.622V305.73a.622.622,0,1,1,1.243,0v1.545A.621.621,0,0,1,901.6,307.9Z" transform="translate(-900.981 -305.108)"/>
        </g>
        <g id="Grupo_83319" data-name="Grupo 83319" transform="translate(3.431 5.318)">
          <path id="Trazado_104083" data-name="Trazado 104083" d="M901.6,320.729a.621.621,0,0,1-.621-.622v-1.545a.622.622,0,1,1,1.243,0v1.545A.621.621,0,0,1,901.6,320.729Z" transform="translate(-900.981 -317.941)"/>
        </g>
        <g id="Grupo_83320" data-name="Grupo 83320" transform="translate(5.318 3.432)">
          <path id="Trazado_104084" data-name="Trazado 104084" d="M907.7,314.632h-1.545a.622.622,0,0,1,0-1.243H907.7a.622.622,0,0,1,0,1.243Z" transform="translate(-905.534 -313.389)"/>
        </g>
        <g id="Grupo_83321" data-name="Grupo 83321" transform="translate(0 3.432)">
          <path id="Trazado_104085" data-name="Trazado 104085" d="M894.867,314.632h-1.545a.622.622,0,1,1,0-1.243h1.545a.622.622,0,1,1,0,1.243Z" transform="translate(-892.701 -313.389)"/>
        </g>
      </g>
      <g id="Grupo_83327" data-name="Grupo 83327" transform="translate(19.913 251.79)">
        <g id="Grupo_83323" data-name="Grupo 83323" transform="translate(3.431)">
          <path id="Trazado_104086" data-name="Trazado 104086" d="M273,774.371a.621.621,0,0,1-.622-.622V772.2a.622.622,0,1,1,1.243,0v1.544A.622.622,0,0,1,273,774.371Z" transform="translate(-272.381 -771.583)"/>
        </g>
        <g id="Grupo_83324" data-name="Grupo 83324" transform="translate(3.431 5.318)">
          <path id="Trazado_104087" data-name="Trazado 104087" d="M273,787.2a.622.622,0,0,1-.622-.622v-1.545a.622.622,0,0,1,1.243,0v1.545A.622.622,0,0,1,273,787.2Z" transform="translate(-272.381 -784.416)"/>
        </g>
        <g id="Grupo_83325" data-name="Grupo 83325" transform="translate(5.318 3.431)">
          <path id="Trazado_104088" data-name="Trazado 104088" d="M279.1,781.106h-1.544a.622.622,0,1,1,0-1.243H279.1a.622.622,0,0,1,0,1.243Z" transform="translate(-276.934 -779.863)"/>
        </g>
        <g id="Grupo_83326" data-name="Grupo 83326" transform="translate(0 3.431)">
          <path id="Trazado_104089" data-name="Trazado 104089" d="M266.268,781.106h-1.545a.622.622,0,0,1,0-1.243h1.545a.622.622,0,0,1,0,1.243Z" transform="translate(-264.101 -779.863)"/>
        </g>
      </g>
      <g id="Grupo_83328" data-name="Grupo 83328" transform="translate(27.645 277.224)">
        <circle id="Elipse_4124" data-name="Elipse 4124" cx="3.555" cy="3.555" r="3.555" transform="translate(0 5.028) rotate(-45)" fill="#fff"/>
      </g>
      <g id="Grupo_83329" data-name="Grupo 83329" transform="translate(286.354)">
        <rect id="Rectángulo_24270" data-name="Rectángulo 24270" width="13.913" height="13.913" fill="#8abae7"/>
      </g>
      <g id="Grupo_83330" data-name="Grupo 83330" transform="translate(12.923 227.324)">
        <path id="Trazado_104090" data-name="Trazado 104090" d="M258.217,724.148h-10.36a.622.622,0,0,1-.622-.622v-10.36a.622.622,0,0,1,.622-.622h10.36a.622.622,0,0,1,.622.622v10.36A.622.622,0,0,1,258.217,724.148Zm-9.739-1.243H257.6v-9.117h-9.117Z" transform="translate(-247.235 -712.544)"/>
      </g>
    </g>
    <g id="Grupo_83396" data-name="Grupo 83396" transform="translate(241.621 0)">
      <g id="Grupo_83362" data-name="Grupo 83362" transform="translate(0 125.006)">
        <g id="Grupo_83332" data-name="Grupo 83332" transform="translate(124.003 22.354)">
          <path id="Trazado_104091" data-name="Trazado 104091" d="M688.2,463.388l29.477-95.29L607.2,355.584S608.113,489.929,688.2,463.388Z" transform="translate(-607.197 -355.584)" fill="#d8e5f3"/>
        </g>
        <g id="Grupo_83361" data-name="Grupo 83361">
          <g id="Grupo_83333" data-name="Grupo 83333" transform="translate(0.441 5.705)">
            <path id="Trazado_104092" data-name="Trazado 104092" d="M330.5,315.41c-23.024,34.28-4.718,43.6-17.652,91.328C296.727,466.216,335.1,539.509,365.8,544.114s91.855-5.628,125.623-82.374c-10.842-4.125-10.473-34.257-10.473-34.257h0A18.6,18.6,0,0,1,460.775,405.1l13.53-63.288Z" transform="translate(-309.037 -315.41)" fill="#fff"/>
          </g>
          <g id="Grupo_83334" data-name="Grupo 83334" transform="translate(151.288 37.388)">
            <path id="Trazado_104093" data-name="Trazado 104093" d="M673.659,452.08a.609.609,0,0,1-.13-.014.622.622,0,0,1-.479-.737l12.538-58.975a.622.622,0,1,1,1.216.259l-12.537,58.975A.622.622,0,0,1,673.659,452.08Z" transform="translate(-673.037 -391.862)"/>
          </g>
          <g id="Grupo_83335" data-name="Grupo 83335" transform="translate(44.156 156.511)">
            <ellipse id="Elipse_4125" data-name="Elipse 4125" cx="12.663" cy="5.756" rx="12.663" ry="5.756" fill="#d8e5f3"/>
          </g>
          <g id="Grupo_83336" data-name="Grupo 83336" transform="translate(222.204 34.246)">
            <path id="Trazado_104094" data-name="Trazado 104094" d="M844.782,423.9a.635.635,0,0,1-.2-.034.622.622,0,0,1-.387-.789c8.457-24.727,11.613-38.18,11.644-38.313a.621.621,0,1,1,1.211.281c-.031.133-3.2,13.638-11.678,38.434A.622.622,0,0,1,844.782,423.9Z" transform="translate(-844.16 -384.281)"/>
          </g>
          <g id="Grupo_83337" data-name="Grupo 83337" transform="translate(67.326 161.645)">
            <path id="Trazado_104095" data-name="Trazado 104095" d="M471.055,766.015a.622.622,0,1,1,0-1.243c20.828,0,43.728-6.135,64.481-17.275a145.6,145.6,0,0,0,57.554-55.485.621.621,0,1,1,1.077.62,146.838,146.838,0,0,1-58.042,55.96C515.193,759.828,492.084,766.015,471.055,766.015Z" transform="translate(-470.433 -691.7)"/>
          </g>
          <g id="Grupo_83338" data-name="Grupo 83338" transform="translate(0 112.336)">
            <path id="Trazado_104096" data-name="Trazado 104096" d="M365.177,695.409a.629.629,0,0,1-.093-.007c-13.788-2.068-29.571-18.04-41.189-41.682-12.473-25.382-18.016-54.706-15.206-80.451a.622.622,0,0,1,1.236.135c-2.785,25.517,2.713,54.591,15.085,79.767,11.441,23.282,26.867,38.993,40.258,41a.622.622,0,0,1-.092,1.236Z" transform="translate(-307.973 -572.715)"/>
          </g>
          <g id="Grupo_83339" data-name="Grupo 83339" transform="translate(0.712 13.473)">
            <path id="Trazado_104097" data-name="Trazado 104097" d="M310.313,434.261a.638.638,0,0,1-.068,0,.621.621,0,0,1-.551-.685,110.542,110.542,0,0,1,2.931-16.015c5.417-20.646,5.352-33.758,5.3-45.326-.062-12.756-.112-22.831,7.44-37.735a.621.621,0,1,1,1.109.561c-7.415,14.636-7.367,24.579-7.305,37.167.058,11.645.122,24.843-5.336,45.647a109.384,109.384,0,0,0-2.9,15.835A.622.622,0,0,1,310.313,434.261Z" transform="translate(-309.691 -334.155)"/>
          </g>
          <g id="Grupo_83340" data-name="Grupo 83340" transform="translate(33.557 55.714)">
            <path id="Trazado_104098" data-name="Trazado 104098" d="M409.984,543.107c-8,0-15.5-2.109-18.716-4.8a5.658,5.658,0,0,1-2.32-4.364c0-11.68,6.549-25.958,13.484-41.073,9.107-19.853,18.525-40.382,13.177-55.958a.622.622,0,0,1,1.176-.4c5.51,16.046-4.013,36.8-13.222,56.88-6.876,14.989-13.371,29.147-13.371,40.555a4.482,4.482,0,0,0,1.875,3.411c3.9,3.265,15.136,5.673,25.023,3.908a.622.622,0,0,1,.218,1.224A41.843,41.843,0,0,1,409.984,543.107Z" transform="translate(-388.948 -436.083)"/>
          </g>
          <g id="Grupo_83341" data-name="Grupo 83341" transform="translate(23.197 25.863)">
            <path id="Trazado_104099" data-name="Trazado 104099" d="M364.568,377.9a.622.622,0,0,1-.527-.95c3.307-5.31,10.3-14.031,19.963-12.776,5.052.656,9.093,4.031,9.939,6.782a.622.622,0,0,1-1.189.366c-.639-2.077-4.091-5.288-8.911-5.915-8.974-1.164-15.6,7.143-18.747,12.2A.622.622,0,0,1,364.568,377.9Z" transform="translate(-363.947 -364.053)"/>
          </g>
          <g id="Grupo_83342" data-name="Grupo 83342" transform="translate(77.62 56.12)">
            <path id="Trazado_104100" data-name="Trazado 104100" d="M527.426,451.352a.622.622,0,0,1-.616-.54c-.538-4.077-1.873-6.743-4.08-8.152-3.914-2.5-10.008-.592-15.386,1.091-4.724,1.479-8.8,2.755-10.857.867-1.318-1.213-1.557-3.459-.75-7.069a.622.622,0,1,1,1.213.271c-.681,3.046-.554,5.026.378,5.883,1.525,1.4,5.469.168,9.644-1.139,5.636-1.763,12.024-3.762,16.426-.951,2.535,1.618,4.055,4.574,4.644,9.037a.622.622,0,0,1-.535.7A.606.606,0,0,1,527.426,451.352Z" transform="translate(-495.272 -437.062)"/>
          </g>
          <g id="Grupo_83343" data-name="Grupo 83343" transform="translate(80.227 77.079)">
            <circle id="Elipse_4126" data-name="Elipse 4126" cx="5.372" cy="5.372" r="5.372"/>
          </g>
          <g id="Grupo_83344" data-name="Grupo 83344" transform="translate(31.361 67.869)">
            <circle id="Elipse_4127" data-name="Elipse 4127" cx="5.372" cy="5.372" r="5.372"/>
          </g>
          <g id="Grupo_83345" data-name="Grupo 83345" transform="translate(21.703)">
            <path id="Trazado_104101" data-name="Trazado 104101" d="M360.539,307.348c7.684-18.444,213.866,12.279,212.587,29.163S352.864,325.767,360.539,307.348Z" transform="translate(-360.342 -301.643)" fill="#fff"/>
          </g>
          <g id="Grupo_83346" data-name="Grupo 83346" transform="translate(29.101 3.275)">
            <path id="Trazado_104102" data-name="Trazado 104102" d="M378.3,312.978c5.5-13.2,198.828,15.068,197.913,27.15S372.813,326.159,378.3,312.978Z" transform="translate(-378.195 -309.545)"/>
          </g>
          <g id="Grupo_83347" data-name="Grupo 83347" transform="translate(43.535 181.983)">
            <path id="Trazado_104103" data-name="Trazado 104103" d="M428.263,745.95c-6.917,0-11.954-1.366-15.03-4.088a.621.621,0,1,1,.823-.931c9.6,8.5,38.643-.043,38.935-.13a.622.622,0,0,1,.356,1.191,114.6,114.6,0,0,1-16.12,3.331A71.272,71.272,0,0,1,428.263,745.95Z" transform="translate(-413.023 -740.775)"/>
          </g>
          <g id="Grupo_83348" data-name="Grupo 83348" transform="translate(50.04 192.198)">
            <ellipse id="Elipse_4128" data-name="Elipse 4128" cx="9.721" cy="3.581" rx="9.721" ry="3.581" fill="#d8e5f3"/>
          </g>
          <g id="Grupo_83349" data-name="Grupo 83349" transform="translate(159.875 38.393)">
            <path id="Trazado_104104" data-name="Trazado 104104" d="M694.38,471.224a.612.612,0,0,1-.146-.017.622.622,0,0,1-.459-.749l18.192-75.695a.622.622,0,0,1,1.209.291l-18.192,75.694A.622.622,0,0,1,694.38,471.224Z" transform="translate(-693.757 -394.287)"/>
          </g>
          <g id="Grupo_83350" data-name="Grupo 83350" transform="translate(171.731 39.499)">
            <path id="Trazado_104105" data-name="Trazado 104105" d="M722.988,475.856a.621.621,0,0,1-.6-.775l19.761-77.656a.622.622,0,1,1,1.2.307l-19.761,77.656A.621.621,0,0,1,722.988,475.856Z" transform="translate(-722.365 -396.956)"/>
          </g>
          <g id="Grupo_83351" data-name="Grupo 83351" transform="translate(186.708 39.49)">
            <path id="Trazado_104106" data-name="Trazado 104106" d="M759.129,463.029a.622.622,0,0,1-.6-.776L775.109,397.4a.622.622,0,1,1,1.2.308L759.73,462.562A.622.622,0,0,1,759.129,463.029Z" transform="translate(-758.506 -396.934)"/>
          </g>
          <g id="Grupo_83352" data-name="Grupo 83352" transform="translate(197.694 39.499)">
            <path id="Trazado_104107" data-name="Trazado 104107" d="M785.637,463.042a.628.628,0,0,1-.155-.019.622.622,0,0,1-.448-.756l16.581-64.842a.622.622,0,0,1,1.2.308l-16.58,64.842A.622.622,0,0,1,785.637,463.042Z" transform="translate(-785.015 -396.956)"/>
          </g>
          <g id="Grupo_83353" data-name="Grupo 83353" transform="translate(205.609 39.49)">
            <path id="Trazado_104108" data-name="Trazado 104108" d="M804.737,463.029a.629.629,0,0,1-.175-.025.621.621,0,0,1-.421-.771l19.01-64.851a.622.622,0,1,1,1.193.349l-19.01,64.851A.622.622,0,0,1,804.737,463.029Z" transform="translate(-804.115 -396.935)"/>
          </g>
          <g id="Grupo_83354" data-name="Grupo 83354" transform="translate(152.082 53.081)">
            <ellipse id="Elipse_4129" data-name="Elipse 4129" cx="55.919" cy="27.525" rx="55.919" ry="27.525" transform="translate(0 91.846) rotate(-55.209)" fill="#fff"/>
          </g>
          <g id="Grupo_83355" data-name="Grupo 83355" transform="translate(190.287 82.451)">
            <ellipse id="Elipse_4130" data-name="Elipse 4130" cx="28.514" cy="12.425" rx="28.514" ry="12.425" transform="matrix(0.571, -0.821, 0.821, 0.571, 0, 46.834)" fill="#d8e5f3"/>
          </g>
          <g id="Grupo_83356" data-name="Grupo 83356" transform="translate(182.654 116.336)">
            <ellipse id="Elipse_4131" data-name="Elipse 4131" cx="14.487" cy="8.144" rx="14.487" ry="8.144" transform="translate(0 20.488) rotate(-45)" fill="#fff"/>
          </g>
          <g id="Grupo_83357" data-name="Grupo 83357" transform="translate(193.623 88.377)">
            <path id="Trazado_104109" data-name="Trazado 104109" d="M775.813,573.7a.622.622,0,0,1-.191-1.213c7.357-2.382,15.21-12.587,16.479-19.271.32-1.687.378-3.964-1.164-5.233-1.474-1.212-4.945-1.971-13.109,1.305a.621.621,0,0,1-.767-.892c.746-1.267,18.425-31.038,30.365-33.351a6.2,6.2,0,0,1,5.17,1.11.622.622,0,1,1-.758.986,4.942,4.942,0,0,0-4.175-.875c-9.9,1.917-24.738,24.978-28.592,31.216,6.091-2.2,10.345-2.36,12.655-.458,1.593,1.31,2.145,3.532,1.6,6.424C791.984,560.5,783.96,571.1,776,573.671A.621.621,0,0,1,775.813,573.7Z" transform="translate(-775.192 -514.901)"/>
          </g>
          <g id="Grupo_83358" data-name="Grupo 83358" transform="translate(201.777 65.014)">
            <path id="Trazado_104110" data-name="Trazado 104110" d="M829.894,511.91a.622.622,0,0,1-.526-.953c6.317-10.044,9.794-20.081,10.055-29.022.235-8.055-2.191-14.624-6.832-18.5-8.608-7.185-22.663-3.68-36.681,9.146a.622.622,0,0,1-.84-.917c7.478-6.842,15.081-11.206,21.987-12.621,6.415-1.314,12.061-.126,16.33,3.438,8.822,7.365,11.656,25.882-2.968,49.137A.621.621,0,0,1,829.894,511.91Z" transform="translate(-794.869 -458.525)"/>
          </g>
          <g id="Grupo_83359" data-name="Grupo 83359" transform="translate(153.965 36.302)">
            <path id="Trazado_104111" data-name="Trazado 104111" d="M691.241,391.571l-.055,0c-.042,0-4.259-.376-11.132-1.087a.622.622,0,0,1,.128-1.237c6.863.711,11.072,1.082,11.113,1.086a.622.622,0,0,1-.054,1.241Z" transform="translate(-679.496 -389.241)" fill="#d8e5f3"/>
          </g>
          <g id="Grupo_83360" data-name="Grupo 83360" transform="translate(25.074 10.676)">
            <path id="Trazado_104112" data-name="Trazado 104112" d="M491.667,353.6a.63.63,0,0,1-.068,0c-35.892-3.913-99.572-12.365-122.8-25.025a.622.622,0,1,1,.6-1.091c7.96,4.339,35.817,15.451,122.336,24.881a.622.622,0,0,1-.067,1.24Z" transform="translate(-368.478 -327.406)" fill="#d8e5f3"/>
          </g>
        </g>
      </g>
      <g id="Grupo_83380" data-name="Grupo 83380" transform="translate(15.3 0)">
        <g id="Grupo_83379" data-name="Grupo 83379" clip-path="url(#clip-path)">
          <g id="Grupo_83372" data-name="Grupo 83372" transform="translate(92.633 80.369)">
            <g id="Grupo_83363" data-name="Grupo 83363">
              <path id="Trazado_104113" data-name="Trazado 104113" d="M684.39,279.622,585.2,289.815a8.891,8.891,0,0,1-9.754-7.936l-6.983-67.952a8.891,8.891,0,0,1,7.936-9.754l99.188-10.193a8.892,8.892,0,0,1,9.754,7.936l6.983,67.951A8.892,8.892,0,0,1,684.39,279.622Z" transform="translate(-568.417 -193.933)" fill="#fff"/>
            </g>
            <g id="Grupo_83364" data-name="Grupo 83364" transform="translate(9.168 25.117)">
              <path id="Trazado_104114" data-name="Trazado 104114" d="M591.16,266.46a.622.622,0,0,1-.063-1.24l4.947-.509a.622.622,0,0,1,.127,1.237l-4.947.508A.568.568,0,0,1,591.16,266.46Zm9.894-1.017a.622.622,0,0,1-.062-1.24l4.947-.508a.622.622,0,1,1,.127,1.237l-4.947.509C601.1,265.443,601.075,265.444,601.053,265.444Zm9.894-1.017a.622.622,0,0,1-.063-1.24l4.947-.509a.622.622,0,0,1,.127,1.237l-4.947.508A.559.559,0,0,1,610.948,264.427Zm9.894-1.017a.622.622,0,0,1-.063-1.24l4.947-.508a.622.622,0,0,1,.127,1.237l-4.947.509C620.884,263.409,620.863,263.41,620.841,263.41Zm9.894-1.017a.622.622,0,0,1-.063-1.24l4.947-.508a.622.622,0,0,1,.127,1.237l-4.947.508A.57.57,0,0,1,630.735,262.393Zm9.894-1.017a.622.622,0,0,1-.062-1.24l4.947-.508a.622.622,0,0,1,.127,1.237l-4.947.508C640.672,261.375,640.65,261.377,640.629,261.377Zm9.894-1.017a.622.622,0,0,1-.063-1.24l4.947-.509a.622.622,0,0,1,.127,1.237l-4.947.508A.57.57,0,0,1,650.523,260.36Zm9.894-1.017a.622.622,0,0,1-.063-1.24l4.948-.509a.622.622,0,0,1,.127,1.237l-4.947.508A.572.572,0,0,1,660.417,259.343Zm9.894-1.017a.622.622,0,0,1-.063-1.24l4.947-.509a.622.622,0,0,1,.127,1.237l-4.947.508A.559.559,0,0,1,670.311,258.326Zm9.894-1.017a.622.622,0,0,1-.063-1.24l4.947-.509a.622.622,0,0,1,.127,1.237l-4.947.508C680.247,257.308,680.225,257.31,680.2,257.31Zm9.894-1.017a.622.622,0,0,1-.063-1.24l4.947-.509a.622.622,0,1,1,.127,1.237l-4.947.508A.561.561,0,0,1,690.1,256.293Z" transform="translate(-590.539 -254.541)" fill="#d8e5f3"/>
            </g>
            <g id="Grupo_83371" data-name="Grupo 83371" transform="translate(12.896 10.987)">
              <g id="Grupo_83365" data-name="Grupo 83365" transform="translate(0 24.264)">
                <rect id="Rectángulo_24271" data-name="Rectángulo 24271" width="8.261" height="49.104" transform="translate(0 0.845) rotate(-5.867)" fill="#f57a3e"/>
              </g>
              <g id="Grupo_83366" data-name="Grupo 83366" transform="translate(17.965 28.945)">
                <rect id="Rectángulo_24272" data-name="Rectángulo 24272" width="8.261" height="42.611" transform="translate(0 0.845) rotate(-5.867)" fill="#f57a3e"/>
              </g>
              <g id="Grupo_83367" data-name="Grupo 83367" transform="translate(36.323 37.444)">
                <rect id="Rectángulo_24273" data-name="Rectángulo 24273" width="8.261" height="32.279" transform="translate(0 0.845) rotate(-5.867)" fill="#f57a3e"/>
              </g>
              <g id="Grupo_83368" data-name="Grupo 83368" transform="translate(52.568 25.389)">
                <rect id="Rectángulo_24274" data-name="Rectángulo 24274" width="8.261" height="42.611" transform="translate(0 0.845) rotate(-5.867)" fill="#f57a3e"/>
              </g>
              <g id="Grupo_83369" data-name="Grupo 83369" transform="translate(68.513 10.418)">
                <rect id="Rectángulo_24275" data-name="Rectángulo 24275" width="8.261" height="55.873" transform="translate(0 0.845) rotate(-5.867)" fill="#f57a3e"/>
              </g>
              <g id="Grupo_83370" data-name="Grupo 83370" transform="translate(84.926 0)">
                <rect id="Rectángulo_24276" data-name="Rectángulo 24276" width="8.261" height="64.559" transform="translate(0 0.845) rotate(-5.867)" fill="#f57a3e"/>
              </g>
            </g>
          </g>
          <g id="Grupo_83373" data-name="Grupo 83373" transform="translate(6.963 97.639)">
            <path id="Trazado_104115" data-name="Trazado 104115" d="M431.758,276.185c-.216-3.24-.325-4.877-.541-8.118l6.322-6.52-4.578-9.258-9.019,1.065L417.819,248l-.141-9.081-9.783-3.309-5.624,7.131-8.118.541-6.521-6.321-9.257,4.578,1.065,9.019-5.358,6.123-9.081.141-3.309,9.783,7.131,5.624c.216,3.24.325,4.877.541,8.118l-6.322,6.521,4.578,9.257,9.019-1.065,6.123,5.358.14,9.081,9.783,3.309,5.624-7.131,8.118-.541,6.521,6.321,9.257-4.578-1.065-9.019,5.358-6.123,9.081-.141,3.309-9.783Zm-31.467,12.694A14.674,14.674,0,1,1,414.964,274.2,14.674,14.674,0,0,1,400.291,288.878Z" transform="translate(-361.693 -235.607)" fill="#8abae7"/>
          </g>
          <g id="Grupo_83374" data-name="Grupo 83374" transform="translate(37.757 65.677)">
            <path id="Trazado_104116" data-name="Trazado 104116" d="M459.328,224.959q-.912-8.872.7-14.355a29.139,29.139,0,0,1,6.818-11.172q5.206-5.69,6.776-9.088a13.11,13.11,0,0,0,1.205-6.95q-1.1-10.717-10.979-9.7a10.054,10.054,0,0,0-7.206,3.659,11.4,11.4,0,0,0-2.126,8.266L436.155,187.5q-1.118-12.117,5.872-19.753t20.286-9q13.422-1.379,21.5,4.356t9.293,17.587a22.464,22.464,0,0,1-1.36,10.419q-1.916,5.032-7.33,11.481L479.787,208a17.476,17.476,0,0,0-4.394,11.4l.144,3.892Zm.158,19.6a9.262,9.262,0,0,1,2.164-7.27,11.341,11.341,0,0,1,14.753-1.516,9.895,9.895,0,0,1,1.487,13.846,11.616,11.616,0,0,1-14.879,1.529A9.188,9.188,0,0,1,459.486,244.555Z" transform="translate(-436.001 -158.481)"/>
          </g>
          <g id="Grupo_83375" data-name="Grupo 83375" transform="translate(40.511 63.382)">
            <path id="Trazado_104117" data-name="Trazado 104117" d="M465.973,219.422q-.913-8.872.7-14.354a29.135,29.135,0,0,1,6.818-11.172q5.205-5.69,6.776-9.088a13.112,13.112,0,0,0,1.205-6.951q-1.1-10.717-10.979-9.7a10.055,10.055,0,0,0-7.206,3.66,11.4,11.4,0,0,0-2.126,8.266L442.8,181.966q-1.118-12.118,5.872-19.753t20.286-9q13.422-1.379,21.5,4.356t9.293,17.587a22.461,22.461,0,0,1-1.36,10.419q-1.916,5.032-7.33,11.481l-4.627,5.408a17.477,17.477,0,0,0-4.394,11.4l.144,3.893Zm.158,19.6a9.263,9.263,0,0,1,2.164-7.27,11.341,11.341,0,0,1,14.753-1.516,9.9,9.9,0,0,1,1.486,13.846,11.615,11.615,0,0,1-14.879,1.529A9.188,9.188,0,0,1,466.131,239.018Z" transform="translate(-442.646 -152.944)" fill="#f57a3e"/>
          </g>
          <g id="Grupo_83378" data-name="Grupo 83378" transform="translate(114.863 72.938)">
            <g id="Grupo_83376" data-name="Grupo 83376">
              <path id="Trazado_104118" data-name="Trazado 104118" d="M648.45,186.316l-1.759,1.515c-.03,1.3-.045,1.964-.076,3.269l1.686,1.6-1.678,3.8-2.314-.173-2.365,2.258.064,2.32-3.871,1.5-1.514-1.758-3.269-.076-1.6,1.686-3.8-1.678.172-2.314-2.258-2.366-2.32.064-1.5-3.871,1.758-1.515c.031-1.3.046-1.964.077-3.269l-1.686-1.6,1.678-3.8,2.314.172,2.365-2.257-.064-2.32,3.871-1.5,1.514,1.759,3.269.076,1.595-1.686,3.8,1.678-.172,2.314,2.257,2.365,2.32-.064Z" transform="translate(-622.059 -176.003)" fill="#4666c9"/>
            </g>
            <g id="Grupo_83377" data-name="Grupo 83377" transform="translate(8.07 8.3)">
              <path id="Trazado_104119" data-name="Trazado 104119" d="M646.8,206.562a5.265,5.265,0,1,1,5.265-5.265A5.271,5.271,0,0,1,646.8,206.562Zm0-9.287a4.022,4.022,0,1,0,4.022,4.021A4.026,4.026,0,0,0,646.8,197.275Z" transform="translate(-641.532 -196.032)" fill="#fff"/>
            </g>
          </g>
        </g>
      </g>
      <g id="Grupo_83395" data-name="Grupo 83395" transform="translate(163.847 65.17)">
        <g id="Grupo_83381" data-name="Grupo 83381" transform="translate(0 20.73)">
          <rect id="Rectángulo_24277" data-name="Rectángulo 24277" width="30.381" height="14.06" rx="6.381" transform="translate(2.687 0.196) rotate(10.207)" fill="#fff"/>
          <path id="Trazado_104121" data-name="Trazado 104121" d="M731.311,226.893a3.306,3.306,0,0,1-.586-.053l-24.695-4.447a3.265,3.265,0,0,1-2.636-3.793l1.555-8.632a3.268,3.268,0,0,1,3.793-2.636l24.7,4.447a3.27,3.27,0,0,1,2.636,3.793l-1.554,8.632a3.269,3.269,0,0,1-3.208,2.688Zm-23.151-18.369a2.024,2.024,0,0,0-1.987,1.665l-1.554,8.632a2.025,2.025,0,0,0,1.632,2.349l24.7,4.447h0a2.023,2.023,0,0,0,2.349-1.632l1.555-8.632A2.026,2.026,0,0,0,733.217,213l-24.7-4.447A2.071,2.071,0,0,0,708.159,208.523Z" transform="translate(-703.342 -207.28)"/>
        </g>
        <g id="Grupo_83382" data-name="Grupo 83382" transform="translate(44.32 28.711)">
          <rect id="Rectángulo_24278" data-name="Rectángulo 24278" width="30.381" height="14.06" rx="6.381" transform="translate(2.687 0.195) rotate(10.207)" fill="#fff"/>
          <path id="Trazado_104122" data-name="Trazado 104122" d="M838.258,246.15a3.3,3.3,0,0,1-.586-.053l-24.695-4.447a3.265,3.265,0,0,1-2.636-3.793l1.554-8.633a3.269,3.269,0,0,1,3.793-2.635l24.7,4.446a3.27,3.27,0,0,1,2.636,3.793l-1.554,8.632a3.268,3.268,0,0,1-3.207,2.688ZM815.11,227.781a2.026,2.026,0,0,0-1.99,1.665l-1.555,8.632a2.023,2.023,0,0,0,1.633,2.349l24.695,4.447h0a2.023,2.023,0,0,0,2.349-1.632l1.554-8.632a2.026,2.026,0,0,0-1.632-2.35l-24.695-4.446A2.045,2.045,0,0,0,815.11,227.781Z" transform="translate(-810.289 -226.538)"/>
        </g>
        <g id="Grupo_83383" data-name="Grupo 83383" transform="translate(28.347)">
          <rect id="Rectángulo_24279" data-name="Rectángulo 24279" width="30.381" height="14.06" rx="6.381" transform="translate(2.687 0.196) rotate(10.207)" fill="#fff"/>
          <path id="Trazado_104123" data-name="Trazado 104123" d="M799.712,176.87a3.3,3.3,0,0,1-.586-.052l-24.695-4.447a3.27,3.27,0,0,1-2.636-3.793l1.555-8.632a3.267,3.267,0,0,1,3.793-2.636l24.7,4.447a3.27,3.27,0,0,1,2.636,3.793l-1.555,8.632a3.268,3.268,0,0,1-3.208,2.688ZM776.56,158.5a2.025,2.025,0,0,0-1.987,1.665l-1.555,8.632a2.026,2.026,0,0,0,1.633,2.349l24.7,4.447a2.024,2.024,0,0,0,2.349-1.632l1.554-8.632a2.025,2.025,0,0,0-1.633-2.349l-24.695-4.447A2.07,2.07,0,0,0,776.56,158.5Z" transform="translate(-771.743 -157.257)"/>
        </g>
        <g id="Grupo_83384" data-name="Grupo 83384" transform="translate(24.697 14.846)">
          <path id="Trazado_104124" data-name="Trazado 104124" d="M764.436,203.239l11.192-8.657Z" transform="translate(-763.814 -193.96)" fill="#fff"/>
          <path id="Trazado_104125" data-name="Trazado 104125" d="M763.558,202.982a.622.622,0,0,1-.381-1.113l11.192-8.657a.622.622,0,0,1,.761.984l-11.192,8.657A.617.617,0,0,1,763.558,202.982Z" transform="translate(-762.936 -193.082)"/>
        </g>
        <g id="Grupo_83385" data-name="Grupo 83385" transform="translate(51.369 17.633)">
          <path id="Trazado_104126" data-name="Trazado 104126" d="M828.8,201.308l4.59,11.5Z" transform="translate(-828.175 -200.686)" fill="#fff"/>
          <path id="Trazado_104127" data-name="Trazado 104127" d="M832.509,212.55a.622.622,0,0,1-.578-.392l-4.59-11.5a.621.621,0,1,1,1.154-.461l4.59,11.5a.622.622,0,0,1-.577.852Z" transform="translate(-827.297 -199.807)"/>
        </g>
        <g id="Grupo_83388" data-name="Grupo 83388" transform="translate(34.742 5.812)">
          <g id="Grupo_83386" data-name="Grupo 83386" transform="translate(0.622 0.622)">
            <path id="Trazado_104128" data-name="Trazado 104128" d="M788.676,172.783l2.15,3.756,3.325-2.77,2.151,3.756,3.325-2.77,2.152,3.756,3.329-2.769,2.154,3.756Z" transform="translate(-788.676 -172.783)" fill="#fff"/>
          </g>
          <g id="Grupo_83387" data-name="Grupo 83387">
            <path id="Trazado_104129" data-name="Trazado 104129" d="M806.384,179.241a.621.621,0,0,1-.54-.312l-1.786-3.115-2.76,2.3a.618.618,0,0,1-.508.134.624.624,0,0,1-.43-.3l-1.784-3.114-2.755,2.3a.622.622,0,0,1-.937-.168l-1.783-3.114-2.756,2.3a.622.622,0,0,1-.937-.169l-2.15-3.756a.622.622,0,0,1,1.079-.617l1.782,3.113,2.756-2.3a.622.622,0,0,1,.937.169l1.783,3.113,2.755-2.3a.622.622,0,0,1,.938.168l1.784,3.114,2.76-2.3a.622.622,0,0,1,.937.169l2.154,3.757a.622.622,0,0,1-.539.931Z" transform="translate(-787.176 -171.282)"/>
          </g>
        </g>
        <g id="Grupo_83391" data-name="Grupo 83391" transform="translate(51.628 34.687)">
          <g id="Grupo_83389" data-name="Grupo 83389" transform="translate(0.622 0.622)">
            <path id="Trazado_104130" data-name="Trazado 104130" d="M829.424,242.459l2.04,3.736,3.216-2.79,2.041,3.736,3.215-2.79,2.042,3.736L845.2,245.3l2.044,3.737Z" transform="translate(-829.424 -242.459)" fill="#fff"/>
          </g>
          <g id="Grupo_83390" data-name="Grupo 83390">
            <path id="Trazado_104131" data-name="Trazado 104131" d="M846.362,248.779a.622.622,0,0,1-.546-.324l-1.674-3.06-2.636,2.284a.622.622,0,0,1-.953-.172l-1.672-3.059-2.632,2.284a.622.622,0,0,1-.953-.172l-1.671-3.059-2.633,2.284a.622.622,0,0,1-.953-.172L828,241.878a.622.622,0,0,1,1.091-.6l1.671,3.059,2.633-2.284a.622.622,0,0,1,.953.171l1.671,3.059L838.65,243a.621.621,0,0,1,.953.171l1.672,3.06,2.636-2.284a.622.622,0,0,1,.952.172l2.044,3.737a.622.622,0,0,1-.545.92Z" transform="translate(-827.923 -240.959)"/>
          </g>
        </g>
        <g id="Grupo_83394" data-name="Grupo 83394" transform="translate(8.111 26.852)">
          <g id="Grupo_83392" data-name="Grupo 83392" transform="translate(0.622 0.622)">
            <path id="Trazado_104132" data-name="Trazado 104132" d="M740.677,229.848l-1.818-3.7-2.993,2.83-1.819-3.7-2.993,2.83-1.82-3.7-3,2.829-1.821-3.7Z" transform="translate(-724.416 -223.551)" fill="#fff"/>
          </g>
          <g id="Grupo_83393" data-name="Grupo 83393">
            <path id="Trazado_104133" data-name="Trazado 104133" d="M739.8,229.591a.621.621,0,0,1-.558-.348l-1.446-2.94-2.381,2.25a.622.622,0,0,1-.985-.177l-1.447-2.939-2.38,2.25a.621.621,0,0,1-.985-.177l-1.448-2.941-2.384,2.251a.622.622,0,0,1-.985-.177l-1.821-3.7a.622.622,0,0,1,1.116-.549l1.449,2.941,2.384-2.251a.621.621,0,0,1,.984.177l1.448,2.94,2.38-2.251a.622.622,0,0,1,.985.177l1.447,2.94,2.381-2.251a.622.622,0,0,1,.985.177l1.818,3.7a.622.622,0,0,1-.557.9Z" transform="translate(-722.915 -222.051)"/>
          </g>
        </g>
      </g>
    </g>
    <g id="Grupo_83405" data-name="Grupo 83405" transform="translate(201.55 77.844)">
      <g id="Grupo_83400" data-name="Grupo 83400" transform="translate(3.622)">
        <g id="Grupo_83397" data-name="Grupo 83397">
          <rect id="Rectángulo_24280" data-name="Rectángulo 24280" width="58.463" height="15.104" rx="7.552" fill="#4666c9"/>
        </g>
        <g id="Grupo_83398" data-name="Grupo 83398" transform="translate(26.958 14.482)">
          <path id="Trazado_104134" data-name="Trazado 104134" d="M341.681,232.759h-47.26a.623.623,0,0,1-.44-.182l-8.728-8.728a.622.622,0,0,1,.879-.879l8.546,8.546h47a.622.622,0,0,1,0,1.243Z" transform="translate(-285.071 -222.788)"/>
        </g>
        <g id="Grupo_83399" data-name="Grupo 83399" transform="translate(9.721 6.93)">
          <path id="Trazado_104135" data-name="Trazado 104135" d="M280.728,205.808H244.1a.622.622,0,1,1,0-1.243h36.63a.622.622,0,0,1,0,1.243Z" transform="translate(-243.477 -204.565)" fill="#fff"/>
        </g>
      </g>
      <g id="Grupo_83404" data-name="Grupo 83404" transform="translate(0 46.153)">
        <g id="Grupo_83401" data-name="Grupo 83401">
          <path id="Trazado_104136" data-name="Trazado 104136" d="M245.133,314.314h-26.3a7.551,7.551,0,0,1-7.551-7.551h0a7.552,7.552,0,0,1,7.551-7.552h26.3a7.552,7.552,0,0,1,7.551,7.552h0A7.551,7.551,0,0,1,245.133,314.314Z" transform="translate(-211.279 -299.211)" fill="#4666c9"/>
        </g>
        <g id="Grupo_83402" data-name="Grupo 83402" transform="translate(9.721 6.93)">
          <path id="Trazado_104137" data-name="Trazado 104137" d="M254.929,317.177H235.357a.622.622,0,1,1,0-1.243h19.572a.622.622,0,1,1,0,1.243Z" transform="translate(-234.735 -315.934)" fill="#fff"/>
        </g>
        <g id="Grupo_83403" data-name="Grupo 83403" transform="translate(20.081 14.482)">
          <path id="Trazado_104138" data-name="Trazado 104138" d="M288.86,359.314a.618.618,0,0,1-.4-.146l-28.5-23.915a.622.622,0,1,1,.8-.952l28.5,23.915a.622.622,0,0,1-.4,1.1Z" transform="translate(-259.735 -334.156)"/>
        </g>
      </g>
    </g>
    <g id="Grupo_83411" data-name="Grupo 83411" transform="translate(433.112 300.469)">
      <g id="Grupo_83406" data-name="Grupo 83406" transform="translate(2.131 19.694)">
        <rect id="Rectángulo_24281" data-name="Rectángulo 24281" width="65.361" height="32.988" rx="15.134" transform="translate(0.622 0.622)" fill="#fff"/>
        <path id="Trazado_104139" data-name="Trazado 104139" d="M834.9,806.8H782.085a6.9,6.9,0,0,1-6.893-6.893V779.46a6.9,6.9,0,0,1,6.893-6.893H834.9a6.9,6.9,0,0,1,6.893,6.893V799.9A6.9,6.9,0,0,1,834.9,806.8ZM782.085,773.81a5.657,5.657,0,0,0-5.65,5.65V799.9a5.656,5.656,0,0,0,5.65,5.65H834.9a5.657,5.657,0,0,0,5.65-5.65V779.46a5.657,5.657,0,0,0-5.65-5.65Z" transform="translate(-775.192 -772.567)"/>
      </g>
      <g id="Grupo_83407" data-name="Grupo 83407" transform="translate(0)">
        <path id="Trazado_104140" data-name="Trazado 104140" d="M793.453,745.982a.621.621,0,0,1-.6-.479c-1.872-7.956-6.16-13.606-12.747-16.792a24.271,24.271,0,0,0-9.432-2.423.622.622,0,0,1,0-1.243c.186,0,18.7.231,23.388,20.174a.622.622,0,0,1-.606.764Z" transform="translate(-770.049 -725.044)"/>
      </g>
      <g id="Grupo_83408" data-name="Grupo 83408" transform="translate(12.332 30.166)">
        <path id="Trazado_104141" data-name="Trazado 104141" d="M839.859,799.078H800.428a.622.622,0,0,1,0-1.243h39.431a.622.622,0,0,1,0,1.243Z" transform="translate(-799.807 -797.835)"/>
      </g>
      <g id="Grupo_83409" data-name="Grupo 83409" transform="translate(12.332 36.188)">
        <path id="Trazado_104142" data-name="Trazado 104142" d="M820.667,813.611H800.428a.622.622,0,0,1,0-1.243h20.239a.622.622,0,0,1,0,1.243Z" transform="translate(-799.807 -812.368)"/>
      </g>
      <g id="Grupo_83410" data-name="Grupo 83410" transform="translate(47.023 45.464)">
        <path id="Trazado_104143" data-name="Trazado 104143" d="M897.282,835.993H884.139a.622.622,0,1,1,0-1.243h13.143a.622.622,0,1,1,0,1.243Z" transform="translate(-883.517 -834.75)"/>
      </g>
    </g>
  </g>
</svg>
