<svg xmlns="http://www.w3.org/2000/svg" width="890" height="321" viewBox="0 0 890 321">
  <g id="Grupo_84810" data-name="Grupo 84810" transform="translate(-307 -4353)">
    <rect id="Rectángulo_34079" data-name="Rectángulo 34079" width="890" height="321" rx="10" transform="translate(307 4353)" fill="#fff"/>
    <g id="Grupo_84809" data-name="Grupo 84809" transform="translate(5790 12317.184)">
      <path id="Trazado_126010" data-name="Trazado 126010" d="M-54.555,0V-11.375H-51.2a5.269,5.269,0,0,1,2.676.672A4.581,4.581,0,0,1-46.711-8.8a6.051,6.051,0,0,1,.641,2.828v.57a6.026,6.026,0,0,1-.645,2.844A4.526,4.526,0,0,1-48.551-.664,5.513,5.513,0,0,1-51.281,0Zm1.977-9.781v8.2h1.289A2.968,2.968,0,0,0-48.9-2.551a4.237,4.237,0,0,0,.848-2.793v-.633a4.347,4.347,0,0,0-.8-2.828A2.853,2.853,0,0,0-51.2-9.781ZM-39.234,0a2.93,2.93,0,0,1-.219-.789,2.955,2.955,0,0,1-2.219.945A2.982,2.982,0,0,1-43.75-.57a2.325,2.325,0,0,1-.8-1.8,2.4,2.4,0,0,1,1-2.074,4.865,4.865,0,0,1,2.871-.723h1.164v-.555a1.481,1.481,0,0,0-.367-1.051A1.456,1.456,0,0,0-41-7.164a1.672,1.672,0,0,0-1.062.324,1,1,0,0,0-.414.824h-1.9a2.107,2.107,0,0,1,.461-1.3,3.071,3.071,0,0,1,1.254-.949,4.4,4.4,0,0,1,1.77-.344,3.547,3.547,0,0,1,2.367.746,2.661,2.661,0,0,1,.906,2.1v3.813a4.321,4.321,0,0,0,.32,1.82V0ZM-41.32-1.367a2.16,2.16,0,0,0,1.059-.273,1.827,1.827,0,0,0,.746-.734V-3.969h-1.023a2.8,2.8,0,0,0-1.586.367,1.189,1.189,0,0,0-.531,1.039,1.109,1.109,0,0,0,.363.871A1.407,1.407,0,0,0-41.32-1.367Zm8.07-9.141v2.055h1.492v1.406H-33.25v4.719a1.039,1.039,0,0,0,.191.7.888.888,0,0,0,.684.215,2.924,2.924,0,0,0,.664-.078V-.023a4.676,4.676,0,0,1-1.25.18q-2.187,0-2.187-2.414V-7.047h-1.391V-8.453h1.391v-2.055ZM-25.258,0a2.93,2.93,0,0,1-.219-.789A2.955,2.955,0,0,1-27.7.156,2.982,2.982,0,0,1-29.773-.57a2.325,2.325,0,0,1-.8-1.8,2.4,2.4,0,0,1,1-2.074A4.865,4.865,0,0,1-26.7-5.164h1.164v-.555a1.481,1.481,0,0,0-.367-1.051,1.456,1.456,0,0,0-1.117-.395,1.672,1.672,0,0,0-1.062.324,1,1,0,0,0-.414.824h-1.9a2.107,2.107,0,0,1,.461-1.3,3.071,3.071,0,0,1,1.254-.949,4.4,4.4,0,0,1,1.77-.344,3.547,3.547,0,0,1,2.367.746,2.661,2.661,0,0,1,.906,2.1v3.813a4.321,4.321,0,0,0,.32,1.82V0Zm-2.086-1.367a2.159,2.159,0,0,0,1.059-.273,1.827,1.827,0,0,0,.746-.734V-3.969h-1.023a2.8,2.8,0,0,0-1.586.367,1.189,1.189,0,0,0-.531,1.039,1.109,1.109,0,0,0,.363.871A1.407,1.407,0,0,0-27.344-1.367Zm13.117-1.25,1.344-5.836h1.852L-13.336,0H-14.9l-1.812-5.8L-18.492,0h-1.562l-2.312-8.453h1.852l1.367,5.773,1.734-5.773h1.43ZM-4.711,0A2.93,2.93,0,0,1-4.93-.789,2.955,2.955,0,0,1-7.148.156,2.982,2.982,0,0,1-9.227-.57a2.325,2.325,0,0,1-.8-1.8,2.4,2.4,0,0,1,1-2.074,4.865,4.865,0,0,1,2.871-.723h1.164v-.555A1.481,1.481,0,0,0-5.359-6.77a1.456,1.456,0,0,0-1.117-.395,1.672,1.672,0,0,0-1.062.324,1,1,0,0,0-.414.824h-1.9a2.107,2.107,0,0,1,.461-1.3,3.071,3.071,0,0,1,1.254-.949,4.4,4.4,0,0,1,1.77-.344A3.547,3.547,0,0,1-4-7.863a2.661,2.661,0,0,1,.906,2.1v3.813a4.321,4.321,0,0,0,.32,1.82V0ZM-6.8-1.367a2.159,2.159,0,0,0,1.059-.273,1.827,1.827,0,0,0,.746-.734V-3.969H-6.016A2.8,2.8,0,0,0-7.6-3.6a1.189,1.189,0,0,0-.531,1.039,1.109,1.109,0,0,0,.363.871A1.407,1.407,0,0,0-6.8-1.367ZM3.32-6.719a4.7,4.7,0,0,0-.773-.062,1.741,1.741,0,0,0-1.758,1V0h-1.9V-8.453H.7l.047.945a2.139,2.139,0,0,1,1.906-1.1,1.777,1.777,0,0,1,.672.109ZM8.094.156A3.928,3.928,0,0,1,5.168-.98,4.124,4.124,0,0,1,4.047-4.008v-.234A5.072,5.072,0,0,1,4.535-6.5,3.716,3.716,0,0,1,5.906-8.055a3.625,3.625,0,0,1,1.969-.555,3.318,3.318,0,0,1,2.668,1.1,4.658,4.658,0,0,1,.941,3.117v.766H5.961a2.539,2.539,0,0,0,.7,1.656A2.1,2.1,0,0,0,8.2-1.359a2.571,2.571,0,0,0,2.125-1.055l1.023.977A3.418,3.418,0,0,1,10-.262,4.244,4.244,0,0,1,8.094.156ZM7.867-7.086a1.6,1.6,0,0,0-1.262.547,2.835,2.835,0,0,0-.613,1.523H9.609v-.141A2.307,2.307,0,0,0,9.1-6.6,1.586,1.586,0,0,0,7.867-7.086Zm6.961-.445A2.971,2.971,0,0,1,17.18-8.609q2.7,0,2.742,3.086V0h-1.9V-5.453a1.669,1.669,0,0,0-.379-1.238,1.549,1.549,0,0,0-1.113-.363,1.829,1.829,0,0,0-1.7,1.016V0h-1.9V-12h1.9ZM21.484-4.3a4.984,4.984,0,0,1,.492-2.238,3.6,3.6,0,0,1,1.383-1.531,3.9,3.9,0,0,1,2.047-.535,3.692,3.692,0,0,1,2.777,1.1,4.333,4.333,0,0,1,1.152,2.922l.008.445a5.029,5.029,0,0,1-.48,2.234A3.551,3.551,0,0,1,27.488-.383a3.925,3.925,0,0,1-2.066.539,3.667,3.667,0,0,1-2.863-1.191,4.563,4.563,0,0,1-1.074-3.176Zm1.9.164A3.406,3.406,0,0,0,23.922-2.1a1.752,1.752,0,0,0,1.5.738,1.733,1.733,0,0,0,1.5-.75,3.762,3.762,0,0,0,.535-2.2A3.362,3.362,0,0,0,26.9-6.336a1.759,1.759,0,0,0-1.5-.75,1.743,1.743,0,0,0-1.477.738A3.691,3.691,0,0,0,23.383-4.141ZM36.07-.828A2.944,2.944,0,0,1,33.7.156a2.624,2.624,0,0,1-2.082-.8,3.423,3.423,0,0,1-.707-2.328V-8.453h1.9V-3q0,1.609,1.336,1.609a1.876,1.876,0,0,0,1.867-.992v-6.07h1.9V0H36.117ZM44.578-2.3a.861.861,0,0,0-.418-.773,4.445,4.445,0,0,0-1.387-.469,7.129,7.129,0,0,1-1.617-.516,2.158,2.158,0,0,1-1.422-1.992,2.25,2.25,0,0,1,.922-1.828A3.644,3.644,0,0,1,43-8.609a3.792,3.792,0,0,1,2.449.75,2.38,2.38,0,0,1,.934,1.945h-1.9a1.17,1.17,0,0,0-.406-.91A1.557,1.557,0,0,0,43-7.187a1.682,1.682,0,0,0-1.02.289.911.911,0,0,0-.395.773.769.769,0,0,0,.367.68,5.049,5.049,0,0,0,1.484.488,7.027,7.027,0,0,1,1.754.586,2.484,2.484,0,0,1,.945.816A2.082,2.082,0,0,1,46.445-2.4,2.2,2.2,0,0,1,45.5-.551a4.031,4.031,0,0,1-2.477.707,4.371,4.371,0,0,1-1.852-.375A3.047,3.047,0,0,1,39.906-1.25a2.441,2.441,0,0,1-.453-1.414H41.3A1.338,1.338,0,0,0,41.8-1.629a1.973,1.973,0,0,0,1.242.363,1.92,1.92,0,0,0,1.141-.285A.883.883,0,0,0,44.578-2.3ZM51.82.156A3.928,3.928,0,0,1,48.895-.98a4.124,4.124,0,0,1-1.121-3.027v-.234A5.072,5.072,0,0,1,48.262-6.5a3.716,3.716,0,0,1,1.371-1.551A3.625,3.625,0,0,1,51.6-8.609a3.318,3.318,0,0,1,2.668,1.1,4.658,4.658,0,0,1,.941,3.117v.766H49.688a2.539,2.539,0,0,0,.7,1.656,2.1,2.1,0,0,0,1.543.609,2.571,2.571,0,0,0,2.125-1.055l1.023.977A3.418,3.418,0,0,1,53.723-.262,4.244,4.244,0,0,1,51.82.156Zm-.227-7.242a1.6,1.6,0,0,0-1.262.547,2.835,2.835,0,0,0-.613,1.523h3.617v-.141A2.307,2.307,0,0,0,52.828-6.6,1.586,1.586,0,0,0,51.594-7.086Z" transform="translate(-4946.417 -7695.673)" fill="#0d66bf"/>
      <path id="Trazado_126011" data-name="Trazado 126011" d="M-53.578-5.023h-4.773V0h-1.5V-11.375H-52.8v1.234h-5.547V-6.25h4.773Zm7.391,4.188a3.07,3.07,0,0,1-2.477.992,2.628,2.628,0,0,1-2.059-.785,3.4,3.4,0,0,1-.715-2.324v-5.5h1.445v5.461q0,1.922,1.563,1.922a2.163,2.163,0,0,0,2.2-1.234V-8.453h1.445V0h-1.375Zm7.109.992a3.693,3.693,0,0,1-2.8-1.129,4.19,4.19,0,0,1-1.078-3.02v-.266a5.073,5.073,0,0,1,.48-2.246,3.748,3.748,0,0,1,1.344-1.547,3.378,3.378,0,0,1,1.871-.559A3.166,3.166,0,0,1-36.7-7.523a4.7,4.7,0,0,1,.914,3.109v.6h-5.727a3,3,0,0,0,.73,2.02A2.3,2.3,0,0,0-39-1.023a2.517,2.517,0,0,0,1.3-.312,3.259,3.259,0,0,0,.93-.828l.883.688A3.55,3.55,0,0,1-39.078.156Zm-.18-7.578a1.928,1.928,0,0,0-1.469.637A3.1,3.1,0,0,0-41.461-5h4.234v-.109a2.753,2.753,0,0,0-.594-1.707A1.815,1.815,0,0,0-39.258-7.422Zm6.516-1.031.047,1.063a3.08,3.08,0,0,1,2.531-1.219q2.68,0,2.7,3.023V0h-1.445V-5.594a1.946,1.946,0,0,0-.418-1.352A1.675,1.675,0,0,0-30.6-7.383a2.086,2.086,0,0,0-1.234.375,2.546,2.546,0,0,0-.828.984V0h-1.445V-8.453ZM-23.32-10.5v2.047h1.578v1.117H-23.32v5.242a1.171,1.171,0,0,0,.211.762.888.888,0,0,0,.719.254,3.5,3.5,0,0,0,.688-.094V0a4.19,4.19,0,0,1-1.109.156A1.8,1.8,0,0,1-24.273-.43a2.517,2.517,0,0,1-.492-1.664V-7.336H-26.3V-8.453h1.539V-10.5ZM-16.547.156a3.693,3.693,0,0,1-2.8-1.129,4.19,4.19,0,0,1-1.078-3.02v-.266a5.073,5.073,0,0,1,.48-2.246A3.748,3.748,0,0,1-18.6-8.051a3.378,3.378,0,0,1,1.871-.559,3.166,3.166,0,0,1,2.563,1.086,4.7,4.7,0,0,1,.914,3.109v.6h-5.727a3,3,0,0,0,.73,2.02,2.3,2.3,0,0,0,1.777.77,2.517,2.517,0,0,0,1.3-.312,3.259,3.259,0,0,0,.93-.828l.883.688A3.55,3.55,0,0,1-16.547.156Zm-.18-7.578a1.928,1.928,0,0,0-1.469.637A3.1,3.1,0,0,0-18.93-5H-14.7v-.109a2.753,2.753,0,0,0-.594-1.707A1.815,1.815,0,0,0-16.727-7.422Zm10.07,5.18a1.064,1.064,0,0,0-.441-.91,4.249,4.249,0,0,0-1.539-.559,7.277,7.277,0,0,1-1.742-.562,2.479,2.479,0,0,1-.953-.781,1.869,1.869,0,0,1-.309-1.078,2.193,2.193,0,0,1,.879-1.758,3.432,3.432,0,0,1,2.246-.719,3.532,3.532,0,0,1,2.332.742,2.357,2.357,0,0,1,.895,1.9H-6.742a1.3,1.3,0,0,0-.5-1.023,1.888,1.888,0,0,0-1.27-.43,1.976,1.976,0,0,0-1.234.344,1.082,1.082,0,0,0-.445.9.877.877,0,0,0,.414.789,5.1,5.1,0,0,0,1.5.508A7.8,7.8,0,0,1-6.531-4.3a2.558,2.558,0,0,1,1,.809,1.988,1.988,0,0,1,.324,1.152A2.163,2.163,0,0,1-6.117-.527,3.8,3.8,0,0,1-8.469.156a4.257,4.257,0,0,1-1.8-.359,2.922,2.922,0,0,1-1.223-1A2.42,2.42,0,0,1-11.93-2.6h1.445A1.5,1.5,0,0,0-9.9-1.449a2.258,2.258,0,0,0,1.434.426,2.331,2.331,0,0,0,1.316-.332A1.02,1.02,0,0,0-6.656-2.242ZM.281-4.3A4.952,4.952,0,0,1,1.2-7.426,2.915,2.915,0,0,1,3.617-8.609,2.932,2.932,0,0,1,5.969-7.594V-12H7.414V0H6.086l-.07-.906A2.943,2.943,0,0,1,3.6.156a2.887,2.887,0,0,1-2.395-1.2A5.008,5.008,0,0,1,.281-4.187Zm1.445.164a3.749,3.749,0,0,0,.594,2.25,1.92,1.92,0,0,0,1.641.813A2.108,2.108,0,0,0,5.969-2.3V-6.187a2.125,2.125,0,0,0-1.992-1.2,1.929,1.929,0,0,0-1.656.82A4.128,4.128,0,0,0,1.727-4.133ZM13.164.156a3.693,3.693,0,0,1-2.8-1.129,4.19,4.19,0,0,1-1.078-3.02v-.266A5.073,5.073,0,0,1,9.77-6.5a3.748,3.748,0,0,1,1.344-1.547,3.378,3.378,0,0,1,1.871-.559,3.166,3.166,0,0,1,2.563,1.086,4.7,4.7,0,0,1,.914,3.109v.6H10.734a3,3,0,0,0,.73,2.02,2.3,2.3,0,0,0,1.777.77,2.517,2.517,0,0,0,1.3-.312,3.259,3.259,0,0,0,.93-.828l.883.688A3.55,3.55,0,0,1,13.164.156Zm-.18-7.578a1.928,1.928,0,0,0-1.469.637A3.1,3.1,0,0,0,10.781-5h4.234v-.109a2.753,2.753,0,0,0-.594-1.707A1.815,1.815,0,0,0,12.984-7.422ZM21.742-4.3a4.952,4.952,0,0,1,.922-3.129,2.915,2.915,0,0,1,2.414-1.184A2.932,2.932,0,0,1,27.43-7.594V-12h1.445V0H27.547l-.07-.906A2.943,2.943,0,0,1,25.063.156a2.887,2.887,0,0,1-2.395-1.2,5.008,5.008,0,0,1-.926-3.141Zm1.445.164a3.749,3.749,0,0,0,.594,2.25,1.92,1.92,0,0,0,1.641.813A2.108,2.108,0,0,0,27.43-2.3V-6.187a2.125,2.125,0,0,0-1.992-1.2,1.929,1.929,0,0,0-1.656.82A4.128,4.128,0,0,0,23.188-4.133ZM36.336,0a3.036,3.036,0,0,1-.2-.891A3.225,3.225,0,0,1,33.727.156a2.984,2.984,0,0,1-2.051-.707,2.287,2.287,0,0,1-.8-1.793,2.39,2.39,0,0,1,1-2.051,4.733,4.733,0,0,1,2.824-.73h1.406v-.664A1.623,1.623,0,0,0,35.656-7a1.821,1.821,0,0,0-1.336-.449,2.107,2.107,0,0,0-1.3.391,1.151,1.151,0,0,0-.523.945H31.047A2,2,0,0,1,31.5-7.332a3.066,3.066,0,0,1,1.219-.934,4.1,4.1,0,0,1,1.691-.344,3.342,3.342,0,0,1,2.289.73,2.635,2.635,0,0,1,.859,2.012v3.891a4.757,4.757,0,0,0,.3,1.852V0Zm-2.4-1.1a2.54,2.54,0,0,0,1.289-.352,2.127,2.127,0,0,0,.883-.914V-4.1H34.977q-2.656,0-2.656,1.555a1.316,1.316,0,0,0,.453,1.063A1.742,1.742,0,0,0,33.938-1.1Zm7.844-9.4v2.047h1.578v1.117H41.781v5.242a1.171,1.171,0,0,0,.211.762.888.888,0,0,0,.719.254,3.5,3.5,0,0,0,.688-.094V0a4.19,4.19,0,0,1-1.109.156A1.8,1.8,0,0,1,40.828-.43a2.517,2.517,0,0,1-.492-1.664V-7.336H38.8V-8.453h1.539V-10.5Zm2.727,6.2A4.993,4.993,0,0,1,45-6.539,3.643,3.643,0,0,1,46.355-8.07a3.7,3.7,0,0,1,1.988-.539,3.565,3.565,0,0,1,2.793,1.2A4.6,4.6,0,0,1,52.2-4.234v.1a5.036,5.036,0,0,1-.473,2.215A3.589,3.589,0,0,1,50.379-.391a3.743,3.743,0,0,1-2.02.547,3.556,3.556,0,0,1-2.785-1.2A4.575,4.575,0,0,1,44.508-4.2Zm1.453.172a3.616,3.616,0,0,0,.652,2.258,2.088,2.088,0,0,0,1.746.852,2.075,2.075,0,0,0,1.75-.863A3.955,3.955,0,0,0,50.758-4.3a3.61,3.61,0,0,0-.66-2.254,2.1,2.1,0,0,0-1.754-.863,2.075,2.075,0,0,0-1.727.852A3.925,3.925,0,0,0,45.961-4.133ZM58.938-2.242a1.064,1.064,0,0,0-.441-.91,4.249,4.249,0,0,0-1.539-.559,7.277,7.277,0,0,1-1.742-.562,2.479,2.479,0,0,1-.953-.781,1.869,1.869,0,0,1-.309-1.078,2.193,2.193,0,0,1,.879-1.758,3.432,3.432,0,0,1,2.246-.719,3.532,3.532,0,0,1,2.332.742,2.357,2.357,0,0,1,.895,1.9H58.852a1.3,1.3,0,0,0-.5-1.023,1.888,1.888,0,0,0-1.27-.43,1.976,1.976,0,0,0-1.234.344,1.082,1.082,0,0,0-.445.9.877.877,0,0,0,.414.789,5.1,5.1,0,0,0,1.5.508,7.8,7.8,0,0,1,1.754.578,2.558,2.558,0,0,1,1,.809,1.988,1.988,0,0,1,.324,1.152,2.163,2.163,0,0,1-.906,1.816,3.8,3.8,0,0,1-2.352.684,4.257,4.257,0,0,1-1.8-.359,2.922,2.922,0,0,1-1.223-1A2.42,2.42,0,0,1,53.664-2.6h1.445a1.5,1.5,0,0,0,.582,1.152,2.258,2.258,0,0,0,1.434.426,2.331,2.331,0,0,0,1.316-.332A1.02,1.02,0,0,0,58.938-2.242Z" transform="translate(-5345.5 -7699.278)" fill="#12263f"/>
      <g id="proceso-automatizado" transform="translate(-5193.421 -7867.674)">
        <path id="Trazado_125970" data-name="Trazado 125970" d="M60.008,213.972a24.205,24.205,0,0,0-.539-4.916l6.594-3.776-8.992-15.587-6.535,3.777c-.478-.4-.97-.78-1.647-1.269a28.54,28.54,0,0,0-6.866-3.587V181H24.039v7.614a28.507,28.507,0,0,0-8.512,4.856l-6.535-3.777L0,205.279l6.6,3.776a22.641,22.641,0,0,0,0,9.832L0,222.664l8.992,15.587,6.534-3.777a28.52,28.52,0,0,0,8.513,4.856v7.814H42.024v-7.814a28.507,28.507,0,0,0,8.512-4.856l6.535,3.777,8.992-15.587-6.6-3.776A24.153,24.153,0,0,0,60.008,213.972ZM33.032,228.959a14.987,14.987,0,1,1,14.987-14.987A14.993,14.993,0,0,1,33.032,228.959Zm0,0" transform="translate(0 -181)" fill="#53bced"/>
        <g id="Grupo_84727" data-name="Grupo 84727" transform="translate(33.032 0)">
          <path id="Trazado_125972" data-name="Trazado 125972" d="M191.738,218.888l6.594,3.776-8.992,15.587-6.535-3.777a28.506,28.506,0,0,1-8.512,4.856v7.814H165.3V228.959a14.987,14.987,0,1,0,0-29.974V181h8.992v7.614a28.507,28.507,0,0,1,8.512,4.856l6.535-3.777,8.992,15.587-6.594,3.776a22.674,22.674,0,0,1,0,9.832Zm0,0" transform="translate(-165.301 -181)" fill="#0d66bf"/>
        </g>
      </g>
      <g id="proceso-automatizado-2" data-name="proceso-automatizado" transform="translate(-5146.811 -7895.868)">
        <path id="Trazado_125970-2" data-name="Trazado 125970" d="M35.339,200.417a14.254,14.254,0,0,0-.318-2.9l3.883-2.224-5.3-9.179-3.848,2.224c-.282-.235-.571-.46-.97-.747a16.807,16.807,0,0,0-4.043-2.113V181H14.157v4.484a16.788,16.788,0,0,0-5.013,2.86L5.3,186.119,0,195.3l3.884,2.224a13.333,13.333,0,0,0,0,5.79L0,205.536l5.3,9.179,3.848-2.224a16.8,16.8,0,0,0,5.013,2.86v4.6H24.748v-4.6a16.788,16.788,0,0,0,5.013-2.86l3.848,2.224,5.3-9.179-3.884-2.224A14.224,14.224,0,0,0,35.339,200.417Zm-15.887,8.826a8.826,8.826,0,1,1,8.826-8.826A8.829,8.829,0,0,1,19.453,209.243Zm0,0" transform="translate(0 -181)" fill="#53bced"/>
        <g id="Grupo_84727-2" data-name="Grupo 84727" transform="translate(19.453 0)">
          <path id="Trazado_125972-2" data-name="Trazado 125972" d="M180.87,203.312l3.883,2.224-5.3,9.179-3.848-2.224a16.788,16.788,0,0,1-5.013,2.86v4.6h-5.3V209.243a8.826,8.826,0,1,0,0-17.652V181h5.3v4.484a16.788,16.788,0,0,1,5.013,2.86l3.848-2.224,5.3,9.179-3.883,2.224a13.352,13.352,0,0,1,0,5.79Zm0,0" transform="translate(-165.301 -181)" fill="#0d66bf"/>
        </g>
      </g>
      <path id="Trazado_126009" data-name="Trazado 126009" d="M-33.121-5.258h-4.93v4.031h5.727V0h-7.227V-11.375H-32.4v1.234h-5.648v3.656h4.93Zm5.273-.109,1.875-3.086h1.688l-2.766,4.18L-24.2,0h-1.672l-1.953-3.164L-29.777,0h-1.68l2.852-4.273-2.766-4.18H-29.7Zm7.055-5.133v2.047h1.578v1.117h-1.578v5.242a1.171,1.171,0,0,0,.211.762.888.888,0,0,0,.719.254,3.5,3.5,0,0,0,.688-.094V0a4.19,4.19,0,0,1-1.109.156A1.8,1.8,0,0,1-21.746-.43a2.517,2.517,0,0,1-.492-1.664V-7.336h-1.539V-8.453h1.539V-10.5Zm7.352,3.344a4.331,4.331,0,0,0-.711-.055A1.9,1.9,0,0,0-16.082-6V0h-1.445V-8.453h1.406l.023.977a2.251,2.251,0,0,1,2.016-1.133,1.477,1.477,0,0,1,.641.109ZM-7.207,0a3.036,3.036,0,0,1-.2-.891A3.225,3.225,0,0,1-9.816.156a2.984,2.984,0,0,1-2.051-.707,2.287,2.287,0,0,1-.8-1.793,2.39,2.39,0,0,1,1-2.051,4.733,4.733,0,0,1,2.824-.73h1.406v-.664A1.623,1.623,0,0,0-7.887-7a1.821,1.821,0,0,0-1.336-.449,2.107,2.107,0,0,0-1.3.391,1.151,1.151,0,0,0-.523.945H-12.5a2,2,0,0,1,.449-1.223,3.066,3.066,0,0,1,1.219-.934,4.1,4.1,0,0,1,1.691-.344,3.342,3.342,0,0,1,2.289.73,2.635,2.635,0,0,1,.859,2.012v3.891a4.757,4.757,0,0,0,.3,1.852V0Zm-2.4-1.1a2.54,2.54,0,0,0,1.289-.352,2.127,2.127,0,0,0,.883-.914V-4.1H-8.566q-2.656,0-2.656,1.555a1.316,1.316,0,0,0,.453,1.063A1.742,1.742,0,0,0-9.605-1.1Zm9.273.078A2.082,2.082,0,0,0,1.02-1.492,1.649,1.649,0,0,0,1.66-2.664H3.027a2.621,2.621,0,0,1-.5,1.383A3.293,3.293,0,0,1,1.3-.234,3.55,3.55,0,0,1-.332.156,3.482,3.482,0,0,1-3.078-1,4.59,4.59,0,0,1-4.1-4.148v-.242a5.089,5.089,0,0,1,.453-2.2,3.451,3.451,0,0,1,1.3-1.492,3.7,3.7,0,0,1,2-.531,3.39,3.39,0,0,1,2.363.852,3.043,3.043,0,0,1,1,2.211H1.66a1.992,1.992,0,0,0-.621-1.348A1.932,1.932,0,0,0-.34-7.422a2.023,2.023,0,0,0-1.707.793,3.724,3.724,0,0,0-.605,2.293v.273a3.65,3.65,0,0,0,.6,2.25A2.033,2.033,0,0,0-.332-1.023Zm8.375,0a2.082,2.082,0,0,0,1.352-.469,1.649,1.649,0,0,0,.641-1.172H11.4a2.621,2.621,0,0,1-.5,1.383A3.293,3.293,0,0,1,9.672-.234,3.55,3.55,0,0,1,8.043.156,3.482,3.482,0,0,1,5.3-1a4.59,4.59,0,0,1-1.02-3.152v-.242a5.089,5.089,0,0,1,.453-2.2,3.451,3.451,0,0,1,1.3-1.492,3.7,3.7,0,0,1,2-.531,3.39,3.39,0,0,1,2.363.852,3.043,3.043,0,0,1,1,2.211H10.035a1.992,1.992,0,0,0-.621-1.348,1.932,1.932,0,0,0-1.379-.527,2.023,2.023,0,0,0-1.707.793,3.724,3.724,0,0,0-.605,2.293v.273a3.65,3.65,0,0,0,.6,2.25A2.033,2.033,0,0,0,8.043-1.023ZM14.6,0H13.152V-8.453H14.6ZM13.035-10.7a.863.863,0,0,1,.215-.594.807.807,0,0,1,.637-.242.819.819,0,0,1,.641.242.854.854,0,0,1,.219.594.826.826,0,0,1-.219.586.834.834,0,0,1-.641.234.821.821,0,0,1-.637-.234A.834.834,0,0,1,13.035-10.7ZM16.527-4.3a4.993,4.993,0,0,1,.488-2.234A3.643,3.643,0,0,1,18.375-8.07a3.7,3.7,0,0,1,1.988-.539,3.565,3.565,0,0,1,2.793,1.2,4.6,4.6,0,0,1,1.066,3.18v.1a5.036,5.036,0,0,1-.473,2.215A3.589,3.589,0,0,1,22.4-.391a3.743,3.743,0,0,1-2.02.547,3.556,3.556,0,0,1-2.785-1.2A4.575,4.575,0,0,1,16.527-4.2Zm1.453.172a3.616,3.616,0,0,0,.652,2.258,2.088,2.088,0,0,0,1.746.852,2.075,2.075,0,0,0,1.75-.863A3.955,3.955,0,0,0,22.777-4.3a3.61,3.61,0,0,0-.66-2.254,2.1,2.1,0,0,0-1.754-.863,2.075,2.075,0,0,0-1.727.852A3.925,3.925,0,0,0,17.98-4.133ZM21.02-12h1.75L20.676-9.7H19.512ZM27.4-8.453l.047,1.063A3.08,3.08,0,0,1,29.98-8.609q2.68,0,2.7,3.023V0H31.238V-5.594a1.946,1.946,0,0,0-.418-1.352,1.675,1.675,0,0,0-1.277-.437,2.086,2.086,0,0,0-1.234.375,2.546,2.546,0,0,0-.828.984V0H26.035V-8.453ZM34.816,2.266,34,1.7a3.77,3.77,0,0,0,.766-2.109v-1.3h1.414V-.578A3.559,3.559,0,0,1,35.789,1,3.7,3.7,0,0,1,34.816,2.266ZM-55,13.859H-58.66V24h-1.492V13.859H-63.8V12.625H-55Zm4.961,2.984a4.331,4.331,0,0,0-.711-.055A1.9,1.9,0,0,0-52.684,18v6h-1.445V15.547h1.406l.023.977a2.251,2.251,0,0,1,2.016-1.133,1.477,1.477,0,0,1,.641.109ZM-43.809,24a3.036,3.036,0,0,1-.2-.891,3.225,3.225,0,0,1-2.406,1.047,2.984,2.984,0,0,1-2.051-.707,2.287,2.287,0,0,1-.8-1.793,2.39,2.39,0,0,1,1-2.051,4.733,4.733,0,0,1,2.824-.73h1.406v-.664A1.623,1.623,0,0,0-44.488,17a1.821,1.821,0,0,0-1.336-.449,2.107,2.107,0,0,0-1.3.391,1.151,1.151,0,0,0-.523.945H-49.1a2,2,0,0,1,.449-1.223,3.066,3.066,0,0,1,1.219-.934,4.1,4.1,0,0,1,1.691-.344,3.342,3.342,0,0,1,2.289.73,2.635,2.635,0,0,1,.859,2.012v3.891a4.757,4.757,0,0,0,.3,1.852V24Zm-2.4-1.1a2.54,2.54,0,0,0,1.289-.352,2.127,2.127,0,0,0,.883-.914V19.9h-1.133q-2.656,0-2.656,1.555a1.316,1.316,0,0,0,.453,1.063A1.742,1.742,0,0,0-46.207,22.9Zm7.25-7.352.047,1.063a3.08,3.08,0,0,1,2.531-1.219q2.68,0,2.7,3.023V24h-1.445V18.406a1.946,1.946,0,0,0-.418-1.352,1.675,1.675,0,0,0-1.277-.437,2.086,2.086,0,0,0-1.234.375,2.546,2.546,0,0,0-.828.984V24h-1.445V15.547Zm12.383,6.211a1.064,1.064,0,0,0-.441-.91,4.249,4.249,0,0,0-1.539-.559,7.277,7.277,0,0,1-1.742-.562,2.479,2.479,0,0,1-.953-.781,1.869,1.869,0,0,1-.309-1.078,2.193,2.193,0,0,1,.879-1.758,3.432,3.432,0,0,1,2.246-.719,3.532,3.532,0,0,1,2.332.742,2.357,2.357,0,0,1,.895,1.9H-26.66a1.3,1.3,0,0,0-.5-1.023,1.888,1.888,0,0,0-1.27-.43,1.976,1.976,0,0,0-1.234.344,1.082,1.082,0,0,0-.445.9.877.877,0,0,0,.414.789,5.1,5.1,0,0,0,1.5.508,7.8,7.8,0,0,1,1.754.578,2.558,2.558,0,0,1,1,.809,1.988,1.988,0,0,1,.324,1.152,2.163,2.163,0,0,1-.906,1.816,3.8,3.8,0,0,1-2.352.684,4.257,4.257,0,0,1-1.8-.359,2.922,2.922,0,0,1-1.223-1,2.42,2.42,0,0,1-.441-1.395H-30.4a1.5,1.5,0,0,0,.582,1.152,2.258,2.258,0,0,0,1.434.426,2.331,2.331,0,0,0,1.316-.332A1.02,1.02,0,0,0-26.574,21.758ZM-22.535,24V16.664h-1.336V15.547h1.336V14.68a2.878,2.878,0,0,1,.727-2.1,2.745,2.745,0,0,1,2.055-.742,3.793,3.793,0,0,1,.992.133l-.078,1.172a4.151,4.151,0,0,0-.781-.07,1.413,1.413,0,0,0-1.086.41,1.66,1.66,0,0,0-.383,1.176v.891h1.8v1.117h-1.8V24Zm4.461-4.3a4.993,4.993,0,0,1,.488-2.234,3.643,3.643,0,0,1,1.359-1.531,3.7,3.7,0,0,1,1.988-.539,3.565,3.565,0,0,1,2.793,1.2,4.6,4.6,0,0,1,1.066,3.18v.1a5.036,5.036,0,0,1-.473,2.215A3.589,3.589,0,0,1-12.2,23.609a3.743,3.743,0,0,1-2.02.547,3.556,3.556,0,0,1-2.785-1.2A4.575,4.575,0,0,1-18.074,19.8Zm1.453.172a3.616,3.616,0,0,0,.652,2.258,2.088,2.088,0,0,0,1.746.852,2.075,2.075,0,0,0,1.75-.863,3.955,3.955,0,0,0,.648-2.418,3.61,3.61,0,0,0-.66-2.254,2.1,2.1,0,0,0-1.754-.863,2.075,2.075,0,0,0-1.727.852A3.925,3.925,0,0,0-16.621,19.867ZM-4.48,16.844a4.331,4.331,0,0,0-.711-.055A1.9,1.9,0,0,0-7.121,18v6H-8.566V15.547H-7.16l.023.977a2.251,2.251,0,0,1,2.016-1.133,1.477,1.477,0,0,1,.641.109Zm2.688-1.3.039.938A3.122,3.122,0,0,1,.754,15.391,2.417,2.417,0,0,1,3.168,16.75a3.2,3.2,0,0,1,1.1-.984,3.242,3.242,0,0,1,1.6-.375q2.781,0,2.828,2.945V24H7.246V18.422a1.941,1.941,0,0,0-.414-1.355,1.823,1.823,0,0,0-1.391-.449,1.916,1.916,0,0,0-1.336.48,1.949,1.949,0,0,0-.617,1.293V24H2.035V18.461a1.613,1.613,0,0,0-1.8-1.844,1.934,1.934,0,0,0-1.945,1.211V24H-3.16V15.547ZM16.09,24a3.036,3.036,0,0,1-.2-.891,3.225,3.225,0,0,1-2.406,1.047,2.984,2.984,0,0,1-2.051-.707,2.287,2.287,0,0,1-.8-1.793,2.39,2.39,0,0,1,1-2.051,4.733,4.733,0,0,1,2.824-.73h1.406v-.664A1.623,1.623,0,0,0,15.41,17a1.821,1.821,0,0,0-1.336-.449,2.108,2.108,0,0,0-1.3.391,1.151,1.151,0,0,0-.523.945H10.8a2,2,0,0,1,.449-1.223,3.066,3.066,0,0,1,1.219-.934,4.1,4.1,0,0,1,1.691-.344,3.342,3.342,0,0,1,2.289.73,2.635,2.635,0,0,1,.859,2.012v3.891a4.757,4.757,0,0,0,.3,1.852V24Zm-2.4-1.1a2.54,2.54,0,0,0,1.289-.352,2.127,2.127,0,0,0,.883-.914V19.9H14.73q-2.656,0-2.656,1.555a1.316,1.316,0,0,0,.453,1.063A1.742,1.742,0,0,0,13.691,22.9Zm9.273.078a2.082,2.082,0,0,0,1.352-.469,1.649,1.649,0,0,0,.641-1.172h1.367a2.621,2.621,0,0,1-.5,1.383,3.293,3.293,0,0,1-1.23,1.047,3.55,3.55,0,0,1-1.629.391A3.482,3.482,0,0,1,20.219,23a4.59,4.59,0,0,1-1.02-3.152v-.242a5.089,5.089,0,0,1,.453-2.2,3.451,3.451,0,0,1,1.3-1.492,3.7,3.7,0,0,1,2-.531,3.39,3.39,0,0,1,2.363.852,3.043,3.043,0,0,1,1,2.211H24.957a1.992,1.992,0,0,0-.621-1.348,1.932,1.932,0,0,0-1.379-.527,2.023,2.023,0,0,0-1.707.793,3.724,3.724,0,0,0-.605,2.293v.273a3.65,3.65,0,0,0,.6,2.25A2.033,2.033,0,0,0,22.965,22.977ZM29.52,24H28.074V15.547H29.52ZM27.957,13.3a.863.863,0,0,1,.215-.594.807.807,0,0,1,.637-.242.819.819,0,0,1,.641.242.854.854,0,0,1,.219.594.826.826,0,0,1-.219.586.834.834,0,0,1-.641.234.821.821,0,0,1-.637-.234A.834.834,0,0,1,27.957,13.3ZM31.449,19.7a4.993,4.993,0,0,1,.488-2.234A3.643,3.643,0,0,1,33.3,15.93a3.7,3.7,0,0,1,1.988-.539,3.565,3.565,0,0,1,2.793,1.2,4.6,4.6,0,0,1,1.066,3.18v.1a5.036,5.036,0,0,1-.473,2.215,3.589,3.589,0,0,1-1.352,1.527,3.743,3.743,0,0,1-2.02.547,3.556,3.556,0,0,1-2.785-1.2A4.575,4.575,0,0,1,31.449,19.8Zm1.453.172a3.616,3.616,0,0,0,.652,2.258,2.211,2.211,0,0,0,3.5-.012A3.955,3.955,0,0,0,37.7,19.7a3.61,3.61,0,0,0-.66-2.254,2.1,2.1,0,0,0-1.754-.863,2.075,2.075,0,0,0-1.727.852A3.925,3.925,0,0,0,32.9,19.867ZM35.941,12h1.75L35.6,14.3H34.434Zm6.383,3.547.047,1.063A3.08,3.08,0,0,1,44.9,15.391q2.68,0,2.7,3.023V24H46.16V18.406a1.946,1.946,0,0,0-.418-1.352,1.675,1.675,0,0,0-1.277-.437,2.086,2.086,0,0,0-1.234.375,2.546,2.546,0,0,0-.828.984V24H40.957V15.547Zm14.188,6.336,1.969-6.336h1.547l-3.4,9.758q-.789,2.109-2.508,2.109l-.273-.023-.539-.1V26.117l.391.031a1.923,1.923,0,0,0,1.145-.3,2.148,2.148,0,0,0,.676-1.086l.32-.859-3.016-8.359H54.4ZM-11.344,44.391a4.185,4.185,0,0,1-1.332,2.785,4.365,4.365,0,0,1-2.98.98,4.008,4.008,0,0,1-3.23-1.445A5.815,5.815,0,0,1-20.1,42.844V41.75a6.481,6.481,0,0,1,.566-2.789,4.231,4.231,0,0,1,1.605-1.848,4.47,4.47,0,0,1,2.406-.645,4.11,4.11,0,0,1,2.906,1.012,4.235,4.235,0,0,1,1.273,2.8h-1.508a3.254,3.254,0,0,0-.848-1.969,2.569,2.569,0,0,0-1.824-.609,2.685,2.685,0,0,0-2.254,1.063,4.875,4.875,0,0,0-.816,3.023v1.1a5.011,5.011,0,0,0,.773,2.945,2.5,2.5,0,0,0,2.164,1.094,2.886,2.886,0,0,0,1.918-.566,3.143,3.143,0,0,0,.887-1.973ZM-4.3,48a3.036,3.036,0,0,1-.2-.891,3.225,3.225,0,0,1-2.406,1.047,2.984,2.984,0,0,1-2.051-.707,2.287,2.287,0,0,1-.8-1.793,2.39,2.39,0,0,1,1-2.051,4.733,4.733,0,0,1,2.824-.73h1.406v-.664A1.623,1.623,0,0,0-4.984,41a1.821,1.821,0,0,0-1.336-.449,2.107,2.107,0,0,0-1.3.391,1.151,1.151,0,0,0-.523.945H-9.594a2,2,0,0,1,.449-1.223,3.066,3.066,0,0,1,1.219-.934,4.1,4.1,0,0,1,1.691-.344,3.342,3.342,0,0,1,2.289.73,2.635,2.635,0,0,1,.859,2.012v3.891a4.757,4.757,0,0,0,.3,1.852V48Zm-2.4-1.1a2.54,2.54,0,0,0,1.289-.352,2.127,2.127,0,0,0,.883-.914V43.9H-5.664q-2.656,0-2.656,1.555a1.316,1.316,0,0,0,.453,1.063A1.742,1.742,0,0,0-6.7,46.9Zm9.969-6.055a4.331,4.331,0,0,0-.711-.055A1.9,1.9,0,0,0,.625,42v6H-.82V39.547H.586l.023.977a2.251,2.251,0,0,1,2.016-1.133,1.477,1.477,0,0,1,.641.109ZM4.1,43.7a4.968,4.968,0,0,1,.914-3.145,2.923,2.923,0,0,1,2.422-1.168,2.908,2.908,0,0,1,2.414,1.094l.07-.937h1.32V47.8a3.439,3.439,0,0,1-.973,2.586,3.589,3.589,0,0,1-2.613.945,4.348,4.348,0,0,1-1.789-.391,3.08,3.08,0,0,1-1.336-1.07L5.281,49a2.826,2.826,0,0,0,2.273,1.148A2.214,2.214,0,0,0,9.2,49.555a2.269,2.269,0,0,0,.59-1.672v-.727a2.971,2.971,0,0,1-2.367,1,2.887,2.887,0,0,1-2.4-1.2A5.224,5.224,0,0,1,4.1,43.7Zm1.453.164a3.79,3.79,0,0,0,.586,2.246,1.9,1.9,0,0,0,1.641.816,2.117,2.117,0,0,0,2.008-1.242V41.828A2.142,2.142,0,0,0,7.8,40.617a1.921,1.921,0,0,0-1.648.82A4.128,4.128,0,0,0,5.555,43.867ZM18.641,48a3.036,3.036,0,0,1-.2-.891,3.225,3.225,0,0,1-2.406,1.047,2.984,2.984,0,0,1-2.051-.707,2.287,2.287,0,0,1-.8-1.793,2.39,2.39,0,0,1,1-2.051,4.733,4.733,0,0,1,2.824-.73h1.406v-.664A1.623,1.623,0,0,0,17.961,41a1.821,1.821,0,0,0-1.336-.449,2.107,2.107,0,0,0-1.3.391,1.151,1.151,0,0,0-.523.945H13.352a2,2,0,0,1,.449-1.223,3.066,3.066,0,0,1,1.219-.934,4.1,4.1,0,0,1,1.691-.344,3.342,3.342,0,0,1,2.289.73,2.635,2.635,0,0,1,.859,2.012v3.891a4.757,4.757,0,0,0,.3,1.852V48Zm-2.4-1.1a2.54,2.54,0,0,0,1.289-.352,2.127,2.127,0,0,0,.883-.914V43.9H17.281q-2.656,0-2.656,1.555a1.316,1.316,0,0,0,.453,1.063A1.742,1.742,0,0,0,16.242,46.9Z" transform="translate(-5168 -7718.278)" fill="#12263f"/>
      <path id="Trazado_126007" data-name="Trazado 126007" d="M-46.277-4.227V0h-1.977V-11.375H-43.9a4.4,4.4,0,0,1,3.027.992,3.334,3.334,0,0,1,1.121,2.625,3.224,3.224,0,0,1-1.1,2.6,4.617,4.617,0,0,1-3.074.93Zm0-1.586H-43.9a2.339,2.339,0,0,0,1.609-.5,1.823,1.823,0,0,0,.555-1.434A1.967,1.967,0,0,0-42.3-9.215a2.168,2.168,0,0,0-1.547-.566h-2.43Zm12.492-.906a4.7,4.7,0,0,0-.773-.062,1.741,1.741,0,0,0-1.758,1V0h-1.9V-8.453H-36.4l.047.945a2.139,2.139,0,0,1,1.906-1.1,1.777,1.777,0,0,1,.672.109Zm.563,2.414a4.984,4.984,0,0,1,.492-2.238,3.6,3.6,0,0,1,1.383-1.531A3.9,3.9,0,0,1-29.3-8.609a3.692,3.692,0,0,1,2.777,1.1,4.333,4.333,0,0,1,1.152,2.922l.008.445a5.029,5.029,0,0,1-.48,2.234A3.551,3.551,0,0,1-27.219-.383a3.925,3.925,0,0,1-2.066.539,3.667,3.667,0,0,1-2.863-1.191,4.563,4.563,0,0,1-1.074-3.176Zm1.9.164A3.406,3.406,0,0,0-30.785-2.1a1.752,1.752,0,0,0,1.5.738,1.733,1.733,0,0,0,1.5-.75,3.762,3.762,0,0,0,.535-2.2A3.362,3.362,0,0,0-27.8-6.336a1.759,1.759,0,0,0-1.5-.75,1.743,1.743,0,0,0-1.477.738A3.691,3.691,0,0,0-31.324-4.141Zm11.039,2.781a1.716,1.716,0,0,0,1.18-.414,1.415,1.415,0,0,0,.5-1.023h1.789a2.789,2.789,0,0,1-.492,1.473,3.228,3.228,0,0,1-1.25,1.082,3.725,3.725,0,0,1-1.7.4A3.6,3.6,0,0,1-23.074-.992a4.555,4.555,0,0,1-1.039-3.172v-.2a4.479,4.479,0,0,1,1.031-3.09,3.571,3.571,0,0,1,2.813-1.16,3.473,3.473,0,0,1,2.457.879,3.148,3.148,0,0,1,1,2.309h-1.789a1.738,1.738,0,0,0-.5-1.2,1.6,1.6,0,0,0-1.184-.469,1.671,1.671,0,0,0-1.422.668,3.408,3.408,0,0,0-.508,2.027v.3a3.465,3.465,0,0,0,.5,2.051A1.669,1.669,0,0,0-20.285-1.359ZM-11.66.156A3.928,3.928,0,0,1-14.586-.98a4.124,4.124,0,0,1-1.121-3.027v-.234A5.072,5.072,0,0,1-15.219-6.5a3.716,3.716,0,0,1,1.371-1.551,3.625,3.625,0,0,1,1.969-.555,3.318,3.318,0,0,1,2.668,1.1A4.658,4.658,0,0,1-8.27-4.391v.766h-5.523a2.539,2.539,0,0,0,.7,1.656,2.1,2.1,0,0,0,1.543.609A2.571,2.571,0,0,0-9.426-2.414l1.023.977A3.418,3.418,0,0,1-9.758-.262,4.244,4.244,0,0,1-11.66.156Zm-.227-7.242a1.6,1.6,0,0,0-1.262.547,2.835,2.835,0,0,0-.613,1.523h3.617v-.141A2.307,2.307,0,0,0-10.652-6.6,1.586,1.586,0,0,0-11.887-7.086ZM-2.059-2.3a.861.861,0,0,0-.418-.773,4.445,4.445,0,0,0-1.387-.469A7.129,7.129,0,0,1-5.48-4.055,2.158,2.158,0,0,1-6.9-6.047,2.25,2.25,0,0,1-5.98-7.875a3.644,3.644,0,0,1,2.344-.734,3.792,3.792,0,0,1,2.449.75A2.38,2.38,0,0,1-.254-5.914h-1.9a1.17,1.17,0,0,0-.406-.91,1.557,1.557,0,0,0-1.078-.363,1.682,1.682,0,0,0-1.02.289.911.911,0,0,0-.395.773.769.769,0,0,0,.367.68A5.049,5.049,0,0,0-3.2-4.957a7.027,7.027,0,0,1,1.754.586A2.484,2.484,0,0,1-.5-3.555,2.082,2.082,0,0,1-.191-2.4,2.2,2.2,0,0,1-1.137-.551,4.031,4.031,0,0,1-3.613.156,4.371,4.371,0,0,1-5.465-.219,3.047,3.047,0,0,1-6.73-1.25a2.441,2.441,0,0,1-.453-1.414H-5.34a1.338,1.338,0,0,0,.508,1.035,1.973,1.973,0,0,0,1.242.363,1.92,1.92,0,0,0,1.141-.285A.883.883,0,0,0-2.059-2.3ZM1.105-4.3A4.984,4.984,0,0,1,1.6-6.543,3.6,3.6,0,0,1,2.98-8.074a3.9,3.9,0,0,1,2.047-.535A3.692,3.692,0,0,1,7.8-7.508,4.333,4.333,0,0,1,8.957-4.586l.008.445a5.029,5.029,0,0,1-.48,2.234A3.551,3.551,0,0,1,7.109-.383,3.925,3.925,0,0,1,5.043.156,3.667,3.667,0,0,1,2.18-1.035,4.563,4.563,0,0,1,1.105-4.211ZM3-4.141A3.406,3.406,0,0,0,3.543-2.1a1.752,1.752,0,0,0,1.5.738,1.733,1.733,0,0,0,1.5-.75,3.762,3.762,0,0,0,.535-2.2,3.362,3.362,0,0,0-.551-2.031,1.759,1.759,0,0,0-1.5-.75,1.743,1.743,0,0,0-1.477.738A3.691,3.691,0,0,0,3-4.141ZM15.309-2.3a.861.861,0,0,0-.418-.773A4.445,4.445,0,0,0,13.5-3.539a7.129,7.129,0,0,1-1.617-.516,2.158,2.158,0,0,1-1.422-1.992,2.25,2.25,0,0,1,.922-1.828,3.644,3.644,0,0,1,2.344-.734,3.792,3.792,0,0,1,2.449.75,2.38,2.38,0,0,1,.934,1.945h-1.9a1.17,1.17,0,0,0-.406-.91,1.557,1.557,0,0,0-1.078-.363,1.682,1.682,0,0,0-1.02.289.911.911,0,0,0-.395.773.769.769,0,0,0,.367.68,5.049,5.049,0,0,0,1.484.488,7.027,7.027,0,0,1,1.754.586,2.484,2.484,0,0,1,.945.816A2.082,2.082,0,0,1,17.176-2.4,2.2,2.2,0,0,1,16.23-.551a4.031,4.031,0,0,1-2.477.707A4.371,4.371,0,0,1,11.9-.219,3.047,3.047,0,0,1,10.637-1.25a2.441,2.441,0,0,1-.453-1.414h1.844a1.338,1.338,0,0,0,.508,1.035,1.973,1.973,0,0,0,1.242.363,1.92,1.92,0,0,0,1.141-.285A.883.883,0,0,0,15.309-2.3ZM29.645-5.078H24.973v3.5h5.461V0H23V-11.375h7.383v1.594H24.973v3.141h4.672Zm10.773-4.7H36.871V0H34.91V-9.781H31.395v-1.594h9.023Zm3.469,8.2h5.164V0H41.91V-11.375h1.977Z" transform="translate(-5168 -7761)" fill="#0d66bf"/>
      <path id="flecha-correcta" d="M25.115,30.761a4.586,4.586,0,0,0-6.486,6.486l6.379,6.381H4.374a4.374,4.374,0,0,0,0,8.748H25.008l-6.379,6.379a4.586,4.586,0,0,0,6.486,6.486L41.736,48.619a.875.875,0,0,0,0-1.237Z" transform="translate(-5073.433 -7939.55)" fill="#db6e5f"/>
      <path id="flecha-correcta-2" data-name="flecha-correcta" d="M25.115,30.761a4.586,4.586,0,0,0-6.486,6.486l6.379,6.381H4.374a4.374,4.374,0,0,0,0,8.748H25.008l-6.379,6.379a4.586,4.586,0,0,0,6.486,6.486L41.736,48.619a.875.875,0,0,0,0-1.237Z" transform="translate(-5073.433 -7894.149)" fill="#db6e5f"/>
      <path id="flecha-correcta-3" data-name="flecha-correcta" d="M25.115,30.761a4.586,4.586,0,0,0-6.486,6.486l6.379,6.381H4.374a4.374,4.374,0,0,0,0,8.748H25.008l-6.379,6.379a4.586,4.586,0,0,0,6.486,6.486L41.736,48.619a.875.875,0,0,0,0-1.237Z" transform="translate(-5073.433 -7848)" fill="#db6e5f"/>
      <g id="Grupo_84791" data-name="Grupo 84791" transform="translate(-5383.928 -7909.794)">
        <rect id="Rectángulo_34062" data-name="Rectángulo 34062" width="69.472" height="18.83" transform="translate(0 0)" fill="#57555c"/>
        <rect id="Rectángulo_34063" data-name="Rectángulo 34063" width="69.472" height="18.83" transform="translate(0 16.05)" fill="#57555c"/>
      </g>
      <g id="Grupo_84792" data-name="Grupo 84792" transform="translate(-5349.193 -7909.794)">
        <rect id="Rectángulo_34065" data-name="Rectángulo 34065" width="34.737" height="18.83" transform="translate(0 0)" fill="#3c3a41"/>
        <rect id="Rectángulo_34066" data-name="Rectángulo 34066" width="34.737" height="18.83" transform="translate(0 16.05)" fill="#3c3a41"/>
      </g>
      <path id="Trazado_126003" data-name="Trazado 126003" d="M0,0H80.033V23.8H0Z" transform="translate(-5389.209 -7905.393)" fill="#dbbe36"/>
      <g id="Grupo_84793" data-name="Grupo 84793" transform="translate(-5382.013 -7895.868)">
        <rect id="Rectángulo_34074" data-name="Rectángulo 34074" width="4.572" height="4.757" transform="translate(0)" fill="#fff"/>
        <rect id="Rectángulo_34075" data-name="Rectángulo 34075" width="4.572" height="4.757" transform="translate(8.224)" fill="#fff"/>
      </g>
      <g id="Grupo_84794" data-name="Grupo 84794" transform="translate(-5349.193 -7905.392)">
        <rect id="Rectángulo_34078" data-name="Rectángulo 34078" width="40.018" height="23.804" transform="translate(0 0)" fill="#efdf96"/>
      </g>
      <path id="Trazado_126012" data-name="Trazado 126012" d="M-56.559-2.969h-4.766L-62.395,0h-1.547L-59.6-11.375h1.313L-53.934,0h-1.539ZM-60.871-4.2H-57l-1.937-5.32ZM-51.059,0H-52.5V-12h1.445Zm3.672-8.453.039.938A3.122,3.122,0,0,1-44.84-8.609,2.417,2.417,0,0,1-42.426-7.25a3.2,3.2,0,0,1,1.1-.984,3.242,3.242,0,0,1,1.6-.375q2.781,0,2.828,2.945V0h-1.445V-5.578a1.941,1.941,0,0,0-.414-1.355,1.823,1.823,0,0,0-1.391-.449,1.916,1.916,0,0,0-1.336.48,1.949,1.949,0,0,0-.617,1.293V0h-1.453V-5.539a1.613,1.613,0,0,0-1.8-1.844,1.934,1.934,0,0,0-1.945,1.211V0h-1.445V-8.453ZM-29.5,0a3.036,3.036,0,0,1-.2-.891A3.225,3.225,0,0,1-32.113.156a2.984,2.984,0,0,1-2.051-.707,2.287,2.287,0,0,1-.8-1.793,2.39,2.39,0,0,1,1-2.051,4.733,4.733,0,0,1,2.824-.73h1.406v-.664A1.623,1.623,0,0,0-30.184-7a1.821,1.821,0,0,0-1.336-.449,2.107,2.107,0,0,0-1.3.391,1.151,1.151,0,0,0-.523.945h-1.453a2,2,0,0,1,.449-1.223,3.066,3.066,0,0,1,1.219-.934,4.1,4.1,0,0,1,1.691-.344,3.342,3.342,0,0,1,2.289.73,2.635,2.635,0,0,1,.859,2.012v3.891a4.757,4.757,0,0,0,.3,1.852V0Zm-2.4-1.1a2.54,2.54,0,0,0,1.289-.352,2.127,2.127,0,0,0,.883-.914V-4.1h-1.133q-2.656,0-2.656,1.555a1.316,1.316,0,0,0,.453,1.063A1.742,1.742,0,0,0-31.9-1.1Zm9.273.078a2.082,2.082,0,0,0,1.352-.469,1.649,1.649,0,0,0,.641-1.172h1.367a2.621,2.621,0,0,1-.5,1.383A3.293,3.293,0,0,1-21-.234a3.55,3.55,0,0,1-1.629.391A3.482,3.482,0,0,1-25.375-1a4.59,4.59,0,0,1-1.02-3.152v-.242a5.089,5.089,0,0,1,.453-2.2,3.451,3.451,0,0,1,1.3-1.492,3.7,3.7,0,0,1,2-.531,3.39,3.39,0,0,1,2.363.852,3.043,3.043,0,0,1,1,2.211h-1.367a1.992,1.992,0,0,0-.621-1.348,1.932,1.932,0,0,0-1.379-.527,2.023,2.023,0,0,0-1.707.793,3.724,3.724,0,0,0-.605,2.293v.273a3.65,3.65,0,0,0,.6,2.25A2.033,2.033,0,0,0-22.629-1.023Zm8.492,1.18a3.693,3.693,0,0,1-2.8-1.129,4.19,4.19,0,0,1-1.078-3.02v-.266a5.073,5.073,0,0,1,.48-2.246,3.748,3.748,0,0,1,1.344-1.547,3.378,3.378,0,0,1,1.871-.559,3.166,3.166,0,0,1,2.563,1.086,4.7,4.7,0,0,1,.914,3.109v.6h-5.727a3,3,0,0,0,.73,2.02,2.3,2.3,0,0,0,1.777.77,2.517,2.517,0,0,0,1.3-.312,3.259,3.259,0,0,0,.93-.828l.883.688A3.55,3.55,0,0,1-14.137.156Zm-.18-7.578a1.928,1.928,0,0,0-1.469.637A3.1,3.1,0,0,0-16.52-5h4.234v-.109a2.753,2.753,0,0,0-.594-1.707A1.815,1.815,0,0,0-14.316-7.422Zm.7-4.578h1.75l-2.094,2.3h-1.164ZM-7.8-8.453l.047,1.063A3.08,3.08,0,0,1-5.223-8.609q2.68,0,2.7,3.023V0H-3.965V-5.594a1.946,1.946,0,0,0-.418-1.352A1.675,1.675,0,0,0-5.66-7.383a2.086,2.086,0,0,0-1.234.375,2.546,2.546,0,0,0-.828.984V0H-9.168V-8.453ZM3.27-4.3a4.952,4.952,0,0,1,.922-3.129A2.915,2.915,0,0,1,6.605-8.609,2.932,2.932,0,0,1,8.957-7.594V-12H10.4V0H9.074L9-.906A2.943,2.943,0,0,1,6.59.156,2.887,2.887,0,0,1,4.2-1.047,5.008,5.008,0,0,1,3.27-4.187Zm1.445.164a3.749,3.749,0,0,0,.594,2.25,1.92,1.92,0,0,0,1.641.813A2.108,2.108,0,0,0,8.957-2.3V-6.187a2.125,2.125,0,0,0-1.992-1.2,1.929,1.929,0,0,0-1.656.82A4.128,4.128,0,0,0,4.715-4.133ZM16.152.156a3.693,3.693,0,0,1-2.8-1.129,4.19,4.19,0,0,1-1.078-3.02v-.266a5.073,5.073,0,0,1,.48-2.246A3.748,3.748,0,0,1,14.1-8.051a3.378,3.378,0,0,1,1.871-.559,3.166,3.166,0,0,1,2.563,1.086,4.7,4.7,0,0,1,.914,3.109v.6H13.723a3,3,0,0,0,.73,2.02,2.3,2.3,0,0,0,1.777.77,2.517,2.517,0,0,0,1.3-.312,3.259,3.259,0,0,0,.93-.828l.883.688A3.55,3.55,0,0,1,16.152.156Zm-.18-7.578a1.928,1.928,0,0,0-1.469.637A3.1,3.1,0,0,0,13.77-5H18v-.109a2.753,2.753,0,0,0-.594-1.707A1.815,1.815,0,0,0,15.973-7.422ZM24.73-4.3a4.952,4.952,0,0,1,.922-3.129,2.915,2.915,0,0,1,2.414-1.184,2.932,2.932,0,0,1,2.352,1.016V-12h1.445V0H30.535l-.07-.906A2.943,2.943,0,0,1,28.051.156a2.887,2.887,0,0,1-2.395-1.2,5.008,5.008,0,0,1-.926-3.141Zm1.445.164a3.749,3.749,0,0,0,.594,2.25,1.92,1.92,0,0,0,1.641.813A2.108,2.108,0,0,0,30.418-2.3V-6.187a2.125,2.125,0,0,0-1.992-1.2,1.929,1.929,0,0,0-1.656.82A4.128,4.128,0,0,0,26.176-4.133ZM39.324,0a3.036,3.036,0,0,1-.2-.891A3.225,3.225,0,0,1,36.715.156a2.984,2.984,0,0,1-2.051-.707,2.287,2.287,0,0,1-.8-1.793,2.39,2.39,0,0,1,1-2.051,4.733,4.733,0,0,1,2.824-.73H39.1v-.664A1.623,1.623,0,0,0,38.645-7a1.821,1.821,0,0,0-1.336-.449,2.107,2.107,0,0,0-1.3.391,1.151,1.151,0,0,0-.523.945H34.035a2,2,0,0,1,.449-1.223A3.066,3.066,0,0,1,35.7-8.266a4.1,4.1,0,0,1,1.691-.344,3.342,3.342,0,0,1,2.289.73,2.635,2.635,0,0,1,.859,2.012v3.891a4.757,4.757,0,0,0,.3,1.852V0Zm-2.4-1.1a2.54,2.54,0,0,0,1.289-.352,2.127,2.127,0,0,0,.883-.914V-4.1H37.965q-2.656,0-2.656,1.555a1.316,1.316,0,0,0,.453,1.063A1.742,1.742,0,0,0,36.926-1.1Zm7.844-9.4v2.047h1.578v1.117H44.77v5.242a1.171,1.171,0,0,0,.211.762.888.888,0,0,0,.719.254,3.5,3.5,0,0,0,.688-.094V0a4.19,4.19,0,0,1-1.109.156A1.8,1.8,0,0,1,43.816-.43a2.517,2.517,0,0,1-.492-1.664V-7.336H41.785V-8.453h1.539V-10.5ZM47.5-4.3a4.993,4.993,0,0,1,.488-2.234A3.643,3.643,0,0,1,49.344-8.07a3.7,3.7,0,0,1,1.988-.539,3.565,3.565,0,0,1,2.793,1.2,4.6,4.6,0,0,1,1.066,3.18v.1a5.036,5.036,0,0,1-.473,2.215A3.589,3.589,0,0,1,53.367-.391a3.743,3.743,0,0,1-2.02.547,3.556,3.556,0,0,1-2.785-1.2A4.575,4.575,0,0,1,47.5-4.2Zm1.453.172A3.616,3.616,0,0,0,49.6-1.875a2.088,2.088,0,0,0,1.746.852,2.075,2.075,0,0,0,1.75-.863A3.955,3.955,0,0,0,53.746-4.3a3.61,3.61,0,0,0-.66-2.254,2.1,2.1,0,0,0-1.754-.863,2.075,2.075,0,0,0-1.727.852A3.925,3.925,0,0,0,48.949-4.133ZM61.926-2.242a1.064,1.064,0,0,0-.441-.91,4.249,4.249,0,0,0-1.539-.559A7.277,7.277,0,0,1,58.2-4.273a2.479,2.479,0,0,1-.953-.781,1.869,1.869,0,0,1-.309-1.078,2.193,2.193,0,0,1,.879-1.758,3.432,3.432,0,0,1,2.246-.719,3.532,3.532,0,0,1,2.332.742,2.357,2.357,0,0,1,.895,1.9H61.84a1.3,1.3,0,0,0-.5-1.023,1.888,1.888,0,0,0-1.27-.43,1.976,1.976,0,0,0-1.234.344,1.082,1.082,0,0,0-.445.9.877.877,0,0,0,.414.789,5.1,5.1,0,0,0,1.5.508,7.8,7.8,0,0,1,1.754.578,2.558,2.558,0,0,1,1,.809,1.988,1.988,0,0,1,.324,1.152,2.163,2.163,0,0,1-.906,1.816,3.8,3.8,0,0,1-2.352.684,4.257,4.257,0,0,1-1.8-.359,2.922,2.922,0,0,1-1.223-1A2.42,2.42,0,0,1,56.652-2.6H58.1a1.5,1.5,0,0,0,.582,1.152,2.258,2.258,0,0,0,1.434.426,2.331,2.331,0,0,0,1.316-.332A1.02,1.02,0,0,0,61.926-2.242Z" transform="translate(-4947.417 -7670.278)" fill="#12263f"/>
      <path id="Trazado_126008" data-name="Trazado 126008" d="M-66.621-5.258h-4.93v4.031h5.727V0h-7.227V-11.375H-65.9v1.234h-5.648v3.656h4.93Zm5.273-.109,1.875-3.086h1.688l-2.766,4.18L-57.7,0h-1.672l-1.953-3.164L-63.277,0h-1.68l2.852-4.273-2.766-4.18H-63.2Zm12.234,1.234A5.062,5.062,0,0,1-50-1.023,2.829,2.829,0,0,1-52.387.156,3.1,3.1,0,0,1-54.809-.82V3.25h-1.445v-11.7h1.32l.07.938A2.977,2.977,0,0,1-52.41-8.609,2.882,2.882,0,0,1-50-7.461a5.117,5.117,0,0,1,.887,3.2ZM-50.559-4.3a3.735,3.735,0,0,0-.609-2.258,1.963,1.963,0,0,0-1.672-.828,2.125,2.125,0,0,0-1.969,1.164V-2.18a2.129,2.129,0,0,0,1.984,1.156,1.954,1.954,0,0,0,1.652-.824A4.077,4.077,0,0,0-50.559-4.3ZM-45.707,0h-1.445V-12h1.445Zm1.93-4.3a4.993,4.993,0,0,1,.488-2.234A3.643,3.643,0,0,1-41.93-8.07a3.7,3.7,0,0,1,1.988-.539,3.565,3.565,0,0,1,2.793,1.2,4.6,4.6,0,0,1,1.066,3.18v.1a5.036,5.036,0,0,1-.473,2.215A3.589,3.589,0,0,1-37.906-.391a3.743,3.743,0,0,1-2.02.547,3.556,3.556,0,0,1-2.785-1.2A4.575,4.575,0,0,1-43.777-4.2Zm1.453.172a3.616,3.616,0,0,0,.652,2.258,2.088,2.088,0,0,0,1.746.852,2.075,2.075,0,0,0,1.75-.863A3.955,3.955,0,0,0-37.527-4.3a3.61,3.61,0,0,0-.66-2.254,2.1,2.1,0,0,0-1.754-.863,2.075,2.075,0,0,0-1.727.852A3.925,3.925,0,0,0-42.324-4.133ZM-32.309-10.5v2.047h1.578v1.117h-1.578v5.242a1.171,1.171,0,0,0,.211.762.888.888,0,0,0,.719.254,3.5,3.5,0,0,0,.688-.094V0A4.19,4.19,0,0,1-31.8.156,1.8,1.8,0,0,1-33.262-.43a2.517,2.517,0,0,1-.492-1.664V-7.336h-1.539V-8.453h1.539V-10.5ZM-23.824,0a3.036,3.036,0,0,1-.2-.891A3.225,3.225,0,0,1-26.434.156a2.984,2.984,0,0,1-2.051-.707,2.287,2.287,0,0,1-.8-1.793,2.39,2.39,0,0,1,1-2.051,4.733,4.733,0,0,1,2.824-.73h1.406v-.664A1.623,1.623,0,0,0-24.5-7a1.821,1.821,0,0,0-1.336-.449,2.108,2.108,0,0,0-1.3.391,1.151,1.151,0,0,0-.523.945h-1.453a2,2,0,0,1,.449-1.223,3.066,3.066,0,0,1,1.219-.934,4.1,4.1,0,0,1,1.691-.344,3.342,3.342,0,0,1,2.289.73,2.635,2.635,0,0,1,.859,2.012v3.891a4.757,4.757,0,0,0,.3,1.852V0Zm-2.4-1.1a2.54,2.54,0,0,0,1.289-.352,2.127,2.127,0,0,0,.883-.914V-4.1h-1.133q-2.656,0-2.656,1.555a1.316,1.316,0,0,0,.453,1.063A1.742,1.742,0,0,0-26.223-1.1Zm9.273.078A2.082,2.082,0,0,0-15.6-1.492a1.649,1.649,0,0,0,.641-1.172h1.367a2.621,2.621,0,0,1-.5,1.383A3.293,3.293,0,0,1-15.32-.234a3.55,3.55,0,0,1-1.629.391A3.482,3.482,0,0,1-19.7-1a4.59,4.59,0,0,1-1.02-3.152v-.242a5.089,5.089,0,0,1,.453-2.2,3.451,3.451,0,0,1,1.3-1.492,3.7,3.7,0,0,1,2-.531,3.39,3.39,0,0,1,2.363.852,3.043,3.043,0,0,1,1,2.211h-1.367a1.992,1.992,0,0,0-.621-1.348,1.932,1.932,0,0,0-1.379-.527,2.023,2.023,0,0,0-1.707.793,3.724,3.724,0,0,0-.605,2.293v.273a3.65,3.65,0,0,0,.6,2.25A2.033,2.033,0,0,0-16.949-1.023ZM-10.395,0H-11.84V-8.453h1.445Zm-1.562-10.7a.863.863,0,0,1,.215-.594.807.807,0,0,1,.637-.242.819.819,0,0,1,.641.242.854.854,0,0,1,.219.594.826.826,0,0,1-.219.586.834.834,0,0,1-.641.234.821.821,0,0,1-.637-.234A.834.834,0,0,1-11.957-10.7ZM-8.465-4.3a4.993,4.993,0,0,1,.488-2.234A3.643,3.643,0,0,1-6.617-8.07a3.7,3.7,0,0,1,1.988-.539,3.565,3.565,0,0,1,2.793,1.2A4.6,4.6,0,0,1-.77-4.234v.1a5.036,5.036,0,0,1-.473,2.215A3.589,3.589,0,0,1-2.594-.391a3.743,3.743,0,0,1-2.02.547A3.556,3.556,0,0,1-7.4-1.039,4.575,4.575,0,0,1-8.465-4.2Zm1.453.172a3.616,3.616,0,0,0,.652,2.258,2.088,2.088,0,0,0,1.746.852,2.075,2.075,0,0,0,1.75-.863A3.955,3.955,0,0,0-2.215-4.3a3.61,3.61,0,0,0-.66-2.254,2.1,2.1,0,0,0-1.754-.863,2.075,2.075,0,0,0-1.727.852A3.925,3.925,0,0,0-7.012-4.133ZM-3.973-12h1.75L-4.316-9.7H-5.48ZM2.41-8.453l.047,1.063A3.08,3.08,0,0,1,4.988-8.609q2.68,0,2.7,3.023V0H6.246V-5.594a1.946,1.946,0,0,0-.418-1.352,1.675,1.675,0,0,0-1.277-.437,2.086,2.086,0,0,0-1.234.375,2.546,2.546,0,0,0-.828.984V0H1.043V-8.453ZM13.48-4.3A4.952,4.952,0,0,1,14.4-7.426a2.915,2.915,0,0,1,2.414-1.184,2.932,2.932,0,0,1,2.352,1.016V-12h1.445V0H19.285l-.07-.906A2.943,2.943,0,0,1,16.8.156a2.887,2.887,0,0,1-2.395-1.2,5.008,5.008,0,0,1-.926-3.141Zm1.445.164a3.749,3.749,0,0,0,.594,2.25,1.92,1.92,0,0,0,1.641.813A2.108,2.108,0,0,0,19.168-2.3V-6.187a2.125,2.125,0,0,0-1.992-1.2,1.929,1.929,0,0,0-1.656.82A4.128,4.128,0,0,0,14.926-4.133ZM26.363.156a3.693,3.693,0,0,1-2.8-1.129,4.19,4.19,0,0,1-1.078-3.02v-.266a5.073,5.073,0,0,1,.48-2.246,3.748,3.748,0,0,1,1.344-1.547,3.378,3.378,0,0,1,1.871-.559,3.166,3.166,0,0,1,2.563,1.086,4.7,4.7,0,0,1,.914,3.109v.6H23.934a3,3,0,0,0,.73,2.02,2.3,2.3,0,0,0,1.777.77,2.517,2.517,0,0,0,1.3-.312,3.259,3.259,0,0,0,.93-.828l.883.688A3.55,3.55,0,0,1,26.363.156Zm-.18-7.578a1.928,1.928,0,0,0-1.469.637A3.1,3.1,0,0,0,23.98-5h4.234v-.109a2.753,2.753,0,0,0-.594-1.707A1.815,1.815,0,0,0,26.184-7.422ZM34.941-4.3a4.952,4.952,0,0,1,.922-3.129,2.915,2.915,0,0,1,2.414-1.184,2.932,2.932,0,0,1,2.352,1.016V-12h1.445V0H40.746l-.07-.906A2.943,2.943,0,0,1,38.262.156a2.887,2.887,0,0,1-2.395-1.2,5.008,5.008,0,0,1-.926-3.141Zm1.445.164a3.749,3.749,0,0,0,.594,2.25,1.92,1.92,0,0,0,1.641.813A2.108,2.108,0,0,0,40.629-2.3V-6.187a2.125,2.125,0,0,0-1.992-1.2,1.929,1.929,0,0,0-1.656.82A4.128,4.128,0,0,0,36.387-4.133ZM49.535,0a3.036,3.036,0,0,1-.2-.891A3.225,3.225,0,0,1,46.926.156a2.984,2.984,0,0,1-2.051-.707,2.287,2.287,0,0,1-.8-1.793,2.39,2.39,0,0,1,1-2.051,4.733,4.733,0,0,1,2.824-.73h1.406v-.664A1.623,1.623,0,0,0,48.855-7a1.821,1.821,0,0,0-1.336-.449,2.107,2.107,0,0,0-1.3.391,1.151,1.151,0,0,0-.523.945H44.246A2,2,0,0,1,44.7-7.332a3.066,3.066,0,0,1,1.219-.934,4.1,4.1,0,0,1,1.691-.344,3.342,3.342,0,0,1,2.289.73,2.635,2.635,0,0,1,.859,2.012v3.891a4.757,4.757,0,0,0,.3,1.852V0Zm-2.4-1.1a2.54,2.54,0,0,0,1.289-.352,2.127,2.127,0,0,0,.883-.914V-4.1H48.176q-2.656,0-2.656,1.555a1.316,1.316,0,0,0,.453,1.063A1.742,1.742,0,0,0,47.137-1.1Zm7.844-9.4v2.047h1.578v1.117H54.98v5.242a1.171,1.171,0,0,0,.211.762.888.888,0,0,0,.719.254,3.5,3.5,0,0,0,.688-.094V0a4.19,4.19,0,0,1-1.109.156A1.8,1.8,0,0,1,54.027-.43a2.517,2.517,0,0,1-.492-1.664V-7.336H52V-8.453h1.539V-10.5Zm2.727,6.2A4.993,4.993,0,0,1,58.2-6.539,3.643,3.643,0,0,1,59.555-8.07a3.7,3.7,0,0,1,1.988-.539,3.565,3.565,0,0,1,2.793,1.2A4.6,4.6,0,0,1,65.4-4.234v.1a5.036,5.036,0,0,1-.473,2.215A3.589,3.589,0,0,1,63.578-.391a3.743,3.743,0,0,1-2.02.547,3.556,3.556,0,0,1-2.785-1.2A4.575,4.575,0,0,1,57.707-4.2Zm1.453.172a3.616,3.616,0,0,0,.652,2.258,2.088,2.088,0,0,0,1.746.852,2.075,2.075,0,0,0,1.75-.863A3.955,3.955,0,0,0,63.957-4.3a3.61,3.61,0,0,0-.66-2.254,2.1,2.1,0,0,0-1.754-.863,2.075,2.075,0,0,0-1.727.852A3.925,3.925,0,0,0,59.16-4.133ZM72.137-2.242a1.064,1.064,0,0,0-.441-.91,4.249,4.249,0,0,0-1.539-.559,7.277,7.277,0,0,1-1.742-.562,2.479,2.479,0,0,1-.953-.781,1.869,1.869,0,0,1-.309-1.078,2.193,2.193,0,0,1,.879-1.758,3.432,3.432,0,0,1,2.246-.719,3.532,3.532,0,0,1,2.332.742,2.357,2.357,0,0,1,.895,1.9H72.051a1.3,1.3,0,0,0-.5-1.023,1.888,1.888,0,0,0-1.27-.43,1.976,1.976,0,0,0-1.234.344,1.082,1.082,0,0,0-.445.9.877.877,0,0,0,.414.789,5.1,5.1,0,0,0,1.5.508,7.8,7.8,0,0,1,1.754.578,2.558,2.558,0,0,1,1,.809,1.988,1.988,0,0,1,.324,1.152,2.163,2.163,0,0,1-.906,1.816,3.8,3.8,0,0,1-2.352.684,4.257,4.257,0,0,1-1.8-.359,2.922,2.922,0,0,1-1.223-1A2.42,2.42,0,0,1,66.863-2.6h1.445a1.5,1.5,0,0,0,.582,1.152,2.258,2.258,0,0,0,1.434.426,2.331,2.331,0,0,0,1.316-.332A1.02,1.02,0,0,0,72.137-2.242ZM-35.074,12.625v7.734a3.628,3.628,0,0,1-1.012,2.633,4.077,4.077,0,0,1-2.723,1.148l-.4.016a4.258,4.258,0,0,1-2.977-1.008,3.6,3.6,0,0,1-1.125-2.773v-7.75h1.484v7.7a2.6,2.6,0,0,0,.68,1.918,2.612,2.612,0,0,0,1.938.684,2.63,2.63,0,0,0,1.949-.68,2.6,2.6,0,0,0,.676-1.914V12.625Zm7.063,9.133a1.064,1.064,0,0,0-.441-.91,4.249,4.249,0,0,0-1.539-.559,7.277,7.277,0,0,1-1.742-.562,2.479,2.479,0,0,1-.953-.781A1.869,1.869,0,0,1-33,17.867a2.193,2.193,0,0,1,.879-1.758,3.432,3.432,0,0,1,2.246-.719,3.532,3.532,0,0,1,2.332.742,2.357,2.357,0,0,1,.895,1.9H-28.1a1.3,1.3,0,0,0-.5-1.023,1.888,1.888,0,0,0-1.27-.43,1.976,1.976,0,0,0-1.234.344,1.082,1.082,0,0,0-.445.9.877.877,0,0,0,.414.789,5.1,5.1,0,0,0,1.5.508,7.8,7.8,0,0,1,1.754.578,2.558,2.558,0,0,1,1,.809,1.988,1.988,0,0,1,.324,1.152,2.163,2.163,0,0,1-.906,1.816,3.8,3.8,0,0,1-2.352.684,4.257,4.257,0,0,1-1.8-.359,2.922,2.922,0,0,1-1.223-1,2.42,2.42,0,0,1-.441-1.395h1.445a1.5,1.5,0,0,0,.582,1.152,2.258,2.258,0,0,0,1.434.426,2.331,2.331,0,0,0,1.316-.332A1.02,1.02,0,0,0-28.012,21.758Zm8.547,1.406a3.07,3.07,0,0,1-2.477.992A2.628,2.628,0,0,1-24,23.371a3.4,3.4,0,0,1-.715-2.324v-5.5h1.445v5.461q0,1.922,1.563,1.922A2.163,2.163,0,0,0-19.5,21.7V15.547h1.445V24h-1.375Zm8.82.836a3.036,3.036,0,0,1-.2-.891,3.225,3.225,0,0,1-2.406,1.047,2.984,2.984,0,0,1-2.051-.707,2.287,2.287,0,0,1-.8-1.793,2.39,2.39,0,0,1,1-2.051,4.733,4.733,0,0,1,2.824-.73h1.406v-.664A1.623,1.623,0,0,0-11.324,17a1.821,1.821,0,0,0-1.336-.449,2.108,2.108,0,0,0-1.3.391,1.151,1.151,0,0,0-.523.945h-1.453a2,2,0,0,1,.449-1.223,3.066,3.066,0,0,1,1.219-.934,4.1,4.1,0,0,1,1.691-.344,3.342,3.342,0,0,1,2.289.73,2.635,2.635,0,0,1,.859,2.012v3.891a4.757,4.757,0,0,0,.3,1.852V24Zm-2.4-1.1a2.54,2.54,0,0,0,1.289-.352,2.127,2.127,0,0,0,.883-.914V19.9H-12q-2.656,0-2.656,1.555a1.316,1.316,0,0,0,.453,1.063A1.742,1.742,0,0,0-13.043,22.9Zm9.969-6.055a4.331,4.331,0,0,0-.711-.055A1.9,1.9,0,0,0-5.715,18v6H-7.16V15.547h1.406l.023.977a2.251,2.251,0,0,1,2.016-1.133,1.477,1.477,0,0,1,.641.109ZM-.176,24H-1.621V15.547H-.176ZM-1.738,13.3a.863.863,0,0,1,.215-.594.807.807,0,0,1,.637-.242.819.819,0,0,1,.641.242.854.854,0,0,1,.219.594.826.826,0,0,1-.219.586.834.834,0,0,1-.641.234.821.821,0,0,1-.637-.234A.834.834,0,0,1-1.738,13.3ZM1.754,19.7a4.993,4.993,0,0,1,.488-2.234A3.643,3.643,0,0,1,3.6,15.93a3.7,3.7,0,0,1,1.988-.539,3.565,3.565,0,0,1,2.793,1.2,4.6,4.6,0,0,1,1.066,3.18v.1a5.036,5.036,0,0,1-.473,2.215,3.589,3.589,0,0,1-1.352,1.527,3.743,3.743,0,0,1-2.02.547,3.556,3.556,0,0,1-2.785-1.2A4.575,4.575,0,0,1,1.754,19.8Zm1.453.172a3.616,3.616,0,0,0,.652,2.258,2.088,2.088,0,0,0,1.746.852,2.075,2.075,0,0,0,1.75-.863A3.955,3.955,0,0,0,8,19.7a3.61,3.61,0,0,0-.66-2.254,2.1,2.1,0,0,0-1.754-.863,2.075,2.075,0,0,0-1.727.852A3.925,3.925,0,0,0,3.207,19.867ZM15.707,24V16.664H14.371V15.547h1.336v-.719a2.937,2.937,0,0,1,.809-2.2,3.136,3.136,0,0,1,2.285-.789,6.881,6.881,0,0,1,2.211.477l-.242,1.219a5.008,5.008,0,0,0-1.859-.391,1.819,1.819,0,0,0-1.34.418,1.723,1.723,0,0,0-.41,1.254v.734h1.727v1.117H17.16V24Zm6.023,0H20.277V15.547H21.73Zm3.719-8.453.047,1.063a3.08,3.08,0,0,1,2.531-1.219q2.68,0,2.7,3.023V24H29.285V18.406a1.946,1.946,0,0,0-.418-1.352,1.675,1.675,0,0,0-1.277-.437,2.086,2.086,0,0,0-1.234.375,2.546,2.546,0,0,0-.828.984V24H24.082V15.547ZM38.129,24a3.036,3.036,0,0,1-.2-.891,3.225,3.225,0,0,1-2.406,1.047,2.984,2.984,0,0,1-2.051-.707,2.287,2.287,0,0,1-.8-1.793,2.39,2.39,0,0,1,1-2.051,4.733,4.733,0,0,1,2.824-.73H37.9v-.664A1.623,1.623,0,0,0,37.449,17a1.821,1.821,0,0,0-1.336-.449,2.107,2.107,0,0,0-1.3.391,1.151,1.151,0,0,0-.523.945H32.84a2,2,0,0,1,.449-1.223,3.066,3.066,0,0,1,1.219-.934,4.1,4.1,0,0,1,1.691-.344,3.342,3.342,0,0,1,2.289.73,2.635,2.635,0,0,1,.859,2.012v3.891a4.757,4.757,0,0,0,.3,1.852V24Zm-2.4-1.1a2.54,2.54,0,0,0,1.289-.352,2.127,2.127,0,0,0,.883-.914V19.9H36.77q-2.656,0-2.656,1.555a1.316,1.316,0,0,0,.453,1.063A1.742,1.742,0,0,0,35.73,22.9ZM43.184,24H41.738V12h1.445Z" transform="translate(-4712.587 -7752.136)" fill="#12263f"/>
      <g id="crecimiento-de-beneficios" transform="translate(-4782.011 -7921.735)">
        <path id="Trazado_125973" data-name="Trazado 125973" d="M8,8H130.8V89.03H8Z" fill="#d5d5d3"/>
        <path id="Trazado_125974" data-name="Trazado 125974" d="M52.276,37.753h-8.65a1.981,1.981,0,0,1,0-3.961h8.65a1.981,1.981,0,1,1,0,3.961Z" transform="translate(-25.316 -19.407)" fill="#56585e"/>
        <path id="Trazado_125975" data-name="Trazado 125975" d="M57.438,69.961H43.624a1.981,1.981,0,1,1,0-3.961H57.438a1.981,1.981,0,1,1,0,3.961Z" transform="translate(-25.314 -43.641)" fill="#56585e"/>
        <path id="Trazado_125976" data-name="Trazado 125976" d="M55.161,191.1H61.08v17.8H55.161Z" transform="translate(-35.485 -137.767)" fill="#f7685f"/>
        <path id="Trazado_125977" data-name="Trazado 125977" d="M109.154,129.951h5.919V162.89h-5.919Z" transform="translate(-76.111 -91.759)" fill="#65d1df"/>
        <path id="Trazado_125978" data-name="Trazado 125978" d="M163.111,171.649h5.919v22.616h-5.919Z" transform="translate(-116.71 -123.134)" fill="#5f913f"/>
        <path id="Trazado_125979" data-name="Trazado 125979" d="M217.067,146.9h5.919v28.744h-5.919Z" transform="translate(-157.308 -104.508)" fill="#f7a41c"/>
        <path id="Trazado_125980" data-name="Trazado 125980" d="M271.023,150.1h5.919v27.95h-5.919Z" transform="translate(-197.906 -106.924)" fill="#f7685f"/>
        <path id="Trazado_125981" data-name="Trazado 125981" d="M324.98,93.116H330.9v42.059H324.98Z" transform="translate(-238.505 -64.044)" fill="#65d1df"/>
        <path id="Trazado_125982" data-name="Trazado 125982" d="M378.936,102.737h5.919v39.677h-5.919Z" transform="translate(-279.103 -71.283)" fill="#5f913f"/>
        <path id="Trazado_125983" data-name="Trazado 125983" d="M432.893,68.788h5.919V116.87h-5.919Z" transform="translate(-319.701 -45.739)" fill="#f7a41c"/>
        <path id="Trazado_125984" data-name="Trazado 125984" d="M141.764,259.971H36.469a1.485,1.485,0,1,1,0-2.971h105.3a1.485,1.485,0,1,1,0,2.971Z" transform="translate(-20.304 -187.354)" fill="#56585e"/>
        <path id="Trazado_125985" data-name="Trazado 125985" d="M58.551,409.974v7.2h9.565v-6.86a6.977,6.977,0,0,1-4.592,1.627A7.056,7.056,0,0,1,58.551,409.974Z" transform="translate(-38.036 -302.456)" fill="#fcd3c4"/>
        <path id="Trazado_125986" data-name="Trazado 125986" d="M38.473,440.051l-8.414-2.433H20.515L12.1,440.051A5.677,5.677,0,0,0,8,445.505v8.547H42.573v-8.547a5.677,5.677,0,0,0-4.1-5.454Z" transform="translate(0 -323.256)" fill="#f7685f"/>
        <path id="Trazado_125987" data-name="Trazado 125987" d="M53.411,320.894c-1.036-5.034-6.641-5.694-9.92-5.694-4.419,0-6.1,1.279-8.341,1.726-1.783.355-3.286-1.422-3.286-1.422s-3.815,4.514-.988,11.152c.711,1.669,3.335,3.536,3.335,3.536v3.421a7.545,7.545,0,0,0,7.545,7.545h.032a7.545,7.545,0,0,0,7.546-7.546v-3.42s5.306-3.326,4.077-9.3Z" transform="translate(-16.428 -231.146)" fill="#56585e"/>
        <path id="Trazado_125988" data-name="Trazado 125988" d="M236.832,409.974v7.2H246.4v-6.86a6.976,6.976,0,0,1-4.592,1.627A7.054,7.054,0,0,1,236.832,409.974Z" transform="translate(-172.18 -302.456)" fill="#fcd3c4"/>
        <path id="Trazado_125989" data-name="Trazado 125989" d="M216.754,440.051l-8.415-2.433H198.8l-8.415,2.433a5.677,5.677,0,0,0-4.1,5.454v8.547h34.573v-8.547a5.677,5.677,0,0,0-4.1-5.454Z" transform="translate(-134.144 -323.256)" fill="#65d1df"/>
        <path id="Trazado_125990" data-name="Trazado 125990" d="M231.691,320.894c-1.037-5.034-6.641-5.694-9.92-5.694-4.419,0-6.1,1.279-8.341,1.726-1.783.355-3.286-1.422-3.286-1.422s-3.815,4.514-.988,11.152c.711,1.669,3.335,3.536,3.335,3.536v3.421a7.545,7.545,0,0,0,7.545,7.545h.031a7.545,7.545,0,0,0,7.545-7.545v-3.421s5.307-3.326,4.078-9.3Z" transform="translate(-150.571 -231.146)" fill="#56585e"/>
        <path id="Trazado_125991" data-name="Trazado 125991" d="M415.112,409.974v7.2h9.565v-6.86a6.977,6.977,0,0,1-4.592,1.627A7.056,7.056,0,0,1,415.112,409.974Z" transform="translate(-306.322 -302.456)" fill="#fcd3c4"/>
        <path id="Trazado_125992" data-name="Trazado 125992" d="M395.034,440.051l-8.415-2.433h-9.543l-8.415,2.433a5.677,5.677,0,0,0-4.1,5.454v8.547h34.573v-8.547a5.677,5.677,0,0,0-4.1-5.454Z" transform="translate(-268.286 -323.256)" fill="#5f913f"/>
        <path id="Trazado_125993" data-name="Trazado 125993" d="M409.972,320.894c-1.036-5.034-6.641-5.694-9.92-5.694-4.419,0-6.1,1.279-8.341,1.726-1.783.355-3.285-1.422-3.285-1.422s-3.815,4.514-.988,11.152c.711,1.669,3.335,3.536,3.335,3.536v3.421a7.545,7.545,0,0,0,7.545,7.545h.032a7.545,7.545,0,0,0,7.545-7.545v-3.421s5.308-3.326,4.078-9.3Z" transform="translate(-284.714 -231.146)" fill="#56585e"/>
      </g>
      <g id="Grupo_84795" data-name="Grupo 84795" transform="translate(-5383.928 -7871.437)">
        <rect id="Rectángulo_34062-2" data-name="Rectángulo 34062" width="69.472" height="18.83" transform="translate(0 0)" fill="#57555c"/>
        <rect id="Rectángulo_34063-2" data-name="Rectángulo 34063" width="69.472" height="18.83" transform="translate(0 16.05)" fill="#57555c"/>
      </g>
      <g id="Grupo_84796" data-name="Grupo 84796" transform="translate(-5349.193 -7871.437)">
        <rect id="Rectángulo_34065-2" data-name="Rectángulo 34065" width="34.737" height="18.83" transform="translate(0 0)" fill="#3c3a41"/>
        <rect id="Rectángulo_34066-2" data-name="Rectángulo 34066" width="34.737" height="18.83" transform="translate(0 16.05)" fill="#3c3a41"/>
      </g>
      <path id="Trazado_126004" data-name="Trazado 126004" d="M0,0H80.033V23.8H0Z" transform="translate(-5389.209 -7867.036)" fill="#dbbe36"/>
      <g id="Grupo_84797" data-name="Grupo 84797" transform="translate(-5382.013 -7857.511)">
        <rect id="Rectángulo_34074-2" data-name="Rectángulo 34074" width="4.572" height="4.757" transform="translate(0)" fill="#fff"/>
        <rect id="Rectángulo_34075-2" data-name="Rectángulo 34075" width="4.572" height="4.757" transform="translate(8.224)" fill="#fff"/>
      </g>
      <g id="Grupo_84798" data-name="Grupo 84798" transform="translate(-5349.193 -7867.035)">
        <rect id="Rectángulo_34078-2" data-name="Rectángulo 34078" width="40.018" height="23.804" transform="translate(0 0)" fill="#efdf96"/>
      </g>
      <g id="Grupo_84799" data-name="Grupo 84799" transform="translate(-5383.928 -7833.079)">
        <rect id="Rectángulo_34062-3" data-name="Rectángulo 34062" width="69.472" height="18.83" transform="translate(0 0)" fill="#57555c"/>
        <rect id="Rectángulo_34063-3" data-name="Rectángulo 34063" width="69.472" height="18.83" transform="translate(0 16.05)" fill="#57555c"/>
      </g>
      <g id="Grupo_84800" data-name="Grupo 84800" transform="translate(-5349.193 -7833.079)">
        <rect id="Rectángulo_34065-3" data-name="Rectángulo 34065" width="34.737" height="18.83" transform="translate(0 0)" fill="#3c3a41"/>
        <rect id="Rectángulo_34066-3" data-name="Rectángulo 34066" width="34.737" height="18.83" transform="translate(0 16.05)" fill="#3c3a41"/>
      </g>
      <path id="Trazado_126005" data-name="Trazado 126005" d="M0,0H80.033V23.8H0Z" transform="translate(-5389.209 -7828.678)" fill="#dbbe36"/>
      <g id="Grupo_84801" data-name="Grupo 84801" transform="translate(-5382.013 -7819.154)">
        <rect id="Rectángulo_34074-3" data-name="Rectángulo 34074" width="4.572" height="4.757" transform="translate(0)" fill="#fff"/>
        <rect id="Rectángulo_34075-3" data-name="Rectángulo 34075" width="4.572" height="4.757" transform="translate(8.224)" fill="#fff"/>
      </g>
      <g id="Grupo_84802" data-name="Grupo 84802" transform="translate(-5349.193 -7828.678)">
        <rect id="Rectángulo_34078-3" data-name="Rectángulo 34078" width="40.018" height="23.804" transform="translate(0 0)" fill="#efdf96"/>
      </g>
      <g id="Grupo_84803" data-name="Grupo 84803" transform="translate(-5383.928 -7795.341)">
        <rect id="Rectángulo_34062-4" data-name="Rectángulo 34062" width="69.472" height="18.83" transform="translate(0 0)" fill="#57555c"/>
        <rect id="Rectángulo_34063-4" data-name="Rectángulo 34063" width="69.472" height="18.83" transform="translate(0 16.05)" fill="#57555c"/>
      </g>
      <g id="Grupo_84804" data-name="Grupo 84804" transform="translate(-5349.193 -7795.341)">
        <rect id="Rectángulo_34065-4" data-name="Rectángulo 34065" width="34.737" height="18.83" transform="translate(0 0)" fill="#3c3a41"/>
        <rect id="Rectángulo_34066-4" data-name="Rectángulo 34066" width="34.737" height="18.83" transform="translate(0 16.05)" fill="#3c3a41"/>
      </g>
      <path id="Trazado_126006" data-name="Trazado 126006" d="M0,0H80.033V23.8H0Z" transform="translate(-5389.209 -7790.939)" fill="#dbbe36"/>
      <g id="Grupo_84805" data-name="Grupo 84805" transform="translate(-5382.013 -7781.416)">
        <rect id="Rectángulo_34074-4" data-name="Rectángulo 34074" width="4.572" height="4.757" transform="translate(0)" fill="#fff"/>
        <rect id="Rectángulo_34075-4" data-name="Rectángulo 34075" width="4.572" height="4.757" transform="translate(8.224)" fill="#fff"/>
      </g>
      <g id="Grupo_84806" data-name="Grupo 84806" transform="translate(-5349.193 -7790.939)">
        <rect id="Rectángulo_34078-4" data-name="Rectángulo 34078" width="40.018" height="23.804" transform="translate(0 0)" fill="#efdf96"/>
      </g>
      <g id="Grupo_84807" data-name="Grupo 84807" transform="translate(-49.295 -338.075)">
        <g id="Grupo_84769" data-name="Grupo 84769" transform="translate(-4938.985 -7604.342)">
          <rect id="Rectángulo_34062-5" data-name="Rectángulo 34062" width="82.586" height="22.385" transform="translate(0 0)" fill="#57555c"/>
          <rect id="Rectángulo_34063-5" data-name="Rectángulo 34063" width="82.586" height="22.385" transform="translate(0 19.08)" fill="#57555c"/>
        </g>
        <g id="Grupo_84770" data-name="Grupo 84770" transform="translate(-4897.694 -7604.342)">
          <rect id="Rectángulo_34065-5" data-name="Rectángulo 34065" width="41.294" height="22.385" transform="translate(0 0)" fill="#3c3a41"/>
          <rect id="Rectángulo_34066-5" data-name="Rectángulo 34066" width="41.294" height="22.385" transform="translate(0 19.08)" fill="#3c3a41"/>
        </g>
        <path id="Trazado_125998" data-name="Trazado 125998" d="M0,0H95.141V28.3H0Z" transform="translate(-4945.263 -7599.11)" fill="#dbbe36"/>
        <g id="Grupo_84771" data-name="Grupo 84771" transform="translate(-4936.708 -7587.788)">
          <rect id="Rectángulo_34074-5" data-name="Rectángulo 34074" width="5.435" height="5.655" transform="translate(0)" fill="#fff"/>
          <rect id="Rectángulo_34075-5" data-name="Rectángulo 34075" width="5.435" height="5.655" transform="translate(9.777)" fill="#fff"/>
        </g>
        <g id="Grupo_84772" data-name="Grupo 84772" transform="translate(-4897.694 -7599.11)">
          <rect id="Rectángulo_34078-5" data-name="Rectángulo 34078" width="47.572" height="28.297" transform="translate(0 0)" fill="#efdf96"/>
        </g>
        <g id="Grupo_84773" data-name="Grupo 84773" transform="translate(-4938.985 -7561.686)">
          <rect id="Rectángulo_34062-6" data-name="Rectángulo 34062" width="82.586" height="22.385" transform="translate(0 0)" fill="#57555c"/>
          <rect id="Rectángulo_34063-6" data-name="Rectángulo 34063" width="82.586" height="22.385" transform="translate(0 19.08)" fill="#57555c"/>
        </g>
        <g id="Grupo_84774" data-name="Grupo 84774" transform="translate(-4897.694 -7561.686)">
          <rect id="Rectángulo_34065-6" data-name="Rectángulo 34065" width="41.294" height="22.385" transform="translate(0 0)" fill="#3c3a41"/>
          <rect id="Rectángulo_34066-6" data-name="Rectángulo 34066" width="41.294" height="22.385" transform="translate(0 19.08)" fill="#3c3a41"/>
        </g>
        <path id="Trazado_125999" data-name="Trazado 125999" d="M0,0H95.141V28.3H0Z" transform="translate(-4945.263 -7556.454)" fill="#dbbe36"/>
        <g id="Grupo_84775" data-name="Grupo 84775" transform="translate(-4936.708 -7545.131)">
          <rect id="Rectángulo_34074-6" data-name="Rectángulo 34074" width="5.435" height="5.655" transform="translate(0)" fill="#fff"/>
          <rect id="Rectángulo_34075-6" data-name="Rectángulo 34075" width="5.435" height="5.655" transform="translate(9.777)" fill="#fff"/>
        </g>
        <g id="Grupo_84776" data-name="Grupo 84776" transform="translate(-4897.694 -7556.453)">
          <rect id="Rectángulo_34078-6" data-name="Rectángulo 34078" width="47.572" height="28.297" transform="translate(0 0)" fill="#efdf96"/>
        </g>
        <g id="Grupo_84777" data-name="Grupo 84777" transform="translate(-4938.985 -7519.029)">
          <rect id="Rectángulo_34062-7" data-name="Rectángulo 34062" width="82.586" height="22.385" transform="translate(0 0)" fill="#57555c"/>
          <rect id="Rectángulo_34063-7" data-name="Rectángulo 34063" width="82.586" height="22.385" transform="translate(0 19.08)" fill="#57555c"/>
        </g>
        <g id="Grupo_84778" data-name="Grupo 84778" transform="translate(-4897.694 -7519.029)">
          <rect id="Rectángulo_34065-7" data-name="Rectángulo 34065" width="41.294" height="22.385" transform="translate(0 0)" fill="#3c3a41"/>
          <rect id="Rectángulo_34066-7" data-name="Rectángulo 34066" width="41.294" height="22.385" transform="translate(0 19.08)" fill="#3c3a41"/>
        </g>
        <path id="Trazado_126000" data-name="Trazado 126000" d="M0,0H95.141V28.3H0Z" transform="translate(-4945.263 -7513.797)" fill="#dbbe36"/>
        <g id="Grupo_84779" data-name="Grupo 84779" transform="translate(-4936.708 -7502.475)">
          <rect id="Rectángulo_34074-7" data-name="Rectángulo 34074" width="5.435" height="5.655" transform="translate(0)" fill="#fff"/>
          <rect id="Rectángulo_34075-7" data-name="Rectángulo 34075" width="5.435" height="5.655" transform="translate(9.777)" fill="#fff"/>
        </g>
        <g id="Grupo_84780" data-name="Grupo 84780" transform="translate(-4897.694 -7513.796)">
          <rect id="Rectángulo_34078-7" data-name="Rectángulo 34078" width="47.572" height="28.297" transform="translate(0 0)" fill="#efdf96"/>
        </g>
      </g>
      <g id="Grupo_84808" data-name="Grupo 84808" transform="translate(-43.997 -429.983)">
        <g id="Grupo_84781" data-name="Grupo 84781" transform="translate(-4939.685 -7367.854)">
          <rect id="Rectángulo_34062-8" data-name="Rectángulo 34062" width="73.389" height="19.892" transform="translate(0 0)" fill="#57555c"/>
          <rect id="Rectángulo_34063-8" data-name="Rectángulo 34063" width="73.389" height="19.892" transform="translate(0 16.955)" fill="#57555c"/>
        </g>
        <g id="Grupo_84782" data-name="Grupo 84782" transform="translate(-4902.992 -7367.854)">
          <rect id="Rectángulo_34065-8" data-name="Rectángulo 34065" width="36.695" height="19.892" transform="translate(0 0)" fill="#3c3a41"/>
          <rect id="Rectángulo_34066-8" data-name="Rectángulo 34066" width="36.695" height="19.892" transform="translate(0 16.955)" fill="#3c3a41"/>
        </g>
        <path id="Trazado_126001" data-name="Trazado 126001" d="M0,0H84.545V25.146H0Z" transform="translate(-4945.263 -7363.205)" fill="#dbbe36"/>
        <g id="Grupo_84783" data-name="Grupo 84783" transform="translate(-4937.661 -7353.144)">
          <rect id="Rectángulo_34074-8" data-name="Rectángulo 34074" width="4.829" height="5.025" transform="translate(0)" fill="#fff"/>
          <rect id="Rectángulo_34075-8" data-name="Rectángulo 34075" width="4.829" height="5.025" transform="translate(8.688)" fill="#fff"/>
        </g>
        <g id="Grupo_84784" data-name="Grupo 84784" transform="translate(-4902.992 -7363.204)">
          <rect id="Rectángulo_34078-8" data-name="Rectángulo 34078" width="42.274" height="25.146" transform="translate(0 0)" fill="#efdf96"/>
        </g>
        <g id="Grupo_84785" data-name="Grupo 84785" transform="translate(-4939.685 -7329.948)">
          <rect id="Rectángulo_34062-9" data-name="Rectángulo 34062" width="73.389" height="19.892" transform="translate(0 0)" fill="#57555c"/>
          <rect id="Rectángulo_34063-9" data-name="Rectángulo 34063" width="73.389" height="19.892" transform="translate(0 16.955)" fill="#57555c"/>
        </g>
        <g id="Grupo_84786" data-name="Grupo 84786" transform="translate(-4902.992 -7329.948)">
          <rect id="Rectángulo_34065-9" data-name="Rectángulo 34065" width="36.695" height="19.892" transform="translate(0 0)" fill="#3c3a41"/>
          <rect id="Rectángulo_34066-9" data-name="Rectángulo 34066" width="36.695" height="19.892" transform="translate(0 16.955)" fill="#3c3a41"/>
        </g>
        <path id="Trazado_126002" data-name="Trazado 126002" d="M0,0H84.545V25.146H0Z" transform="translate(-4945.263 -7325.298)" fill="#dbbe36"/>
        <g id="Grupo_84787" data-name="Grupo 84787" transform="translate(-4937.661 -7315.237)">
          <rect id="Rectángulo_34074-9" data-name="Rectángulo 34074" width="4.829" height="5.025" transform="translate(0)" fill="#fff"/>
          <rect id="Rectángulo_34075-9" data-name="Rectángulo 34075" width="4.829" height="5.025" transform="translate(8.688)" fill="#fff"/>
        </g>
        <g id="Grupo_84788" data-name="Grupo 84788" transform="translate(-4902.992 -7325.298)">
          <rect id="Rectángulo_34078-9" data-name="Rectángulo 34078" width="42.274" height="25.146" transform="translate(0 0)" fill="#efdf96"/>
        </g>
      </g>
      <path id="flecha-correcta-4" data-name="flecha-correcta" d="M25.115,30.761a4.586,4.586,0,0,0-6.486,6.486l6.379,6.381H4.374a4.374,4.374,0,0,0,0,8.748H25.008l-6.379,6.379a4.586,4.586,0,0,0,6.486,6.486L41.736,48.619a.875.875,0,0,0,0-1.237Z" transform="translate(-5269.992 -7891.232)" fill="#db6e5f"/>
      <path id="flecha-correcta-5" data-name="flecha-correcta" d="M25.115,30.761a4.586,4.586,0,0,0-6.486,6.486l6.379,6.381H4.374a4.374,4.374,0,0,0,0,8.748H25.008l-6.379,6.379a4.586,4.586,0,0,0,6.486,6.486L41.736,48.619a.875.875,0,0,0,0-1.237Z" transform="translate(-4872.745 -7939.55)" fill="#db6e5f"/>
      <path id="flecha-correcta-6" data-name="flecha-correcta" d="M25.115,30.761a4.586,4.586,0,0,0-6.486,6.486l6.379,6.381H4.374a4.374,4.374,0,0,0,0,8.748H25.008l-6.379,6.379a4.586,4.586,0,0,0,6.486,6.486L41.736,48.619a.875.875,0,0,0,0-1.237Z" transform="translate(-4872.745 -7894.149)" fill="#db6e5f"/>
      <path id="flecha-correcta-7" data-name="flecha-correcta" d="M25.115,30.761a4.586,4.586,0,0,0-6.486,6.486l6.379,6.381H4.374a4.374,4.374,0,0,0,0,8.748H25.008l-6.379,6.379a4.586,4.586,0,0,0,6.486,6.486L41.736,48.619a.875.875,0,0,0,0-1.237Z" transform="translate(-4872.745 -7848)" fill="#db6e5f"/>
    </g>
  </g>
</svg>
