<svg xmlns="http://www.w3.org/2000/svg" xmlns:xlink="http://www.w3.org/1999/xlink" width="890" height="321" viewBox="0 0 890 321">
  <defs>
    <linearGradient id="linear-gradient" x1="0.114" y1="0.979" x2="3.061" y2="-5.762" gradientUnits="objectBoundingBox">
      <stop offset="0" stop-color="#3d4451"/>
      <stop offset="1" stop-color="#3d4451"/>
    </linearGradient>
  </defs>
  <g id="Grupo_84833" data-name="Grupo 84833" transform="translate(-307 -5087)">
    <rect id="Rectángulo_34080" data-name="Rectángulo 34080" width="890" height="321" rx="10" transform="translate(307 5087)" fill="#fff"/>
    <g id="Grupo_84817" data-name="Grupo 84817" transform="translate(-106.826 3631)">
      <path id="Trazado_126015" data-name="Trazado 126015" d="M636.742,1663.607c.5,1.5,45.832,7.238,43.941-29.768s49.417-35.157,49.417-35.157c0-32.25-25.365-50.682-52.311-50.682S629,1568.041,629,1592.763c0,6.908.356,11.781,3.4,17.623l7.088.739" transform="translate(-40.695 -21.953)" fill="#c7ddeb"/>
      <g id="Grupo_84816" data-name="Grupo 84816" transform="translate(567.826 1515)">
        <path id="Trazado_126016" data-name="Trazado 126016" d="M669.178,1608.736s-8.3-32.643,24.716-38.05,50.643,23.821,36.816,34.14-25.927,1.808-33.3,13.523C692.491,1626.463,673.154,1622.554,669.178,1608.736Z" transform="translate(-634.631 -1551.604)" fill="#7eb9c7"/>
        <circle id="Elipse_4898" data-name="Elipse 4898" cx="10.267" cy="10.267" r="10.267" transform="translate(84.365 76.973)" fill="#7eb9c7"/>
        <path id="Trazado_126017" data-name="Trazado 126017" d="M645.793,1726.565s-1.506,2.1,0,7.256l11.862-6.21-11.862-1.046" transform="translate(-619.246 -1655.74)" fill="#fdc345"/>
        <g id="Grupo_84815" data-name="Grupo 84815">
          <g id="Grupo_84813" data-name="Grupo 84813">
            <path id="Trazado_126018" data-name="Trazado 126018" d="M618.718,1645.679c-1.554,0-2.86-.057-3.831-.12-7.622-.5-8.034-1.737-8.307-2.559a1.972,1.972,0,0,1,3.12-2.148c2.551.882,21.046,2.915,33.38-5.474,7.835-5.329,11.513-13.8,10.933-25.191-.522-10.252,2.507-18.793,9-25.386,6.553-6.651,16.388-11.166,29.231-13.42a95.573,95.573,0,0,1,15.186-1.418c-.464-15-6.2-27.81-16.672-37.151-10.024-8.944-23.487-13.87-37.909-13.87-28.013,0-50.8,20.9-50.8,46.586,0,6.421.224,11.492,2.989,17.268l6.592.689a1.972,1.972,0,1,1-.41,3.922l-8.722-.912-.489-.941c-3.615-6.953-3.9-12.932-3.9-20.026,0-27.862,24.559-50.529,54.747-50.529,15.392,0,29.788,5.281,40.535,14.871,11.79,10.52,18.021,25.071,18.021,42.08v2.044l-2.043-.074c-.29-.011-29.253-.862-43.548,13.657-5.683,5.772-8.33,13.311-7.866,22.409.54,10.6-2.3,19.078-8.444,25.19-4.774,4.75-11.391,7.947-19.665,9.5A60.989,60.989,0,0,1,618.718,1645.679Zm-8.4-3.925v0Zm0,0h0Z" transform="translate(-587.969 -1515)" fill="#3d4451"/>
            <path id="Trazado_126019" data-name="Trazado 126019" d="M722.612,1619.666H711.955a4.672,4.672,0,0,1-4.683-4.534V1604.9a4.724,4.724,0,0,1,4.683-4.641h10.657a4.45,4.45,0,0,1,4.34,4.641v10.23A4.393,4.393,0,0,1,722.612,1619.666Zm-10.657-18.05a3.394,3.394,0,0,0-3.328,3.286v10.23a3.3,3.3,0,0,0,3.328,3.18h10.657a3.019,3.019,0,0,0,2.985-3.18V1604.9a3.123,3.123,0,0,0-2.985-3.286Z" transform="translate(-660.59 -1571.718)" fill="#3d4451"/>
            <g id="Grupo_84812" data-name="Grupo 84812" transform="translate(49.339 32.024)">
              <rect id="Rectángulo_34081" data-name="Rectángulo 34081" width="12.827" height="11.545" rx="4.365" transform="translate(0.678 0.678)" fill="#f04f4c"/>
              <path id="Trazado_126020" data-name="Trazado 126020" d="M727.253,1623.56h-9.9a2.142,2.142,0,0,1-2.139-2.139V1612.8a2.142,2.142,0,0,1,2.139-2.139h9.9a2.141,2.141,0,0,1,2.139,2.139v8.622A2.141,2.141,0,0,1,727.253,1623.56Zm-9.9-11.545a.785.785,0,0,0-.784.784v8.622a.785.785,0,0,0,.784.784h9.9a.785.785,0,0,0,.784-.784V1612.8a.785.785,0,0,0-.784-.784Z" transform="translate(-715.209 -1610.661)" fill="#3d4451"/>
            </g>
            <path id="Trazado_126021" data-name="Trazado 126021" d="M638.18,1729.817l-.51-1.046a13.287,13.287,0,0,1-.873-7.8l.2-.992,18.242,1.275Zm.725-7.4a11.326,11.326,0,0,0,.433,4.245l7.369-3.7Z" transform="translate(-613.547 -1651.356)" fill="#3d4451"/>
            <path id="Trazado_126022" data-name="Trazado 126022" d="M588.309,1787.185h-.015a1.972,1.972,0,0,1-1.957-1.986c0-.562.015-1.168.026-1.8a57.3,57.3,0,0,0-.168-7.194c-.329-2.811-.992-3.248-1-3.251a4.8,4.8,0,0,1-3.2-2.583,4.376,4.376,0,0,1-.167-2.987l-.079-.846c-1.483-.905-3.566-2.472-3.95-4.306a3,3,0,0,1,.593-2.52c.084-.106.17-.209.257-.309-5.717-.378-9.106-1.783-10.345-4.281-.622-1.255-.944-3.352,1.06-6.213,8.453-12.069,12.571-18.252,12.612-18.313a1.972,1.972,0,1,1,3.284,2.184c-.041.061-4.181,6.277-12.665,18.391-.688.981-.963,1.783-.757,2.2.344.7,2.455,1.932,8.178,2.156l.115.008c1.005.1,3.1.3,3.712,2.012.575,1.594-.632,2.814-1.514,3.7-.145.147-.293.3-.434.445a11.882,11.882,0,0,0,2.65,1.9l.936.5.372,3.95-.223.4a.606.606,0,0,0-.025.331c.028.058.218.243.755.408,4.182,1.283,4.059,8.19,3.951,14.284-.011.621-.021,1.213-.025,1.762A1.972,1.972,0,0,1,588.309,1787.185Z" transform="translate(-567.826 -1657.834)" fill="#3d4451"/>
            <path id="Trazado_126023" data-name="Trazado 126023" d="M631.14,1836.111" transform="translate(-609.944 -1728.613)" fill="none" stroke="#3d4451" stroke-miterlimit="10" stroke-width="6.07"/>
            <path id="Trazado_126024" data-name="Trazado 126024" d="M705.8,1629.39" transform="translate(-659.609 -1591.096)" fill="none" stroke="#3d4451" stroke-miterlimit="10" stroke-width="6.07"/>
            <path id="Trazado_126025" data-name="Trazado 126025" d="M665.076,1652.232" transform="translate(-632.52 -1606.291)" fill="none" stroke="#3d4451" stroke-miterlimit="10" stroke-width="6.07"/>
            <path id="Trazado_126026" data-name="Trazado 126026" d="M708.706,1616.255" transform="translate(-661.544 -1582.358)" fill="none" stroke="#3d4451" stroke-miterlimit="10" stroke-width="6.07"/>
            <path id="Trazado_126027" data-name="Trazado 126027" d="M613.67,1720.405" transform="translate(-598.323 -1651.642)" fill="none" stroke="#3d4451" stroke-miterlimit="10" stroke-width="6.07"/>
            <path id="Trazado_126028" data-name="Trazado 126028" d="M707.926,1667.082l-.9-1.014,5.809-5.155v-4.848h1.355v5.457Z" transform="translate(-660.426 -1608.841)" fill="#3d4451"/>
            <rect id="Rectángulo_34082" data-name="Rectángulo 34082" width="1.355" height="5.681" transform="translate(59.189 47.224)" fill="#3d4451"/>
            <rect id="Rectángulo_34083" data-name="Rectángulo 34083" width="2.032" height="5.772" transform="translate(51.615 23.585)" fill="#3d4451"/>
            <rect id="Rectángulo_34084" data-name="Rectángulo 34084" width="2.032" height="5.772" transform="translate(55.552 23.585)" fill="#3d4451"/>
            <rect id="Rectángulo_34085" data-name="Rectángulo 34085" width="2.032" height="5.772" transform="translate(59.309 23.585)" fill="#3d4451"/>
            <path id="Trazado_126029" data-name="Trazado 126029" d="M811.719,1752.438a17.859,17.859,0,1,1,9.238-2.511l-1.205-2.041a15.124,15.124,0,0,0,7.56-13.1,15.6,15.6,0,1,0-15.593,15.285,16.06,16.06,0,0,0,2.9-.264l.429,2.332A18.416,18.416,0,0,1,811.719,1752.438Z" transform="translate(-718.121 -1649.461)" fill="#3d4451"/>
            <path id="Trazado_126030" data-name="Trazado 126030" d="M822.352,1757.612a12.238,12.238,0,0,1-7.836-3.093,12.312,12.312,0,1,1,20.512-9.162,12.278,12.278,0,0,1-5.472,10.184l-.711-1.057a11,11,0,0,0,4.909-9.127,11.29,11.29,0,1,0-18.412,8.193,10.509,10.509,0,0,0,8.36,2.682l.2,1.257A9.726,9.726,0,0,1,822.352,1757.612Z" transform="translate(-728.88 -1660.038)" fill="#3d4451"/>
            <path id="Trazado_126031" data-name="Trazado 126031" d="M789.561,1638.695l-10-9.837h-14.57V1627.5h15.125l10.393,10.226Z" transform="translate(-698.987 -1589.84)" fill="#3d4451"/>
            <path id="Trazado_126032" data-name="Trazado 126032" d="M779.425,1645.535l-5.578-5.466h-8.335v-1.355H774.4l5.973,5.853Z" transform="translate(-699.332 -1597.299)" fill="#3d4451"/>
            <path id="Trazado_126033" data-name="Trazado 126033" d="M667.934,1609.244a25.934,25.934,0,0,1-3.783-.286c-6.848-1.013-15.858-5.177-18.713-13.583l-.011-.034c-.159-.53-3.813-13.1,3.091-23.853,4.778-7.442,13.388-12.074,25.59-13.768,14.6-2.024,25.126,1.1,31.389,4.086,7.745,3.688,13.45,9.255,15.654,15.276,2.235,6.106.41,11.749-4.88,15.094-7.583,4.794-14.663,5.442-20.91,6.013-6.835.625-12.233,1.119-16.338,6.643C677,1607.662,672.913,1609.244,667.934,1609.244Zm-20.565-14.5c2.568,7.524,10.8,11.277,17.079,12.2,5.8.859,10.88-.443,12.933-3.314,4.657-6.268,10.745-6.825,17.8-7.469,6.018-.55,12.84-1.174,20.009-5.707,4.489-2.838,5.968-7.458,4.058-12.677-2.022-5.525-7.351-10.679-14.619-14.139-6.012-2.863-16.138-5.865-30.236-3.908-11.579,1.607-19.7,5.925-24.149,12.836C643.937,1582.365,647.229,1594.25,647.37,1594.742Z" transform="translate(-618.712 -1542.989)" fill="#3d4451"/>
            <path id="Trazado_126034" data-name="Trazado 126034" d="M779.339,1609.191H764.993v-1.355h13.79l4.448-4.388.951.964Z" transform="translate(-698.987 -1573.839)" fill="#3d4451"/>
            <path id="Trazado_126035" data-name="Trazado 126035" d="M698.235,1625.963" transform="translate(-654.578 -1588.816)" fill="none" stroke="#3d4451" stroke-miterlimit="10" stroke-width="6.07"/>
            <path id="Trazado_126036" data-name="Trazado 126036" d="M903.619,1699.628" transform="translate(-791.206 -1637.82)" fill="none" stroke="#3d4451" stroke-miterlimit="10" stroke-width="6.07"/>
            <path id="Trazado_126037" data-name="Trazado 126037" d="M614.3,1835.73" transform="translate(-598.743 -1728.36)" fill="none" stroke="#3d4451" stroke-miterlimit="10" stroke-width="6.07"/>
          </g>
          <g id="Grupo_84814" data-name="Grupo 84814" transform="translate(91.964 84.157)">
            <path id="Trazado_126038" data-name="Trazado 126038" d="M861.417,1825.329a3.322,3.322,0,0,1-3.189-2.333l-15.562-52.444a3.255,3.255,0,0,1,2.2-4.012l.032-.01a3.292,3.292,0,0,1,2.487.239,3.168,3.168,0,0,1,1.578,1.913h0l15.562,52.444a3.366,3.366,0,0,1-2.172,4.066l-.12.048h-.047A3.346,3.346,0,0,1,861.417,1825.329Zm-16.121-57.5-.014,0a1.9,1.9,0,0,0-1.318,2.338l15.562,52.444a1.972,1.972,0,0,0,2.364,1.307,2.032,2.032,0,0,0,1.335-2.406l-15.562-52.443a1.821,1.821,0,0,0-.91-1.1A1.947,1.947,0,0,0,845.3,1767.824Z" transform="translate(-842.534 -1766.389)" fill="#3d4451"/>
            <path id="Trazado_126039" data-name="Trazado 126039" d="M884.91,1928.114a7.7,7.7,0,0,1-1.916-.243,7.646,7.646,0,0,1-3.025-13.25l1.077,1.281a5.972,5.972,0,1,0,4.359-1.385l.144-1.668a7.647,7.647,0,0,1-.64,15.266Z" transform="translate(-865.624 -1863.819)" fill="#3d4451"/>
            <rect id="Rectángulo_34086" data-name="Rectángulo 34086" width="5.675" height="1.355" transform="matrix(0.968, -0.252, 0.252, 0.968, 8.445, 30.851)" fill="#3d4451"/>
          </g>
          <path id="Trazado_126040" data-name="Trazado 126040" d="M805.23,1890.459H787.2c-1.315,0-2.1-1.478-2.1-2.906v-.024c0-1.505.884-2.6,2.1-2.6H805.23a2.477,2.477,0,0,1,2.328,2.6C807.558,1889.074,806.449,1890.459,805.23,1890.459Zm-18.027-4.512c-.649,0-1.085.636-1.085,1.582v.024c0,1.007.507,1.89,1.085,1.89H805.23c.591,0,1.312-.872,1.312-1.89a1.471,1.471,0,0,0-1.312-1.606Z" transform="translate(-712.365 -1761.09)" fill="#3d4451"/>
          <path id="Trazado_126041" data-name="Trazado 126041" d="M794.5,1916.582H771.279a2.928,2.928,0,0,1,0-5.768H794.5a2.928,2.928,0,0,1,0,5.768Zm-23.218-4.4c-.56,0-1.052.707-1.052,1.514s.491,1.514,1.052,1.514H794.5c.56,0,1.052-.707,1.052-1.514s-.491-1.514-1.052-1.514Z" transform="translate(-701.558 -1778.308)" fill="#3d4451"/>
          <path id="Trazado_126042" data-name="Trazado 126042" d="M726.671,1915.313l-2.343-.365,1.171.183-1.172-.178c.015-.106,1.414-10.659-10.771-22.977l1.686-1.667C728.331,1903.54,726.745,1914.838,726.671,1915.313Z" transform="translate(-664.771 -1764.667)" fill="#3d4451"/>
          <path id="Trazado_126043" data-name="Trazado 126043" d="M613.285,1835.791a1.016,1.016,0,0,1-.472-1.917c.415-.216,2.832-1.239,9.75-.1a1.016,1.016,0,0,1-.329,2.006c-2.552-.419-7.112-.818-8.479-.1A1.012,1.012,0,0,1,613.285,1835.791Z" transform="translate(-597.39 -1726.706)" fill="#3d4451"/>
        </g>
        <rect id="Rectángulo_34087" data-name="Rectángulo 34087" width="1.355" height="4.032" transform="translate(92.907 68.848)" fill="#3d4451"/>
        <rect id="Rectángulo_34088" data-name="Rectángulo 34088" width="3.983" height="1.355" transform="translate(81.945 96.599) rotate(-45)" fill="#3d4451"/>
        <rect id="Rectángulo_34089" data-name="Rectángulo 34089" width="1.355" height="4.118" transform="translate(103.456 92.996) rotate(-45.133)" fill="#3d4451"/>
        <path id="Trazado_126044" data-name="Trazado 126044" d="M638.561,1872.459h-1.355v-5.522c-.086-2.646-1.531-4.54-4.294-5.608a13.407,13.407,0,0,0-4.374-.837l-.008-1.355h.065c3.4,0,9.767,1.618,9.966,7.779Z" transform="translate(-608.208 -1743.931)" fill="#3d4451"/>
        <path id="Trazado_126045" data-name="Trazado 126045" d="M672.232,1779.878h-2.3V1748.85l-6.545-6.545v-8.128h2.3v7.175l6.545,6.545Z" transform="translate(-631.396 -1660.804)" fill="#3d4451"/>
        <path id="Trazado_126046" data-name="Trazado 126046" d="M686.374,1804.986" transform="translate(-646.688 -1707.908)" fill="none" stroke="#3d4451" stroke-miterlimit="10" stroke-width="7.082"/>
        <path id="Trazado_126047" data-name="Trazado 126047" d="M691.263,1642.254h-1.016v-9.183l-2.419-2.419v-4.7h6.77v1.016h-5.754v3.267l2.419,2.419Z" transform="translate(-647.654 -1588.806)" fill="#3d4451"/>
        <path id="Trazado_126048" data-name="Trazado 126048" d="M929.106,1831.172c-14.521-14.866-13.345-34.838-13.288-35.681l2.951.2-1.476-.1,1.476.1c-.013.194-1.12,19.519,12.453,33.415Z" transform="translate(-799.292 -1701.591)" fill="#3d4451"/>
      </g>
    </g>
    <path id="Trazado_126082" data-name="Trazado 126082" d="M-69.523,0h-1.5V-11.375h1.5Zm3.883-8.453.047,1.063a3.08,3.08,0,0,1,2.531-1.219q2.68,0,2.7,3.023V0H-61.8V-5.594a1.946,1.946,0,0,0-.418-1.352A1.675,1.675,0,0,0-63.5-7.383a2.086,2.086,0,0,0-1.234.375,2.546,2.546,0,0,0-.828.984V0h-1.445V-8.453Zm9.422-2.047v2.047h1.578v1.117h-1.578v5.242a1.171,1.171,0,0,0,.211.762.888.888,0,0,0,.719.254,3.5,3.5,0,0,0,.688-.094V0a4.19,4.19,0,0,1-1.109.156A1.8,1.8,0,0,1-57.172-.43a2.517,2.517,0,0,1-.492-1.664V-7.336H-59.2V-8.453h1.539V-10.5ZM-49.445.156a3.693,3.693,0,0,1-2.8-1.129,4.19,4.19,0,0,1-1.078-3.02v-.266A5.073,5.073,0,0,1-52.84-6.5,3.748,3.748,0,0,1-51.5-8.051a3.378,3.378,0,0,1,1.871-.559,3.166,3.166,0,0,1,2.563,1.086,4.7,4.7,0,0,1,.914,3.109v.6h-5.727a3,3,0,0,0,.73,2.02,2.3,2.3,0,0,0,1.777.77,2.517,2.517,0,0,0,1.3-.312,3.259,3.259,0,0,0,.93-.828l.883.688A3.55,3.55,0,0,1-49.445.156Zm-.18-7.578a1.928,1.928,0,0,0-1.469.637A3.1,3.1,0,0,0-51.828-5h4.234v-.109a2.753,2.753,0,0,0-.594-1.707A1.815,1.815,0,0,0-49.625-7.422ZM-42.906,0h-1.445V-12h1.445Zm3.883,0h-1.445V-8.453h1.445Zm-1.562-10.7a.863.863,0,0,1,.215-.594.807.807,0,0,1,.637-.242.819.819,0,0,1,.641.242.854.854,0,0,1,.219.594.826.826,0,0,1-.219.586.834.834,0,0,1-.641.234.821.821,0,0,1-.637-.234A.834.834,0,0,1-40.586-10.7Zm3.531,6.4a4.968,4.968,0,0,1,.914-3.145,2.923,2.923,0,0,1,2.422-1.168A2.908,2.908,0,0,1-31.3-7.516l.07-.937h1.32V-.2a3.439,3.439,0,0,1-.973,2.586,3.589,3.589,0,0,1-2.613.945,4.348,4.348,0,0,1-1.789-.391,3.08,3.08,0,0,1-1.336-1.07l.75-.867A2.826,2.826,0,0,0-33.6,2.148a2.214,2.214,0,0,0,1.645-.594,2.269,2.269,0,0,0,.59-1.672V-.844a2.971,2.971,0,0,1-2.367,1,2.887,2.887,0,0,1-2.4-1.2A5.224,5.224,0,0,1-37.055-4.3Zm1.453.164a3.79,3.79,0,0,0,.586,2.246,1.9,1.9,0,0,0,1.641.816,2.117,2.117,0,0,0,2.008-1.242V-6.172a2.142,2.142,0,0,0-1.992-1.211,1.921,1.921,0,0,0-1.648.82A4.128,4.128,0,0,0-35.6-4.133ZM-24.227.156a3.693,3.693,0,0,1-2.8-1.129A4.19,4.19,0,0,1-28.1-3.992v-.266a5.073,5.073,0,0,1,.48-2.246,3.748,3.748,0,0,1,1.344-1.547,3.378,3.378,0,0,1,1.871-.559,3.166,3.166,0,0,1,2.563,1.086,4.7,4.7,0,0,1,.914,3.109v.6h-5.727a3,3,0,0,0,.73,2.02,2.3,2.3,0,0,0,1.777.77,2.517,2.517,0,0,0,1.3-.312,3.259,3.259,0,0,0,.93-.828l.883.688A3.55,3.55,0,0,1-24.227.156Zm-.18-7.578a1.928,1.928,0,0,0-1.469.637A3.1,3.1,0,0,0-26.609-5h4.234v-.109a2.753,2.753,0,0,0-.594-1.707A1.815,1.815,0,0,0-24.406-7.422Zm6.516-1.031.047,1.063a3.08,3.08,0,0,1,2.531-1.219q2.68,0,2.7,3.023V0h-1.445V-5.594a1.946,1.946,0,0,0-.418-1.352,1.675,1.675,0,0,0-1.277-.437,2.086,2.086,0,0,0-1.234.375,2.546,2.546,0,0,0-.828.984V0h-1.445V-8.453Zm10.852,7.43a2.082,2.082,0,0,0,1.352-.469,1.649,1.649,0,0,0,.641-1.172H-3.68a2.621,2.621,0,0,1-.5,1.383A3.293,3.293,0,0,1-5.41-.234,3.55,3.55,0,0,1-7.039.156,3.482,3.482,0,0,1-9.785-1,4.59,4.59,0,0,1-10.8-4.148v-.242a5.089,5.089,0,0,1,.453-2.2,3.451,3.451,0,0,1,1.3-1.492,3.7,3.7,0,0,1,2-.531,3.39,3.39,0,0,1,2.363.852,3.043,3.043,0,0,1,1,2.211H-5.047a1.992,1.992,0,0,0-.621-1.348,1.932,1.932,0,0,0-1.379-.527,2.023,2.023,0,0,0-1.707.793,3.724,3.724,0,0,0-.605,2.293v.273a3.65,3.65,0,0,0,.6,2.25A2.033,2.033,0,0,0-7.039-1.023ZM-.484,0H-1.93V-8.453H-.484ZM-2.047-10.7a.863.863,0,0,1,.215-.594.807.807,0,0,1,.637-.242.819.819,0,0,1,.641.242.854.854,0,0,1,.219.594.826.826,0,0,1-.219.586.834.834,0,0,1-.641.234.821.821,0,0,1-.637-.234A.834.834,0,0,1-2.047-10.7ZM7.047,0a3.036,3.036,0,0,1-.2-.891A3.225,3.225,0,0,1,4.438.156,2.984,2.984,0,0,1,2.387-.551a2.287,2.287,0,0,1-.8-1.793,2.39,2.39,0,0,1,1-2.051,4.733,4.733,0,0,1,2.824-.73H6.82v-.664A1.623,1.623,0,0,0,6.367-7a1.821,1.821,0,0,0-1.336-.449,2.107,2.107,0,0,0-1.3.391,1.151,1.151,0,0,0-.523.945H1.758a2,2,0,0,1,.449-1.223,3.066,3.066,0,0,1,1.219-.934,4.1,4.1,0,0,1,1.691-.344,3.342,3.342,0,0,1,2.289.73,2.635,2.635,0,0,1,.859,2.012v3.891a4.757,4.757,0,0,0,.3,1.852V0Zm-2.4-1.1a2.54,2.54,0,0,0,1.289-.352,2.127,2.127,0,0,0,.883-.914V-4.1H5.688q-2.656,0-2.656,1.555a1.316,1.316,0,0,0,.453,1.063A1.742,1.742,0,0,0,4.648-1.1ZM21-2.969H16.234L15.164,0H13.617l4.344-11.375h1.313L23.625,0H22.086ZM16.688-4.2h3.867l-1.937-5.32ZM29.016-7.156a4.331,4.331,0,0,0-.711-.055A1.9,1.9,0,0,0,26.375-6V0H24.93V-8.453h1.406l.023.977a2.251,2.251,0,0,1,2.016-1.133,1.477,1.477,0,0,1,.641.109ZM32.7-10.5v2.047h1.578v1.117H32.7v5.242a1.171,1.171,0,0,0,.211.762.888.888,0,0,0,.719.254,3.5,3.5,0,0,0,.688-.094V0A4.19,4.19,0,0,1,33.2.156,1.8,1.8,0,0,1,31.742-.43a2.517,2.517,0,0,1-.492-1.664V-7.336H29.711V-8.453H31.25V-10.5ZM37.531,0H36.086V-8.453h1.445ZM35.969-10.7a.863.863,0,0,1,.215-.594.807.807,0,0,1,.637-.242.819.819,0,0,1,.641.242.854.854,0,0,1,.219.594.826.826,0,0,1-.219.586.834.834,0,0,1-.641.234.821.821,0,0,1-.637-.234A.834.834,0,0,1,35.969-10.7ZM40.328,0V-7.336H38.992V-8.453h1.336v-.719a2.937,2.937,0,0,1,.809-2.2,3.136,3.136,0,0,1,2.285-.789,6.881,6.881,0,0,1,2.211.477l-.242,1.219a5.008,5.008,0,0,0-1.859-.391,1.819,1.819,0,0,0-1.34.418,1.723,1.723,0,0,0-.41,1.254v.734h1.727v1.117H41.781V0Zm6.023,0H44.9V-8.453h1.453Zm5.742-1.023a2.082,2.082,0,0,0,1.352-.469,1.649,1.649,0,0,0,.641-1.172h1.367a2.621,2.621,0,0,1-.5,1.383,3.293,3.293,0,0,1-1.23,1.047,3.55,3.55,0,0,1-1.629.391A3.482,3.482,0,0,1,49.348-1a4.59,4.59,0,0,1-1.02-3.152v-.242a5.089,5.089,0,0,1,.453-2.2,3.451,3.451,0,0,1,1.3-1.492,3.7,3.7,0,0,1,2-.531,3.39,3.39,0,0,1,2.363.852,3.043,3.043,0,0,1,1,2.211H54.086a1.992,1.992,0,0,0-.621-1.348,1.932,1.932,0,0,0-1.379-.527,2.023,2.023,0,0,0-1.707.793,3.724,3.724,0,0,0-.605,2.293v.273a3.65,3.65,0,0,0,.6,2.25A2.033,2.033,0,0,0,52.094-1.023ZM58.648,0H57.2V-8.453h1.445ZM57.086-10.7a.863.863,0,0,1,.215-.594.807.807,0,0,1,.637-.242.819.819,0,0,1,.641.242.854.854,0,0,1,.219.594.826.826,0,0,1-.219.586.834.834,0,0,1-.641.234.821.821,0,0,1-.637-.234A.834.834,0,0,1,57.086-10.7ZM66.18,0a3.036,3.036,0,0,1-.2-.891A3.225,3.225,0,0,1,63.57.156,2.984,2.984,0,0,1,61.52-.551a2.287,2.287,0,0,1-.8-1.793,2.39,2.39,0,0,1,1-2.051,4.733,4.733,0,0,1,2.824-.73h1.406v-.664A1.623,1.623,0,0,0,65.5-7a1.821,1.821,0,0,0-1.336-.449,2.107,2.107,0,0,0-1.3.391,1.151,1.151,0,0,0-.523.945H60.891a2,2,0,0,1,.449-1.223,3.066,3.066,0,0,1,1.219-.934,4.1,4.1,0,0,1,1.691-.344,3.342,3.342,0,0,1,2.289.73A2.635,2.635,0,0,1,67.4-5.867v3.891a4.757,4.757,0,0,0,.3,1.852V0Zm-2.4-1.1a2.54,2.54,0,0,0,1.289-.352,2.127,2.127,0,0,0,.883-.914V-4.1H64.82q-2.656,0-2.656,1.555a1.316,1.316,0,0,0,.453,1.063A1.742,1.742,0,0,0,63.781-1.1ZM71.234,0H69.789V-12h1.445Z" transform="translate(533 5326.215)" fill="#0d66bf"/>
    <g id="Grupo_84824" data-name="Grupo 84824" transform="translate(-3856.714 3564.848)">
      <g id="Grupo_84823" data-name="Grupo 84823" transform="translate(4537.214 1587)">
        <rect id="Rectángulo_34090" data-name="Rectángulo 34090" width="36.433" height="25.53" rx="12.765" transform="translate(63.555 113.185)" fill="#a8c4cd"/>
        <g id="Grupo_84822" data-name="Grupo 84822" transform="translate(33.005)">
          <g id="Grupo_84818" data-name="Grupo 84818" transform="translate(15.398 15.011)">
            <path id="Trazado_126049" data-name="Trazado 126049" d="M4716.04,1693.3c-2.891,3.522-13.816,9.057-9.606,25.353h-29.717s2.3-13.837-9.388-29.365c-11.589-15.394-10.682-40.168,2.994-54.066a34.154,34.154,0,0,1,25.09-10.351,36.45,36.45,0,0,1,16.9,4.661,33.561,33.561,0,0,1,15.956,22.456,49.722,49.722,0,0,1-4.173,30.5,52.476,52.476,0,0,1-6.44,10.205" transform="translate(-4659.294 -1624.861)" fill="#c7ddeb"/>
          </g>
          <g id="Grupo_84819" data-name="Grupo 84819">
            <path id="Trazado_126050" data-name="Trazado 126050" d="M4695.771,1699.842h-54.658l.9-2.82c.187-.6,4.465-15.145-10.328-31.884-12.03-13.613-14.636-33.517-6.64-50.707,8.216-17.661,25.584-27.918,46.451-27.413,14.977.356,29.062,6.2,37.677,15.645l-3.193,2.915c-7.836-8.586-20.766-13.909-34.587-14.237-10.074-.24-19.057,2.078-26.671,6.891a42.369,42.369,0,0,0-15.755,18.023c-7.271,15.631-4.932,33.7,5.959,46.02,12.728,14.4,12.621,27.627,11.8,33.242h43.29c-4.118-16.685,3.035-23.823,6.971-27.749.323-.322.629-.628.912-.921l3.114,3c-.3.312-.627.639-.972.982-4,3.987-10.036,10.012-5.12,26.223Z" transform="translate(-4620.458 -1587)" fill="#3d4451"/>
          </g>
          <g id="Grupo_84820" data-name="Grupo 84820" transform="translate(19.799 20.87)">
            <path id="Trazado_126051" data-name="Trazado 126051" d="M4724.939,1673.837a22.033,22.033,0,0,0-.316-5.93l5.672-3.879-4.04-8.266-6.417,2.043a22.078,22.078,0,0,0-4.564-4.125l1.226-6.536-8.7-2.991-2.993,5.789a22.092,22.092,0,0,0-6.354.34l-3.648-5.328-8.271,4.037,1.944,6.1a22.062,22.062,0,0,0-4.268,4.83l-6.3-1.18-2.992,8.7,5.745,2.967a22.05,22.05,0,0,0,.441,6.338l-5.385,3.683,4.039,8.267,6.347-2.021a22.061,22.061,0,0,0,4.651,4.015l-1.242,6.624,8.7,2.991,3.158-6.108a22.07,22.07,0,0,0,5.924-.411l3.915,5.717,8.271-4.037-2.121-6.654a22.084,22.084,0,0,0,3.876-4.383l6.868,1.287,2.993-8.7Zm-22.055,11.023a12.931,12.931,0,1,1,12.938-12.931A12.934,12.934,0,0,1,4702.884,1684.86Z" transform="translate(-4673.121 -1642.363)" fill="#fdc345"/>
            <path id="Trazado_126052" data-name="Trazado 126052" d="M4696.205,1699.37l-11.09-3.81,1.3-6.922a23.507,23.507,0,0,1-3.488-3.014l-6.657,2.12-5.146-10.533,5.633-3.853a23.493,23.493,0,0,1-.333-4.812l-6.027-3.113,3.813-11.085,6.6,1.236a23.494,23.494,0,0,1,3.256-3.686l-2.039-6.393,10.538-5.143,3.828,5.59a23.605,23.605,0,0,1,4.827-.26l3.131-6.056,11.09,3.81-1.286,6.856a23.483,23.483,0,0,1,3.426,3.094l6.706-2.135,5.147,10.532-5.942,4.064a23.51,23.51,0,0,1,.235,4.392l6.433,3.322-3.813,11.085-7.184-1.345a23.534,23.534,0,0,1-2.854,3.228l2.218,6.96-10.538,5.143-4.09-5.973a23.422,23.422,0,0,1-4.388.3Zm-7.755-5.752,6.319,2.171,3.017-5.836.954.063a20.651,20.651,0,0,0,5.532-.383l.951-.2,3.751,5.479,6-2.931-2.03-6.368.728-.63a20.663,20.663,0,0,0,3.619-4.093l.536-.8,6.575,1.231,2.172-6.314-5.9-3.047.08-.97a20.6,20.6,0,0,0-.295-5.537l-.179-.939,5.419-3.706-2.932-6-6.151,1.959-.628-.753a20.635,20.635,0,0,0-4.262-3.852l-.793-.537,1.17-6.238-6.32-2.171-2.865,5.542-.978-.089a20.643,20.643,0,0,0-5.935.318l-.947.189-3.481-5.084-6,2.931,1.858,5.828-.747.63a20.6,20.6,0,0,0-3.985,4.511l-.532.818-6.021-1.128-2.172,6.315,5.482,2.832-.072.963a20.57,20.57,0,0,0,.412,5.918l.209.961-5.155,3.526,2.932,6,6.057-1.929.63.72a20.605,20.605,0,0,0,4.344,3.749l.825.531Zm11.708-10.023a14.391,14.391,0,1,1,14.4-14.391A14.41,14.41,0,0,1,4700.158,1683.6Zm0-25.862a11.471,11.471,0,1,0,11.479,11.471A11.488,11.488,0,0,0,4700.158,1657.734Z" transform="translate(-4670.395 -1639.638)" fill="#3d4451"/>
          </g>
          <path id="Trazado_126053" data-name="Trazado 126053" d="M4859.481,1655.481a14.3,14.3,0,0,0-.589-3.8l3.4-2.869-3.141-5.066-4,1.735a14.291,14.291,0,0,0-3.21-2.362l.365-4.293-5.806-1.361-1.553,3.926a14.315,14.315,0,0,0-4.074.632l-2.7-3.2-5.069,3.14,1.65,3.806a14.305,14.305,0,0,0-2.437,3.391l-4.138-.351-1.363,5.8,3.9,1.539a14.277,14.277,0,0,0,.7,4.057l-3.231,2.724,3.141,5.066,3.96-1.715a14.311,14.311,0,0,0,3.259,2.285l-.37,4.351,5.806,1.362,1.638-4.142a14.3,14.3,0,0,0,3.792-.65l2.895,3.431,5.069-3.14-1.8-4.151a14.27,14.27,0,0,0,2.213-3.077l4.511.383,1.363-5.8Zm-13.516,8.382a8.219,8.219,0,1,1,7.357-9A8.221,8.221,0,0,1,4845.965,1663.863Z" transform="translate(-4744.999 -1617.454)" fill="url(#linear-gradient)"/>
          <g id="Grupo_84821" data-name="Grupo 84821" transform="translate(75.143 55.285)">
            <path id="Trazado_126054" data-name="Trazado 126054" d="M4835.262,1747.623a10.636,10.636,0,0,0,1.072-2.659l3.274-.54-.08-4.442-3.226-.416a10.647,10.647,0,0,0-1.155-2.737l1.871-2.61-3.2-3.086-2.491,1.922a10.666,10.666,0,0,0-2.851-1.148l-.509-3.077-4.444.078-.394,3.067a10.633,10.633,0,0,0-2.854,1.243l-2.516-1.8-3.086,3.2,1.909,2.471a10.628,10.628,0,0,0-1.1,2.864l-3.109.513.081,4.442,3.19.411a10.684,10.684,0,0,0,1.216,2.707l-1.9,2.646,3.2,3.086,2.628-2.028a10.661,10.661,0,0,0,2.676,1.029l.546,3.3,4.444-.078.43-3.345a10.652,10.652,0,0,0,2.591-1.127l2.743,1.965,3.085-3.2Zm-10.941.867a6.418,6.418,0,1,1,7.856-4.551A6.421,6.421,0,0,1,4824.321,1748.489Z" transform="translate(-4811.423 -1727.881)" fill="#f04f4c"/>
            <path id="Trazado_126055" data-name="Trazado 126055" d="M4821.778,1755.558l-.579-3.5a11.648,11.648,0,0,1-1.752-.675l-2.8,2.159-4.361-4.207,2.011-2.807a11.488,11.488,0,0,1-.81-1.807l-3.4-.438-.11-6.057,3.3-.544a11.527,11.527,0,0,1,.749-1.945L4812,1733.1l4.207-4.358,2.68,1.919a11.564,11.564,0,0,1,1.953-.851l.42-3.266,6.059-.106.542,3.281a11.579,11.579,0,0,1,1.939.78l2.647-2.043,4.361,4.207-1.994,2.783a11.58,11.58,0,0,1,.772,1.828l3.422.441.11,6.056-3.486.575a11.569,11.569,0,0,1-.7,1.741l2.17,2.81-4.206,4.358-2.915-2.087a11.627,11.627,0,0,1-1.682.732l-.456,3.553Zm-2.518-6.393.536.295a9.763,9.763,0,0,0,2.442.939l.606.143.516,3.12,2.83-.05.406-3.155.593-.168a9.735,9.735,0,0,0,2.364-1.029l.527-.318,2.587,1.854,1.965-2.036-1.933-2.5.309-.541a9.72,9.72,0,0,0,.978-2.426l.15-.593,3.081-.508-.051-2.828-3.049-.393-.16-.607a9.727,9.727,0,0,0-1.054-2.5l-.315-.526,1.758-2.453-2.038-1.965-2.351,1.813-.543-.316a9.739,9.739,0,0,0-2.6-1.047l-.6-.146-.479-2.891-2.83.05-.371,2.886-.6.163a9.709,9.709,0,0,0-2.6,1.134l-.531.33-2.367-1.7-1.965,2.036,1.793,2.322-.3.539a9.694,9.694,0,0,0-1,2.613l-.139.614-2.933.483.051,2.828,3,.387.171.588a9.689,9.689,0,0,0,1.109,2.469l.334.531-1.792,2.5,2.037,1.965Zm5.281-.967a7.391,7.391,0,0,1-1.9-.25h0a7.318,7.318,0,1,1,1.9.25Zm-.025-12.842a5.485,5.485,0,0,0-1.4,10.786h0a5.484,5.484,0,1,0,2.82-10.6A5.53,5.53,0,0,0,4824.517,1735.357Z" transform="translate(-4809.979 -1726.438)" fill="#3d4451"/>
          </g>
        </g>
        <path id="Trazado_126056" data-name="Trazado 126056" d="M4587.242,1815.729h-31.371l-.125-.017a28.324,28.324,0,0,1-9.13-3.229c-6.15-3.5-9.4-8.876-9.4-15.536s3.187-11.973,9.216-15.347a26.778,26.778,0,0,1,8.957-3.03l.216-.013H4691.27a14.013,14.013,0,0,0,5.6-1.436c3.45-1.769,5.2-4.917,5.2-9.359,0-3.2-.907-5.7-2.7-7.448-3.115-3.038-8-2.955-8.047-2.953h-21.742v-3.65h21.668c.572-.014,6.515-.037,10.643,3.964,2.538,2.46,3.824,5.854,3.824,10.087,0,7.451-3.979,11.005-7.319,12.675a17.566,17.566,0,0,1-7.125,1.77H4555.721c-1.4.192-14.857,2.371-14.857,14.74,0,5.314,2.512,9.458,7.468,12.314a25.16,25.16,0,0,0,7.808,2.819h31.1Z" transform="translate(-4537.214 -1687.611)" fill="#3d4451"/>
        <path id="Trazado_126057" data-name="Trazado 126057" d="M4925.764,1714.55" transform="translate(-4771.709 -1663.978)" fill="none" stroke="#3d4451" stroke-miterlimit="10" stroke-width="9.235"/>
      </g>
      <path id="Trazado_126058" data-name="Trazado 126058" d="M4717.27,1882.263h-54.56a6.545,6.545,0,0,1-6.537-6.537v-1.859a6.545,6.545,0,0,1,6.537-6.537h54.56a6.545,6.545,0,0,1,6.537,6.537v1.859A6.545,6.545,0,0,1,4717.27,1882.263Zm-54.56-11.283a2.891,2.891,0,0,0-2.887,2.887v1.859a2.891,2.891,0,0,0,2.887,2.887h54.56a2.89,2.89,0,0,0,2.887-2.887v-1.859a2.89,2.89,0,0,0-2.887-2.887Z" transform="translate(-71.793 -169.182)" fill="#3d4451"/>
      <path id="Trazado_126059" data-name="Trazado 126059" d="M4716.345,1914.515h-54.56a6.544,6.544,0,0,1-6.537-6.537v-1.859a6.545,6.545,0,0,1,6.537-6.537h54.56a6.545,6.545,0,0,1,6.537,6.537v1.859A6.544,6.544,0,0,1,4716.345,1914.515Zm-54.56-11.283a2.891,2.891,0,0,0-2.887,2.887v1.859a2.891,2.891,0,0,0,2.887,2.887h54.56a2.891,2.891,0,0,0,2.887-2.887v-1.859a2.891,2.891,0,0,0-2.887-2.887Z" transform="translate(-71.235 -188.647)" fill="#3d4451"/>
    </g>
    <path id="Trazado_126083" data-name="Trazado 126083" d="M-60.105-11.375l3.719,9.281,3.719-9.281h1.945V0h-1.5V-4.43l.141-4.781L-55.816,0h-1.148l-3.727-9.187.148,4.758V0h-1.5V-11.375ZM-43.082,0a3.036,3.036,0,0,1-.2-.891A3.225,3.225,0,0,1-45.691.156a2.984,2.984,0,0,1-2.051-.707,2.287,2.287,0,0,1-.8-1.793,2.39,2.39,0,0,1,1-2.051,4.733,4.733,0,0,1,2.824-.73h1.406v-.664A1.623,1.623,0,0,0-43.762-7,1.821,1.821,0,0,0-45.1-7.445a2.107,2.107,0,0,0-1.3.391,1.151,1.151,0,0,0-.523.945h-1.453a2,2,0,0,1,.449-1.223A3.066,3.066,0,0,1-46.7-8.266a4.1,4.1,0,0,1,1.691-.344,3.342,3.342,0,0,1,2.289.73,2.635,2.635,0,0,1,.859,2.012v3.891a4.757,4.757,0,0,0,.3,1.852V0Zm-2.4-1.1a2.54,2.54,0,0,0,1.289-.352,2.127,2.127,0,0,0,.883-.914V-4.1h-1.133Q-47.1-4.1-47.1-2.547a1.316,1.316,0,0,0,.453,1.063A1.742,1.742,0,0,0-45.48-1.1Zm9.273.078a2.082,2.082,0,0,0,1.352-.469,1.649,1.649,0,0,0,.641-1.172h1.367a2.621,2.621,0,0,1-.5,1.383,3.293,3.293,0,0,1-1.23,1.047,3.55,3.55,0,0,1-1.629.391A3.482,3.482,0,0,1-38.953-1a4.59,4.59,0,0,1-1.02-3.152v-.242a5.089,5.089,0,0,1,.453-2.2,3.451,3.451,0,0,1,1.3-1.492,3.7,3.7,0,0,1,2-.531,3.39,3.39,0,0,1,2.363.852,3.043,3.043,0,0,1,1,2.211h-1.367a1.992,1.992,0,0,0-.621-1.348,1.932,1.932,0,0,0-1.379-.527,2.023,2.023,0,0,0-1.707.793,3.724,3.724,0,0,0-.605,2.293v.273a3.65,3.65,0,0,0,.6,2.25A2.033,2.033,0,0,0-36.207-1.023Zm6.43-6.406a3.073,3.073,0,0,1,2.5-1.18q2.68,0,2.7,3.023V0H-26.02V-5.594a1.946,1.946,0,0,0-.418-1.352,1.675,1.675,0,0,0-1.277-.437,2.086,2.086,0,0,0-1.234.375,2.546,2.546,0,0,0-.828.984V0h-1.445V-12h1.445ZM-20.84,0h-1.445V-8.453h1.445ZM-22.4-10.7a.863.863,0,0,1,.215-.594.807.807,0,0,1,.637-.242.819.819,0,0,1,.641.242.854.854,0,0,1,.219.594.826.826,0,0,1-.219.586.834.834,0,0,1-.641.234.821.821,0,0,1-.637-.234A.834.834,0,0,1-22.4-10.7Zm5.242,2.242.047,1.063a3.08,3.08,0,0,1,2.531-1.219q2.68,0,2.7,3.023V0h-1.445V-5.594a1.946,1.946,0,0,0-.418-1.352,1.675,1.675,0,0,0-1.277-.437,2.086,2.086,0,0,0-1.234.375,2.546,2.546,0,0,0-.828.984V0h-1.445V-8.453ZM-6.191.156a3.693,3.693,0,0,1-2.8-1.129,4.19,4.19,0,0,1-1.078-3.02v-.266A5.073,5.073,0,0,1-9.586-6.5,3.748,3.748,0,0,1-8.242-8.051a3.378,3.378,0,0,1,1.871-.559A3.166,3.166,0,0,1-3.809-7.523a4.7,4.7,0,0,1,.914,3.109v.6H-8.621a3,3,0,0,0,.73,2.02,2.3,2.3,0,0,0,1.777.77,2.517,2.517,0,0,0,1.3-.312,3.259,3.259,0,0,0,.93-.828L-3-1.477A3.55,3.55,0,0,1-6.191.156Zm-.18-7.578a1.928,1.928,0,0,0-1.469.637A3.1,3.1,0,0,0-8.574-5H-4.34v-.109a2.753,2.753,0,0,0-.594-1.707A1.815,1.815,0,0,0-6.371-7.422Zm10.844,6.2H9.863V0h-6.9V-11.375H4.473ZM14.855.156a3.693,3.693,0,0,1-2.8-1.129,4.19,4.19,0,0,1-1.078-3.02v-.266a5.073,5.073,0,0,1,.48-2.246A3.748,3.748,0,0,1,12.8-8.051a3.378,3.378,0,0,1,1.871-.559,3.166,3.166,0,0,1,2.563,1.086,4.7,4.7,0,0,1,.914,3.109v.6H12.426a3,3,0,0,0,.73,2.02,2.3,2.3,0,0,0,1.777.77,2.517,2.517,0,0,0,1.3-.312,3.259,3.259,0,0,0,.93-.828l.883.688A3.55,3.55,0,0,1,14.855.156Zm-.18-7.578a1.928,1.928,0,0,0-1.469.637A3.1,3.1,0,0,0,12.473-5h4.234v-.109a2.753,2.753,0,0,0-.594-1.707A1.815,1.815,0,0,0,14.676-7.422ZM25.043,0a3.036,3.036,0,0,1-.2-.891A3.225,3.225,0,0,1,22.434.156a2.984,2.984,0,0,1-2.051-.707,2.287,2.287,0,0,1-.8-1.793,2.39,2.39,0,0,1,1-2.051,4.733,4.733,0,0,1,2.824-.73h1.406v-.664A1.623,1.623,0,0,0,24.363-7a1.821,1.821,0,0,0-1.336-.449,2.108,2.108,0,0,0-1.3.391,1.151,1.151,0,0,0-.523.945H19.754A2,2,0,0,1,20.2-7.332a3.066,3.066,0,0,1,1.219-.934,4.1,4.1,0,0,1,1.691-.344,3.342,3.342,0,0,1,2.289.73,2.635,2.635,0,0,1,.859,2.012v3.891a4.757,4.757,0,0,0,.3,1.852V0Zm-2.4-1.1a2.54,2.54,0,0,0,1.289-.352,2.127,2.127,0,0,0,.883-.914V-4.1H23.684q-2.656,0-2.656,1.555a1.316,1.316,0,0,0,.453,1.063A1.742,1.742,0,0,0,22.645-1.1Zm9.969-6.055a4.331,4.331,0,0,0-.711-.055A1.9,1.9,0,0,0,29.973-6V0H28.527V-8.453h1.406l.023.977a2.251,2.251,0,0,1,2.016-1.133,1.477,1.477,0,0,1,.641.109Zm2.7-1.3.047,1.063a3.08,3.08,0,0,1,2.531-1.219q2.68,0,2.7,3.023V0H39.145V-5.594a1.946,1.946,0,0,0-.418-1.352,1.675,1.675,0,0,0-1.277-.437,2.086,2.086,0,0,0-1.234.375,2.546,2.546,0,0,0-.828.984V0H33.941V-8.453ZM44.34,0H42.895V-8.453H44.34ZM42.777-10.7a.863.863,0,0,1,.215-.594.807.807,0,0,1,.637-.242.819.819,0,0,1,.641.242.854.854,0,0,1,.219.594.826.826,0,0,1-.219.586.834.834,0,0,1-.641.234.821.821,0,0,1-.637-.234A.834.834,0,0,1,42.777-10.7ZM48.02-8.453l.047,1.063A3.08,3.08,0,0,1,50.6-8.609q2.68,0,2.7,3.023V0H51.855V-5.594a1.946,1.946,0,0,0-.418-1.352,1.675,1.675,0,0,0-1.277-.437,2.086,2.086,0,0,0-1.234.375,2.546,2.546,0,0,0-.828.984V0H46.652V-8.453ZM55.137-4.3a4.968,4.968,0,0,1,.914-3.145,2.923,2.923,0,0,1,2.422-1.168,2.908,2.908,0,0,1,2.414,1.094l.07-.937h1.32V-.2A3.439,3.439,0,0,1,61.3,2.383a3.589,3.589,0,0,1-2.613.945A4.348,4.348,0,0,1,56.9,2.938a3.08,3.08,0,0,1-1.336-1.07L56.316,1A2.826,2.826,0,0,0,58.59,2.148a2.214,2.214,0,0,0,1.645-.594,2.269,2.269,0,0,0,.59-1.672V-.844a2.971,2.971,0,0,1-2.367,1,2.887,2.887,0,0,1-2.4-1.2A5.224,5.224,0,0,1,55.137-4.3Zm1.453.164a3.79,3.79,0,0,0,.586,2.246,1.9,1.9,0,0,0,1.641.816,2.117,2.117,0,0,0,2.008-1.242V-6.172a2.142,2.142,0,0,0-1.992-1.211,1.921,1.921,0,0,0-1.648.82A4.128,4.128,0,0,0,56.59-4.133Z" transform="translate(756.25 5325.715)" fill="#0d66bf"/>
    <g id="Grupo_84832" data-name="Grupo 84832" transform="translate(-2547.738 3617.828)">
      <path id="Trazado_126060" data-name="Trazado 126060" d="M3632.054,1598l30.828,13.9-22.541,4.7L3627,1613.161" transform="translate(-115.115 -13.897)" fill="#c7ddeb"/>
      <path id="Trazado_126061" data-name="Trazado 126061" d="M3786,1763.49l28.049-22.49,3.791,5.306-12.635,23.248-15.162,1.516Z" transform="translate(-233.938 -120.762)" fill="#c7ddeb"/>
      <path id="Trazado_126062" data-name="Trazado 126062" d="M3498,1726l4.8,12.635,12.635,3.285" transform="translate(-18.713 -109.553)" fill="#c7ddeb"/>
      <path id="Trazado_126063" data-name="Trazado 126063" d="M3606,1810l23.248,8.339-2.274,1.516-15.667-2.78" transform="translate(-99.422 -172.326)" fill="#a8c4cd"/>
      <g id="Grupo_84831" data-name="Grupo 84831" transform="translate(3472.96 1579.404)">
        <path id="Trazado_126064" data-name="Trazado 126064" d="M3635,1724.731,3647.635,1703l14.909,16.172" transform="translate(-3594.054 -1671.768)" fill="#c7ddeb"/>
        <path id="Trazado_126065" data-name="Trazado 126065" d="M3698,1849l6.065,6.065,16.93,14.909-9.424-16.459Z" transform="translate(-3641.134 -1780.875)" fill="#a8c4cd"/>
        <path id="Trazado_126066" data-name="Trazado 126066" d="M3498,1698.406l16.8-2.906,3.538,17.941Z" transform="translate(-3491.673 -1666.164)" fill="#c7ddeb"/>
        <path id="Trazado_126067" data-name="Trazado 126067" d="M3757,1696.436l10.107-14.151,21.984-3.285,2.527,5.812-16.172,11.624Z" transform="translate(-3685.226 -1653.833)" fill="#c7ddeb"/>
        <path id="Trazado_126068" data-name="Trazado 126068" d="M3554.767,1672.888l-24.669-22.239-19.641-1.79-8.049-12.833-19.33,0-10.119-23.981,12.127-19.5L3515.5,1579.4l20.127,1.811.124.041,20.748,6.837,20.189,7.252,6.318,15.8.012.179,1.043,15.432-11.536,11.275-2.645,8.984-15.652,2.729Zm-42.981-26.192,19.273,1.757,21.312,19.213-.462-19.82,16.188-2.823,2.413-8.2,11.211-10.957-.96-14.207-5.8-14.521-19.213-6.9-20.581-6.782-19.292-1.736-29.228,12.625-11.129,17.895,9.075,21.507,19.079,0Z" transform="translate(-3472.96 -1579.404)" fill="#3d4451"/>
        <path id="Trazado_126069" data-name="Trazado 126069" d="M3589.508,1636.527l18.869-28.953-7.7-24.113,1.685-.538,7.956,24.913-17.026,26.126,32.647-6.569,13.166-25.052,25.478-3.082.212,1.756-24.556,2.971-13.125,24.975Z" transform="translate(-3560.058 -1582.034)" fill="#3d4451"/>
        <path id="Trazado_126070" data-name="Trazado 126070" d="M3504.307,1637.174l-30.332-23.853,22.695-10.52,17.849-20.135,1.324,1.173-16.692,18.829,24.617,3.591-.255,1.75-24.925-3.635Zm-26.972-23.461,24.437,19.217-4.928-28.26Z" transform="translate(-3473.719 -1581.842)" fill="#3d4451"/>
        <path id="Trazado_126071" data-name="Trazado 126071" d="M3689.175,1709.843l-15.144-7.448.6,6.255-1.76.17-.909-9.412,14.67,7.215-4.85-21.5-17.237-21.755,30.471-4.767.273,1.748-27.475,4.3,15.6,19.694Z" transform="translate(-3616.136 -1638.588)" fill="#3d4451"/>
        <path id="Trazado_126072" data-name="Trazado 126072" d="M3754.7,1643.934l-9.29-8.7-10.488-26.51-17.451-18.891,1.3-1.2,17.676,19.134.061.154,10.4,26.294,9,8.431Z" transform="translate(-3655.683 -1586.299)" fill="#3d4451"/>
        <path id="Trazado_126073" data-name="Trazado 126073" d="M3761.87,1719.6l-22.884-.089.007-1.769,22.277.087,18.877-14.55,1.08,1.4Z" transform="translate(-3671.764 -1671.974)" fill="#3d4451"/>
        <path id="Trazado_126074" data-name="Trazado 126074" d="M3642.765,1784.993l-12.937-21.654-9.944,14.061-26.379-7.765.5-1.7,25.166,7.408,10.783-15.247,13.334,22.32,17.595-12.883,1.045,1.427Z" transform="translate(-3563.044 -1714.439)" fill="#3d4451"/>
        <g id="Grupo_84825" data-name="Grupo 84825" transform="translate(44.086 20.467)">
          <circle id="Elipse_4899" data-name="Elipse 4899" cx="3.79" cy="3.79" r="3.79" transform="matrix(0.628, -0.778, 0.778, 0.628, 0, 5.9)" fill="#f04f4c"/>
          <path id="Trazado_126075" data-name="Trazado 126075" d="M3653.947,1671.849h0a4.927,4.927,0,0,1,0-9.855h0a4.927,4.927,0,0,1,0,9.855Zm0-7.581a2.653,2.653,0,1,0,0,5.306h0a2.653,2.653,0,1,0,0-5.306Z" transform="translate(-3648.616 -1661.592)" fill="#3d4451"/>
        </g>
        <g id="Grupo_84826" data-name="Grupo 84826" transform="translate(26.669 49.299)">
          <ellipse id="Elipse_4900" data-name="Elipse 4900" cx="3.031" cy="3.027" rx="3.031" ry="3.027" transform="translate(1.011 1.011)" fill="#7eb9c7"/>
          <path id="Trazado_126076" data-name="Trazado 126076" d="M3582.542,1782.575h0a4.038,4.038,0,1,1,0-8.075h0a4.038,4.038,0,1,1,0,8.075Zm0-6.053a2.016,2.016,0,1,0,0,4.032h0a2.016,2.016,0,1,0,0-4.032Z" transform="translate(-3578.5 -1774.5)" fill="#3d4451"/>
        </g>
        <g id="Grupo_84827" data-name="Grupo 84827" transform="translate(75.313 17.586)">
          <path id="Trazado_126077" data-name="Trazado 126077" d="M3775,1655.784a2.785,2.785,0,1,1,2.784,2.785A2.785,2.785,0,0,1,3775,1655.784Z" transform="translate(-3773.991 -1651.989)" fill="#7eb9c7"/>
          <path id="Trazado_126078" data-name="Trazado 126078" d="M3774.8,1656.591h0a3.8,3.8,0,0,1-3.795-3.8h0a3.8,3.8,0,0,1,3.8-3.795h0a3.8,3.8,0,0,1,0,7.591Zm0-5.57a1.775,1.775,0,0,0-1.774,1.774h0a1.774,1.774,0,0,0,1.774,1.775h0a1.774,1.774,0,0,0,0-3.548Z" transform="translate(-3771.002 -1649)" fill="#3d4451"/>
        </g>
        <g id="Grupo_84828" data-name="Grupo 84828" transform="translate(62.135 40.546)">
          <circle id="Elipse_4901" data-name="Elipse 4901" cx="3.79" cy="3.79" r="3.79" transform="translate(0 3.991) rotate(-31.767)" fill="#fdc345"/>
          <path id="Trazado_126079" data-name="Trazado 126079" d="M3724.555,1750.619h0a5.054,5.054,0,0,1,0-10.108h0a5.054,5.054,0,0,1,0,10.108Zm0-7.581a2.527,2.527,0,0,0,0,5.054h0a2.527,2.527,0,1,0,0-5.054Z" transform="translate(-3719.337 -1740.347)" fill="#3d4451"/>
        </g>
        <g id="Grupo_84829" data-name="Grupo 84829" transform="translate(85.701 43.145)">
          <circle id="Elipse_4902" data-name="Elipse 4902" cx="3.285" cy="3.285" r="3.285" transform="translate(0 4.646) rotate(-45)" fill="#c7ddeb"/>
          <path id="Trazado_126080" data-name="Trazado 126080" d="M3817.795,1760.123h0a4.3,4.3,0,0,1,0-8.592h0a4.3,4.3,0,0,1,0,8.592Zm0-6.57a2.274,2.274,0,1,0,0,4.548h0a2.274,2.274,0,0,0,0-4.548Z" transform="translate(-3813.149 -1751.181)" fill="#3d4451"/>
        </g>
        <g id="Grupo_84830" data-name="Grupo 84830" transform="translate(19.978 17.579)">
          <circle id="Elipse_4903" data-name="Elipse 4903" cx="3.285" cy="3.285" r="3.285" transform="translate(1.011 1.011)" fill="#c7ddeb"/>
          <path id="Trazado_126081" data-name="Trazado 126081" d="M3556.318,1657.565h0a4.3,4.3,0,0,1-4.295-4.3h0a4.3,4.3,0,0,1,4.3-4.295h0a4.3,4.3,0,0,1,0,8.592Zm-2.274-4.3a2.277,2.277,0,0,0,2.274,2.275h0a2.274,2.274,0,1,0,0-4.548h0a2.274,2.274,0,0,0-2.274,2.274Z" transform="translate(-3552.022 -1648.973)" fill="#3d4451"/>
        </g>
        <rect id="Rectángulo_34091" data-name="Rectángulo 34091" width="1.769" height="22.21" transform="translate(70.958 69.996) rotate(-23.397)" fill="#3d4451"/>
      </g>
    </g>
    <path id="Trazado_126084" data-name="Trazado 126084" d="M-69.2-2.969h-4.766L-75.039,0h-1.547l4.344-11.375h1.313L-66.578,0h-1.539ZM-73.516-4.2h3.867l-1.937-5.32Zm15.383.07a5.062,5.062,0,0,1-.883,3.109A2.829,2.829,0,0,1-61.406.156,3.1,3.1,0,0,1-63.828-.82V3.25h-1.445v-11.7h1.32l.07.938A2.977,2.977,0,0,1-61.43-8.609a2.882,2.882,0,0,1,2.41,1.148,5.117,5.117,0,0,1,.887,3.2ZM-59.578-4.3a3.735,3.735,0,0,0-.609-2.258,1.963,1.963,0,0,0-1.672-.828,2.125,2.125,0,0,0-1.969,1.164V-2.18a2.129,2.129,0,0,0,1.984,1.156,1.954,1.954,0,0,0,1.652-.824A4.077,4.077,0,0,0-59.578-4.3Zm7.367-2.859a4.331,4.331,0,0,0-.711-.055A1.9,1.9,0,0,0-54.852-6V0H-56.3V-8.453h1.406l.023.977a2.251,2.251,0,0,1,2.016-1.133,1.477,1.477,0,0,1,.641.109ZM-47.523.156a3.693,3.693,0,0,1-2.8-1.129A4.19,4.19,0,0,1-51.4-3.992v-.266a5.073,5.073,0,0,1,.48-2.246,3.748,3.748,0,0,1,1.344-1.547A3.378,3.378,0,0,1-47.7-8.609a3.166,3.166,0,0,1,2.563,1.086,4.7,4.7,0,0,1,.914,3.109v.6h-5.727a3,3,0,0,0,.73,2.02,2.3,2.3,0,0,0,1.777.77,2.517,2.517,0,0,0,1.3-.312,3.259,3.259,0,0,0,.93-.828l.883.688A3.55,3.55,0,0,1-47.523.156Zm-.18-7.578a1.928,1.928,0,0,0-1.469.637A3.1,3.1,0,0,0-49.906-5h4.234v-.109a2.753,2.753,0,0,0-.594-1.707A1.815,1.815,0,0,0-47.7-7.422Zm6.516-1.031.047,1.063a3.08,3.08,0,0,1,2.531-1.219q2.68,0,2.7,3.023V0h-1.445V-5.594a1.946,1.946,0,0,0-.418-1.352,1.675,1.675,0,0,0-1.277-.437,2.086,2.086,0,0,0-1.234.375,2.546,2.546,0,0,0-.828.984V0h-1.445V-8.453ZM-34.078-4.3a4.952,4.952,0,0,1,.922-3.129,2.915,2.915,0,0,1,2.414-1.184,2.932,2.932,0,0,1,2.352,1.016V-12h1.445V0h-1.328l-.07-.906A2.943,2.943,0,0,1-30.758.156a2.887,2.887,0,0,1-2.395-1.2,5.008,5.008,0,0,1-.926-3.141Zm1.445.164a3.749,3.749,0,0,0,.594,2.25A1.92,1.92,0,0,0-30.4-1.07,2.108,2.108,0,0,0-28.391-2.3V-6.187a2.125,2.125,0,0,0-1.992-1.2,1.929,1.929,0,0,0-1.656.82A4.128,4.128,0,0,0-32.633-4.133ZM-23.133,0h-1.445V-8.453h1.445ZM-24.7-10.7a.863.863,0,0,1,.215-.594.807.807,0,0,1,.637-.242.819.819,0,0,1,.641.242.854.854,0,0,1,.219.594.826.826,0,0,1-.219.586.834.834,0,0,1-.641.234.821.821,0,0,1-.637-.234A.834.834,0,0,1-24.7-10.7Zm5.234,9.516h4.945V0h-6.711V-1.062l4.664-6.2h-4.594v-1.2h6.406V-7.43ZM-7.672,0a3.036,3.036,0,0,1-.2-.891A3.225,3.225,0,0,1-10.281.156a2.984,2.984,0,0,1-2.051-.707,2.287,2.287,0,0,1-.8-1.793,2.39,2.39,0,0,1,1-2.051A4.733,4.733,0,0,1-9.3-5.125H-7.9v-.664A1.623,1.623,0,0,0-8.352-7a1.821,1.821,0,0,0-1.336-.449,2.107,2.107,0,0,0-1.3.391,1.151,1.151,0,0,0-.523.945h-1.453a2,2,0,0,1,.449-1.223,3.066,3.066,0,0,1,1.219-.934A4.1,4.1,0,0,1-9.6-8.609a3.342,3.342,0,0,1,2.289.73,2.635,2.635,0,0,1,.859,2.012v3.891a4.757,4.757,0,0,0,.3,1.852V0Zm-2.4-1.1a2.54,2.54,0,0,0,1.289-.352A2.127,2.127,0,0,0-7.9-2.367V-4.1H-9.031q-2.656,0-2.656,1.555a1.316,1.316,0,0,0,.453,1.063A1.742,1.742,0,0,0-10.07-1.1ZM-2.7-8.453V.977q0,2.438-2.211,2.438a2.682,2.682,0,0,1-.883-.141V2.117a2.794,2.794,0,0,0,.656.063.982.982,0,0,0,.738-.262,1.294,1.294,0,0,0,.254-.91V-8.453ZM-4.289-10.7a.867.867,0,0,1,.215-.59.79.79,0,0,1,.629-.246.819.819,0,0,1,.641.242.854.854,0,0,1,.219.594.826.826,0,0,1-.219.586.834.834,0,0,1-.641.234.808.808,0,0,1-.633-.234A.843.843,0,0,1-4.289-10.7ZM3.141.156A3.693,3.693,0,0,1,.344-.973,4.19,4.19,0,0,1-.734-3.992v-.266A5.073,5.073,0,0,1-.254-6.5,3.748,3.748,0,0,1,1.09-8.051a3.378,3.378,0,0,1,1.871-.559A3.166,3.166,0,0,1,5.523-7.523a4.7,4.7,0,0,1,.914,3.109v.6H.711a3,3,0,0,0,.73,2.02,2.3,2.3,0,0,0,1.777.77,2.517,2.517,0,0,0,1.3-.312,3.259,3.259,0,0,0,.93-.828l.883.688A3.55,3.55,0,0,1,3.141.156Zm-.18-7.578a1.928,1.928,0,0,0-1.469.637A3.1,3.1,0,0,0,.758-5H4.992v-.109A2.753,2.753,0,0,0,4.4-6.816,1.815,1.815,0,0,0,2.961-7.422ZM13.8-4.453V0H12.3V-11.375h4.2a4.215,4.215,0,0,1,2.926.953A3.231,3.231,0,0,1,20.477-7.9a3.189,3.189,0,0,1-1.035,2.551,4.4,4.4,0,0,1-2.965.895Zm0-1.227h2.7a2.7,2.7,0,0,0,1.844-.566,2.069,2.069,0,0,0,.641-1.637,2.138,2.138,0,0,0-.641-1.625,2.528,2.528,0,0,0-1.758-.633H13.8ZM26.25-7.156a4.331,4.331,0,0,0-.711-.055A1.9,1.9,0,0,0,23.609-6V0H22.164V-8.453H23.57l.023.977a2.251,2.251,0,0,1,2.016-1.133,1.477,1.477,0,0,1,.641.109ZM27.039-4.3a4.993,4.993,0,0,1,.488-2.234A3.643,3.643,0,0,1,28.887-8.07a3.7,3.7,0,0,1,1.988-.539,3.565,3.565,0,0,1,2.793,1.2,4.6,4.6,0,0,1,1.066,3.18v.1a5.036,5.036,0,0,1-.473,2.215A3.589,3.589,0,0,1,32.91-.391a3.743,3.743,0,0,1-2.02.547,3.556,3.556,0,0,1-2.785-1.2A4.575,4.575,0,0,1,27.039-4.2Zm1.453.172a3.616,3.616,0,0,0,.652,2.258,2.088,2.088,0,0,0,1.746.852,2.075,2.075,0,0,0,1.75-.863A3.955,3.955,0,0,0,33.289-4.3a3.61,3.61,0,0,0-.66-2.254,2.1,2.1,0,0,0-1.754-.863,2.075,2.075,0,0,0-1.727.852A3.925,3.925,0,0,0,28.492-4.133ZM37.258,0V-7.336H35.922V-8.453h1.336V-9.32a2.878,2.878,0,0,1,.727-2.1,2.745,2.745,0,0,1,2.055-.742,3.793,3.793,0,0,1,.992.133l-.078,1.172a4.151,4.151,0,0,0-.781-.07,1.413,1.413,0,0,0-1.086.41A1.66,1.66,0,0,0,38.7-9.344v.891h1.8v1.117H38.7V0ZM47.32-.836a3.07,3.07,0,0,1-2.477.992,2.628,2.628,0,0,1-2.059-.785,3.4,3.4,0,0,1-.715-2.324v-5.5h1.445v5.461q0,1.922,1.563,1.922a2.163,2.163,0,0,0,2.2-1.234V-8.453h1.445V0H47.352Zm4.969-7.617.047,1.063a3.08,3.08,0,0,1,2.531-1.219q2.68,0,2.7,3.023V0H56.125V-5.594a1.946,1.946,0,0,0-.418-1.352,1.675,1.675,0,0,0-1.277-.437,2.086,2.086,0,0,0-1.234.375,2.546,2.546,0,0,0-.828.984V0H50.922V-8.453ZM59.4-4.3a4.952,4.952,0,0,1,.922-3.129,2.915,2.915,0,0,1,2.414-1.184,2.932,2.932,0,0,1,2.352,1.016V-12h1.445V0H65.2l-.07-.906A2.943,2.943,0,0,1,62.719.156a2.887,2.887,0,0,1-2.395-1.2A5.008,5.008,0,0,1,59.4-4.187Zm1.445.164a3.749,3.749,0,0,0,.594,2.25,1.92,1.92,0,0,0,1.641.813A2.108,2.108,0,0,0,65.086-2.3V-6.187a2.125,2.125,0,0,0-1.992-1.2,1.929,1.929,0,0,0-1.656.82A4.128,4.128,0,0,0,60.844-4.133ZM68.391-4.3a4.993,4.993,0,0,1,.488-2.234A3.643,3.643,0,0,1,70.238-8.07a3.7,3.7,0,0,1,1.988-.539,3.565,3.565,0,0,1,2.793,1.2,4.6,4.6,0,0,1,1.066,3.18v.1a5.036,5.036,0,0,1-.473,2.215A3.589,3.589,0,0,1,74.262-.391a3.743,3.743,0,0,1-2.02.547,3.556,3.556,0,0,1-2.785-1.2A4.575,4.575,0,0,1,68.391-4.2Zm1.453.172A3.616,3.616,0,0,0,70.5-1.875a2.088,2.088,0,0,0,1.746.852,2.075,2.075,0,0,0,1.75-.863A3.955,3.955,0,0,0,74.641-4.3a3.61,3.61,0,0,0-.66-2.254,2.1,2.1,0,0,0-1.754-.863A2.075,2.075,0,0,0,70.5-6.57,3.925,3.925,0,0,0,69.844-4.133Z" transform="translate(984.5 5325.715)" fill="#0d66bf"/>
  </g>
</svg>
