<svg xmlns="http://www.w3.org/2000/svg" width="102.282" height="118.297" viewBox="0 0 102.282 118.297">
  <path id="Trazado_105066" data-name="Trazado 105066" d="M401.577,176.2V149.452a1.3,1.3,0,0,0-1.294-1.295H340.123a1.294,1.294,0,0,1-1.294-1.294v-41a1.3,1.3,0,0,1,1.294-1.295h60.159a1.294,1.294,0,0,0,1.294-1.294V76.517a1.3,1.3,0,0,1,2.182-.943l52.959,49.842a1.3,1.3,0,0,1,0,1.886l-52.959,49.845A1.3,1.3,0,0,1,401.577,176.2Z" transform="translate(-75.22 457.126) rotate(-90)" fill="#dbbe36"/>
</svg>
