<svg xmlns="http://www.w3.org/2000/svg" width="1071.676" height="447.914" viewBox="0 0 1071.676 447.914">
  <g id="Grupo_84679" data-name="Grupo 84679" transform="translate(-267 -2349.5)">
    <path id="Trazado_105068" data-name="Trazado 105068" d="M225.027,288.851a35.577,35.577,0,0,0,19.654-17.194,29.2,29.2,0,0,1,16.81,17.54c5.116,14.634-2.707,30.209-16.531,36.418-.779.35-.208,1.732.589,1.4,14.745-6.141,22.922-22.994,17.627-38.271a31.07,31.07,0,0,0-17.72-18.677,32.078,32.078,0,0,0,2.553-18.849c-3.1-17.769-22.441-30.083-39.275-21.2-.5.265-.058.948.436.741a26.9,26.9,0,0,1,34.524,12.7,30.055,30.055,0,0,1,.093,25.982,30.924,30.924,0,0,0-17.835-.624c-5.985,1.568-14.528,5.8-14.921,12.974C210.611,289.448,219.459,290.788,225.027,288.851Zm3.175-18.7a29.244,29.244,0,0,1,14.8.9,33.335,33.335,0,0,1-8.181,10.1,35.2,35.2,0,0,1-8.566,5.3c-4.1,1.764-11.664,3.153-13.29-2.808C210.872,275.959,222.665,271.239,228.2,270.148Z" transform="translate(217.087 2468.232) rotate(-30)" fill="#d8d8d8"/>
    <path id="Trazado_105069" data-name="Trazado 105069" d="M532.254,393.4c1.156,16.509-5.98,31.762-17.325,43.5-11.27,11.656-29.047,23.212-46.006,20.879a25.1,25.1,0,0,1-9.587-3.626c.946-.686,1.875-1.394,2.779-2.133,12.69-10.378,20.948-36.063,2.088-45.411-7.286-3.612-15.5-.379-19.891,6.134-5.369,7.961-3.873,19.041-.106,27.305a35.639,35.639,0,0,0,11.828,14.429c-27.19,18.4-69.509,14.785-89.88-11.56a53.527,53.527,0,0,1-7.938-14.815,43.466,43.466,0,0,0,23.86-7.472c6.266-4.349,13-11.659,12.583-19.841-.367-7.318-6.5-13.5-13.451-15.107-8.655-2-17.59,3.086-22.332,10.144-5.682,8.456-5.971,19.537-3.509,29.133.122.48.26.948.393,1.419a48.609,48.609,0,0,1-29.007-10.588c-15.758-12.795-22.741-33.366-23.145-53.124-.022-1.094-1.729-1.2-1.706-.1.431,21.057,8.179,43.055,25.624,55.98a50.11,50.11,0,0,0,28.757,9.563c13.051,40.842,68.067,49.627,101.221,27.328a28.454,28.454,0,0,0,9.124,3.671c12.217,2.544,24.9-2.718,35.03-9.193,19.108-12.212,33.943-32.976,32.3-56.41C533.885,392.419,532.179,392.308,532.254,393.4Zm-167.309-1.743c8.328-6.724,21.758-6.224,26.736,4.317,4.866,10.306-5.324,20.526-13.654,25.171a42.758,42.758,0,0,1-20.375,5.243C353.781,414.01,354.45,400.13,364.945,391.657Zm83.161,19.218c10.1-9.579,22.88-.2,25.076,11.387,1.955,10.318-3.076,20.274-10.577,27.085a58.436,58.436,0,0,1-4.737,3.847C444.37,443.886,435.228,423.094,448.106,410.875Z" transform="translate(566.347 2209.329)" fill="#d8d8d8"/>
    <path id="Trazado_105070" data-name="Trazado 105070" d="M238.536,240.376q.055.892.165,1.783c.617,5.018,3.09,9.332,8.072,10.958,9.279,3.029,20.855-1.45,29.343-5.134,6.84-2.967,11.146-7.352,10.041-15.248-1.748-12.472-13.994-17.862-24.738-20.725-4.9-1.305-12.748-3.352-16.433,1.4-2.492,3.214-3.531,8.923-4.6,12.758A43.391,43.391,0,0,0,238.536,240.376Z" transform="translate(599.051 2259.322)" fill="#a5d2e6"/>
    <path id="Trazado_105071" data-name="Trazado 105071" d="M164.312,99.469a13.267,13.267,0,0,0-3.91,3.944,19.7,19.7,0,0,0-2.548,5.408c-1.815,6.136,1.581,10.841,6.619,14.07,5.39,3.454,16.878,9.374,22.487,3.557,3-3.113,6.149-6.494,7.409-10.739a8.65,8.65,0,0,0-2.17-8.471c-3.592-3.92-8.566-5.8-13.348-7.788C174.354,97.58,168.7,96.746,164.312,99.469Z" transform="translate(337.705 2309.107)" fill="#ebdea1"/>
    <g id="Grupo_84059" data-name="Grupo 84059" transform="translate(1032.124 2422.418)">
      <path id="Trazado_105072" data-name="Trazado 105072" d="M429.782,279.692A117.015,117.015,0,0,0,418.8,290.217c-24.216,26.421-37.081,64.675-34.256,101.858,1.148,15.126,4.911,30.347,13.027,42.695,11.444,17.407,30.506,27.425,49.844,31.345,59.367,12.036,133.5-8.862,174-59.15,17.962-22.3,27.453-54.872,17.279-82.38-5.522-14.929-16.2-27.012-28.112-36.547C559.895,247.476,481.291,236.394,429.782,279.692Z" transform="translate(-384.164 -252)" fill="#ffc6be"/>
      <path id="Trazado_105073" data-name="Trazado 105073" d="M539.549,320.837a108.653,108.653,0,0,1-6.6,26.882" transform="translate(-294.34 -210.441)" fill="none" stroke="#fff" stroke-linecap="round" stroke-linejoin="round" stroke-width="1"/>
      <path id="Trazado_105074" data-name="Trazado 105074" d="M507.7,268.542s37.822,18.324,46.029,58.847" transform="translate(-309.582 -242.013)" fill="none" stroke="#fff" stroke-linecap="round" stroke-linejoin="round" stroke-width="1"/>
    </g>
    <g id="Grupo_84060" data-name="Grupo 84060" transform="translate(1087.212 2482.72)">
      <path id="Trazado_105075" data-name="Trazado 105075" d="M465.69,371.55l11.159-.642a20.749,20.749,0,0,0,.172-2.486c-.285-5.023-.714-10.038-.9-15.064-.213-5.915-.232-11.837-.326-17.757-.064-4.093-.069-8.185-.175-12.278-.09-3.459.494-4.325,4.027-4.728q7.907-.9,15.846-1.52c3.413-.269,4.381.516,4.8,3.961.326,2.664.33,5.366.476,8.051.383,7.036.754,14.071,1.172,21.1a7.961,7.961,0,0,0,.6,1.674c.144.475.439,1.073.276,1.448-1,2.314-.316,4.667-.2,6.978.172,3.3.621,6.579.924,9.869.083.888.385,1.556,1.376,1.562,3.211.021,6.421.008,9.3.008,0-3.246-.006-6.437,0-9.629q.017-7.3.053-14.6a11.6,11.6,0,0,1,.085-2.088c.436-2.317,1.14-2.991,3.563-3.161,5.985-.419,11.977-.771,17.967-1.131a9.767,9.767,0,0,1,2.086.087c1.841.285,2.428.9,2.441,2.76.024,3.474-.08,6.947-.037,10.421.018,1.455.282,2.906.42,4.359a2.989,2.989,0,0,1,.029,1.291c-.957,2.41-.1,4.745.157,7.117a39.786,39.786,0,0,1,.029,4.242,8.765,8.765,0,0,0,1.583.354q9.408.022,18.818-.016c.773,0,1.544-.229,2.322-.3a2.074,2.074,0,0,1,2.481,1.389,3.387,3.387,0,0,1-3.025,1.727c-5.142.114-10.283.318-15.425.35-5.047.031-10.094-.18-15.139-.151-5.57.032-11.157-.045-16.7.388-12.642.988-25.252-.1-37.875-.247-5.658-.064-11.313-.569-16.967-.585-4.083-.013-8.163.524-12.249.677-3.042.114-6.1-.095-9.136.016-4.194.149-8.36-.993-12.572-.115a28.621,28.621,0,0,1-5.156.534c-1.522.034-3.1-.066-4.28-1.5,1.413-2.029,3.549-1.427,5.308-1.769a42.171,42.171,0,0,1,5.939-.592c1.876-.095,3.764-.021,5.931-.021-.109-1.455-.263-2.55-.261-3.644q.022-17.1.09-34.2c0-.261.047-.521.051-.783.136-9.9.285-19.809.4-29.712.026-2.329-.183-4.664-.1-6.987.119-3.222,1.9-4.686,5.055-4.843,4.25-.212,8.492-.646,12.734-1.009,2.688-.229,5.369-.539,8.06-.739,1.24-.093,1.623.464,1.641,1.942.063,5.134.013,10.273.244,15.4.3,6.514,1.012,13.014,1.2,19.53.253,8.511.178,17.032.221,25.549.006,1.092-.428,2.2.836,3.034.292.191.216,1.366-.058,1.9-.637,1.246-.717,2.188.46,3.2a1.972,1.972,0,0,1,.351,1.856c-1.055,1.881-.5,3.685-.159,5.575A24.145,24.145,0,0,1,465.69,371.55Zm58.3-2.815c-1.339.576-2.675,1.158-4.017,1.724-.719.3-1.347.31-1.62-.579q7.65-6.615,15.24-13.178l-.3-.42c-.691.431-1.422.81-2.066,1.3-3.166,2.434-6.3,4.909-9.462,7.35-.876.675-1.759,1.421-3.137,1.015.342-2.136,2.513-2.851,3.445-4.864-1.759.749-3.236,1.376-4.822,2.05v8.675h5.77c.358-1.206.641-2.167.927-3.127q.861-.455,1.724-.906c-.12-.152-.239-.306-.359-.459Q524.648,368.027,523.989,368.736Zm-34.143-5.857c-.858.577-1.719,1.148-2.572,1.732-1.5,1.03-3,2.078-4.508,3.1-.709.478-1.3.4-1.74-.831l11.507-10.233q-.195-.248-.39-.5c-.69.454-1.4.869-2.062,1.365-2.568,1.934-5.087,3.934-7.692,5.817-.723.523-1.48,1.533-2.9.627,2.869-4.526,7.156-7.663,10.431-11.669-2.627,1.7-5.007,3.762-7.724,5.182a4.919,4.919,0,0,0-3.031,5.049c.075,2.738.018,5.478.018,8.171,2.908.343,3.126.306,3.924-.494,2.022-2.026,4.062-4.033,6.054-6.086a4.906,4.906,0,0,0,.627-1.277c1,.26,1.431-.236,1.45-1.265Q490.542,362.221,489.846,362.879ZM459.526,292.4a5.274,5.274,0,0,0-5.4,1.612c-2.59,2.689-5.493,5.076-8.234,7.623-2.268,2.107-4.492,4.26-6.736,6.393l.342.505a22.824,22.824,0,0,0,2.138-1.184c1.216-.842,2.333-1.827,3.568-2.638,4.285-2.815,8.562-5.648,12.929-8.335A2.946,2.946,0,0,0,459.526,292.4Zm-6.128,9.112-.5-.534c-1.948,1.269-3.919,2.505-5.838,3.818-2.372,1.625-4.6,3.487-7.084,4.911-1.6.919-2.373,1.987-2.053,3.708.2,1.092-.773,2.388.512,3.4C444.117,312.286,448.732,306.876,453.4,301.515Zm-15.032,55.266.571.257c2.157-1.989,4.274-4.024,6.484-5.953,2.289-2,4.693-3.867,7-5.847,2.139-1.838,4.5-3.442,6.283-5.711a94.809,94.809,0,0,0-8.941,5.228c-3.487,2.258-6.938,4.574-10.386,6.893-.4.269-.93.7-.965,1.094C438.29,354.079,438.366,355.434,438.366,356.781Zm.768,8.626c6.912-6.139,13.648-12.123,20.385-18.1l-.329-.411-20.414,14.2C438.877,362.311,439,363.83,439.134,365.408Zm46.709-41.665c-2.446,1.517-4.89,3.036-7.515,4.665.229,3.7,0,7.663.93,11.571a10.551,10.551,0,0,0,5.366-4.474c-1.23.107-2.017,1.751-3.639,1.038.322-3.163,3.706-4.306,4.734-7.143-2.341.592-3.717,3.1-6.657,2.556C481.014,328.613,484.047,326.76,485.843,323.743ZM442.332,369.38c1.378-3.01,4.858-3.961,6.752-6.984-3.49,2.306-6.575,4.346-9.938,6.57v2.372c2.629,0,5.212.022,7.8-.026a1.879,1.879,0,0,0,1.1-.571c1.982-1.923,3.919-3.894,5.9-5.817,1.1-1.065,2.253-2.069,3.384-3.1a3.57,3.57,0,0,0-2.037.749c-3.479,2.282-6.939,4.59-10.447,6.827C444.189,369.817,443.406,370.549,442.332,369.38Zm17.841-37.866c-4.487,4.03-8.564,7.677-12.62,11.345-.836.757-1.6,1.594-2.39,2.4a.212.212,0,0,0-.022.2.671.671,0,0,0,.191.149l15.134-9.448C460.384,334.833,460.3,333.465,460.173,331.515Zm-.759-26.441-17.364,16.085a4.585,4.585,0,0,0,2.309-.972c4.466-3.292,8.822-6.745,13.417-9.845C459.869,308.929,459.938,307.393,459.415,305.074Zm-17.073,34.807.459.478a4.828,4.828,0,0,0,.888-.439c5.2-4.048,10.389-8.121,15.6-12.156,1.291-1,1.115-2.12.454-3.759Zm-4.035-17.04c5.741-5.23,11.2-10.2,16.664-15.178-.12-.157-.242-.314-.362-.47-.9.6-1.823,1.164-2.694,1.8-3.924,2.877-7.754,5.891-11.784,8.61C438.238,318.88,437.6,320.282,438.307,322.842Zm12.277-28.269-.5-.518c-3.337,2.3-6.686,4.577-10.01,6.891-2.457,1.711-2.624,2.277-1.7,5.581A102.976,102.976,0,0,0,450.583,294.573Zm-4.154,16.316.342.279c3.742-2.619,7.464-5.268,11.241-7.839a2.949,2.949,0,0,0,1.458-3.283c-.14-.719-.22-1.447-.4-2.686Zm-2.523,43.767c.151.167.3.332.454.5.773-.512,1.549-1.017,2.319-1.532q6.36-4.265,12.721-8.529c1.349-.9,1.419-1.121.69-3.828C454.459,345.592,449.064,349.98,443.907,354.656Zm-5.289-19.978,17.134-15.7c-6.149,3.506-10.838,9.051-17.551,11.821.056.94.088,1.8.165,2.656A10.58,10.58,0,0,0,438.618,334.679Zm20.842-15.992c-3.081,1.4-14.26,11.192-15.749,13.774.167.018.393.116.491.043,4.827-3.639,9.624-7.318,14.474-10.923A2.14,2.14,0,0,0,459.46,318.686Zm-4.686,15.548-.324-.385-15.757,11.707a3.8,3.8,0,0,0,.56,2.657Zm42.561-13.066c-4.72,4.208-9.507,7.842-13.218,12.655,4.378-3.037,8.615-6.248,12.868-9.436C498.025,323.608,498,322.683,497.335,321.169Zm-52.2,40.765.444.427a1.942,1.942,0,0,0,.473-.178c4.566-3.3,9.088-6.664,13.707-9.887,1.35-.943,1.052-1.843.619-3.365C455.118,353.423,450.129,357.68,445.14,361.934Zm50.753-30.359-.337-.4c-1.7,1.179-3.377,2.386-5.1,3.528-3.782,2.5-6.742,6.271-11.561,7.271.071.964.131,1.787.228,3.106C485.1,340.592,490.579,336.185,495.893,331.576Zm-16.145,18.4c5.231-3.956,10.269-7.764,15.306-11.573l-.318-.468c-.723.409-1.466.786-2.165,1.232-3.953,2.511-7.855,5.109-11.869,7.518C479.37,347.485,479.062,348.314,479.749,349.975Zm-1.6-22.874a17.982,17.982,0,0,0,6.461-6.826l-6.461.845Zm-25.767,1.346-.34-.383q-6.327,5.114-12.652,10.232c-.831.675-.964,1.533-.367,2.76C443.552,336.781,447.967,332.615,452.382,328.447Zm27.326,24.221c-.064.674-.154,1.355-.183,2.038a9.528,9.528,0,0,0,.229,1.453c3.539-3.438,7.18-6.166,10.1-9.723C486.564,348.455,483.277,350.476,479.709,352.668Zm37.471-.674.754.3,5.382-5.567-.277-.459-5.858.427Zm-33.868-22.638,12.071-9.435-.194-.475a5.342,5.342,0,0,0-1.8.4A39.1,39.1,0,0,0,483.312,329.356Zm-36.788-5.836c.614-.423,1.233-.839,1.841-1.27,3.47-2.452,6.9-4.968,10.429-7.331,1.177-.789.89-1.564.648-2.911C454.958,316,450.225,319.142,446.524,323.52Zm77.443,33.524c.476-.056.675-.019.784-.1,3.971-2.957,7.945-5.91,11.874-8.92.359-.274.425-.932.752-1.713C534.162,347.73,526.954,353.543,523.967,357.044ZM497.783,331.62l-9.292,7.831.33.452,8.962-5.422Zm-59.611-34.371v3.026c2.657-1.823,5.393-2.936,6.691-5.834-.314-.093-.513-.226-.622-.173C442.226,295.241,440.223,296.236,438.172,297.249Zm79.51,59.641c3.506-2.223,6.965-5.421,7.687-7.194-2.215,1.347-4.218,2.693-6.34,3.815C517.616,354.257,517.215,355.218,517.682,356.89Zm-19.141-9.448-.646-.175-8.354,7.892c.112.133.225.265.337.4a55.97,55.97,0,0,0,8.107-6.213C498.394,348.936,498.366,348.088,498.541,347.443ZM438.414,328.52l7.44-6.957a66.216,66.216,0,0,0-6.325,3.676C438.2,325.991,437.827,326.809,438.414,328.52Zm59.192-2.2a56.66,56.66,0,0,0-7.087,6.368c2.2-1.113,4.245-2.4,6.291-3.69A1.78,1.78,0,0,0,497.606,326.322Zm23.325,24.143a13.13,13.13,0,0,0,6.705-4.319C523.943,345.485,523.163,349.069,520.931,350.464Zm16.007-.053-6.559,5.247.406.558c2.085-1.453,4.178-2.893,6.232-4.388C537.153,351.73,536.994,351.223,536.938,350.411ZM517.5,360.443c2.782-1.591,4.389-3.1,5.094-4.715C518.613,357.678,517.585,358.582,517.5,360.443Zm-23.859-14.656c2.391-.516,3.87-1.8,4.13-3.495Zm-52.206-51.674c-3.021-.576-3.045-.563-3.39,1.687Zm47.259,26.441c-2.321-.053-2.951.383-3.892,2.43Zm9.462,18.287c-.13-.173-.258-.346-.388-.518-2.223,1.091-2.771,1.557-3.742,3.35ZM446.66,294.632c1.092.252,1.512-.683,2.637-1.119C447.676,292.9,446.957,293.213,446.66,294.632Zm45.852,53.007-.451-.441-1.953,1.828.38.372Zm42.7,9.913c1.418-.6,1.418-.6,1.637-1.952Zm1.321,3.644-.3-.354-1.164,1.073.213.245Q535.9,361.675,536.53,361.195Zm-3.988-15-.484-.427-1.227,1.607a6.5,6.5,0,0,0,1.119-.5A5.646,5.646,0,0,0,532.542,346.2Z" transform="translate(-417.705 -289.601)" fill="#fff"/>
      <path id="Trazado_105076" data-name="Trazado 105076" d="M425.871,296.893a32.189,32.189,0,0,1,.369,3.467c.011,5.66-.1,11.321-.048,16.98.045,4.872.269,9.741.383,14.613.083,3.564.087,7.129.181,10.692.042,1.634.223,3.264.329,4.9.022.342.115.778-.05,1.012a8.549,8.549,0,0,1-1.216,1.192c-.33-.427-.895-.823-.951-1.283a50.761,50.761,0,0,1-.431-5.708c-.1-9.643-.2-19.288-.188-28.931A70.354,70.354,0,0,1,425.871,296.893Z" transform="translate(-413.755 -285.198)" fill="#fff"/>
      <path id="Trazado_105077" data-name="Trazado 105077" d="M422.715,307.388a6.826,6.826,0,0,1,1.6,5.133c-.087,3.73-.327,7.456-.383,11.186-.042,2.858.112,5.719.164,8.578.048,2.691.117,5.382.09,8.072a14.163,14.163,0,0,1-.483,2.516,2.409,2.409,0,0,1-2.058-2.815c.285-6.407-.808-12.809.2-19.237.547-3.487.358-7.089.534-10.634C422.425,309.252,422.6,308.321,422.715,307.388Z" transform="translate(-415.47 -278.862)" fill="#fff"/>
      <path id="Trazado_105078" data-name="Trazado 105078" d="M480.852,346.653c1.932-1.427,3.608-1.259,5.178-1.265,4.075-.019,8.149.124,12.224.148,6.426.035,12.851.022,19.275.042.812,0,2.016-.367,2,.945-.016,1.171-1.153,1.406-2.128,1.382-2.083-.053-4.162-.257-6.245-.3-8.933-.173-17.869-.3-26.8-.478A34.5,34.5,0,0,1,480.852,346.653Z" transform="translate(-379.581 -255.923)" fill="#fff"/>
      <path id="Trazado_105079" data-name="Trazado 105079" d="M490.258,349.007c5.632-.547,11.093-.475,16.547-.52.326,0,.656.409,1.075.688a2.52,2.52,0,0,1-2.444,1.732,63.451,63.451,0,0,1-14.7-1.14C490.63,349.743,490.566,349.505,490.258,349.007Z" transform="translate(-373.902 -254.049)" fill="#fff"/>
    </g>
    <g id="Grupo_84063" data-name="Grupo 84063" transform="translate(267 2390.261)">
      <g id="Grupo_84061" data-name="Grupo 84061">
        <path id="Trazado_105080" data-name="Trazado 105080" d="M132.665,140.842C105.34,157.835,75,188.008,67.932,220.341,51.424,295.855,148.975,341.8,210.155,340.726c38.879-.682,79.059-21.466,94.274-57.25,9.9-23.285,8.391-50.309,0-74.179C277.706,133.264,204.4,96.229,132.665,140.842Z" transform="translate(-66.078 -121.581)" fill="#ebdea1"/>
        <path id="Trazado_105081" data-name="Trazado 105081" d="M137.342,256.83s56.131,8.019,80.187-12.83" transform="translate(-23.054 -47.672)" fill="none" stroke="#fff" stroke-linecap="round" stroke-linejoin="round" stroke-width="1"/>
        <path id="Trazado_105082" data-name="Trazado 105082" d="M210.92,225.77a59.239,59.239,0,0,0,4.686-19.27" transform="translate(21.367 -70.312)" fill="none" stroke="#fff" stroke-linecap="round" stroke-linejoin="round" stroke-width="1"/>
        <path id="Trazado_105083" data-name="Trazado 105083" d="M197.842,243.231a98.106,98.106,0,0,0,12.629-15.223" transform="translate(13.472 -57.327)" fill="none" stroke="#fff" stroke-linecap="round" stroke-linejoin="round" stroke-width="1"/>
      </g>
      <g id="Grupo_84062" data-name="Grupo 84062" transform="translate(58.613 24.728)">
        <path id="Trazado_105084" data-name="Trazado 105084" d="M182.874,229.488c4.452,7.132,6.537,15.167,10.219,22.648.842-.213,1.645-.359,2.409-.621a8.431,8.431,0,0,1,5.066-.387,4.911,4.911,0,0,1,3.215,6.79c-.194.449-.428.882-.682,1.4.957,1.674,2.645,2.954,2.675,5.135a6.284,6.284,0,0,1-2.366,4.822,2.645,2.645,0,0,0,0,.625c1.111,3.629.63,5.337-2.454,7.639a18.571,18.571,0,0,1-4.279,2.442c-4.213,1.645-8.477,3.174-12.759,4.633a18.711,18.711,0,0,1-4.734,1.009c-3.159.21-4.027-.712-3.963-3.762.008-.395.042-.786.077-1.416a15.181,15.181,0,0,0-2.027.26c-4.037,1.1-6.038-.293-6.221-4.412-.026-.573.061-1.15.106-1.876-.492-.159-1.009-.369-1.543-.491-2.266-.515-3.159-1.891-2.62-4.123a8.042,8.042,0,0,1,3.392-4.856c-.993-2.022-2.112-3.928-2.887-5.963-1.724-4.534-3.233-9.148-4.914-13.7-1.11-3-2.366-5.953-3.551-8.928-.669-1.678-1.326-3.36-1.992-5.037-.787-1.981-2.41-2.505-4.361-2.616-5.259-.3-10.538-.449-15.763-1.058-5.645-.659-10.126-3.772-13.943-7.831-1.854-1.974-3.536-4.109-5.31-6.158-2.8-3.233-3.883-7.2-4.755-11.233-2.184-10.124.3-19.58,4.248-28.8.908-2.117,1.971-4.167,2.941-6.258,2.625-5.668,7-9.63,12.192-12.92,6.872-4.351,14.443-6.349,22.412-7.114a23.787,23.787,0,0,1,4.685.192c3.916.409,7.943.447,11.714,1.439,8.137,2.139,15.114,6.333,20.169,13.29a42.575,42.575,0,0,1,8.149,20.863c.388,3.676,1.236,7.316,1.44,11a46.5,46.5,0,0,1-4.211,22.361,39.2,39.2,0,0,1-7.793,11.008Zm4.5,24.97c2.563-1.156,2.579-1.163,1.692-3.349-.925-2.289-2-4.526-2.807-6.856a94.8,94.8,0,0,0-6.036-13.277c-.973-1.839-.895-2.879.725-4.107,3.374-2.56,5.6-6.061,7.727-9.547,3.985-6.529,5.137-13.912,5.076-21.392a99.984,99.984,0,0,0-1.551-13.492,39.366,39.366,0,0,0-7.307-17.933,32.075,32.075,0,0,0-20.226-12.724c-1.046-.21-2.064-.555-3.108-.779-3.937-.848-7.858-1.987-11.948-1.421-7.6,1.052-14.791,3.317-21.174,7.717-3.062,2.112-6.121,4.287-8.014,7.608-3.477,6.1-6.747,12.317-8.314,19.232-1.394,6.154-2.173,12.352-.486,18.61.82,3.042,1.7,6.062,3.737,8.541,1.931,2.348,3.851,4.726,5.993,6.874,3.568,3.575,7.651,6.261,12.945,6.545,4.933.265,9.857.743,14.791.922a7.3,7.3,0,0,1,7.268,5.254c.558,1.551,1.174,3.081,1.767,4.619q2.759,7.147,5.518,14.294c1.336,3.462,2.641,6.935,4.017,10.379a18.83,18.83,0,0,0,1.357,2.362,28.852,28.852,0,0,0,7.855-3.4c-2.178-5.592-4.293-11.111-6.477-16.6-1.307-3.284-2.936-6.455-4.045-9.8-2.526-7.632-5.581-14.977-10.211-21.6-1.32-1.889-2.505-3.873-3.74-5.82a3.109,3.109,0,0,0-3.766-1.41c-3.369.733-6.354-.439-8.958-2.548a3.44,3.44,0,0,1-.9-4.053,3.129,3.129,0,0,1,3.4-1.929c2.05.241,4.085.587,5.674,2.143,1.092,1.07,2.266,2.053,3.387,3.06,2.529-1.6,2.786-2.715,1.253-4.949a14.491,14.491,0,0,1-1.678-2.72,48.359,48.359,0,0,1-2.308-6.745c-.415-1.779.924-2.593,2.568-1.779a5.884,5.884,0,0,1,2.964,3.793c.693,2.282,1.249,4.606,1.835,6.92.465,1.833,1.182,2.454,2.664,2.215,2.035-.326,3.219-1.508,3.074-3.18-.176-2.05-.566-4.09-.617-6.139a47.353,47.353,0,0,1,.3-7.122,2.941,2.941,0,0,1,2.981-2.476,3.1,3.1,0,0,1,2.88,2.314,7.046,7.046,0,0,1,.318,1.7,21.571,21.571,0,0,1-1.944,10.573,7.336,7.336,0,0,0-.6,5.443c1.575,5.036,2.882,10.158,4.55,15.163a118.646,118.646,0,0,0,6.306,15.845c2.808,5.592,5.142,11.422,7.738,17.121C184.7,249.161,186.026,251.712,187.369,254.458Zm-9.114,4.075c1.6-.529,3-.943,4.37-1.466,1.95-.744,2.048-1,1.212-2.9-1.185-2.7-2.422-5.381-3.616-8.08-1.86-4.2-3.673-8.416-5.563-12.6-1.254-2.773-2.782-5.432-3.886-8.261a209.648,209.648,0,0,1-7.759-24.685,17.288,17.288,0,0,0-.616-1.745l-6.883,1.033-2.168,2.734c.192.35.359.718.581,1.049,4.893,7.324,9.746,14.66,12.593,23.111,1.363,4.048,2.924,8.03,4.426,12.03,2.024,5.389,4.09,10.763,6.115,16.151C177.489,256.044,177.826,257.218,178.255,258.533Zm9.757,14.068-.019-.046c3.725-1.536,7.462-3.05,11.172-4.628a11.734,11.734,0,0,0,2.547-1.495,2.293,2.293,0,0,0,.34-3.478,2.772,2.772,0,0,0-3.233-.189c-1.678.874-3.341,1.785-5.065,2.56-5.1,2.285-10.041,4.943-15.654,5.927a65.645,65.645,0,0,0-7.114,2,2.691,2.691,0,0,0-1.894,3.453c.473,1.711.949,2.037,2.93,1.594a48.067,48.067,0,0,0,6.174-1.681C181.509,275.387,184.744,273.95,188.013,272.6Zm-39.68-71.288c-2.46-3.248-5.466-4.341-7.449-2.842C142.1,200.935,144.989,202.091,148.333,201.313Zm15.2-11c2.04-3.254,2.236-7.505.446-9.627C162.436,183.857,163.233,186.905,163.536,190.313Z" transform="translate(-99.32 -130.795)" fill="#fff"/>
        <path id="Trazado_105085" data-name="Trazado 105085" d="M138.066,138.824a6.259,6.259,0,0,1,3.692-1.657,41.323,41.323,0,0,1,15.651,1.61,44.773,44.773,0,0,1,7.14,3.381,66.665,66.665,0,0,1,16.034,11.829,19.364,19.364,0,0,1,2.786,3.446c2.588,4.013,5.326,7.956,6.963,12.5,1.145,3.179,2.189,6.392,3.321,9.576.483,1.355-.3,1.965-1.326,2.62a7,7,0,0,1-2.646-4.037,62.048,62.048,0,0,0-2.357-7.246c-1.35-2.985-3.111-5.783-4.659-8.681-3.292-6.165-8.736-10.156-14.177-14.174a50.112,50.112,0,0,0-12.055-6.6,36.536,36.536,0,0,0-14.27-2.476C140.974,138.96,139.78,138.867,138.066,138.824Z" transform="translate(-81.23 -137)" fill="#fff"/>
        <path id="Trazado_105086" data-name="Trazado 105086" d="M147.9,143.561c2.016-.749,3.918-.186,5.759.386a21.986,21.986,0,0,1,9.892,5.74c2.6,2.744,5.493,5.2,7.453,8.493,1.727,2.9,3.472,5.8,5.076,8.768.88,1.631.7,1.875-1.115,3.039-.553-.738-1.185-1.463-1.684-2.269-1.944-3.145-3.663-6.445-5.8-9.452-4.42-6.221-9.945-11.133-17.413-13.478a17.318,17.318,0,0,1-1.833-.731C148.114,144,148.058,143.809,147.9,143.561Z" transform="translate(-75.295 -133.256)" fill="#fff"/>
        <path id="Trazado_105087" data-name="Trazado 105087" d="M103.489,186.3c.738,1.788,1.525,3.557,2.2,5.368.864,2.317,1.666,4.66,2.442,7.008a19.7,19.7,0,0,0,4.434,7.342,32.339,32.339,0,0,0,10.334,7.9c2.176.957,4.508,1.554,6.724,2.428a21.348,21.348,0,0,1,3.233,1.746,1.19,1.19,0,0,1,.409,1.891,1.809,1.809,0,0,1-1.719.21c-3.814-2.338-8.477-2.821-12.083-5.587-1.1-.847-2.3-1.586-3.344-2.5-3.993-3.47-7.791-7.111-9.59-12.3-1.214-3.5-2.452-7-3.591-10.524a13.631,13.631,0,0,1-.314-2.789Z" transform="translate(-102.626 -107.236)" fill="#fff"/>
        <path id="Trazado_105088" data-name="Trazado 105088" d="M108.971,192.139a35.5,35.5,0,0,0,2.338,3.033c3.219,3.382,6.221,7.015,10.466,9.247.775.407,1.726.9,1.113,2.077-.481.927-1.48.911-2.752.181-4.532-2.6-7.727-6.524-10.623-10.729a5.4,5.4,0,0,1-1.118-3.605Z" transform="translate(-99.156 -103.71)" fill="#fff"/>
        <path id="Trazado_105089" data-name="Trazado 105089" d="M161.288,174.988a6.244,6.244,0,0,1,1.548,4.15,36.343,36.343,0,0,1-2.54,12.48c-.879,2.385-1.812,4.749-2.7,7.13-.249.666-.6,1.384-1.354.969a1.84,1.84,0,0,1-.587-1.629,38.162,38.162,0,0,1,1.362-3.693c.956-2.63,2.022-5.23,2.8-7.913A41.109,41.109,0,0,0,161.288,174.988Z" transform="translate(-70.629 -114.065)" fill="#fff"/>
        <path id="Trazado_105090" data-name="Trazado 105090" d="M154.317,194.64c-.917-.94-.613-2.037-.329-3.012.821-2.826,1.762-5.618,2.633-8.429.289-.932.459-1.9.767-2.824a8.79,8.79,0,0,1,1.193-2.351,8.523,8.523,0,0,1,.175,5.252c-.54,2.645-1.257,5.257-2,7.853C156.357,192.507,156.033,194.026,154.317,194.64Z" transform="translate(-71.789 -112.232)" fill="#fff"/>
      </g>
    </g>
    <g id="Grupo_84066" data-name="Grupo 84066" transform="translate(620.481 2452.598)">
      <g id="Grupo_84064" data-name="Grupo 84064">
        <path id="Trazado_105091" data-name="Trazado 105091" d="M213.5,334.161c-14.442,23.937-21.543,51.671-6.755,75.039,24.4,38.563,80.3,58.876,120.416,66.189,17.16,3.127,35.053,4.194,52.513-.768s34.536-16.546,44.847-34.212c16.754-28.71,12.249-65.589,3.1-96.155-7.589-25.35-18.031-49.658-33.489-69.046C362.494,235.531,319.478,228.715,277.8,263.5,259.2,279.021,230.9,305.316,213.5,334.161Z" transform="translate(-198.57 -241)" fill="#a5d2e6"/>
        <path id="Trazado_105092" data-name="Trazado 105092" d="M236.786,278.348c-8.655,9.276-14.323,16.045-14.323,16.045" transform="translate(-184.145 -218.452)" fill="none" stroke="#fff" stroke-linecap="round" stroke-linejoin="round" stroke-width="1"/>
        <path id="Trazado_105093" data-name="Trazado 105093" d="M338.684,258.366c-5.754-5.565-13.986-8.864-21.6-10.869a51.879,51.879,0,0,0-41.2,6.194c-12.8,7.9-24.16,18.185-34.907,28.639" transform="translate(-172.968 -238.161)" fill="none" stroke="#fff" stroke-linecap="round" stroke-linejoin="round" stroke-width="1"/>
      </g>
      <g id="Grupo_84065" data-name="Grupo 84065" transform="translate(54.316 60.351)">
        <path id="Trazado_105094" data-name="Trazado 105094" d="M282.45,351.584c-.388-.792-.678-1.4-.978-2a2.261,2.261,0,0,1,.48-2.7c.954-1.1,1.852-2.253,2.712-3.305-1.277-3.276-2.513-6.351-3.676-9.454a43.311,43.311,0,0,1-2.45-15c-.069-8.1,2.944-15.073,8.107-21.148a76.517,76.517,0,0,1,16.889-14.939c3.66-2.357,7.8-3.18,12-3.573a101.226,101.226,0,0,1,14.626-.771,35.142,35.142,0,0,1,18.262,5.826c7.664,5.185,12.844,12.325,16.857,20.4a42.384,42.384,0,0,1,3.735,10.521,19.676,19.676,0,0,1-1.4,11.823c-1.346,3.044-2.611,6.123-3.854,9.21-2.476,6.147-6.647,10.976-11.54,15.322a62.559,62.559,0,0,1-13.856,8.8,38.044,38.044,0,0,1-13.56,3.613c-2.046.2-4.1.395-6.157.423-5.308.074-9.86-2.293-14.4-4.643-.436-.225-.834-.523-1.26-.767-3.02-1.721-3.041-1.74-5.754.719-1.269,1.148-2.63,1.8-4.282,1.025-1.564-.73-2.609-.032-3.6,1.052-3.575,3.913-7.175,7.8-10.726,11.736-4.789,5.31-9.38,10.809-14.353,15.938-4.837,4.988-9.358,10.333-15.024,14.469-.872.637-1.74,1.288-2.649,1.87a8.621,8.621,0,0,1-13.009-4.316,20.692,20.692,0,0,1-1.091-4.259,4.135,4.135,0,0,1,.383-2.539,28.715,28.715,0,0,1,5.756-7.324c7.432-6.386,14.722-12.934,22.584-18.812,2.823-2.111,5.363-4.6,8.121-6.8,3.984-3.182,8.049-6.261,12.074-9.393C281.709,352.355,281.964,352.056,282.45,351.584Zm76.636-51.2a80.777,80.777,0,0,0-4.882-6.639c-6.3-7.018-14.158-11.25-23.625-11.778a103.271,103.271,0,0,0-16.151.414,24.12,24.12,0,0,0-13.468,5.453c-3.278,2.8-6.562,5.619-9.6,8.668-7.433,7.448-10.854,16.332-9.525,26.98.871,6.965,3.44,13.252,6.607,19.4a15.1,15.1,0,0,0,5.066,5.608c2.019,1.389,4.045,2.784,5.942,4.33,4.328,3.528,9.334,5.754,14.5,7.642a12.251,12.251,0,0,0,4.627.742,77.427,77.427,0,0,0,9.938-.975c6.607-1.168,12.4-4.357,17.829-8.105,5.636-3.889,10.453-8.705,13.452-14.942a100.7,100.7,0,0,0,5.525-13.922,15.287,15.287,0,0,0,.241-7.815A46.589,46.589,0,0,0,359.086,300.38Zm-62.032,55.343c-.159-.319-.2-.548-.337-.658-3.289-2.617-6.579-5.235-9.9-7.8-.276-.212-.826-.067-1.639-.109,1.981,3.693,3.454,7.122,6.588,9.592,2.736,2.159,2.856,2.316,5.065-.329A2.446,2.446,0,0,0,297.054,355.723ZM261.31,373.284c-2.685,1.134-15.378,11.678-17.307,14.511C251.034,384.1,255.774,378.216,261.31,373.284ZM243.524,394.84c-1.071,1.113-1.87,2.213-1.081,3.623.2.356,1.251.52,1.761.343.625-.218,1.448-.818,1.56-1.378C246.092,395.8,244.647,395.5,243.524,394.84Z" transform="translate(-232.439 -278.632)" fill="#fff"/>
        <path id="Trazado_105095" data-name="Trazado 105095" d="M272.494,334.068c-1.406-2.888-3.222-5.655-4.126-8.694a24.077,24.077,0,0,1,.343-15.47c1.873-5.236,5.22-9.433,8.28-13.779,1.884-2.675,5.076-4.556,7.937-6.392a38.007,38.007,0,0,1,16.384-5.924c6.6-.723,13.019.095,18.932,3.827a39.213,39.213,0,0,1,13.773,14.116,18.471,18.471,0,0,1,1.358,4.449c.241.945.234,1.955.492,2.895,1.949,7.089,1.1,13.827-1.875,20.541-2.564,5.793-6.614,10.4-10.952,14.732-3.7,3.7-8.812,5-13.8,6.158-10.291,2.383-19.29-1.562-27.934-6.3-3.325-1.822-5.616-5.114-7.459-8.525-.326-.6-.621-1.224-.93-1.836Zm2.444-4.42a53.787,53.787,0,0,0,3.393,6.58A21.786,21.786,0,0,0,287.4,343.5a46.286,46.286,0,0,0,14.361,4.133c6.315.63,12.126-1.828,17.664-4.693a8.766,8.766,0,0,0,2.375-2.162c1.666-1.931,3.179-4,4.888-5.891,3.538-3.918,5.257-8.671,6.468-13.665a18.571,18.571,0,0,0,.241-2.9c-.779-.069-1.264-.152-1.747-.149-10.4.066-20.8.074-31.2.239-5.589.088-11.176.414-16.762.7-1.379.072-2.224-.329-2.685-2.1a19.989,19.989,0,0,1,3.95-.9c11.661-.22,23.321-.419,34.982-.468,4.5-.019,9,.362,13.829.574-.532-2.619-1.047-5.161-1.61-7.927-5.005,0-9.8-.048-14.589.024-2.648.039-5.3.464-7.937.4a188.124,188.124,0,0,0-25.6.661,58.274,58.274,0,0,1-6.463.258c-1.349,0-2.21-.666-1.952-2.643,1.655-.122,3.369-.226,5.081-.375a183.112,183.112,0,0,1,24.115-.547,57.5,57.5,0,0,0,8.2.12,60.422,60.422,0,0,1,16.639.467c.73.13,1.483.122,2.746.216a37.063,37.063,0,0,0-1.785-4.1,34.477,34.477,0,0,0-12.371-12.32c-6.534-3.847-13.348-4.07-20.452-2.386a12.306,12.306,0,0,0-1.394.455c-1.56.576-3.114,1.171-4.678,1.742a24.1,24.1,0,0,0-10.795,7.4,66.45,66.45,0,0,0-5.868,8.1,37.783,37.783,0,0,0-3.7,8.556c-1.042,3.663,0,7.392.709,11.045a4.215,4.215,0,0,0,.715,1.211c3.692-.176,7.271-.379,10.854-.512,6.465-.239,12.931-.433,19.4-.658,2.038-.071,4.078-.276,6.115-.252,4.107.048,8.214.184,12.318.356a5.111,5.111,0,0,1,1.626.706l-.1.643C307.135,327.823,291.245,328.46,274.938,329.648Z" transform="translate(-211.417 -275.651)" fill="#fff"/>
        <path id="Trazado_105096" data-name="Trazado 105096" d="M307.3,293.045c-2.187.266-4.369.59-6.562.787-5.268.475-10.54.938-15.818,1.286a6.564,6.564,0,0,1-2.962-.738,1.61,1.61,0,0,1-.406-1.506,1.783,1.783,0,0,1,1.352-.736c3.506-.245,7.016-.532,10.529-.568,4.078-.042,8.16.167,12.241.245a16.225,16.225,0,0,0,1.754-.152Z" transform="translate(-202.819 -270.824)" fill="#fff"/>
        <path id="Trazado_105097" data-name="Trazado 105097" d="M282.726,318.6c-.669-1.74.293-2.4,1.5-2.747a30.6,30.6,0,0,1,4.572-.986c4.34-.542,8.654-1.584,13.078-.941.8.115,1.578.345,2.778.614C301.818,316.115,286.047,318.93,282.726,318.6Z" transform="translate(-202.211 -257.444)" fill="#fff"/>
      </g>
    </g>
    <path id="Trazado_105098" data-name="Trazado 105098" d="M238.536,240.376q.055.892.165,1.783c.617,5.018,3.09,9.332,8.072,10.958,9.279,3.029,20.855-1.45,29.343-5.134,6.84-2.967,11.146-7.352,10.041-15.248-1.748-12.472-13.994-17.862-24.738-20.725-4.9-1.305-12.748-3.352-16.433,1.4-2.492,3.214-3.531,8.923-4.6,12.758A43.391,43.391,0,0,0,238.536,240.376Z" transform="translate(1052.346 2215.639)" fill="#ffc6be"/>
    <path id="Trazado_125901" data-name="Trazado 125901" d="M27.471-11.555H8.751L4.5,0H.85l15.6-41.234h3.313L35.372,0H31.747ZM9.827-14.528H26.366L18.1-36.986ZM43.868-30.643l.113,5.239a12.168,12.168,0,0,1,4.3-4.319,11.187,11.187,0,0,1,5.692-1.487q4.928,0,7.335,2.775t2.436,8.326V0h-3.37V-20.136q-.028-4.106-1.742-6.117t-5.48-2.011A8.572,8.572,0,0,0,47.592-26.3a11.53,11.53,0,0,0-3.583,5.31V0H40.64V-30.643ZM91.843,0a16.027,16.027,0,0,1-.651-4.276A11.818,11.818,0,0,1,86.646-.694,13.921,13.921,0,0,1,80.8.566,10.272,10.272,0,0,1,73.647-1.9a8.026,8.026,0,0,1-2.733-6.23,8.2,8.2,0,0,1,3.724-7.08q3.724-2.605,10.379-2.605h6.146V-21.3a6.712,6.712,0,0,0-2.025-5.168,8.37,8.37,0,0,0-5.9-1.883,9.241,9.241,0,0,0-5.862,1.813,5.385,5.385,0,0,0-2.322,4.361l-3.4-.028a7.881,7.881,0,0,1,3.4-6.33A13.086,13.086,0,0,1,83.4-31.209q5.126,0,8.085,2.563A9.2,9.2,0,0,1,94.533-21.5V-7A17.984,17.984,0,0,0,95.468-.34V0ZM81.194-2.436a11.377,11.377,0,0,0,6.075-1.643,9.665,9.665,0,0,0,3.894-4.39v-6.74H85.1a15.186,15.186,0,0,0-7.93,1.855,5.567,5.567,0,0,0-2.86,4.942,5.478,5.478,0,0,0,1.912,4.276A7.2,7.2,0,0,0,81.194-2.436ZM107.362,0h-3.4V-43.5h3.4ZM120.3,0h-3.4V-30.643h3.4Zm1.756-43.16h4.106l-6.542,7.93h-2.974Zm12.688,4.673v7.845h6.344v2.775h-6.344V-7.448a6.387,6.387,0,0,0,.92,3.795,3.569,3.569,0,0,0,3.073,1.246,21.084,21.084,0,0,0,2.747-.283L141.63.085A10.983,10.983,0,0,1,138,.566q-3.483,0-5.069-2.025A9.532,9.532,0,0,1,131.35-7.42V-27.867h-5.636v-2.775h5.636v-7.845ZM151.91,0h-3.4V-30.643h3.4Zm-3.993-39.507a2.294,2.294,0,0,1,.623-1.628,2.215,2.215,0,0,1,1.7-.666,2.261,2.261,0,0,1,1.713.666,2.266,2.266,0,0,1,.637,1.628,2.218,2.218,0,0,1-.637,1.614,2.287,2.287,0,0,1-1.713.651,2.24,2.24,0,0,1-1.7-.651A2.245,2.245,0,0,1,147.917-39.507ZM172.442-2.294a8.949,8.949,0,0,0,5.933-2,7.027,7.027,0,0,0,2.591-5.168h3.257a9.6,9.6,0,0,1-1.756,5.112,11,11,0,0,1-4.291,3.611,12.93,12.93,0,0,1-5.735,1.3,11.838,11.838,0,0,1-9.558-4.191q-3.526-4.191-3.526-11.271v-1.02a19.156,19.156,0,0,1,1.586-8.015,12.222,12.222,0,0,1,4.545-5.381,12.548,12.548,0,0,1,6.924-1.9,11.817,11.817,0,0,1,8.312,3,10.946,10.946,0,0,1,3.5,7.9h-3.257a8.334,8.334,0,0,0-2.591-5.806,8.391,8.391,0,0,0-5.961-2.209,8.45,8.45,0,0,0-7.123,3.313q-2.535,3.313-2.535,9.289v.991q0,5.862,2.535,9.147A8.508,8.508,0,0,0,172.442-2.294ZM210.335,0a16.027,16.027,0,0,1-.651-4.276,11.818,11.818,0,0,1-4.545,3.583A13.921,13.921,0,0,1,199.29.566,10.272,10.272,0,0,1,192.139-1.9a8.026,8.026,0,0,1-2.733-6.23,8.2,8.2,0,0,1,3.724-7.08q3.724-2.605,10.379-2.605h6.146V-21.3a6.712,6.712,0,0,0-2.025-5.168,8.37,8.37,0,0,0-5.9-1.883,9.241,9.241,0,0,0-5.862,1.813,5.386,5.386,0,0,0-2.322,4.361l-3.4-.028a7.881,7.881,0,0,1,3.4-6.33,13.086,13.086,0,0,1,8.354-2.676q5.126,0,8.085,2.563a9.2,9.2,0,0,1,3.044,7.151V-7A17.984,17.984,0,0,0,213.96-.34V0ZM199.687-2.436a11.377,11.377,0,0,0,6.075-1.643,9.665,9.665,0,0,0,3.894-4.39v-6.74h-6.061a15.186,15.186,0,0,0-7.93,1.855,5.567,5.567,0,0,0-2.86,4.942,5.478,5.478,0,0,0,1.912,4.276A7.2,7.2,0,0,0,199.687-2.436Z" transform="translate(652 2393)" fill="#12263f"/>
    <path id="Trazado_125902" data-name="Trazado 125902" d="M3.414,0V-27.016h7.552A11.748,11.748,0,0,1,16.922-25.5a10.454,10.454,0,0,1,4.11,4.333,13.645,13.645,0,0,1,1.475,6.42v2.486a13.645,13.645,0,0,1-1.466,6.42,10.429,10.429,0,0,1-4.128,4.323A12.1,12.1,0,0,1,10.8,0ZM5.7-25.067V-1.93h5.121a8.817,8.817,0,0,0,6.847-2.83,10.928,10.928,0,0,0,2.579-7.654v-2.375A10.675,10.675,0,0,0,17.7-22.247a8.668,8.668,0,0,0-6.7-2.82ZM35.551.371A8.715,8.715,0,0,1,30.921-.891,8.6,8.6,0,0,1,27.7-4.407a10.962,10.962,0,0,1-1.15-5.056v-.8a11.814,11.814,0,0,1,1.123-5.214A8.931,8.931,0,0,1,30.8-19.121a7.713,7.713,0,0,1,4.342-1.327,7.249,7.249,0,0,1,5.8,2.5,10.123,10.123,0,0,1,2.143,6.819V-9.89H28.76v.427a8.406,8.406,0,0,0,1.958,5.687A6.227,6.227,0,0,0,35.644-1.5a7.235,7.235,0,0,0,3.145-.649A6.975,6.975,0,0,0,41.266-4.23l1.392,1.058A8.1,8.1,0,0,1,35.551.371Zm-.408-18.926a5.551,5.551,0,0,0-4.221,1.837,8.486,8.486,0,0,0-2.087,4.936H40.876v-.241a7.368,7.368,0,0,0-1.651-4.713A5.118,5.118,0,0,0,35.143-18.555ZM59.431-5.1A3.164,3.164,0,0,0,58.1-7.756a10.231,10.231,0,0,0-4-1.568,18.04,18.04,0,0,1-4.147-1.3,5.525,5.525,0,0,1-2.189-1.791,4.467,4.467,0,0,1-.714-2.561A4.777,4.777,0,0,1,49.04-18.9a8.019,8.019,0,0,1,5.084-1.549,8.254,8.254,0,0,1,5.39,1.661,5.33,5.33,0,0,1,2.032,4.333H59.319a3.6,3.6,0,0,0-1.475-2.932,5.8,5.8,0,0,0-3.72-1.169,5.806,5.806,0,0,0-3.516.974,3.006,3.006,0,0,0-1.327,2.533,2.738,2.738,0,0,0,1.1,2.329,11.678,11.678,0,0,0,4.026,1.512,18.924,18.924,0,0,1,4.379,1.466,5.671,5.671,0,0,1,2.162,1.874,4.8,4.8,0,0,1,.705,2.653,4.809,4.809,0,0,1-2.05,4.063A8.759,8.759,0,0,1,54.254.371a8.993,8.993,0,0,1-5.687-1.7,5.226,5.226,0,0,1-2.18-4.3h2.227a3.861,3.861,0,0,0,1.642,3.034,6.712,6.712,0,0,0,4,1.085A6.309,6.309,0,0,0,58-2.523,3.063,3.063,0,0,0,59.431-5.1ZM74.07-1.5a5.863,5.863,0,0,0,3.887-1.308,4.6,4.6,0,0,0,1.7-3.386h2.134a6.286,6.286,0,0,1-1.15,3.349A7.207,7.207,0,0,1,77.828-.482,8.472,8.472,0,0,1,74.07.371a7.756,7.756,0,0,1-6.262-2.746A11.1,11.1,0,0,1,65.5-9.76v-.668a12.55,12.55,0,0,1,1.039-5.251A8.007,8.007,0,0,1,69.515-19.2a8.221,8.221,0,0,1,4.537-1.243A7.742,7.742,0,0,1,79.5-18.48,7.172,7.172,0,0,1,81.789-13.3H79.655a5.46,5.46,0,0,0-1.7-3.8,5.5,5.5,0,0,0-3.906-1.447,5.536,5.536,0,0,0-4.667,2.171A9.822,9.822,0,0,0,67.725-10.3v.649a9.6,9.6,0,0,0,1.661,5.993A5.574,5.574,0,0,0,74.07-1.5ZM95.5-18.184a8.293,8.293,0,0,0-1.5-.13,5.422,5.422,0,0,0-3.516,1.16,6.352,6.352,0,0,0-2.05,3.368V0H86.224V-20.076h2.171l.037,3.191a5.9,5.9,0,0,1,5.659-3.562,3.652,3.652,0,0,1,1.466.241ZM101.494,0H99.268V-20.076h2.227ZM98.878-25.884a1.5,1.5,0,0,1,.408-1.067,1.451,1.451,0,0,1,1.113-.436,1.481,1.481,0,0,1,1.123.436,1.485,1.485,0,0,1,.417,1.067,1.453,1.453,0,0,1-.417,1.058,1.5,1.5,0,0,1-1.123.427,1.468,1.468,0,0,1-1.113-.427A1.471,1.471,0,0,1,98.878-25.884Zm24.789,16.05a12.091,12.091,0,0,1-2.078,7.45A6.619,6.619,0,0,1,116.022.371a7.431,7.431,0,0,1-6.309-2.895V7.719h-2.208V-20.076h2.06l.111,2.839a7.124,7.124,0,0,1,6.29-3.21,6.678,6.678,0,0,1,5.65,2.728q2.05,2.728,2.05,7.57Zm-2.227-.39a10.326,10.326,0,0,0-1.577-6.067,5.086,5.086,0,0,0-4.4-2.227,6.146,6.146,0,0,0-3.507.983,6.185,6.185,0,0,0-2.245,2.857v9.63A5.9,5.9,0,0,0,112-2.412,6.581,6.581,0,0,0,115.5-1.5a5.038,5.038,0,0,0,4.37-2.236A11.243,11.243,0,0,0,121.44-10.224Zm10.595-14.992v5.14h4.156v1.818h-4.156V-4.88a4.184,4.184,0,0,0,.6,2.486,2.339,2.339,0,0,0,2.013.816,13.814,13.814,0,0,0,1.8-.186l.093,1.818a7.2,7.2,0,0,1-2.375.315,3.96,3.96,0,0,1-3.321-1.327,6.245,6.245,0,0,1-1.039-3.906v-13.4h-3.692v-1.818h3.692v-5.14ZM143.279,0h-2.227V-20.076h2.227Zm-2.616-25.884a1.5,1.5,0,0,1,.408-1.067,1.451,1.451,0,0,1,1.113-.436,1.481,1.481,0,0,1,1.123.436,1.485,1.485,0,0,1,.417,1.067,1.453,1.453,0,0,1-.417,1.058,1.5,1.5,0,0,1-1.123.427,1.468,1.468,0,0,1-1.113-.427A1.471,1.471,0,0,1,140.663-25.884Zm14.9,22.822,6.1-17.015h2.282L156.453,0h-1.8L147.12-20.076H149.4ZM179.98,0a10.5,10.5,0,0,1-.427-2.8,7.743,7.743,0,0,1-2.978,2.347,9.121,9.121,0,0,1-3.832.826,6.73,6.73,0,0,1-4.685-1.614,5.259,5.259,0,0,1-1.791-4.082,5.373,5.373,0,0,1,2.44-4.639,11.724,11.724,0,0,1,6.8-1.707h4.026v-2.282a4.4,4.4,0,0,0-1.327-3.386,5.484,5.484,0,0,0-3.869-1.234,6.054,6.054,0,0,0-3.841,1.188,3.528,3.528,0,0,0-1.521,2.857l-2.227-.019a5.163,5.163,0,0,1,2.227-4.147,8.574,8.574,0,0,1,5.474-1.753,7.82,7.82,0,0,1,5.3,1.679,6.025,6.025,0,0,1,1.995,4.685v9.5a11.783,11.783,0,0,0,.612,4.36V0ZM173-1.6a7.454,7.454,0,0,0,3.98-1.076,6.332,6.332,0,0,0,2.551-2.876V-9.964h-3.971a9.949,9.949,0,0,0-5.2,1.215A3.648,3.648,0,0,0,168.5-5.511a3.589,3.589,0,0,0,1.252,2.8A4.718,4.718,0,0,0,173-1.6Z" transform="translate(297 2653)" fill="#dbbe36"/>
    <path id="Trazado_125905" data-name="Trazado 125905" d="M5.7-11V0H3.414V-27.016h9.2a9.7,9.7,0,0,1,6.652,2.152,7.485,7.485,0,0,1,2.44,5.919,7.414,7.414,0,0,1-2.347,5.873Q17.015-11,12.562-11Zm0-1.93h6.921a7.31,7.31,0,0,0,5.065-1.577,5.626,5.626,0,0,0,1.744-4.4,5.888,5.888,0,0,0-1.735-4.462,6.965,6.965,0,0,0-4.926-1.7H5.7Zm29.873-5.251a8.293,8.293,0,0,0-1.5-.13,5.422,5.422,0,0,0-3.516,1.16,6.352,6.352,0,0,0-2.05,3.368V0H26.292V-20.076h2.171l.037,3.191a5.9,5.9,0,0,1,5.659-3.562,3.652,3.652,0,0,1,1.466.241ZM46.5.371A8.715,8.715,0,0,1,41.869-.891a8.6,8.6,0,0,1-3.219-3.516A10.962,10.962,0,0,1,37.5-9.463v-.8a11.814,11.814,0,0,1,1.123-5.214,8.931,8.931,0,0,1,3.126-3.646,7.713,7.713,0,0,1,4.342-1.327,7.249,7.249,0,0,1,5.8,2.5,10.123,10.123,0,0,1,2.143,6.819V-9.89H39.707v.427a8.406,8.406,0,0,0,1.958,5.687A6.227,6.227,0,0,0,46.591-1.5a7.235,7.235,0,0,0,3.145-.649A6.975,6.975,0,0,0,52.213-4.23L53.6-3.173A8.1,8.1,0,0,1,46.5.371ZM46.09-18.555a5.551,5.551,0,0,0-4.221,1.837,8.486,8.486,0,0,0-2.087,4.936H51.823v-.241a7.368,7.368,0,0,0-1.651-4.713A5.118,5.118,0,0,0,46.09-18.555Zm11.374,8.331a12.1,12.1,0,0,1,2.087-7.45,6.718,6.718,0,0,1,5.668-2.774,6.981,6.981,0,0,1,6.2,3.21V-28.5h2.208V0H71.547l-.093-2.672A7.17,7.17,0,0,1,65.183.371a6.694,6.694,0,0,1-5.594-2.792,12.163,12.163,0,0,1-2.125-7.542Zm2.245.39a10.469,10.469,0,0,0,1.54,6.058,4.981,4.981,0,0,0,4.342,2.217,5.976,5.976,0,0,0,5.826-3.618V-14.6a5.932,5.932,0,0,0-5.789-3.915,5.041,5.041,0,0,0-4.36,2.2Q59.709-14.12,59.709-9.834ZM81.956,0H79.729V-20.076h2.227ZM79.34-25.884a1.5,1.5,0,0,1,.408-1.067,1.451,1.451,0,0,1,1.113-.436,1.481,1.481,0,0,1,1.123.436,1.485,1.485,0,0,1,.417,1.067,1.453,1.453,0,0,1-.417,1.058,1.5,1.5,0,0,1-1.123.427,1.468,1.468,0,0,1-1.113-.427A1.471,1.471,0,0,1,79.34-25.884ZM95.408-1.5A5.863,5.863,0,0,0,99.3-2.811a4.6,4.6,0,0,0,1.7-3.386h2.134a6.286,6.286,0,0,1-1.15,3.349A7.207,7.207,0,0,1,99.166-.482a8.472,8.472,0,0,1-3.757.854,7.756,7.756,0,0,1-6.262-2.746,11.1,11.1,0,0,1-2.31-7.385v-.668a12.55,12.55,0,0,1,1.039-5.251A8.007,8.007,0,0,1,90.853-19.2a8.221,8.221,0,0,1,4.537-1.243,7.742,7.742,0,0,1,5.446,1.967,7.172,7.172,0,0,1,2.292,5.177h-2.134a5.46,5.46,0,0,0-1.7-3.8,5.5,5.5,0,0,0-3.906-1.447,5.536,5.536,0,0,0-4.667,2.171A9.822,9.822,0,0,0,89.063-10.3v.649a9.6,9.6,0,0,0,1.661,5.993A5.574,5.574,0,0,0,95.408-1.5Zm15.6-23.713v5.14h4.156v1.818h-4.156V-4.88a4.184,4.184,0,0,0,.6,2.486,2.339,2.339,0,0,0,2.013.816,13.813,13.813,0,0,0,1.8-.186l.093,1.818a7.2,7.2,0,0,1-2.375.315,3.96,3.96,0,0,1-3.321-1.327,6.245,6.245,0,0,1-1.039-3.906v-13.4h-3.692v-1.818h3.692v-5.14ZM122.257,0H120.03V-20.076h2.227Zm-2.616-25.884a1.5,1.5,0,0,1,.408-1.067,1.451,1.451,0,0,1,1.113-.436,1.481,1.481,0,0,1,1.123.436,1.485,1.485,0,0,1,.417,1.067,1.453,1.453,0,0,1-.417,1.058,1.5,1.5,0,0,1-1.123.427,1.468,1.468,0,0,1-1.113-.427A1.471,1.471,0,0,1,119.641-25.884Zm14.9,22.822,6.1-17.015h2.282L135.431,0h-1.8L126.1-20.076h2.282ZM158.958,0a10.5,10.5,0,0,1-.427-2.8,7.743,7.743,0,0,1-2.978,2.347,9.121,9.121,0,0,1-3.832.826,6.73,6.73,0,0,1-4.685-1.614,5.259,5.259,0,0,1-1.791-4.082,5.373,5.373,0,0,1,2.44-4.639,11.724,11.724,0,0,1,6.8-1.707h4.026v-2.282a4.4,4.4,0,0,0-1.327-3.386,5.484,5.484,0,0,0-3.869-1.234,6.054,6.054,0,0,0-3.841,1.188,3.528,3.528,0,0,0-1.521,2.857l-2.227-.019a5.163,5.163,0,0,1,2.227-4.147,8.574,8.574,0,0,1,5.474-1.753,7.82,7.82,0,0,1,5.3,1.679,6.025,6.025,0,0,1,1.995,4.685v9.5a11.783,11.783,0,0,0,.612,4.36V0Zm-6.977-1.6a7.454,7.454,0,0,0,3.98-1.076,6.332,6.332,0,0,0,2.551-2.876V-9.964h-3.971a9.949,9.949,0,0,0-5.2,1.215,3.648,3.648,0,0,0-1.874,3.238,3.589,3.589,0,0,0,1.252,2.8A4.718,4.718,0,0,0,151.981-1.6Z" transform="translate(668 2734)" fill="#0d66bf"/>
    <path id="Trazado_125903" data-name="Trazado 125903" d="M5.7-11V0H3.414V-27.016h9.2a9.7,9.7,0,0,1,6.652,2.152,7.485,7.485,0,0,1,2.44,5.919,7.414,7.414,0,0,1-2.347,5.873Q17.015-11,12.562-11Zm0-1.93h6.921a7.31,7.31,0,0,0,5.065-1.577,5.626,5.626,0,0,0,1.744-4.4,5.888,5.888,0,0,0-1.735-4.462,6.965,6.965,0,0,0-4.926-1.7H5.7Zm29.873-5.251a8.293,8.293,0,0,0-1.5-.13,5.422,5.422,0,0,0-3.516,1.16,6.352,6.352,0,0,0-2.05,3.368V0H26.292V-20.076h2.171l.037,3.191a5.9,5.9,0,0,1,5.659-3.562,3.652,3.652,0,0,1,1.466.241ZM46.5.371A8.715,8.715,0,0,1,41.869-.891a8.6,8.6,0,0,1-3.219-3.516A10.962,10.962,0,0,1,37.5-9.463v-.8a11.814,11.814,0,0,1,1.123-5.214,8.931,8.931,0,0,1,3.126-3.646,7.713,7.713,0,0,1,4.342-1.327,7.249,7.249,0,0,1,5.8,2.5,10.123,10.123,0,0,1,2.143,6.819V-9.89H39.707v.427a8.406,8.406,0,0,0,1.958,5.687A6.227,6.227,0,0,0,46.591-1.5a7.235,7.235,0,0,0,3.145-.649A6.975,6.975,0,0,0,52.213-4.23L53.6-3.173A8.1,8.1,0,0,1,46.5.371ZM46.09-18.555a5.551,5.551,0,0,0-4.221,1.837,8.486,8.486,0,0,0-2.087,4.936H51.823v-.241a7.368,7.368,0,0,0-1.651-4.713A5.118,5.118,0,0,0,46.09-18.555ZM70.378-5.1a3.164,3.164,0,0,0-1.327-2.653,10.231,10.231,0,0,0-4-1.568,18.04,18.04,0,0,1-4.147-1.3,5.525,5.525,0,0,1-2.189-1.791A4.467,4.467,0,0,1,58-14.974,4.777,4.777,0,0,1,59.987-18.9a8.019,8.019,0,0,1,5.084-1.549,8.254,8.254,0,0,1,5.39,1.661,5.33,5.33,0,0,1,2.032,4.333H70.267a3.6,3.6,0,0,0-1.475-2.932,5.8,5.8,0,0,0-3.72-1.169,5.806,5.806,0,0,0-3.516.974,3.006,3.006,0,0,0-1.327,2.533,2.738,2.738,0,0,0,1.1,2.329,11.678,11.678,0,0,0,4.026,1.512,18.924,18.924,0,0,1,4.379,1.466A5.671,5.671,0,0,1,71.9-7.867,4.8,4.8,0,0,1,72.6-5.214a4.809,4.809,0,0,1-2.05,4.063A8.759,8.759,0,0,1,65.2.371a8.993,8.993,0,0,1-5.687-1.7,5.226,5.226,0,0,1-2.18-4.3h2.227A3.861,3.861,0,0,0,61.2-2.588a6.712,6.712,0,0,0,4,1.085,6.309,6.309,0,0,0,3.748-1.021A3.063,3.063,0,0,0,70.378-5.1Zm14.64,3.6A5.863,5.863,0,0,0,88.9-2.811,4.6,4.6,0,0,0,90.6-6.2h2.134a6.286,6.286,0,0,1-1.15,3.349A7.207,7.207,0,0,1,88.775-.482a8.472,8.472,0,0,1-3.757.854,7.756,7.756,0,0,1-6.262-2.746,11.1,11.1,0,0,1-2.31-7.385v-.668a12.55,12.55,0,0,1,1.039-5.251A8.007,8.007,0,0,1,80.462-19.2,8.221,8.221,0,0,1,85-20.447a7.742,7.742,0,0,1,5.446,1.967A7.172,7.172,0,0,1,92.736-13.3H90.6a5.46,5.46,0,0,0-1.7-3.8A5.5,5.5,0,0,0,85-18.555a5.536,5.536,0,0,0-4.667,2.171A9.822,9.822,0,0,0,78.672-10.3v.649a9.6,9.6,0,0,0,1.661,5.993A5.574,5.574,0,0,0,85.018-1.5Zm21.431-16.681a8.293,8.293,0,0,0-1.5-.13,5.422,5.422,0,0,0-3.516,1.16,6.352,6.352,0,0,0-2.05,3.368V0H97.171V-20.076h2.171l.037,3.191a5.9,5.9,0,0,1,5.659-3.562,3.652,3.652,0,0,1,1.466.241ZM112.441,0h-2.227V-20.076h2.227Zm-2.616-25.884a1.5,1.5,0,0,1,.408-1.067,1.451,1.451,0,0,1,1.113-.436,1.481,1.481,0,0,1,1.123.436,1.485,1.485,0,0,1,.417,1.067,1.453,1.453,0,0,1-.417,1.058,1.5,1.5,0,0,1-1.123.427,1.468,1.468,0,0,1-1.113-.427A1.471,1.471,0,0,1,109.825-25.884Zm24.789,16.05a12.091,12.091,0,0,1-2.078,7.45A6.619,6.619,0,0,1,126.97.371a7.431,7.431,0,0,1-6.309-2.895V7.719h-2.208V-20.076h2.06l.111,2.839a7.124,7.124,0,0,1,6.29-3.21,6.678,6.678,0,0,1,5.65,2.728q2.05,2.728,2.05,7.57Zm-2.227-.39a10.326,10.326,0,0,0-1.577-6.067,5.086,5.086,0,0,0-4.4-2.227,6.146,6.146,0,0,0-3.507.983,6.185,6.185,0,0,0-2.245,2.857v9.63a5.9,5.9,0,0,0,2.282,2.635,6.581,6.581,0,0,0,3.507.909,5.038,5.038,0,0,0,4.37-2.236A11.243,11.243,0,0,0,132.388-10.224Zm10.595-14.992v5.14h4.156v1.818h-4.156V-4.88a4.184,4.184,0,0,0,.6,2.486,2.339,2.339,0,0,0,2.013.816,13.814,13.814,0,0,0,1.8-.186l.093,1.818a7.2,7.2,0,0,1-2.375.315,3.96,3.96,0,0,1-3.321-1.327,6.245,6.245,0,0,1-1.039-3.906v-13.4h-3.692v-1.818h3.692v-5.14ZM154.227,0H152V-20.076h2.227ZM151.61-25.884a1.5,1.5,0,0,1,.408-1.067,1.451,1.451,0,0,1,1.113-.436,1.481,1.481,0,0,1,1.123.436,1.485,1.485,0,0,1,.417,1.067,1.453,1.453,0,0,1-.417,1.058,1.5,1.5,0,0,1-1.123.427,1.468,1.468,0,0,1-1.113-.427A1.471,1.471,0,0,1,151.61-25.884Zm14.9,22.822,6.1-17.015H174.9L167.4,0h-1.8l-7.533-20.076h2.282ZM190.928,0a10.5,10.5,0,0,1-.427-2.8,7.743,7.743,0,0,1-2.978,2.347,9.121,9.121,0,0,1-3.832.826,6.73,6.73,0,0,1-4.685-1.614,5.259,5.259,0,0,1-1.791-4.082,5.373,5.373,0,0,1,2.44-4.639,11.724,11.724,0,0,1,6.8-1.707h4.026v-2.282a4.4,4.4,0,0,0-1.327-3.386,5.484,5.484,0,0,0-3.869-1.234,6.054,6.054,0,0,0-3.841,1.188,3.528,3.528,0,0,0-1.521,2.857l-2.227-.019a5.163,5.163,0,0,1,2.227-4.147,8.574,8.574,0,0,1,5.474-1.753,7.82,7.82,0,0,1,5.3,1.679,6.025,6.025,0,0,1,1.995,4.685v9.5a11.783,11.783,0,0,0,.612,4.36V0Zm-6.977-1.6a7.454,7.454,0,0,0,3.98-1.076,6.332,6.332,0,0,0,2.551-2.876V-9.964h-3.971a9.949,9.949,0,0,0-5.2,1.215,3.648,3.648,0,0,0-1.874,3.238,3.589,3.589,0,0,0,1.252,2.8A4.718,4.718,0,0,0,183.951-1.6Z" transform="translate(1087 2690)" fill="#db6e5f"/>
    <path id="Trazado_125904" data-name="Trazado 125904" d="M1.32,15V3.625H4.531a5.169,5.169,0,0,1,2.625.656A4.438,4.438,0,0,1,8.918,6.148,6.078,6.078,0,0,1,9.547,8.93v.727a6.1,6.1,0,0,1-.621,2.82,4.369,4.369,0,0,1-1.773,1.859A5.5,5.5,0,0,1,4.469,15ZM2.82,4.859v8.914H4.4A3.435,3.435,0,0,0,7.1,12.7a4.452,4.452,0,0,0,.965-3.07V8.961a4.522,4.522,0,0,0-.91-3.012A3.24,3.24,0,0,0,4.57,4.859Zm12.273,10.3a3.693,3.693,0,0,1-2.8-1.129,4.19,4.19,0,0,1-1.078-3.02v-.266A5.073,5.073,0,0,1,11.7,8.5a3.748,3.748,0,0,1,1.344-1.547,3.378,3.378,0,0,1,1.871-.559,3.166,3.166,0,0,1,2.563,1.086,4.7,4.7,0,0,1,.914,3.109v.6H12.664a3,3,0,0,0,.73,2.02,2.3,2.3,0,0,0,1.777.77,2.517,2.517,0,0,0,1.3-.312,3.259,3.259,0,0,0,.93-.828l.883.688A3.55,3.55,0,0,1,15.094,15.156Zm-.18-7.578a1.928,1.928,0,0,0-1.469.637A3.1,3.1,0,0,0,12.711,10h4.234V9.891a2.753,2.753,0,0,0-.594-1.707A1.815,1.815,0,0,0,14.914,7.578Zm10.07,5.18a1.064,1.064,0,0,0-.441-.91A4.249,4.249,0,0,0,23,11.289a7.277,7.277,0,0,1-1.742-.562,2.479,2.479,0,0,1-.953-.781A1.869,1.869,0,0,1,20,8.867a2.193,2.193,0,0,1,.879-1.758,3.432,3.432,0,0,1,2.246-.719,3.532,3.532,0,0,1,2.332.742,2.357,2.357,0,0,1,.895,1.9H24.9a1.3,1.3,0,0,0-.5-1.023,1.888,1.888,0,0,0-1.27-.43,1.976,1.976,0,0,0-1.234.344,1.082,1.082,0,0,0-.445.9.877.877,0,0,0,.414.789,5.1,5.1,0,0,0,1.5.508,7.8,7.8,0,0,1,1.754.578,2.558,2.558,0,0,1,1,.809,1.988,1.988,0,0,1,.324,1.152,2.163,2.163,0,0,1-.906,1.816,3.8,3.8,0,0,1-2.352.684,4.257,4.257,0,0,1-1.8-.359,2.922,2.922,0,0,1-1.223-1,2.42,2.42,0,0,1-.441-1.395h1.445a1.5,1.5,0,0,0,.582,1.152,2.258,2.258,0,0,0,1.434.426,2.331,2.331,0,0,0,1.316-.332A1.02,1.02,0,0,0,24.984,12.758ZM31.7,13.977a2.082,2.082,0,0,0,1.352-.469,1.649,1.649,0,0,0,.641-1.172h1.367a2.621,2.621,0,0,1-.5,1.383,3.293,3.293,0,0,1-1.23,1.047,3.55,3.55,0,0,1-1.629.391A3.482,3.482,0,0,1,28.957,14a4.59,4.59,0,0,1-1.02-3.152v-.242a5.089,5.089,0,0,1,.453-2.2,3.451,3.451,0,0,1,1.3-1.492,3.7,3.7,0,0,1,2-.531,3.39,3.39,0,0,1,2.363.852,3.043,3.043,0,0,1,1,2.211H33.7a1.992,1.992,0,0,0-.621-1.348A1.932,1.932,0,0,0,31.7,7.578a2.023,2.023,0,0,0-1.707.793,3.724,3.724,0,0,0-.605,2.293v.273a3.65,3.65,0,0,0,.6,2.25A2.033,2.033,0,0,0,31.7,13.977Zm9.07-6.133a4.331,4.331,0,0,0-.711-.055A1.9,1.9,0,0,0,38.133,9v6H36.688V6.547h1.406l.023.977a2.251,2.251,0,0,1,2.016-1.133,1.477,1.477,0,0,1,.641.109ZM43.672,15H42.227V6.547h1.445ZM42.109,4.3a.863.863,0,0,1,.215-.594.807.807,0,0,1,.637-.242.819.819,0,0,1,.641.242.854.854,0,0,1,.219.594.826.826,0,0,1-.219.586.834.834,0,0,1-.641.234.821.821,0,0,1-.637-.234A.834.834,0,0,1,42.109,4.3Zm11.031,6.563a5.026,5.026,0,0,1-.891,3.113,2.846,2.846,0,0,1-2.391,1.176,2.947,2.947,0,0,1-2.477-1.133l-.07.977H45.984V3H47.43V7.477a2.93,2.93,0,0,1,2.414-1.086,2.863,2.863,0,0,1,2.418,1.164,5.177,5.177,0,0,1,.879,3.188ZM51.7,10.7a3.906,3.906,0,0,0-.57-2.281,1.888,1.888,0,0,0-1.641-.8A2.122,2.122,0,0,0,47.43,8.945V12.6A2.181,2.181,0,0,0,49.5,13.93a1.878,1.878,0,0,0,1.617-.8A4.153,4.153,0,0,0,51.7,10.7ZM56.531,15H55.086V6.547h1.445ZM54.969,4.3a.863.863,0,0,1,.215-.594.807.807,0,0,1,.637-.242.819.819,0,0,1,.641.242.854.854,0,0,1,.219.594.826.826,0,0,1-.219.586.834.834,0,0,1-.641.234.821.821,0,0,1-.637-.234A.834.834,0,0,1,54.969,4.3ZM62.93,7.844a4.331,4.331,0,0,0-.711-.055A1.9,1.9,0,0,0,60.289,9v6H58.844V6.547H60.25l.023.977a2.251,2.251,0,0,1,2.016-1.133,1.477,1.477,0,0,1,.641.109Zm8.055,5.039,1.969-6.336H74.5L71.1,16.3q-.789,2.109-2.508,2.109l-.273-.023-.539-.1V17.117l.391.031a1.923,1.923,0,0,0,1.145-.3,2.149,2.149,0,0,0,.676-1.086l.32-.859L67.3,6.547h1.578Zm12.156,1.094a2.082,2.082,0,0,0,1.352-.469,1.649,1.649,0,0,0,.641-1.172H86.5a2.621,2.621,0,0,1-.5,1.383,3.293,3.293,0,0,1-1.23,1.047,3.55,3.55,0,0,1-1.629.391A3.482,3.482,0,0,1,80.395,14a4.59,4.59,0,0,1-1.02-3.152v-.242a5.089,5.089,0,0,1,.453-2.2,3.451,3.451,0,0,1,1.3-1.492,3.7,3.7,0,0,1,2-.531,3.39,3.39,0,0,1,2.363.852,3.043,3.043,0,0,1,1,2.211H85.133a1.992,1.992,0,0,0-.621-1.348,1.932,1.932,0,0,0-1.379-.527,2.023,2.023,0,0,0-1.707.793,3.724,3.724,0,0,0-.605,2.293v.273a3.65,3.65,0,0,0,.6,2.25A2.033,2.033,0,0,0,83.141,13.977Zm4.6-3.281a4.993,4.993,0,0,1,.488-2.234A3.643,3.643,0,0,1,89.59,6.93a3.7,3.7,0,0,1,1.988-.539,3.565,3.565,0,0,1,2.793,1.2,4.6,4.6,0,0,1,1.066,3.18v.1a5.036,5.036,0,0,1-.473,2.215,3.589,3.589,0,0,1-1.352,1.527,3.743,3.743,0,0,1-2.02.547,3.556,3.556,0,0,1-2.785-1.2A4.575,4.575,0,0,1,87.742,10.8Zm1.453.172a3.616,3.616,0,0,0,.652,2.258,2.211,2.211,0,0,0,3.5-.012,3.955,3.955,0,0,0,.648-2.418,3.61,3.61,0,0,0-.66-2.254,2.1,2.1,0,0,0-1.754-.863,2.075,2.075,0,0,0-1.727.852A3.925,3.925,0,0,0,89.2,10.867Zm9.414-4.32.039.938a3.122,3.122,0,0,1,2.508-1.094A2.417,2.417,0,0,1,103.57,7.75a3.2,3.2,0,0,1,1.1-.984,3.242,3.242,0,0,1,1.6-.375q2.781,0,2.828,2.945V15h-1.445V9.422a1.941,1.941,0,0,0-.414-1.355,1.823,1.823,0,0,0-1.391-.449,1.916,1.916,0,0,0-1.336.48,1.949,1.949,0,0,0-.617,1.293V15h-1.453V9.461a1.613,1.613,0,0,0-1.8-1.844,1.934,1.934,0,0,0-1.945,1.211V15H97.242V6.547Zm19.8,4.32a5.062,5.062,0,0,1-.883,3.109,2.829,2.829,0,0,1-2.391,1.18,3.1,3.1,0,0,1-2.422-.977v4.07h-1.445V6.547h1.32l.07.938a2.977,2.977,0,0,1,2.453-1.094,2.882,2.882,0,0,1,2.41,1.148,5.117,5.117,0,0,1,.887,3.2Zm-1.445-.164a3.735,3.735,0,0,0-.609-2.258,1.963,1.963,0,0,0-1.672-.828,2.125,2.125,0,0,0-1.969,1.164V12.82a2.129,2.129,0,0,0,1.984,1.156,1.954,1.954,0,0,0,1.652-.824A4.077,4.077,0,0,0,116.969,10.7Zm7.367-2.859a4.331,4.331,0,0,0-.711-.055A1.9,1.9,0,0,0,121.7,9v6H120.25V6.547h1.406l.023.977A2.251,2.251,0,0,1,123.7,6.391a1.477,1.477,0,0,1,.641.109Zm4.688,7.313a3.693,3.693,0,0,1-2.8-1.129,4.19,4.19,0,0,1-1.078-3.02v-.266a5.073,5.073,0,0,1,.48-2.246,3.748,3.748,0,0,1,1.344-1.547,3.378,3.378,0,0,1,1.871-.559,3.166,3.166,0,0,1,2.563,1.086,4.7,4.7,0,0,1,.914,3.109v.6h-5.727a3,3,0,0,0,.73,2.02,2.3,2.3,0,0,0,1.777.77,2.517,2.517,0,0,0,1.3-.312,3.258,3.258,0,0,0,.93-.828l.883.688A3.55,3.55,0,0,1,129.023,15.156Zm-.18-7.578a1.928,1.928,0,0,0-1.469.637A3.1,3.1,0,0,0,126.641,10h4.234V9.891a2.753,2.753,0,0,0-.594-1.707A1.815,1.815,0,0,0,128.844,7.578Zm6.516-1.031.047,1.063a3.08,3.08,0,0,1,2.531-1.219q2.68,0,2.7,3.023V15H139.2V9.406a1.946,1.946,0,0,0-.418-1.352,1.675,1.675,0,0,0-1.277-.437,2.086,2.086,0,0,0-1.234.375,2.546,2.546,0,0,0-.828.984V15h-1.445V6.547Zm7.109,4.156a4.952,4.952,0,0,1,.922-3.129,3.137,3.137,0,0,1,4.766-.168V3H149.6V15h-1.328l-.07-.906a2.943,2.943,0,0,1-2.414,1.063,2.887,2.887,0,0,1-2.395-1.2,5.008,5.008,0,0,1-.926-3.141Zm1.445.164a3.749,3.749,0,0,0,.594,2.25,1.919,1.919,0,0,0,1.641.813,2.108,2.108,0,0,0,2.008-1.234V8.813a2.125,2.125,0,0,0-1.992-1.2,1.929,1.929,0,0,0-1.656.82A4.128,4.128,0,0,0,143.914,10.867Zm11.438,4.289a3.693,3.693,0,0,1-2.8-1.129,4.19,4.19,0,0,1-1.078-3.02v-.266a5.073,5.073,0,0,1,.48-2.246A3.748,3.748,0,0,1,153.3,6.949a3.378,3.378,0,0,1,1.871-.559,3.166,3.166,0,0,1,2.563,1.086,4.7,4.7,0,0,1,.914,3.109v.6h-5.727a3,3,0,0,0,.73,2.02,2.3,2.3,0,0,0,1.777.77,2.517,2.517,0,0,0,1.3-.312,3.258,3.258,0,0,0,.93-.828l.883.688A3.55,3.55,0,0,1,155.352,15.156Zm-.18-7.578a1.928,1.928,0,0,0-1.469.637A3.1,3.1,0,0,0,152.969,10H157.2V9.891a2.753,2.753,0,0,0-.594-1.707A1.815,1.815,0,0,0,155.172,7.578Zm9.234.266a4.331,4.331,0,0,0-.711-.055A1.9,1.9,0,0,0,161.766,9v6H160.32V6.547h1.406l.023.977a2.251,2.251,0,0,1,2.016-1.133,1.477,1.477,0,0,1,.641.109ZM171.266,15H169.82V3h1.445Zm1.93-4.3a4.993,4.993,0,0,1,.488-2.234,3.642,3.642,0,0,1,1.359-1.531,3.7,3.7,0,0,1,1.988-.539,3.565,3.565,0,0,1,2.793,1.2,4.6,4.6,0,0,1,1.066,3.18v.1a5.036,5.036,0,0,1-.473,2.215,3.589,3.589,0,0,1-1.352,1.527,3.743,3.743,0,0,1-2.02.547,3.556,3.556,0,0,1-2.785-1.2A4.575,4.575,0,0,1,173.2,10.8Zm1.453.172a3.616,3.616,0,0,0,.652,2.258,2.211,2.211,0,0,0,3.5-.012,3.954,3.954,0,0,0,.648-2.418,3.61,3.61,0,0,0-.66-2.254,2.1,2.1,0,0,0-1.754-.863,2.075,2.075,0,0,0-1.727.852A3.925,3.925,0,0,0,174.648,10.867Zm11.664-.164a4.961,4.961,0,0,1,.914-3.152,3.226,3.226,0,0,1,4.82-.152l.063-.852h1.328v11.7h-1.445V14.219a3.033,3.033,0,0,1-2.328.938,2.915,2.915,0,0,1-2.441-1.191,5.072,5.072,0,0,1-.91-3.16Zm1.445.164a3.761,3.761,0,0,0,.613,2.281,1.951,1.951,0,0,0,1.652.828,2.164,2.164,0,0,0,1.969-1.141V8.7a2.171,2.171,0,0,0-1.953-1.117,1.965,1.965,0,0,0-1.664.832A4.094,4.094,0,0,0,187.758,10.867Zm13.219,3.3a3.07,3.07,0,0,1-2.477.992,2.628,2.628,0,0,1-2.059-.785,3.4,3.4,0,0,1-.715-2.324v-5.5h1.445v5.461q0,1.922,1.563,1.922a2.163,2.163,0,0,0,2.2-1.234V6.547h1.445V15h-1.375Zm7.109.992a3.693,3.693,0,0,1-2.8-1.129,4.19,4.19,0,0,1-1.078-3.02v-.266a5.073,5.073,0,0,1,.48-2.246,3.748,3.748,0,0,1,1.344-1.547,3.378,3.378,0,0,1,1.871-.559,3.166,3.166,0,0,1,2.563,1.086,4.7,4.7,0,0,1,.914,3.109v.6h-5.727a3,3,0,0,0,.73,2.02,2.3,2.3,0,0,0,1.777.77,2.517,2.517,0,0,0,1.3-.312,3.258,3.258,0,0,0,.93-.828l.883.688A3.55,3.55,0,0,1,208.086,15.156Zm-.18-7.578a1.928,1.928,0,0,0-1.469.637A3.1,3.1,0,0,0,205.7,10h4.234V9.891a2.753,2.753,0,0,0-.594-1.707A1.815,1.815,0,0,0,207.906,7.578ZM4.6,39.156a3.693,3.693,0,0,1-2.8-1.129,4.19,4.19,0,0,1-1.078-3.02v-.266a5.073,5.073,0,0,1,.48-2.246,3.748,3.748,0,0,1,1.344-1.547,3.378,3.378,0,0,1,1.871-.559,3.166,3.166,0,0,1,2.563,1.086A4.7,4.7,0,0,1,7.9,34.586v.6H2.172a3,3,0,0,0,.73,2.02,2.3,2.3,0,0,0,1.777.77,2.517,2.517,0,0,0,1.3-.312,3.259,3.259,0,0,0,.93-.828l.883.688A3.55,3.55,0,0,1,4.6,39.156Zm-.18-7.578a1.928,1.928,0,0,0-1.469.637A3.1,3.1,0,0,0,2.219,34H6.453v-.109a2.753,2.753,0,0,0-.594-1.707A1.815,1.815,0,0,0,4.422,31.578Zm10.07,5.18a1.064,1.064,0,0,0-.441-.91,4.249,4.249,0,0,0-1.539-.559,7.277,7.277,0,0,1-1.742-.562,2.479,2.479,0,0,1-.953-.781,1.869,1.869,0,0,1-.309-1.078,2.193,2.193,0,0,1,.879-1.758,3.432,3.432,0,0,1,2.246-.719,3.532,3.532,0,0,1,2.332.742,2.357,2.357,0,0,1,.895,1.9H14.406a1.3,1.3,0,0,0-.5-1.023,1.888,1.888,0,0,0-1.27-.43,1.976,1.976,0,0,0-1.234.344,1.082,1.082,0,0,0-.445.9.877.877,0,0,0,.414.789,5.1,5.1,0,0,0,1.5.508,7.8,7.8,0,0,1,1.754.578,2.558,2.558,0,0,1,1,.809,1.988,1.988,0,0,1,.324,1.152,2.163,2.163,0,0,1-.906,1.816,3.8,3.8,0,0,1-2.352.684,4.257,4.257,0,0,1-1.8-.359,2.922,2.922,0,0,1-1.223-1A2.42,2.42,0,0,1,9.219,36.4h1.445a1.5,1.5,0,0,0,.582,1.152,2.258,2.258,0,0,0,1.434.426A2.331,2.331,0,0,0,14,37.645,1.02,1.02,0,0,0,14.492,36.758ZM19.781,28.5v2.047h1.578v1.117H19.781v5.242a1.171,1.171,0,0,0,.211.762.888.888,0,0,0,.719.254,3.5,3.5,0,0,0,.688-.094V39a4.19,4.19,0,0,1-1.109.156,1.8,1.8,0,0,1-1.461-.586,2.517,2.517,0,0,1-.492-1.664V31.664H16.8V30.547h1.539V28.5ZM28.266,39a3.036,3.036,0,0,1-.2-.891,3.225,3.225,0,0,1-2.406,1.047,2.984,2.984,0,0,1-2.051-.707,2.287,2.287,0,0,1-.8-1.793,2.39,2.39,0,0,1,1-2.051,4.733,4.733,0,0,1,2.824-.73h1.406v-.664A1.623,1.623,0,0,0,27.586,32a1.821,1.821,0,0,0-1.336-.449,2.108,2.108,0,0,0-1.3.391,1.151,1.151,0,0,0-.523.945H22.977a2,2,0,0,1,.449-1.223,3.066,3.066,0,0,1,1.219-.934,4.1,4.1,0,0,1,1.691-.344,3.342,3.342,0,0,1,2.289.73,2.635,2.635,0,0,1,.859,2.012v3.891a4.757,4.757,0,0,0,.3,1.852V39Zm-2.4-1.1a2.54,2.54,0,0,0,1.289-.352,2.127,2.127,0,0,0,.883-.914V34.9H26.906q-2.656,0-2.656,1.555a1.316,1.316,0,0,0,.453,1.063A1.742,1.742,0,0,0,25.867,37.9ZM27.2,27h1.75l-2.094,2.3H25.7Zm15.648,7.867a5.062,5.062,0,0,1-.883,3.109,2.829,2.829,0,0,1-2.391,1.18,3.1,3.1,0,0,1-2.422-.977v4.07H35.711v-11.7h1.32l.07.938a2.977,2.977,0,0,1,2.453-1.094,2.882,2.882,0,0,1,2.41,1.148,5.117,5.117,0,0,1,.887,3.2ZM41.406,34.7a3.735,3.735,0,0,0-.609-2.258,1.963,1.963,0,0,0-1.672-.828,2.125,2.125,0,0,0-1.969,1.164V36.82a2.129,2.129,0,0,0,1.984,1.156,1.954,1.954,0,0,0,1.652-.824A4.077,4.077,0,0,0,41.406,34.7Zm8.5,4.3a3.036,3.036,0,0,1-.2-.891A3.225,3.225,0,0,1,47.3,39.156a2.984,2.984,0,0,1-2.051-.707,2.287,2.287,0,0,1-.8-1.793,2.39,2.39,0,0,1,1-2.051,4.733,4.733,0,0,1,2.824-.73H49.68v-.664A1.623,1.623,0,0,0,49.227,32a1.821,1.821,0,0,0-1.336-.449,2.107,2.107,0,0,0-1.3.391,1.151,1.151,0,0,0-.523.945H44.617a2,2,0,0,1,.449-1.223,3.066,3.066,0,0,1,1.219-.934,4.1,4.1,0,0,1,1.691-.344,3.342,3.342,0,0,1,2.289.73,2.635,2.635,0,0,1,.859,2.012v3.891a4.757,4.757,0,0,0,.3,1.852V39Zm-2.4-1.1a2.54,2.54,0,0,0,1.289-.352,2.127,2.127,0,0,0,.883-.914V34.9H48.547q-2.656,0-2.656,1.555a1.316,1.316,0,0,0,.453,1.063A1.742,1.742,0,0,0,47.508,37.9Zm10.8-1.141a1.064,1.064,0,0,0-.441-.91,4.249,4.249,0,0,0-1.539-.559,7.277,7.277,0,0,1-1.742-.562,2.479,2.479,0,0,1-.953-.781,1.869,1.869,0,0,1-.309-1.078,2.193,2.193,0,0,1,.879-1.758,3.432,3.432,0,0,1,2.246-.719,3.532,3.532,0,0,1,2.332.742,2.357,2.357,0,0,1,.895,1.9H58.227a1.3,1.3,0,0,0-.5-1.023,1.888,1.888,0,0,0-1.27-.43,1.976,1.976,0,0,0-1.234.344,1.082,1.082,0,0,0-.445.9.877.877,0,0,0,.414.789,5.1,5.1,0,0,0,1.5.508,7.8,7.8,0,0,1,1.754.578,2.558,2.558,0,0,1,1,.809,1.988,1.988,0,0,1,.324,1.152,2.163,2.163,0,0,1-.906,1.816,3.8,3.8,0,0,1-2.352.684,4.257,4.257,0,0,1-1.8-.359,2.922,2.922,0,0,1-1.223-1,2.42,2.42,0,0,1-.441-1.395h1.445a1.5,1.5,0,0,0,.582,1.152,2.258,2.258,0,0,0,1.434.426,2.331,2.331,0,0,0,1.316-.332A1.02,1.02,0,0,0,58.313,36.758ZM66.859,39a3.036,3.036,0,0,1-.2-.891,3.225,3.225,0,0,1-2.406,1.047,2.984,2.984,0,0,1-2.051-.707,2.287,2.287,0,0,1-.8-1.793,2.39,2.39,0,0,1,1-2.051,4.733,4.733,0,0,1,2.824-.73h1.406v-.664A1.623,1.623,0,0,0,66.18,32a1.821,1.821,0,0,0-1.336-.449,2.107,2.107,0,0,0-1.3.391,1.151,1.151,0,0,0-.523.945H61.57a2,2,0,0,1,.449-1.223,3.066,3.066,0,0,1,1.219-.934,4.1,4.1,0,0,1,1.691-.344,3.342,3.342,0,0,1,2.289.73,2.635,2.635,0,0,1,.859,2.012v3.891a4.757,4.757,0,0,0,.3,1.852V39Zm-2.4-1.1a2.54,2.54,0,0,0,1.289-.352,2.127,2.127,0,0,0,.883-.914V34.9H65.5q-2.656,0-2.656,1.555a1.316,1.316,0,0,0,.453,1.063A1.742,1.742,0,0,0,64.461,37.9Zm7.25-7.352.047,1.063a3.08,3.08,0,0,1,2.531-1.219q2.68,0,2.7,3.023V39H75.547V33.406a1.946,1.946,0,0,0-.418-1.352,1.675,1.675,0,0,0-1.277-.437,2.086,2.086,0,0,0-1.234.375,2.546,2.546,0,0,0-.828.984V39H70.344V30.547ZM78.82,34.7a4.952,4.952,0,0,1,.922-3.129,3.137,3.137,0,0,1,4.766-.168V27h1.445V39H84.625l-.07-.906a2.943,2.943,0,0,1-2.414,1.063,2.887,2.887,0,0,1-2.395-1.2,5.008,5.008,0,0,1-.926-3.141Zm1.445.164a3.749,3.749,0,0,0,.594,2.25,1.92,1.92,0,0,0,1.641.813A2.108,2.108,0,0,0,84.508,36.7V32.813a2.125,2.125,0,0,0-1.992-1.2,1.929,1.929,0,0,0-1.656.82A4.128,4.128,0,0,0,80.266,34.867Zm7.547-.172a4.993,4.993,0,0,1,.488-2.234A3.643,3.643,0,0,1,89.66,30.93a3.7,3.7,0,0,1,1.988-.539,3.565,3.565,0,0,1,2.793,1.2,4.6,4.6,0,0,1,1.066,3.18v.1a5.036,5.036,0,0,1-.473,2.215,3.589,3.589,0,0,1-1.352,1.527,3.743,3.743,0,0,1-2.02.547,3.556,3.556,0,0,1-2.785-1.2A4.575,4.575,0,0,1,87.813,34.8Zm1.453.172a3.616,3.616,0,0,0,.652,2.258,2.211,2.211,0,0,0,3.5-.012,3.955,3.955,0,0,0,.648-2.418,3.61,3.61,0,0,0-.66-2.254,2.1,2.1,0,0,0-1.754-.863,2.075,2.075,0,0,0-1.727.852A3.925,3.925,0,0,0,89.266,34.867Zm8.086,3.375a.905.905,0,0,1,.223-.625.848.848,0,0,1,.668-.25.874.874,0,0,1,.676.25.887.887,0,0,1,.23.625.839.839,0,0,1-.23.6.89.89,0,0,1-.676.242.8.8,0,0,1-.891-.844Zm8.063.758V27.625H109.4a5.232,5.232,0,0,1,3.141.793,2.712,2.712,0,0,1,1.07,2.324,2.57,2.57,0,0,1-.43,1.473,2.482,2.482,0,0,1-1.2.934,2.4,2.4,0,0,1,1.379.883,2.61,2.61,0,0,1,.5,1.625,3,3,0,0,1-1.047,2.484,4.713,4.713,0,0,1-2.984.859Zm2.344-4.953v3.07h2.008a1.938,1.938,0,0,0,1.293-.395,1.353,1.353,0,0,0,.465-1.09,1.428,1.428,0,0,0-1.617-1.586Zm0-1.656h1.734q1.773-.031,1.773-1.414a1.307,1.307,0,0,0-.449-1.113,2.363,2.363,0,0,0-1.418-.34h-1.641ZM117.859,39h-2.266V30.547h2.266Zm-2.4-10.641a1.112,1.112,0,0,1,.34-.836,1.465,1.465,0,0,1,1.848,0,1.193,1.193,0,0,1,0,1.68,1.448,1.448,0,0,1-1.836,0A1.108,1.108,0,0,1,115.461,28.359Zm3.93,6.352a4.954,4.954,0,0,1,.926-3.133,3,3,0,0,1,2.5-1.187,2.631,2.631,0,0,1,2.164.953l.094-.8h2.047v8.172a3.613,3.613,0,0,1-.5,1.93A3.236,3.236,0,0,1,125.2,41.9a4.985,4.985,0,0,1-2.141.43,4.635,4.635,0,0,1-1.812-.371A3.217,3.217,0,0,1,119.906,41l1-1.375a2.645,2.645,0,0,0,2.047.945,1.936,1.936,0,0,0,1.4-.48,1.8,1.8,0,0,0,.5-1.363v-.453a2.612,2.612,0,0,1-2.055.883,2.992,2.992,0,0,1-2.465-1.191,4.953,4.953,0,0,1-.941-3.16Zm2.258.164a3.076,3.076,0,0,0,.461,1.8,1.467,1.467,0,0,0,1.266.652,1.568,1.568,0,0,0,1.477-.773V33a1.565,1.565,0,0,0-1.461-.773,1.476,1.476,0,0,0-1.277.664A3.467,3.467,0,0,0,121.648,34.875ZM132.984,39V27.625h3.5a5.315,5.315,0,0,1,2.684.676,4.712,4.712,0,0,1,1.848,1.922,5.928,5.928,0,0,1,.664,2.832v.523a5.945,5.945,0,0,1-.652,2.82,4.672,4.672,0,0,1-1.84,1.914,5.355,5.355,0,0,1-2.68.688Zm2.344-9.477v7.594h1.133a2.545,2.545,0,0,0,2.1-.9,4.06,4.06,0,0,0,.742-2.57v-.6a4.124,4.124,0,0,0-.719-2.629,2.537,2.537,0,0,0-2.1-.895ZM148.133,39a2.507,2.507,0,0,1-.227-.758,2.732,2.732,0,0,1-2.133.914,3,3,0,0,1-2.059-.719,2.312,2.312,0,0,1-.816-1.812,2.389,2.389,0,0,1,1-2.062,4.915,4.915,0,0,1,2.879-.727h1.039v-.484a1.393,1.393,0,0,0-.3-.937,1.183,1.183,0,0,0-.949-.352,1.345,1.345,0,0,0-.895.273.929.929,0,0,0-.324.75h-2.258a2.268,2.268,0,0,1,.453-1.359,3,3,0,0,1,1.281-.98,4.669,4.669,0,0,1,1.859-.355,3.689,3.689,0,0,1,2.48.785,2.747,2.747,0,0,1,.918,2.207v3.664a4.041,4.041,0,0,0,.336,1.82V39Zm-1.867-1.57a1.945,1.945,0,0,0,.922-.223,1.462,1.462,0,0,0,.625-.6V35.156h-.844q-1.7,0-1.8,1.172l-.008.133a.9.9,0,0,0,.3.7A1.153,1.153,0,0,0,146.266,37.43Zm8.25-8.961v2.078h1.445V32.2h-1.445v4.219a1.007,1.007,0,0,0,.18.672.9.9,0,0,0,.688.2,3.6,3.6,0,0,0,.664-.055v1.711a4.648,4.648,0,0,1-1.367.2,2.156,2.156,0,0,1-2.422-2.4V32.2h-1.234V30.547h1.234V28.469ZM162.117,39a2.507,2.507,0,0,1-.227-.758,2.732,2.732,0,0,1-2.133.914,3,3,0,0,1-2.059-.719,2.312,2.312,0,0,1-.816-1.812,2.389,2.389,0,0,1,1-2.062,4.915,4.915,0,0,1,2.879-.727H161.8v-.484a1.393,1.393,0,0,0-.3-.937,1.183,1.183,0,0,0-.949-.352,1.345,1.345,0,0,0-.895.273.929.929,0,0,0-.324.75H157.07a2.268,2.268,0,0,1,.453-1.359,3,3,0,0,1,1.281-.98,4.669,4.669,0,0,1,1.859-.355,3.689,3.689,0,0,1,2.48.785,2.747,2.747,0,0,1,.918,2.207v3.664a4.041,4.041,0,0,0,.336,1.82V39Zm-1.867-1.57a1.945,1.945,0,0,0,.922-.223,1.462,1.462,0,0,0,.625-.6V35.156h-.844q-1.7,0-1.8,1.172l-.008.133a.9.9,0,0,0,.3.7A1.153,1.153,0,0,0,160.25,37.43Zm5.664.461a1.137,1.137,0,0,1,.363-.875,1.412,1.412,0,0,1,1.828,0,1.137,1.137,0,0,1,.363.875,1.121,1.121,0,0,1-.359.863,1.435,1.435,0,0,1-1.836,0A1.121,1.121,0,0,1,165.914,37.891Z" transform="translate(301 2669)" fill="#12263f"/>
    <path id="Trazado_125906" data-name="Trazado 125906" d="M2.828,13.773H8.219V15H1.32V3.625H2.828ZM9.32,10.7a4.993,4.993,0,0,1,.488-2.234A3.643,3.643,0,0,1,11.168,6.93a3.7,3.7,0,0,1,1.988-.539,3.565,3.565,0,0,1,2.793,1.2,4.6,4.6,0,0,1,1.066,3.18v.1a5.036,5.036,0,0,1-.473,2.215,3.589,3.589,0,0,1-1.352,1.527,3.743,3.743,0,0,1-2.02.547,3.556,3.556,0,0,1-2.785-1.2A4.575,4.575,0,0,1,9.32,10.8Zm1.453.172a3.616,3.616,0,0,0,.652,2.258,2.211,2.211,0,0,0,3.5-.012A3.955,3.955,0,0,0,15.57,10.7a3.61,3.61,0,0,0-.66-2.254,2.1,2.1,0,0,0-1.754-.863,2.075,2.075,0,0,0-1.727.852A3.925,3.925,0,0,0,10.773,10.867ZM22.438,10.7a4.961,4.961,0,0,1,.914-3.152,3.226,3.226,0,0,1,4.82-.152l.063-.852h1.328v11.7H28.117V14.219a3.033,3.033,0,0,1-2.328.938,2.915,2.915,0,0,1-2.441-1.191,5.072,5.072,0,0,1-.91-3.16Zm1.445.164a3.761,3.761,0,0,0,.613,2.281,1.951,1.951,0,0,0,1.652.828,2.164,2.164,0,0,0,1.969-1.141V8.7a2.171,2.171,0,0,0-1.953-1.117A1.965,1.965,0,0,0,24.5,8.41,4.094,4.094,0,0,0,23.883,10.867Zm13.219,3.3a3.07,3.07,0,0,1-2.477.992,2.628,2.628,0,0,1-2.059-.785,3.4,3.4,0,0,1-.715-2.324v-5.5H33.3v5.461q0,1.922,1.563,1.922a2.163,2.163,0,0,0,2.2-1.234V6.547h1.445V15H37.133Zm7.109.992a3.693,3.693,0,0,1-2.8-1.129,4.19,4.19,0,0,1-1.078-3.02v-.266a5.073,5.073,0,0,1,.48-2.246A3.748,3.748,0,0,1,42.16,6.949a3.378,3.378,0,0,1,1.871-.559,3.166,3.166,0,0,1,2.563,1.086,4.7,4.7,0,0,1,.914,3.109v.6H41.781a3,3,0,0,0,.73,2.02,2.3,2.3,0,0,0,1.777.77,2.517,2.517,0,0,0,1.3-.312,3.259,3.259,0,0,0,.93-.828l.883.688A3.55,3.55,0,0,1,44.211,15.156Zm-.18-7.578a1.928,1.928,0,0,0-1.469.637A3.1,3.1,0,0,0,41.828,10h4.234V9.891a2.753,2.753,0,0,0-.594-1.707A1.815,1.815,0,0,0,44.031,7.578Zm14.031,5.18a1.064,1.064,0,0,0-.441-.91,4.249,4.249,0,0,0-1.539-.559,7.277,7.277,0,0,1-1.742-.562,2.479,2.479,0,0,1-.953-.781,1.869,1.869,0,0,1-.309-1.078,2.193,2.193,0,0,1,.879-1.758A3.432,3.432,0,0,1,56.2,6.391a3.532,3.532,0,0,1,2.332.742,2.357,2.357,0,0,1,.895,1.9H57.977a1.3,1.3,0,0,0-.5-1.023,1.888,1.888,0,0,0-1.27-.43,1.976,1.976,0,0,0-1.234.344,1.082,1.082,0,0,0-.445.9.877.877,0,0,0,.414.789,5.1,5.1,0,0,0,1.5.508,7.8,7.8,0,0,1,1.754.578,2.558,2.558,0,0,1,1,.809,1.988,1.988,0,0,1,.324,1.152,2.163,2.163,0,0,1-.906,1.816,3.8,3.8,0,0,1-2.352.684,4.257,4.257,0,0,1-1.8-.359,2.922,2.922,0,0,1-1.223-1,2.42,2.42,0,0,1-.441-1.395h1.445a1.5,1.5,0,0,0,.582,1.152,2.258,2.258,0,0,0,1.434.426,2.331,2.331,0,0,0,1.316-.332A1.02,1.02,0,0,0,58.063,12.758Zm6.836,2.4a3.693,3.693,0,0,1-2.8-1.129,4.19,4.19,0,0,1-1.078-3.02v-.266A5.073,5.073,0,0,1,61.5,8.5a3.748,3.748,0,0,1,1.344-1.547,3.378,3.378,0,0,1,1.871-.559,3.166,3.166,0,0,1,2.563,1.086,4.7,4.7,0,0,1,.914,3.109v.6H62.469a3,3,0,0,0,.73,2.02,2.3,2.3,0,0,0,1.777.77,2.517,2.517,0,0,0,1.3-.312,3.259,3.259,0,0,0,.93-.828l.883.688A3.55,3.55,0,0,1,64.9,15.156Zm-.18-7.578a1.928,1.928,0,0,0-1.469.637A3.1,3.1,0,0,0,62.516,10H66.75V9.891a2.753,2.753,0,0,0-.594-1.707A1.815,1.815,0,0,0,64.719,7.578ZM73.477,10.7A4.952,4.952,0,0,1,74.4,7.574a3.137,3.137,0,0,1,4.766-.168V3h1.445V15H79.281l-.07-.906A2.943,2.943,0,0,1,76.8,15.156a2.887,2.887,0,0,1-2.395-1.2,5.008,5.008,0,0,1-.926-3.141Zm1.445.164a3.749,3.749,0,0,0,.594,2.25,1.92,1.92,0,0,0,1.641.813A2.108,2.108,0,0,0,79.164,12.7V8.813a2.125,2.125,0,0,0-1.992-1.2,1.929,1.929,0,0,0-1.656.82A4.128,4.128,0,0,0,74.922,10.867Zm11.438,4.289a3.693,3.693,0,0,1-2.8-1.129,4.19,4.19,0,0,1-1.078-3.02v-.266a5.073,5.073,0,0,1,.48-2.246,3.748,3.748,0,0,1,1.344-1.547,3.378,3.378,0,0,1,1.871-.559,3.166,3.166,0,0,1,2.563,1.086,4.7,4.7,0,0,1,.914,3.109v.6H83.93a3,3,0,0,0,.73,2.02,2.3,2.3,0,0,0,1.777.77,2.517,2.517,0,0,0,1.3-.312,3.259,3.259,0,0,0,.93-.828l.883.688A3.55,3.55,0,0,1,86.359,15.156Zm-.18-7.578a1.928,1.928,0,0,0-1.469.637A3.1,3.1,0,0,0,83.977,10h4.234V9.891a2.753,2.753,0,0,0-.594-1.707A1.815,1.815,0,0,0,86.18,7.578Zm12.3,3.289a5.026,5.026,0,0,1-.891,3.113A2.846,2.846,0,0,1,95.2,15.156a2.947,2.947,0,0,1-2.477-1.133l-.07.977H91.328V3h1.445V7.477a2.93,2.93,0,0,1,2.414-1.086,2.863,2.863,0,0,1,2.418,1.164,5.177,5.177,0,0,1,.879,3.188ZM97.039,10.7a3.906,3.906,0,0,0-.57-2.281,1.888,1.888,0,0,0-1.641-.8,2.122,2.122,0,0,0-2.055,1.328V12.6a2.181,2.181,0,0,0,2.07,1.328,1.878,1.878,0,0,0,1.617-.8A4.153,4.153,0,0,0,97.039,10.7Zm6.773,4.453a3.693,3.693,0,0,1-2.8-1.129,4.19,4.19,0,0,1-1.078-3.02v-.266a5.073,5.073,0,0,1,.48-2.246,3.748,3.748,0,0,1,1.344-1.547,3.378,3.378,0,0,1,1.871-.559A3.166,3.166,0,0,1,106.2,7.477a4.7,4.7,0,0,1,.914,3.109v.6h-5.727a3,3,0,0,0,.73,2.02,2.3,2.3,0,0,0,1.777.77,2.517,2.517,0,0,0,1.3-.312,3.259,3.259,0,0,0,.93-.828l.883.688A3.55,3.55,0,0,1,103.813,15.156Zm-.18-7.578a1.928,1.928,0,0,0-1.469.637A3.1,3.1,0,0,0,101.43,10h4.234V9.891a2.753,2.753,0,0,0-.594-1.707A1.815,1.815,0,0,0,103.633,7.578Zm10.555-.008a3.073,3.073,0,0,1,2.5-1.18q2.68,0,2.7,3.023V15h-1.445V9.406a1.946,1.946,0,0,0-.418-1.352,1.675,1.675,0,0,0-1.277-.437,2.086,2.086,0,0,0-1.234.375,2.546,2.546,0,0,0-.828.984V15h-1.445V3h1.445ZM126.773,15a3.036,3.036,0,0,1-.2-.891,3.225,3.225,0,0,1-2.406,1.047,2.984,2.984,0,0,1-2.051-.707,2.288,2.288,0,0,1-.8-1.793,2.39,2.39,0,0,1,1-2.051,4.733,4.733,0,0,1,2.824-.73h1.406V9.211A1.623,1.623,0,0,0,126.094,8a1.821,1.821,0,0,0-1.336-.449,2.108,2.108,0,0,0-1.3.391,1.151,1.151,0,0,0-.523.945h-1.453a2,2,0,0,1,.449-1.223,3.066,3.066,0,0,1,1.219-.934,4.1,4.1,0,0,1,1.691-.344,3.342,3.342,0,0,1,2.289.73,2.635,2.635,0,0,1,.859,2.012v3.891a4.757,4.757,0,0,0,.3,1.852V15Zm-2.4-1.1a2.54,2.54,0,0,0,1.289-.352,2.127,2.127,0,0,0,.883-.914V10.9h-1.133q-2.656,0-2.656,1.555a1.316,1.316,0,0,0,.453,1.063A1.742,1.742,0,0,0,124.375,13.9Zm9.273.078A2.082,2.082,0,0,0,135,13.508a1.649,1.649,0,0,0,.641-1.172h1.367a2.621,2.621,0,0,1-.5,1.383,3.293,3.293,0,0,1-1.23,1.047,3.55,3.55,0,0,1-1.629.391A3.482,3.482,0,0,1,130.9,14a4.59,4.59,0,0,1-1.02-3.152v-.242a5.089,5.089,0,0,1,.453-2.2,3.451,3.451,0,0,1,1.3-1.492,3.7,3.7,0,0,1,2-.531A3.39,3.39,0,0,1,136,7.242a3.043,3.043,0,0,1,1,2.211h-1.367a1.992,1.992,0,0,0-.621-1.348,1.932,1.932,0,0,0-1.379-.527,2.023,2.023,0,0,0-1.707.793,3.724,3.724,0,0,0-.605,2.293v.273a3.65,3.65,0,0,0,.6,2.25A2.033,2.033,0,0,0,133.648,13.977Zm8.492,1.18a3.693,3.693,0,0,1-2.8-1.129,4.19,4.19,0,0,1-1.078-3.02v-.266a5.073,5.073,0,0,1,.48-2.246,3.748,3.748,0,0,1,1.344-1.547,3.378,3.378,0,0,1,1.871-.559,3.166,3.166,0,0,1,2.563,1.086,4.7,4.7,0,0,1,.914,3.109v.6h-5.727a3,3,0,0,0,.73,2.02,2.3,2.3,0,0,0,1.777.77,2.517,2.517,0,0,0,1.3-.312,3.258,3.258,0,0,0,.93-.828l.883.688A3.55,3.55,0,0,1,142.141,15.156Zm-.18-7.578a1.928,1.928,0,0,0-1.469.637A3.1,3.1,0,0,0,139.758,10h4.234V9.891a2.753,2.753,0,0,0-.594-1.707A1.815,1.815,0,0,0,141.961,7.578Zm9.234.266a4.331,4.331,0,0,0-.711-.055A1.9,1.9,0,0,0,148.555,9v6h-1.445V6.547h1.406l.023.977a2.251,2.251,0,0,1,2.016-1.133,1.477,1.477,0,0,1,.641.109Zm8.8,7.313a3.693,3.693,0,0,1-2.8-1.129,4.19,4.19,0,0,1-1.078-3.02v-.266A5.073,5.073,0,0,1,156.6,8.5a3.748,3.748,0,0,1,1.344-1.547,3.378,3.378,0,0,1,1.871-.559,3.166,3.166,0,0,1,2.563,1.086,4.7,4.7,0,0,1,.914,3.109v.6h-5.727a3,3,0,0,0,.73,2.02,2.3,2.3,0,0,0,1.777.77,2.517,2.517,0,0,0,1.3-.312,3.258,3.258,0,0,0,.93-.828l.883.688A3.55,3.55,0,0,1,159.992,15.156Zm-.18-7.578a1.928,1.928,0,0,0-1.469.637A3.1,3.1,0,0,0,157.609,10h4.234V9.891a2.753,2.753,0,0,0-.594-1.707A1.815,1.815,0,0,0,159.813,7.578Zm6.516-1.031.047,1.063a3.08,3.08,0,0,1,2.531-1.219q2.68,0,2.7,3.023V15h-1.445V9.406a1.946,1.946,0,0,0-.418-1.352,1.675,1.675,0,0,0-1.277-.437,2.086,2.086,0,0,0-1.234.375,2.546,2.546,0,0,0-.828.984V15h-1.445V6.547Zm14.93,8.609a3.693,3.693,0,0,1-2.8-1.129,4.19,4.19,0,0,1-1.078-3.02v-.266a5.073,5.073,0,0,1,.48-2.246,3.748,3.748,0,0,1,1.344-1.547,3.378,3.378,0,0,1,1.871-.559,3.166,3.166,0,0,1,2.563,1.086,4.7,4.7,0,0,1,.914,3.109v.6h-5.727a3,3,0,0,0,.73,2.02,2.3,2.3,0,0,0,1.777.77,2.517,2.517,0,0,0,1.3-.312,3.258,3.258,0,0,0,.93-.828l.883.688A3.55,3.55,0,0,1,181.258,15.156Zm-.18-7.578a1.928,1.928,0,0,0-1.469.637A3.1,3.1,0,0,0,178.875,10h4.234V9.891a2.753,2.753,0,0,0-.594-1.707A1.815,1.815,0,0,0,181.078,7.578ZM187.8,15h-1.445V3H187.8Zm6.984,0V7.664h-1.336V6.547h1.336V5.68a2.878,2.878,0,0,1,.727-2.1,2.745,2.745,0,0,1,2.055-.742,3.793,3.793,0,0,1,.992.133l-.078,1.172a4.151,4.151,0,0,0-.781-.07,1.413,1.413,0,0,0-1.086.41,1.66,1.66,0,0,0-.383,1.176v.891h1.8V7.664h-1.8V15Zm10.063-.836a3.07,3.07,0,0,1-2.477.992,2.628,2.628,0,0,1-2.059-.785,3.4,3.4,0,0,1-.715-2.324v-5.5h1.445v5.461q0,1.922,1.563,1.922a2.163,2.163,0,0,0,2.2-1.234V6.547h1.445V15h-1.375ZM210.406,4.5V6.547h1.578V7.664h-1.578v5.242a1.171,1.171,0,0,0,.211.762.888.888,0,0,0,.719.254,3.5,3.5,0,0,0,.688-.094V15a4.19,4.19,0,0,1-1.109.156,1.8,1.8,0,0,1-1.461-.586,2.517,2.517,0,0,1-.492-1.664V7.664h-1.539V6.547h1.539V4.5Zm8.484,9.664a3.07,3.07,0,0,1-2.477.992,2.628,2.628,0,0,1-2.059-.785,3.4,3.4,0,0,1-.715-2.324v-5.5h1.445v5.461q0,1.922,1.563,1.922a2.163,2.163,0,0,0,2.2-1.234V6.547H220.3V15h-1.375Zm7.688-6.32a4.331,4.331,0,0,0-.711-.055A1.9,1.9,0,0,0,223.938,9v6h-1.445V6.547H223.9l.023.977a2.251,2.251,0,0,1,2.016-1.133,1.477,1.477,0,0,1,.641.109Zm.789,2.852a4.993,4.993,0,0,1,.488-2.234,3.642,3.642,0,0,1,1.359-1.531,3.7,3.7,0,0,1,1.988-.539A3.565,3.565,0,0,1,234,7.586a4.6,4.6,0,0,1,1.066,3.18v.1a5.036,5.036,0,0,1-.473,2.215,3.589,3.589,0,0,1-1.352,1.527,3.743,3.743,0,0,1-2.02.547,3.556,3.556,0,0,1-2.785-1.2,4.575,4.575,0,0,1-1.066-3.164Zm1.453.172a3.616,3.616,0,0,0,.652,2.258,2.211,2.211,0,0,0,3.5-.012,3.954,3.954,0,0,0,.648-2.418,3.61,3.61,0,0,0-.66-2.254,2.1,2.1,0,0,0-1.754-.863,2.075,2.075,0,0,0-1.727.852A3.925,3.925,0,0,0,228.82,10.867Zm8.086,3.375a.905.905,0,0,1,.223-.625.848.848,0,0,1,.668-.25.874.874,0,0,1,.676.25.887.887,0,0,1,.23.625.839.839,0,0,1-.23.6.89.89,0,0,1-.676.242.8.8,0,0,1-.891-.844ZM9.578,29.523H6.094V39H3.75V29.523H.313v-1.9H9.578Zm4.383,9.633a4.15,4.15,0,0,1-3.027-1.141,4.054,4.054,0,0,1-1.168-3.039v-.219a5.106,5.106,0,0,1,.492-2.277,3.612,3.612,0,0,1,1.395-1.547,3.914,3.914,0,0,1,2.059-.543,3.508,3.508,0,0,1,2.73,1.094,4.444,4.444,0,0,1,1,3.1v.922H12.055a2.1,2.1,0,0,0,.66,1.328,2,2,0,0,0,1.395.5,2.437,2.437,0,0,0,2.039-.945l1.109,1.242a3.389,3.389,0,0,1-1.375,1.121A4.511,4.511,0,0,1,13.961,39.156ZM13.7,32.219a1.414,1.414,0,0,0-1.09.453,2.341,2.341,0,0,0-.535,1.3h3.141v-.18a1.669,1.669,0,0,0-.406-1.16A1.459,1.459,0,0,0,13.7,32.219Zm.2-5.219h2.461L14.2,29.422H12.367Zm8.328,10.336a1.481,1.481,0,0,0,1.016-.344,1.2,1.2,0,0,0,.406-.914h2.117a2.9,2.9,0,0,1-.469,1.574,3.093,3.093,0,0,1-1.262,1.109,3.949,3.949,0,0,1-1.77.395A3.67,3.67,0,0,1,19.414,38a4.56,4.56,0,0,1-1.047-3.184v-.148a4.508,4.508,0,0,1,1.039-3.117,3.627,3.627,0,0,1,2.852-1.164,3.555,3.555,0,0,1,2.543.9,3.2,3.2,0,0,1,.973,2.4H23.656a1.539,1.539,0,0,0-.406-1.066,1.513,1.513,0,0,0-2.223.164,3.324,3.324,0,0,0-.4,1.863v.234a3.366,3.366,0,0,0,.4,1.875A1.378,1.378,0,0,0,22.234,37.336Zm6.906-6.789.07.977a2.951,2.951,0,0,1,2.43-1.133,2.453,2.453,0,0,1,2,.789,3.682,3.682,0,0,1,.672,2.359V39H32.055V33.594a1.465,1.465,0,0,0-.312-1.043,1.4,1.4,0,0,0-1.039-.324,1.553,1.553,0,0,0-1.43.813V39H27.016V30.547ZM38.406,39H36.141V30.547h2.266Zm-2.4-10.641a1.112,1.112,0,0,1,.34-.836,1.465,1.465,0,0,1,1.848,0,1.193,1.193,0,0,1,0,1.68,1.448,1.448,0,0,1-1.836,0A1.108,1.108,0,0,1,36.008,28.359Zm7.773,8.977a1.481,1.481,0,0,0,1.016-.344,1.2,1.2,0,0,0,.406-.914H47.32a2.9,2.9,0,0,1-.469,1.574,3.093,3.093,0,0,1-1.262,1.109,3.949,3.949,0,0,1-1.77.395A3.67,3.67,0,0,1,40.961,38a4.56,4.56,0,0,1-1.047-3.184v-.148a4.508,4.508,0,0,1,1.039-3.117A3.627,3.627,0,0,1,43.8,30.391a3.555,3.555,0,0,1,2.543.9,3.2,3.2,0,0,1,.973,2.4H45.2a1.539,1.539,0,0,0-.406-1.066,1.513,1.513,0,0,0-2.223.164,3.324,3.324,0,0,0-.4,1.863v.234a3.366,3.366,0,0,0,.4,1.875A1.378,1.378,0,0,0,43.781,37.336ZM53.508,39a2.507,2.507,0,0,1-.227-.758,2.732,2.732,0,0,1-2.133.914,3,3,0,0,1-2.059-.719,2.312,2.312,0,0,1-.816-1.812,2.389,2.389,0,0,1,1-2.062,4.915,4.915,0,0,1,2.879-.727h1.039v-.484a1.393,1.393,0,0,0-.3-.937,1.183,1.183,0,0,0-.949-.352,1.345,1.345,0,0,0-.895.273.929.929,0,0,0-.324.75H48.461a2.268,2.268,0,0,1,.453-1.359,3,3,0,0,1,1.281-.98,4.669,4.669,0,0,1,1.859-.355,3.689,3.689,0,0,1,2.48.785,2.747,2.747,0,0,1,.918,2.207v3.664a4.041,4.041,0,0,0,.336,1.82V39Zm-1.867-1.57a1.945,1.945,0,0,0,.922-.223,1.462,1.462,0,0,0,.625-.6V35.156h-.844q-1.7,0-1.8,1.172l-.008.133a.9.9,0,0,0,.3.7A1.153,1.153,0,0,0,51.641,37.43Zm10.125-.766a.727.727,0,0,0-.41-.652,4.659,4.659,0,0,0-1.316-.426q-3.016-.633-3.016-2.562a2.323,2.323,0,0,1,.934-1.879,3.766,3.766,0,0,1,2.441-.754,4.053,4.053,0,0,1,2.574.758,2.388,2.388,0,0,1,.965,1.969H61.68a1.092,1.092,0,0,0-.312-.8A1.322,1.322,0,0,0,60.391,32a1.351,1.351,0,0,0-.883.258.814.814,0,0,0-.312.656.7.7,0,0,0,.355.605,3.657,3.657,0,0,0,1.2.4,9.8,9.8,0,0,1,1.422.379,2.336,2.336,0,0,1,1.789,2.273,2.205,2.205,0,0,1-.992,1.871,4.28,4.28,0,0,1-2.562.715,4.47,4.47,0,0,1-1.887-.379,3.166,3.166,0,0,1-1.293-1.039,2.414,2.414,0,0,1-.469-1.426H58.9a1.179,1.179,0,0,0,.445.922,1.766,1.766,0,0,0,1.109.32,1.635,1.635,0,0,0,.98-.246A.766.766,0,0,0,61.766,36.664Zm7.281-1.953a5.094,5.094,0,0,1,.887-3.148,2.877,2.877,0,0,1,2.426-1.172,2.589,2.589,0,0,1,2.039.922V27h2.266V39H74.625l-.109-.9a2.657,2.657,0,0,1-2.172,1.055,2.869,2.869,0,0,1-2.395-1.176A5.258,5.258,0,0,1,69.047,34.711Zm2.258.164a3.328,3.328,0,0,0,.414,1.82,1.349,1.349,0,0,0,1.2.633,1.511,1.511,0,0,0,1.477-.883V33.109a1.489,1.489,0,0,0-1.461-.883Q71.3,32.227,71.3,34.875Zm11,4.281a4.15,4.15,0,0,1-3.027-1.141,4.054,4.054,0,0,1-1.168-3.039v-.219A5.106,5.106,0,0,1,78.6,32.48,3.612,3.612,0,0,1,80,30.934a3.914,3.914,0,0,1,2.059-.543,3.508,3.508,0,0,1,2.73,1.094,4.444,4.444,0,0,1,1,3.1v.922H80.4a2.1,2.1,0,0,0,.66,1.328,2,2,0,0,0,1.395.5,2.437,2.437,0,0,0,2.039-.945L85.6,37.633a3.389,3.389,0,0,1-1.375,1.121A4.511,4.511,0,0,1,82.3,39.156Zm-.258-6.937a1.414,1.414,0,0,0-1.09.453,2.341,2.341,0,0,0-.535,1.3h3.141v-.18a1.669,1.669,0,0,0-.406-1.16A1.459,1.459,0,0,0,82.047,32.219ZM90.7,34.7a5.013,5.013,0,0,1,.484-2.242,3.546,3.546,0,0,1,1.395-1.523,4.069,4.069,0,0,1,2.113-.539,3.849,3.849,0,0,1,2.793,1.047,4.2,4.2,0,0,1,1.207,2.844l.016.578a4.418,4.418,0,0,1-1.086,3.121,4.209,4.209,0,0,1-5.832,0A4.5,4.5,0,0,1,90.7,34.8Zm2.258.164a3.151,3.151,0,0,0,.453,1.84,1.629,1.629,0,0,0,2.578.008,3.448,3.448,0,0,0,.461-2.012,3.12,3.12,0,0,0-.461-1.828,1.5,1.5,0,0,0-1.3-.648,1.475,1.475,0,0,0-1.281.645A3.506,3.506,0,0,0,92.953,34.859Zm14.75-.008a5.07,5.07,0,0,1-.887,3.129,2.843,2.843,0,0,1-2.395,1.176,2.633,2.633,0,0,1-2.07-.891V42.25h-2.258v-11.7h2.094l.078.828a2.654,2.654,0,0,1,2.141-.984,2.862,2.862,0,0,1,2.43,1.156,5.207,5.207,0,0,1,.867,3.188Zm-2.258-.164a3.327,3.327,0,0,0-.418-1.82,1.361,1.361,0,0,0-1.215-.641,1.478,1.478,0,0,0-1.461.813V36.5a1.5,1.5,0,0,0,1.477.836Q105.445,37.336,105.445,34.688Zm6.359-6.219v2.078h1.445V32.2H111.8v4.219a1.007,1.007,0,0,0,.18.672.9.9,0,0,0,.688.2,3.6,3.6,0,0,0,.664-.055v1.711a4.648,4.648,0,0,1-1.367.2,2.156,2.156,0,0,1-2.422-2.4V32.2h-1.234V30.547h1.234V28.469ZM116.891,39h-2.266V30.547h2.266Zm-2.4-10.641a1.112,1.112,0,0,1,.34-.836,1.465,1.465,0,0,1,1.848,0,1.193,1.193,0,0,1,0,1.68,1.448,1.448,0,0,1-1.836,0A1.108,1.108,0,0,1,114.492,28.359Zm6.375,2.188.07.945a2.971,2.971,0,0,1,2.43-1.1,2.255,2.255,0,0,1,2.242,1.289,2.9,2.9,0,0,1,2.539-1.289,2.521,2.521,0,0,1,2.047.8,3.681,3.681,0,0,1,.672,2.41V39H128.6V33.609a1.61,1.61,0,0,0-.281-1.051,1.246,1.246,0,0,0-.992-.332,1.409,1.409,0,0,0-1.406.969l.008,5.8h-2.258V33.617a1.59,1.59,0,0,0-.289-1.062,1.259,1.259,0,0,0-.984-.328,1.463,1.463,0,0,0-1.391.8V39H118.75V30.547ZM134.984,39h-2.266V30.547h2.266Zm-2.4-10.641a1.112,1.112,0,0,1,.34-.836,1.465,1.465,0,0,1,1.848,0,1.193,1.193,0,0,1,0,1.68,1.448,1.448,0,0,1-1.836,0A1.109,1.109,0,0,1,132.586,28.359Zm6.852,8.82h4.133V39h-7.016V37.625l3.977-5.25h-3.859V30.547h6.773v1.336ZM149.883,39a2.507,2.507,0,0,1-.227-.758,2.732,2.732,0,0,1-2.133.914,3,3,0,0,1-2.059-.719,2.312,2.312,0,0,1-.816-1.812,2.389,2.389,0,0,1,1-2.062,4.915,4.915,0,0,1,2.879-.727h1.039v-.484a1.393,1.393,0,0,0-.3-.937,1.183,1.183,0,0,0-.949-.352,1.345,1.345,0,0,0-.895.273.929.929,0,0,0-.324.75h-2.258a2.268,2.268,0,0,1,.453-1.359,3,3,0,0,1,1.281-.98,4.669,4.669,0,0,1,1.859-.355,3.689,3.689,0,0,1,2.48.785,2.747,2.747,0,0,1,.918,2.207v3.664a4.041,4.041,0,0,0,.336,1.82V39Zm-1.867-1.57a1.945,1.945,0,0,0,.922-.223,1.462,1.462,0,0,0,.625-.6V35.156h-.844q-1.7,0-1.8,1.172l-.008.133a.9.9,0,0,0,.3.7A1.153,1.153,0,0,0,148.016,37.43Zm9.063-.094a1.481,1.481,0,0,0,1.016-.344,1.2,1.2,0,0,0,.406-.914h2.117a2.9,2.9,0,0,1-.469,1.574,3.093,3.093,0,0,1-1.262,1.109,3.949,3.949,0,0,1-1.77.395A3.67,3.67,0,0,1,154.258,38a4.56,4.56,0,0,1-1.047-3.184v-.148a4.508,4.508,0,0,1,1.039-3.117,3.627,3.627,0,0,1,2.852-1.164,3.555,3.555,0,0,1,2.543.9,3.2,3.2,0,0,1,.973,2.4H158.5a1.539,1.539,0,0,0-.406-1.066,1.513,1.513,0,0,0-2.223.164,3.324,3.324,0,0,0-.4,1.863v.234a3.366,3.366,0,0,0,.4,1.875A1.378,1.378,0,0,0,157.078,37.336ZM164.289,39h-2.266V30.547h2.266Zm-2.4-10.641a1.112,1.112,0,0,1,.34-.836,1.465,1.465,0,0,1,1.848,0,1.193,1.193,0,0,1,0,1.68,1.448,1.448,0,0,1-1.836,0A1.109,1.109,0,0,1,161.891,28.359ZM165.8,34.7a5.013,5.013,0,0,1,.484-2.242,3.546,3.546,0,0,1,1.395-1.523,4.069,4.069,0,0,1,2.113-.539,3.849,3.849,0,0,1,2.793,1.047,4.2,4.2,0,0,1,1.207,2.844l.016.578a4.418,4.418,0,0,1-1.086,3.121,4.209,4.209,0,0,1-5.832,0A4.5,4.5,0,0,1,165.8,34.8Zm2.258.164a3.151,3.151,0,0,0,.453,1.84,1.629,1.629,0,0,0,2.578.008,3.448,3.448,0,0,0,.461-2.012,3.12,3.12,0,0,0-.461-1.828,1.5,1.5,0,0,0-1.3-.648,1.475,1.475,0,0,0-1.281.645A3.506,3.506,0,0,0,168.055,34.859ZM170.234,27H172.7l-2.164,2.422H168.7Zm7.039,3.547.07.977a2.951,2.951,0,0,1,2.43-1.133,2.453,2.453,0,0,1,2,.789,3.682,3.682,0,0,1,.672,2.359V39h-2.258V33.594a1.465,1.465,0,0,0-.312-1.043,1.4,1.4,0,0,0-1.039-.324,1.553,1.553,0,0,0-1.43.813V39h-2.258V30.547Zm7,7.344a1.137,1.137,0,0,1,.363-.875,1.412,1.412,0,0,1,1.828,0,1.137,1.137,0,0,1,.363.875,1.121,1.121,0,0,1-.359.863,1.435,1.435,0,0,1-1.836,0A1.121,1.121,0,0,1,184.273,37.891Z" transform="translate(1087 2703)" fill="#12263f"/>
    <path id="Trazado_125907" data-name="Trazado 125907" d="M2.82,10.547V15H1.32V3.625h4.2a4.215,4.215,0,0,1,2.926.953A3.231,3.231,0,0,1,9.5,7.1,3.189,3.189,0,0,1,8.465,9.652a4.4,4.4,0,0,1-2.965.895Zm0-1.227h2.7a2.7,2.7,0,0,0,1.844-.566A2.069,2.069,0,0,0,8,7.117a2.138,2.138,0,0,0-.641-1.625A2.528,2.528,0,0,0,5.6,4.859H2.82ZM15.273,7.844a4.331,4.331,0,0,0-.711-.055A1.9,1.9,0,0,0,12.633,9v6H11.188V6.547h1.406l.023.977a2.251,2.251,0,0,1,2.016-1.133,1.477,1.477,0,0,1,.641.109Zm4.688,7.313a3.693,3.693,0,0,1-2.8-1.129,4.19,4.19,0,0,1-1.078-3.02v-.266a5.073,5.073,0,0,1,.48-2.246A3.748,3.748,0,0,1,17.91,6.949a3.378,3.378,0,0,1,1.871-.559,3.166,3.166,0,0,1,2.563,1.086,4.7,4.7,0,0,1,.914,3.109v.6H17.531a3,3,0,0,0,.73,2.02,2.3,2.3,0,0,0,1.777.77,2.517,2.517,0,0,0,1.3-.312,3.259,3.259,0,0,0,.93-.828l.883.688A3.55,3.55,0,0,1,19.961,15.156Zm-.18-7.578a1.928,1.928,0,0,0-1.469.637A3.1,3.1,0,0,0,17.578,10h4.234V9.891a2.753,2.753,0,0,0-.594-1.707A1.815,1.815,0,0,0,19.781,7.578Zm4.8,3.125A4.952,4.952,0,0,1,25.5,7.574a3.137,3.137,0,0,1,4.766-.168V3h1.445V15H30.383l-.07-.906A2.943,2.943,0,0,1,27.9,15.156a2.887,2.887,0,0,1-2.395-1.2,5.008,5.008,0,0,1-.926-3.141Zm1.445.164a3.749,3.749,0,0,0,.594,2.25,1.92,1.92,0,0,0,1.641.813A2.108,2.108,0,0,0,30.266,12.7V8.813a2.125,2.125,0,0,0-1.992-1.2,1.929,1.929,0,0,0-1.656.82A4.128,4.128,0,0,0,26.023,10.867Zm11.438,4.289a3.693,3.693,0,0,1-2.8-1.129,4.19,4.19,0,0,1-1.078-3.02v-.266a5.073,5.073,0,0,1,.48-2.246A3.748,3.748,0,0,1,35.41,6.949a3.378,3.378,0,0,1,1.871-.559,3.166,3.166,0,0,1,2.563,1.086,4.7,4.7,0,0,1,.914,3.109v.6H35.031a3,3,0,0,0,.73,2.02,2.3,2.3,0,0,0,1.777.77,2.517,2.517,0,0,0,1.3-.312,3.259,3.259,0,0,0,.93-.828l.883.688A3.55,3.55,0,0,1,37.461,15.156Zm-.18-7.578a1.928,1.928,0,0,0-1.469.637A3.1,3.1,0,0,0,35.078,10h4.234V9.891a2.753,2.753,0,0,0-.594-1.707A1.815,1.815,0,0,0,37.281,7.578Zm8.539,6.4a2.082,2.082,0,0,0,1.352-.469,1.649,1.649,0,0,0,.641-1.172H49.18a2.621,2.621,0,0,1-.5,1.383,3.293,3.293,0,0,1-1.23,1.047,3.55,3.55,0,0,1-1.629.391A3.482,3.482,0,0,1,43.074,14a4.59,4.59,0,0,1-1.02-3.152v-.242a5.089,5.089,0,0,1,.453-2.2,3.451,3.451,0,0,1,1.3-1.492,3.7,3.7,0,0,1,2-.531,3.39,3.39,0,0,1,2.363.852,3.043,3.043,0,0,1,1,2.211H47.813a1.992,1.992,0,0,0-.621-1.348,1.932,1.932,0,0,0-1.379-.527,2.023,2.023,0,0,0-1.707.793,3.724,3.724,0,0,0-.605,2.293v.273a3.65,3.65,0,0,0,.6,2.25A2.033,2.033,0,0,0,45.82,13.977ZM52.375,15H50.93V6.547h1.445ZM50.813,4.3a.863.863,0,0,1,.215-.594.807.807,0,0,1,.637-.242.819.819,0,0,1,.641.242.854.854,0,0,1,.219.594.826.826,0,0,1-.219.586.834.834,0,0,1-.641.234.821.821,0,0,1-.637-.234A.834.834,0,0,1,50.813,4.3Zm7.961,3.539a4.331,4.331,0,0,0-.711-.055A1.9,1.9,0,0,0,56.133,9v6H54.688V6.547h1.406l.023.977a2.251,2.251,0,0,1,2.016-1.133,1.477,1.477,0,0,1,.641.109ZM65.633,15H64.188V3h1.445Zm1.93-4.3a4.993,4.993,0,0,1,.488-2.234A3.643,3.643,0,0,1,69.41,6.93,3.7,3.7,0,0,1,71.4,6.391a3.565,3.565,0,0,1,2.793,1.2,4.6,4.6,0,0,1,1.066,3.18v.1a5.036,5.036,0,0,1-.473,2.215,3.589,3.589,0,0,1-1.352,1.527,3.743,3.743,0,0,1-2.02.547,3.556,3.556,0,0,1-2.785-1.2A4.575,4.575,0,0,1,67.563,10.8Zm1.453.172a3.616,3.616,0,0,0,.652,2.258,2.211,2.211,0,0,0,3.5-.012,3.955,3.955,0,0,0,.648-2.418,3.61,3.61,0,0,0-.66-2.254A2.1,2.1,0,0,0,71.4,7.578a2.075,2.075,0,0,0-1.727.852A3.925,3.925,0,0,0,69.016,10.867ZM80.68,10.7a4.961,4.961,0,0,1,.914-3.152,3.226,3.226,0,0,1,4.82-.152l.063-.852H87.8v11.7H86.359V14.219a3.033,3.033,0,0,1-2.328.938,2.915,2.915,0,0,1-2.441-1.191,5.072,5.072,0,0,1-.91-3.16Zm1.445.164a3.761,3.761,0,0,0,.613,2.281,1.951,1.951,0,0,0,1.652.828,2.164,2.164,0,0,0,1.969-1.141V8.7a2.171,2.171,0,0,0-1.953-1.117,1.965,1.965,0,0,0-1.664.832A4.094,4.094,0,0,0,82.125,10.867Zm13.219,3.3a3.07,3.07,0,0,1-2.477.992,2.628,2.628,0,0,1-2.059-.785,3.4,3.4,0,0,1-.715-2.324v-5.5h1.445v5.461q0,1.922,1.563,1.922A2.163,2.163,0,0,0,95.3,12.7V6.547H96.75V15H95.375Zm7.109.992a3.693,3.693,0,0,1-2.8-1.129,4.19,4.19,0,0,1-1.078-3.02v-.266a5.073,5.073,0,0,1,.48-2.246A3.748,3.748,0,0,1,100.4,6.949a3.378,3.378,0,0,1,1.871-.559,3.166,3.166,0,0,1,2.563,1.086,4.7,4.7,0,0,1,.914,3.109v.6h-5.727a3,3,0,0,0,.73,2.02,2.3,2.3,0,0,0,1.777.77,2.517,2.517,0,0,0,1.3-.312,3.259,3.259,0,0,0,.93-.828l.883.688A3.55,3.55,0,0,1,102.453,15.156Zm-.18-7.578a1.928,1.928,0,0,0-1.469.637A3.1,3.1,0,0,0,100.07,10H104.3V9.891a2.753,2.753,0,0,0-.594-1.707A1.815,1.815,0,0,0,102.273,7.578Zm16.25,3.289a5.062,5.062,0,0,1-.883,3.109,2.829,2.829,0,0,1-2.391,1.18,3.1,3.1,0,0,1-2.422-.977v4.07h-1.445V6.547h1.32l.07.938a2.977,2.977,0,0,1,2.453-1.094,2.882,2.882,0,0,1,2.41,1.148,5.117,5.117,0,0,1,.887,3.2Zm-1.445-.164a3.735,3.735,0,0,0-.609-2.258,1.963,1.963,0,0,0-1.672-.828,2.125,2.125,0,0,0-1.969,1.164V12.82a2.129,2.129,0,0,0,1.984,1.156,1.954,1.954,0,0,0,1.652-.824A4.077,4.077,0,0,0,117.078,10.7Zm8.5,3.461a3.07,3.07,0,0,1-2.477.992,2.628,2.628,0,0,1-2.059-.785,3.4,3.4,0,0,1-.715-2.324v-5.5h1.445v5.461q0,1.922,1.563,1.922a2.163,2.163,0,0,0,2.2-1.234V6.547h1.445V15h-1.375Zm7.109.992a3.693,3.693,0,0,1-2.8-1.129,4.19,4.19,0,0,1-1.078-3.02v-.266a5.073,5.073,0,0,1,.48-2.246,3.748,3.748,0,0,1,1.344-1.547,3.378,3.378,0,0,1,1.871-.559,3.166,3.166,0,0,1,2.563,1.086,4.7,4.7,0,0,1,.914,3.109v.6h-5.727a3,3,0,0,0,.73,2.02,2.3,2.3,0,0,0,1.777.77,2.517,2.517,0,0,0,1.3-.312,3.258,3.258,0,0,0,.93-.828l.883.688A3.55,3.55,0,0,1,132.688,15.156Zm-.18-7.578a1.928,1.928,0,0,0-1.469.637A3.1,3.1,0,0,0,130.3,10h4.234V9.891a2.753,2.753,0,0,0-.594-1.707A1.815,1.815,0,0,0,132.508,7.578Zm4.8,3.125a4.952,4.952,0,0,1,.922-3.129,3.137,3.137,0,0,1,4.766-.168V3h1.445V15h-1.328l-.07-.906a2.943,2.943,0,0,1-2.414,1.063,2.887,2.887,0,0,1-2.395-1.2,5.008,5.008,0,0,1-.926-3.141Zm1.445.164a3.749,3.749,0,0,0,.594,2.25,1.919,1.919,0,0,0,1.641.813,2.108,2.108,0,0,0,2.008-1.234V8.813A2.125,2.125,0,0,0,141,7.617a1.929,1.929,0,0,0-1.656.82A4.128,4.128,0,0,0,138.75,10.867Zm11.438,4.289a3.693,3.693,0,0,1-2.8-1.129,4.19,4.19,0,0,1-1.078-3.02v-.266a5.073,5.073,0,0,1,.48-2.246,3.748,3.748,0,0,1,1.344-1.547,3.378,3.378,0,0,1,1.871-.559,3.166,3.166,0,0,1,2.563,1.086,4.7,4.7,0,0,1,.914,3.109v.6h-5.727a3,3,0,0,0,.73,2.02,2.3,2.3,0,0,0,1.777.77,2.517,2.517,0,0,0,1.3-.312,3.258,3.258,0,0,0,.93-.828l.883.688A3.55,3.55,0,0,1,150.188,15.156Zm-.18-7.578a1.928,1.928,0,0,0-1.469.637A3.1,3.1,0,0,0,147.8,10h4.234V9.891a2.753,2.753,0,0,0-.594-1.707A1.815,1.815,0,0,0,150.008,7.578Zm16.25,3.289a5.062,5.062,0,0,1-.883,3.109,2.829,2.829,0,0,1-2.391,1.18,3.1,3.1,0,0,1-2.422-.977v4.07h-1.445V6.547h1.32l.07.938a2.977,2.977,0,0,1,2.453-1.094,2.882,2.882,0,0,1,2.41,1.148,5.117,5.117,0,0,1,.887,3.2Zm-1.445-.164a3.735,3.735,0,0,0-.609-2.258,1.963,1.963,0,0,0-1.672-.828,2.125,2.125,0,0,0-1.969,1.164V12.82a2.129,2.129,0,0,0,1.984,1.156,1.954,1.954,0,0,0,1.652-.824A4.077,4.077,0,0,0,164.813,10.7Zm8.5,4.3a3.036,3.036,0,0,1-.2-.891,3.225,3.225,0,0,1-2.406,1.047,2.984,2.984,0,0,1-2.051-.707,2.287,2.287,0,0,1-.8-1.793,2.39,2.39,0,0,1,1-2.051,4.733,4.733,0,0,1,2.824-.73h1.406V9.211A1.623,1.623,0,0,0,172.633,8a1.821,1.821,0,0,0-1.336-.449,2.107,2.107,0,0,0-1.3.391,1.151,1.151,0,0,0-.523.945h-1.453a2,2,0,0,1,.449-1.223,3.066,3.066,0,0,1,1.219-.934,4.1,4.1,0,0,1,1.691-.344,3.342,3.342,0,0,1,2.289.73,2.635,2.635,0,0,1,.859,2.012v3.891a4.757,4.757,0,0,0,.3,1.852V15Zm-2.4-1.1a2.54,2.54,0,0,0,1.289-.352,2.127,2.127,0,0,0,.883-.914V10.9h-1.133q-2.656,0-2.656,1.555a1.316,1.316,0,0,0,.453,1.063A1.742,1.742,0,0,0,170.914,13.9Zm10.8-1.141a1.064,1.064,0,0,0-.441-.91,4.249,4.249,0,0,0-1.539-.559A7.277,7.277,0,0,1,178,10.727a2.479,2.479,0,0,1-.953-.781,1.869,1.869,0,0,1-.309-1.078,2.193,2.193,0,0,1,.879-1.758,3.432,3.432,0,0,1,2.246-.719,3.532,3.532,0,0,1,2.332.742,2.357,2.357,0,0,1,.895,1.9h-1.453a1.3,1.3,0,0,0-.5-1.023,1.888,1.888,0,0,0-1.27-.43,1.976,1.976,0,0,0-1.234.344,1.082,1.082,0,0,0-.445.9.877.877,0,0,0,.414.789,5.1,5.1,0,0,0,1.5.508,7.8,7.8,0,0,1,1.754.578,2.558,2.558,0,0,1,1,.809,1.988,1.988,0,0,1,.324,1.152,2.163,2.163,0,0,1-.906,1.816,3.8,3.8,0,0,1-2.352.684,4.257,4.257,0,0,1-1.8-.359,2.922,2.922,0,0,1-1.223-1,2.42,2.42,0,0,1-.441-1.395h1.445a1.5,1.5,0,0,0,.582,1.152,2.258,2.258,0,0,0,1.434.426,2.331,2.331,0,0,0,1.316-.332A1.02,1.02,0,0,0,181.719,12.758ZM190.266,15a3.036,3.036,0,0,1-.2-.891,3.225,3.225,0,0,1-2.406,1.047,2.984,2.984,0,0,1-2.051-.707,2.287,2.287,0,0,1-.8-1.793,2.39,2.39,0,0,1,1-2.051,4.733,4.733,0,0,1,2.824-.73h1.406V9.211A1.623,1.623,0,0,0,189.586,8a1.821,1.821,0,0,0-1.336-.449,2.107,2.107,0,0,0-1.3.391,1.151,1.151,0,0,0-.523.945h-1.453a2,2,0,0,1,.449-1.223,3.066,3.066,0,0,1,1.219-.934,4.1,4.1,0,0,1,1.691-.344,3.342,3.342,0,0,1,2.289.73,2.635,2.635,0,0,1,.859,2.012v3.891a4.757,4.757,0,0,0,.3,1.852V15Zm-2.4-1.1a2.54,2.54,0,0,0,1.289-.352,2.127,2.127,0,0,0,.883-.914V10.9h-1.133q-2.656,0-2.656,1.555a1.316,1.316,0,0,0,.453,1.063A1.742,1.742,0,0,0,187.867,13.9Zm9.969-6.055a4.331,4.331,0,0,0-.711-.055A1.9,1.9,0,0,0,195.2,9v6H193.75V6.547h1.406l.023.977A2.251,2.251,0,0,1,197.2,6.391a1.477,1.477,0,0,1,.641.109Zm.4,6.4a.905.905,0,0,1,.223-.625.848.848,0,0,1,.668-.25.874.874,0,0,1,.676.25.887.887,0,0,1,.23.625.839.839,0,0,1-.23.6.89.89,0,0,1-.676.242.8.8,0,0,1-.891-.844ZM3.359,34.992V39H1.016V27.625H5.453a5.134,5.134,0,0,1,2.254.469,3.454,3.454,0,0,1,1.5,1.332,3.714,3.714,0,0,1,.523,1.965,3.266,3.266,0,0,1-1.145,2.637,4.767,4.767,0,0,1-3.168.965Zm0-1.9H5.453a2.059,2.059,0,0,0,1.418-.437,1.591,1.591,0,0,0,.488-1.25,1.876,1.876,0,0,0-.492-1.352,1.839,1.839,0,0,0-1.359-.531H3.359Zm12.578-.43a6.134,6.134,0,0,0-.812-.062,1.654,1.654,0,0,0-1.68.867V39H11.188V30.547H13.32l.063,1.008a2.092,2.092,0,0,1,1.883-1.164,2.366,2.366,0,0,1,.7.1Zm.453,2.031a5.013,5.013,0,0,1,.484-2.242A3.546,3.546,0,0,1,18.27,30.93a4.069,4.069,0,0,1,2.113-.539,3.849,3.849,0,0,1,2.793,1.047,4.2,4.2,0,0,1,1.207,2.844l.016.578a4.418,4.418,0,0,1-1.086,3.121A3.775,3.775,0,0,1,20.4,39.156a3.793,3.793,0,0,1-2.918-1.172,4.5,4.5,0,0,1-1.09-3.187Zm2.258.164A3.151,3.151,0,0,0,19.1,36.7a1.629,1.629,0,0,0,2.578.008,3.448,3.448,0,0,0,.461-2.012,3.12,3.12,0,0,0-.461-1.828,1.5,1.5,0,0,0-1.3-.648,1.475,1.475,0,0,0-1.281.645A3.506,3.506,0,0,0,18.648,34.859Zm9.219-4.312.07.977a2.951,2.951,0,0,1,2.43-1.133,2.453,2.453,0,0,1,2,.789,3.682,3.682,0,0,1,.672,2.359V39H30.781V33.594a1.465,1.465,0,0,0-.312-1.043,1.4,1.4,0,0,0-1.039-.324,1.553,1.553,0,0,0-1.43.813V39H25.742V30.547ZM34.4,34.7a5.013,5.013,0,0,1,.484-2.242,3.546,3.546,0,0,1,1.395-1.523,4.069,4.069,0,0,1,2.113-.539,3.849,3.849,0,0,1,2.793,1.047,4.2,4.2,0,0,1,1.207,2.844l.016.578A4.418,4.418,0,0,1,41.32,37.98a4.209,4.209,0,0,1-5.832,0A4.5,4.5,0,0,1,34.4,34.8Zm2.258.164a3.151,3.151,0,0,0,.453,1.84,1.629,1.629,0,0,0,2.578.008,3.448,3.448,0,0,0,.461-2.012,3.12,3.12,0,0,0-.461-1.828,1.5,1.5,0,0,0-1.3-.648,1.475,1.475,0,0,0-1.281.645A3.506,3.506,0,0,0,36.656,34.859Zm11.719,1.8a.727.727,0,0,0-.41-.652,4.659,4.659,0,0,0-1.316-.426q-3.016-.633-3.016-2.562a2.323,2.323,0,0,1,.934-1.879,3.766,3.766,0,0,1,2.441-.754,4.053,4.053,0,0,1,2.574.758,2.388,2.388,0,0,1,.965,1.969H48.289a1.092,1.092,0,0,0-.312-.8A1.322,1.322,0,0,0,47,32a1.351,1.351,0,0,0-.883.258.814.814,0,0,0-.312.656.7.7,0,0,0,.355.605,3.657,3.657,0,0,0,1.2.4,9.8,9.8,0,0,1,1.422.379A2.336,2.336,0,0,1,50.57,36.57a2.205,2.205,0,0,1-.992,1.871,4.28,4.28,0,0,1-2.562.715,4.47,4.47,0,0,1-1.887-.379,3.166,3.166,0,0,1-1.293-1.039,2.414,2.414,0,0,1-.469-1.426h2.141a1.179,1.179,0,0,0,.445.922,1.766,1.766,0,0,0,1.109.32,1.635,1.635,0,0,0,.98-.246A.766.766,0,0,0,48.375,36.664Zm6.352-8.2v2.078h1.445V32.2H54.727v4.219a1.007,1.007,0,0,0,.18.672.9.9,0,0,0,.688.2,3.6,3.6,0,0,0,.664-.055v1.711a4.648,4.648,0,0,1-1.367.2,2.156,2.156,0,0,1-2.422-2.4V32.2H51.234V30.547h1.234V28.469ZM59.813,39H57.547V30.547h2.266Zm-2.4-10.641a1.112,1.112,0,0,1,.34-.836,1.465,1.465,0,0,1,1.848,0,1.193,1.193,0,0,1,0,1.68,1.448,1.448,0,0,1-1.836,0A1.108,1.108,0,0,1,57.414,28.359Zm7.773,8.977a1.481,1.481,0,0,0,1.016-.344,1.2,1.2,0,0,0,.406-.914h2.117a2.9,2.9,0,0,1-.469,1.574A3.093,3.093,0,0,1,67,38.762a3.949,3.949,0,0,1-1.77.395A3.67,3.67,0,0,1,62.367,38,4.56,4.56,0,0,1,61.32,34.82v-.148a4.508,4.508,0,0,1,1.039-3.117,3.627,3.627,0,0,1,2.852-1.164,3.555,3.555,0,0,1,2.543.9,3.2,3.2,0,0,1,.973,2.4H66.609a1.539,1.539,0,0,0-.406-1.066,1.513,1.513,0,0,0-2.223.164,3.324,3.324,0,0,0-.4,1.863v.234a3.366,3.366,0,0,0,.4,1.875A1.378,1.378,0,0,0,65.188,37.336ZM69.664,34.7a5.013,5.013,0,0,1,.484-2.242,3.546,3.546,0,0,1,1.395-1.523,4.069,4.069,0,0,1,2.113-.539,3.849,3.849,0,0,1,2.793,1.047,4.2,4.2,0,0,1,1.207,2.844l.016.578a4.418,4.418,0,0,1-1.086,3.121,4.209,4.209,0,0,1-5.832,0,4.5,4.5,0,0,1-1.09-3.187Zm2.258.164a3.151,3.151,0,0,0,.453,1.84,1.629,1.629,0,0,0,2.578.008,3.448,3.448,0,0,0,.461-2.012,3.12,3.12,0,0,0-.461-1.828,1.5,1.5,0,0,0-1.3-.648,1.475,1.475,0,0,0-1.281.645A3.506,3.506,0,0,0,71.922,34.859ZM86.2,35.8l1.563-5.258h2.422l-3.4,9.766-.187.445a2.577,2.577,0,0,1-2.5,1.656,3.553,3.553,0,0,1-1-.148V40.555l.344.008a1.857,1.857,0,0,0,.957-.2,1.283,1.283,0,0,0,.5-.648l.266-.7L82.2,30.547h2.43Zm14.906.211a1.2,1.2,0,0,0-.469-1.02,6.148,6.148,0,0,0-1.687-.75,11.963,11.963,0,0,1-1.93-.777,3.153,3.153,0,0,1-1.937-2.82A2.747,2.747,0,0,1,95.605,29,3.389,3.389,0,0,1,97.1,27.875a5.616,5.616,0,0,1,2.184-.406,5.112,5.112,0,0,1,2.172.441,3.458,3.458,0,0,1,1.48,1.246,3.261,3.261,0,0,1,.527,1.828h-2.344a1.534,1.534,0,0,0-.492-1.215,2.023,2.023,0,0,0-1.383-.434,2.162,2.162,0,0,0-1.336.363,1.146,1.146,0,0,0-.477.957,1.1,1.1,0,0,0,.559.93,6.311,6.311,0,0,0,1.645.7,7.106,7.106,0,0,1,2.914,1.492A2.972,2.972,0,0,1,103.461,36a2.737,2.737,0,0,1-1.117,2.316,4.891,4.891,0,0,1-3.008.84,5.808,5.808,0,0,1-2.391-.48A3.783,3.783,0,0,1,95.3,37.359a3.371,3.371,0,0,1-.566-1.937h2.352q0,1.883,2.25,1.883a2.189,2.189,0,0,0,1.3-.34A1.106,1.106,0,0,0,101.109,36.016ZM107.281,39h-2.266V30.547h2.266Zm-2.4-10.641a1.112,1.112,0,0,1,.34-.836,1.465,1.465,0,0,1,1.848,0,1.193,1.193,0,0,1,0,1.68,1.448,1.448,0,0,1-1.836,0A1.108,1.108,0,0,1,104.883,28.359Zm6.375,2.188.07.945a2.971,2.971,0,0,1,2.43-1.1A2.255,2.255,0,0,1,116,31.68a2.9,2.9,0,0,1,2.539-1.289,2.521,2.521,0,0,1,2.047.8,3.681,3.681,0,0,1,.672,2.41V39h-2.266V33.609a1.61,1.61,0,0,0-.281-1.051,1.246,1.246,0,0,0-.992-.332,1.409,1.409,0,0,0-1.406.969l.008,5.8h-2.258V33.617a1.59,1.59,0,0,0-.289-1.062,1.259,1.259,0,0,0-.984-.328,1.463,1.463,0,0,0-1.391.8V39h-2.258V30.547Zm16.8,7.594a2.831,2.831,0,0,1-2.312,1.016,2.67,2.67,0,0,1-2.074-.781,3.335,3.335,0,0,1-.73-2.289V30.547H125.2v5.461q0,1.32,1.2,1.32a1.631,1.631,0,0,0,1.578-.8V30.547h2.266V39h-2.125Zm6.273.859h-2.266V27h2.266Zm6.758,0a2.507,2.507,0,0,1-.227-.758,2.732,2.732,0,0,1-2.133.914,3,3,0,0,1-2.059-.719,2.312,2.312,0,0,1-.816-1.812,2.389,2.389,0,0,1,1-2.062,4.915,4.915,0,0,1,2.879-.727h1.039v-.484a1.393,1.393,0,0,0-.3-.937,1.183,1.183,0,0,0-.949-.352,1.345,1.345,0,0,0-.895.273.929.929,0,0,0-.324.75h-2.258a2.268,2.268,0,0,1,.453-1.359,3,3,0,0,1,1.281-.98,4.669,4.669,0,0,1,1.859-.355,3.689,3.689,0,0,1,2.48.785,2.747,2.747,0,0,1,.918,2.207v3.664a4.041,4.041,0,0,0,.336,1.82V39Zm-1.867-1.57a1.945,1.945,0,0,0,.922-.223,1.462,1.462,0,0,0,.625-.6V35.156h-.844q-1.7,0-1.8,1.172l-.008.133a.9.9,0,0,0,.3.7A1.153,1.153,0,0,0,139.219,37.43Zm9.063-.094a1.481,1.481,0,0,0,1.016-.344,1.2,1.2,0,0,0,.406-.914h2.117a2.9,2.9,0,0,1-.469,1.574,3.093,3.093,0,0,1-1.262,1.109,3.949,3.949,0,0,1-1.77.395A3.67,3.67,0,0,1,145.461,38a4.56,4.56,0,0,1-1.047-3.184v-.148a4.508,4.508,0,0,1,1.039-3.117,3.627,3.627,0,0,1,2.852-1.164,3.555,3.555,0,0,1,2.543.9,3.2,3.2,0,0,1,.973,2.4H149.7a1.539,1.539,0,0,0-.406-1.066,1.513,1.513,0,0,0-2.223.164,3.324,3.324,0,0,0-.4,1.863v.234a3.366,3.366,0,0,0,.4,1.875A1.378,1.378,0,0,0,148.281,37.336ZM155.492,39h-2.266V30.547h2.266Zm-2.4-10.641a1.112,1.112,0,0,1,.34-.836,1.465,1.465,0,0,1,1.848,0,1.193,1.193,0,0,1,0,1.68,1.448,1.448,0,0,1-1.836,0A1.109,1.109,0,0,1,153.094,28.359ZM157,34.7a5.013,5.013,0,0,1,.484-2.242,3.546,3.546,0,0,1,1.395-1.523,4.069,4.069,0,0,1,2.113-.539,3.849,3.849,0,0,1,2.793,1.047,4.2,4.2,0,0,1,1.207,2.844l.016.578a4.418,4.418,0,0,1-1.086,3.121,4.209,4.209,0,0,1-5.832,0A4.5,4.5,0,0,1,157,34.8Zm2.258.164a3.151,3.151,0,0,0,.453,1.84,1.629,1.629,0,0,0,2.578.008,3.448,3.448,0,0,0,.461-2.012,3.12,3.12,0,0,0-.461-1.828,1.5,1.5,0,0,0-1.3-.648,1.475,1.475,0,0,0-1.281.645A3.506,3.506,0,0,0,159.258,34.859ZM161.438,27H163.9l-2.164,2.422H159.9Zm7.039,3.547.07.977a2.951,2.951,0,0,1,2.43-1.133,2.453,2.453,0,0,1,2,.789,3.682,3.682,0,0,1,.672,2.359V39h-2.258V33.594a1.465,1.465,0,0,0-.312-1.043,1.4,1.4,0,0,0-1.039-.324,1.553,1.553,0,0,0-1.43.813V39h-2.258V30.547Zm7,7.344a1.137,1.137,0,0,1,.363-.875,1.412,1.412,0,0,1,1.828,0,1.137,1.137,0,0,1,.363.875,1.121,1.121,0,0,1-.359.863,1.435,1.435,0,0,1-1.836,0A1.121,1.121,0,0,1,175.477,37.891Z" transform="translate(668 2755)" fill="#12263f"/>
  </g>
</svg>
