<?xml version="1.0" encoding="utf-8"?>
<!-- Generator: Adobe Illustrator 26.0.1, SVG Export Plug-In . SVG Version: 6.00 Build 0)  -->
<svg version="1.1" id="Capa_1" xmlns="http://www.w3.org/2000/svg" xmlns:xlink="http://www.w3.org/1999/xlink" x="0px" y="0px"
	 viewBox="0 0 756.8 314.4" style="enable-background:new 0 0 756.8 314.4;" xml:space="preserve">
<style type="text/css">
	.st0{fill:none;}
	.st1{fill:#0D66BF;}
	.st2{fill:#FFFFFF;}
	.st3{fill:#DB6E5F;}
	.st4{fill:#57555C;}
	.st5{fill:#3C3A41;}
	.st6{fill:#DBBE36;}
	.st7{fill:#EFDF96;}
</style>
<g>
	<g id="Trazado_125785" transform="translate(402 6026)">
		<path class="st0" d="M-20.8-5996.8c170.5,0,308.7,55.3,308.7,123.6s-138.2,123.6-308.7,123.6s-308.7-55.3-308.7-123.6
			S-191.3-5996.8-20.8-5996.8z"/>
		<path class="st1" d="M-20.8-5994.4c-20.9,0-41.7,0.8-62,2.5c-19.8,1.6-39.2,4-57.7,7.2c-18.2,3.1-35.8,6.9-52.2,11.3
			c-16.3,4.4-31.5,9.4-45.4,15c-13.9,5.5-26.4,11.6-37.4,18.1c-11,6.5-20.4,13.5-28,20.7c-7.7,7.3-13.6,14.8-17.5,22.5
			c-2,3.9-3.5,7.8-4.5,11.8c-1,4-1.5,8-1.5,12c0,4,0.5,8.1,1.5,12c1,3.9,2.5,7.9,4.5,11.8c3.9,7.7,9.8,15.3,17.5,22.5
			c7.6,7.2,17,14.2,28,20.7c10.9,6.5,23.5,12.6,37.4,18.1c13.9,5.6,29.2,10.6,45.4,15c16.4,4.4,34,8.3,52.2,11.3
			c18.6,3.1,38,5.6,57.7,7.2c20.3,1.7,41.1,2.5,62,2.5s41.7-0.8,62-2.5c19.8-1.6,39.2-4,57.7-7.2c18.2-3.1,35.8-6.9,52.2-11.3
			c16.3-4.4,31.5-9.4,45.4-15c13.9-5.5,26.4-11.6,37.4-18.1c11-6.5,20.4-13.5,28-20.7c7.7-7.3,13.6-14.8,17.5-22.5
			c2-3.9,3.5-7.8,4.5-11.8c1-4,1.5-8,1.5-12c0-4-0.5-8.1-1.5-12c-1-3.9-2.5-7.9-4.5-11.8c-3.9-7.7-9.8-15.3-17.5-22.5
			c-7.6-7.2-17-14.2-28-20.7c-10.9-6.5-23.5-12.6-37.4-18.1c-13.9-5.6-29.2-10.6-45.4-15c-16.4-4.4-34-8.3-52.2-11.3
			c-18.6-3.1-38-5.6-57.7-7.2C21-5993.6,0.1-5994.4-20.8-5994.4 M-20.8-5996.8c170.5,0,308.7,55.3,308.7,123.6
			c0,68.2-138.2,123.6-308.7,123.6s-308.7-55.3-308.7-123.6C-329.5-5941.5-191.3-5996.8-20.8-5996.8z"/>
	</g>
	<path id="Trazado_125786" class="st1" d="M381.2,0c43.9,0,79.4,18.7,79.4,41.7s-35.6,41.7-79.4,41.7s-79.4-18.7-79.4-41.7
		S337.4,0,381.2,0z"/>
	<path id="Trazado_125787" class="st2" d="M348.1,33.9h-1.6v3.5h-2v-9.7h3.6c0.9-0.1,1.9,0.2,2.6,0.8c0.6,0.5,1,1.3,0.9,2.2
		c0,0.6-0.1,1.2-0.4,1.6c-0.3,0.5-0.8,0.8-1.3,1.1l2.1,4v0.1h-2.1L348.1,33.9z M346.5,32.2h1.6c0.4,0,0.8-0.1,1.2-0.4
		c0.3-0.3,0.4-0.7,0.4-1.1c0-0.4-0.1-0.8-0.4-1.1c-0.3-0.3-0.8-0.4-1.2-0.4h-1.6L346.5,32.2z M356.4,37.5c-1,0-1.9-0.3-2.6-1
		c-0.7-0.7-1-1.6-1-2.6v-0.2c0-0.7,0.1-1.3,0.4-1.9c0.3-0.5,0.7-1,1.2-1.3c0.5-0.3,1.1-0.5,1.8-0.5c0.9,0,1.7,0.3,2.3,0.9
		c0.6,0.7,0.9,1.7,0.9,2.6v0.8h-4.6c0,0.4,0.2,0.8,0.6,1.1c0.3,0.3,0.8,0.4,1.2,0.4c0.7,0,1.3-0.3,1.7-0.8l0.9,1.1
		c-0.3,0.4-0.7,0.7-1.2,1C357.5,37.4,357,37.5,356.4,37.5z M356.2,31.6c-0.4,0-0.7,0.1-0.9,0.4c-0.3,0.3-0.4,0.7-0.5,1.1h2.7V33
		c0-0.4-0.1-0.7-0.3-1C356.9,31.7,356.5,31.6,356.2,31.6z M363.5,36c0.3,0,0.6-0.1,0.9-0.3c0.2-0.2,0.3-0.5,0.3-0.8h1.8
		c0,0.5-0.1,0.9-0.4,1.3c-0.3,0.4-0.6,0.7-1.1,0.9c-0.5,0.2-1,0.3-1.5,0.3c-0.9,0-1.8-0.3-2.4-1c-0.6-0.8-0.9-1.7-0.9-2.7v-0.1
		c0-1,0.3-1.9,0.9-2.7c0.6-0.7,1.5-1,2.4-1c0.8,0,1.6,0.2,2.2,0.8c0.6,0.5,0.9,1.3,0.8,2h-1.8c0-0.3-0.1-0.7-0.3-0.9
		c-0.5-0.5-1.3-0.5-1.8,0.1c0,0,0,0.1-0.1,0.1c-0.3,0.5-0.4,1-0.3,1.6v0.2c0,0.6,0.1,1.1,0.3,1.6C362.7,35.8,363.1,36,363.5,36z
		 M367.3,33.7c0-0.7,0.1-1.3,0.4-1.9c0.3-0.5,0.7-1,1.2-1.3c0.5-0.3,1.2-0.5,1.8-0.5c0.9,0,1.7,0.3,2.4,0.9c0.6,0.6,1,1.5,1,2.4
		l0,0.5c0,1-0.3,1.9-0.9,2.7c-1.4,1.3-3.6,1.3-5,0C367.5,35.8,367.2,34.8,367.3,33.7L367.3,33.7z M369.2,33.9c0,0.5,0.1,1.1,0.4,1.6
		c0.5,0.6,1.3,0.7,1.9,0.3c0.1-0.1,0.2-0.2,0.3-0.2c0.3-0.5,0.4-1.1,0.4-1.7c0-0.5-0.1-1.1-0.4-1.6c-0.2-0.4-0.7-0.6-1.1-0.6
		c-0.4,0-0.8,0.2-1.1,0.5C369.3,32.7,369.1,33.3,369.2,33.9L369.2,33.9z M377.3,37.4h-1.9V27.2h1.9L377.3,37.4z M382.2,37.5
		c-1,0-1.9-0.3-2.6-1c-0.7-0.7-1-1.6-1-2.6v-0.2c0-0.7,0.1-1.3,0.4-1.9c0.3-0.5,0.7-1,1.2-1.3c0.5-0.3,1.1-0.5,1.8-0.5
		c0.9,0,1.7,0.3,2.3,0.9c0.6,0.7,0.9,1.7,0.9,2.6v0.8h-4.6c0,0.4,0.2,0.8,0.6,1.1c0.3,0.3,0.8,0.4,1.2,0.4c0.7,0,1.3-0.3,1.7-0.8
		l0.9,1.1c-0.3,0.4-0.7,0.7-1.2,1C383.3,37.4,382.8,37.5,382.2,37.5z M382,31.6c-0.4,0-0.7,0.1-0.9,0.4c-0.3,0.3-0.4,0.7-0.5,1.1
		h2.7V33c0-0.4-0.1-0.7-0.3-1C382.7,31.7,382.3,31.6,382,31.6z M389.2,36c0.3,0,0.6-0.1,0.9-0.3c0.2-0.2,0.3-0.5,0.3-0.8h1.8
		c0,0.5-0.1,0.9-0.4,1.3c-0.3,0.4-0.6,0.7-1.1,0.9c-0.5,0.2-1,0.3-1.5,0.3c-0.9,0-1.8-0.3-2.4-1c-0.6-0.8-0.9-1.7-0.9-2.7v-0.1
		c0-1,0.3-1.9,0.9-2.7c0.6-0.7,1.5-1,2.4-1c0.8,0,1.6,0.2,2.2,0.8c0.6,0.5,0.9,1.3,0.8,2h-1.8c0-0.3-0.1-0.7-0.3-0.9
		c-0.5-0.5-1.3-0.5-1.8,0.1c0,0,0,0.1-0.1,0.1c-0.3,0.5-0.4,1-0.3,1.6v0.2c0,0.6,0.1,1.1,0.3,1.6C388.4,35.8,388.8,36,389.2,36z
		 M396.3,36c0.3,0,0.6-0.1,0.9-0.3c0.2-0.2,0.3-0.5,0.3-0.8h1.8c0,0.5-0.1,0.9-0.4,1.3c-0.3,0.4-0.6,0.7-1.1,0.9
		c-0.5,0.2-1,0.3-1.5,0.3c-0.9,0-1.8-0.3-2.4-1c-0.6-0.8-0.9-1.7-0.9-2.7v-0.1c0-1,0.3-1.9,0.9-2.6c0.6-0.7,1.5-1,2.4-1
		c0.8,0,1.6,0.2,2.2,0.8c0.6,0.5,0.9,1.3,0.8,2h-1.8c0-0.3-0.1-0.7-0.3-0.9c-0.5-0.5-1.3-0.5-1.8,0.1c0,0,0,0.1-0.1,0.1
		c-0.3,0.5-0.4,1-0.3,1.6v0.2c0,0.6,0.1,1.1,0.3,1.6C395.5,35.8,395.9,36,396.3,36z M402.5,37.4h-1.9v-7.2h1.9V37.4z M400.4,28.3
		c0-0.3,0.1-0.5,0.3-0.7c0.5-0.4,1.1-0.4,1.6,0c0.2,0.2,0.3,0.4,0.3,0.7c0,0.3-0.1,0.5-0.3,0.7c-0.5,0.4-1.1,0.4-1.6,0
		C400.5,28.9,400.4,28.6,400.4,28.3L400.4,28.3z M403.8,33.7c0-0.7,0.1-1.3,0.4-1.9c0.3-0.5,0.7-1,1.2-1.3c0.5-0.3,1.2-0.5,1.8-0.5
		c0.9,0,1.7,0.3,2.4,0.9c0.6,0.6,1,1.5,1,2.4l0,0.5c0,1-0.3,1.9-0.9,2.7c-1.4,1.3-3.6,1.3-5,0C404,35.8,403.7,34.8,403.8,33.7
		L403.8,33.7z M405.7,33.9c0,0.5,0.1,1.1,0.4,1.6c0.5,0.6,1.3,0.7,1.9,0.3c0.1-0.1,0.2-0.2,0.3-0.2c0.3-0.5,0.4-1.1,0.4-1.7
		c0-0.5-0.1-1.1-0.4-1.6c-0.2-0.4-0.7-0.6-1.1-0.6c-0.4,0-0.8,0.2-1.1,0.5C405.8,32.7,405.6,33.3,405.7,33.9L405.7,33.9z
		 M407.5,27.2h2.1l-1.8,2.1h-1.6L407.5,27.2z M413.5,30.2l0.1,0.8c0.5-0.6,1.3-1,2.1-1c0.6,0,1.3,0.2,1.7,0.7c0.4,0.6,0.6,1.3,0.6,2
		v4.6H416v-4.6c0-0.3-0.1-0.6-0.3-0.9c-0.2-0.2-0.6-0.3-0.9-0.3c-0.5,0-1,0.2-1.2,0.7v5.1h-1.9v-7.2H413.5z M355.2,56.1v-9.7h3
		c0.8,0,1.6,0.2,2.3,0.6c0.7,0.4,1.2,1,1.6,1.6c0.4,0.7,0.6,1.6,0.6,2.4v0.4c0,0.8-0.2,1.7-0.6,2.4c-0.4,0.7-0.9,1.2-1.6,1.6
		c-0.7,0.4-1.5,0.6-2.3,0.6H355.2z M357.2,48.1v6.5h1c0.7,0,1.3-0.2,1.8-0.8c0.5-0.6,0.7-1.4,0.6-2.2v-0.5c0.1-0.8-0.2-1.6-0.6-2.2
		c-0.4-0.5-1.1-0.8-1.8-0.8L357.2,48.1z M367.2,56.3c-1,0-1.9-0.3-2.6-1c-0.7-0.7-1-1.6-1-2.6v-0.2c0-0.7,0.1-1.3,0.4-1.9
		c0.3-0.5,0.7-1,1.2-1.3c0.5-0.3,1.1-0.5,1.8-0.5c0.9,0,1.7,0.3,2.3,0.9c0.6,0.7,0.9,1.7,0.9,2.6v0.8h-4.6c0,0.4,0.2,0.8,0.6,1.1
		c0.3,0.3,0.8,0.4,1.2,0.4c0.7,0,1.3-0.3,1.7-0.8L370,55c-0.3,0.4-0.7,0.7-1.2,1C368.3,56.2,367.8,56.3,367.2,56.3L367.2,56.3z
		 M367,50.4c-0.4,0-0.7,0.1-0.9,0.4c-0.3,0.3-0.4,0.7-0.5,1.1h2.7v-0.2c0-0.4-0.1-0.7-0.3-1C367.7,50.5,367.3,50.3,367,50.4
		L367,50.4z M374.4,52.5c0-1,0.2-1.9,0.8-2.7c0.5-0.7,1.3-1,2.1-1c0.7,0,1.3,0.3,1.7,0.8v-3.7h1.9v10.2h-1.7l-0.1-0.8
		c-0.4,0.6-1.1,0.9-1.8,0.9c-0.8,0-1.6-0.4-2-1C374.6,54.4,374.3,53.5,374.4,52.5L374.4,52.5z M376.3,52.6c0,0.5,0.1,1.1,0.4,1.5
		c0.2,0.4,0.6,0.6,1,0.5c0.5,0,1-0.3,1.3-0.8v-2.8c-0.2-0.5-0.7-0.8-1.2-0.8C376.7,50.4,376.3,51.1,376.3,52.6L376.3,52.6z
		 M386.5,56.1c-0.1-0.2-0.2-0.4-0.2-0.6c-0.5,0.5-1.1,0.8-1.8,0.8c-0.6,0-1.3-0.2-1.8-0.6c-0.5-0.4-0.7-0.9-0.7-1.5
		c0-0.7,0.3-1.4,0.9-1.8c0.7-0.5,1.6-0.7,2.5-0.6h0.9v-0.4c0-0.3-0.1-0.6-0.3-0.8c-0.2-0.2-0.5-0.3-0.8-0.3c-0.3,0-0.5,0.1-0.8,0.2
		c-0.2,0.2-0.3,0.4-0.3,0.6h-1.9c0-0.4,0.1-0.8,0.4-1.2c0.3-0.4,0.7-0.7,1.1-0.8c0.5-0.2,1-0.3,1.6-0.3c0.8,0,1.5,0.2,2.1,0.7
		c0.5,0.5,0.8,1.2,0.8,1.9v3.1c0,0.5,0.1,1.1,0.3,1.5v0.1H386.5z M384.9,54.8c0.3,0,0.5-0.1,0.8-0.2c0.2-0.1,0.4-0.3,0.5-0.5v-1.2
		h-0.7c-1,0-1.5,0.3-1.5,1l0,0.1c0,0.2,0.1,0.4,0.3,0.6C384.4,54.7,384.7,54.8,384.9,54.8z M391.9,47.2v1.8h1.2v1.4h-1.2v3.6
		c0,0.2,0,0.4,0.2,0.6c0.2,0.1,0.4,0.2,0.6,0.2c0.2,0,0.4,0,0.6,0v1.5c-0.4,0.1-0.8,0.2-1.2,0.2c-1,0.1-1.9-0.6-2.1-1.6
		c0-0.2,0-0.3,0-0.5v-3.9H389v-1.4h1v-1.8H391.9z M393.7,52.5c0-0.7,0.1-1.3,0.4-1.9c0.3-0.5,0.7-1,1.2-1.3c0.5-0.3,1.2-0.5,1.8-0.5
		c0.9,0,1.7,0.3,2.4,0.9c0.6,0.6,1,1.5,1,2.4l0,0.5c0,1-0.3,1.9-0.9,2.7c-1.4,1.3-3.6,1.3-5,0C394,54.5,393.7,53.5,393.7,52.5
		L393.7,52.5z M395.7,52.6c0,0.5,0.1,1.1,0.4,1.6c0.5,0.6,1.3,0.7,1.9,0.3c0.1-0.1,0.2-0.2,0.3-0.2c0.3-0.5,0.4-1.1,0.4-1.7
		c0-0.5-0.1-1.1-0.4-1.6c-0.2-0.4-0.7-0.6-1.1-0.6c-0.4,0-0.8,0.2-1.1,0.5C395.8,51.4,395.6,52,395.7,52.6L395.7,52.6z M405.6,54.1
		c0-0.2-0.1-0.5-0.3-0.6c-0.4-0.2-0.7-0.3-1.1-0.4c-1.7-0.4-2.6-1.1-2.6-2.2c0-0.6,0.3-1.2,0.8-1.6c0.6-0.4,1.3-0.7,2.1-0.6
		c0.8,0,1.6,0.2,2.2,0.6c0.5,0.4,0.8,1,0.8,1.7h-1.9c0-0.3-0.1-0.5-0.3-0.7c-0.2-0.2-0.5-0.3-0.8-0.3c-0.3,0-0.5,0.1-0.8,0.2
		c-0.2,0.1-0.3,0.3-0.3,0.6c0,0.2,0.1,0.4,0.3,0.5c0.3,0.2,0.7,0.3,1,0.3c0.4,0.1,0.8,0.2,1.2,0.3c0.9,0.2,1.5,1,1.5,1.9
		c0,0.6-0.3,1.2-0.8,1.6c-0.6,0.4-1.4,0.6-2.2,0.6c-0.6,0-1.1-0.1-1.6-0.3c-0.4-0.2-0.8-0.5-1.1-0.9c-0.3-0.4-0.4-0.8-0.4-1.2h1.8
		c0,0.3,0.1,0.6,0.4,0.8c0.3,0.2,0.6,0.3,0.9,0.3c0.3,0,0.6-0.1,0.8-0.2C405.5,54.6,405.6,54.4,405.6,54.1z"/>
	<path id="Trazado_125792" class="st1" d="M677.4,111c43.9,0,79.4,18.7,79.4,41.7s-35.6,41.7-79.4,41.7c-43.9,0-79.4-18.7-79.4-41.7
		S633.5,111,677.4,111z"/>
	<path id="Trazado_125793" class="st2" d="M643,146.8h4.2v1.6H641v-9.7h2L643,146.8z M650.2,148.4h-1.9v-7.2h1.9V148.4z
		 M648.2,139.4c0-0.3,0.1-0.5,0.3-0.7c0.5-0.4,1.1-0.4,1.6,0c0.2,0.2,0.3,0.4,0.3,0.7c0,0.3-0.1,0.5-0.3,0.7c-0.5,0.4-1.1,0.4-1.6,0
		C648.3,139.9,648.2,139.6,648.2,139.4z M653.6,141.2l0.1,0.8c0.5-0.6,1.3-1,2.1-0.9c0.8-0.1,1.6,0.4,1.9,1.1
		c0.5-0.7,1.3-1.1,2.2-1.1c0.7-0.1,1.3,0.2,1.7,0.7c0.4,0.6,0.6,1.3,0.6,2.1v4.6h-1.9v-4.6c0-0.3-0.1-0.6-0.2-0.9
		c-0.2-0.2-0.5-0.3-0.8-0.3c-0.5,0-1,0.3-1.2,0.8l0,4.9H656v-4.6c0-0.3-0.1-0.6-0.2-0.9c-0.2-0.2-0.5-0.3-0.8-0.3
		c-0.5,0-1,0.2-1.2,0.7v5.1h-1.9v-7.2H653.6z M670.1,144.9c0,0.9-0.2,1.9-0.8,2.7c-0.5,0.7-1.2,1-2,1c-0.7,0-1.3-0.3-1.8-0.8v3.4
		h-1.9v-10h1.8l0.1,0.7c0.4-0.5,1.1-0.9,1.8-0.8c0.8,0,1.6,0.3,2.1,1C669.9,142.9,670.1,143.8,670.1,144.9L670.1,144.9z
		 M668.2,144.7c0-0.5-0.1-1.1-0.4-1.5c-0.2-0.4-0.6-0.6-1-0.5c-0.5,0-1,0.2-1.2,0.7v2.9c0.2,0.5,0.7,0.8,1.3,0.7
		C667.7,147,668.2,146.2,668.2,144.7L668.2,144.7z M673.3,148.4h-1.9v-7.2h1.9V148.4z M671.3,139.4c0-0.3,0.1-0.5,0.3-0.7
		c0.5-0.4,1.1-0.4,1.6,0c0.2,0.2,0.3,0.4,0.3,0.7c0,0.3-0.1,0.5-0.3,0.7c-0.5,0.4-1.1,0.4-1.6,0
		C671.4,139.9,671.3,139.6,671.3,139.4L671.3,139.4z M678.2,148.5c-1,0-1.9-0.3-2.6-1c-0.7-0.7-1-1.6-1-2.6v-0.2
		c0-0.7,0.1-1.3,0.4-1.9c0.3-0.5,0.7-1,1.2-1.3c0.5-0.3,1.1-0.5,1.8-0.5c0.9,0,1.7,0.3,2.3,0.9c0.6,0.7,0.9,1.7,0.9,2.6v0.8h-4.6
		c0,0.4,0.2,0.8,0.6,1.1c0.3,0.3,0.8,0.4,1.2,0.4c0.7,0,1.3-0.3,1.7-0.8l0.9,1.1c-0.3,0.4-0.7,0.7-1.2,1
		C679.3,148.4,678.8,148.6,678.2,148.5L678.2,148.5z M678,142.6c-0.4,0-0.7,0.1-0.9,0.4c-0.3,0.3-0.4,0.7-0.5,1.1h2.7V144
		c0-0.4-0.1-0.7-0.3-1C678.7,142.7,678.3,142.6,678,142.6z M684.5,146.9h3.5v1.5h-6v-1.2l3.4-4.5h-3.3v-1.6h5.8v1.1L684.5,146.9z
		 M693.3,148.4c-0.1-0.2-0.2-0.4-0.2-0.6c-0.5,0.5-1.1,0.8-1.8,0.8c-0.6,0-1.3-0.2-1.8-0.6c-0.5-0.4-0.7-0.9-0.7-1.5
		c0-0.7,0.3-1.4,0.9-1.8c0.7-0.5,1.6-0.7,2.5-0.6h0.9v-0.4c0-0.3-0.1-0.6-0.3-0.8c-0.2-0.2-0.5-0.3-0.8-0.3c-0.3,0-0.5,0.1-0.8,0.2
		c-0.2,0.2-0.3,0.4-0.3,0.6H689c0-0.4,0.1-0.8,0.4-1.2c0.3-0.4,0.7-0.7,1.1-0.8c0.5-0.2,1-0.3,1.6-0.3c0.8,0,1.5,0.2,2.1,0.7
		c0.5,0.5,0.8,1.2,0.8,1.9v3.1c0,0.5,0.1,1.1,0.3,1.5v0.1H693.3z M691.8,147.1c0.3,0,0.5-0.1,0.8-0.2c0.2-0.1,0.4-0.3,0.5-0.5v-1.2
		h-0.7c-1,0-1.5,0.3-1.5,1l0,0.1c0,0.2,0.1,0.4,0.3,0.6C691.3,147,691.5,147.1,691.8,147.1z M699.6,144.8c0-1,0.2-1.9,0.8-2.7
		c0.5-0.7,1.3-1,2.1-1c0.7,0,1.3,0.3,1.7,0.8v-3.7h1.9v10.2h-1.7l-0.1-0.8c-0.4,0.6-1.1,0.9-1.8,0.9c-0.8,0-1.6-0.4-2-1
		C699.8,146.7,699.5,145.7,699.6,144.8L699.6,144.8z M701.5,144.9c0,0.5,0.1,1.1,0.4,1.5c0.2,0.4,0.6,0.6,1,0.5c0.5,0,1-0.3,1.3-0.8
		v-2.8c-0.2-0.5-0.7-0.8-1.2-0.8C702,142.6,701.5,143.4,701.5,144.9L701.5,144.9z M710.9,148.5c-1,0-1.9-0.3-2.6-1
		c-0.7-0.7-1-1.6-1-2.6v-0.2c0-0.7,0.1-1.3,0.4-1.9c0.3-0.5,0.7-1,1.2-1.3c0.5-0.3,1.1-0.5,1.8-0.5c0.9,0,1.7,0.3,2.3,0.9
		c0.6,0.7,0.9,1.7,0.9,2.6v0.8h-4.6c0,0.4,0.2,0.8,0.6,1.1c0.3,0.3,0.8,0.4,1.2,0.4c0.7,0,1.3-0.3,1.7-0.8l0.9,1.1
		c-0.3,0.4-0.7,0.7-1.2,1C712,148.4,711.4,148.6,710.9,148.5L710.9,148.5z M710.6,142.6c-0.4,0-0.7,0.1-0.9,0.4
		c-0.3,0.3-0.4,0.7-0.5,1.1h2.7V144c0-0.4-0.1-0.7-0.3-1C711.3,142.7,711,142.6,710.6,142.6L710.6,142.6z M660.4,167.1v-9.7h3
		c0.8,0,1.6,0.2,2.3,0.6c0.7,0.4,1.2,1,1.6,1.6c0.4,0.7,0.6,1.6,0.6,2.4v0.4c0,0.8-0.2,1.7-0.6,2.4c-0.4,0.7-0.9,1.2-1.6,1.6
		c-0.7,0.4-1.5,0.6-2.3,0.6H660.4z M662.4,159.1v6.5h1c0.7,0,1.3-0.2,1.8-0.8c0.5-0.6,0.7-1.4,0.6-2.2v-0.5c0.1-0.8-0.2-1.6-0.6-2.2
		c-0.4-0.5-1.1-0.8-1.8-0.8L662.4,159.1z M673.3,167.1c-0.1-0.2-0.2-0.4-0.2-0.6c-0.5,0.5-1.1,0.8-1.8,0.8c-0.6,0-1.3-0.2-1.8-0.6
		c-0.5-0.4-0.7-0.9-0.7-1.5c0-0.7,0.3-1.4,0.9-1.8c0.7-0.5,1.6-0.7,2.5-0.6h0.9v-0.4c0-0.3-0.1-0.6-0.3-0.8
		c-0.2-0.2-0.5-0.3-0.8-0.3c-0.3,0-0.5,0.1-0.8,0.2c-0.2,0.2-0.3,0.4-0.3,0.6H669c0-0.4,0.1-0.8,0.4-1.2c0.3-0.4,0.7-0.7,1.1-0.8
		c0.5-0.2,1-0.3,1.6-0.3c0.8,0,1.5,0.2,2.1,0.7c0.5,0.5,0.8,1.2,0.8,1.9v3.1c0,0.5,0.1,1.1,0.3,1.5v0.1H673.3z M671.7,165.8
		c0.3,0,0.5-0.1,0.8-0.2c0.2-0.1,0.4-0.3,0.5-0.5v-1.2h-0.7c-1,0-1.5,0.3-1.5,1l0,0.1c0,0.2,0.1,0.4,0.3,0.6
		C671.2,165.7,671.4,165.8,671.7,165.8z M678.7,158.2v1.8h1.2v1.4h-1.2v3.6c0,0.2,0,0.4,0.2,0.6c0.2,0.1,0.4,0.2,0.6,0.2
		c0.2,0,0.4,0,0.6,0v1.5c-0.4,0.1-0.8,0.2-1.2,0.2c-1,0.1-1.9-0.6-2.1-1.6c0-0.2,0-0.3,0-0.5v-3.9h-1.1v-1.4h1.1v-1.8H678.7z
		 M680.5,163.5c0-0.7,0.1-1.3,0.4-1.9c0.3-0.5,0.7-1,1.2-1.3c0.5-0.3,1.2-0.5,1.8-0.5c0.9,0,1.7,0.3,2.4,0.9c0.6,0.6,1,1.5,1,2.4
		l0,0.5c0,1-0.3,1.9-0.9,2.7c-1.4,1.3-3.6,1.3-5,0C680.8,165.5,680.4,164.6,680.5,163.5L680.5,163.5z M682.4,163.6
		c0,0.5,0.1,1.1,0.4,1.6c0.5,0.6,1.3,0.7,1.9,0.3c0.1-0.1,0.2-0.2,0.3-0.2c0.3-0.5,0.4-1.1,0.4-1.7c0-0.5-0.1-1.1-0.4-1.6
		c-0.2-0.4-0.7-0.6-1.1-0.6c-0.4,0-0.8,0.2-1.1,0.5C682.5,162.4,682.4,163,682.4,163.6L682.4,163.6z M692.4,165.1
		c0-0.2-0.1-0.5-0.3-0.6c-0.4-0.2-0.7-0.3-1.1-0.4c-1.7-0.4-2.6-1.1-2.6-2.2c0-0.6,0.3-1.2,0.8-1.6c0.6-0.4,1.3-0.7,2.1-0.6
		c0.8,0,1.6,0.2,2.2,0.6c0.5,0.4,0.8,1,0.8,1.7h-1.9c0-0.3-0.1-0.5-0.3-0.7c-0.2-0.2-0.5-0.3-0.8-0.3c-0.3,0-0.5,0.1-0.8,0.2
		c-0.2,0.1-0.3,0.3-0.3,0.6c0,0.2,0.1,0.4,0.3,0.5c0.3,0.2,0.7,0.3,1,0.3c0.4,0.1,0.8,0.2,1.2,0.3c0.9,0.2,1.5,1,1.5,1.9
		c0,0.6-0.3,1.2-0.8,1.6c-0.6,0.4-1.4,0.6-2.2,0.6c-0.6,0-1.1-0.1-1.6-0.3c-0.4-0.2-0.8-0.5-1.1-0.9c-0.3-0.4-0.4-0.8-0.4-1.2h1.8
		c0,0.3,0.1,0.6,0.4,0.8c0.3,0.2,0.6,0.3,0.9,0.3c0.3,0,0.6-0.1,0.8-0.2C692.3,165.6,692.4,165.4,692.4,165.1z"/>
	<path id="Trazado_125788" class="st1" d="M79.4,111c43.9,0,79.4,18.7,79.4,41.7s-35.6,41.7-79.4,41.7S0,175.8,0,152.7
		S35.6,111,79.4,111z"/>
	<path id="Trazado_125790" class="st2" d="M39.1,148.4h-2v-9.7h2V148.4z M42.6,141.2l0.1,0.8c0.5-0.6,1.3-1,2.1-1
		c0.6,0,1.3,0.2,1.7,0.7c0.4,0.6,0.6,1.3,0.6,2v4.6h-1.9v-4.6c0-0.3-0.1-0.6-0.3-0.9c-0.2-0.2-0.6-0.3-0.9-0.3c-0.5,0-1,0.2-1.2,0.7
		v5.1h-1.9v-7.2H42.6z M50.7,139.4v1.8H52v1.4h-1.2v3.6c0,0.2,0,0.4,0.2,0.6c0.2,0.1,0.4,0.2,0.6,0.2c0.2,0,0.4,0,0.6,0v1.5
		c-0.4,0.1-0.8,0.2-1.2,0.2c-1,0.1-1.9-0.6-2.1-1.6c0-0.2,0-0.3,0-0.5v-3.9h-1.1v-1.4h1.1v-1.8H50.7z M56.3,148.5
		c-1,0-1.9-0.3-2.6-1c-0.7-0.7-1-1.6-1-2.6v-0.2c0-0.7,0.1-1.3,0.4-1.9c0.3-0.5,0.7-1,1.2-1.3c0.5-0.3,1.1-0.5,1.8-0.5
		c0.9,0,1.7,0.3,2.3,0.9c0.6,0.7,0.9,1.7,0.9,2.6v0.8h-4.6c0,0.4,0.2,0.8,0.6,1.1c0.3,0.3,0.8,0.4,1.2,0.4c0.7,0,1.3-0.3,1.7-0.8
		l0.9,1.1c-0.3,0.4-0.7,0.7-1.2,1C57.5,148.4,56.9,148.6,56.3,148.5z M56.1,142.6c-0.4,0-0.7,0.1-0.9,0.4c-0.3,0.3-0.4,0.7-0.5,1.1
		h2.7V144c0-0.4-0.1-0.7-0.3-1C56.8,142.7,56.5,142.6,56.1,142.6L56.1,142.6z M64.4,143c-0.2,0-0.5-0.1-0.7-0.1
		c-0.6-0.1-1.2,0.2-1.4,0.7v4.7h-1.9v-7.2h1.8l0.1,0.9c0.3-0.6,0.9-1,1.6-1c0.2,0,0.4,0,0.6,0.1L64.4,143z M71.8,144.9
		c0,0.9-0.2,1.9-0.8,2.7c-0.5,0.7-1.2,1-2,1c-0.7,0-1.3-0.3-1.8-0.8v3.4h-1.9v-10h1.8l0.1,0.7c0.4-0.5,1.1-0.9,1.8-0.8
		c0.8,0,1.6,0.3,2.1,1C71.6,142.9,71.9,143.8,71.8,144.9L71.8,144.9z M69.9,144.7c0-0.5-0.1-1.1-0.4-1.5c-0.2-0.4-0.6-0.6-1-0.5
		c-0.5,0-1,0.2-1.2,0.7v2.9c0.2,0.5,0.7,0.8,1.3,0.7C69.5,147,69.9,146.2,69.9,144.7L69.9,144.7z M77.1,143c-0.2,0-0.5-0.1-0.7-0.1
		c-0.6-0.1-1.2,0.2-1.4,0.7v4.7H73v-7.2h1.8l0.1,0.9c0.3-0.6,0.9-1,1.6-1c0.2,0,0.4,0,0.6,0.1L77.1,143z M81.2,148.5
		c-1,0-1.9-0.3-2.6-1c-0.7-0.7-1-1.6-1-2.6v-0.2c0-0.7,0.1-1.3,0.4-1.9c0.3-0.5,0.7-1,1.2-1.3c0.5-0.3,1.1-0.5,1.7-0.5
		c0.9,0,1.7,0.3,2.3,0.9c0.6,0.7,0.9,1.7,0.9,2.6v0.8h-4.6c0,0.4,0.2,0.8,0.6,1.1c0.3,0.3,0.8,0.4,1.2,0.4c0.7,0,1.3-0.3,1.7-0.8
		l0.9,1.1c-0.3,0.4-0.7,0.7-1.2,1C82.3,148.4,81.7,148.6,81.2,148.5L81.2,148.5z M81,142.6c-0.4,0-0.7,0.1-0.9,0.4
		c-0.3,0.3-0.4,0.7-0.5,1.1h2.7V144c0-0.4-0.1-0.7-0.3-1C81.7,142.7,81.3,142.6,81,142.6L81,142.6z M87.5,139.4v1.8h1.2v1.4h-1.2
		v3.6c0,0.2,0,0.4,0.2,0.6c0.2,0.1,0.4,0.2,0.6,0.2c0.2,0,0.4,0,0.6,0v1.5c-0.4,0.1-0.8,0.2-1.2,0.2c-1,0.1-1.9-0.6-2.1-1.6
		c0-0.2,0-0.3,0-0.5v-3.9h-1.1v-1.4h1.1v-1.8L87.5,139.4z M94,148.4c-0.1-0.2-0.2-0.4-0.2-0.6c-0.5,0.5-1.1,0.8-1.8,0.8
		c-0.6,0-1.3-0.2-1.8-0.6c-0.5-0.4-0.7-0.9-0.7-1.5c0-0.7,0.3-1.4,0.9-1.8c0.7-0.5,1.6-0.7,2.5-0.6h0.9v-0.4c0-0.3-0.1-0.6-0.3-0.8
		c-0.2-0.2-0.5-0.3-0.8-0.3c-0.3,0-0.5,0.1-0.8,0.2c-0.2,0.2-0.3,0.4-0.3,0.6h-1.9c0-0.4,0.1-0.8,0.4-1.2c0.3-0.4,0.7-0.7,1.1-0.8
		c0.5-0.2,1-0.3,1.6-0.3c0.8,0,1.5,0.2,2.1,0.7c0.5,0.5,0.8,1.2,0.8,1.9v3.1c0,0.5,0.1,1.1,0.3,1.5v0.1H94z M92.4,147.1
		c0.3,0,0.5-0.1,0.8-0.2c0.2-0.1,0.4-0.3,0.5-0.5v-1.2H93c-1,0-1.5,0.3-1.5,1l0,0.1c0,0.2,0.1,0.4,0.3,0.6
		C91.9,147,92.2,147.1,92.4,147.1L92.4,147.1z M100.1,147c0.3,0,0.6-0.1,0.9-0.3c0.2-0.2,0.3-0.5,0.3-0.8h1.8c0,0.5-0.1,0.9-0.4,1.3
		c-0.3,0.4-0.6,0.7-1.1,0.9c-0.5,0.2-1,0.3-1.5,0.3c-0.9,0-1.8-0.3-2.4-1c-0.6-0.8-0.9-1.7-0.9-2.7v-0.1c0-1,0.3-1.9,0.9-2.6
		c0.6-0.7,1.5-1,2.4-1c0.8,0,1.6,0.2,2.2,0.8c0.6,0.5,0.9,1.3,0.8,2h-1.8c0-0.3-0.1-0.7-0.3-0.9c-0.5-0.5-1.3-0.5-1.8,0.1
		c0,0,0,0.1-0.1,0.1c-0.3,0.5-0.4,1-0.3,1.6v0.2c0,0.6,0.1,1.1,0.3,1.6C99.3,146.8,99.7,147,100.1,147L100.1,147z M106.3,148.4h-1.9
		v-7.2h1.9V148.4z M104.2,139.4c0-0.3,0.1-0.5,0.3-0.7c0.5-0.4,1.1-0.4,1.6,0c0.2,0.2,0.3,0.4,0.3,0.7c0,0.3-0.1,0.5-0.3,0.7
		c-0.5,0.4-1.1,0.4-1.6,0C104.3,139.9,104.2,139.6,104.2,139.4z M107.6,144.8c0-0.7,0.1-1.3,0.4-1.9c0.3-0.5,0.7-1,1.2-1.3
		c0.5-0.3,1.2-0.5,1.8-0.5c0.9,0,1.7,0.3,2.4,0.9c0.6,0.6,1,1.5,1,2.4l0,0.5c0,1-0.3,1.9-0.9,2.7c-1.4,1.3-3.6,1.3-5,0
		C107.8,146.8,107.5,145.8,107.6,144.8L107.6,144.8z M109.5,144.9c0,0.5,0.1,1.1,0.4,1.6c0.5,0.6,1.3,0.7,1.9,0.3
		c0.1-0.1,0.2-0.2,0.3-0.2c0.3-0.5,0.4-1.1,0.4-1.7c0-0.5-0.1-1.1-0.4-1.6c-0.2-0.4-0.7-0.6-1.1-0.6c-0.4,0-0.8,0.2-1.1,0.5
		C109.6,143.7,109.4,144.3,109.5,144.9L109.5,144.9z M111.3,138.2h2.1l-1.8,2.1H110L111.3,138.2z M117.3,141.2l0.1,0.8
		c0.5-0.6,1.3-1,2.1-1c0.6,0,1.3,0.2,1.7,0.7c0.4,0.6,0.6,1.3,0.6,2v4.6h-1.9v-4.6c0-0.3-0.1-0.6-0.3-0.9c-0.2-0.2-0.6-0.3-0.9-0.3
		c-0.5,0-1,0.2-1.2,0.7v5.1h-1.9v-7.2H117.3z M53.3,167.1v-9.7h3c0.8,0,1.6,0.2,2.3,0.6c0.7,0.4,1.2,1,1.6,1.6
		c0.4,0.7,0.6,1.6,0.6,2.4v0.4c0,0.8-0.2,1.7-0.6,2.4c-0.4,0.7-0.9,1.2-1.6,1.6c-0.7,0.4-1.5,0.6-2.3,0.6H53.3z M55.3,159.1v6.5h1
		c0.7,0,1.3-0.2,1.8-0.8c0.5-0.6,0.7-1.4,0.6-2.2v-0.5c0.1-0.8-0.2-1.6-0.6-2.2c-0.4-0.5-1.1-0.8-1.8-0.8L55.3,159.1z M65.3,167.3
		c-1,0-1.9-0.3-2.6-1c-0.7-0.7-1-1.6-1-2.6v-0.2c0-0.7,0.1-1.3,0.4-1.9c0.3-0.5,0.7-1,1.2-1.3c0.5-0.3,1.1-0.5,1.8-0.5
		c0.9,0,1.7,0.3,2.3,0.9c0.6,0.7,0.9,1.7,0.9,2.6v0.8h-4.6c0,0.4,0.2,0.8,0.6,1.1c0.3,0.3,0.8,0.4,1.2,0.4c0.7,0,1.3-0.3,1.7-0.8
		l0.9,1.1c-0.3,0.4-0.7,0.7-1.2,1C66.5,167.2,65.9,167.3,65.3,167.3L65.3,167.3z M65.1,161.4c-0.4,0-0.7,0.1-0.9,0.4
		c-0.3,0.3-0.4,0.7-0.5,1.1h2.7v-0.2c0-0.4-0.1-0.7-0.3-1C65.8,161.5,65.5,161.3,65.1,161.4L65.1,161.4z M72.5,163.5
		c0-1,0.2-1.9,0.8-2.7c0.5-0.7,1.3-1,2.1-1c0.7,0,1.3,0.3,1.7,0.8v-3.7H79v10.2h-1.7l-0.1-0.8c-0.4,0.6-1.1,0.9-1.8,0.9
		c-0.8,0-1.6-0.4-2-1C72.7,165.5,72.4,164.5,72.5,163.5L72.5,163.5z M74.4,163.6c0,0.5,0.1,1.1,0.4,1.5c0.2,0.4,0.6,0.6,1,0.5
		c0.5,0,1-0.3,1.3-0.8v-2.8c-0.2-0.5-0.7-0.8-1.2-0.8C74.9,161.4,74.4,162.1,74.4,163.6L74.4,163.6z M84.6,167.1
		c-0.1-0.2-0.2-0.4-0.2-0.6c-0.5,0.5-1.1,0.8-1.8,0.8c-0.6,0-1.3-0.2-1.8-0.6c-0.5-0.4-0.7-0.9-0.7-1.5c0-0.7,0.3-1.4,0.9-1.8
		c0.7-0.5,1.6-0.7,2.5-0.6h0.9v-0.4c0-0.3-0.1-0.6-0.3-0.8c-0.2-0.2-0.5-0.3-0.8-0.3c-0.3,0-0.5,0.1-0.8,0.2
		c-0.2,0.2-0.3,0.4-0.3,0.6h-1.9c0-0.4,0.1-0.8,0.4-1.2c0.3-0.4,0.7-0.7,1.1-0.8c0.5-0.2,1-0.3,1.6-0.3c0.8,0,1.5,0.2,2.1,0.7
		c0.5,0.5,0.8,1.2,0.8,1.9v3.1c0,0.5,0.1,1.1,0.3,1.5v0.1H84.6z M83,165.8c0.3,0,0.5-0.1,0.8-0.2c0.2-0.1,0.4-0.3,0.5-0.5v-1.2h-0.7
		c-1,0-1.5,0.3-1.5,1l0,0.1c0,0.2,0.1,0.4,0.3,0.6C82.5,165.7,82.8,165.8,83,165.8z M90,158.2v1.8h1.2v1.4H90v3.6
		c0,0.2,0,0.4,0.2,0.6c0.2,0.1,0.4,0.2,0.6,0.2c0.2,0,0.4,0,0.6,0v1.5c-0.4,0.1-0.8,0.2-1.2,0.2c-1,0.1-1.9-0.6-2.1-1.6
		c0-0.2,0-0.3,0-0.5v-3.9h-1.1v-1.4h1v-1.8H90z M91.8,163.5c0-0.7,0.1-1.3,0.4-1.9c0.3-0.5,0.7-1,1.2-1.3c0.5-0.3,1.2-0.5,1.8-0.5
		c0.9,0,1.7,0.3,2.4,0.9c0.6,0.6,1,1.5,1,2.4l0,0.5c0,1-0.3,1.9-0.9,2.7c-1.4,1.3-3.6,1.3-5,0C92.1,165.5,91.8,164.5,91.8,163.5
		L91.8,163.5z M93.8,163.6c0,0.5,0.1,1.1,0.4,1.6c0.5,0.6,1.3,0.7,1.9,0.3c0.1-0.1,0.2-0.2,0.3-0.2c0.3-0.5,0.4-1.1,0.4-1.7
		c0-0.5-0.1-1.1-0.4-1.6c-0.2-0.4-0.7-0.6-1.1-0.6c-0.4,0-0.8,0.2-1.1,0.5C93.9,162.4,93.7,163,93.8,163.6L93.8,163.6z M103.7,165.1
		c0-0.2-0.1-0.5-0.3-0.6c-0.4-0.2-0.7-0.3-1.1-0.4c-1.7-0.4-2.6-1.1-2.6-2.2c0-0.6,0.3-1.2,0.8-1.6c0.6-0.4,1.3-0.7,2.1-0.6
		c0.8,0,1.6,0.2,2.2,0.6c0.5,0.4,0.8,1,0.8,1.7h-1.9c0-0.3-0.1-0.5-0.3-0.7c-0.2-0.2-0.5-0.3-0.8-0.3c-0.3,0-0.5,0.1-0.8,0.2
		c-0.2,0.1-0.3,0.3-0.3,0.6c0,0.2,0.1,0.4,0.3,0.5c0.3,0.2,0.7,0.3,1,0.3c0.4,0.1,0.8,0.2,1.2,0.3c0.9,0.2,1.5,1,1.5,1.9
		c0,0.6-0.3,1.2-0.8,1.6c-0.6,0.4-1.4,0.6-2.2,0.6c-0.6,0-1.1-0.1-1.6-0.3c-0.4-0.2-0.8-0.5-1.1-0.9c-0.3-0.4-0.4-0.8-0.4-1.2h1.8
		c0,0.3,0.1,0.6,0.4,0.8c0.3,0.2,0.6,0.3,0.9,0.3c0.3,0,0.6-0.1,0.8-0.2C103.6,165.6,103.7,165.4,103.7,165.1z"/>
	<path id="Trazado_125794" class="st1" d="M381.2,230.9c43.9,0,79.4,18.7,79.4,41.7s-35.6,41.7-79.4,41.7s-79.4-18.7-79.4-41.7
		S337.4,230.9,381.2,230.9z"/>
	<path id="Trazado_125795" class="st2" d="M354.2,266.3h-3.5l-0.7,2h-2.1l3.6-9.7h1.8l3.6,9.7h-2.1L354.2,266.3z M351.2,264.7h2.4
		l-1.2-3.6L351.2,264.7z M359.2,261.1l0.1,0.8c0.5-0.6,1.3-1,2.1-1c0.6,0,1.3,0.2,1.7,0.7c0.4,0.6,0.6,1.3,0.6,2v4.7h-1.9v-4.6
		c0-0.3-0.1-0.6-0.3-0.9c-0.2-0.2-0.6-0.3-0.9-0.3c-0.5,0-1,0.2-1.2,0.7v5.1h-1.9v-7.2L359.2,261.1z M369.2,268.3
		c-0.1-0.2-0.2-0.4-0.2-0.6c-0.5,0.5-1.1,0.8-1.8,0.8c-0.6,0-1.3-0.2-1.8-0.6c-0.5-0.4-0.7-0.9-0.7-1.5c0-0.7,0.3-1.4,0.9-1.8
		c0.7-0.5,1.6-0.7,2.5-0.6h0.9v-0.4c0-0.3-0.1-0.6-0.3-0.8c-0.2-0.2-0.5-0.3-0.8-0.3c-0.3,0-0.5,0.1-0.8,0.2
		c-0.2,0.2-0.3,0.4-0.3,0.6h-1.9c0-0.4,0.1-0.8,0.4-1.2c0.3-0.4,0.7-0.7,1.1-0.8c0.5-0.2,1-0.3,1.6-0.3c0.8,0,1.5,0.2,2.1,0.7
		c0.5,0.5,0.8,1.2,0.8,1.9v3.1c0,0.5,0.1,1.1,0.3,1.5v0.1H369.2z M367.7,267c0.3,0,0.5-0.1,0.8-0.2c0.2-0.1,0.4-0.3,0.5-0.5v-1.2
		h-0.7c-1,0-1.5,0.3-1.5,1l0,0.1c0,0.2,0.1,0.4,0.3,0.6C367.2,266.9,367.4,267,367.7,267z M368.4,258.1h2.1l-1.8,2.1h-1.6
		L368.4,258.1z M374.4,268.3h-1.9v-10.2h1.9V268.3z M378,268.3h-1.9v-7.2h1.9L378,268.3z M376,259.3c0-0.3,0.1-0.5,0.3-0.7
		c0.5-0.4,1.1-0.4,1.6,0c0.2,0.2,0.3,0.4,0.3,0.7c0,0.3-0.1,0.5-0.3,0.7c-0.5,0.4-1.1,0.4-1.6,0C376.1,259.8,376,259.5,376,259.3
		L376,259.3z M383.5,266.3c0-0.2-0.1-0.5-0.3-0.6c-0.4-0.2-0.7-0.3-1.1-0.4c-1.7-0.4-2.6-1.1-2.6-2.2c0-0.6,0.3-1.2,0.8-1.6
		c0.6-0.4,1.3-0.7,2.1-0.6c0.8,0,1.6,0.2,2.2,0.6c0.5,0.4,0.8,1,0.8,1.7h-1.9c0-0.3-0.1-0.5-0.3-0.7c-0.2-0.2-0.5-0.3-0.8-0.3
		c-0.3,0-0.5,0.1-0.8,0.2c-0.2,0.1-0.3,0.3-0.3,0.6c0,0.2,0.1,0.4,0.3,0.5c0.3,0.2,0.7,0.3,1,0.3c0.4,0.1,0.8,0.2,1.2,0.3
		c0.9,0.2,1.5,1,1.5,1.9c0,0.6-0.3,1.2-0.8,1.6c-0.6,0.4-1.4,0.6-2.2,0.6c-0.6,0-1.1-0.1-1.6-0.3c-0.4-0.2-0.8-0.5-1.1-0.9
		c-0.3-0.4-0.4-0.8-0.4-1.2h1.8c0,0.3,0.1,0.6,0.4,0.8c0.3,0.2,0.6,0.3,0.9,0.3c0.3,0,0.6-0.1,0.8-0.2
		C383.4,266.8,383.5,266.6,383.5,266.3L383.5,266.3z M388.6,268.3h-1.9v-7.2h1.9V268.3z M386.6,259.3c0-0.3,0.1-0.5,0.3-0.7
		c0.5-0.4,1.1-0.4,1.6,0c0.2,0.2,0.3,0.4,0.3,0.7c0,0.3-0.1,0.5-0.3,0.7c-0.5,0.4-1.1,0.4-1.6,0
		C386.7,259.8,386.6,259.5,386.6,259.3L386.6,259.3z M394.1,266.3c0-0.2-0.1-0.5-0.3-0.6c-0.4-0.2-0.7-0.3-1.1-0.4
		c-1.7-0.4-2.6-1.1-2.6-2.2c0-0.6,0.3-1.2,0.8-1.6c0.6-0.4,1.3-0.7,2.1-0.6c0.8,0,1.6,0.2,2.2,0.6c0.5,0.4,0.8,1,0.8,1.7H394
		c0-0.3-0.1-0.5-0.3-0.7c-0.2-0.2-0.5-0.3-0.8-0.3c-0.3,0-0.5,0.1-0.8,0.2c-0.2,0.1-0.3,0.3-0.3,0.6c0,0.2,0.1,0.4,0.3,0.5
		c0.3,0.2,0.7,0.3,1,0.3c0.4,0.1,0.8,0.2,1.2,0.3c0.9,0.2,1.5,1,1.5,1.9c0,0.6-0.3,1.2-0.8,1.6c-0.6,0.4-1.4,0.6-2.2,0.6
		c-0.6,0-1.1-0.1-1.6-0.3c-0.4-0.2-0.8-0.5-1.1-0.9c-0.3-0.4-0.4-0.8-0.4-1.2h1.8c0,0.3,0.1,0.6,0.4,0.8c0.3,0.2,0.6,0.3,0.9,0.3
		c0.3,0,0.6-0.1,0.8-0.2C394,266.8,394.1,266.6,394.1,266.3L394.1,266.3z M400.3,264.7c0-1,0.2-1.9,0.8-2.7c0.5-0.7,1.3-1,2.1-1
		c0.7,0,1.3,0.3,1.7,0.8v-3.7h1.9v10.2h-1.7l-0.1-0.8c-0.4,0.6-1.1,0.9-1.8,0.9c-0.8,0-1.6-0.4-2-1
		C400.5,266.6,400.2,265.7,400.3,264.7L400.3,264.7z M402.2,264.8c0,0.5,0.1,1.1,0.4,1.6c0.2,0.4,0.6,0.6,1,0.5c0.5,0,1-0.3,1.3-0.8
		v-2.8c-0.2-0.5-0.7-0.8-1.2-0.8C402.7,262.6,402.2,263.3,402.2,264.8L402.2,264.8z M411.6,268.5c-1,0-1.9-0.3-2.6-1
		c-0.7-0.7-1-1.6-1-2.6v-0.2c0-0.7,0.1-1.3,0.4-1.9c0.3-0.5,0.7-1,1.2-1.3c0.5-0.3,1.1-0.5,1.8-0.5c0.9,0,1.7,0.3,2.3,0.9
		c0.6,0.7,0.9,1.7,0.9,2.6v0.8H410c0,0.4,0.2,0.8,0.6,1.1c0.3,0.3,0.8,0.4,1.2,0.4c0.7,0,1.3-0.3,1.7-0.8l0.9,1.1
		c-0.3,0.4-0.7,0.7-1.2,1C412.7,268.4,412.2,268.5,411.6,268.5L411.6,268.5z M411.4,262.6c-0.4,0-0.7,0.1-0.9,0.4
		c-0.3,0.3-0.4,0.7-0.5,1.1h2.7v-0.2c0-0.4-0.1-0.7-0.3-1C412.1,262.7,411.7,262.5,411.4,262.6z M364.6,287.1v-9.7h3
		c0.8,0,1.6,0.2,2.3,0.6c0.7,0.4,1.2,1,1.6,1.6c0.4,0.7,0.6,1.6,0.6,2.4v0.4c0,0.8-0.2,1.7-0.6,2.4c-0.4,0.7-0.9,1.2-1.6,1.6
		c-0.7,0.4-1.5,0.6-2.3,0.6H364.6z M366.6,279v6.5h1c0.7,0,1.3-0.2,1.8-0.8c0.5-0.6,0.7-1.4,0.6-2.2V282c0.1-0.8-0.2-1.6-0.6-2.2
		c-0.4-0.5-1.1-0.8-1.8-0.8H366.6z M377.5,287.1c-0.1-0.2-0.2-0.4-0.2-0.6c-0.5,0.5-1.1,0.8-1.8,0.8c-0.6,0-1.3-0.2-1.8-0.6
		c-0.5-0.4-0.7-0.9-0.7-1.5c0-0.7,0.3-1.4,0.9-1.8c0.7-0.5,1.6-0.7,2.5-0.6h0.9v-0.4c0-0.3-0.1-0.6-0.3-0.8
		c-0.2-0.2-0.5-0.3-0.8-0.3c-0.3,0-0.5,0.1-0.8,0.2c-0.2,0.2-0.3,0.4-0.3,0.6h-1.9c0-0.4,0.1-0.8,0.4-1.2c0.3-0.4,0.7-0.7,1.1-0.8
		c0.5-0.2,1-0.3,1.6-0.3c0.8,0,1.5,0.2,2.1,0.7c0.5,0.5,0.8,1.2,0.8,1.9v3.1c0,0.5,0.1,1.1,0.3,1.5v0.1H377.5z M375.9,285.7
		c0.3,0,0.5-0.1,0.8-0.2c0.2-0.1,0.4-0.3,0.5-0.5v-1.2h-0.7c-1,0-1.5,0.3-1.5,1l0,0.1c0,0.2,0.1,0.4,0.3,0.6
		C375.4,285.7,375.7,285.7,375.9,285.7z M382.9,278.1v1.8h1.2v1.4h-1.2v3.6c0,0.2,0,0.4,0.2,0.6c0.2,0.1,0.4,0.2,0.6,0.2
		c0.2,0,0.4,0,0.6,0v1.5c-0.4,0.1-0.8,0.2-1.2,0.2c-1,0.1-1.9-0.6-2.1-1.6c0-0.2,0-0.3,0-0.5v-3.9H380v-1.4h1.1v-1.8H382.9z
		 M384.7,283.4c0-0.7,0.1-1.3,0.4-1.9c0.3-0.5,0.7-1,1.2-1.3c0.5-0.3,1.2-0.5,1.8-0.5c0.9,0,1.7,0.3,2.4,0.9c0.6,0.6,1,1.5,1,2.4
		l0,0.5c0,1-0.3,1.9-0.9,2.7c-1.4,1.3-3.6,1.3-5,0C385,285.4,384.7,284.5,384.7,283.4L384.7,283.4z M386.7,283.5
		c0,0.5,0.1,1.1,0.4,1.6c0.5,0.6,1.3,0.7,1.9,0.3c0.1-0.1,0.2-0.2,0.3-0.2c0.3-0.5,0.4-1.1,0.4-1.7c0-0.5-0.1-1.1-0.4-1.6
		c-0.2-0.4-0.7-0.6-1.1-0.6c-0.4,0-0.8,0.2-1.1,0.5C386.8,282.4,386.6,282.9,386.7,283.5L386.7,283.5z M396.6,285.1
		c0-0.2-0.1-0.5-0.3-0.6c-0.4-0.2-0.7-0.3-1.1-0.4c-1.7-0.4-2.6-1.1-2.6-2.2c0-0.6,0.3-1.2,0.8-1.6c0.6-0.4,1.3-0.7,2.1-0.6
		c0.8,0,1.6,0.2,2.2,0.6c0.5,0.4,0.8,1,0.8,1.7h-1.9c0-0.3-0.1-0.5-0.3-0.7c-0.2-0.2-0.5-0.3-0.8-0.3c-0.3,0-0.5,0.1-0.8,0.2
		c-0.2,0.1-0.3,0.3-0.3,0.6c0,0.2,0.1,0.4,0.3,0.5c0.3,0.2,0.7,0.3,1,0.3c0.4,0.1,0.8,0.2,1.2,0.3c0.9,0.2,1.5,1,1.5,1.9
		c0,0.6-0.3,1.2-0.8,1.6c-0.6,0.4-1.4,0.6-2.2,0.6c-0.6,0-1.1-0.1-1.6-0.3c-0.4-0.2-0.8-0.5-1.1-0.9c-0.3-0.4-0.4-0.8-0.4-1.2h1.8
		c0,0.3,0.1,0.6,0.4,0.8c0.3,0.2,0.6,0.3,0.9,0.3c0.3,0,0.6-0.1,0.8-0.2C396.5,285.5,396.6,285.3,396.6,285.1z"/>
</g>
<path id="Trazado_125789" class="st3" d="M381.5,122.9c47.6,0,86.1,20.3,86.1,45.3s-38.6,45.3-86.1,45.3s-86.1-20.3-86.1-45.3
	S333.9,122.9,381.5,122.9z"/>
<path id="Trazado_125791" class="st2" d="M337.1,176.9v-15.3h5.4c1.5-0.1,3,0.3,4.2,1.1c1,0.7,1.5,1.9,1.4,3.1c0,0.7-0.2,1.4-0.6,2
	c-0.4,0.6-1,1-1.6,1.3c0.7,0.2,1.4,0.6,1.9,1.2c0.5,0.6,0.7,1.4,0.7,2.2c0.1,1.3-0.4,2.5-1.4,3.3c-1.2,0.8-2.6,1.2-4,1.2H337.1z
	 M340.2,170.2v4.1h2.7c0.6,0,1.2-0.2,1.7-0.5c0.4-0.4,0.7-0.9,0.6-1.5c0-1.4-0.7-2.1-2.2-2.1L340.2,170.2z M340.2,168h2.3
	c1.6,0,2.4-0.7,2.4-1.9c0.1-0.6-0.2-1.1-0.6-1.5c-0.6-0.3-1.2-0.5-1.9-0.5h-2.2V168z M354.2,176.9H351v-15.3h3.2V176.9z
	 M369.2,174.9c-0.6,0.7-1.5,1.3-2.4,1.6c-1.1,0.4-2.3,0.6-3.4,0.6c-1.2,0-2.4-0.3-3.5-0.9c-1-0.6-1.8-1.5-2.3-2.5
	c-0.6-1.2-0.9-2.5-0.8-3.9v-1c0-1.4,0.2-2.7,0.8-4c0.5-1.1,1.2-2,2.2-2.6c1-0.6,2.2-0.9,3.4-0.9c1.5-0.1,3,0.4,4.3,1.3
	c1.1,1,1.7,2.3,1.8,3.8h-3.1c-0.1-0.7-0.4-1.4-0.9-1.9c-0.6-0.4-1.3-0.7-2-0.6c-1-0.1-1.9,0.4-2.4,1.2c-0.6,1.1-0.9,2.3-0.9,3.6v1
	c-0.1,1.3,0.2,2.6,0.9,3.6c0.6,0.8,1.6,1.3,2.7,1.2c0.9,0.1,1.8-0.2,2.5-0.8v-2.6h-2.9v-2.3h6L369.2,174.9z M377.1,176.9v-15.3h4.7
	c1.3,0,2.5,0.3,3.6,0.9c1.1,0.6,1.9,1.5,2.5,2.6c0.6,1.2,0.9,2.5,0.9,3.8v0.7c0,1.3-0.3,2.6-0.9,3.8c-0.6,1.1-1.4,2-2.5,2.6
	c-1.1,0.6-2.3,0.9-3.6,0.9H377.1z M380.2,164.1v10.2h1.5c1.1,0.1,2.1-0.4,2.8-1.2c0.7-1,1.1-2.2,1-3.5v-0.8c0.1-1.3-0.3-2.5-1-3.5
	c-0.7-0.8-1.7-1.3-2.8-1.2H380.2z M399.5,173.7H394l-1.1,3.2h-3.4l5.7-15.3h2.9l5.7,15.3h-3.4L399.5,173.7z M394.8,171.2h3.8
	l-1.9-5.7L394.8,171.2z M415.6,164.1h-4.7v12.7h-3.2v-12.7h-4.6v-2.6h12.5L415.6,164.1z M424.8,173.7h-5.5l-1.1,3.2h-3.4l5.7-15.3
	h2.9l5.7,15.3h-3.4L424.8,173.7z M420.1,171.2h3.8l-1.9-5.7L420.1,171.2z"/>
<g id="Grupo_84835" transform="translate(5718.978 13486.874)">
	<g id="Grupo_84781" transform="translate(-4942.322 -7367.854)">
		<rect id="Rectángulo_34062" x="-412.5" y="-6015.3" class="st4" width="38.7" height="10.5"/>
		<rect id="Rectángulo_34063" x="-412.5" y="-6006.4" class="st4" width="38.7" height="10.5"/>
	</g>
	<g id="Grupo_84782" transform="translate(-4922.979 -7367.854)">
		<rect id="Rectángulo_34065" x="-412.5" y="-6015.3" class="st5" width="19.3" height="10.5"/>
		<rect id="Rectángulo_34066" x="-412.5" y="-6006.4" class="st5" width="19.3" height="10.5"/>
	</g>
	<path id="Trazado_126001" class="st6" d="M-5357.8-13380.7h44.6v13.3h-44.6V-13380.7z"/>
	<g id="Grupo_84783" transform="translate(-4941.255 -7360.099)">
		<rect id="Rectángulo_34074" x="-412.5" y="-6015.3" class="st2" width="2.5" height="2.6"/>
		<rect id="Rectángulo_34075" x="-407.9" y="-6015.3" class="st2" width="2.5" height="2.6"/>
	</g>
	<g id="Grupo_84784" transform="translate(-4922.979 -7365.403)">
		<rect id="Rectángulo_34078" x="-412.5" y="-6015.3" class="st7" width="22.3" height="13.3"/>
	</g>
	<g id="Grupo_84785" transform="translate(-4942.322 -7347.871)">
		<rect id="Rectángulo_34062-2" x="-412.5" y="-6015.3" class="st4" width="38.7" height="10.5"/>
		<rect id="Rectángulo_34063-2" x="-412.5" y="-6006.4" class="st4" width="38.7" height="10.5"/>
	</g>
	<g id="Grupo_84786" transform="translate(-4922.979 -7347.871)">
		<rect id="Rectángulo_34065-2" x="-412.5" y="-6015.3" class="st5" width="19.3" height="10.5"/>
		<rect id="Rectángulo_34066-2" x="-412.5" y="-6006.4" class="st5" width="19.3" height="10.5"/>
	</g>
	<path id="Trazado_126002" class="st6" d="M-5357.8-13360.7h44.6v13.3h-44.6V-13360.7z"/>
	<g id="Grupo_84787" transform="translate(-4941.255 -7340.116)">
		<rect id="Rectángulo_34074-2" x="-412.5" y="-6015.3" class="st2" width="2.5" height="2.6"/>
		<rect id="Rectángulo_34075-2" x="-407.9" y="-6015.3" class="st2" width="2.5" height="2.6"/>
	</g>
	<g id="Grupo_84788" transform="translate(-4922.979 -7345.419)">
		<rect id="Rectángulo_34078-2" x="-412.5" y="-6015.3" class="st7" width="22.3" height="13.3"/>
	</g>
</g>
</svg>
