<svg xmlns="http://www.w3.org/2000/svg" xmlns:xlink="http://www.w3.org/1999/xlink" width="277.65" height="273.193" viewBox="0 0 277.65 273.193">
  <defs>
    <clipPath id="clip-path">
      <path id="Trazado_104938" data-name="Trazado 104938" d="M580.008,91.984l20.728-10.738s-1.959-8.506-5.364-13.037a50.224,50.224,0,0,0-6.539-7.231L583.7,64.533l1.178,4.964-6.278,4.1.519,2.844-6.04,3.729Z" transform="translate(-573.077 -60.977)" fill="none"/>
    </clipPath>
  </defs>
  <g id="Grupo_84051" data-name="Grupo 84051" transform="translate(3656 9447)">
    <g id="Grupo_83823" data-name="Grupo 83823" transform="translate(-4408.901 -10653)">
      <g id="Grupo_83821" data-name="Grupo 83821" transform="translate(752.901 1206)">
        <path id="Trazado_104412" data-name="Trazado 104412" d="M2258.684,363.4c1.551,18.626,15.473,28.892,30.645,37.443,23.019,12.972,51.382,10.679,75.562,2.409,19.412-6.64,38.7-15.547,59.219-15.515,19.3.03,38.62,8.037,57.476,3.921a46.686,46.686,0,0,0,33.419-29.5c9.187-26.025-11.28-49.911-16.144-74.73-4.349-22.2,3.761-44.646,9.121-66.62s7.282-47.466-6.972-65.028c-14.706-18.117-41.366-21.056-64.473-17.808s-45.865,11.232-69.14,9.566c-21.506-1.54-42.088-11.287-63.64-10.625a67.624,67.624,0,0,0-52.341,28.17c-22.22,31.518-8.629,67.56,6.128,98.727,6.2,13.084,10,26.47,10.2,41.134C2268.022,324.92,2257.025,343.475,2258.684,363.4Z" transform="translate(-2239.698 -136.816)" fill="#d8e5f3"/>
      </g>
    </g>
    <g id="Grupo_84050" data-name="Grupo 84050" transform="translate(-4079.594 -9449.165)">
      <path id="Trazado_104918" data-name="Trazado 104918" d="M713.921,146.39c.264-.563.555-1.114.861-1.656s.621-1.081.954-1.609c.661-1.06,1.363-2.1,2.112-3.105a49.59,49.59,0,0,1,4.96-5.741,43.964,43.964,0,0,1,5.955-4.965,39.123,39.123,0,0,1,3.378-2.087,35.554,35.554,0,0,1,3.655-1.736,31.131,31.131,0,0,1,8.047-2.089,29.669,29.669,0,0,1,8.536.228,32.882,32.882,0,0,1,8.135,2.55,37.644,37.644,0,0,1,3.712,1.964c.3.179.595.359.887.545s.581.375.869.566c.581.385,1.171.779,1.746,1.2s1.142.87,1.7,1.342,1.108.963,1.635,1.493,1.046,1.08,1.544,1.66.969,1.2,1.419,1.837a22.65,22.65,0,0,1,2.322,4.179,21.478,21.478,0,0,1,1.372,4.685,21.77,21.77,0,0,1,.279,4.814,23.985,23.985,0,0,1-.693,4.588,29.967,29.967,0,0,1-3.36,7.976,39.935,39.935,0,0,1-4.873,6.479,48.31,48.31,0,0,1-5.743,5.3,51.081,51.081,0,0,1-6.37,4.279c-1.109.628-2.239,1.214-3.4,1.747a32.666,32.666,0,0,1-3.554,1.412c.751-1.039,1.509-2.033,2.246-3.034s1.469-1.984,2.185-2.971c1.429-1.973,2.812-3.932,4.113-5.9s2.525-3.936,3.625-5.91a49.736,49.736,0,0,0,2.849-5.912,26.114,26.114,0,0,0,1.619-5.723,16.355,16.355,0,0,0,.2-2.656,13.281,13.281,0,0,0-.259-2.461c-.086-.394-.175-.784-.3-1.168s-.261-.76-.415-1.137a14.057,14.057,0,0,0-1.18-2.221c-.234-.367-.5-.726-.772-1.086s-.569-.718-.882-1.071-.644-.7-.989-1.049-.713-.682-1.085-1.023-.762-.672-1.171-1-.84-.64-1.269-.94c-.852-.611-1.734-1.156-2.622-1.674a26.1,26.1,0,0,0-5.578-2.4,23.231,23.231,0,0,0-5.987-.94,25.724,25.724,0,0,0-3.116.115c-.524.052-1.05.122-1.577.206s-1.056.179-1.586.293a35.994,35.994,0,0,0-6.333,2.032,50.706,50.706,0,0,0-6.185,3.149,69.638,69.638,0,0,0-5.943,3.98C717.66,143.2,715.758,144.728,713.921,146.39Z" transform="translate(-114.954 -47.272)" fill="#d8e5ee"/>
      <path id="Trazado_104919" data-name="Trazado 104919" d="M474.89,191.1c-5-6.264-7.157-15.427-5.779-24.51l.318-2.1,3.073,1.149-1.38-8.238-6.444,5.313,2.609.976-.258,1.418a38.425,38.425,0,0,0-.061,13.408,31.139,31.139,0,0,0,6.124,14.017c3.9,4.891,11.4,10.72,24.98,10.72v-2.3C487.906,200.957,480.106,197.642,474.89,191.1Z" transform="translate(-0.954 -62.918)" fill="#eaeefa" stroke="#292739" stroke-linecap="round" stroke-linejoin="round" stroke-width="1.273"/>
      <g id="Grupo_83984" data-name="Grupo 83984" transform="translate(471.324 43.202)">
        <path id="Trazado_104920" data-name="Trazado 104920" d="M495.927,121.7a34.418,34.418,0,0,0,.637,6.514c.88,3.2,2.269,6.093,2.668,9.444.473,3.971-.2,8.241-2.681,11.377-2.25,2.842-5.682,4.435-8.561,6.639a23.781,23.781,0,0,0,6.262,41.206c4.056,1.488,8.458,1.853,12.509,3.358,9.852,3.662,18.492,9.25,25.158,17.524,3.662,4.545,6.594,9.659,10.453,14.036,5.775,6.551,13.9,9.361,22.219,11.161a84.767,84.767,0,0,0,48.023-3.712c8.674-3.337,17.814-8.782,22.059-17.427,4.4-8.958-.791-20.324,4.644-29.291,4.041-6.668,12.366-9.287,17.983-14.7a23.591,23.591,0,0,0,7.132-17.257c-.25-12.124-11.081-21.9-19.931-28.873-3.477-2.739-7.543-5.326-9.708-9.325-2.2-4.065-2.743-9.384-4.242-13.78-3.484-10.224-8.668-19.98-16.014-27.963-9.4-10.218-22.594-17.341-36.474-17.726a40.971,40.971,0,0,0-15.978,2.81c-3.861,1.507-9.553,3.686-11.763,7.344-1.289,2.134-2.068,4.582-3.631,6.525-3.7,4.6-10.551,5.029-16.367,4.032s-11.673-3.035-17.475-1.964c-6.862,1.268-12.366,6.855-15.045,13.3s-2.905,13.646-2.35,20.6C495.617,117.564,495.763,119.623,495.927,121.7Z" transform="translate(-478.683 -62.892)" fill="#a4d2f3"/>
        <g id="Grupo_83983" data-name="Grupo 83983" transform="translate(3.115 4.345)">
          <circle id="Elipse_4222" data-name="Elipse 4222" cx="65.417" cy="65.417" r="65.417" transform="translate(25.15 23.083)" fill="#eaeefa"/>
          <circle id="Elipse_4223" data-name="Elipse 4223" cx="65.418" cy="65.418" r="65.418" transform="translate(0 92.514) rotate(-45)" fill="#fff"/>
        </g>
      </g>
      <g id="Grupo_83988" data-name="Grupo 83988" transform="translate(531.874 78.561)">
        <g id="Grupo_83985" data-name="Grupo 83985" transform="translate(0 13.631)">
          <path id="Trazado_104921" data-name="Trazado 104921" d="M626.225,153.176,590.273,180.6l5.778,44.85,41.73,17.421,35.952-27.428-5.778-44.85Z" transform="translate(-590.273 -153.176)" fill="#eaeefa"/>
          <circle id="Elipse_4224" data-name="Elipse 4224" cx="24.036" cy="24.036" r="24.036" transform="translate(10.928 30.471) rotate(-19.976)" fill="#fff"/>
        </g>
        <g id="Grupo_83986" data-name="Grupo 83986" transform="translate(12.54 23.544)">
          <path id="Trazado_104922" data-name="Trazado 104922" d="M616.067,172.009a1.508,1.508,0,1,1-2.12-.233A1.508,1.508,0,0,1,616.067,172.009Z" transform="translate(-613.383 -171.445)" fill="#fff" stroke="#292739" stroke-linecap="round" stroke-linejoin="round" stroke-width="1.273"/>
          <path id="Trazado_104923" data-name="Trazado 104923" d="M630.34,186.318a1.287,1.287,0,1,1-1.81-.2A1.287,1.287,0,0,1,630.34,186.318Z" transform="translate(-620.091 -178.027)" fill="#79a2e4"/>
        </g>
        <g id="Grupo_83987" data-name="Grupo 83987" transform="translate(13.479)">
          <path id="Trazado_104924" data-name="Trazado 104924" d="M652.612,133.981a.343.343,0,0,1-.246-.1c-3.639-3.683-10.207-5.487-18.5-5.08-6.707.33-14.038,2.167-18.241,4.57a.345.345,0,1,1-.343-.6c8.108-4.637,29.048-8,37.57.623a.346.346,0,0,1-.246.588Z" transform="translate(-615.114 -128.056)" fill="#292739"/>
          <path id="Trazado_104925" data-name="Trazado 104925" d="M654.972,138.085a.343.343,0,0,1-.224-.082c-6.644-5.632-21.852-4.28-27.52-.476a.345.345,0,0,1-.385-.574c3.023-2.029,8.353-3.338,13.911-3.416,6.126-.087,11.387,1.349,14.441,3.939a.345.345,0,0,1-.223.609Z" transform="translate(-620.409 -130.561)" fill="#292739"/>
        </g>
      </g>
      <path id="Trazado_104926" data-name="Trazado 104926" d="M660.905,383.851c-1.685-1.891-4.574-3.366-7.649-4.6-11.764-4.726-26.548-6.411-40.951-7.367-10.378-.689-20.815-1.06-31.245-1.43-27.852-.99-55.582-3.314-83.114.423-7.649,1.038-18.095,3.423-17.526,8.784.292,2.754,4.3,5.053,8.9,6.068s9.721.981,14.663.8a108.285,108.285,0,0,1,14.817-.015c2.423.244,5.28,1.067,5.1,2.435-.143,1.117-2.254,1.794-3.221,2.775-1.426,1.446-.019,3.353,2.351,4.343a28.742,28.742,0,0,0,8.352,1.523,528.759,528.759,0,0,0,118.158-4.048c4.337-.633,9.055-1.481,11.379-3.617C662.893,388.114,662.591,385.742,660.905,383.851Z" transform="translate(-8.143 -159.62)" fill="#d8e5ee"/>
      <g id="Grupo_83992" data-name="Grupo 83992" transform="translate(598.688 142.961)">
        <path id="Trazado_104927" data-name="Trazado 104927" d="M806.213,246.741q.164.2.325.41c.106.14.223.276.316.426a9.061,9.061,0,0,1,.556.918,7.974,7.974,0,0,1,.778,2.086c.038.188.074.378.105.57l.05.585.011.148c0,.049,0,.1,0,.148l0,.3-.006.3c0,.1-.02.2-.03.3a7.877,7.877,0,0,1-.612,2.351,10.884,10.884,0,0,1-.537,1.1c-.1.174-.21.342-.318.513-.055.085-.107.173-.165.254l-.176.241a14.093,14.093,0,0,1-1.548,1.8,21.917,21.917,0,0,1-3.62,2.826,38.071,38.071,0,0,1-8.044,3.707c-.346.113-.693.233-1.041.339l-.522.162-.511.153-1.993.583c-1.326.373-2.644.747-3.954,1.1-2.615.725-5.2,1.416-7.682,2.18-1.241.374-2.456.778-3.623,1.195q-.877.314-1.707.657c-.555.224-1.093.456-1.6.7A16.033,16.033,0,0,0,768,274.326a7.483,7.483,0,0,0-.882.767,3.1,3.1,0,0,0-.483.634,1.559,1.559,0,0,0-.177.456,2.039,2.039,0,0,0-.034.531,4.485,4.485,0,0,0,.132.856,7.555,7.555,0,0,0,.4,1.148c.048.105.081.207.136.317l.15.326c.051.109.113.222.168.333s.112.224.176.332l.183.329c.062.11.135.221.2.332.129.222.282.446.429.671a27.694,27.694,0,0,0,2.076,2.732c.767.917,1.609,1.82,2.482,2.724s1.795,1.794,2.73,2.69c3.768,3.569,7.891,7.052,11.969,10.7,1.022.907,2.041,1.837,3.065,2.777s2.028,1.9,3.021,2.885c1.991,1.96,3.932,4,5.753,6.174.909,1.088,1.791,2.207,2.621,3.371a36.567,36.567,0,0,1,2.311,3.634,22.841,22.841,0,0,1,1.748,3.965l.154.52c.052.171.09.352.134.525.092.347.152.706.213,1.057.04.36.095.709.1,1.067a9.354,9.354,0,0,1-.012,1.055c-.138-.324-.254-.644-.415-.949-.138-.309-.316-.6-.476-.894a16.337,16.337,0,0,0-1.135-1.641c-.2-.26-.413-.516-.625-.767s-.43-.5-.663-.734l-.339-.358-.348-.351c-.227-.236-.473-.46-.708-.688-.954-.906-1.962-1.76-2.993-2.588s-2.089-1.627-3.164-2.41c-2.148-1.565-4.358-3.066-6.593-4.551-1.12-.74-2.24-1.484-3.371-2.218l-3.4-2.232c-2.28-1.5-4.558-3.039-6.824-4.646-1.131-.806-2.264-1.626-3.382-2.48-.56-.426-1.122-.854-1.678-1.295-.278-.219-.555-.443-.832-.667s-.554-.449-.83-.678a61.794,61.794,0,0,1-6.433-6.058,36.794,36.794,0,0,1-2.956-3.709c-.231-.343-.462-.682-.682-1.046-.111-.181-.224-.355-.331-.541l-.32-.562c-.109-.186-.208-.377-.307-.569s-.2-.38-.3-.578c-.189-.4-.382-.795-.552-1.222a18.077,18.077,0,0,1-.895-2.728,14.4,14.4,0,0,1-.408-3.188,12.5,12.5,0,0,1,.46-3.513,11.786,11.786,0,0,1,1.481-3.265,13.779,13.779,0,0,1,2.112-2.513,16.336,16.336,0,0,1,2.294-1.8,24.245,24.245,0,0,1,4.547-2.3,39.237,39.237,0,0,1,4.382-1.414c1.437-.39,2.858-.689,4.264-.969,2.813-.538,5.575-.931,8.308-1.264,1.365-.173,2.723-.319,4.072-.475l2.017-.224.968-.11c.32-.033.634-.079.952-.119a42.235,42.235,0,0,0,7.395-1.6,20.868,20.868,0,0,0,3.354-1.42,12.258,12.258,0,0,0,1.476-.95l.175-.13c.057-.044.108-.092.163-.138l.327-.28a7.687,7.687,0,0,0,.589-.61l.142-.161c.048-.053.084-.111.128-.167.081-.113.174-.225.251-.343l.221-.364c.076-.123.129-.253.2-.381a5.615,5.615,0,0,0,.506-1.705,3.23,3.23,0,0,0,.05-.465l.017-.237.009-.12,0-.12-.011-.486c0-.164-.029-.326-.042-.492A12.93,12.93,0,0,0,806.213,246.741Z" transform="translate(-732.799 -246.741)" fill="#d8e5ee"/>
        <g id="Grupo_83991" data-name="Grupo 83991" transform="translate(0 14.184)">
          <path id="Trazado_104928" data-name="Trazado 104928" d="M800.191,287.111l.073-12.47s-2.767-3.582-9.969-.524c0,0,5.6,8.032,5.995,12.233Z" transform="translate(-748.573 -272.881)" fill="#79a2e4" stroke="#292739" stroke-linecap="round" stroke-linejoin="round" stroke-width="1.273"/>
          <g id="Grupo_83990" data-name="Grupo 83990" transform="translate(0 1.76)">
            <path id="Trazado_104929" data-name="Trazado 104929" d="M765.1,276.124,780.8,314.7s-7.133,8.882-26.654,12.515c-16.162,3.008-28.043-2.459-28.043-2.459l-12.7-34.9a44.028,44.028,0,0,0,29.668,2.223C764.128,286.469,765.1,276.124,765.1,276.124Z" transform="translate(-713.405 -276.124)" fill="#eaeefa" stroke="#292739" stroke-linecap="round" stroke-linejoin="round" stroke-width="1.273"/>
            <g id="Grupo_83989" data-name="Grupo 83989" transform="translate(17.292 12.998)">
              <rect id="Rectángulo_33904" data-name="Rectángulo 33904" width="1.421" height="27.139" transform="matrix(0.914, -0.406, 0.406, 0.914, 31.339, 0.576)" fill="#79a2e4"/>
              <rect id="Rectángulo_33905" data-name="Rectángulo 33905" width="1.421" height="27.139" transform="matrix(0.914, -0.406, 0.406, 0.914, 27.867, 2.705)" fill="#79a2e4"/>
              <rect id="Rectángulo_33906" data-name="Rectángulo 33906" width="1.421" height="23.893" transform="translate(20.604 7.444) rotate(-24.439)" fill="#79a2e4"/>
              <rect id="Rectángulo_33907" data-name="Rectángulo 33907" width="1.421" height="26.611" transform="translate(16.002 6.503) rotate(-23.062)" fill="#79a2e4"/>
              <rect id="Rectángulo_33908" data-name="Rectángulo 33908" width="1.421" height="26.053" transform="translate(12.612 7.535) rotate(-22.198)" fill="#79a2e4"/>
              <rect id="Rectángulo_33909" data-name="Rectángulo 33909" width="1.421" height="26.327" transform="translate(9.011 8.145) rotate(-21.899)" fill="#79a2e4"/>
              <rect id="Rectángulo_33910" data-name="Rectángulo 33910" width="1.421" height="18.841" transform="matrix(0.928, -0.373, 0.373, 0.928, 5.599, 14.178)" fill="#79a2e4"/>
              <rect id="Rectángulo_33911" data-name="Rectángulo 33911" width="1.421" height="25.831" transform="matrix(0.936, -0.353, 0.353, 0.936, 0, 10.699)" fill="#79a2e4"/>
              <rect id="Rectángulo_33912" data-name="Rectángulo 33912" width="1.421" height="8.736" transform="matrix(0.913, -0.407, 0.407, 0.913, 27.483, 12.336)" fill="#79a2e4"/>
            </g>
          </g>
        </g>
      </g>
      <g id="Grupo_83994" data-name="Grupo 83994" transform="translate(567.543 19.844)">
        <g id="Grupo_83993" data-name="Grupo 83993" transform="translate(0)">
          <path id="Trazado_104930" data-name="Trazado 104930" d="M665.588,23.282c1.833-1.169,5.348,1.589,7.344,1.071,2.069-.537,3.811-4.634,5.9-4.506,2.11.13,3.343,4.417,5.311,5.19,1.948.764,5.773-1.545,7.422-.186,1.591,1.311.073,5.49,1.243,7.323s5.6,2.217,6.116,4.214c.537,2.069-3.169,4.564-3.3,6.654-.13,2.11,3.238,5.036,2.466,7-.765,1.949-5.213,1.8-6.572,3.451-1.311,1.592-.292,5.943-2.125,7.113s-5.348-1.589-7.344-1.071c-2.068.537-3.81,4.634-5.9,4.506-2.11-.13-3.343-4.417-5.311-5.19-1.948-.764-5.772,1.545-7.422.186-1.592-1.311-.073-5.491-1.243-7.324s-5.6-2.217-6.116-4.213c-.537-2.07,3.169-4.565,3.3-6.654.13-2.11-3.238-5.036-2.466-7,.765-1.949,5.214-1.8,6.572-3.451C664.774,28.8,663.756,24.451,665.588,23.282Z" transform="translate(-656.007 -19.844)" fill="#d8e5ee"/>
          <ellipse id="Elipse_4225" data-name="Elipse 4225" cx="13.568" cy="13.566" rx="13.568" ry="13.566" transform="translate(5.931 33.336) rotate(-80.835)" fill="#fff"/>
        </g>
        <path id="Trazado_104931" data-name="Trazado 104931" d="M697.006,55.875a7,7,0,1,1-5.772-8.048A7,7,0,0,1,697.006,55.875Z" transform="translate(-668.395 -32.6)" fill="#d8e5ee"/>
      </g>
      <g id="Grupo_83995" data-name="Grupo 83995" transform="translate(606.979 56.953)">
        <path id="Trazado_104932" data-name="Trazado 104932" d="M777.543,105.915a13.849,13.849,0,0,0-3.2-7.281,17.3,17.3,0,0,0-6.328-4.743,15.261,15.261,0,0,0-11.717-.656,31.856,31.856,0,0,0-8.558,5.237l1.167-2.556-7.158.674L728.685,107.9l.9.664a5.515,5.515,0,0,0,1.686.845l17.576,1.01c2.458-.1,3.777-.4,5.206-1.638l-7.42-5.394c1.061-.726,2.1-1.52,3.116-2.306,4.947-3.8,9.622-7.4,16.935-4.177,4.176,1.838,7.151,5.516,7.58,9.37.568,5.1-2.433,10.2-7.644,12.99-1.1.59-2.228,1.105-3.421,1.651-1.438.658-2.926,1.339-4.354,2.157a32.02,32.02,0,0,0-12.656,13.107,29.394,29.394,0,0,0-2.916,17.993c1.176,7.65,4.311,6.339,3.26-.5-1.692-11.016,3.785-21.9,13.953-27.738,1.3-.744,2.651-1.363,4.085-2.019,1.187-.543,2.415-1.1,3.607-1.743C774.585,118.743,778.26,112.361,777.543,105.915Z" transform="translate(-728.685 -90.121)" fill="#79a2e4" stroke="#292739" stroke-linecap="round" stroke-linejoin="round" stroke-width="1.273"/>
        <path id="Trazado_104933" data-name="Trazado 104933" d="M746.685,88.233l-18,17.783,25.367.882-3.664-7.7-13.415,2.986L748.9,94.028Z" transform="translate(-728.685 -88.233)" fill="#eaeefa" stroke="#292739" stroke-linecap="round" stroke-linejoin="round" stroke-width="1.273"/>
      </g>
      <g id="Grupo_84001" data-name="Grupo 84001" transform="translate(505.978 32.47)">
        <path id="Trazado_104934" data-name="Trazado 104934" d="M542.547,57.842l29.436-14.729a100.99,100.99,0,0,1,15.206,23.024c6.181,12.6,6.28,17.265,6.28,17.265L564.953,96.558s.469-6.288-5.9-19.759S542.547,57.842,542.547,57.842Z" transform="translate(-542.547 -43.113)" fill="#eaeefa" stroke="#292739" stroke-linecap="round" stroke-linejoin="round" stroke-width="1.273"/>
        <g id="Grupo_83998" data-name="Grupo 83998" transform="translate(16.566 9.693)">
          <g id="Grupo_83997" data-name="Grupo 83997" clip-path="url(#clip-path)">
            <g id="Grupo_83996" data-name="Grupo 83996" transform="translate(0.444 -0.341)">
              <path id="Trazado_104935" data-name="Trazado 104935" d="M580.842,105.337A50.573,50.573,0,0,0,573.9,92.179l4.44-3.55a55.437,55.437,0,0,1,7.9,14.922Z" transform="translate(-573.896 -73.283)" fill="#79a2e4"/>
              <path id="Trazado_104936" data-name="Trazado 104936" d="M592.779,95.952c-1.794-5.42-5.873-13.18-8.393-15.966l4.217-3.813c3.362,3.719,7.744,12.467,9.573,17.993Z" transform="translate(-578.694 -67.586)" fill="#79a2e4"/>
              <path id="Trazado_104937" data-name="Trazado 104937" d="M604.126,85.045c-1.832-6.871-8.519-17.806-11.3-20.884l4.217-3.813c3.108,3.438,10.426,15.16,12.578,23.232Z" transform="translate(-582.553 -60.348)" fill="#79a2e4"/>
            </g>
          </g>
        </g>
        <g id="Grupo_84000" data-name="Grupo 84000" transform="translate(15.263 5.964)">
          <path id="Trazado_104939" data-name="Trazado 104939" d="M571.527,72.683a.853.853,0,0,1-.716-1.315l9.946-15.426a.853.853,0,0,1,1.433.924l-9.946,15.426A.853.853,0,0,1,571.527,72.683Z" transform="translate(-570.675 -54.766)" fill="#292739"/>
          <g id="Grupo_83999" data-name="Grupo 83999" transform="translate(6.528)">
            <path id="Trazado_104940" data-name="Trazado 104940" d="M587.566,60.164l-.862-4-4,.865,1.33-2.063,4-.863.863,4Z" transform="translate(-582.706 -54.104)" fill="#292739"/>
          </g>
        </g>
      </g>
      <g id="Grupo_84005" data-name="Grupo 84005" transform="translate(468.284 123.043)">
        <g id="Grupo_84004" data-name="Grupo 84004" transform="translate(0 0)">
          <g id="Grupo_84002" data-name="Grupo 84002">
            <circle id="Elipse_4226" data-name="Elipse 4226" cx="6.666" cy="6.666" r="6.666" transform="translate(0 13.773) rotate(-78.952)" fill="#79a2e4"/>
            <circle id="Elipse_4227" data-name="Elipse 4227" cx="6.666" cy="6.666" r="6.666" transform="translate(0.893 10.68) rotate(-53.239)" fill="#d8e5ee"/>
          </g>
          <g id="Grupo_84003" data-name="Grupo 84003" transform="translate(6.846 5.953)">
            <path id="Trazado_104941" data-name="Trazado 104941" d="M486.176,224.772l-.122,1.365,1.247.569.879,1.051,1.284-.48,1.365.122.569-1.247,1.051-.879-.48-1.284.122-1.365-1.247-.569L489.966,221l-1.284.48-1.365-.122-.569,1.247-1.051.879Z" transform="translate(-485.696 -221.003)" fill="#fff"/>
            <path id="Trazado_104942" data-name="Trazado 104942" d="M486.176,224.772l-.122,1.365,1.247.569.879,1.051,1.284-.48,1.365.122.569-1.247,1.051-.879-.48-1.284.122-1.365-1.247-.569L489.966,221l-1.284.48-1.365-.122-.569,1.247-1.051.879Z" transform="translate(-485.696 -221.003)" fill="none" stroke="#292739" stroke-linecap="round" stroke-linejoin="round" stroke-width="1.273"/>
          </g>
        </g>
      </g>
      <g id="Grupo_84011" data-name="Grupo 84011" transform="translate(476.243 85.071)">
        <g id="Grupo_84007" data-name="Grupo 84007" transform="translate(0 0)">
          <rect id="Rectángulo_33913" data-name="Rectángulo 33913" width="8.907" height="34.372" transform="matrix(0.831, 0.557, -0.557, 0.831, 19.134, 0)" fill="#a4d2f3" stroke="#292739" stroke-linecap="round" stroke-linejoin="round" stroke-width="1.273"/>
          <rect id="Rectángulo_33914" data-name="Rectángulo 33914" width="31.44" height="5.975" transform="translate(24.218 3.936) rotate(123.825)" fill="#fff"/>
          <g id="Grupo_84006" data-name="Grupo 84006" transform="translate(1.618 1.733)">
            <path id="Trazado_104943" data-name="Trazado 104943" d="M521.912,145.117a.344.344,0,0,1-.192-.059l-1.76-1.179a.346.346,0,0,1,.385-.574l1.76,1.179a.346.346,0,0,1-.193.633Z" transform="translate(-504.029 -143.247)" fill="#292739"/>
            <path id="Trazado_104944" data-name="Trazado 104944" d="M520.621,151.238a.343.343,0,0,1-.192-.058l-3.7-2.479a.346.346,0,0,1,.385-.574l3.7,2.479a.345.345,0,0,1-.193.632Z" transform="translate(-502.552 -145.452)" fill="#292739"/>
            <path id="Trazado_104945" data-name="Trazado 104945" d="M515.45,154.76a.344.344,0,0,1-.192-.059l-1.76-1.18a.346.346,0,1,1,.385-.574l1.76,1.18a.346.346,0,0,1-.193.633Z" transform="translate(-501.074 -147.657)" fill="#292739"/>
            <path id="Trazado_104946" data-name="Trazado 104946" d="M514.159,160.881a.344.344,0,0,1-.192-.059l-3.7-2.479a.346.346,0,1,1,.385-.574l3.7,2.479a.345.345,0,0,1-.193.632Z" transform="translate(-499.596 -149.863)" fill="#292739"/>
            <path id="Trazado_104947" data-name="Trazado 104947" d="M508.989,164.4a.343.343,0,0,1-.192-.058l-1.76-1.18a.346.346,0,0,1,.385-.574l1.76,1.18a.345.345,0,0,1-.193.632Z" transform="translate(-498.118 -152.068)" fill="#292739"/>
            <path id="Trazado_104948" data-name="Trazado 104948" d="M507.7,170.524a.344.344,0,0,1-.192-.059l-3.7-2.479a.346.346,0,0,1,.385-.574l3.7,2.479a.345.345,0,0,1-.193.633Z" transform="translate(-496.641 -154.273)" fill="#292739"/>
            <path id="Trazado_104949" data-name="Trazado 104949" d="M502.527,174.046a.348.348,0,0,1-.192-.058l-1.76-1.18a.346.346,0,1,1,.385-.574l1.76,1.18a.345.345,0,0,1-.193.632Z" transform="translate(-495.163 -156.478)" fill="#292739"/>
            <path id="Trazado_104950" data-name="Trazado 104950" d="M501.236,180.167a.344.344,0,0,1-.192-.059l-3.7-2.479a.345.345,0,1,1,.385-.574l3.7,2.479a.346.346,0,0,1-.193.633Z" transform="translate(-493.685 -158.684)" fill="#292739"/>
            <path id="Trazado_104951" data-name="Trazado 104951" d="M496.066,183.688a.344.344,0,0,1-.192-.059l-1.76-1.179a.346.346,0,0,1,.385-.574l1.76,1.179a.345.345,0,0,1-.192.633Z" transform="translate(-492.208 -160.889)" fill="#292739"/>
            <path id="Trazado_104952" data-name="Trazado 104952" d="M494.775,189.81a.344.344,0,0,1-.192-.059l-3.7-2.479a.346.346,0,0,1,.385-.574l3.7,2.479a.346.346,0,0,1-.193.633Z" transform="translate(-490.73 -163.094)" fill="#292739"/>
          </g>
        </g>
        <g id="Grupo_84010" data-name="Grupo 84010" transform="translate(14.162 0.021)">
          <path id="Trazado_104953" data-name="Trazado 104953" d="M547.36,159.225l-2.078-1.393-26.476-17.741-4.958,7.4,26.476,17.741,2.078,1.393,26.476,17.741,4.958-7.4Z" transform="translate(-513.847 -140.092)" fill="#a4d2f3" stroke="#292739" stroke-linecap="round" stroke-linejoin="round" stroke-width="1.273"/>
          <rect id="Rectángulo_33915" data-name="Rectángulo 33915" width="5.975" height="63.311" transform="matrix(0.557, -0.831, 0.831, 0.557, 1.753, 5.573)" fill="#fff"/>
          <g id="Grupo_84008" data-name="Grupo 84008" transform="translate(5.064 1.618)">
            <path id="Trazado_104954" data-name="Trazado 104954" d="M569.313,174.6a.345.345,0,0,1-.286-.538l1.179-1.76a.346.346,0,1,1,.574.385l-1.179,1.76A.345.345,0,0,1,569.313,174.6Z" transform="translate(-544.123 -156.373)" fill="#292739"/>
            <path id="Trazado_104955" data-name="Trazado 104955" d="M562.1,173.31a.345.345,0,0,1-.287-.538l2.479-3.7a.346.346,0,0,1,.574.385l-2.479,3.7A.345.345,0,0,1,562.1,173.31Z" transform="translate(-540.822 -154.896)" fill="#292739"/>
            <path id="Trazado_104956" data-name="Trazado 104956" d="M559.671,168.14a.346.346,0,0,1-.287-.538l1.18-1.76a.345.345,0,0,1,.574.385l-1.179,1.76A.345.345,0,0,1,559.671,168.14Z" transform="translate(-539.712 -153.418)" fill="#292739"/>
            <path id="Trazado_104957" data-name="Trazado 104957" d="M552.454,166.849a.345.345,0,0,1-.286-.538l2.479-3.7a.346.346,0,1,1,.574.385l-2.479,3.7A.344.344,0,0,1,552.454,166.849Z" transform="translate(-536.412 -151.94)" fill="#292739"/>
            <path id="Trazado_104958" data-name="Trazado 104958" d="M550.028,161.679a.346.346,0,0,1-.287-.538l1.18-1.76a.346.346,0,0,1,.574.385l-1.18,1.76A.344.344,0,0,1,550.028,161.679Z" transform="translate(-535.302 -150.463)" fill="#292739"/>
            <path id="Trazado_104959" data-name="Trazado 104959" d="M542.811,160.387a.345.345,0,0,1-.286-.538l2.479-3.7a.346.346,0,0,1,.574.385l-2.479,3.7A.346.346,0,0,1,542.811,160.387Z" transform="translate(-532.001 -148.985)" fill="#292739"/>
            <path id="Trazado_104960" data-name="Trazado 104960" d="M540.385,155.217a.345.345,0,0,1-.286-.538l1.179-1.76a.346.346,0,0,1,.574.385l-1.18,1.76A.344.344,0,0,1,540.385,155.217Z" transform="translate(-530.891 -147.507)" fill="#292739"/>
            <path id="Trazado_104961" data-name="Trazado 104961" d="M533.168,153.926a.345.345,0,0,1-.286-.538l2.479-3.7a.345.345,0,1,1,.574.384l-2.479,3.7A.346.346,0,0,1,533.168,153.926Z" transform="translate(-527.591 -146.029)" fill="#292739"/>
            <path id="Trazado_104962" data-name="Trazado 104962" d="M530.742,148.756a.346.346,0,0,1-.286-.538l1.179-1.76a.346.346,0,0,1,.574.385l-1.179,1.76A.345.345,0,0,1,530.742,148.756Z" transform="translate(-526.481 -144.552)" fill="#292739"/>
            <path id="Trazado_104963" data-name="Trazado 104963" d="M523.525,147.464a.345.345,0,0,1-.286-.538l2.479-3.7a.345.345,0,0,1,.574.385l-2.479,3.7A.346.346,0,0,1,523.525,147.464Z" transform="translate(-523.18 -143.074)" fill="#292739"/>
          </g>
          <g id="Grupo_84009" data-name="Grupo 84009" transform="translate(31.54 19.36)">
            <path id="Trazado_104964" data-name="Trazado 104964" d="M618.107,207.3a.346.346,0,0,1-.286-.538L619,205a.346.346,0,1,1,.574.385l-1.18,1.76A.344.344,0,0,1,618.107,207.3Z" transform="translate(-592.917 -189.069)" fill="#292739"/>
            <path id="Trazado_104965" data-name="Trazado 104965" d="M610.891,206.006a.345.345,0,0,1-.287-.538l2.479-3.7a.345.345,0,1,1,.573.385l-2.479,3.7A.345.345,0,0,1,610.891,206.006Z" transform="translate(-589.616 -187.592)" fill="#292739"/>
            <path id="Trazado_104966" data-name="Trazado 104966" d="M608.464,200.836a.345.345,0,0,1-.286-.538l1.179-1.76a.346.346,0,0,1,.574.385l-1.179,1.76A.345.345,0,0,1,608.464,200.836Z" transform="translate(-588.506 -186.114)" fill="#292739"/>
            <path id="Trazado_104967" data-name="Trazado 104967" d="M601.248,199.545a.346.346,0,0,1-.287-.538l2.479-3.7a.346.346,0,0,1,.574.385l-2.479,3.7A.344.344,0,0,1,601.248,199.545Z" transform="translate(-585.206 -184.636)" fill="#292739"/>
            <path id="Trazado_104968" data-name="Trazado 104968" d="M598.822,194.375a.346.346,0,0,1-.287-.538l1.18-1.76a.345.345,0,1,1,.573.385l-1.179,1.76A.344.344,0,0,1,598.822,194.375Z" transform="translate(-584.096 -183.158)" fill="#292739"/>
            <path id="Trazado_104969" data-name="Trazado 104969" d="M591.6,193.083a.345.345,0,0,1-.287-.538l2.479-3.7a.346.346,0,0,1,.574.385l-2.479,3.7A.345.345,0,0,1,591.6,193.083Z" transform="translate(-580.795 -181.681)" fill="#292739"/>
            <path id="Trazado_104970" data-name="Trazado 104970" d="M589.179,187.913a.346.346,0,0,1-.287-.538l1.18-1.76a.345.345,0,0,1,.574.385l-1.179,1.76A.345.345,0,0,1,589.179,187.913Z" transform="translate(-579.685 -180.203)" fill="#292739"/>
            <path id="Trazado_104971" data-name="Trazado 104971" d="M581.962,186.622a.345.345,0,0,1-.286-.538l2.479-3.7a.345.345,0,1,1,.574.384l-2.479,3.7A.345.345,0,0,1,581.962,186.622Z" transform="translate(-576.384 -178.725)" fill="#292739"/>
            <path id="Trazado_104972" data-name="Trazado 104972" d="M579.536,181.451a.345.345,0,0,1-.287-.538l1.18-1.76a.346.346,0,1,1,.574.385l-1.18,1.76A.343.343,0,0,1,579.536,181.451Z" transform="translate(-575.275 -177.248)" fill="#292739"/>
            <path id="Trazado_104973" data-name="Trazado 104973" d="M572.319,180.16a.345.345,0,0,1-.287-.538l2.479-3.7a.345.345,0,0,1,.574.385l-2.479,3.7A.346.346,0,0,1,572.319,180.16Z" transform="translate(-571.974 -175.77)" fill="#292739"/>
          </g>
        </g>
      </g>
      <g id="Grupo_84012" data-name="Grupo 84012" transform="translate(634.303 109.156)">
        <path id="Trazado_104974" data-name="Trazado 104974" d="M798.842,193.97a17.807,17.807,0,1,0,15.706,19.686A17.808,17.808,0,0,0,798.842,193.97Zm9.928,19.036a11.993,11.993,0,1,1-10.578-13.258A11.993,11.993,0,0,1,808.769,213.006Z" transform="translate(-779.043 -188.747)" fill="#eaeefa" stroke="#292739" stroke-linecap="round" stroke-linejoin="round" stroke-width="1.273"/>
        <circle id="Elipse_4228" data-name="Elipse 4228" cx="12.974" cy="12.974" r="12.974" transform="translate(2.201 32.565) rotate(-76.717)" fill="#79a2e4" stroke="#292739" stroke-linecap="round" stroke-linejoin="round" stroke-width="1.273"/>
        <circle id="Elipse_4229" data-name="Elipse 4229" cx="10.335" cy="10.335" r="10.335" transform="translate(3.193 22.918) rotate(-45)" fill="#fff"/>
        <path id="Trazado_104975" data-name="Trazado 104975" d="M821.919,184.74a1.9,1.9,0,0,0-2.617.572l-14.422,22.5-4-4.063a1.894,1.894,0,1,0-2.7,2.659l5.666,5.752a1.894,1.894,0,0,0,2.944-.307l15.7-24.494A1.894,1.894,0,0,0,821.919,184.74Z" transform="translate(-787.546 -184.441)" fill="#a4d2f3" stroke="#292739" stroke-linecap="round" stroke-linejoin="round" stroke-width="1.273"/>
      </g>
      <g id="Grupo_84016" data-name="Grupo 84016" transform="translate(493.922 57.777)">
        <path id="Trazado_104976" data-name="Trazado 104976" d="M523.29,282.531c-2.53,4.905-3.446,10.595-1.713,15.776.679,2.437,4.48,4.881,3.9,3.609-3.519-7.77.88-16.713,5.131-21.257,3.654-3.906,8.827-5.943,13.909-7.49,3.114-.947,10.538-2.366,11.453-6.291a21.509,21.509,0,0,0,.294-8.8c-.19-1.26-2.311-3.13-2.16-4.383.107,3.8-.333,6.436-3.558,9.368-3.258,2.963-8.177,3.758-12.088,5.7a37.96,37.96,0,0,0-11.245,8.136A25.958,25.958,0,0,0,523.29,282.531Z" transform="translate(-520.493 -164.74)" fill="#eaeefa" stroke="#292739" stroke-linecap="round" stroke-linejoin="round" stroke-width="1.273"/>
        <path id="Trazado_104977" data-name="Trazado 104977" d="M522.386,310.14c-2.492,4.691-2.575,10.968-1.026,15.98,1.431,4.632,5.788,8.036,9.594,10.958,3.69,2.834,7.683,5.29,11.092,8.457,1.732,1.609,3.34,3.375,5,5.058a12.163,12.163,0,0,0-.617-6.8,21.911,21.911,0,0,0-3.111-6.249c-3.116-4.118-7.885-6.709-11.676-10.151-.9-.819-1.778-1.67-2.61-2.56C522.973,318.35,522.2,311.047,522.386,310.14Z" transform="translate(-520.329 -190.555)" fill="#79a2e4" stroke="#292739" stroke-linecap="round" stroke-linejoin="round" stroke-width="1.289"/>
        <path id="Trazado_104978" data-name="Trazado 104978" d="M531.785,172.423a12.758,12.758,0,0,0,.654,2.168,22.569,22.569,0,0,0,3.8,5.96,8.91,8.91,0,0,1-.591-7.911,10.618,10.618,0,0,1,6.09-5.8c8.21-2.786,20.818-1.906,23.457-7.77,1.853-4.118,1.086-9.041.88-10.409-.19-1.26-2.311-3.13-2.16-4.383.107,3.8-.333,6.436-3.558,9.368-3.817,3.47-9.655,4.512-14.487,5.486-5.317,1.072-12.167,2.626-13.947,8.515A9.752,9.752,0,0,0,531.785,172.423Z" transform="translate(-525.464 -114.691)" fill="#eaeefa" stroke="#292739" stroke-linecap="round" stroke-linejoin="round" stroke-width="1.273"/>
        <g id="Grupo_84015" data-name="Grupo 84015" transform="translate(6.5 11.545)">
          <path id="Trazado_104979" data-name="Trazado 104979" d="M552.667,378.766h-11.41c-3.707,0-8.949,2.169-8.949,4.846h0c0,5.765,29.309,5.765,29.309,0h0C561.617,380.935,556.375,378.766,552.667,378.766Z" transform="translate(-532.308 -233.489)" fill="#79a2e4" stroke="#292739" stroke-linecap="round" stroke-linejoin="round" stroke-width="1.289"/>
          <ellipse id="Elipse_4230" data-name="Elipse 4230" cx="10.354" cy="2.786" rx="10.354" ry="2.786" transform="translate(4.3 145.351)" fill="#2b47a0"/>
          <path id="Trazado_104980" data-name="Trazado 104980" d="M554.959,373.633h-7.477c-2.429,0-5.864,1.969-5.864,4.4h0c0,3.806,19.205,3.806,19.205,0h0C560.823,375.6,557.388,373.633,554.959,373.633Z" transform="translate(-536.566 -231.141)" fill="#79a2e4" stroke="#292739" stroke-linecap="round" stroke-linejoin="round" stroke-width="1.289"/>
          <ellipse id="Elipse_4231" data-name="Elipse 4231" cx="4.962" cy="1.686" rx="4.962" ry="1.686" transform="translate(9.693 142.712)" fill="#2b47a0"/>
          <g id="Grupo_84014" data-name="Grupo 84014" transform="translate(10.376)">
            <path id="Trazado_104981" data-name="Trazado 104981" d="M559.987,113.373V255.685c0,.7-1.915,1.272-4.278,1.272s-4.278-.569-4.278-1.272V113.373Z" transform="translate(-551.431 -112.102)" fill="#a4d2f3" stroke="#292739" stroke-linecap="round" stroke-linejoin="round" stroke-width="1.273"/>
            <g id="Grupo_84013" data-name="Grupo 84013" transform="translate(6.232 0.926)">
              <path id="Trazado_104982" data-name="Trazado 104982" d="M563.554,113.373V256.758c1.189-.226,1.978-.621,1.978-1.072V113.373Z" transform="translate(-563.208 -113.027)" fill="#79a2e4"/>
              <path id="Trazado_104983" data-name="Trazado 104983" d="M563.262,256.812a.345.345,0,0,1-.064-.685c1.295-.246,1.7-.624,1.7-.733V113.427h-1.632a.346.346,0,1,1,0-.691h1.978a.345.345,0,0,1,.345.346V255.395c0,.812-1.228,1.215-2.258,1.411A.38.38,0,0,1,563.262,256.812Z" transform="translate(-562.917 -112.736)" fill="#292739"/>
            </g>
            <ellipse id="Elipse_4232" data-name="Elipse 4232" cx="4.278" cy="1.271" rx="4.278" ry="1.271" transform="translate(0)" fill="#fff" stroke="#292739" stroke-linecap="round" stroke-linejoin="round" stroke-width="1.273"/>
          </g>
        </g>
        <path id="Trazado_104984" data-name="Trazado 104984" d="M535.852,101.5l-6.432-11.743-6.858,12.12,4.716-1.491c-.03,2.868-.691,5.393,1.035,8.227a9.14,9.14,0,0,0,4.342,3.821c2.021,1.007,4.177,1.721,6.2,2.712,8.694,4.246,22.665,9.337,22.292,19.006a16.882,16.882,0,0,0-.214-14.091c-3.413-7.231-21.975-11.386-25.469-12.377-4.106-1.164-4.509-5.862-4.55-7.495C531.754,100.452,535.869,101.584,535.852,101.5Z" transform="translate(-521.351 -89.753)" fill="#79a2e4" stroke="#292739" stroke-linecap="round" stroke-linejoin="round" stroke-width="1.289"/>
        <path id="Trazado_104985" data-name="Trazado 104985" d="M530.963,187.207c-2.052,6.158-1.842,10.381-.293,15.393,1.431,4.632,4.909,7.449,8.715,10.372,3.69,2.833,7.684,5.29,11.092,8.457a35.486,35.486,0,0,1,9.56,14.992,56.251,56.251,0,0,0,.52-8.649,18.808,18.808,0,0,0-2.115-8.332c-2.131-3.844-5.9-6.445-9.417-9.076-4.022-3.006-8.133-5.976-11.563-9.642C531.4,194.244,530.778,188.114,530.963,187.207Z" transform="translate(-524.508 -134.327)" fill="#79a2e4" stroke="#292739" stroke-linecap="round" stroke-linejoin="round" stroke-width="1.289"/>
      </g>
      <g id="Grupo_84027" data-name="Grupo 84027" transform="translate(537.801 169.397)">
        <g id="Grupo_84017" data-name="Grupo 84017">
          <path id="Trazado_104986" data-name="Trazado 104986" d="M640.4,361.443h18.428a12.881,12.881,0,0,0,8.58-3.274l8.965-8.007a8.157,8.157,0,0,0,2.722-6.083V303.615a8.155,8.155,0,0,0-8.156-8.155H622.331a9.49,9.49,0,0,0-5.674,1.883l-10.729,8a9.484,9.484,0,0,0-3.447,4.987h0Z" transform="translate(-601.784 -295.46)" fill="#79a2e4" stroke="#292739" stroke-linecap="round" stroke-linejoin="round" stroke-width="1.273"/>
          <path id="Trazado_104987" data-name="Trazado 104987" d="M716.537,308.3l10.718-6.878-9.5,8.477a1.007,1.007,0,0,1-1.34-1.5A1.125,1.125,0,0,1,716.537,308.3Z" transform="translate(-653.74 -298.186)" fill="#fff"/>
          <path id="Trazado_104988" data-name="Trazado 104988" d="M720.347,398.965l10.554-8.408-9.824,9.25a.558.558,0,1,1-.765-.813A.434.434,0,0,1,720.347,398.965Z" transform="translate(-655.598 -338.956)" fill="#fff"/>
          <path id="Trazado_104989" data-name="Trazado 104989" d="M657.735,314.533H606.789a6.927,6.927,0,0,0-2.38.42c-1.14,1.135-2.572,5.031-3.02,6.591L639.9,370.167h18.428a12.882,12.882,0,0,0,4.558-.834,6.929,6.929,0,0,0,1.806-4.671V321.488A6.962,6.962,0,0,0,657.735,314.533Z" transform="translate(-601.284 -304.184)" fill="#fff"/>
          <path id="Trazado_104990" data-name="Trazado 104990" d="M670.61,295.46H622a9.49,9.49,0,0,0-5.674,1.883l-10.729,8a8.885,8.885,0,0,0-3.834,7.347l38.3,48.75H658.5a12.881,12.881,0,0,0,8.58-3.274l8.965-8.007a8.157,8.157,0,0,0,2.722-6.083V303.615A8.155,8.155,0,0,0,670.61,295.46Z" transform="translate(-601.458 -295.46)" fill="none" stroke="#292739" stroke-linecap="round" stroke-linejoin="round" stroke-width="1.273"/>
          <path id="Trazado_104991" data-name="Trazado 104991" d="M655.567,371.389H608.78c-4.188,0-7.584-1.3-7.584-5.484V324.789a7.583,7.583,0,0,1,7.584-7.584h46.787a7.584,7.584,0,0,1,7.584,7.584v41.117C663.151,370.094,659.755,371.389,655.567,371.389Z" transform="translate(-601.196 -305.406)" fill="#eaeefa" stroke="#292739" stroke-linecap="round" stroke-linejoin="round" stroke-width="1.273"/>
          <path id="Trazado_104992" data-name="Trazado 104992" d="M654.543,370.945H611.225c-3.326,0-6.021-1.849-6.021-5.174V325.906a6.022,6.022,0,0,1,6.021-6.022h43.318a6.022,6.022,0,0,1,6.021,6.022V365.77C660.565,369.1,657.869,370.945,654.543,370.945Z" transform="translate(-603.029 -306.631)" fill="#fff"/>
        </g>
        <g id="Grupo_84026" data-name="Grupo 84026" transform="translate(1.176 10.781)">
          <g id="Grupo_84022" data-name="Grupo 84022" transform="translate(0 0)">
            <circle id="Elipse_4233" data-name="Elipse 4233" cx="23.738" cy="23.738" r="23.738" transform="matrix(0.23, -0.973, 0.973, 0.23, 0, 46.207)" fill="#292739"/>
            <circle id="Elipse_4234" data-name="Elipse 4234" cx="22.721" cy="22.721" r="22.721" transform="translate(1.224 45.45) rotate(-76.717)" fill="#eaeefa"/>
            <g id="Grupo_84021" data-name="Grupo 84021" transform="translate(6.169 6.164)">
              <g id="Grupo_84020" data-name="Grupo 84020">
                <g id="Grupo_84018" data-name="Grupo 84018">
                  <path id="Trazado_104993" data-name="Trazado 104993" d="M655.7,333.35a.345.345,0,0,1-.346-.345v-5.971a.345.345,0,1,1,.691,0v5.971A.345.345,0,0,1,655.7,333.35Z" transform="translate(-633.313 -326.688)" fill="#292739"/>
                  <path id="Trazado_104994" data-name="Trazado 104994" d="M621.048,368.011h-5.97a.346.346,0,0,1,0-.691h5.97a.346.346,0,0,1,0,.691Z" transform="translate(-614.733 -345.272)" fill="#292739"/>
                  <path id="Trazado_104995" data-name="Trazado 104995" d="M655.7,403.61a.345.345,0,0,1-.346-.345v-5.971a.345.345,0,1,1,.691,0v5.971A.345.345,0,0,1,655.7,403.61Z" transform="translate(-633.313 -358.824)" fill="#292739"/>
                  <path id="Trazado_104996" data-name="Trazado 104996" d="M691.292,368.011h-5.97a.346.346,0,1,1,0-.691h5.97a.346.346,0,0,1,0,.691Z" transform="translate(-646.862 -345.272)" fill="#292739"/>
                </g>
                <g id="Grupo_84019" data-name="Grupo 84019" transform="translate(3.232 3.172)">
                  <path id="Trazado_104997" data-name="Trazado 104997" d="M642.353,335.674a.346.346,0,0,1-.32-.214l-1.011-2.449a.345.345,0,0,1,.639-.264l1.011,2.449a.346.346,0,0,1-.187.451A.354.354,0,0,1,642.353,335.674Z" transform="translate(-629.978 -332.534)" fill="#292739"/>
                  <path id="Trazado_104998" data-name="Trazado 104998" d="M631.037,343.261a.346.346,0,0,1-.245-.1l-1.868-1.875a.346.346,0,0,1,.49-.488l1.868,1.875a.346.346,0,0,1-.245.589Z" transform="translate(-624.41 -336.267)" fill="#292739"/>
                  <path id="Trazado_104999" data-name="Trazado 104999" d="M623.475,354.617a.347.347,0,0,1-.132-.027l-2.441-1.015a.345.345,0,1,1,.265-.638l2.441,1.015a.346.346,0,0,1-.133.665Z" transform="translate(-620.689 -341.854)" fill="#292739"/>
                  <path id="Trazado_105000" data-name="Trazado 105000" d="M621.035,381.565a.345.345,0,0,1-.132-.664l2.441-1.015a.346.346,0,0,1,.265.638l-2.441,1.014A.338.338,0,0,1,621.035,381.565Z" transform="translate(-620.689 -354.18)" fill="#292739"/>
                  <path id="Trazado_105001" data-name="Trazado 105001" d="M629.169,393.056a.346.346,0,0,1-.245-.589l1.868-1.875a.345.345,0,1,1,.489.488l-1.868,1.874A.345.345,0,0,1,629.169,393.056Z" transform="translate(-624.41 -359.042)" fill="#292739"/>
                  <path id="Trazado_105002" data-name="Trazado 105002" d="M641.342,400.734a.355.355,0,0,1-.132-.026.346.346,0,0,1-.187-.451l1.011-2.449a.345.345,0,0,1,.639.264l-1.011,2.449A.345.345,0,0,1,641.342,400.734Z" transform="translate(-629.978 -362.291)" fill="#292739"/>
                  <path id="Trazado_105003" data-name="Trazado 105003" d="M669.209,400.734a.345.345,0,0,1-.32-.214l-1.011-2.449a.345.345,0,0,1,.639-.264l1.011,2.449a.346.346,0,0,1-.187.451A.355.355,0,0,1,669.209,400.734Z" transform="translate(-642.261 -362.291)" fill="#292739"/>
                  <path id="Trazado_105004" data-name="Trazado 105004" d="M680.66,393.056a.345.345,0,0,1-.245-.1l-1.868-1.874a.346.346,0,1,1,.489-.488l1.868,1.875a.345.345,0,0,1-.245.589Z" transform="translate(-647.107 -359.042)" fill="#292739"/>
                  <path id="Trazado_105005" data-name="Trazado 105005" d="M688.311,381.565a.336.336,0,0,1-.132-.027l-2.441-1.014a.345.345,0,1,1,.265-.638l2.441,1.015a.345.345,0,0,1-.132.664Z" transform="translate(-650.344 -354.18)" fill="#292739"/>
                  <path id="Trazado_105006" data-name="Trazado 105006" d="M685.871,354.617a.346.346,0,0,1-.132-.665l2.441-1.015a.345.345,0,1,1,.265.638L686,354.59A.345.345,0,0,1,685.871,354.617Z" transform="translate(-650.344 -341.854)" fill="#292739"/>
                  <path id="Trazado_105007" data-name="Trazado 105007" d="M678.792,343.261a.346.346,0,0,1-.245-.589l1.868-1.875a.346.346,0,1,1,.489.488l-1.868,1.875A.346.346,0,0,1,678.792,343.261Z" transform="translate(-647.107 -336.267)" fill="#292739"/>
                  <path id="Trazado_105008" data-name="Trazado 105008" d="M668.2,335.674a.354.354,0,0,1-.132-.026.346.346,0,0,1-.187-.451l1.011-2.449a.345.345,0,0,1,.639.264l-1.011,2.449A.345.345,0,0,1,668.2,335.674Z" transform="translate(-642.261 -332.534)" fill="#292739"/>
                </g>
              </g>
            </g>
          </g>
          <g id="Grupo_84025" data-name="Grupo 84025" transform="translate(23.907 15.045)">
            <circle id="Elipse_4235" data-name="Elipse 4235" cx="2.12" cy="2.12" r="2.12" transform="translate(2.521 11.919)" fill="#2b47a0" stroke="#292739" stroke-linecap="round" stroke-linejoin="round" stroke-width="1.273"/>
            <g id="Grupo_84023" data-name="Grupo 84023" transform="translate(4.426 6.548)">
              <path id="Trazado_105009" data-name="Trazado 105009" d="M656.077,364.337a.5.5,0,0,1-.2-.953l12.69-5.6a.5.5,0,0,1,.4.911l-12.69,5.6A.488.488,0,0,1,656.077,364.337Z" transform="translate(-655.579 -356.319)" fill="#292739"/>
              <path id="Trazado_105010" data-name="Trazado 105010" d="M681.4,355.459s-5.188-.771-6.138.018.15,1.6.15,1.6l1,.58-.245,1.127s-.142,1.36,1.081,1.191S681.4,355.459,681.4,355.459Z" transform="translate(-664.407 -355.122)" fill="#79a2e4" stroke="#292739" stroke-linecap="round" stroke-linejoin="round" stroke-width="1.273"/>
            </g>
            <g id="Grupo_84024" data-name="Grupo 84024">
              <path id="Trazado_105011" data-name="Trazado 105011" d="M653.309,360.2a.5.5,0,0,1-.486-.4l-1.945-9.3a.5.5,0,1,1,.973-.2l1.946,9.3a.5.5,0,0,1-.385.589A.508.508,0,0,1,653.309,360.2Z" transform="translate(-648.998 -346.188)" fill="#292739"/>
              <path id="Trazado_105012" data-name="Trazado 105012" d="M648.8,343.054s-1.836,4.913-1.263,6.007,1.6.187,1.6.187l.775-.854,1.051.474s1.3.422,1.391-.809S648.8,343.054,648.8,343.054Z" transform="translate(-647.422 -343.054)" fill="#79a2e4" stroke="#292739" stroke-linecap="round" stroke-linejoin="round" stroke-width="1.273"/>
            </g>
            <circle id="Elipse_4236" data-name="Elipse 4236" cx="1.526" cy="1.526" r="1.526" transform="translate(3.115 12.512)" fill="#eaeefa" stroke="#292739" stroke-linecap="round" stroke-linejoin="round" stroke-width="1.273"/>
          </g>
        </g>
      </g>
      <g id="Grupo_84032" data-name="Grupo 84032" transform="translate(466.064 64.252)">
        <circle id="Elipse_4237" data-name="Elipse 4237" cx="11.139" cy="11.139" r="11.139" transform="matrix(0.97, -0.243, 0.243, 0.97, 0, 5.422)" fill="#eaeefa" stroke="#292739" stroke-linecap="round" stroke-linejoin="round" stroke-width="1.273"/>
        <g id="Grupo_84031" data-name="Grupo 84031" transform="translate(7.385 4.219)">
          <path id="Trazado_105013" data-name="Trazado 105013" d="M490.916,112.84l-2.188-.087-.062,1.539a4.812,4.812,0,0,0-3.447,2.062,3.456,3.456,0,0,0-.126,3.326c.647,1.069,1.31,1.658,3.519,2.32l1.162.335c1.265.379,1.446.608,1.828,1.274a1.352,1.352,0,0,1-.061,1.219l-.009.016a2.338,2.338,0,0,1-2.275,1.15,2.459,2.459,0,0,1-2.405-1.744l-.073-.3-3.147-.126.885,1.62a4.9,4.9,0,0,0,3.6,2.662l-.061,1.532,2.188.088.062-1.557a4.8,4.8,0,0,0,3.618-2.37,3.429,3.429,0,0,0,.393-1.647,2.534,2.534,0,0,0-.284-1.548c-.5-.994-1.334-1.808-3.7-2.542l-1.166-.374c-1.323-.415-1.462-.7-1.593-.965a1.511,1.511,0,0,1,.033-1.33,2.092,2.092,0,0,1,2.018-.932,2.16,2.16,0,0,1,2.168,1.48l.082.279,2.908.117-.666-1.585-.012-.026a4.762,4.762,0,0,0-3.247-2.332Z" transform="translate(-483.072 -110.967)" fill="#79a2e4"/>
          <path id="Trazado_105014" data-name="Trazado 105014" d="M491.061,110.836l-2.188-.088-.062,1.54a4.808,4.808,0,0,0-3.447,2.062,3.454,3.454,0,0,0-.126,3.326c.647,1.069,1.31,1.658,3.519,2.32l1.162.336c1.265.379,1.446.608,1.828,1.274a1.349,1.349,0,0,1-.061,1.219l-.009.017a2.337,2.337,0,0,1-2.274,1.149A2.458,2.458,0,0,1,487,122.247l-.074-.3-3.147-.126.886,1.62a4.9,4.9,0,0,0,3.6,2.662l-.061,1.532,2.188.087.062-1.556a4.8,4.8,0,0,0,3.618-2.37,3.416,3.416,0,0,0,.393-1.648,2.525,2.525,0,0,0-.284-1.547c-.5-.994-1.333-1.808-3.7-2.542l-1.166-.374c-1.323-.415-1.462-.7-1.593-.964a1.511,1.511,0,0,1,.032-1.33,2.094,2.094,0,0,1,2.019-.933,2.16,2.16,0,0,1,2.168,1.48l.082.279,2.907.116-.666-1.585-.013-.026A4.76,4.76,0,0,0,491,112.395Z" transform="translate(-483.138 -110.05)" fill="#a4d2f3"/>
          <g id="Grupo_84030" data-name="Grupo 84030">
            <g id="Grupo_84029" data-name="Grupo 84029">
              <g id="Grupo_84028" data-name="Grupo 84028">
                <path id="Trazado_105015" data-name="Trazado 105015" d="M487.711,126.869a.343.343,0,0,1-.24-.111.347.347,0,0,1-.092-.248l.047-1.179a4.847,4.847,0,0,1-3.6-2.639l-.543-.992a.346.346,0,0,1,.3-.511l2.14.085a.346.346,0,0,1,.322.262,2.518,2.518,0,0,0,2.462,1.79c.047,0,.094,0,.141,0a2.374,2.374,0,0,0,2.189-1.184l.008-.014a1.41,1.41,0,0,0,.062-1.28c-.383-.667-.58-.918-1.863-1.3l-1.162-.336c-2.193-.657-2.848-1.239-3.487-2.3a2.955,2.955,0,0,1-.352-1.648,3,3,0,0,1,.478-1.606,4.755,4.755,0,0,1,3.457-2.045l.047-1.185a.345.345,0,0,1,.345-.332l1.39.055a.345.345,0,0,1,.332.359l-.048,1.2a4.709,4.709,0,0,1,3.255,2.311c0,.007.007.015.01.022l.419,1a.346.346,0,0,1-.319.479l-1.993-.079a.346.346,0,0,1-.317-.247,2.216,2.216,0,0,0-2.223-1.523c-.056,0-.11,0-.164,0a2.093,2.093,0,0,0-1.907.961,1.576,1.576,0,0,0-.038,1.391c.164.334.378.6,1.63,1l1.166.374c2.35.728,3.172,1.533,3.666,2.514a2.447,2.447,0,0,1,.276,1.514,3.36,3.36,0,0,1-.385,1.62,4.744,4.744,0,0,1-3.624,2.347l-.048,1.2a.345.345,0,0,1-.345.332Z" transform="translate(-482.892 -109.753)" fill="#eaeefa"/>
                <path id="Trazado_105016" data-name="Trazado 105016" d="M488.077,110.153l1.377.055-.06,1.5a4.423,4.423,0,0,1,3.3,2.182l.419,1-1.979-.079a2.538,2.538,0,0,0-2.541-1.77c-.06,0-.119,0-.177,0a2.44,2.44,0,0,0-2.188,1.106,1.9,1.9,0,0,0-.07,1.739c.218.444.514.764,1.839,1.18l1.164.373c2.418.75,3.076,1.556,3.478,2.37,0,0,.265.293.225,1.316a2.974,2.974,0,0,1-.335,1.454,4.413,4.413,0,0,1-3.662,2.211l-.06,1.5-1.377-.055.06-1.485a4.538,4.538,0,0,1-3.654-2.5l-.548-1,2.126.085a2.858,2.858,0,0,0,2.783,2.052q.078,0,.155,0a2.728,2.728,0,0,0,2.494-1.366,1.746,1.746,0,0,0,.065-1.629c-.446-.778-.737-1.064-2.064-1.461l-1.165-.337c-2.1-.628-2.692-1.16-3.287-2.144a3.063,3.063,0,0,1,.115-2.88,4.478,4.478,0,0,1,3.505-1.927l.059-1.485m0-.691a.692.692,0,0,0-.69.663l-.036.9a5.071,5.071,0,0,0-3.409,2.149,3.737,3.737,0,0,0-.133,3.633c.672,1.111,1.4,1.76,3.677,2.443l1.172.339c1.21.362,1.322.559,1.656,1.141a1.058,1.058,0,0,1-.058.931l-.016.029a2.034,2.034,0,0,1-1.885,1l-.127,0a2.178,2.178,0,0,1-2.14-1.528.692.692,0,0,0-.643-.524l-2.126-.085h-.028a.691.691,0,0,0-.606,1.022l.538.984a5.15,5.15,0,0,0,3.555,2.76l-.036.887a.692.692,0,0,0,.663.718l1.376.055h.028a.691.691,0,0,0,.69-.663l.037-.916a5.065,5.065,0,0,0,3.587-2.469,3.7,3.7,0,0,0,.433-1.782,2.85,2.85,0,0,0-.322-1.7c-.534-1.051-1.412-1.91-3.867-2.671l-1.157-.371c-1.192-.374-1.319-.6-1.425-.817a1.238,1.238,0,0,1,.007-1.042,1.762,1.762,0,0,1,1.626-.816c.049,0,.1,0,.15,0a1.842,1.842,0,0,1,1.906,1.276.69.69,0,0,0,.635.494l1.979.079h.028a.691.691,0,0,0,.637-.959l-.419-1c-.007-.015-.013-.03-.021-.044a5,5,0,0,0-3.207-2.424l.037-.92a.691.691,0,0,0-.662-.718l-1.377-.055Z" transform="translate(-482.601 -109.462)" fill="#292739"/>
              </g>
            </g>
          </g>
        </g>
      </g>
      <g id="Grupo_84037" data-name="Grupo 84037" transform="translate(556.37 32.688)">
        <g id="Grupo_84035" data-name="Grupo 84035" transform="translate(0)">
          <g id="Grupo_84033" data-name="Grupo 84033">
            <path id="Trazado_105017" data-name="Trazado 105017" d="M672.835,61.9,652.021,82.038,640.768,70.406l20.814-20.135-1.311-1.355L639.457,69.051l-1.686,1.631,1.311,1.355,11.253,11.633,1.311,1.355,1.686-1.631,20.815-20.135Z" transform="translate(-636.494 -45.985)" fill="#a4d2f3" stroke="#292739" stroke-linecap="round" stroke-linejoin="round" stroke-width="1.273"/>
            <path id="Trazado_105018" data-name="Trazado 105018" d="M654.509,83.142c8.512-8.234,4.517-11.915,7.881-15.169,1.711-1.656,8.137-.326,12.933-4.966L664.55,51.869c-4.8,4.64-3.681,11.106-5.393,12.761-3.364,3.255-6.91-.86-15.422,7.374Z" transform="translate(-639.222 -47.336)" fill="#79a2e4" stroke="#292739" stroke-linecap="round" stroke-linejoin="round" stroke-width="1.273"/>
            <path id="Rectángulo_33916" data-name="Rectángulo 33916" d="M2.582,0H19.99a2.582,2.582,0,0,1,2.582,2.582v.281a0,0,0,0,1,0,0H0a0,0,0,0,1,0,0v-.28A2.582,2.582,0,0,1,2.582,0Z" transform="translate(24.925 0) rotate(45.951)" fill="#fff" stroke="#292739" stroke-linecap="round" stroke-linejoin="round" stroke-width="1.273"/>
            <path id="Rectángulo_33917" data-name="Rectángulo 33917" d="M0,0H22.572a0,0,0,0,1,0,0V.281A2.582,2.582,0,0,1,19.99,2.862H2.582A2.582,2.582,0,0,1,0,.281V0A0,0,0,0,1,0,0Z" transform="matrix(0.695, 0.719, -0.719, 0.695, 2.057, 22.121)" fill="#fff" stroke="#292739" stroke-linecap="round" stroke-linejoin="round" stroke-width="1.273"/>
            <path id="Trazado_105019" data-name="Trazado 105019" d="M663.436,74.28c1.169-1.131,2.756-1.377,4.765-1.689l.365-.057L664.3,68.128l-.069.363c-.378,2-.677,3.574-1.846,4.706a8.391,8.391,0,0,1-5.516,2.233c-2.192.262-4.644.554-8.462,3.822l8.51,8.8c3.393-3.708,3.766-6.149,4.1-8.33A8.394,8.394,0,0,1,663.436,74.28Z" transform="translate(-641.36 -54.773)" fill="#fff"/>
          </g>
          <g id="Grupo_84034" data-name="Grupo 84034" transform="translate(34.437 1.164)">
            <path id="Trazado_105020" data-name="Trazado 105020" d="M738.418,68.378a6.632,6.632,0,0,1-4.926-2.547,27.7,27.7,0,0,1-3.5-6.154,38.985,38.985,0,0,0-2.265-4.411,19.351,19.351,0,0,0-14.176-8.789c-5.958-.6-10.3.91-14.068,4.881a.345.345,0,1,1-.5-.476c3.933-4.141,8.447-5.712,14.638-5.092A20.055,20.055,0,0,1,728.308,54.9a39.5,39.5,0,0,1,2.307,4.489,27.223,27.223,0,0,0,3.41,6,5.661,5.661,0,0,0,5.014,2.246,3.7,3.7,0,0,0,2.865-2.5.346.346,0,1,1,.645.248,4.363,4.363,0,0,1-3.4,2.936A4.562,4.562,0,0,1,738.418,68.378Z" transform="translate(-698.883 -45.66)" fill="#292739"/>
            <path id="Trazado_105021" data-name="Trazado 105021" d="M779.076,80.427l-.719.331.146.778-.777-.156-.339.716-.537-.583-.7.38-.092-.787-.786-.1.388-.691-.575-.544.719-.331-.146-.778.777.156.339-.716.537.583.7-.38.092.787.786.1-.388.691Z" transform="translate(-733.739 -60.498)" fill="#eaeefa" stroke="#292739" stroke-linecap="round" stroke-linejoin="round" stroke-width="1.273"/>
          </g>
        </g>
        <g id="Grupo_84036" data-name="Grupo 84036" transform="translate(30.528 4.443)">
          <path id="Trazado_105022" data-name="Trazado 105022" d="M696.137,53.466c1.453,1.379,1.979,3.182,1.176,4.028s-2.631.413-4.083-.965-1.979-3.182-1.177-4.027S694.685,52.088,696.137,53.466Z" transform="translate(-691.678 -51.87)" fill="#292739" stroke="#292739" stroke-linecap="round" stroke-linejoin="round" stroke-width="1.273"/>
          <path id="Trazado_105023" data-name="Trazado 105023" d="M697.831,52.52a2.764,2.764,0,0,1,.222,3.9c-1.017,1.072-5.145-2.847-4.128-3.918A2.764,2.764,0,0,1,697.831,52.52Z" transform="translate(-692.633 -51.703)" fill="#eaeefa" stroke="#292739" stroke-linecap="round" stroke-linejoin="round" stroke-width="1.273"/>
        </g>
      </g>
      <g id="Grupo_84041" data-name="Grupo 84041" transform="translate(462.594 137.941)">
        <g id="Grupo_84040" data-name="Grupo 84040" transform="translate(0 5.384)">
          <g id="Grupo_84038" data-name="Grupo 84038" transform="translate(0.302 28.685)">
            <circle id="Elipse_4238" data-name="Elipse 4238" cx="15.423" cy="15.423" r="15.423" transform="matrix(0.084, -0.996, 0.996, 0.084, 0, 30.738)" fill="#eaeefa" stroke="#292739" stroke-linecap="round" stroke-linejoin="round" stroke-width="1.273"/>
            <path id="Trazado_105024" data-name="Trazado 105024" d="M492.023,331.678a11.139,11.139,0,0,1-13.006-1.455l7.5-8.229-8.229-7.5a11.137,11.137,0,1,1,13.73,17.189Z" transform="translate(-470.077 -305.116)" fill="#79a2e4"/>
            <path id="Trazado_105025" data-name="Trazado 105025" d="M471.556,319.147l8.828,6.79-9.19,6.293A11.141,11.141,0,0,1,471.556,319.147Z" transform="translate(-465.94 -308.907)" fill="#a4d2f3"/>
          </g>
          <g id="Grupo_84039" data-name="Grupo 84039">
            <path id="Trazado_105026" data-name="Trazado 105026" d="M470.221,293.19a.343.343,0,0,1-.156-.037l-.385-.195c-3.155-1.6-5.059-2.56-6.114-6.49a25.538,25.538,0,0,1-.559-11.493c1.026-5.354,4.041-10,8.065-12.425,2.046-1.234,5.151-2.309,7.728-1.626a16.358,16.358,0,0,1,1.738.6c1.817.7,3.251,1.261,5.164-.492a12.187,12.187,0,0,0,2.636-4.443c.324-.768.66-1.563,1.051-2.306a13.039,13.039,0,0,1,9.19-6.867.346.346,0,0,1,.107.683A12.337,12.337,0,0,0,490,254.6c-.377.717-.707,1.5-1.026,2.253a12.883,12.883,0,0,1-2.805,4.684c-2.23,2.043-4.086,1.323-5.881.627a16.045,16.045,0,0,0-1.665-.575c-2.371-.628-5.358.442-7.195,1.55-3.859,2.326-6.753,6.8-7.744,11.964a24.858,24.858,0,0,0,.547,11.183c.975,3.632,2.675,4.492,5.759,6.052l.386.2a.345.345,0,0,1-.156.653Z" transform="translate(-462.594 -247.411)" fill="#292739"/>
            <path id="Trazado_105027" data-name="Trazado 105027" d="M475.57,330.089a2.1,2.1,0,0,0-.181-2.813,1.778,1.778,0,0,0-2.6.394,2.1,2.1,0,0,0,.181,2.813A1.777,1.777,0,0,0,475.57,330.089Z" transform="translate(-467.049 -283.755)" fill="#fff" stroke="#292739" stroke-linecap="round" stroke-linejoin="round" stroke-width="1.273"/>
          </g>
          <path id="Trazado_105028" data-name="Trazado 105028" d="M492.027,270.41a11.829,11.829,0,0,1-3.141-.613c-2.144-.614-4.361-1.249-6.325.479a.346.346,0,0,1-.457-.519c2.248-1.978,4.758-1.259,6.972-.625a8.235,8.235,0,0,0,3.661.519,7.106,7.106,0,0,0,5.724-4.85c2.158-6.062,4.335-8.937,6.67-8.793a.345.345,0,1,1-.043.69c-1.956-.124-3.964,2.683-5.976,8.335a7.748,7.748,0,0,1-6.238,5.3A4.258,4.258,0,0,1,492.027,270.41Z" transform="translate(-471.464 -251.341)" fill="#292739"/>
        </g>
        <path id="Trazado_105029" data-name="Trazado 105029" d="M527.3,244.025l-1.729,1.671.417,2.368-2.382.334-1.053,2.163-2.123-1.131L518.3,250.56l-1.053-2.163-2.382-.334.417-2.368-1.729-1.671,1.729-1.671-.417-2.368,2.382-.334,1.053-2.163,2.124,1.131,2.123-1.131,1.053,2.163,2.382.334-.417,2.368Z" transform="translate(-485.904 -237.489)" fill="#fff" stroke="#292739" stroke-linecap="round" stroke-linejoin="round" stroke-width="1.273"/>
        <path id="Trazado_105030" data-name="Trazado 105030" d="M527.4,246.813a3.228,3.228,0,1,1-3.227-3.228A3.228,3.228,0,0,1,527.4,246.813Z" transform="translate(-489.281 -240.277)" fill="#a4d2f3"/>
      </g>
      <g id="Grupo_84049" data-name="Grupo 84049" transform="translate(535.678 69.654)">
        <path id="Trazado_105031" data-name="Trazado 105031" d="M611.625,274.782c.408-3.213,5.97-5.535,6.18-4.62,1.015,4.438-.329,5.036-1.382,5.818C614.162,277.66,611.625,274.782,611.625,274.782Z" transform="translate(-603.843 -184.054)" fill="#292739" stroke="#292739" stroke-linecap="round" stroke-linejoin="round" stroke-width="1.273"/>
        <path id="Trazado_105032" data-name="Trazado 105032" d="M711.136,192.494s-6.624-3.465-7.576-5.553,8-6.168,19.937-7.795A31.537,31.537,0,0,1,744.448,184s-3.553,5.007-7.88,7.053S711.136,192.494,711.136,192.494Z" transform="translate(-645.861 -142.397)" fill="#eaeefa" stroke="#292739" stroke-linecap="round" stroke-linejoin="round" stroke-width="1.273"/>
        <g id="Grupo_84044" data-name="Grupo 84044" transform="translate(44.712)">
          <g id="Grupo_84043" data-name="Grupo 84043">
            <g id="Grupo_84042" data-name="Grupo 84042">
              <path id="Trazado_105033" data-name="Trazado 105033" d="M686.763,126.483c-.2-.317-.326-.683-.53-1-.65-1.011-1.957-1.333-2.927-2.041a7.681,7.681,0,0,1-2.168-2.987,13.756,13.756,0,0,1-1.375-3.949,5.766,5.766,0,0,1,.757-4.033,1.244,1.244,0,0,1,.53-.5,1.312,1.312,0,0,1,.861.041c2.932.9,4.857,3.726,5.942,6.594.849,2.243,1.558,4.645,2.177,6.96.242.906.842,2.628.332,2.614A3.883,3.883,0,0,1,686.763,126.483Z" transform="translate(-679.686 -111.767)" fill="#eaeefa" stroke="#292739" stroke-linecap="round" stroke-linejoin="round" stroke-width="1.273"/>
              <path id="Trazado_105034" data-name="Trazado 105034" d="M686.709,113.189A28.258,28.258,0,0,0,684.2,111.8a1.457,1.457,0,0,0-.553-.156c-.936-.052-1.2.936-1.26,1.729-.229,3.231.6,6.87,3.3,8.657a20.267,20.267,0,0,1,2.683,1.643c.543.5.578,1.333.867,1.973.487,1.08,1.59,2.662,2.2,2.784a9.939,9.939,0,0,0,8.132-2.074.8.8,0,0,0,.244-.343.857.857,0,0,0-.042-.452q-.6-2.11-1.391-4.156a3.65,3.65,0,0,0-.545-1.041,3.906,3.906,0,0,0-1.118-.822C693.272,117.581,690.067,115.274,686.709,113.189Z" transform="translate(-680.904 -111.64)" fill="#292739"/>
            </g>
            <path id="Trazado_105035" data-name="Trazado 105035" d="M698.52,127.168a.346.346,0,0,1-.337-.422,6.981,6.981,0,0,1,1.116-2.493.346.346,0,0,1,.563.4,6.266,6.266,0,0,0-1,2.244A.346.346,0,0,1,698.52,127.168Z" transform="translate(-688.142 -117.344)" fill="#fff"/>
            <path id="Trazado_105036" data-name="Trazado 105036" d="M695.692,124.944a.339.339,0,0,1-.077-.009.345.345,0,0,1-.261-.413,6.983,6.983,0,0,1,1.117-2.493.345.345,0,0,1,.562.4,6.292,6.292,0,0,0-1,2.244A.345.345,0,0,1,695.692,124.944Z" transform="translate(-686.849 -116.326)" fill="#fff"/>
          </g>
          <path id="Trazado_105037" data-name="Trazado 105037" d="M705.75,125.42a8.419,8.419,0,0,0-.079,5.635,4.623,4.623,0,0,0,3.288,2.708,9.66,9.66,0,0,0,1.933.075c1.953.11,2.788,1.38,4.2,2.582a38.226,38.226,0,0,0,15.677,8.013,2.446,2.446,0,0,1,1.557.805,2.4,2.4,0,0,1,.135,1.743,111.723,111.723,0,0,0-1.433,26.034c2.972,1.548,6.829.477,9.2-1.889s3.461-5.754,3.832-9.084.105-6.694.188-10.044c.069-2.833.372-5.773-.659-8.413-1.163-2.977-3.841-5.08-6.566-6.751-6.119-3.751-12.237-5.152-19.13-6.451a31.208,31.208,0,0,1-6.585-1.8C709.311,127.724,707.728,126.3,705.75,125.42Z" transform="translate(-691.362 -117.943)" fill="#fd9572" stroke="#292739" stroke-linecap="round" stroke-linejoin="round" stroke-width="1.273"/>
        </g>
        <g id="Grupo_84047" data-name="Grupo 84047" transform="translate(8.53 18.175)">
          <g id="Grupo_84046" data-name="Grupo 84046">
            <g id="Grupo_84045" data-name="Grupo 84045">
              <path id="Trazado_105038" data-name="Trazado 105038" d="M623.609,158.066c-.3-.234-.53-.539-.826-.774-.942-.745-2.283-.625-3.431-.98a7.691,7.691,0,0,1-3.021-2.121,13.755,13.755,0,0,1-2.582-3.288,5.769,5.769,0,0,1-.594-4.06,1.246,1.246,0,0,1,.34-.643,1.305,1.305,0,0,1,.827-.24c3.065-.106,5.8,1.947,7.762,4.307,1.53,1.845,2.981,3.887,4.319,5.876.524.778,1.649,2.212,1.162,2.364A3.882,3.882,0,0,1,623.609,158.066Z" transform="translate(-613.004 -145.511)" fill="#eaeefa" stroke="#292739" stroke-linecap="round" stroke-linejoin="round" stroke-width="1.273"/>
              <path id="Trazado_105039" data-name="Trazado 105039" d="M618.946,145.651a28.442,28.442,0,0,0-2.826-.5,1.469,1.469,0,0,0-.574.032c-.9.254-.834,1.276-.63,2.045.833,3.131,2.8,6.3,5.932,7.117a20.251,20.251,0,0,1,3.071.683c.675.293.979,1.073,1.461,1.585.812.863,2.369,2,2.987,1.918a9.937,9.937,0,0,0,7.018-4.6.8.8,0,0,0,.119-.4.849.849,0,0,0-.186-.414q-1.249-1.8-2.665-3.479a3.658,3.658,0,0,0-.855-.808,3.9,3.9,0,0,0-1.324-.414C626.58,147.674,622.8,146.531,618.946,145.651Z" transform="translate(-613.82 -145.136)" fill="#292739"/>
            </g>
            <path id="Trazado_105040" data-name="Trazado 105040" d="M634.844,155.048a.345.345,0,0,1-.343-.308,6.977,6.977,0,0,1,.246-2.721.345.345,0,1,1,.662.2,6.273,6.273,0,0,0-.222,2.448.346.346,0,0,1-.305.381Z" transform="translate(-622.818 -148.171)" fill="#fff"/>
            <path id="Trazado_105041" data-name="Trazado 105041" d="M631.448,153.862a.346.346,0,0,1-.343-.308,7,7,0,0,1,.246-2.721.346.346,0,0,1,.663.2,6.272,6.272,0,0,0-.222,2.448.345.345,0,0,1-.306.381Z" transform="translate(-621.265 -147.629)" fill="#fff"/>
          </g>
          <path id="Trazado_105042" data-name="Trazado 105042" d="M640.959,151.282a8.419,8.419,0,0,0,1.755,5.355,4.624,4.624,0,0,0,3.991,1.494c2.277-.211,2.918-1.206,4.812.411a19.056,19.056,0,0,0,6.271,3.348c4.847,1.659,9.593,1.565,14.561.686.746,1.3.809,3.244,1.232,4.709a41.007,41.007,0,0,0,8.009,15.005,4.624,4.624,0,0,0,2.76,1.909c1.751.2,3.271-1.657,4.646-2.5,1.5-.924,3.351-1.759,3.864-3.611s-.637-3.693-1.729-5.26L680.3,157.293a13.058,13.058,0,0,0-4.19-4.361,12.131,12.131,0,0,0-4.75-1.11,87.391,87.391,0,0,0-12.472-.168c-3.856.224-7.785,1.105-11.648.814C645.076,152.305,643.115,151.471,640.959,151.282Z" transform="translate(-625.79 -147.947)" fill="#fd9572" stroke="#292739" stroke-linecap="round" stroke-linejoin="round" stroke-width="1.273"/>
        </g>
        <path id="Trazado_105043" data-name="Trazado 105043" d="M707.869,198.535q.15.4.28.812a11.622,11.622,0,0,1,.042,7.723c-.936,2.23-2.835,3.951-3.714,6.333a15.014,15.014,0,0,0,.9,11.321,26.949,26.949,0,0,0,5.762,8.181c1.851,1.709,4.875,2.183,7.325,2.179,9.194-.018,15.889-7.345,19.461-15.121,4.7-10.224,4.131-21.376,6.6-31.876-3.778.028-7.556.007-11.335.006-1.123,0-10.579-.652-10.869,0l-2.348,5.261a8.9,8.9,0,0,1-3.931-5.365,20.067,20.067,0,0,0-5.586.794L703.616,191A36.761,36.761,0,0,1,707.869,198.535Z" transform="translate(-645.919 -146.476)" fill="#292739" stroke="#292739" stroke-linecap="round" stroke-linejoin="round" stroke-width="1.273"/>
        <path id="Trazado_105044" data-name="Trazado 105044" d="M605.2,244.847a17.038,17.038,0,0,1,.614,2.85c.387,2.334.622,4.7.819,7.059-.025-.3,3.816-.457,4.149-.914a.565.565,0,0,0,.065-.373c-.22-3.583-1.809-6.952-2.234-10.517-.317-2.663-.367-5.34-.772-7.972a60.191,60.191,0,0,0-2.09-8.973c-.2-.625-.606-1.382-1.254-1.289-.586.084-.814.8-.889,1.385a19.313,19.313,0,0,0-.033,4.632,4.518,4.518,0,0,0-5.374,1.627,2.547,2.547,0,0,0-.393,2.26,1.409,1.409,0,0,0,1.932.781c.6-.389.73-1.291,1.359-1.637,1.024-.565,2.2,1.026,2.35,1.886a2.315,2.315,0,0,1-1.137,2.386,2.1,2.1,0,0,1-2.553-.508c-.187-.238-.316-.516-.482-.768a1.347,1.347,0,0,0-.672-.583c-1.806-.577-1.4,3.175-.9,3.938a4.829,4.829,0,0,0,3.038,1.94,8.725,8.725,0,0,1,3.1.829A3.771,3.771,0,0,1,605.2,244.847Z" transform="translate(-597.284 -163.357)" fill="#fd9572" stroke="#292739" stroke-linecap="round" stroke-linejoin="round" stroke-width="1.273"/>
        <path id="Trazado_105045" data-name="Trazado 105045" d="M674.48,198.352a4.95,4.95,0,0,0-5.492-1.7,4.81,4.81,0,0,0-3.01,3.622c-2.174-2.785-7.393-4.752-9.891-1.531a11.539,11.539,0,0,1-1.766,2.137,3.633,3.633,0,0,1-3.465.539c-.946-.357-1.941-1.117-2.849-.889a1.347,1.347,0,0,0-.327.13,2.467,2.467,0,0,0-.928,2.091,18.8,18.8,0,0,0,2.257,10.938,12.486,12.486,0,0,0,8.245,6.074,5.93,5.93,0,0,0,1.35.059l-.018.1c3.927.186,8.8-2.2,8.889-6.449.008-.428.028-.861.055-1.3a9.766,9.766,0,0,0,.222-3.1c.057-.893.093-1.787.07-2.67a.793.793,0,0,1,.1-.073,1.75,1.75,0,0,1,1.269-.015,5.369,5.369,0,0,0,5.387-2.185A5.15,5.15,0,0,0,674.48,198.352Z" transform="translate(-619.881 -150.405)" fill="#292739"/>
        <path id="Trazado_105046" data-name="Trazado 105046" d="M632.615,250.979a27.948,27.948,0,0,1,3.412-2.477c2.336-1.253,4.354-.695,6.827-.533,2.943.193,5.968-.136,8.92-.047,2.26.068,4.579-.014,6.233,1.764a11.049,11.049,0,0,1,2.74,6.66c.034.527,3.7-1.5,4-1.909,3.953,3.122,7.889,6.2,12.118,8.957-3.551,4.55-7.524,9.624-12.251,13.015a18.739,18.739,0,0,1-10.452,3.434c-1.889.042-7.832-.18-9.656-.42-.869-.114-5.395-.927-7.681-2.622-2.325-1.724-4.9-6.63-4.9-6.63s-9.3,6.055-10.052,6.242c-2.072.512-2.658.492-3.794-.576-2.856-2.686-4.755-7.726-6.534-11.221,2.889.5,5.185-1.1,6.188-4.7,1.427,1.9,2.274,6.366,3.7,8.266C629.423,258.2,628.251,254.05,632.615,250.979Z" transform="translate(-603.808 -173.875)" fill="#a4d2f3" stroke="#292739" stroke-linecap="round" stroke-linejoin="round" stroke-width="1.273"/>
        <path id="Trazado_105047" data-name="Trazado 105047" d="M658.259,247.395c.272.025,6.462-2.263,8.9-6.943-.557-.826-3.338-.909-3.476-1.324a19.61,19.61,0,0,1-.208-10.6,15.211,15.211,0,0,1-2.209,1.457c-.5.364-.968.745-1.461,1.115-1,.751-2.357,1.3-2.793,2.583a4.567,4.567,0,0,0,.022,2.275c.331,1.831.572,3.362-1.6,4.224C654.8,240.432,657.935,247.364,658.259,247.395Z" transform="translate(-623.843 -165.102)" fill="#fd9572" stroke="#292739" stroke-linecap="round" stroke-linejoin="round" stroke-width="1.273"/>
        <path id="Trazado_105048" data-name="Trazado 105048" d="M651.339,221.059c-.276,2.637-.613,5.987,1.987,6.511A7.373,7.373,0,0,0,658.5,226.1a13.171,13.171,0,0,0,2.3-3.611c1.673-3.387,3.346-10.647-2.747-10.883C653.778,211.441,651.689,217.712,651.339,221.059Z" transform="translate(-621.923 -157.362)" fill="#fd9572" stroke="#292739" stroke-linecap="round" stroke-linejoin="round" stroke-width="1.273"/>
        <path id="Trazado_105049" data-name="Trazado 105049" d="M662.362,211.907a20.215,20.215,0,0,0,5.351,9.489.855.855,0,0,0,.665.338c.307-.044.465-.383.553-.68a8.862,8.862,0,0,0-5.912-10.647Z" transform="translate(-627.05 -156.815)" fill="#292739"/>
        <path id="Trazado_105050" data-name="Trazado 105050" d="M648.229,278.79a.345.345,0,0,1-.332-.251,21.3,21.3,0,0,1-.64-3.022,18.293,18.293,0,0,1,.479-5.922c.212-1.035.431-2.105.59-3.5a.345.345,0,1,1,.686.079c-.162,1.422-.395,2.556-.6,3.557a17.7,17.7,0,0,0-.468,5.725,21.044,21.044,0,0,0,.616,2.892.345.345,0,0,1-.238.426A.336.336,0,0,1,648.229,278.79Z" transform="translate(-620.109 -182.147)" fill="#292739"/>
        <path id="Trazado_105051" data-name="Trazado 105051" d="M646.927,275.87a.346.346,0,0,1-.345-.332,24.746,24.746,0,0,0-.651-5.315.346.346,0,0,1,.622-.3c.521,1.076.7,5.13.719,5.589a.344.344,0,0,1-.331.359Z" transform="translate(-619.519 -183.947)" fill="#292739"/>
        <path id="Trazado_105052" data-name="Trazado 105052" d="M680.491,273.071a.345.345,0,0,1-.343-.312,38.789,38.789,0,0,1-.137-4.452.346.346,0,0,1,.345-.333h.013a.345.345,0,0,1,.333.357,38.09,38.09,0,0,0,.134,4.36.345.345,0,0,1-.31.377Z" transform="translate(-635.114 -183.145)" fill="#292739"/>
        <path id="Trazado_105053" data-name="Trazado 105053" d="M656.115,256.047l-3.094,2.83s-1.218.087-2.312-5.07a11.529,11.529,0,0,1-.309-3.679c1.452-1.353,4.223-3.223,3.663-1.922C653.2,249.641,653.712,251.86,656.115,256.047Z" transform="translate(-621.562 -173.902)" fill="#fff" stroke="#292739" stroke-linecap="round" stroke-linejoin="round" stroke-width="1.273"/>
        <path id="Trazado_105054" data-name="Trazado 105054" d="M660.734,255.263l3.652,4.531a32.691,32.691,0,0,0,6.548-7.081c3.112-4.6.132-5.37.132-5.37-3.778-1.015-5.243-1.068-4.832-.246C668.11,247.972,664.888,253.506,660.734,255.263Z" transform="translate(-626.305 -173.336)" fill="#fff" stroke="#292739" stroke-linecap="round" stroke-linejoin="round" stroke-width="1.273"/>
        <path id="Trazado_105055" data-name="Trazado 105055" d="M706.137,258.42c1.463,3.559,11.054,11.095,13.55,11.17l1.363-3.043s-3.282.234-7.754-3.537c-5.269-4.443-5.64-6.363-5.64-6.363Z" transform="translate(-647.072 -177.964)" fill="#fff" stroke="#292739" stroke-linecap="round" stroke-linejoin="round" stroke-width="1.273"/>
        <path id="Trazado_105056" data-name="Trazado 105056" d="M724.617,219.793a.346.346,0,0,1-.2-.627c.221-.158.471-.329.741-.514,2.112-1.45,5.3-3.643,5.389-6.472a.346.346,0,0,1,.345-.335h.011a.345.345,0,0,1,.335.355c-.1,3.18-3.461,5.491-5.689,7.021-.266.182-.512.352-.73.507A.343.343,0,0,1,724.617,219.793Z" transform="translate(-655.366 -157.473)" fill="#fff"/>
        <path id="Trazado_105057" data-name="Trazado 105057" d="M725.813,222.76a.345.345,0,0,1-.2-.627c.266-.19.623-.431,1.036-.709,2.5-1.684,7.711-5.19,7.794-7.942a.341.341,0,0,1,.356-.335.346.346,0,0,1,.335.356c-.093,3.106-5.3,6.611-8.1,8.494-.409.275-.762.512-1.021.7A.346.346,0,0,1,725.813,222.76Z" transform="translate(-655.913 -158.068)" fill="#fff"/>
        <path id="Trazado_105058" data-name="Trazado 105058" d="M653.2,268.358l-6.024,16.655-.262,7.326,6.436-3.584,2.634-20.3Z" transform="translate(-619.985 -183.321)" fill="#2b47a0" stroke="#292739" stroke-linecap="round" stroke-linejoin="round" stroke-width="1.273"/>
        <path id="Trazado_105059" data-name="Trazado 105059" d="M658.43,262.486l-2.58,2.4s.23,1.768,1.1,1.946,3.207.555,3.516.126a10.447,10.447,0,0,0,.662-1.133Z" transform="translate(-624.071 -180.635)" fill="#292739" stroke="#292739" stroke-linecap="round" stroke-linejoin="round" stroke-width="1.273"/>
        <path id="Trazado_105060" data-name="Trazado 105060" d="M647.776,316.5c-.977-.535-3.435-7.26-2.537-6.986,4.353,1.329,4.1.355,5.244,2.258.568.947,1.442,2.089.438,2.933A18.738,18.738,0,0,1,647.776,316.5Z" transform="translate(-619.129 -202.143)" fill="#292739" stroke="#292739" stroke-linecap="round" stroke-linejoin="round" stroke-width="1.273"/>
        <path id="Trazado_105061" data-name="Trazado 105061" d="M636.516,314.194c.5-.023,1.016.029,1.543.035q4.254.048,8.5.428c-.3-.027.2-3.837-.189-4.244a.565.565,0,0,0-.356-.128c-3.567-.4-7.16.591-10.744.4-4.165-.222-8.612.432-11.342,4.037-.343.452-.645,1.084-.331,1.556a1.421,1.421,0,0,0,1.2.455,32.661,32.661,0,0,0,4.064-.435,14.159,14.159,0,0,0,4.417-1.086A8.844,8.844,0,0,1,636.516,314.194Z" transform="translate(-609.256 -202.454)" fill="#fd9572" stroke="#292739" stroke-linecap="round" stroke-linejoin="round" stroke-width="1.273"/>
        <g id="Grupo_84048" data-name="Grupo 84048" transform="translate(25.885 82.166)">
          <path id="Trazado_105062" data-name="Trazado 105062" d="M666.613,264.12c-1.487,4.848-3.433,10.116-4.522,15.945-.267,1.428-.526,3.64-.571,3.647-4.427.722-12.9,3.939-15.9,4.878a6.015,6.015,0,0,1,2.4,6.95,55.266,55.266,0,0,0,16.022-5.154c1.151-.6,3.107-1.269,3.9-2.319,1.088-1.435,1.516-4.024,2.2-5.707a53.557,53.557,0,0,1,2.4-5.238A35.64,35.64,0,0,0,676.32,263.7Z" transform="translate(-645.278 -263.358)" fill="#a4d2f3"/>
          <path id="Trazado_105063" data-name="Trazado 105063" d="M647.734,295.6a.346.346,0,0,1-.324-.464,5.653,5.653,0,0,0-2.259-6.539.345.345,0,0,1,.079-.623c.766-.24,1.908-.636,3.231-1.094a99.989,99.989,0,0,1,12.48-3.756c.031-.2.076-.517.12-.829.107-.755.253-1.789.4-2.58a99.492,99.492,0,0,1,3.414-12.465c.393-1.219.765-2.37,1.117-3.518a.346.346,0,0,1,.661.2c-.354,1.152-.726,2.306-1.12,3.526a98.967,98.967,0,0,0-3.392,12.38c-.145.776-.29,1.8-.4,2.55-.044.315-.083.587-.113.779-.055.357-.085.553-.346.6-3.258.531-8.879,2.478-12.6,3.766-.993.344-1.884.653-2.6.888a6.435,6.435,0,0,1,2.138,6.392,53.96,53.96,0,0,0,15.367-5.019c.286-.148.616-.3.965-.458a7.934,7.934,0,0,0,2.82-1.763,12.07,12.07,0,0,0,1.495-3.637c.215-.72.417-1.4.656-1.99a53.323,53.323,0,0,1,2.418-5.272,35.169,35.169,0,0,0,3.733-13.269.346.346,0,0,1,.691.025,35.97,35.97,0,0,1-3.815,13.569,52.719,52.719,0,0,0-2.386,5.2c-.226.56-.424,1.225-.634,1.93a12.505,12.505,0,0,1-1.607,3.857,8.2,8.2,0,0,1-3.085,1.974c-.341.156-.663.3-.934.443a55.222,55.222,0,0,1-16.119,5.187A.377.377,0,0,1,647.734,295.6Z" transform="translate(-644.987 -263.067)" fill="#292739"/>
        </g>
        <path id="Trazado_105064" data-name="Trazado 105064" d="M677.508,302.2a.355.355,0,0,1-.128-.024,12.963,12.963,0,0,1-2.98-1.634.346.346,0,0,1,.461-.515,12.6,12.6,0,0,0,2.775,1.507.345.345,0,0,1-.127.666Z" transform="translate(-632.503 -197.766)" fill="#292739"/>
      </g>
    </g>
  </g>
</svg>
