<svg xmlns="http://www.w3.org/2000/svg" width="230.177" height="182" viewBox="0 0 230.177 182">
  <g id="Grupo_83198" data-name="Grupo 83198" transform="translate(-225.5 -428)">
    <rect id="Rectángulo_24247" data-name="Rectángulo 24247" width="177" height="182" transform="translate(250 428)" fill="#fff"/>
    <g id="Grupo_83197" data-name="Grupo 83197" transform="translate(110.294 364.408)">
      <g id="Grupo_83140" data-name="Grupo 83140" transform="translate(115.206 69.058)">
        <g id="Grupo_83131" data-name="Grupo 83131" transform="translate(0 2.935)">
          <g id="Grupo_83128" data-name="Grupo 83128" transform="translate(39.101 43.039)" opacity="0.57">
            <g id="Grupo_83127" data-name="Grupo 83127">
              <path id="Trazado_103893" data-name="Trazado 103893" d="M250.7,287.216a.44.44,0,0,1-.44-.44,54.823,54.823,0,0,1,23.541-45,.441.441,0,1,1,.5.724,53.936,53.936,0,0,0-23.163,44.271A.44.44,0,0,1,250.7,287.216Z" transform="translate(-229.871 -211.629)" fill="#3aaed5"/>
              <path id="Trazado_103894" data-name="Trazado 103894" d="M493.42,320.951a.44.44,0,0,1-.44-.44,53.737,53.737,0,0,0-3.056-17.929.441.441,0,0,1,.831-.293,54.625,54.625,0,0,1,3.105,18.223A.44.44,0,0,1,493.42,320.951Z" transform="translate(-363.955 -245.364)" fill="#3aaed5"/>
              <path id="Trazado_103895" data-name="Trazado 103895" d="M461.412,264.764a.44.44,0,0,1-.405-.269A53.8,53.8,0,0,0,440.5,240.114a.441.441,0,1,1,.477-.74,54.668,54.668,0,0,1,20.842,24.78.44.44,0,0,1-.406.611Z" transform="translate(-336.201 -210.287)" fill="#3aaed5"/>
              <path id="Trazado_103896" data-name="Trazado 103896" d="M311.806,228a.44.44,0,0,1-.223-.821,54.856,54.856,0,0,1,50.8-2.335.44.44,0,0,1-.373.8,53.977,53.977,0,0,0-49.986,2.3A.436.436,0,0,1,311.806,228Z" transform="translate(-264.062 -199.326)" fill="#3aaed5"/>
              <path id="Trazado_103897" data-name="Trazado 103897" d="M228.747,269.482a.44.44,0,0,1-.44-.44,64.484,64.484,0,0,1,38.5-59,.44.44,0,1,1,.355.806,63.6,63.6,0,0,0-37.969,58.191A.44.44,0,0,1,228.747,269.482Z" transform="translate(-217.589 -193.896)" fill="#3aaed5"/>
              <path id="Trazado_103898" data-name="Trazado 103898" d="M486.368,278.58a.44.44,0,0,1-.44-.44,63.864,63.864,0,0,0-25.735-51.078.44.44,0,1,1,.525-.707A65.015,65.015,0,0,1,479.7,248.691a63.728,63.728,0,0,1,7.109,29.449A.44.44,0,0,1,486.368,278.58Z" transform="translate(-347.234 -202.994)" fill="#3aaed5"/>
              <path id="Trazado_103899" data-name="Trazado 103899" d="M446.666,218.2a.44.44,0,0,1-.236-.069c-1.3-.828-2.653-1.618-4.014-2.349a.44.44,0,1,1,.416-.776c1.38.74,2.749,1.541,4.07,2.381a.441.441,0,0,1-.237.812Z" transform="translate(-337.258 -196.663)" fill="#3aaed5"/>
              <path id="Trazado_103900" data-name="Trazado 103900" d="M375.4,204.791a.439.439,0,0,1-.189-.043,63.778,63.778,0,0,0-47.556-2.779.441.441,0,1,1-.282-.835,64.662,64.662,0,0,1,48.216,2.818.441.441,0,0,1-.189.839Z" transform="translate(-272.849 -187.044)" fill="#3aaed5"/>
              <path id="Trazado_103901" data-name="Trazado 103901" d="M538.6,313.389a.44.44,0,0,1-.441-.44,74.147,74.147,0,0,0-3.925-23.886.441.441,0,1,1,.834-.283,75.029,75.029,0,0,1,3.972,24.17A.44.44,0,0,1,538.6,313.389Z" transform="translate(-388.748 -237.803)" fill="#3aaed5"/>
              <path id="Trazado_103902" data-name="Trazado 103902" d="M498.821,238.805a.44.44,0,0,1-.408-.274,74.36,74.36,0,0,0-25.273-32.15.441.441,0,0,1,.517-.714A75.249,75.249,0,0,1,499.229,238.2a.44.44,0,0,1-.408.607Z" transform="translate(-354.476 -191.421)" fill="#3aaed5"/>
              <path id="Trazado_103903" data-name="Trazado 103903" d="M389.823,185.591a.438.438,0,0,1-.233-.067,74.489,74.489,0,0,0-57.795-8.882.44.44,0,1,1-.219-.853,75.37,75.37,0,0,1,58.48,8.988.441.441,0,0,1-.234.814Z" transform="translate(-275.185 -173.43)" fill="#3aaed5"/>
              <path id="Trazado_103904" data-name="Trazado 103904" d="M299.442,187.722a.441.441,0,0,1-.195-.836,75.064,75.064,0,0,1,7.07-3.026.441.441,0,1,1,.3.827,74.039,74.039,0,0,0-6.987,2.99A.441.441,0,0,1,299.442,187.722Z" transform="translate(-257.144 -179.25)" fill="#3aaed5"/>
              <path id="Trazado_103905" data-name="Trazado 103905" d="M204.415,262.011a.44.44,0,0,1-.44-.44,75.109,75.109,0,0,1,37.166-64.856.44.44,0,1,1,.445.76,74.612,74.612,0,0,0-36.731,64.1A.44.44,0,0,1,204.415,262.011Z" transform="translate(-203.975 -186.424)" fill="#3aaed5"/>
            </g>
          </g>
          <g id="Grupo_83130" data-name="Grupo 83130" opacity="0.22">
            <g id="Grupo_83129" data-name="Grupo 83129">
              <path id="Trazado_103906" data-name="Trazado 103906" d="M186.237,248.709a.661.661,0,0,1-.661-.661,83.023,83.023,0,0,1,26.316-60.739,83.974,83.974,0,0,1,9.473-7.667.661.661,0,0,1,.755,1.085A82.029,82.029,0,0,0,186.9,248.048.661.661,0,0,1,186.237,248.709Z" transform="translate(-154.579 -133.801)" fill="#3aaed5"/>
              <path id="Trazado_103907" data-name="Trazado 103907" d="M555.285,300a.661.661,0,0,1-.661-.661,81.731,81.731,0,0,0-4.646-27.264.661.661,0,1,1,1.247-.44,83.051,83.051,0,0,1,4.721,27.7A.661.661,0,0,1,555.285,300Z" transform="translate(-358.448 -185.092)" fill="#3aaed5"/>
              <path id="Trazado_103908" data-name="Trazado 103908" d="M506.618,214.573a.661.661,0,0,1-.609-.4,81.8,81.8,0,0,0-31.185-37.075.661.661,0,0,1,.716-1.11,83.12,83.12,0,0,1,31.687,37.672.662.662,0,0,1-.608.918Z" transform="translate(-316.25 -131.761)" fill="#3aaed5"/>
              <path id="Trazado_103909" data-name="Trazado 103909" d="M279.148,158.676a.661.661,0,0,1-.334-1.231,83.4,83.4,0,0,1,77.238-3.549.661.661,0,0,1-.56,1.2,82.077,82.077,0,0,0-76.01,3.493A.659.659,0,0,1,279.148,158.676Z" transform="translate(-206.565 -115.094)" fill="#3aaed5"/>
              <path id="Trazado_103910" data-name="Trazado 103910" d="M152.862,221.747a.661.661,0,0,1-.661-.661,98.036,98.036,0,0,1,58.525-89.693.661.661,0,1,1,.533,1.21,96.714,96.714,0,0,0-57.737,88.484A.661.661,0,0,1,152.862,221.747Z" transform="translate(-135.905 -106.839)" fill="#3aaed5"/>
              <path id="Trazado_103911" data-name="Trazado 103911" d="M544.562,235.578a.661.661,0,0,1-.661-.661,97.106,97.106,0,0,0-39.132-77.669.661.661,0,0,1,.788-1.062,98.842,98.842,0,0,1,28.857,33.958,96.886,96.886,0,0,1,10.808,44.772A.661.661,0,0,1,544.562,235.578Z" transform="translate(-333.025 -120.671)" fill="#3aaed5"/>
              <path id="Trazado_103912" data-name="Trazado 103912" d="M484.2,143.771a.657.657,0,0,1-.354-.1c-1.985-1.261-4.038-2.462-6.1-3.571a.661.661,0,1,1,.625-1.164c2.094,1.124,4.175,2.342,6.187,3.619a.661.661,0,0,1-.355,1.218Z" transform="translate(-317.856 -111.046)" fill="#3aaed5"/>
              <path id="Trazado_103913" data-name="Trazado 103913" d="M375.837,123.385a.655.655,0,0,1-.283-.064,96.978,96.978,0,0,0-72.315-4.226.661.661,0,0,1-.422-1.252,98.3,98.3,0,0,1,73.3,4.285.661.661,0,0,1-.284,1.258Z" transform="translate(-219.926 -96.42)" fill="#3aaed5"/>
              <path id="Trazado_103914" data-name="Trazado 103914" d="M623.979,288.5a.661.661,0,0,1-.661-.661,112.753,112.753,0,0,0-5.967-36.321.66.66,0,1,1,1.25-.425,114.063,114.063,0,0,1,6.038,36.746A.661.661,0,0,1,623.979,288.5Z" transform="translate(-396.146 -173.597)" fill="#3aaed5"/>
              <path id="Trazado_103915" data-name="Trazado 103915" d="M563.5,175.1a.661.661,0,0,1-.612-.411,113.086,113.086,0,0,0-38.43-48.886.661.661,0,0,1,.775-1.07,114.4,114.4,0,0,1,38.878,49.458.661.661,0,0,1-.611.91Z" transform="translate(-344.036 -103.075)" fill="#3aaed5"/>
              <path id="Trazado_103916" data-name="Trazado 103916" d="M397.772,94.193a.658.658,0,0,1-.349-.1,113.268,113.268,0,0,0-87.881-13.506.661.661,0,1,1-.329-1.28,114.586,114.586,0,0,1,88.909,13.664.661.661,0,0,1-.35,1.221Z" transform="translate(-223.479 -75.721)" fill="#3aaed5"/>
              <path id="Trazado_103917" data-name="Trazado 103917" d="M260.35,97.433a.661.661,0,0,1-.291-1.254,114.019,114.019,0,0,1,10.749-4.6.661.661,0,0,1,.457,1.24,112.821,112.821,0,0,0-10.624,4.547A.654.654,0,0,1,260.35,97.433Z" transform="translate(-196.047 -84.571)" fill="#3aaed5"/>
              <path id="Trazado_103918" data-name="Trazado 103918" d="M115.867,210.386a.661.661,0,0,1-.661-.661,114.2,114.2,0,0,1,56.505-98.6.661.661,0,1,1,.669,1.14,113.451,113.451,0,0,0-55.853,97.463A.661.661,0,0,1,115.867,210.386Z" transform="translate(-115.206 -95.478)" fill="#3aaed5"/>
            </g>
          </g>
        </g>
        <g id="Grupo_83132" data-name="Grupo 83132" transform="translate(76.39 79.826)">
          <path id="Trazado_103919" data-name="Trazado 103919" d="M385.8,297.264a3.593,3.593,0,0,1-3.365-2.353l-1.078-2.918a17.986,17.986,0,0,1-7.062-.206L373,294.642a3.646,3.646,0,0,1-2.028,1.912,3.574,3.574,0,0,1-2.771-.081,3.637,3.637,0,0,1-1.783-4.817l1.3-2.856a17.95,17.95,0,0,1-4.807-5.177L360,284.734a3.586,3.586,0,0,1-4.656-2.112,3.68,3.68,0,0,1,2.131-4.7l2.913-1.114a18.385,18.385,0,0,1,.264-7.126l-2.817-1.277a3.658,3.658,0,0,1,.245-6.729,3.574,3.574,0,0,1,2.771.081l2.817,1.278a18.38,18.38,0,0,1,5.188-4.892l-1.081-2.925a3.681,3.681,0,0,1,2.131-4.7,3.589,3.589,0,0,1,4.657,2.112l1.077,2.918a17.955,17.955,0,0,1,7.062.207L384,252.9a3.636,3.636,0,0,1,4.8-1.831,3.571,3.571,0,0,1,1.886,2.031,3.648,3.648,0,0,1-.1,2.786l-1.3,2.855a17.973,17.973,0,0,1,4.807,5.178l2.9-1.111a3.589,3.589,0,0,1,4.657,2.112,3.682,3.682,0,0,1-2.131,4.7l-2.913,1.114a18.392,18.392,0,0,1-.265,7.126l2.817,1.278a3.65,3.65,0,0,1-3.015,6.647l-2.818-1.278a18.391,18.391,0,0,1-5.187,4.892l1.08,2.925a3.683,3.683,0,0,1-2.131,4.7A3.606,3.606,0,0,1,385.8,297.264Zm-3.873-6.272,1.335,3.613a2.706,2.706,0,0,0,3.515,1.6,2.8,2.8,0,0,0,1.619-3.569l-1.331-3.606.312-.188a17.545,17.545,0,0,0,5.439-5.13l.209-.3,3.487,1.581a2.769,2.769,0,0,0,2.287-5.043l-3.486-1.582.092-.358a17.532,17.532,0,0,0,.278-7.471l-.064-.359,3.59-1.373a2.8,2.8,0,0,0,1.619-3.569,2.706,2.706,0,0,0-3.515-1.595l-3.6,1.376-.189-.322a17.105,17.105,0,0,0-5.042-5.433l-.3-.209,1.6-3.522a2.766,2.766,0,0,0,.079-2.116,2.694,2.694,0,0,0-1.423-1.534,2.753,2.753,0,0,0-3.632,1.393l-1.6,3.522-.357-.09a17.109,17.109,0,0,0-7.408-.216l-.366.07-1.334-3.614a2.708,2.708,0,0,0-3.516-1.595,2.8,2.8,0,0,0-1.619,3.57l1.332,3.605-.312.188a17.53,17.53,0,0,0-5.439,5.131l-.208.3-3.487-1.582a2.7,2.7,0,0,0-2.092-.061,2.777,2.777,0,0,0-.2,5.1l3.487,1.581-.092.358a17.545,17.545,0,0,0-.278,7.471l.064.359-3.59,1.373a2.8,2.8,0,0,0-1.619,3.57,2.706,2.706,0,0,0,3.515,1.595l3.6-1.376.189.321a17.09,17.09,0,0,0,5.042,5.432l.3.209-1.6,3.522a2.753,2.753,0,0,0,1.344,3.65,2.694,2.694,0,0,0,2.092.06,2.771,2.771,0,0,0,1.54-1.453l1.6-3.522.356.09a17.117,17.117,0,0,0,7.408.215Zm-3.559-3.73a13.247,13.247,0,0,1-12.425-8.693,13.621,13.621,0,0,1,7.9-17.4,13.209,13.209,0,0,1,10.245.3,13.457,13.457,0,0,1,6.589,17.83h0A13.542,13.542,0,0,1,378.37,287.263Zm.248-26.105a12.492,12.492,0,0,0-4.463.831,12.743,12.743,0,0,0-7.383,16.275,12.331,12.331,0,0,0,6.51,7.015,12.635,12.635,0,0,0,10.439-23.011A12.325,12.325,0,0,0,378.619,261.158Z" transform="translate(-325.834 -250.282)" fill="#fff"/>
          <path id="Trazado_103920" data-name="Trazado 103920" d="M305.1,300.536a2.507,2.507,0,0,1-2.512-2.5l-.008-1.919a11.935,11.935,0,0,1-4.141-1.646l-1.354,1.383a2.543,2.543,0,0,1-1.787.77,2.416,2.416,0,0,1-1.8-.716,2.492,2.492,0,0,1-.753-1.784,2.546,2.546,0,0,1,.733-1.8l1.355-1.384a11.947,11.947,0,0,1-1.731-4.1l-1.918.03a2.574,2.574,0,0,1-1.8-.716,2.5,2.5,0,0,1-.752-1.784,2.571,2.571,0,0,1,2.52-2.572l1.927-.031a12.222,12.222,0,0,1,1.695-4.167l-1.363-1.336a2.494,2.494,0,0,1-.753-1.785,2.566,2.566,0,0,1,2.519-2.572,2.5,2.5,0,0,1,1.8.716l1.363,1.336a12.218,12.218,0,0,1,4.132-1.781l-.009-1.926a2.57,2.57,0,0,1,2.52-2.572,2.53,2.53,0,0,1,1.8.716,2.493,2.493,0,0,1,.753,1.785l.009,1.918a11.944,11.944,0,0,1,4.141,1.646l1.354-1.383h0a2.541,2.541,0,0,1,1.787-.77,2.448,2.448,0,0,1,1.8.716,2.54,2.54,0,0,1,.02,3.587l-1.355,1.384a11.946,11.946,0,0,1,1.731,4.105l1.919-.031a2.544,2.544,0,0,1,1.8.716,2.492,2.492,0,0,1,.753,1.785,2.568,2.568,0,0,1-2.52,2.572l-1.926.031a12.245,12.245,0,0,1-1.695,4.168l1.363,1.335a2.554,2.554,0,0,1-1.767,4.358,2.476,2.476,0,0,1-1.8-.716l-1.363-1.336a12.216,12.216,0,0,1-4.132,1.781l.009,1.926a2.57,2.57,0,0,1-2.52,2.572Zm-6.779-7.2.3.206a11.075,11.075,0,0,0,4.464,1.774l.368.06.012,2.659a1.628,1.628,0,0,0,1.631,1.624h.028a1.686,1.686,0,0,0,1.653-1.687l-.012-2.649.357-.07a11.372,11.372,0,0,0,4.452-1.919l.3-.215,1.887,1.848a1.582,1.582,0,0,0,1.17.465,1.673,1.673,0,0,0,1.164-2.847l-1.887-1.848.209-.3a11.37,11.37,0,0,0,1.826-4.49l.063-.359,2.649-.043a1.684,1.684,0,0,0,1.653-1.687,1.626,1.626,0,0,0-1.63-1.625h-.027l-2.658.043-.068-.367a11.083,11.083,0,0,0-1.866-4.427l-.213-.3,1.866-1.9a1.657,1.657,0,0,0-.007-2.341,1.526,1.526,0,0,0-1.169-.464,1.667,1.667,0,0,0-1.171.505h0l-1.866,1.9-.3-.206a11.082,11.082,0,0,0-4.464-1.774l-.368-.06-.012-2.658a1.626,1.626,0,0,0-1.63-1.625H305a1.686,1.686,0,0,0-1.653,1.687l.012,2.65-.358.07a11.362,11.362,0,0,0-4.451,1.919l-.3.215-1.887-1.849a1.61,1.61,0,0,0-1.169-.464,1.684,1.684,0,0,0-1.653,1.688,1.618,1.618,0,0,0,.488,1.159l1.887,1.849-.208.3a11.364,11.364,0,0,0-1.827,4.49l-.063.359-2.65.043a1.686,1.686,0,0,0-1.653,1.687,1.622,1.622,0,0,0,.488,1.159,1.649,1.649,0,0,0,1.17.464l2.657-.042.068.367a11.092,11.092,0,0,0,1.866,4.426l.213.3-1.866,1.9a1.666,1.666,0,0,0-.481,1.182,1.62,1.62,0,0,0,.488,1.159,1.575,1.575,0,0,0,1.169.464,1.669,1.669,0,0,0,1.172-.505Zm6.638-.248a8.821,8.821,0,0,1-6.217-2.531,9.05,9.05,0,0,1,6.272-15.43,8.862,8.862,0,0,1,9.025,8.84,9.1,9.1,0,0,1-8.933,9.119Zm.2-17.081h-.133a8.169,8.169,0,0,0-5.669,13.919,7.994,7.994,0,0,0,5.734,2.279,8.143,8.143,0,0,0,5.718-2.466h0a8.144,8.144,0,0,0,2.347-5.768,7.982,7.982,0,0,0-8-7.965Z" transform="translate(-288.631 -260.011)" fill="#fff"/>
          <path id="Trazado_103921" data-name="Trazado 103921" d="M326.08,374.044a3.109,3.109,0,0,1-1.071-.19,3.076,3.076,0,0,1-1.822-3.985l.9-2.38a15.083,15.083,0,0,1-4.281-3.95l-2.334,1.067a3.114,3.114,0,0,1-4.131-1.516,3.058,3.058,0,0,1-.077-2.374,3.125,3.125,0,0,1,1.632-1.742l2.333-1.067a15.1,15.1,0,0,1-.188-5.822l-2.389-.874a3.075,3.075,0,0,1-1.822-3.985,3.154,3.154,0,0,1,4.019-1.837l2.4.877a15.449,15.449,0,0,1,4.022-4.29l-1.052-2.3a3.062,3.062,0,0,1-.077-2.375,3.134,3.134,0,0,1,5.764-.226l1.052,2.3a15.461,15.461,0,0,1,5.876-.235l.905-2.387a3.154,3.154,0,0,1,4.018-1.838,3.076,3.076,0,0,1,1.823,3.985l-.9,2.379a15.118,15.118,0,0,1,4.281,3.951l2.333-1.067a3.119,3.119,0,0,1,2.386-.1,3.076,3.076,0,0,1,1.822,3.985,3.12,3.12,0,0,1-1.633,1.741l-2.333,1.067a15.1,15.1,0,0,1,.188,5.823l2.389.874a3.076,3.076,0,0,1,1.822,3.986,3.154,3.154,0,0,1-4.018,1.837l-2.4-.877a15.462,15.462,0,0,1-4.022,4.29l1.052,2.3a3.058,3.058,0,0,1,.077,2.374,3.148,3.148,0,0,1-4.018,1.837,3.061,3.061,0,0,1-1.745-1.611l-1.053-2.3a15.453,15.453,0,0,1-5.876.236l-.9,2.387A3.157,3.157,0,0,1,326.08,374.044Zm-5.973-11.61.21.3a14.247,14.247,0,0,0,4.537,4.185l.321.188-1.163,3.072a2.194,2.194,0,0,0,1.3,2.846A2.27,2.27,0,0,0,328.2,371.7l1.161-3.064.359.063a14.606,14.606,0,0,0,6.223-.25l.357-.093,1.358,2.969a2.184,2.184,0,0,0,1.247,1.15,2.267,2.267,0,0,0,2.892-1.322,2.186,2.186,0,0,0-.054-1.7l-1.358-2.969.3-.21a14.61,14.61,0,0,0,4.26-4.542l.187-.313,3.077,1.126a2.268,2.268,0,0,0,2.891-1.322,2.193,2.193,0,0,0-1.3-2.846l-3.085-1.129.068-.366a14.251,14.251,0,0,0-.2-6.17l-.091-.357,3-1.37a2.246,2.246,0,0,0,1.176-1.253,2.194,2.194,0,0,0-1.3-2.846,2.245,2.245,0,0,0-1.717.069l-3,1.371-.21-.3a14.256,14.256,0,0,0-4.537-4.185l-.322-.188,1.164-3.072a2.194,2.194,0,0,0-1.3-2.846,2.268,2.268,0,0,0-2.891,1.322l-1.162,3.064-.359-.063a14.594,14.594,0,0,0-6.222.25l-.358.093L327.1,337.44a2.253,2.253,0,0,0-4.139.172,2.185,2.185,0,0,0,.054,1.7l1.358,2.969-.3.21a14.592,14.592,0,0,0-4.26,4.542l-.187.313-3.077-1.126a2.268,2.268,0,0,0-2.891,1.322,2.194,2.194,0,0,0,1.3,2.846l3.085,1.129-.068.367a14.242,14.242,0,0,0,.2,6.169l.091.356-3,1.371a2.247,2.247,0,0,0-1.175,1.253,2.187,2.187,0,0,0,.054,1.7,2.234,2.234,0,0,0,2.964,1.081Zm12.2,3.232a11.292,11.292,0,1,1,10.431-16.015,11.127,11.127,0,0,1,.277,8.63,11.48,11.48,0,0,1-10.708,7.385Zm.156-21.68a10.411,10.411,0,1,0,4.237,19.838h0a10.5,10.5,0,0,0,5.491-5.855,10.25,10.25,0,0,0-.255-7.951A10.387,10.387,0,0,0,332.462,343.985Z" transform="translate(-302.06 -297.53)" fill="#fff"/>
        </g>
        <g id="Grupo_83139" data-name="Grupo 83139" transform="translate(16.223)">
          <g id="Grupo_83135" data-name="Grupo 83135" transform="translate(36.505 26.557)">
            <g id="Grupo_83134" data-name="Grupo 83134">
              <g id="Grupo_83133" data-name="Grupo 83133">
                <path id="Rectángulo_24248" data-name="Rectángulo 24248" d="M2.582,0H12.928A2.583,2.583,0,0,1,15.51,2.583v7.626a2.583,2.583,0,0,1-2.583,2.583H2.583A2.583,2.583,0,0,1,0,10.208V2.582A2.582,2.582,0,0,1,2.582,0Z" transform="translate(3.383 0.429) rotate(13.354)" fill="#ffb44f"/>
                <path id="Trazado_103922" data-name="Trazado 103922" d="M249.588,146.234a1.789,1.789,0,0,1-.415-.049h0L236.3,143.129a1.8,1.8,0,0,1-1.335-2.165l2.429-10.232a1.8,1.8,0,0,1,2.165-1.334l12.878,3.057a1.8,1.8,0,0,1,1.334,2.165l-2.43,10.232A1.8,1.8,0,0,1,249.588,146.234Zm-.11-1.335a.475.475,0,0,0,.574-.354l2.43-10.232a.478.478,0,0,0-.354-.574l-12.878-3.057a.477.477,0,0,0-.574.354l-2.429,10.231a.478.478,0,0,0,.354.574l12.878,3.057Z" transform="translate(-234.912 -129.349)" fill="#233863"/>
              </g>
              <path id="Trazado_103923" data-name="Trazado 103923" d="M250.687,147.579a1.078,1.078,0,0,1-.224-.024,1.036,1.036,0,0,1-.657-.458l-1.619-2.543a.661.661,0,0,1,1.115-.71l1.467,2.305,5.466-3.524a.661.661,0,0,1,.716,1.111l-5.7,3.676A1.036,1.036,0,0,1,250.687,147.579Z" transform="translate(-242.282 -136.718)" fill="#fff"/>
            </g>
          </g>
          <g id="Grupo_83138" data-name="Grupo 83138" transform="translate(145.661 30.335)">
            <g id="Grupo_83137" data-name="Grupo 83137">
              <g id="Grupo_83136" data-name="Grupo 83136">
                <path id="Rectángulo_24249" data-name="Rectángulo 24249" d="M2.583,0H12.928A2.582,2.582,0,0,1,15.51,2.582v7.626a2.582,2.582,0,0,1-2.582,2.582H2.582A2.582,2.582,0,0,1,0,10.208V2.583A2.583,2.583,0,0,1,2.583,0Z" transform="matrix(0.994, -0.11, 0.11, 0.994, 0.542, 2.255)" fill="#3aaed5"/>
                <path id="Trazado_103924" data-name="Trazado 103924" d="M485.679,153.436a1.8,1.8,0,0,1-1.784-1.6l-1.161-10.451a1.8,1.8,0,0,1,1.589-1.986l13.154-1.462a1.8,1.8,0,0,1,1.987,1.588l1.161,10.452a1.8,1.8,0,0,1-1.589,1.986l-13.154,1.462A1.855,1.855,0,0,1,485.679,153.436Zm12-14.189a.426.426,0,0,0-.053,0l-13.154,1.462a.477.477,0,0,0-.421.526l1.162,10.451a.477.477,0,0,0,.527.421l13.154-1.462h0a.477.477,0,0,0,.421-.526l-1.162-10.451A.477.477,0,0,0,497.676,139.247Z" transform="translate(-482.723 -137.926)" fill="#233863"/>
              </g>
              <path id="Trazado_103925" data-name="Trazado 103925" d="M497.7,152.935a1.032,1.032,0,0,1-.636-.219l-2.38-1.848a.661.661,0,1,1,.81-1.044l2.158,1.676,3.958-5.159a.661.661,0,0,1,1.049.8l-4.13,5.382a1.035,1.035,0,0,1-.694.4A1.07,1.07,0,0,1,497.7,152.935Z" transform="translate(-489.273 -142.489)" fill="#fff"/>
            </g>
          </g>
          <circle id="Elipse_4096" data-name="Elipse 4096" cx="3.595" cy="3.595" r="3.595" transform="translate(0 49.682)" fill="#3aaed5"/>
          <circle id="Elipse_4097" data-name="Elipse 4097" cx="3.595" cy="3.595" r="3.595" transform="translate(94.223)" fill="#3aaed5"/>
          <path id="Trazado_103926" data-name="Trazado 103926" d="M208.933,186.442a1.366,1.366,0,1,1-1.366-1.366A1.366,1.366,0,0,1,208.933,186.442Z" transform="translate(-182.343 -133.972)" fill="#3d85fd"/>
          <path id="Trazado_103927" data-name="Trazado 103927" d="M565.916,159.267a1.366,1.366,0,1,1-1.365-1.366A1.365,1.365,0,0,1,565.916,159.267Z" transform="translate(-382.082 -118.767)" fill="#3d85fd"/>
          <circle id="Elipse_4098" data-name="Elipse 4098" cx="1.366" cy="1.366" r="1.366" transform="translate(51.308 12.022)" fill="#3d85fd"/>
          <circle id="Elipse_4099" data-name="Elipse 4099" cx="1.366" cy="1.366" r="1.366" transform="translate(6.343 76.572)" fill="#ffb44f"/>
          <circle id="Elipse_4100" data-name="Elipse 4100" cx="1.366" cy="1.366" r="1.366" transform="translate(189.84 88.332)" fill="#ffb44f"/>
          <path id="Trazado_103928" data-name="Trazado 103928" d="M631.374,308a2.516,2.516,0,1,1-2.516-2.516A2.516,2.516,0,0,1,631.374,308Z" transform="translate(-417.42 -201.346)" fill="#ffb44f"/>
          <path id="Trazado_103929" data-name="Trazado 103929" d="M449.5,123.148a2.975,2.975,0,1,1-2.975-2.975A2.975,2.975,0,0,1,449.5,123.148Z" transform="translate(-315.146 -97.658)" fill="#ffb44f"/>
        </g>
      </g>
      <g id="Grupo_83158" data-name="Grupo 83158" transform="translate(132.778 121.189)">
        <g id="Grupo_83142" data-name="Grupo 83142" transform="translate(2.93 54.222)">
          <g id="Grupo_83141" data-name="Grupo 83141">
            <rect id="Rectángulo_24250" data-name="Rectángulo 24250" width="60.334" height="43.879" rx="14.943" transform="translate(0.647 0.774) rotate(-0.12)" fill="#3d85fd"/>
            <path id="Trazado_103930" data-name="Trazado 103930" d="M169.058,355.806a7.251,7.251,0,0,1-7.243-7.227l-.064-30.716a7.251,7.251,0,0,1,7.227-7.258l47.17-.1h.015a7.251,7.251,0,0,1,7.243,7.227l.064,30.716a7.262,7.262,0,0,1-7.227,7.257h0l-47.17.1Zm47.184-.76h0Zm-.079-43.219h-.012l-47.17.1a5.928,5.928,0,0,0-5.909,5.934l.064,30.716a5.929,5.929,0,0,0,5.921,5.909h.013l47.17-.1a5.941,5.941,0,0,0,5.909-5.934l-.064-30.716A5.928,5.928,0,0,0,216.163,311.827Z" transform="translate(-161.751 -310.506)" fill="#233863"/>
          </g>
          <rect id="Rectángulo_24251" data-name="Rectángulo 24251" width="60.334" height="43.879" rx="14.943" transform="translate(0.647 0.774) rotate(-0.12)" fill="#233863" opacity="0.24"/>
        </g>
        <g id="Grupo_83152" data-name="Grupo 83152" transform="translate(0)">
          <g id="Grupo_83144" data-name="Grupo 83144" transform="translate(33.164 42.244)">
            <g id="Grupo_83143" data-name="Grupo 83143">
              <rect id="Rectángulo_24252" data-name="Rectángulo 24252" width="29.9" height="40.084" rx="1.277" transform="translate(28.168 0.428) rotate(43.793)" fill="#fff"/>
              <path id="Trazado_103931" data-name="Trazado 103931" d="M252.383,333.8a1.215,1.215,0,0,1-.846-.34h0l-20.771-19.913a1.224,1.224,0,0,1-.036-1.73l26.961-28.122a1.225,1.225,0,0,1,1.73-.036l20.771,19.914a1.225,1.225,0,0,1,.036,1.73l-26.961,28.122a1.215,1.215,0,0,1-.858.376Zm.069-1.295h0Zm-20.7-19.845,20.629,19.778,26.826-27.98-20.63-19.779Z" transform="translate(-230.389 -283.313)" fill="#233863"/>
            </g>
            <path id="Trazado_103932" data-name="Trazado 103932" d="M318,321.189a.44.44,0,0,1-.3-.122l-7.82-7.5a.441.441,0,0,1,.61-.636l7.82,7.5a.441.441,0,0,1-.305.758Z" transform="translate(-274.787 -299.818)" fill="#ffb44f"/>
            <path id="Trazado_103933" data-name="Trazado 103933" d="M299.143,323.381a.44.44,0,0,1-.3-.122L283.2,308.264a.441.441,0,0,1,.61-.636l15.64,14.995a.441.441,0,0,1-.305.758Z" transform="translate(-259.861 -296.849)" fill="#233863"/>
            <path id="Trazado_103934" data-name="Trazado 103934" d="M287.569,335.453a.441.441,0,0,1-.3-.122l-15.64-14.995a.441.441,0,0,1,.61-.636l15.64,14.995a.441.441,0,0,1-.305.758Z" transform="translate(-253.385 -303.604)" fill="#233863"/>
            <path id="Trazado_103935" data-name="Trazado 103935" d="M276.676,346.815a.439.439,0,0,1-.305-.122L260.73,331.7a.441.441,0,1,1,.61-.636l15.641,14.995a.44.44,0,0,1-.3.758Z" transform="translate(-247.29 -309.961)" fill="#233863"/>
            <path id="Trazado_103936" data-name="Trazado 103936" d="M265.1,358.888a.439.439,0,0,1-.3-.123L249.156,343.77a.441.441,0,0,1,.61-.636l15.641,14.995a.441.441,0,0,1-.305.758Z" transform="translate(-240.814 -316.716)" fill="#233863"/>
          </g>
          <g id="Grupo_83147" data-name="Grupo 83147" transform="translate(0 28.712)">
            <g id="Grupo_83145" data-name="Grupo 83145">
              <rect id="Rectángulo_24253" data-name="Rectángulo 24253" width="29.9" height="40.084" rx="1.277" transform="translate(0.491 11.797) rotate(-22.221)" fill="#fff"/>
              <path id="Trazado_103937" data-name="Trazado 103937" d="M171.057,301.987a1.226,1.226,0,0,1-1.132-.761l-14.733-36.065a1.222,1.222,0,0,1,.67-1.6L182.5,252.683a1.225,1.225,0,0,1,1.595.67l14.734,36.065a1.225,1.225,0,0,1-.67,1.595h0L171.519,301.9A1.216,1.216,0,0,1,171.057,301.987Zm-14.605-37.236,14.659,35.884,26.457-10.808-14.66-35.884ZM197.907,290.4h0Zm-.25-.611h0Z" transform="translate(-155.099 -252.593)" fill="#233863"/>
            </g>
            <path id="Trazado_103938" data-name="Trazado 103938" d="M208.743,281.758a.44.44,0,0,1-.166-.848l4.581-1.872a.441.441,0,0,1,.333.816l-4.581,1.872A.443.443,0,0,1,208.743,281.758Z" transform="translate(-184.867 -267.371)" fill="#233863"/>
            <path id="Trazado_103939" data-name="Trazado 103939" d="M179.931,303.563a.441.441,0,0,1-.166-.848l20.057-8.194a.44.44,0,1,1,.333.815L180.1,303.53A.443.443,0,0,1,179.931,303.563Z" transform="translate(-168.747 -276.034)" fill="#233863"/>
            <path id="Trazado_103940" data-name="Trazado 103940" d="M211.671,309.16a.441.441,0,0,1-.167-.848l7.973-3.257a.44.44,0,1,1,.333.815l-7.973,3.257A.435.435,0,0,1,211.671,309.16Z" transform="translate(-186.506 -281.928)" fill="#ffb44f"/>
            <path id="Trazado_103941" data-name="Trazado 103941" d="M184.234,321.973a.44.44,0,0,1-.167-.848l4.88-1.994a.44.44,0,1,1,.333.815l-4.88,1.994A.435.435,0,0,1,184.234,321.973Z" transform="translate(-171.154 -289.804)" fill="#ffb44f"/>
            <path id="Trazado_103942" data-name="Trazado 103942" d="M187.808,330.377a.441.441,0,0,1-.166-.848L200,324.481a.441.441,0,0,1,.333.816l-12.354,5.047A.434.434,0,0,1,187.808,330.377Z" transform="translate(-173.154 -292.797)" fill="#233863"/>
            <g id="Grupo_83146" data-name="Grupo 83146" transform="translate(4.349 4.17)">
              <rect id="Rectángulo_24254" data-name="Rectángulo 24254" width="13.374" height="14.218" rx="2.004" transform="matrix(0.918, -0.398, 0.398, 0.918, 0.163, 5.479)" fill="#ffb44f"/>
              <path id="Trazado_103943" data-name="Trazado 103943" d="M171.248,280.748a1.327,1.327,0,0,1-1.215-.8l-4.951-11.427a1.324,1.324,0,0,1,.688-1.74l10.651-4.614a1.325,1.325,0,0,1,1.74.688l4.951,11.427a1.323,1.323,0,0,1-.688,1.74h0l-10.651,4.614A1.32,1.32,0,0,1,171.248,280.748Zm5.7-17.807a.441.441,0,0,0-.175.036l-10.651,4.615a.443.443,0,0,0-.23.582l4.951,11.426a.443.443,0,0,0,.581.23l10.651-4.615a.443.443,0,0,0,.23-.582l-4.951-11.426A.443.443,0,0,0,176.947,262.941Zm5.3,12.678h0Z" transform="translate(-164.973 -262.059)" fill="#233863"/>
            </g>
            <path id="Trazado_103944" data-name="Trazado 103944" d="M175.31,272.415a1.044,1.044,0,0,1-.956-.629l-.581-1.34a.22.22,0,0,1,.4-.176l.581,1.34a.6.6,0,0,0,.79.313l.1-.042a.465.465,0,0,0,.241-.611l-1.469-3.391a.481.481,0,0,0-.631-.25l-.167.073a.51.51,0,0,0-.265.671l.036.083a.22.22,0,0,1-.4.177l-.037-.084a.951.951,0,0,1,.494-1.25l.167-.073a.924.924,0,0,1,1.21.478l1.469,3.392a.907.907,0,0,1-.471,1.191l-.1.042A1.035,1.035,0,0,1,175.31,272.415Z" transform="translate(-165.044 -260.738)" fill="#233863"/>
            <path id="Trazado_103945" data-name="Trazado 103945" d="M190.554,267.383a.936.936,0,1,1-1.323-.013A.936.936,0,0,1,190.554,267.383Z" transform="translate(-174.04 -260.711)" fill="#fff"/>
          </g>
          <g id="Grupo_83149" data-name="Grupo 83149" transform="translate(24.831)">
            <g id="Grupo_83148" data-name="Grupo 83148">
              <rect id="Rectángulo_24255" data-name="Rectángulo 24255" width="29.9" height="40.084" rx="1.277" transform="translate(0.485 12.171) rotate(-23.003)" fill="#fff"/>
              <path id="Trazado_103946" data-name="Trazado 103946" d="M227.918,236.962a1.226,1.226,0,0,1-1.126-.746l-15.224-35.861a1.225,1.225,0,0,1,.648-1.6L238.7,187.507a1.223,1.223,0,0,1,1.6.649l15.224,35.86a1.222,1.222,0,0,1-.648,1.6L228.4,236.864A1.223,1.223,0,0,1,227.918,236.962Zm-15.1-37.033,15.148,35.68,26.306-11.168-15.147-35.68Z" transform="translate(-211.471 -187.409)" fill="#233863"/>
            </g>
            <path id="Trazado_103947" data-name="Trazado 103947" d="M265.165,216.619a.441.441,0,0,1-.172-.846l4.555-1.934a.44.44,0,1,1,.344.811l-4.555,1.934A.439.439,0,0,1,265.165,216.619Z" transform="translate(-241.267 -202.178)" fill="#233863"/>
            <path id="Trazado_103948" data-name="Trazado 103948" d="M236.762,238.547a.44.44,0,0,1-.172-.846l19.944-8.467a.44.44,0,1,1,.344.811l-19.944,8.467A.44.44,0,0,1,236.762,238.547Z" transform="translate(-225.375 -210.791)" fill="#233863"/>
            <path id="Trazado_103949" data-name="Trazado 103949" d="M268.49,243.92a.441.441,0,0,1-.172-.846l7.927-3.366a.441.441,0,1,1,.344.811l-7.928,3.366A.436.436,0,0,1,268.49,243.92Z" transform="translate(-243.127 -216.652)" fill="#ffb44f"/>
            <path id="Trazado_103950" data-name="Trazado 103950" d="M241.209,257.159a.441.441,0,0,1-.172-.846l4.853-2.06a.441.441,0,0,1,.344.811l-4.853,2.06A.439.439,0,0,1,241.209,257.159Z" transform="translate(-227.863 -224.79)" fill="#ffb44f"/>
            <path id="Trazado_103951" data-name="Trazado 103951" d="M244.95,265.384a.441.441,0,0,1-.172-.846l12.285-5.215a.441.441,0,0,1,.344.811l-12.285,5.215A.437.437,0,0,1,244.95,265.384Z" transform="translate(-229.956 -227.627)" fill="#233863"/>
          </g>
          <g id="Grupo_83151" data-name="Grupo 83151" transform="translate(24.857 31.235)">
            <g id="Grupo_83150" data-name="Grupo 83150">
              <rect id="Rectángulo_24256" data-name="Rectángulo 24256" width="29.9" height="40.084" rx="1.277" transform="matrix(0.989, 0.15, -0.15, 0.989, 6.596, 0.583)" fill="#3aaed5"/>
              <path id="Trazado_103952" data-name="Trazado 103952" d="M241.205,303.6a1.266,1.266,0,0,1-.186-.014h0L212.57,299.27a1.223,1.223,0,0,1-1.026-1.394l5.843-38.517a1.224,1.224,0,0,1,1.393-1.026l28.45,4.316a1.225,1.225,0,0,1,1.026,1.393l-5.844,38.518a1.224,1.224,0,0,1-1.207,1.04Zm-28.34-5.622,28.256,4.287,5.814-38.324-28.256-4.287Z" transform="translate(-211.53 -258.319)" fill="#233863"/>
            </g>
            <path id="Trazado_103953" data-name="Trazado 103953" d="M241,273.251a.425.425,0,0,1-.067-.005l-5.462-.829a.44.44,0,1,1,.133-.87l5.461.829a.44.44,0,0,1-.066.876Z" transform="translate(-224.719 -265.717)" fill="#fff"/>
            <path id="Trazado_103954" data-name="Trazado 103954" d="M272.162,291.411a.5.5,0,0,1-.067,0l-6.271-.952a.44.44,0,1,1,.133-.87l6.271.951a.44.44,0,0,1-.066.876Z" transform="translate(-241.699 -275.81)" fill="#233863"/>
            <path id="Trazado_103955" data-name="Trazado 103955" d="M242.205,286.867a.429.429,0,0,1-.067-.005l-10.711-1.625a.44.44,0,1,1,.133-.871l10.711,1.625a.44.44,0,0,1-.066.876Z" transform="translate(-222.454 -272.89)" fill="#fff"/>
            <path id="Trazado_103956" data-name="Trazado 103956" d="M241.19,303.629a.421.421,0,0,1-.066-.005l-12.2-1.851a.44.44,0,0,1,.133-.871l12.2,1.851a.441.441,0,0,1-.066.876Z" transform="translate(-221.05 -282.142)" fill="#233863"/>
            <path id="Trazado_103957" data-name="Trazado 103957" d="M248.047,320.59a.429.429,0,0,1-.066-.005l-21.422-3.25a.44.44,0,1,1,.133-.87l21.422,3.25a.44.44,0,0,1-.066.876Z" transform="translate(-219.729 -290.85)" fill="#fff"/>
            <path id="Trazado_103958" data-name="Trazado 103958" d="M236.162,335.7a.438.438,0,0,1-.067-.005L224.05,333.87a.44.44,0,1,1,.133-.87l12.046,1.827a.441.441,0,0,1-.066.876Z" transform="translate(-218.325 -300.101)" fill="#fff"/>
          </g>
        </g>
        <g id="Grupo_83157" data-name="Grupo 83157" transform="translate(2.925 51.475)">
          <g id="Grupo_83153" data-name="Grupo 83153" transform="translate(0.221 8.448)">
            <path id="Trazado_103959" data-name="Trazado 103959" d="M218.819,368.329l-50.655.106a4.854,4.854,0,0,1-4.85-4.829l-.072-34.2a4.854,4.854,0,0,1,4.829-4.85l50.655-.106a4.854,4.854,0,0,1,4.85,4.829l.072,34.2A4.854,4.854,0,0,1,218.819,368.329Z" transform="translate(-162.801 -324.01)" fill="#fff"/>
            <path id="Trazado_103960" data-name="Trazado 103960" d="M167.594,368.317a5.295,5.295,0,0,1-5.28-5.27l-.072-34.2a5.295,5.295,0,0,1,5.269-5.291l50.655-.106h.011a5.286,5.286,0,0,1,5.28,5.269l.072,34.2a5.286,5.286,0,0,1-5.269,5.291v0l-50.655.107Zm50.583-43.986h-.009l-50.655.106a4.414,4.414,0,0,0-4.39,4.408l.072,34.2a4.413,4.413,0,0,0,4.4,4.39h.009l50.655-.107h0a4.4,4.4,0,0,0,4.39-4.408l-.072-34.2A4.4,4.4,0,0,0,218.177,324.331Z" transform="translate(-162.242 -323.45)" fill="#233863"/>
          </g>
          <g id="Grupo_83154" data-name="Grupo 83154">
            <path id="Trazado_103961" data-name="Trazado 103961" d="M219.231,305.769l-12.777.027a4.319,4.319,0,0,0-4.3,4.316l.013,6.114-32.361.068a6.6,6.6,0,0,0-6.568,6.6l.065,30.716a6.6,6.6,0,0,0,6.6,6.568l47.17-.1a6.6,6.6,0,0,0,6.568-6.6l-.063-30.086,0-.629-.026-12.7A4.32,4.32,0,0,0,219.231,305.769Z" transform="translate(-162.579 -305.109)" fill="#3d85fd"/>
            <path id="Trazado_103962" data-name="Trazado 103962" d="M169.048,360a7.251,7.251,0,0,1-7.243-7.227l-.065-30.716a7.251,7.251,0,0,1,7.227-7.258l31.7-.066-.011-5.454a4.981,4.981,0,0,1,4.958-4.978l12.777-.026h.011a4.973,4.973,0,0,1,4.968,4.957l.091,43.412a7.251,7.251,0,0,1-7.227,7.258l-47.171.1Zm49.345-54.4-12.776.026a3.659,3.659,0,0,0-3.639,3.654l.013,6.114a.661.661,0,0,1-.659.662l-32.361.068a5.928,5.928,0,0,0-5.909,5.934l.065,30.716a5.928,5.928,0,0,0,5.921,5.909h.012l47.171-.1a5.928,5.928,0,0,0,5.909-5.934l-.091-43.412a3.65,3.65,0,0,0-3.646-3.638Zm0-.661h0Z" transform="translate(-161.74 -304.27)" fill="#233863"/>
          </g>
          <path id="Trazado_103963" data-name="Trazado 103963" d="M225.709,316.891l-11.432.024a3.865,3.865,0,0,0-3.846,3.863l.011,5.472-28.955.061a5.907,5.907,0,0,0-5.877,5.9l.058,27.488a5.907,5.907,0,0,0,5.9,5.878l42.206-.089a5.908,5.908,0,0,0,5.877-5.9l-.057-26.925V332.1l-.024-11.362A3.866,3.866,0,0,0,225.709,316.891Z" transform="translate(-169.501 -311.332)" fill="#fff" opacity="0.12"/>
          <path id="Trazado_103964" data-name="Trazado 103964" d="M285.391,411.945a2.151,2.151,0,1,1-2.151-2.151A2.151,2.151,0,0,1,285.391,411.945Z" transform="translate(-228.518 -363.313)" fill="#fff"/>
          <path id="Trazado_103965" data-name="Trazado 103965" d="M285.262,320.756a.44.44,0,0,1-.44-.44v-5.855a1.87,1.87,0,0,0-1.943-1.782h-4.266a.44.44,0,0,1,0-.881h4.266a2.75,2.75,0,0,1,2.824,2.663v5.855A.44.44,0,0,1,285.262,320.756Z" transform="translate(-226.886 -308.482)" fill="#fff"/>
          <g id="Grupo_83156" data-name="Grupo 83156" transform="translate(20.625 22.669)">
            <g id="Grupo_83155" data-name="Grupo 83155" transform="translate(5.143)">
              <path id="Trazado_103966" data-name="Trazado 103966" d="M221.339,362.71a1.1,1.1,0,0,1-.772-1.887l5.176-5.088,5.1,5.1a1.1,1.1,0,0,1-1.557,1.557l-3.551-3.551-3.619,3.558A1.1,1.1,0,0,1,221.339,362.71Z" transform="translate(-220.238 -355.735)" fill="#fff"/>
              <path id="Trazado_103967" data-name="Trazado 103967" d="M231.238,370.1a1.1,1.1,0,0,1-1.1-1.1V357.857a1.1,1.1,0,0,1,2.2,0V369A1.1,1.1,0,0,1,231.238,370.1Z" transform="translate(-225.777 -356.306)" fill="#fff"/>
            </g>
            <path id="Trazado_103968" data-name="Trazado 103968" d="M227.274,387.122H210.931a2.371,2.371,0,0,1-2.368-2.368v-5.937a1.1,1.1,0,1,1,2.2,0v5.937a.166.166,0,0,0,.166.166h16.343a.294.294,0,0,0,.294-.294v-5.809a1.1,1.1,0,0,1,2.2,0v5.809A2.5,2.5,0,0,1,227.274,387.122Z" transform="translate(-208.563 -368.034)" fill="#fff"/>
          </g>
        </g>
      </g>
      <g id="Grupo_83169" data-name="Grupo 83169" transform="translate(257.702 172.664)">
        <g id="Grupo_83161" data-name="Grupo 83161" transform="translate(0.004 2.747)">
          <g id="Grupo_83159" data-name="Grupo 83159">
            <rect id="Rectángulo_24257" data-name="Rectángulo 24257" width="60.334" height="43.879" rx="14.943" transform="translate(0.647 0.774) rotate(-0.12)" fill="#3d85fd"/>
            <path id="Trazado_103969" data-name="Trazado 103969" d="M446.024,355.806a7.262,7.262,0,0,1-7.242-7.227l-.064-30.716a7.252,7.252,0,0,1,7.227-7.258l47.171-.1h.015a7.251,7.251,0,0,1,7.243,7.227l.065,30.716a7.251,7.251,0,0,1-7.227,7.257h0l-47.171.1Zm47.185-.76h0Zm-.079-43.219h-.012l-47.171.1a5.929,5.929,0,0,0-5.909,5.934l.064,30.716a5.941,5.941,0,0,0,5.921,5.909h.013l47.171-.1a5.941,5.941,0,0,0,5.909-5.934l-.065-30.716A5.928,5.928,0,0,0,493.13,311.827Z" transform="translate(-438.717 -310.506)" fill="#233863"/>
          </g>
          <g id="Grupo_83160" data-name="Grupo 83160">
            <rect id="Rectángulo_24258" data-name="Rectángulo 24258" width="60.334" height="43.879" rx="14.943" transform="translate(0.647 0.774) rotate(-0.12)" fill="#ffb44f"/>
            <path id="Trazado_103970" data-name="Trazado 103970" d="M446.024,355.806a7.262,7.262,0,0,1-7.242-7.227l-.064-30.716a7.252,7.252,0,0,1,7.227-7.258l47.171-.1h.015a7.251,7.251,0,0,1,7.243,7.227l.065,30.716a7.251,7.251,0,0,1-7.227,7.257h0l-47.171.1Zm47.185-.76h0Zm-.079-43.219h-.012l-47.171.1a5.929,5.929,0,0,0-5.909,5.934l.064,30.716a5.941,5.941,0,0,0,5.921,5.909h.013l47.171-.1a5.941,5.941,0,0,0,5.909-5.934l-.065-30.716A5.928,5.928,0,0,0,493.13,311.827Z" transform="translate(-438.717 -310.506)" fill="#233863"/>
          </g>
          <rect id="Rectángulo_24259" data-name="Rectángulo 24259" width="60.334" height="43.879" rx="14.943" transform="translate(0.647 0.774) rotate(-0.12)" fill="#233863" opacity="0.24"/>
        </g>
        <g id="Grupo_83164" data-name="Grupo 83164" transform="translate(0.221 5.706)">
          <g id="Grupo_83162" data-name="Grupo 83162">
            <rect id="Rectángulo_24260" data-name="Rectángulo 24260" width="60.334" height="43.879" rx="10.987" transform="translate(0.43 0.557) rotate(-0.12)" fill="#fff"/>
            <path id="Trazado_103971" data-name="Trazado 103971" d="M444.56,362.091a5.286,5.286,0,0,1-5.28-5.269l-.072-34.2a5.286,5.286,0,0,1,5.269-5.292l50.655-.106h.011a5.286,5.286,0,0,1,5.28,5.269l.072,34.2a5.287,5.287,0,0,1-5.269,5.292l-50.655.106Zm50.665-.987v0a4.4,4.4,0,0,0,4.39-4.409l-.072-34.2a4.4,4.4,0,0,0-4.4-4.39h-.009l-50.655.106a4.4,4.4,0,0,0-4.39,4.409l.072,34.2a4.4,4.4,0,0,0,4.4,4.39h.01Z" transform="translate(-439.209 -317.224)" fill="#233863"/>
          </g>
          <g id="Grupo_83163" data-name="Grupo 83163" transform="translate(0 2.742)">
            <path id="Trazado_103972" data-name="Trazado 103972" d="M495.785,368.329l-50.655.106a4.853,4.853,0,0,1-4.85-4.829l-.072-34.2a4.854,4.854,0,0,1,4.829-4.85l50.655-.106a4.854,4.854,0,0,1,4.85,4.829l.072,34.2A4.854,4.854,0,0,1,495.785,368.329Z" transform="translate(-439.768 -324.01)" fill="#fff"/>
            <path id="Trazado_103973" data-name="Trazado 103973" d="M444.56,368.317a5.287,5.287,0,0,1-5.28-5.27l-.072-34.2a5.295,5.295,0,0,1,5.269-5.291l50.655-.106h.011a5.286,5.286,0,0,1,5.28,5.269l.072,34.2a5.286,5.286,0,0,1-5.269,5.291v0l-50.655.107Zm50.584-43.986h-.009l-50.655.106a4.414,4.414,0,0,0-4.39,4.408l.072,34.2a4.4,4.4,0,0,0,4.4,4.39h.01l50.655-.107h0a4.4,4.4,0,0,0,4.39-4.408l-.072-34.2A4.4,4.4,0,0,0,495.144,324.331Z" transform="translate(-439.209 -323.45)" fill="#233863"/>
          </g>
        </g>
        <g id="Grupo_83168" data-name="Grupo 83168" transform="translate(0 0)">
          <g id="Grupo_83165" data-name="Grupo 83165">
            <path id="Trazado_103974" data-name="Trazado 103974" d="M496.2,305.769l-12.777.027a4.32,4.32,0,0,0-4.3,4.316l.013,6.114-32.361.068a6.6,6.6,0,0,0-6.568,6.6l.064,30.716a6.6,6.6,0,0,0,6.6,6.568l47.17-.1a6.6,6.6,0,0,0,6.568-6.6l-.063-30.086v-.629l-.026-12.7A4.32,4.32,0,0,0,496.2,305.769Z" transform="translate(-439.546 -305.109)" fill="#ffb44f"/>
            <path id="Trazado_103975" data-name="Trazado 103975" d="M446.015,360a7.25,7.25,0,0,1-7.243-7.227l-.065-30.716a7.251,7.251,0,0,1,7.227-7.258l31.7-.066-.011-5.454a4.981,4.981,0,0,1,4.957-4.978l12.777-.026h.011a4.98,4.98,0,0,1,4.967,4.957l.091,43.412A7.262,7.262,0,0,1,493.2,359.9l-47.17.1Zm49.345-54.4-12.777.026a3.658,3.658,0,0,0-3.638,3.654l.012,6.114a.661.661,0,0,1-.659.662l-32.361.068a5.928,5.928,0,0,0-5.909,5.934l.065,30.716a5.927,5.927,0,0,0,5.921,5.909h.012l47.17-.1a5.94,5.94,0,0,0,5.909-5.934l-.091-43.412a3.658,3.658,0,0,0-3.646-3.638Zm0-.661h0Z" transform="translate(-438.707 -304.27)" fill="#233863"/>
          </g>
          <path id="Trazado_103976" data-name="Trazado 103976" d="M502.394,316.891l-11.432.024a3.865,3.865,0,0,0-3.846,3.863l.011,5.472-28.955.061a5.907,5.907,0,0,0-5.877,5.9l.058,27.488a5.908,5.908,0,0,0,5.9,5.878l42.206-.089a5.907,5.907,0,0,0,5.877-5.9l-.056-26.925V332.1l-.024-11.362A3.866,3.866,0,0,0,502.394,316.891Z" transform="translate(-446.31 -311.332)" fill="#fff" opacity="0.12"/>
          <path id="Trazado_103977" data-name="Trazado 103977" d="M562.076,411.945a2.151,2.151,0,1,1-2.151-2.151A2.151,2.151,0,0,1,562.076,411.945Z" transform="translate(-505.327 -363.313)" fill="#fff"/>
          <path id="Trazado_103978" data-name="Trazado 103978" d="M561.946,320.756a.44.44,0,0,1-.44-.44v-5.855a1.869,1.869,0,0,0-1.943-1.782H555.3a.44.44,0,1,1,0-.881h4.266a2.75,2.75,0,0,1,2.823,2.663v5.855A.44.44,0,0,1,561.946,320.756Z" transform="translate(-503.694 -308.482)" fill="#fff"/>
          <g id="Grupo_83167" data-name="Grupo 83167" transform="translate(21.998 23.119)">
            <g id="Grupo_83166" data-name="Grupo 83166" transform="translate(5.143)">
              <path id="Trazado_103979" data-name="Trazado 103979" d="M505.741,379.218l-5.095-5.095a1.1,1.1,0,1,1,1.557-1.557l3.55,3.55,3.619-3.557a1.1,1.1,0,1,1,1.544,1.571Z" transform="translate(-500.323 -365.421)" fill="#fff"/>
              <path id="Trazado_103980" data-name="Trazado 103980" d="M511.322,370.1a1.1,1.1,0,0,1-1.1-1.1V357.857a1.1,1.1,0,1,1,2.2,0V369A1.1,1.1,0,0,1,511.322,370.1Z" transform="translate(-505.861 -356.756)" fill="#fff"/>
            </g>
            <path id="Trazado_103981" data-name="Trazado 103981" d="M507.359,387.122H491.016a2.371,2.371,0,0,1-2.368-2.368v-5.937a1.1,1.1,0,1,1,2.2,0v5.937a.166.166,0,0,0,.166.166h16.343a.294.294,0,0,0,.294-.294v-5.809a1.1,1.1,0,1,1,2.2,0v5.809A2.5,2.5,0,0,1,507.359,387.122Z" transform="translate(-488.648 -368.484)" fill="#fff"/>
          </g>
        </g>
      </g>
      <g id="Grupo_83196" data-name="Grupo 83196" transform="translate(204.569 93.298)">
        <g id="Grupo_83172" data-name="Grupo 83172" transform="translate(57.742 28.968)">
          <g id="Grupo_83170" data-name="Grupo 83170">
            <rect id="Rectángulo_24261" data-name="Rectángulo 24261" width="27.95" height="37.469" rx="1.277" transform="matrix(0.811, 0.585, -0.585, 0.811, 22.346, 0.438)" fill="#fff"/>
            <path id="Trazado_103982" data-name="Trazado 103982" d="M472.153,237.469a1.216,1.216,0,0,1-.713-.231h0l-21.761-15.685a1.226,1.226,0,0,1-.277-1.708l21.251-29.484a1.224,1.224,0,0,1,1.707-.278l21.761,15.685a1.226,1.226,0,0,1,.278,1.707l-21.251,29.484a1.216,1.216,0,0,1-.8.492A1.259,1.259,0,0,1,472.153,237.469Zm.06-1.3ZM450.531,220.54l21.6,15.57,21.136-29.324-21.6-15.57Z" transform="translate(-449.172 -189.855)" fill="#233863"/>
          </g>
          <g id="Grupo_83171" data-name="Grupo 83171">
            <rect id="Rectángulo_24262" data-name="Rectángulo 24262" width="27.95" height="37.469" rx="1.277" transform="matrix(0.811, 0.585, -0.585, 0.811, 22.346, 0.438)" fill="#3aaed5"/>
            <path id="Trazado_103983" data-name="Trazado 103983" d="M472.153,237.469a1.216,1.216,0,0,1-.713-.231h0l-21.761-15.685a1.226,1.226,0,0,1-.277-1.708l21.251-29.484a1.224,1.224,0,0,1,1.707-.278l21.761,15.685a1.226,1.226,0,0,1,.278,1.707l-21.251,29.484a1.216,1.216,0,0,1-.8.492A1.259,1.259,0,0,1,472.153,237.469Zm.06-1.3ZM450.531,220.54l21.6,15.57,21.136-29.324-21.6-15.57Z" transform="translate(-449.172 -189.855)" fill="#233863"/>
          </g>
          <path id="Trazado_103984" data-name="Trazado 103984" d="M525.521,237.938a.438.438,0,0,1-.257-.083l-3.752-2.7a.44.44,0,0,1,.515-.714l3.753,2.7a.441.441,0,0,1-.258.8Z" transform="translate(-489.545 -214.752)" fill="#233863"/>
          <path id="Trazado_103985" data-name="Trazado 103985" d="M500.276,239.014a.441.441,0,0,1-.257-.083l-16.431-11.842a.44.44,0,1,1,.515-.714l16.431,11.842a.441.441,0,0,1-.258.8Z" transform="translate(-468.326 -210.241)" fill="#233863"/>
          <path id="Trazado_103986" data-name="Trazado 103986" d="M506.632,256.707a.441.441,0,0,1-.257-.083l-6.531-4.707a.441.441,0,0,1,.515-.715l6.531,4.707a.441.441,0,0,1-.258.8Z" transform="translate(-477.421 -224.133)" fill="#ffb44f"/>
          <path id="Trazado_103987" data-name="Trazado 103987" d="M481.624,238.681a.438.438,0,0,1-.257-.083l-4-2.881a.44.44,0,1,1,.515-.714l4,2.881a.44.44,0,0,1-.258.8Z" transform="translate(-464.846 -215.069)" fill="#ffb44f"/>
          <path id="Trazado_103988" data-name="Trazado 103988" d="M479.779,252.011a.441.441,0,0,1-.257-.083l-10.12-7.294a.44.44,0,1,1,.515-.714l10.12,7.294a.441.441,0,0,1-.258.8Z" transform="translate(-460.388 -220.058)" fill="#233863"/>
        </g>
        <g id="Grupo_83175" data-name="Grupo 83175" transform="translate(54.671 23.825)">
          <g id="Grupo_83173" data-name="Grupo 83173">
            <rect id="Rectángulo_24263" data-name="Rectángulo 24263" width="29.9" height="40.084" rx="1.277" transform="translate(14.887 0.496) rotate(21.04)" fill="#fff"/>
            <path id="Trazado_103989" data-name="Trazado 103989" d="M470.276,227.317a1.219,1.219,0,0,1-.437-.081h0L442.983,216.9a1.225,1.225,0,0,1-.7-1.582l13.987-36.361a1.226,1.226,0,0,1,1.581-.7L484.7,188.591a1.225,1.225,0,0,1,.7,1.581L471.42,226.533A1.227,1.227,0,0,1,470.276,227.317Zm-26.728-11.611,26.673,10.261,13.917-36.178-26.674-10.261Z" transform="translate(-442.198 -178.179)" fill="#233863"/>
          </g>
          <g id="Grupo_83174" data-name="Grupo 83174">
            <rect id="Rectángulo_24264" data-name="Rectángulo 24264" width="29.9" height="40.084" rx="1.277" transform="translate(14.887 0.496) rotate(21.04)" fill="#fff"/>
            <path id="Trazado_103990" data-name="Trazado 103990" d="M470.276,227.317a1.219,1.219,0,0,1-.437-.081h0L442.983,216.9a1.225,1.225,0,0,1-.7-1.582l13.987-36.361a1.226,1.226,0,0,1,1.581-.7L484.7,188.591a1.225,1.225,0,0,1,.7,1.581L471.42,226.533A1.227,1.227,0,0,1,470.276,227.317Zm-26.728-11.611,26.673,10.261,13.917-36.178-26.674-10.261Z" transform="translate(-442.198 -178.179)" fill="#233863"/>
          </g>
          <path id="Trazado_103991" data-name="Trazado 103991" d="M481.541,207.007a.449.449,0,0,1-.159-.03l-4.618-1.776a.44.44,0,1,1,.317-.822l4.618,1.776a.44.44,0,0,1-.158.851Z" transform="translate(-461.38 -192.822)" fill="#233863"/>
          <path id="Trazado_103992" data-name="Trazado 103992" d="M489.547,228.884a.435.435,0,0,1-.158-.03l-20.223-7.779a.44.44,0,1,1,.317-.822l20.223,7.779a.441.441,0,0,1-.158.852Z" transform="translate(-457.129 -201.703)" fill="#233863"/>
          <path id="Trazado_103993" data-name="Trazado 103993" d="M500.938,245.458a.445.445,0,0,1-.158-.029l-8.038-3.092a.44.44,0,1,1,.316-.822l8.038,3.092a.44.44,0,0,1-.158.851Z" transform="translate(-470.32 -213.6)" fill="#ffb44f"/>
          <path id="Trazado_103994" data-name="Trazado 103994" d="M470.159,233.618a.449.449,0,0,1-.159-.029l-4.92-1.893a.44.44,0,1,1,.316-.822l4.92,1.892a.441.441,0,0,1-.158.852Z" transform="translate(-454.843 -207.646)" fill="#ffb44f"/>
          <path id="Trazado_103995" data-name="Trazado 103995" d="M471.88,247.91a.448.448,0,0,1-.159-.029l-12.456-4.792a.44.44,0,1,1,.317-.822l12.456,4.792a.44.44,0,0,1-.158.851Z" transform="translate(-451.59 -214.021)" fill="#233863"/>
        </g>
        <g id="Grupo_83195" data-name="Grupo 83195" transform="translate(0 0)">
          <g id="Grupo_83178" data-name="Grupo 83178">
            <g id="Grupo_83177" data-name="Grupo 83177">
              <g id="Grupo_83176" data-name="Grupo 83176">
                <rect id="Rectángulo_24265" data-name="Rectángulo 24265" width="35.002" height="47.301" rx="1.58" transform="translate(15.758 0.474) rotate(18.852)" fill="#ffb44f"/>
                <path id="Trazado_103996" data-name="Trazado 103996" d="M351.246,181.11a1.351,1.351,0,0,1-.437-.073L319,170.177a1.356,1.356,0,0,1-.846-1.723l14.834-43.446a1.357,1.357,0,0,1,1.723-.845l31.806,10.86a1.357,1.357,0,0,1,.846,1.723l-14.834,43.445A1.36,1.36,0,0,1,351.246,181.11Zm-16.969-55.7a.04.04,0,0,0-.037.023l-14.834,43.446a.039.039,0,0,0,.022.044l31.807,10.861h0a.04.04,0,0,0,.044-.022l14.834-43.446a.039.039,0,0,0-.022-.045l-31.806-10.86Z" transform="translate(-318.082 -124.089)" fill="#233863"/>
              </g>
            </g>
          </g>
          <g id="Grupo_83194" data-name="Grupo 83194" transform="translate(4.738 2.931)">
            <g id="Grupo_83191" data-name="Grupo 83191">
              <g id="Grupo_83179" data-name="Grupo 83179">
                <path id="Rectángulo_24266" data-name="Rectángulo 24266" d="M1.58,0H33.422A1.58,1.58,0,0,1,35,1.58V45.72A1.581,1.581,0,0,1,33.422,47.3H1.581A1.581,1.581,0,0,1,0,45.72V1.58A1.58,1.58,0,0,1,1.58,0Z" transform="translate(4.384 0.607) rotate(4.579)" fill="#fff"/>
                <path id="Trazado_103997" data-name="Trazado 103997" d="M363.7,181.9c-.037,0-.074,0-.111,0l-33.5-2.683a1.356,1.356,0,0,1-1.244-1.461l3.665-45.761a1.359,1.359,0,0,1,1.461-1.244l33.5,2.683a1.358,1.358,0,0,1,1.244,1.461l-3.665,45.762A1.356,1.356,0,0,1,363.7,181.9Zm-29.84-49.837a.036.036,0,0,0-.036.033l-3.665,45.761a.04.04,0,0,0,.033.038l33.5,2.683h0c.021,0,.037-.016.038-.032l3.665-45.762a.036.036,0,0,0-.033-.038l-33.5-2.683Z" transform="translate(-328.838 -130.744)" fill="#233863"/>
              </g>
              <g id="Grupo_83190" data-name="Grupo 83190" transform="translate(4.658 9.497)">
                <g id="Grupo_83180" data-name="Grupo 83180" transform="translate(20.088)">
                  <line id="Línea_220" data-name="Línea 220" x2="8.487" y2="0.68" transform="translate(0.44 0.441)" fill="#fff"/>
                  <path id="Trazado_103998" data-name="Trazado 103998" d="M393.943,153.864h-.036l-8.487-.68a.44.44,0,0,1-.4-.474.436.436,0,0,1,.474-.4l8.486.68a.44.44,0,0,1-.035.879Z" transform="translate(-385.016 -152.303)" fill="#ffb44f"/>
                </g>
                <g id="Grupo_83181" data-name="Grupo 83181" transform="translate(19.87 2.711)">
                  <line id="Línea_221" data-name="Línea 221" x2="8.487" y2="0.68" transform="translate(0.441 0.441)" fill="#fff"/>
                  <path id="Trazado_103999" data-name="Trazado 103999" d="M393.45,160.019l-.036,0-8.487-.68a.44.44,0,1,1,.071-.878l8.487.68a.441.441,0,0,1-.035.88Z" transform="translate(-384.522 -158.458)" fill="#ffb44f"/>
                </g>
                <g id="Grupo_83182" data-name="Grupo 83182" transform="translate(0 31.863)">
                  <line id="Línea_222" data-name="Línea 222" x2="8.487" y2="0.68" transform="translate(0.441 0.441)" fill="#fff"/>
                  <path id="Trazado_104000" data-name="Trazado 104000" d="M348.34,226.2l-.036,0-8.487-.68a.44.44,0,1,1,.07-.878l8.487.68a.441.441,0,0,1-.035.88Z" transform="translate(-339.412 -224.64)" fill="#ffb44f"/>
                </g>
                <g id="Grupo_83189" data-name="Grupo 83189" transform="translate(0.507 12.564)">
                  <g id="Grupo_83183" data-name="Grupo 83183" transform="translate(0.806 4.627)">
                    <line id="Línea_223" data-name="Línea 223" x2="7.546" y2="0.604" transform="translate(0.44 0.441)" fill="#fff"/>
                    <path id="Trazado_104001" data-name="Trazado 104001" d="M350.38,192.817l-.036,0-7.545-.6a.44.44,0,1,1,.07-.878l7.545.6a.44.44,0,0,1-.035.88Z" transform="translate(-342.394 -191.331)" fill="#233863"/>
                  </g>
                  <g id="Grupo_83184" data-name="Grupo 83184" transform="translate(0 14.685)">
                    <line id="Línea_224" data-name="Línea 224" x2="12.977" y2="1.039" transform="translate(0.441 0.441)" fill="#fff"/>
                    <path id="Trazado_104002" data-name="Trazado 104002" d="M353.982,216.086h-.036l-12.977-1.039a.441.441,0,1,1,.071-.878l12.977,1.04a.44.44,0,0,1-.035.879Z" transform="translate(-340.564 -214.166)" fill="#233863"/>
                  </g>
                  <g id="Grupo_83185" data-name="Grupo 83185" transform="translate(0.403 9.656)">
                    <line id="Línea_225" data-name="Línea 225" x2="9.824" y2="0.787" transform="translate(0.441 0.441)" fill="#fff"/>
                    <path id="Trazado_104003" data-name="Trazado 104003" d="M351.743,204.417l-.036,0-9.825-.787a.441.441,0,0,1-.4-.474.436.436,0,0,1,.475-.4l9.824.787a.441.441,0,0,1-.035.88Z" transform="translate(-341.478 -202.749)" fill="#233863"/>
                  </g>
                  <g id="Grupo_83186" data-name="Grupo 83186" transform="translate(1.137)">
                    <line id="Línea_226" data-name="Línea 226" x2="25.407" y2="2.035" transform="translate(0.441 0.441)" fill="#fff"/>
                    <path id="Trazado_104004" data-name="Trazado 104004" d="M368.993,183.743l-.036,0-25.407-2.035a.441.441,0,0,1-.4-.474.434.434,0,0,1,.475-.4l25.407,2.035a.441.441,0,0,1-.035.88Z" transform="translate(-343.145 -180.826)" fill="#233863"/>
                  </g>
                  <g id="Grupo_83187" data-name="Grupo 83187" transform="translate(13.361 10.655)">
                    <line id="Línea_227" data-name="Línea 227" x2="12.14" y2="0.972" transform="translate(0.441 0.441)" fill="#fff"/>
                    <path id="Trazado_104005" data-name="Trazado 104005" d="M383.477,206.869h-.036l-12.141-.973a.441.441,0,0,1-.4-.474.436.436,0,0,1,.475-.4l12.14.973a.44.44,0,0,1-.035.879Z" transform="translate(-370.896 -205.015)" fill="#233863"/>
                  </g>
                  <g id="Grupo_83188" data-name="Grupo 83188" transform="translate(11.169 5.391)">
                    <line id="Línea_228" data-name="Línea 228" x2="15.569" y2="1.314" transform="translate(0.44 0.44)" fill="#fff"/>
                    <path id="Trazado_104006" data-name="Trazado 104006" d="M381.93,195.259l-.037,0-15.569-1.314a.44.44,0,0,1,.074-.878l15.569,1.314a.441.441,0,0,1-.037.88Z" transform="translate(-365.92 -193.064)" fill="#233863"/>
                  </g>
                </g>
              </g>
            </g>
            <g id="Grupo_83193" data-name="Grupo 83193" transform="translate(15.175 4.056)">
              <g id="Grupo_83192" data-name="Grupo 83192">
                <path id="Trazado_104007" data-name="Trazado 104007" d="M363.288,139.953" transform="translate(-363.288 -139.953)" fill="none" stroke="#233863" stroke-linecap="round" stroke-linejoin="round" stroke-width="3"/>
              </g>
            </g>
          </g>
        </g>
      </g>
    </g>
  </g>
</svg>
