<svg xmlns="http://www.w3.org/2000/svg" width="442.389" height="249.358" viewBox="0 0 442.389 249.358">
  <g id="Grupo_83437" data-name="Grupo 83437" transform="translate(-412.1 -537.762)">
    <path id="Trazado_104158" data-name="Trazado 104158" d="M1887.407,911.313a40.757,40.757,0,0,1-4.4-2.079c-.262-.153-.537-.322-.832-.51-.266-.171-.516-.347-.772-.487a17.233,17.233,0,0,0-3.685-1.443q-.619-.173-1.224-.312h0c-3.307-.772-6.229-.987-6.933-2.56-1.557-3.479.673-7.329,2.89-6.074,8.58,4.86,4.872-1.228,6.8-.593,1.451.479,2.351,2.868,3.894,4.635.51.586,4.344,2.415.849.859a.521.521,0,0,0-.062-.025c.043.035.706.372.96.491.611.293,3.838,1.6,4.432,1.827.252.1.417.155.518.19-.078-.006-.124.029.047.2C1890.708,906.232,1887.407,911.313,1887.407,911.313Z" transform="translate(-1156.156 -282.858)" fill="#efaea6"/>
    <path id="Trazado_104159" data-name="Trazado 104159" d="M1969.788,936.077c.107.006.279.093,0,0Z" transform="translate(-1236.103 -313.702)" fill="#efaea6"/>
    <path id="Trazado_104160" data-name="Trazado 104160" d="M1176.053,946.208c-.275.033-.107-.012,0,0Z" transform="translate(-606.117 -321.74)" fill="#efaea6"/>
    <path id="Trazado_104161" data-name="Trazado 104161" d="M1195.5,927.433a2.828,2.828,0,0,1-1.98.954h0a33.76,33.76,0,0,1-4.34.116,21.38,21.38,0,0,0-6.156.72c-.281.085-.56.206-.857.318q-.489.183-.919.328a40.3,40.3,0,0,1-4.732,1.129s-2.184-5.648-1.22-6.266c.211-.134.163-.176.081-.184.107-.012.281-.035.553-.078.63-.1,4.055-.716,4.713-.877a7.776,7.776,0,0,0,.976-.272c-3.743.805.386-.2,1.005-.667,1.873-1.412,3.245-3.563,4.763-3.735,1.1-.124.14,1.377.584,2.269.271.545,1.067.865,3.179.448a26.206,26.206,0,0,0,2.769-.741C1196.345,920.123,1197.737,924.349,1195.5,927.433Z" transform="translate(-605.437 -300.081)" fill="#efaea6"/>
    <path id="Trazado_104162" data-name="Trazado 104162" d="M467.578,1710.976c0,1.436,37.164,3.1,79.986,3.1s77.535-1.164,77.535-2.6-34.714-2.6-77.535-2.6S467.578,1709.54,467.578,1710.976Z" transform="translate(-44.025 -926.959)" fill="#32323f" opacity="0.12"/>
    <g id="Grupo_83428" data-name="Grupo 83428" transform="translate(412.1 663.683)">
      <path id="Trazado_104163" data-name="Trazado 104163" d="M934.622,1632.292c.742-2.74,1.728-9.829,1.728-9.829l-7.427-1.5-1.384,10.661,4.371,4.183Z" transform="translate(-821.127 -1520.876)" fill="#fff"/>
      <path id="Trazado_104164" data-name="Trazado 104164" d="M928.376,1669.327c.814-.063.369.626.473,1.842.237,2.784,10.088,4.393,11.537,4.867.748.244,1.358,4.377-2.459,3.767-3.3-.528-13.882-2.181-17.491-2.782a1.671,1.671,0,0,1-1.4-1.49c-.238-2.691.58-6.681,1.6-6.609C922.237,1668.677,924.984,1669.59,928.376,1669.327Z" transform="translate(-814.344 -1558.901)" fill="#1f1f39"/>
      <g id="Grupo_83427" data-name="Grupo 83427" transform="translate(0 41.087)">
        <path id="Trazado_104165" data-name="Trazado 104165" d="M456.837,1354.558c2.618,1.158,9.541,3.242,9.541,3.242l2.672-7.015-10.426-3.037-4.868,3.607Z" transform="translate(-445.156 -1345.154)" fill="#fff"/>
        <path id="Trazado_104166" data-name="Trazado 104166" d="M424.73,1345.52c-.107.8-.7.227-1.92.074-2.8-.349-6.443,8.845-7.212,10.148-.4.673-4.612.4-3.215-3.162,1.209-3.083,5.043-12.975,6.388-16.34a1.685,1.685,0,0,1,1.765-1.046c2.711.329,6.488,1.95,6.2,2.923C426.649,1339.717,425.175,1342.184,424.73,1345.52Z" transform="translate(-412.1 -1335.182)" fill="#1f1f39"/>
      </g>
      <path id="Trazado_104167" data-name="Trazado 104167" d="M587.25,1241.9c-.319,1.221-12.421,1.755-12.234-.277s6.07-37.4,5.084-41.533c-1.141-4.779-6.66-14.707-11.342-23.292-4.307-7.9-8.178-14.595-8.3-14.809,0,0,0-.005,0-.005s-17.926,24.857-27.556,33.395c-6.094,5.4-44.949-3.662-46.709-4.013s1.866-11.817,3.485-11.417,33.559,5.456,36.921,2.755c3.014-2.422,12.031-24.061,18.521-37.125l3.539-7.232c.433-.911.685-1.475.718-1.607.407-1.666,23.645.816,23.645.816l5.719,3.545c1.241,12.976,14.38,52.359,14.68,58.62S587.568,1240.682,587.25,1241.9Z" transform="translate(-470.519 -1136.165)" fill="#3b3b4c"/>
      <path id="Trazado_104168" data-name="Trazado 104168" d="M780.425,1151.534s-4.685,5.93-14.805,4.818l5.151-10.166c2.458-.513,2.521.487,6.161.886Z" transform="translate(-692.636 -1144.004)" fill="#1f1f39" opacity="0.44"/>
      <path id="Trazado_104169" data-name="Trazado 104169" d="M856.026,1258.719c-4.307-7.9-8.178-14.595-8.3-14.809,0,0,0-.005,0-.005l3.048-4.509S856.074,1252.31,856.026,1258.719Z" transform="translate(-757.787 -1218.084)" fill="#1f1f39" opacity="0.57"/>
    </g>
    <path id="Trazado_104170" data-name="Trazado 104170" d="M857.313,1227.622a.16.16,0,0,1,0,.018.812.812,0,0,0,.092-.053A.769.769,0,0,0,857.313,1227.622Z" transform="translate(-353.299 -545.029)" fill="#1f1f3b" opacity="0.46"/>
    <g id="Grupo_83432" data-name="Grupo 83432" transform="translate(451.689 591.874)">
      <g id="Grupo_83429" data-name="Grupo 83429" transform="translate(59.979 7.186)">
        <path id="Trazado_104171" data-name="Trazado 104171" d="M899.947,840.823l-5.558-3.484c.759-2.788,5.424-7.738,6.592-10.091,1.281-2.582,5.368-4.1,5.368-4.1l.356,6.313-.27.442s-1.869,4.641-1.669,7.067c.114,1.387-.716,3.145.047,5.442C905.384,844.13,899.947,840.823,899.947,840.823Z" transform="translate(-894.389 -823.146)" fill="#efaea6"/>
        <path id="Trazado_104172" data-name="Trazado 104172" d="M929.555,854.907a22.838,22.838,0,0,0-1.3,4.927c-4.267.612-5.005-4.261-3.743-5.045a28.639,28.639,0,0,1,3.41-1.4Z" transform="translate(-917.854 -847.142)" fill="#1f1f3b" opacity="0.14"/>
      </g>
      <path id="Trazado_104173" data-name="Trazado 104173" d="M818.909,871.45c2.781-.418,2.469,4.21,5.15,4.771,1.416.3,1.18-.388,1.941-.986.469-.368.917-.79,1.487-.01,11.592,15.872-6.81,49.928-5.421,52.639,1.136,2.218-10.737,5.26-17.618,2.577-9.437-3.68-7.474-14.559-6.93-16.616s11.273-36.83,11.273-36.83A53.655,53.655,0,0,0,818.909,871.45Z" transform="translate(-757.106 -854.271)" fill="#fff"/>
      <path id="Trazado_104174" data-name="Trazado 104174" d="M962.028,899.184c-2.084.546-22.144,4.64-24.692,4.059-5.706-1.3-16.377-5.819-28.758-13.405,0,0-.63,2.335-.631,8.629,0,8.318-5.186,13.586-5.523,23.609-.436,12.963-5.124,25.67-2.436,28.942,1.566,1.906,3.988,2.538,7.362-.285,5.308-4.443,4.3-21.328,4.362-25.3.025-1.546-.083-3.648-.13-5.817-.056-2.7,1.581-9.2,3.166-9.557,4.038-.9,16,3.589,21.473,3.772,7.791.26,25.669-5.4,27-5.664C964.512,907.907,964.2,898.615,962.028,899.184Z" transform="translate(-838.197 -868.884)" fill="#0267a4"/>
      <path id="Trazado_104175" data-name="Trazado 104175" d="M767.292,932.768c3.916,3.291,9.575,4.082,13.836.466a5.212,5.212,0,0,0,1.53-2.151c1.168-3,.1-7.241,2.7-13.247,1.827-4.226,4.793-11.843,5.9-17.25a234.052,234.052,0,0,0,3.609-29.146,19.126,19.126,0,0,0-13.1,4.625c-2.653,2.227-5.035,9.331-5.949,14.625-.3,1.739-.522,3.136-.695,4.322-.125.867-.222,1.621-.3,2.3-.141,1.224-.228,2.233-.313,3.3-.052.665-.106,1.353-.169,2.128v0c-.075.876-.165,1.865-.293,3.062a13.844,13.844,0,0,1-.26,1.49,66.388,66.388,0,0,1-2.226,7.043v0C768.842,921.9,765.195,931.005,767.292,932.768Z" transform="translate(-733.057 -854.262)" fill="#0267a4"/>
      <path id="Trazado_104176" data-name="Trazado 104176" d="M728.2,879.8c-12.907,11.248-23.813,22.21-24.645,23.54-2.228,3.557-7.292,27.317-7.225,28.83s8.06,1.752,8.641.812c.682-1.1,3.112-18.214,6.374-23.325,2.035-3.189,22.774-20.244,24.973-22.25s2.816-10.27-1.268-10A13.681,13.681,0,0,0,728.2,879.8Z" transform="translate(-677.237 -859.013)" fill="#0267a4"/>
      <path id="Trazado_104177" data-name="Trazado 104177" d="M802.129,976.045c-.141,1.224-.228,2.233-.313,3.3-.052.665-.106,1.353-.169,2.128v0c-.075.876-.165,1.865-.293,3.062a13.858,13.858,0,0,1-.26,1.49,25.834,25.834,0,0,0,3.886-7.308,46.287,46.287,0,0,0,1.372-4.473.031.031,0,0,0,0-.012c.543-2.133.774-3.611.774-3.611Z" transform="translate(-760.376 -932.99)" fill="#1f1f3b" opacity="0.18"/>
      <path id="Trazado_104178" data-name="Trazado 104178" d="M844.321,897.436c-.221-.191-3.237,4.28-6.708,5.451a7.758,7.758,0,0,1-2.989.439c-2.987-.2-8.1-2.3-11.77-3.234a11.619,11.619,0,0,0,2.044-3.065s8.2,3.239,9.772,3.259a11.3,11.3,0,0,0,3.35-.489,18.849,18.849,0,0,0,5.107-2.525c.689-.465.883-1.28,1.633-1.217C845.755,896.135,844.605,897.68,844.321,897.436Z" transform="translate(-777.643 -873.814)" fill="#1f1f3b" opacity="0.18"/>
      <path id="Trazado_104179" data-name="Trazado 104179" d="M693.186,884.364a1.276,1.276,0,0,0-1.209-1.418c-.769-.078-.876.224-1.593.689-2.155,1.4-5.308,3.041-8.752,2.93s-10.542-5.67-15.716-5.289-7.346,4.674-14.755,4.8-14.758-4.041-16.947-3.976-3.551.351-3.619,1.206a4.233,4.233,0,0,0,2.21,3.224c1.415.814,14.509,3.589,18.068,3.613,5.81.04,11.448-4.42,15.167-4.227s11.145,3.4,15.484,3.768c4.839.413,9.549-4.637,9.835-4.38a1.314,1.314,0,0,0,1.188.436C692.987,885.7,693.148,884.85,693.186,884.364Z" transform="translate(-625.074 -862.074)" fill="#f4ad00"/>
      <g id="Grupo_83430" data-name="Grupo 83430" transform="translate(61.12 0)">
        <path id="Trazado_104180" data-name="Trazado 104180" d="M925.824,813.021c.47,2.206,3.425,6.161,1.92,6.352s1,4.661-.6,4.921c-3.863.631-8.639-1.248-9.382-3.058s-1.141-7.083-1.141-7.083Z" transform="translate(-913.176 -807.925)" fill="#efaea6"/>
        <path id="Trazado_104181" data-name="Trazado 104181" d="M908.841,796.1c1.241-.015,1.317.27,2.121-.256s-.83-1.518.735-1.989,3.307-.8,3.239-2.651c-.1-2.682-2.39-1.965-3.8-1.47-.908.318-1.4-1.681-3.251-1.352-1.453.258-1.173,1.091-2.46,1.378-.777.174-2.479-.925-3.585.183-2.052,2.054.125,3.969-1.529,6.092-1.928,2.476,3.786,6.485,4.307,5.843.608-.749-.7-2.886-.071-3.509.953-.939,1.2-.055,2.193.665,1.06.77,2.813.6,1.471-.98S907.717,796.109,908.841,796.1Z" transform="translate(-899.915 -788.339)" fill="#191939"/>
      </g>
      <g id="Grupo_83431" data-name="Grupo 83431" transform="translate(0 72.91)">
        <path id="Trazado_104182" data-name="Trazado 104182" d="M685.93,1182.123l.284-1.666.267-1.586a2.884,2.884,0,0,1,1.582-2.275l0,0a1.423,1.423,0,0,1,.757-.081l5.286.894.061.011.094.014h0l.039.007,1.275.217a1.663,1.663,0,0,1,1.175.957,3.241,3.241,0,0,1,.3,1.764c-.008.085-.019.172-.034.259l-.261,1.536-.281,1.666-.16.953-1.33-.225,0-.016.155-.928.282-1.668.055-.315,0-.016c.008-.052.016-.1.02-.153.115-1.037-.358-1.945-1.1-2.071l-.391-.067-4.662-.788a1.067,1.067,0,0,0-.583.07h0a2.171,2.171,0,0,0-1.164,1.694l-.063.363-.282,1.668-.151.894-1.33-.225Z" transform="translate(-668.868 -1169.268)" fill="#201b2c"/>
        <path id="Trazado_104183" data-name="Trazado 104183" d="M703.654,1142.549c.005,1.578.473,1.213.765,3.285s1.63,5.075.556,5.252-1.717-1.132-2.19-1.441.526,1.016-.212,1.9-3.409,1.105-4.49.191a5.18,5.18,0,0,1-1.5-4.564c.2-2,1.527-4.587,1.838-5.436S703.654,1142.549,703.654,1142.549Z" transform="translate(-677.411 -1141.498)" fill="#eeada5"/>
        <path id="Trazado_104184" data-name="Trazado 104184" d="M726.514,1180.988h0l.039.007,1.279.2a1.654,1.654,0,0,1,1.177.959v0a3.233,3.233,0,0,1,.292,1.773c-.008.085-.019.172-.034.259l-.261,1.536-.281,1.666-.158.935-1.328-.223.158-.928.282-1.668.052-.315,0-.016c.008-.052.016-.1.02-.153.122-1.041-.35-1.963-1.093-2.087l-.1-.828,0-.007-.076-.637,0-.007,0,0v0l-.059-.478Z" transform="translate(-701.118 -1172.824)" fill="#201b2c"/>
        <path id="Trazado_104185" data-name="Trazado 104185" d="M645.5,1205.79l-3.023,18.5a2.012,2.012,0,0,1-2.31,1.661l-.06-.01-33.041-4.966c-3.72-.608-3.267-3.231-3.088-4.326l2.33-17.536a4.471,4.471,0,0,1,4.944-3.238l29.342,4.776,1.1.178A4.367,4.367,0,0,1,645.5,1205.79Z" transform="translate(-603.863 -1184.594)" fill="#603a3e"/>
        <path id="Trazado_104186" data-name="Trazado 104186" d="M784.4,1224.41l-3.023,18.5a2.012,2.012,0,0,1-2.31,1.661l-.06-.01a14.623,14.623,0,0,1,.465-5.627c1.517-6.532.842-14.326.023-19.664l1.1.178A4.367,4.367,0,0,1,784.4,1224.41Z" transform="translate(-742.765 -1203.214)" fill="#775155"/>
      </g>
    </g>
    <path id="Trazado_104187" data-name="Trazado 104187" d="M2105.271,1713.071c0,1.123-27.6,2.427-59.4,2.427s-57.583-.91-57.583-2.033,25.781-2.033,57.583-2.033S2105.271,1711.948,2105.271,1713.071Z" transform="translate(-1250.783 -928.984)" fill="#32323f" opacity="0.12"/>
    <path id="Trazado_104188" data-name="Trazado 104188" d="M1413.586,1713.071c0,1.123-27.6,2.427-59.4,2.427s-57.583-.91-57.583-2.033,25.781-2.033,57.583-2.033S1413.586,1711.948,1413.586,1713.071Z" transform="translate(-701.896 -928.984)" fill="#32323f" opacity="0.12"/>
    <path id="Trazado_104189" data-name="Trazado 104189" d="M2213.539,835.7l6.379-1.783c.059-2.911-3.053-9.025-3.515-11.631-.506-2.86-4.035-5.495-4.035-5.495l-2.143,6,.135.5s.49,5.018-.395,7.305c-.506,1.308-.2,3.243-1.6,5.246C2207.327,837.343,2213.539,835.7,2213.539,835.7Z" transform="translate(-1425.337 -219.04)" fill="#efaea6"/>
    <path id="Trazado_104190" data-name="Trazado 104190" d="M2218.132,849.629a22.949,22.949,0,0,1-.146,5.131c3.962,1.808,6.065-2.691,5.066-3.809a29.029,29.029,0,0,0-2.905-2.329Z" transform="translate(-1433.061 -244.302)" fill="#1f1f3b" opacity="0.14"/>
    <path id="Trazado_104191" data-name="Trazado 104191" d="M2150.8,1644.369c-.286-2.832-.073-10.009-.073-10.009l7.827-.273-.421,10.776-5.173,3.427Z" transform="translate(-1379.624 -867.608)" fill="#fff"/>
    <path id="Trazado_104192" data-name="Trazado 104192" d="M2093.443,1671.372c-.66-.5-2.13,1.266-2.433,2.456-.694,2.723-9.426,3.07-10.982,3.316-.8.127-2.1,4.13,1.9,4.113,3.456-.015,14.524-.023,18.3-.063a1.727,1.727,0,0,0,1.672-1.261c.68-2.63.763-8.8-.292-8.885C2100.19,1671.366,2095.958,1673.3,2093.443,1671.372Z" transform="translate(-1322.904 -896.938)" fill="#1f1f3b"/>
    <path id="Trazado_104193" data-name="Trazado 104193" d="M2296.345,1644.441c-.3-2.831-.132-10.009-.132-10.009l7.825-.315-.357,10.778-5.153,3.455Z" transform="translate(-1495.1 -867.632)" fill="#fff"/>
    <path id="Trazado_104194" data-name="Trazado 104194" d="M2239.114,1666.412c-.842.054-.689.841-.982,2.034-.669,2.729-10.607,4.5-12.161,4.757-.8.134-2.059,4.147,1.937,4.1,3.455-.044,14.523-.146,18.3-.218a1.724,1.724,0,0,0,1.66-1.275c.656-2.636.9-9.871-.154-9.949C2246.3,1666.188,2242.949,1666.165,2239.114,1666.412Z" transform="translate(-1438.732 -892.82)" fill="#1f1f3b"/>
    <path id="Trazado_104195" data-name="Trazado 104195" d="M2180.016,1128.346c-.1,1.281-.232,2.675-.412,4.2-.674,5.724-2.1,25.028-1.749,37.29.347,12.2-.733,40.748-.733,45.12-3.706,1.625-6,1.119-11.3,0,0,0-.941-23.552-1.984-44.173-.847-16.742-1.091-15.064-4.167-36.383l0,0c-.035.1-.785,2.175-1.876,5.371-2.335,6.821-6.236,18.74-8.106,27.367-2.916,13.462-1.394,48.55-2.615,49.761-3.636,2.142-9.789,2.35-11.432-.625,0,0-.7-43.393.6-50.189.876-4.621,8.277-49.907,9.929-62.072,0,0,32.6-7.107,33.6,4.028a39.512,39.512,0,0,1,.158,4.15c-.026,1.729.07,3.331.164,5.088A77.72,77.72,0,0,1,2180.016,1128.346Z" transform="translate(-1367.57 -445.198)" fill="#3b3b4d"/>
    <path id="Trazado_104196" data-name="Trazado 104196" d="M2266.3,1229.966a.113.113,0,0,0,0,.017.869.869,0,0,1-.091-.061A.746.746,0,0,1,2266.3,1229.966Z" transform="translate(-1471.323 -546.884)" fill="#1f1f3b" opacity="0.46"/>
    <path id="Trazado_104197" data-name="Trazado 104197" d="M2242.918,1238.435l0,0c-.035.1-1.468,4.132-2.559,7.327l1.281-12.885S2241.592,1233.652,2242.918,1238.435Z" transform="translate(-1450.814 -549.231)" fill="#1f1f3b" opacity="0.54"/>
    <path id="Trazado_104198" data-name="Trazado 104198" d="M2296.344,1179.539c-.27-.06-12.835-2.738-14.533-9.03,0,0,10.923.938,14.417,1.312C2296.381,1174.692,2296.454,1177.914,2296.344,1179.539Z" transform="translate(-1483.709 -499.736)" fill="#1f1f3b" opacity="0.35"/>
    <path id="Trazado_104199" data-name="Trazado 104199" d="M2197.713,871.728c-2.823-.766-3.1,3.9-5.946,4.125-1.5.119-1.171-.536-1.881-1.229-.437-.426-.847-.9-1.538-.2-14.05,14.417.58,50.767-1.208,53.3-1.462,2.075,10.428,6.6,17.9,4.781,10.242-2.5,9.619-13.62,9.323-15.745s-6.894-38.231-6.894-38.231A56.022,56.022,0,0,1,2197.713,871.728Z" transform="translate(-1404.654 -262.57)" fill="#fff"/>
    <path id="Trazado_104200" data-name="Trazado 104200" d="M1928.3,891.936c1.26-.242,23.187,6.573,27.2,6.208,5.864-.533,16.815-9.527,28.346-13.008,0,0,.349,2.413-.465,8.7-1.075,8.316,3.606,14.232,2.657,24.294-1.228,13.014,4.861,25.519,1.657,28.453-1.867,1.71-8.167,1.142-11.2-2.191-2.434-2.678-.952-20.091-.5-24.07.175-1.549.559-3.636.887-5.8a16.893,16.893,0,0,0-1.844-8.716c-1.859-2.756-13.914,3.037-20.266,2.921-4.73-.086-28.746-7.994-29.578-8.581C1922.831,898.481,1927.042,892.178,1928.3,891.936Z" transform="translate(-1200.156 -273.277)" fill="#0069a8"/>
    <path id="Trazado_104201" data-name="Trazado 104201" d="M2310.415,1199.007c-.273.509-1.115.509-.694.852s5.557,2.608,5.557,2.608.5.539,1.1-.349a3.481,3.481,0,0,0,.6-1.776Z" transform="translate(-1505.765 -522.35)" fill="#e79e9c"/>
    <path id="Trazado_104202" data-name="Trazado 104202" d="M2276,936.812c-4.477,2.8-10.433,2.884-14.374-1.265-3.267-3.441.039-7.9-2.378-15.922-1.343-4.455-3.424-12.44-3.868-17.983a228.031,228.031,0,0,1,.041-29.589,20.27,20.27,0,0,1,12.957,6.263c2.456,2.558,4,9.957,4.263,15.365.083,1.775.133,3.2.157,4.407.049,2.462-.009,4-.088,5.682-.032.67-.066,1.365-.1,2.148v0c-.035.885-.071,1.886-.094,3.1a44.332,44.332,0,0,0,1.465,8.841l0,0C2275.8,925.752,2278.4,935.312,2276,936.812Z" transform="translate(-1462.357 -262.895)" fill="#0069a8"/>
    <path id="Trazado_104203" data-name="Trazado 104203" d="M2271.291,902.521c15.7,25.742,16.56,22.33,16.952,26.541s-10.383,27.008-10.383,27.008,6.469,3.61,7.187,2.5,14.572-26.605,14.021-32.089c-.606-6.04-17.489-29.49-19.476-31.793s-10.568-3.294-10.476.828A13.477,13.477,0,0,0,2271.291,902.521Z" transform="translate(-1473.635 -279.276)" fill="#0069a8"/>
    <path id="Trazado_104204" data-name="Trazado 104204" d="M2323.036,1022.36c-5.9-5.273-6.312-18.619-6.312-18.619l4.94,6.678v0c-.035.885-.071,1.886-.094,3.1A44.368,44.368,0,0,0,2323.036,1022.36Z" transform="translate(-1511.415 -367.397)" fill="#1f1f3b" opacity="0.25"/>
    <path id="Trazado_104205" data-name="Trazado 104205" d="M2322.211,1103.589c-.4,1.868-7.717,16.57-7.717,16.57l7.115-19.15Z" transform="translate(-1509.645 -444.584)" fill="#1f1f3b" opacity="0.25"/>
    <g id="Grupo_83433" data-name="Grupo 83433" transform="translate(786.207 612.251)">
      <path id="Trazado_104206" data-name="Trazado 104206" d="M2230.547,893.15c.32-.145,2.28,6.013,5.883,8.531a9.33,9.33,0,0,0,3.3,1.514c3.51.782,15.83.22,15.83.22s-1.189-1.576-2.86-4.26c-3.4.49-10.174,1.037-11.991.53a13.575,13.575,0,0,1-3.7-1.693,22.6,22.6,0,0,1-5.031-4.627c-.636-.768-.584-1.769-1.469-1.951C2229.336,891.17,2230.137,893.335,2230.547,893.15Z" transform="translate(-2228.72 -890.495)" fill="#1f1f39" opacity="0.18"/>
      <path id="Trazado_104207" data-name="Trazado 104207" d="M2224.3,888.1a1.329,1.329,0,0,1,1.644-1.027c.788.162.8.5,1.366,1.179,1.7,2.055,4.319,4.666,7.773,5.63s12.243-2.33,17.261-.339,5.831,6.919,13.146,9.357,15.919.6,18.073,1.345,3.416,1.454,3.216,2.323a4.408,4.408,0,0,1-3.2,2.5c-1.66.365-15.531-.969-19.072-2.054-5.781-1.772-9.983-7.947-13.737-8.914s-12.13-.109-16.555-1.1c-4.934-1.1-8.029-7.569-8.394-7.4a1.371,1.371,0,0,1-1.316.062C2224.078,889.485,2224.184,888.6,2224.3,888.1Z" transform="translate(-2224.196 -887.037)" fill="#f4ad00"/>
    </g>
    <g id="Grupo_83434" data-name="Grupo 83434" transform="translate(779.792 590.352)">
      <path id="Trazado_104208" data-name="Trazado 104208" d="M2195.058,809c-.31,2.268-3,6.5-1.464,6.575s-.659,4.792.977,4.931c3.962.337,8.66-1.936,9.275-3.825s.619-7.254.619-7.254Z" transform="translate(-2193.121 -803.215)" fill="#efaea6"/>
      <path id="Trazado_104209" data-name="Trazado 104209" d="M2200.376,789.519c-1.074-.662-1.1.011-1.953-.459s.725-1.6-.9-1.955-2.532-.774-2.432-2.653a2.045,2.045,0,0,1,2.537-2c.944.251.871-1.465,2.768-1.483,1.5-.014,1.876,1.074,3.242,1.632.748.306,2.689-.436,3.894.6,2.234,1.918-.142,3.209,1.694,5.228,2.142,2.354-3.394,6.53-4.214,6.7-.305.064-1.048-.634-.288-1.776.393-.591.73-1.944.386-2.234-.606-.512-1.669-1.86-2.1-.127-.308,1.232.021,5.571-.374,5.906-1.016.861-7.034,2.363-7.064.807-.036-1.928,4.931-.012,4.765-1.994-.127-1.513-4.452-.212-4.787-1.435-.387-1.413,5.177.627,5.583-.651C2201.631,792.061,2200.989,789.9,2200.376,789.519Z" transform="translate(-2194.681 -780.965)" fill="#1f1f39"/>
    </g>
    <path id="Trazado_104210" data-name="Trazado 104210" d="M1241.456,933.421a12.2,12.2,0,0,1-1.086.6h0a33.759,33.759,0,0,1-4.339.116l-.019-.025c-1.282-1.97-1.922-7.048-1.922-7.048l.733-.242,2.471-.811.708,1.259Z" transform="translate(-652.289 -305.711)" fill="#1f1f3b" opacity="0.18"/>
    <path id="Trazado_104211" data-name="Trazado 104211" d="M1906.7,909.751s-.731,4.577-2.2,6.454c-.019.025-.039.047-.058.07q-.619-.174-1.224-.312h0a10.764,10.764,0,0,1-.5-2.6l2.607-4.21A5.259,5.259,0,0,1,1906.7,909.751Z" transform="translate(-1182.88 -292.34)" fill="#1f1f3b" opacity="0.25"/>
    <g id="Grupo_83435" data-name="Grupo 83435" transform="translate(581.929 581.291)">
      <path id="Trazado_104212" data-name="Trazado 104212" d="M1300.221,763.711l-46.681,45.955c-.181-.184-.361-.371-.542-.558s-.358-.374-.536-.561a65.9,65.9,0,0,1-5.44-6.609c-.152-.209-.3-.423-.452-.636q-1.592-2.265-2.991-4.666-.373-.644-.736-1.3c-.381-.687-.745-1.381-1.1-2.081-.119-.232-.236-.468-.352-.7l-.29-.6q-.886-1.854-1.658-3.765c-.1-.245-.2-.487-.291-.732s-.177-.461-.265-.694c-.077-.2-.155-.407-.229-.613-.2-.555-.4-1.113-.584-1.672-.168-.5-.329-1.007-.484-1.513q-.934-3.044-1.578-6.208c-.155-.778-.3-1.558-.429-2.346-.174-1.074-.326-2.162-.449-3.252q-.131-1.157-.223-2.33-.194-2.531-.2-5.118c0-.3,0-.594.007-.887,0-.206.006-.413.013-.62,0-.139,0-.277.01-.413.006-.281.016-.558.029-.839q.087-2.149.313-4.259c.022-.206.045-.413.068-.616q.121-1.041.274-2.065c.084-.568.174-1.136.274-1.7.058-.326.116-.652.181-.974.042-.239.09-.474.139-.71.061-.3.123-.6.187-.9q.082-.387.174-.774.382-1.665.849-3.291c.077-.271.158-.542.239-.813q.591-1.975,1.3-3.895c.061-.165.123-.329.187-.49q.648-1.718,1.394-3.388C1254.618,743.351,1298.291,762.588,1300.221,763.711Z" transform="translate(-1234.715 -737.078)" fill="#dbbe36"/>
      <path id="Trazado_104213" data-name="Trazado 104213" d="M1253.54,809.666c-.181-.184-.361-.371-.542-.558s-.358-.374-.536-.561a65.9,65.9,0,0,1-5.44-6.609c-.152-.209-.3-.423-.452-.636q-1.592-2.265-2.991-4.666-.373-.644-.736-1.3c-.381-.687-.745-1.381-1.1-2.081-.119-.232-.236-.468-.352-.7l-.29-.6q-.886-1.854-1.658-3.765c-.1-.245-.2-.487-.291-.732s-.177-.461-.265-.694c-.077-.2-.155-.407-.229-.613-.2-.555-.4-1.113-.584-1.672-.168-.5-.329-1.007-.484-1.513q-.934-3.044-1.578-6.208c-.155-.778-.3-1.558-.429-2.346-.174-1.074-.326-2.162-.449-3.252q-.131-1.157-.223-2.33-.194-2.531-.2-5.118c0-.3,0-.594.007-.887,0-.206.006-.413.013-.62,0-.139,0-.277.01-.413.006-.281.016-.558.029-.839q.087-2.149.313-4.259c.022-.206.045-.413.068-.616q.121-1.041.274-2.065c.084-.568.174-1.136.274-1.7.058-.326.116-.652.181-.974.042-.239.09-.474.139-.71.061-.3.123-.6.187-.9q.082-.387.174-.774.382-1.665.849-3.291c.077-.271.158-.542.239-.813q.591-1.975,1.3-3.895c.061-.165.123-.329.187-.49q.648-1.718,1.394-3.388" transform="translate(-1234.715 -737.078)" fill="none" stroke="#fff" stroke-miterlimit="10" stroke-width="6"/>
    </g>
    <g id="Grupo_83436" data-name="Grupo 83436" transform="translate(597.413 540.762)">
      <path id="Trazado_104214" data-name="Trazado 104214" d="M1435.092,606.271a65.508,65.508,0,0,1-112.19,45.955l46.681-45.955c-1.93-1.123-45.6-20.36-59.866-26.633a65.518,65.518,0,0,1,125.375,26.633Z" transform="translate(-1309.717 -540.762)" fill="#53bced"/>
      <path id="Trazado_104215" data-name="Trazado 104215" d="M1309.717,579.638a65.522,65.522,0,1,1,13.184,72.588" transform="translate(-1309.717 -540.762)" fill="none" stroke="#fff" stroke-miterlimit="10" stroke-width="6"/>
    </g>
    <path id="Trazado_104216" data-name="Trazado 104216" d="M1229.584,918.224c.876-.511,4.307-1.789,3.76-3.5-.3-.928-3.541.73-4.125,1.095S1229.584,918.224,1229.584,918.224Z" transform="translate(-648.274 -296.533)" fill="#efaea6"/>
    <path id="Trazado_104217" data-name="Trazado 104217" d="M1905.931,897.074c-.876-.511-4.792-1.993-4.245-3.708.3-.928,3.283.46,3.867.825S1905.931,897.074,1905.931,897.074Z" transform="translate(-1182.02 -279.56)" fill="#efaea6"/>
  </g>
</svg>
