<svg xmlns="http://www.w3.org/2000/svg" width="373" height="221" viewBox="0 0 373 221">
  <g id="Grupo_84678" data-name="Grupo 84678" transform="translate(-181 -1705)">
    <path id="Trazado_125911" data-name="Trazado 125911" d="M5,0H155a5,5,0,0,1,5,5V56a5,5,0,0,1-5,5H5a5,5,0,0,1-5-5V5A5,5,0,0,1,5,0Z" transform="translate(181 1705)" fill="#eba69d"/>
    <path id="Trazado_125912" data-name="Trazado 125912" d="M11.188-4.263A4.528,4.528,0,0,1,9.664-1.011,5.355,5.355,0,0,1,6.038.176,4.816,4.816,0,0,1,2.167-1.481,6.793,6.793,0,0,1,.756-6.029v-.782a7.671,7.671,0,0,1,.65-3.252,4.874,4.874,0,0,1,1.859-2.158,5.207,5.207,0,0,1,2.808-.751,5.217,5.217,0,0,1,3.568,1.187,4.866,4.866,0,0,1,1.564,3.331H8.569a2.673,2.673,0,0,0-.69-1.8,2.555,2.555,0,0,0-1.806-.558A2.24,2.24,0,0,0,4.1-9.866a5.3,5.3,0,0,0-.672,2.931v.967a5.667,5.667,0,0,0,.628,3.032,2.2,2.2,0,0,0,1.982.958,2.6,2.6,0,0,0,1.824-.558,2.521,2.521,0,0,0,.69-1.727ZM18.264,0a2.821,2.821,0,0,1-.255-.853,3.073,3.073,0,0,1-2.4,1.028,3.376,3.376,0,0,1-2.316-.809,2.6,2.6,0,0,1-.918-2.039A2.687,2.687,0,0,1,13.5-4.992a5.529,5.529,0,0,1,3.239-.817H17.9v-.545a1.567,1.567,0,0,0-.338-1.055A1.331,1.331,0,0,0,16.5-7.8a1.513,1.513,0,0,0-1.006.308,1.045,1.045,0,0,0-.365.844h-2.54a2.551,2.551,0,0,1,.51-1.529,3.37,3.37,0,0,1,1.441-1.1,5.253,5.253,0,0,1,2.092-.4,4.15,4.15,0,0,1,2.791.883,3.09,3.09,0,0,1,1.033,2.483V-2.2A4.546,4.546,0,0,0,20.83-.149V0Zm-2.1-1.767a2.188,2.188,0,0,0,1.037-.25,1.645,1.645,0,0,0,.7-.672V-4.324h-.949q-1.907,0-2.03,1.318l-.009.149a1.017,1.017,0,0,0,.334.782A1.3,1.3,0,0,0,16.163-1.767Zm11.936.8A3.185,3.185,0,0,1,25.5.176,3,3,0,0,1,23.164-.7a3.752,3.752,0,0,1-.822-2.575V-9.51h2.54v6.151q0,1.487,1.354,1.487a1.834,1.834,0,0,0,1.775-.9V-9.51H30.56V0H28.169Zm9.527-1.661a.818.818,0,0,0-.461-.734,5.241,5.241,0,0,0-1.481-.479q-3.393-.712-3.393-2.883a2.613,2.613,0,0,1,1.05-2.114,4.237,4.237,0,0,1,2.747-.848,4.56,4.56,0,0,1,2.9.853,2.687,2.687,0,0,1,1.085,2.215h-2.54a1.229,1.229,0,0,0-.352-.9,1.488,1.488,0,0,0-1.1-.356,1.52,1.52,0,0,0-.993.29.916.916,0,0,0-.352.738.783.783,0,0,0,.4.681,4.114,4.114,0,0,0,1.349.448,11.019,11.019,0,0,1,1.6.426A2.628,2.628,0,0,1,40.1-2.733a2.481,2.481,0,0,1-1.116,2.1,4.815,4.815,0,0,1-2.883.8A5.029,5.029,0,0,1,33.974-.25,3.561,3.561,0,0,1,32.52-1.419a2.716,2.716,0,0,1-.527-1.6H34.4a1.326,1.326,0,0,0,.5,1.037,1.987,1.987,0,0,0,1.248.36,1.839,1.839,0,0,0,1.1-.277A.861.861,0,0,0,37.626-2.628ZM47.241,0a2.821,2.821,0,0,1-.255-.853,3.073,3.073,0,0,1-2.4,1.028,3.376,3.376,0,0,1-2.316-.809,2.6,2.6,0,0,1-.918-2.039,2.687,2.687,0,0,1,1.121-2.32,5.529,5.529,0,0,1,3.239-.817h1.169v-.545a1.567,1.567,0,0,0-.338-1.055,1.331,1.331,0,0,0-1.068-.4,1.513,1.513,0,0,0-1.006.308,1.045,1.045,0,0,0-.365.844h-2.54a2.551,2.551,0,0,1,.51-1.529,3.37,3.37,0,0,1,1.441-1.1,5.253,5.253,0,0,1,2.092-.4A4.15,4.15,0,0,1,48.4-8.8,3.09,3.09,0,0,1,49.43-6.319V-2.2a4.546,4.546,0,0,0,.378,2.048V0Zm-2.1-1.767a2.188,2.188,0,0,0,1.037-.25,1.645,1.645,0,0,0,.7-.672V-4.324h-.949q-1.907,0-2.03,1.318l-.009.149a1.017,1.017,0,0,0,.334.782A1.3,1.3,0,0,0,45.141-1.767Z" transform="translate(236 1742)" fill="#12263f"/>
    <path id="Trazado_125913" data-name="Trazado 125913" d="M5,0H155a5,5,0,0,1,5,5V56a5,5,0,0,1-5,5H5a5,5,0,0,1-5-5V5A5,5,0,0,1,5,0Z" transform="translate(394 1705)" fill="#eba69d"/>
    <path id="Trazado_125914" data-name="Trazado 125914" d="M8.842-5.563H3.779v3.445H9.721V0H1.143V-12.8H9.7v2.136H3.779v3.05H8.842ZM11.637,0V-7.646H10.222V-9.51h1.415v-.809a3.283,3.283,0,0,1,.918-2.483,3.557,3.557,0,0,1,2.571-.883,5.987,5.987,0,0,1,1.292.174l-.026,1.953a3.238,3.238,0,0,0-.773-.079q-1.433,0-1.433,1.356v.771h1.89v1.863h-1.89V0ZM21.56.176a4.668,4.668,0,0,1-3.406-1.283A4.561,4.561,0,0,1,16.84-4.526v-.246a5.745,5.745,0,0,1,.554-2.562,4.064,4.064,0,0,1,1.569-1.74,4.4,4.4,0,0,1,2.316-.611,3.947,3.947,0,0,1,3.072,1.23,5,5,0,0,1,1.121,3.489v1.037H19.415a2.36,2.36,0,0,0,.743,1.494,2.245,2.245,0,0,0,1.569.563,2.742,2.742,0,0,0,2.294-1.063l1.248,1.4A3.813,3.813,0,0,1,23.722-.277,5.075,5.075,0,0,1,21.56.176Zm-.29-7.813a1.587,1.587,0,0,0-1.226.512,2.651,2.651,0,0,0-.6,1.466h3.533v-.2a1.891,1.891,0,0,0-.457-1.311A1.638,1.638,0,0,0,21.27-7.638Zm9.6,5.766a1.666,1.666,0,0,0,1.143-.387,1.355,1.355,0,0,0,.457-1.028h2.382a3.258,3.258,0,0,1-.527,1.771A3.48,3.48,0,0,1,32.9-.268a4.442,4.442,0,0,1-1.991.444,4.129,4.129,0,0,1-3.217-1.3A5.13,5.13,0,0,1,26.517-4.7v-.167a5.071,5.071,0,0,1,1.169-3.507,4.08,4.08,0,0,1,3.208-1.31A4,4,0,0,1,33.754-8.67a3.594,3.594,0,0,1,1.094,2.7H32.467a1.745,1.745,0,0,0-.457-1.206,1.524,1.524,0,0,0-1.16-.464,1.53,1.53,0,0,0-1.34.647,3.749,3.749,0,0,0-.453,2.1v.264A3.8,3.8,0,0,0,29.5-2.515,1.549,1.549,0,0,0,30.867-1.872Zm8.473-9.976V-9.51h1.626v1.863H39.34V-2.9a1.133,1.133,0,0,0,.2.756,1.015,1.015,0,0,0,.773.229,4.051,4.051,0,0,0,.747-.062V-.053a5.229,5.229,0,0,1-1.538.229,2.425,2.425,0,0,1-2.725-2.7V-7.646H35.411V-9.51H36.8v-2.338Zm2.382,7a5.64,5.64,0,0,1,.545-2.522,3.989,3.989,0,0,1,1.569-1.714,4.577,4.577,0,0,1,2.377-.606,4.33,4.33,0,0,1,3.142,1.178,4.727,4.727,0,0,1,1.358,3.2l.018.65a4.97,4.97,0,0,1-1.222,3.511A4.247,4.247,0,0,1,46.23.176a4.268,4.268,0,0,1-3.283-1.318,5.058,5.058,0,0,1-1.226-3.586Zm2.54.18a3.555,3.555,0,0,0,.51,2.073,1.682,1.682,0,0,0,1.459.717,1.686,1.686,0,0,0,1.441-.709,3.89,3.89,0,0,0,.519-2.267,3.519,3.519,0,0,0-.519-2.06,1.686,1.686,0,0,0-1.459-.731,1.658,1.658,0,0,0-1.441.726A3.955,3.955,0,0,0,44.262-4.662Z" transform="translate(449 1742)" fill="#12263f"/>
    <path id="Trazado_125915" data-name="Trazado 125915" d="M5,0H155a5,5,0,0,1,5,5V56a5,5,0,0,1-5,5H5a5,5,0,0,1-5-5V5A5,5,0,0,1,5,0Z" transform="translate(181 1785)" fill="#53bced"/>
    <path id="Trazado_125916" data-name="Trazado 125916" d="M4.588-12.8,7.875-3.516l3.27-9.281h3.463V0H11.962V-3.5l.264-6.038L8.771,0H6.961L3.516-9.527,3.779-3.5V0H1.143V-12.8ZM22.254,0A2.821,2.821,0,0,1,22-.853,3.073,3.073,0,0,1,19.6.176a3.376,3.376,0,0,1-2.316-.809,2.6,2.6,0,0,1-.918-2.039,2.687,2.687,0,0,1,1.121-2.32,5.529,5.529,0,0,1,3.239-.817h1.169v-.545a1.567,1.567,0,0,0-.338-1.055,1.331,1.331,0,0,0-1.068-.4,1.513,1.513,0,0,0-1.006.308,1.045,1.045,0,0,0-.365.844h-2.54a2.551,2.551,0,0,1,.51-1.529,3.37,3.37,0,0,1,1.441-1.1,5.253,5.253,0,0,1,2.092-.4A4.15,4.15,0,0,1,23.41-8.8a3.09,3.09,0,0,1,1.033,2.483V-2.2A4.546,4.546,0,0,0,24.82-.149V0Zm-2.1-1.767a2.188,2.188,0,0,0,1.037-.25,1.645,1.645,0,0,0,.7-.672V-4.324h-.949q-1.907,0-2.03,1.318l-.009.149a1.017,1.017,0,0,0,.334.782A1.3,1.3,0,0,0,20.153-1.767ZM28.731-9.51l.079,1.1a3.32,3.32,0,0,1,2.733-1.274,2.759,2.759,0,0,1,2.25.888,4.142,4.142,0,0,1,.756,2.654V0H32.01V-6.1a1.654,1.654,0,0,0-.352-1.176,1.572,1.572,0,0,0-1.169-.366,1.747,1.747,0,0,0-1.608.916V0h-2.54V-9.51ZM39.155,0H36.606V-9.51h2.549Zm-2.7-11.971a1.251,1.251,0,0,1,.382-.94,1.436,1.436,0,0,1,1.042-.369,1.44,1.44,0,0,1,1.037.369,1.244,1.244,0,0,1,.387.94,1.247,1.247,0,0,1-.391.949,1.443,1.443,0,0,1-1.033.369,1.443,1.443,0,0,1-1.033-.369A1.247,1.247,0,0,1,36.457-11.971Zm13.351,7.3a5.7,5.7,0,0,1-1,3.52A3.2,3.2,0,0,1,46.116.176a2.963,2.963,0,0,1-2.329-1V3.656h-2.54V-9.51H43.6l.088.932A2.985,2.985,0,0,1,46.1-9.686a3.22,3.22,0,0,1,2.733,1.3A5.858,5.858,0,0,1,49.808-4.8Zm-2.54-.194a3.763,3.763,0,0,0-.47-2.054,1.53,1.53,0,0,0-1.367-.723,1.662,1.662,0,0,0-1.644.917v3.906a1.691,1.691,0,0,0,1.661.943Q47.268-1.872,47.268-4.861ZM57.076-.967a3.185,3.185,0,0,1-2.6,1.143A3,3,0,0,1,52.141-.7a3.752,3.752,0,0,1-.822-2.575V-9.51h2.54v6.151q0,1.487,1.354,1.487a1.834,1.834,0,0,0,1.775-.9V-9.51h2.549V0H57.146ZM64.134,0H61.585V-13.5h2.549Zm7.6,0a2.821,2.821,0,0,1-.255-.853,3.073,3.073,0,0,1-2.4,1.028,3.376,3.376,0,0,1-2.316-.809,2.6,2.6,0,0,1-.918-2.039,2.687,2.687,0,0,1,1.121-2.32,5.529,5.529,0,0,1,3.239-.817h1.169v-.545a1.567,1.567,0,0,0-.338-1.055,1.331,1.331,0,0,0-1.068-.4,1.513,1.513,0,0,0-1.006.308,1.045,1.045,0,0,0-.365.844h-2.54a2.551,2.551,0,0,1,.51-1.529,3.37,3.37,0,0,1,1.441-1.1,5.253,5.253,0,0,1,2.092-.4,4.15,4.15,0,0,1,2.791.883,3.09,3.09,0,0,1,1.033,2.483V-2.2A4.546,4.546,0,0,0,74.3-.149V0Zm-2.1-1.767a2.188,2.188,0,0,0,1.037-.25,1.645,1.645,0,0,0,.7-.672V-4.324h-.949q-1.907,0-2.03,1.318l-.009.149a1.017,1.017,0,0,0,.334.782A1.3,1.3,0,0,0,69.636-1.767ZM75.48-4.825a5.731,5.731,0,0,1,1-3.542,3.237,3.237,0,0,1,2.729-1.318A2.913,2.913,0,0,1,81.5-8.648V-13.5H84.05V0H81.756l-.123-1.011A2.989,2.989,0,0,1,79.189.176,3.228,3.228,0,0,1,76.5-1.147,5.916,5.916,0,0,1,75.48-4.825Zm2.54.181a3.775,3.775,0,0,0,.466,2.057,1.516,1.516,0,0,0,1.354.715,1.7,1.7,0,0,0,1.661-1V-6.64a1.675,1.675,0,0,0-1.644-1Q78.021-7.638,78.021-4.644ZM91.529,0a2.821,2.821,0,0,1-.255-.853,3.073,3.073,0,0,1-2.4,1.028,3.376,3.376,0,0,1-2.316-.809,2.6,2.6,0,0,1-.918-2.039,2.687,2.687,0,0,1,1.121-2.32A5.529,5.529,0,0,1,90-5.81h1.169v-.545a1.567,1.567,0,0,0-.338-1.055,1.331,1.331,0,0,0-1.068-.4,1.513,1.513,0,0,0-1.006.308,1.045,1.045,0,0,0-.365.844h-2.54a2.551,2.551,0,0,1,.51-1.529,3.37,3.37,0,0,1,1.441-1.1,5.253,5.253,0,0,1,2.092-.4,4.15,4.15,0,0,1,2.791.883,3.09,3.09,0,0,1,1.033,2.483V-2.2A4.546,4.546,0,0,0,94.1-.149V0Zm-2.1-1.767a2.188,2.188,0,0,0,1.037-.25,1.645,1.645,0,0,0,.7-.672V-4.324H90.22q-1.907,0-2.03,1.318l-.009.149a1.017,1.017,0,0,0,.334.782A1.3,1.3,0,0,0,89.429-1.767Z" transform="translate(214 1822)" fill="#12263f"/>
    <path id="Trazado_125917" data-name="Trazado 125917" d="M5,0H155a5,5,0,0,1,5,5V56a5,5,0,0,1-5,5H5a5,5,0,0,1-5-5V5A5,5,0,0,1,5,0Z" transform="translate(393 1785)" fill="#53bced"/>
    <path id="Trazado_125910" data-name="Trazado 125910" d="M4.588-12.8,7.875-3.516l3.27-9.281h3.463V0H11.962V-3.5l.264-6.038L8.771,0H6.961L3.516-9.527,3.779-3.5V0H1.143V-12.8ZM21.12.176a4.668,4.668,0,0,1-3.406-1.283A4.561,4.561,0,0,1,16.4-4.526v-.246a5.745,5.745,0,0,1,.554-2.562,4.064,4.064,0,0,1,1.569-1.74,4.4,4.4,0,0,1,2.316-.611,3.947,3.947,0,0,1,3.072,1.23,5,5,0,0,1,1.121,3.489v1.037H18.976a2.36,2.36,0,0,0,.743,1.494,2.245,2.245,0,0,0,1.569.563,2.742,2.742,0,0,0,2.294-1.063l1.248,1.4A3.813,3.813,0,0,1,23.282-.277,5.075,5.075,0,0,1,21.12.176Zm-.29-7.813a1.587,1.587,0,0,0-1.226.512A2.651,2.651,0,0,0,19-5.66h3.533v-.2a1.891,1.891,0,0,0-.457-1.311A1.638,1.638,0,0,0,20.83-7.638Zm5.247,2.813a5.731,5.731,0,0,1,1-3.542A3.237,3.237,0,0,1,29.8-9.686,2.913,2.913,0,0,1,32.1-8.648V-13.5h2.549V0H32.353l-.123-1.011A2.989,2.989,0,0,1,29.786.176a3.228,3.228,0,0,1-2.694-1.323A5.916,5.916,0,0,1,26.077-4.825Zm2.54.181a3.775,3.775,0,0,0,.466,2.057,1.516,1.516,0,0,0,1.354.715,1.7,1.7,0,0,0,1.661-1V-6.64a1.675,1.675,0,0,0-1.644-1Q28.617-7.638,28.617-4.644ZM39.3,0H36.747V-9.51H39.3ZM36.6-11.971a1.251,1.251,0,0,1,.382-.94,1.436,1.436,0,0,1,1.042-.369,1.44,1.44,0,0,1,1.037.369,1.244,1.244,0,0,1,.387.94,1.247,1.247,0,0,1-.391.949,1.443,1.443,0,0,1-1.033.369,1.443,1.443,0,0,1-1.033-.369A1.247,1.247,0,0,1,36.6-11.971Zm4.395,7.146a5.731,5.731,0,0,1,1-3.542,3.237,3.237,0,0,1,2.729-1.318,2.913,2.913,0,0,1,2.294,1.037V-13.5h2.549V0H47.268l-.123-1.011A2.989,2.989,0,0,1,44.7.176a3.228,3.228,0,0,1-2.694-1.323A5.916,5.916,0,0,1,40.992-4.825Zm2.54.181A3.775,3.775,0,0,0,44-2.587a1.516,1.516,0,0,0,1.354.715,1.7,1.7,0,0,0,1.661-1V-6.64a1.675,1.675,0,0,0-1.644-1Q43.532-7.638,43.532-4.644ZM57.041,0a2.821,2.821,0,0,1-.255-.853,3.073,3.073,0,0,1-2.4,1.028,3.376,3.376,0,0,1-2.316-.809,2.6,2.6,0,0,1-.918-2.039,2.687,2.687,0,0,1,1.121-2.32,5.529,5.529,0,0,1,3.239-.817h1.169v-.545a1.567,1.567,0,0,0-.338-1.055,1.331,1.331,0,0,0-1.068-.4,1.513,1.513,0,0,0-1.006.308,1.045,1.045,0,0,0-.365.844h-2.54a2.551,2.551,0,0,1,.51-1.529,3.37,3.37,0,0,1,1.441-1.1,5.253,5.253,0,0,1,2.092-.4A4.15,4.15,0,0,1,58.2-8.8a3.09,3.09,0,0,1,1.033,2.483V-2.2a4.546,4.546,0,0,0,.378,2.048V0Zm-2.1-1.767a2.188,2.188,0,0,0,1.037-.25,1.645,1.645,0,0,0,.7-.672V-4.324h-.949q-1.907,0-2.03,1.318l-.009.149a1.017,1.017,0,0,0,.334.782A1.3,1.3,0,0,0,54.94-1.767Z" transform="translate(443 1822)" fill="#12263f"/>
    <path id="Trazado_125918" data-name="Trazado 125918" d="M5,0H155a5,5,0,0,1,5,5V56a5,5,0,0,1-5,5H5a5,5,0,0,1-5-5V5A5,5,0,0,1,5,0Z" transform="translate(181 1865)" fill="#f5ebbe"/>
    <path id="Trazado_125919" data-name="Trazado 125919" d="M5.81-2.786,9.062-12.8H11.5L6.9,0H4.746L.158-12.8H2.593ZM18.018,0a3.3,3.3,0,0,1-.246-.888,3.325,3.325,0,0,1-2.5,1.063,3.355,3.355,0,0,1-2.338-.817,2.615,2.615,0,0,1-.905-2.021A2.7,2.7,0,0,1,13.162-5a5.473,5.473,0,0,1,3.23-.813H17.7v-.624a1.666,1.666,0,0,0-.413-1.182,1.638,1.638,0,0,0-1.257-.444,1.881,1.881,0,0,0-1.2.365,1.129,1.129,0,0,0-.466.927H12.234a2.37,2.37,0,0,1,.519-1.463A3.455,3.455,0,0,1,14.164-9.3a4.955,4.955,0,0,1,1.991-.387,3.99,3.99,0,0,1,2.663.839,2.993,2.993,0,0,1,1.02,2.36V-2.2A4.861,4.861,0,0,0,20.2-.149V0ZM15.671-1.538a2.429,2.429,0,0,0,1.191-.308,2.055,2.055,0,0,0,.839-.826V-4.465H16.55a3.148,3.148,0,0,0-1.784.413,1.338,1.338,0,0,0-.6,1.169,1.248,1.248,0,0,0,.409.98A1.583,1.583,0,0,0,15.671-1.538ZM27.053-7.559a5.285,5.285,0,0,0-.87-.07A1.959,1.959,0,0,0,24.205-6.5V0H22.069V-9.51h2.039l.053,1.063a2.406,2.406,0,0,1,2.145-1.239,2,2,0,0,1,.756.123ZM30.674,0H28.538V-9.51h2.136ZM28.406-11.988a1.147,1.147,0,0,1,.312-.824,1.173,1.173,0,0,1,.892-.328,1.188,1.188,0,0,1,.9.328,1.138,1.138,0,0,1,.316.824,1.112,1.112,0,0,1-.316.811,1.2,1.2,0,0,1-.9.323,1.182,1.182,0,0,1-.892-.323A1.12,1.12,0,0,1,28.406-11.988ZM38.681,0a3.3,3.3,0,0,1-.246-.888,3.325,3.325,0,0,1-2.5,1.063A3.355,3.355,0,0,1,33.6-.642,2.615,2.615,0,0,1,32.7-2.663,2.7,2.7,0,0,1,33.825-5a5.473,5.473,0,0,1,3.23-.813h1.31v-.624a1.666,1.666,0,0,0-.413-1.182,1.638,1.638,0,0,0-1.257-.444,1.881,1.881,0,0,0-1.2.365,1.129,1.129,0,0,0-.466.927H32.9a2.37,2.37,0,0,1,.519-1.463A3.455,3.455,0,0,1,34.827-9.3a4.955,4.955,0,0,1,1.991-.387,3.99,3.99,0,0,1,2.663.839,2.993,2.993,0,0,1,1.02,2.36V-2.2a4.861,4.861,0,0,0,.36,2.048V0ZM36.334-1.538a2.429,2.429,0,0,0,1.191-.308,2.055,2.055,0,0,0,.839-.826V-4.465H37.213a3.148,3.148,0,0,0-1.784.413,1.338,1.338,0,0,0-.6,1.169,1.248,1.248,0,0,0,.409.98A1.583,1.583,0,0,0,36.334-1.538Zm14.748-3.12a5.712,5.712,0,0,1-.989,3.524,3.221,3.221,0,0,1-2.72,1.31,3.1,3.1,0,0,1-2.6-1.2L44.666,0H42.732V-13.5h2.136v4.9a3.091,3.091,0,0,1,2.487-1.09,3.258,3.258,0,0,1,2.733,1.292,5.807,5.807,0,0,1,.993,3.612Zm-2.136-.185a4.037,4.037,0,0,0-.545-2.32,1.815,1.815,0,0,0-1.582-.773,1.983,1.983,0,0,0-1.951,1.213V-2.8a2,2,0,0,0,1.969,1.239,1.8,1.8,0,0,0,1.547-.747,3.912,3.912,0,0,0,.563-2.259ZM55.143,0H53.007V-13.5h2.136Zm6.513.176A4.419,4.419,0,0,1,58.364-1.1,4.639,4.639,0,0,1,57.1-4.509v-.264a5.706,5.706,0,0,1,.549-2.544,4.181,4.181,0,0,1,1.542-1.745,4.078,4.078,0,0,1,2.215-.624,3.733,3.733,0,0,1,3,1.239A5.24,5.24,0,0,1,65.47-4.939v.861H59.256a2.856,2.856,0,0,0,.787,1.863,2.362,2.362,0,0,0,1.736.686,2.892,2.892,0,0,0,2.391-1.187l1.151,1.1A3.845,3.845,0,0,1,63.8-.294,4.774,4.774,0,0,1,61.655.176ZM61.4-7.972a1.8,1.8,0,0,0-1.419.615,3.189,3.189,0,0,0-.69,1.714H63.36V-5.8a2.6,2.6,0,0,0-.571-1.622A1.785,1.785,0,0,0,61.4-7.972ZM3.647,25H1.433V12.2H3.647Zm4.509-9.51.062,1.1a3.419,3.419,0,0,1,2.769-1.274q2.971,0,3.023,3.4V25H11.874V18.839a1.958,1.958,0,0,0-.391-1.34,1.645,1.645,0,0,0-1.279-.435,2.058,2.058,0,0,0-1.925,1.169V25H6.144V15.49Zm7.629,4.685a5.654,5.654,0,0,1,1.02-3.529,3.267,3.267,0,0,1,2.733-1.332,3.1,3.1,0,0,1,2.443,1.055V11.5h2.136V25H22.184l-.105-.984a3.148,3.148,0,0,1-2.558,1.16,3.248,3.248,0,0,1-2.7-1.345A5.861,5.861,0,0,1,15.785,20.175Zm2.136.185a3.958,3.958,0,0,0,.558,2.263,1.811,1.811,0,0,0,1.586.813,2.017,2.017,0,0,0,1.916-1.169V18.206a1.986,1.986,0,0,0-1.9-1.143,1.824,1.824,0,0,0-1.6.822A4.408,4.408,0,0,0,17.921,20.359Zm12.612,4.816A4.419,4.419,0,0,1,27.242,23.9a4.639,4.639,0,0,1-1.261-3.406v-.264a5.706,5.706,0,0,1,.549-2.544,4.181,4.181,0,0,1,1.542-1.745,4.078,4.078,0,0,1,2.215-.624,3.733,3.733,0,0,1,3,1.239,5.24,5.24,0,0,1,1.059,3.507v.861H28.134a2.856,2.856,0,0,0,.787,1.863,2.362,2.362,0,0,0,1.736.686,2.892,2.892,0,0,0,2.391-1.187l1.151,1.1a3.845,3.845,0,0,1-1.525,1.323A4.774,4.774,0,0,1,30.533,25.176Zm-.255-8.147a1.8,1.8,0,0,0-1.419.615,3.189,3.189,0,0,0-.69,1.714h4.069V19.2a2.6,2.6,0,0,0-.571-1.622A1.785,1.785,0,0,0,30.278,17.028Zm14.054,3.313a5.662,5.662,0,0,1-1,3.52,3.481,3.481,0,0,1-5.194.286v4.509H36V15.49h1.969l.088.967a3.137,3.137,0,0,1,2.558-1.143,3.242,3.242,0,0,1,2.729,1.3,5.813,5.813,0,0,1,.989,3.6Zm-2.127-.185a3.966,3.966,0,0,0-.567-2.259,1.843,1.843,0,0,0-1.622-.835,1.965,1.965,0,0,0-1.881,1.081v4.219a1.983,1.983,0,0,0,1.9,1.107,1.841,1.841,0,0,0,1.6-.822A4.366,4.366,0,0,0,42.205,20.157Zm8.121,5.019A4.419,4.419,0,0,1,47.035,23.9a4.639,4.639,0,0,1-1.261-3.406v-.264a5.706,5.706,0,0,1,.549-2.544,4.181,4.181,0,0,1,1.542-1.745,4.078,4.078,0,0,1,2.215-.624,3.733,3.733,0,0,1,3,1.239,5.24,5.24,0,0,1,1.059,3.507v.861H47.927a2.856,2.856,0,0,0,.787,1.863,2.362,2.362,0,0,0,1.736.686,2.892,2.892,0,0,0,2.391-1.187l1.151,1.1a3.845,3.845,0,0,1-1.525,1.323A4.774,4.774,0,0,1,50.326,25.176Zm-.255-8.147a1.8,1.8,0,0,0-1.419.615,3.189,3.189,0,0,0-.69,1.714h4.069V19.2a2.6,2.6,0,0,0-.571-1.622A1.785,1.785,0,0,0,50.071,17.028Zm7.708-1.538.062,1.1a3.419,3.419,0,0,1,2.769-1.274q2.971,0,3.023,3.4V25H61.5V18.839a1.958,1.958,0,0,0-.391-1.34,1.645,1.645,0,0,0-1.279-.435A2.058,2.058,0,0,0,57.9,18.232V25H55.767V15.49Zm7.629,4.685a5.654,5.654,0,0,1,1.02-3.529,3.267,3.267,0,0,1,2.733-1.332A3.1,3.1,0,0,1,71.6,16.369V11.5H73.74V25H71.807l-.105-.984a3.148,3.148,0,0,1-2.558,1.16,3.248,3.248,0,0,1-2.7-1.345A5.861,5.861,0,0,1,65.408,20.175Zm2.136.185a3.958,3.958,0,0,0,.558,2.263,1.811,1.811,0,0,0,1.586.813A2.017,2.017,0,0,0,71.6,22.267V18.206a1.986,1.986,0,0,0-1.9-1.143,1.824,1.824,0,0,0-1.6.822A4.408,4.408,0,0,0,67.544,20.359ZM78.24,25H76.1V15.49H78.24ZM75.973,13.012a1.147,1.147,0,0,1,.312-.824,1.173,1.173,0,0,1,.892-.328,1.188,1.188,0,0,1,.9.328,1.138,1.138,0,0,1,.316.824,1.112,1.112,0,0,1-.316.811,1.2,1.2,0,0,1-.9.323,1.182,1.182,0,0,1-.892-.323A1.12,1.12,0,0,1,75.973,13.012Zm8.78,12.164A4.419,4.419,0,0,1,81.461,23.9,4.639,4.639,0,0,1,80.2,20.491v-.264a5.706,5.706,0,0,1,.549-2.544,4.181,4.181,0,0,1,1.542-1.745,4.078,4.078,0,0,1,2.215-.624,3.733,3.733,0,0,1,3,1.239,5.24,5.24,0,0,1,1.059,3.507v.861H82.354a2.856,2.856,0,0,0,.787,1.863,2.362,2.362,0,0,0,1.736.686,2.892,2.892,0,0,0,2.391-1.187l1.151,1.1a3.845,3.845,0,0,1-1.525,1.323A4.774,4.774,0,0,1,84.753,25.176ZM84.5,17.028a1.8,1.8,0,0,0-1.419.615,3.189,3.189,0,0,0-.69,1.714h4.069V19.2a2.6,2.6,0,0,0-.571-1.622A1.785,1.785,0,0,0,84.5,17.028Zm7.708-1.538.062,1.1a3.419,3.419,0,0,1,2.769-1.274q2.971,0,3.023,3.4V25H95.924V18.839a1.958,1.958,0,0,0-.391-1.34,1.645,1.645,0,0,0-1.279-.435,2.058,2.058,0,0,0-1.925,1.169V25H90.193V15.49Zm10.705-2.312V15.49h1.679v1.582h-1.679v5.309a1.169,1.169,0,0,0,.215.787,1,1,0,0,0,.769.242,3.29,3.29,0,0,0,.747-.088v1.652a5.26,5.26,0,0,1-1.406.2q-2.461,0-2.461-2.716V17.072H99.211V15.49h1.564V13.179Zm7.5,12a4.419,4.419,0,0,1-3.292-1.279,4.639,4.639,0,0,1-1.261-3.406v-.264a5.706,5.706,0,0,1,.549-2.544,4.181,4.181,0,0,1,1.542-1.745,4.078,4.078,0,0,1,2.215-.624,3.733,3.733,0,0,1,3,1.239,5.24,5.24,0,0,1,1.059,3.507v.861h-6.214a2.856,2.856,0,0,0,.787,1.863,2.362,2.362,0,0,0,1.736.686,2.892,2.892,0,0,0,2.391-1.187l1.151,1.1a3.845,3.845,0,0,1-1.525,1.323A4.774,4.774,0,0,1,110.408,25.176Zm-.255-8.147a1.8,1.8,0,0,0-1.419.615,3.189,3.189,0,0,0-.69,1.714h4.069V19.2a2.6,2.6,0,0,0-.571-1.622A1.785,1.785,0,0,0,110.153,17.028Z" transform="translate(205 1890)" fill="#12263f"/>
    <path id="Trazado_125920" data-name="Trazado 125920" d="M5,0H155a5,5,0,0,1,5,5V56a5,5,0,0,1-5,5H5a5,5,0,0,1-5-5V5A5,5,0,0,1,5,0Z" transform="translate(393 1865)" fill="#e2f6ff"/>
    <path id="Trazado_125921" data-name="Trazado 125921" d="M5.81-2.786,9.062-12.8H11.5L6.9,0H4.746L.158-12.8H2.593ZM18.018,0a3.3,3.3,0,0,1-.246-.888,3.325,3.325,0,0,1-2.5,1.063,3.355,3.355,0,0,1-2.338-.817,2.615,2.615,0,0,1-.905-2.021A2.7,2.7,0,0,1,13.162-5a5.473,5.473,0,0,1,3.23-.813H17.7v-.624a1.666,1.666,0,0,0-.413-1.182,1.638,1.638,0,0,0-1.257-.444,1.881,1.881,0,0,0-1.2.365,1.129,1.129,0,0,0-.466.927H12.234a2.37,2.37,0,0,1,.519-1.463A3.455,3.455,0,0,1,14.164-9.3a4.955,4.955,0,0,1,1.991-.387,3.99,3.99,0,0,1,2.663.839,2.993,2.993,0,0,1,1.02,2.36V-2.2A4.861,4.861,0,0,0,20.2-.149V0ZM15.671-1.538a2.429,2.429,0,0,0,1.191-.308,2.055,2.055,0,0,0,.839-.826V-4.465H16.55a3.148,3.148,0,0,0-1.784.413,1.338,1.338,0,0,0-.6,1.169,1.248,1.248,0,0,0,.409.98A1.583,1.583,0,0,0,15.671-1.538ZM27.053-7.559a5.285,5.285,0,0,0-.87-.07A1.959,1.959,0,0,0,24.205-6.5V0H22.069V-9.51h2.039l.053,1.063a2.406,2.406,0,0,1,2.145-1.239,2,2,0,0,1,.756.123ZM30.674,0H28.538V-9.51h2.136ZM28.406-11.988a1.147,1.147,0,0,1,.312-.824,1.173,1.173,0,0,1,.892-.328,1.188,1.188,0,0,1,.9.328,1.138,1.138,0,0,1,.316.824,1.112,1.112,0,0,1-.316.811,1.2,1.2,0,0,1-.9.323,1.182,1.182,0,0,1-.892-.323A1.12,1.12,0,0,1,28.406-11.988ZM38.681,0a3.3,3.3,0,0,1-.246-.888,3.325,3.325,0,0,1-2.5,1.063A3.355,3.355,0,0,1,33.6-.642,2.615,2.615,0,0,1,32.7-2.663,2.7,2.7,0,0,1,33.825-5a5.473,5.473,0,0,1,3.23-.813h1.31v-.624a1.666,1.666,0,0,0-.413-1.182,1.638,1.638,0,0,0-1.257-.444,1.881,1.881,0,0,0-1.2.365,1.129,1.129,0,0,0-.466.927H32.9a2.37,2.37,0,0,1,.519-1.463A3.455,3.455,0,0,1,34.827-9.3a4.955,4.955,0,0,1,1.991-.387,3.99,3.99,0,0,1,2.663.839,2.993,2.993,0,0,1,1.02,2.36V-2.2a4.861,4.861,0,0,0,.36,2.048V0ZM36.334-1.538a2.429,2.429,0,0,0,1.191-.308,2.055,2.055,0,0,0,.839-.826V-4.465H37.213a3.148,3.148,0,0,0-1.784.413,1.338,1.338,0,0,0-.6,1.169,1.248,1.248,0,0,0,.409.98A1.583,1.583,0,0,0,36.334-1.538Zm14.748-3.12a5.712,5.712,0,0,1-.989,3.524,3.221,3.221,0,0,1-2.72,1.31,3.1,3.1,0,0,1-2.6-1.2L44.666,0H42.732V-13.5h2.136v4.9a3.091,3.091,0,0,1,2.487-1.09,3.258,3.258,0,0,1,2.733,1.292,5.807,5.807,0,0,1,.993,3.612Zm-2.136-.185a4.037,4.037,0,0,0-.545-2.32,1.815,1.815,0,0,0-1.582-.773,1.983,1.983,0,0,0-1.951,1.213V-2.8a2,2,0,0,0,1.969,1.239,1.8,1.8,0,0,0,1.547-.747,3.912,3.912,0,0,0,.563-2.259ZM55.143,0H53.007V-13.5h2.136Zm6.513.176A4.419,4.419,0,0,1,58.364-1.1,4.639,4.639,0,0,1,57.1-4.509v-.264a5.706,5.706,0,0,1,.549-2.544,4.181,4.181,0,0,1,1.542-1.745,4.078,4.078,0,0,1,2.215-.624,3.733,3.733,0,0,1,3,1.239A5.24,5.24,0,0,1,65.47-4.939v.861H59.256a2.856,2.856,0,0,0,.787,1.863,2.362,2.362,0,0,0,1.736.686,2.892,2.892,0,0,0,2.391-1.187l1.151,1.1A3.845,3.845,0,0,1,63.8-.294,4.774,4.774,0,0,1,61.655.176ZM61.4-7.972a1.8,1.8,0,0,0-1.419.615,3.189,3.189,0,0,0-.69,1.714H63.36V-5.8a2.6,2.6,0,0,0-.571-1.622A1.785,1.785,0,0,0,61.4-7.972ZM1.3,25V12.2H5.08a5.928,5.928,0,0,1,3.01.756A5.154,5.154,0,0,1,10.125,15.1a6.807,6.807,0,0,1,.721,3.182v.642a6.779,6.779,0,0,1-.725,3.2,5.092,5.092,0,0,1-2.065,2.127A6.2,6.2,0,0,1,4.983,25ZM3.524,14v9.211h1.45A3.342,3.342,0,0,0,7.66,22.115a4.751,4.751,0,0,0,.954-3.136v-.711a4.875,4.875,0,0,0-.905-3.176A3.212,3.212,0,0,0,5.08,14Zm13.518,11.18A4.419,4.419,0,0,1,13.75,23.9a4.639,4.639,0,0,1-1.261-3.406v-.264a5.706,5.706,0,0,1,.549-2.544,4.181,4.181,0,0,1,1.542-1.745,4.078,4.078,0,0,1,2.215-.624,3.733,3.733,0,0,1,3,1.239,5.24,5.24,0,0,1,1.059,3.507v.861H14.643a2.856,2.856,0,0,0,.787,1.863,2.362,2.362,0,0,0,1.736.686,2.892,2.892,0,0,0,2.391-1.187l1.151,1.1a3.845,3.845,0,0,1-1.525,1.323A4.774,4.774,0,0,1,17.042,25.176Zm-.255-8.147a1.8,1.8,0,0,0-1.419.615,3.189,3.189,0,0,0-.69,1.714h4.069V19.2a2.6,2.6,0,0,0-.571-1.622A1.785,1.785,0,0,0,16.787,17.028Zm14.054,3.313a5.662,5.662,0,0,1-1,3.52,3.481,3.481,0,0,1-5.194.286v4.509H22.509V15.49h1.969l.088.967a3.137,3.137,0,0,1,2.558-1.143,3.242,3.242,0,0,1,2.729,1.3,5.813,5.813,0,0,1,.989,3.6Zm-2.127-.185a3.966,3.966,0,0,0-.567-2.259,1.843,1.843,0,0,0-1.622-.835,1.965,1.965,0,0,0-1.881,1.081v4.219a1.983,1.983,0,0,0,1.9,1.107,1.841,1.841,0,0,0,1.6-.822A4.366,4.366,0,0,0,28.714,20.157Zm8.121,5.019A4.419,4.419,0,0,1,33.543,23.9a4.639,4.639,0,0,1-1.261-3.406v-.264a5.706,5.706,0,0,1,.549-2.544,4.181,4.181,0,0,1,1.542-1.745,4.078,4.078,0,0,1,2.215-.624,3.733,3.733,0,0,1,3,1.239,5.24,5.24,0,0,1,1.059,3.507v.861H34.436a2.856,2.856,0,0,0,.787,1.863,2.362,2.362,0,0,0,1.736.686,2.892,2.892,0,0,0,2.391-1.187l1.151,1.1a3.845,3.845,0,0,1-1.525,1.323A4.774,4.774,0,0,1,36.835,25.176Zm-.255-8.147a1.8,1.8,0,0,0-1.419.615,3.189,3.189,0,0,0-.69,1.714H38.54V19.2a2.6,2.6,0,0,0-.571-1.622A1.785,1.785,0,0,0,36.58,17.028Zm7.708-1.538.062,1.1a3.419,3.419,0,0,1,2.769-1.274q2.971,0,3.023,3.4V25H48.006V18.839a1.958,1.958,0,0,0-.391-1.34,1.645,1.645,0,0,0-1.279-.435,2.058,2.058,0,0,0-1.925,1.169V25H42.275V15.49Zm7.629,4.685a5.654,5.654,0,0,1,1.02-3.529,3.267,3.267,0,0,1,2.733-1.332,3.1,3.1,0,0,1,2.443,1.055V11.5h2.136V25H58.315l-.105-.984a3.148,3.148,0,0,1-2.558,1.16,3.248,3.248,0,0,1-2.7-1.345A5.861,5.861,0,0,1,51.917,20.175Zm2.136.185a3.958,3.958,0,0,0,.558,2.263,1.811,1.811,0,0,0,1.586.813,2.017,2.017,0,0,0,1.916-1.169V18.206a1.986,1.986,0,0,0-1.9-1.143,1.824,1.824,0,0,0-1.6.822A4.408,4.408,0,0,0,54.053,20.359ZM64.749,25H62.613V15.49h2.136ZM62.481,13.012a1.147,1.147,0,0,1,.312-.824,1.173,1.173,0,0,1,.892-.328,1.188,1.188,0,0,1,.9.328,1.138,1.138,0,0,1,.316.824,1.112,1.112,0,0,1-.316.811,1.2,1.2,0,0,1-.9.323,1.182,1.182,0,0,1-.892-.323A1.12,1.12,0,0,1,62.481,13.012Zm8.78,12.164A4.419,4.419,0,0,1,67.97,23.9a4.639,4.639,0,0,1-1.261-3.406v-.264a5.706,5.706,0,0,1,.549-2.544A4.181,4.181,0,0,1,68.8,15.938a4.078,4.078,0,0,1,2.215-.624,3.733,3.733,0,0,1,3,1.239,5.24,5.24,0,0,1,1.059,3.507v.861H68.862a2.856,2.856,0,0,0,.787,1.863,2.362,2.362,0,0,0,1.736.686,2.892,2.892,0,0,0,2.391-1.187l1.151,1.1A3.845,3.845,0,0,1,73.4,24.706,4.774,4.774,0,0,1,71.262,25.176Zm-.255-8.147a1.8,1.8,0,0,0-1.419.615,3.189,3.189,0,0,0-.69,1.714h4.069V19.2a2.6,2.6,0,0,0-.571-1.622A1.785,1.785,0,0,0,71.007,17.028Zm7.708-1.538.062,1.1a3.419,3.419,0,0,1,2.769-1.274q2.971,0,3.023,3.4V25H82.433V18.839a1.958,1.958,0,0,0-.391-1.34,1.645,1.645,0,0,0-1.279-.435,2.058,2.058,0,0,0-1.925,1.169V25H76.7V15.49ZM89.42,13.179V15.49H91.1v1.582H89.42v5.309a1.169,1.169,0,0,0,.215.787,1,1,0,0,0,.769.242,3.29,3.29,0,0,0,.747-.088v1.652a5.26,5.26,0,0,1-1.406.2q-2.461,0-2.461-2.716V17.072H85.72V15.49h1.564V13.179Zm7.5,12A4.419,4.419,0,0,1,93.625,23.9a4.639,4.639,0,0,1-1.261-3.406v-.264a5.706,5.706,0,0,1,.549-2.544,4.181,4.181,0,0,1,1.542-1.745,4.078,4.078,0,0,1,2.215-.624,3.733,3.733,0,0,1,3,1.239,5.24,5.24,0,0,1,1.059,3.507v.861H94.518a2.856,2.856,0,0,0,.787,1.863,2.362,2.362,0,0,0,1.736.686,2.892,2.892,0,0,0,2.391-1.187l1.151,1.1a3.845,3.845,0,0,1-1.525,1.323A4.774,4.774,0,0,1,96.917,25.176Zm-.255-8.147a1.8,1.8,0,0,0-1.419.615,3.189,3.189,0,0,0-.69,1.714h4.069V19.2a2.6,2.6,0,0,0-.571-1.622A1.785,1.785,0,0,0,96.662,17.028Z" transform="translate(417 1890)" fill="#12263f"/>
    <g id="Grupo_83628" data-name="Grupo 83628" transform="translate(250.316 1763.691)">
      <g id="Grupo_83615" data-name="Grupo 83615" transform="translate(99.373 37.003)">
        <path id="Trazado_104411" data-name="Trazado 104411" d="M133.973,53.046c.022-.029.045-.058.065-.089s.037-.061.056-.091.034-.054.049-.082.031-.064.046-.1.028-.057.04-.088.024-.063.035-.095.024-.064.033-.1.017-.065.025-.1.018-.067.024-.1.012-.076.018-.114.009-.056.012-.086a2.043,2.043,0,0,0,0-.41c0-.029-.008-.057-.012-.086s-.01-.077-.018-.115-.016-.067-.024-.1-.016-.065-.025-.1-.022-.064-.033-.1-.022-.064-.035-.1-.027-.058-.04-.087-.03-.065-.046-.1-.033-.055-.049-.082-.035-.061-.056-.091-.043-.059-.065-.088-.035-.05-.055-.074c-.044-.053-.089-.1-.137-.152L121.047,37.609a2.071,2.071,0,1,0-2.929,2.929l9.2,9.2h-25.87a2.071,2.071,0,1,0,0,4.143h25.87l-9.2,9.2a2.071,2.071,0,1,0,2.929,2.929L133.78,53.272c.048-.048.093-.1.137-.152C133.937,53.1,133.954,53.071,133.973,53.046Z" transform="translate(-99.373 -37.003)"/>
      </g>
    </g>
    <g id="Grupo_83629" data-name="Grupo 83629" transform="translate(250.316 1844.525)">
      <g id="Grupo_83615-2" data-name="Grupo 83615" transform="translate(99.373 37.003)">
        <path id="Trazado_104411-2" data-name="Trazado 104411" d="M133.973,53.046c.022-.029.045-.058.065-.089s.037-.061.056-.091.034-.054.049-.082.031-.064.046-.1.028-.057.04-.088.023-.063.035-.095.024-.064.033-.1.017-.065.025-.1.018-.067.024-.1.012-.076.018-.114.009-.056.012-.086a2.043,2.043,0,0,0,0-.41c0-.029-.008-.057-.012-.086s-.01-.077-.018-.115-.016-.067-.024-.1-.016-.065-.025-.1-.022-.064-.033-.1-.022-.064-.035-.1-.027-.058-.04-.087-.03-.065-.046-.1-.033-.055-.049-.082-.035-.061-.056-.091-.043-.059-.065-.088-.035-.05-.055-.074c-.044-.053-.089-.1-.137-.152L121.047,37.609a2.071,2.071,0,1,0-2.929,2.929l9.2,9.2h-25.87a2.072,2.072,0,1,0,0,4.143h25.87l-9.2,9.2a2.071,2.071,0,1,0,2.929,2.929l12.734-12.733c.048-.048.093-.1.137-.152C133.938,53.1,133.955,53.071,133.973,53.046Z" transform="translate(-99.373 -37.003)"/>
      </g>
    </g>
  </g>
</svg>
