<svg xmlns="http://www.w3.org/2000/svg" xmlns:xlink="http://www.w3.org/1999/xlink" width="277.65" height="273.193" viewBox="0 0 277.65 273.193">
  <defs>
    <clipPath id="clip-path">
      <path id="Trazado_104819" data-name="Trazado 104819" d="M172.732,361.035l-.8.045a4.072,4.072,0,0,0-1.575-2.193l17.874-5.573-.456-7.663-.882.11-16.313-10.775c-2.458-1.624-5.038-3.918-8.262-3.237-1.643.347-1.129.9-2.088,2.039a7.38,7.38,0,0,1-3.971,1.909,21.008,21.008,0,0,1-11.039-.7c2.8-1.074,5.606-.673,8.5-.522,1.741.091,2.336-.28,2.336-2.264,0-3.424.071-4.92-.427-7.2l-.8.038c-.25-1.144-2.4-2.062-3.242-2.618l-7.176-4.74-10.308-6.81L119.869,314.9l-8.6,2.431a19.055,19.055,0,0,0-2.27.641c-.861.367-1.33,1.537-2.267,1.491l1.331,6.086c.837,3.828,4.439,3.035,7.622,4.234-4.73,1.488-11.629.9-15.648-2.2-.281-1.285-.556-2.572-.845-3.856l-.8.046c-.352-1.611-4.546-1.422-5.613-1.219-.7.133-1.4.4-2.081.588l-8.859,2.5-14.65,4.138-.95-.206.483,7.789,13.654,8.214c-2.254.109-8.013,1.011-7.255,4.476l-.852-.126c.69,3.158.772,7.844,3.51,9.952,4.226,3.253,14.167,4.679,18.484.915,1.29-1.125.9-2.2,2.8-2.383a7.222,7.222,0,0,1,3.837.724c.841.426,17.163,11.877,19.709,13.522,4.835-1.366,21.595-5.757,24.53-6.586,2.432-.687,5.232-1.932,5.666-.543.685,2.191,4.075,5.453,7.393,6.6a14.788,14.788,0,0,0,11.5-.365c2.728-1.168,2.944-2.807,3.1-4.852A19.972,19.972,0,0,0,172.732,361.035Z" transform="translate(-66.236 -310.882)" fill="none" stroke="#292739" stroke-linecap="round" stroke-linejoin="round" stroke-width="1.273"/>
    </clipPath>
    <clipPath id="clip-path-2">
      <path id="Trazado_104824" data-name="Trazado 104824" d="M314.522,295.137l-.4.116-10.995-7.263c2.863-.039,6.613-.674,6.24-4.428-.206-2.069.317-4.19-.128-6.224a2.05,2.05,0,0,1,.039.648c-.281-3.157-5.52-4.387-7.961-4.779-2.962-.476-7.541-.6-9.975,1.545-.774.682-.81,1.655-1.741,2.042-1.161.482-3.179-.04-4.248-.546a27.177,27.177,0,0,1-2.9-1.875q-7.773-5.022-15.5-10.118l-.116.033-.051-.033-12.156,3.435-7.713,2.18c-.967.273-3.825.625-4.087,1.9v0a.89.89,0,0,0,.169.769c.36,1.649.64,3.338,1.085,4.964.818,2.99,4.317,2.36,6.813,3.349-4.01,1.646-11.211,1.138-14.346-2.188l-.669-3.059a.565.565,0,0,1-.038.279c-.738-1.537-4.288-1.521-5.641-1.271-1.1.2-2.174.609-3.243.92q-2.359.689-4.725,1.354l-14.492,4.094h0l-.766.17.164,6.387,12.568,7.488c-2.065.052-9.113,1.029-7.258,4.746a39.327,39.327,0,0,0,1.206,5.516c1.119,2.922,4.7,3.976,7.538,4.471,2.98.52,8.593.88,10.763-1.838,1.109-1.388,1.191-1.965,3.367-1.734a6.71,6.71,0,0,1,2.44.765c6.372,3.3,11.078,7.953,17.111,11.85,5.739-1.622,20.981-5.374,22.758-5.975,2.769-.936,1.254-2.307,1.254-8.531a1.675,1.675,0,0,1,0,.387c-.434-2.042-5.069-1.926-6.639-2.548,4.036-1.658,11.407-1.181,14.457,2.305.316,1.444.258,2.69,1.678,3.409a7.872,7.872,0,0,0,5.2.363c2.422-.561,16.08-5.053,21.137-6.528Zm-82.645-14.025a6.658,6.658,0,0,1,4.219.585l.384,1.755h0a1.241,1.241,0,0,1-.027-.15c1.325,6.07,20.055,6.785,18.914.759v0c-.6-2.737-.656-6.928-3.088-8.72l16.105-4.55,14.738,9.735c2.186,1.444,5.944,4.41,8.692,2.644.719-.462.712-1.046,1.248-1.707a6.2,6.2,0,0,1,3.319-1.626,17.158,17.158,0,0,1,9.306.63c-2.884.971-5.519-.059-8.341.36-.761.113-2.294.6-2.068,1.663a1,1,0,0,0,.167.766l1.265,5.784c0-.007,0-.013,0-.02.579,1.692,3.829,3.01,5.189,3.909l5.89,3.891-13.925,3.934c-2.272.642-4.56,1.356-6.806.145l-.384-1.755a4.306,4.306,0,0,0-2.045-2.443v0a17.929,17.929,0,0,0-11.355-2.136c-2.2.291-6.91,1.646-5.278,4.926l1.221,5.584v0a4.136,4.136,0,0,0,1.658,2.178l-16.36,4.622-8.475-5.6c-3.047-2.013-6.069-4.457-9.309-6.15-1.136-.594-4.751-1.614-6.12-.4-.076.068-.106.16-.171.226-.208.215-.327.89-.561,1.191a4.921,4.921,0,0,1-2.364,1.407,12.236,12.236,0,0,1-3.174.59,18.011,18.011,0,0,1-7.121-.936,12.989,12.989,0,0,1,4.255-.636c1.452-.011,3.157.558,4.57.187.8-.208,1.678-.714,1.569-1.609,0,.008,0,.016.007.024-.413-1.887-.453-6.048-1.989-7.37h0c-3.1-2.678-7.1-4.692-10.519-6.954Z" transform="translate(-206.979 -264.254)" fill="none" stroke="#292739" stroke-linecap="round" stroke-linejoin="round" stroke-width="1.273"/>
    </clipPath>
  </defs>
  <g id="Grupo_83982" data-name="Grupo 83982" transform="translate(3656 9998)">
    <g id="Grupo_83823" data-name="Grupo 83823" transform="translate(-4408.901 -11204)">
      <g id="Grupo_83821" data-name="Grupo 83821" transform="translate(752.901 1206)">
        <path id="Trazado_104412" data-name="Trazado 104412" d="M2258.684,363.4c1.551,18.626,15.473,28.892,30.645,37.443,23.019,12.972,51.382,10.679,75.562,2.409,19.412-6.64,38.7-15.547,59.219-15.515,19.3.03,38.62,8.037,57.476,3.921a46.686,46.686,0,0,0,33.419-29.5c9.187-26.025-11.28-49.911-16.144-74.73-4.349-22.2,3.761-44.646,9.121-66.62s7.282-47.466-6.972-65.028c-14.706-18.117-41.366-21.056-64.473-17.808s-45.865,11.232-69.14,9.566c-21.506-1.54-42.088-11.287-63.64-10.625a67.624,67.624,0,0,0-52.341,28.17c-22.22,31.518-8.629,67.56,6.128,98.727,6.2,13.084,10,26.47,10.2,41.134C2268.022,324.92,2257.025,343.475,2258.684,363.4Z" transform="translate(-2239.698 -136.816)" fill="#d8e5f3"/>
      </g>
    </g>
    <g id="Grupo_83981" data-name="Grupo 83981" transform="translate(-3659.856 -10015.757)">
      <g id="Grupo_83919" data-name="Grupo 83919" transform="translate(110.585 41.722)">
        <circle id="Elipse_4213" data-name="Elipse 4213" cx="11.179" cy="11.179" r="11.179" transform="translate(0.847 15.809) rotate(-45)" fill="#eaeefa"/>
        <g id="Grupo_83918" data-name="Grupo 83918" transform="translate(0 10.856)">
          <path id="Trazado_104789" data-name="Trazado 104789" d="M186.117,62.226l.537,5.54-10.818,1.257L172,73.976,171.926,63.6Z" transform="translate(-171.926 -62.226)" fill="#79a2e4" stroke="#292739" stroke-linecap="round" stroke-linejoin="round" stroke-width="1.273"/>
        </g>
      </g>
      <path id="Trazado_104790" data-name="Trazado 104790" d="M331.954,154.024l-1.4-5.637a25.019,25.019,0,1,0-30.305-18.262l-5.638,1.4a30.828,30.828,0,1,1,37.341,22.5Z" transform="translate(-115.597 -23.477)" fill="#79a2e4"/>
      <g id="Grupo_83921" data-name="Grupo 83921" transform="translate(42.051 164.442)">
        <path id="Trazado_104791" data-name="Trazado 104791" d="M96.477,321.642c-1.079.211-2.145.419-3.213.584s-2.136.291-3.2.391c-1.066.081-2.123.145-3.177.155s-2.1-.03-3.142-.1-2.067-.213-3.082-.381c-.506-.1-1.012-.185-1.508-.3-.249-.051-.5-.116-.743-.18l-.37-.093-.368-.1a30.593,30.593,0,0,1-5.666-2.229A32.419,32.419,0,0,1,62.5,312a30.2,30.2,0,0,1-3.469-4.828,26.615,26.615,0,0,1-1.336-2.63,28.548,28.548,0,0,1-1.062-2.757,29.588,29.588,0,0,1,1.672-22.87,26.557,26.557,0,0,1,1.52-2.528,29.15,29.15,0,0,1,1.79-2.379c.161-.19.319-.384.488-.568s.328-.379.5-.558.342-.368.518-.547l.532-.535q1.082-1.055,2.276-2.01a31.18,31.18,0,0,1,5.182-3.371,34.7,34.7,0,0,1,5.945-2.378,23.627,23.627,0,0,0-6.661.51,25.574,25.574,0,0,0-3.252.925,27.413,27.413,0,0,0-3.129,1.335,28.237,28.237,0,0,0-2.962,1.719l-.709.488c-.234.166-.462.341-.694.512-.458.348-.91.707-1.346,1.087a28,28,0,0,0-6.557,8.218,29.043,29.043,0,0,0-1.471,3.281,30.309,30.309,0,0,0-1.06,3.458,31.436,31.436,0,0,0-.656,3.579,33.136,33.136,0,0,0-.088,7.333,35.153,35.153,0,0,0,.562,3.666,35.509,35.509,0,0,0,.975,3.6,34.552,34.552,0,0,0,1.376,3.5,31.966,31.966,0,0,0,1.78,3.332,33.352,33.352,0,0,0,4.623,5.916l.664.657c.222.218.453.426.68.639s.465.411.7.616.472.4.711.6a34.4,34.4,0,0,0,2.985,2.183,33.019,33.019,0,0,0,6.519,3.281,31.062,31.062,0,0,0,3.45,1.061,30.028,30.028,0,0,0,3.519.632,28.4,28.4,0,0,0,3.526.2A31.707,31.707,0,0,0,84,326.134a32.264,32.264,0,0,0,3.351-.623,33.528,33.528,0,0,0,3.213-.974c1.045-.38,2.061-.817,3.052-1.291A30.6,30.6,0,0,0,96.477,321.642Z" transform="translate(-48.315 -263.989)" fill="#eaeefa"/>
        <g id="Grupo_83920" data-name="Grupo 83920" transform="translate(9.247 25.31)">
          <path id="Trazado_104792" data-name="Trazado 104792" d="M86.219,339.355a.366.366,0,0,1-.073-.007A28.044,28.044,0,0,1,69.5,327.83c-3.822-5.632-5.312-12.161-4.089-17.911a.353.353,0,0,1,.69.147c-1.183,5.563.269,11.893,3.982,17.368a27.315,27.315,0,0,0,16.207,11.223.353.353,0,0,1-.072.7Z" transform="translate(-64.994 -309.64)" fill="#292739"/>
          <path id="Trazado_104793" data-name="Trazado 104793" d="M88.214,338.587a.347.347,0,0,1-.053,0c-4.982-.746-10.271-4.126-13.805-8.82S69.112,319.144,69.9,314.31a.353.353,0,0,1,.7.114c-.757,4.65.9,10.365,4.325,14.914s8.541,7.827,13.346,8.547a.353.353,0,0,1-.052.7Z" transform="translate(-67.095 -311.589)" fill="#292739"/>
        </g>
      </g>
      <g id="Grupo_83925" data-name="Grupo 83925" transform="translate(60.371 79.741)">
        <path id="Trazado_104794" data-name="Trazado 104794" d="M232.234,181.21a17.048,17.048,0,0,1,.726,7.2,75.76,75.76,0,0,1-5.793,22.452A76,76,0,1,1,96.712,135.018c9.2-12.152,25.293-27.382,41.656-23.044a50.686,50.686,0,0,1,5.839,1.987c6.066,2.431,12.016,5.54,18.518,6.2,7.1.719,14.113-1.553,20.925-3.665s13.971-4.113,20.991-2.848,13.793,6.813,14.028,13.943c.309,9.369-10.141,16.687-9.38,26.031.546,6.7,6.6,11.415,12.1,15.3C226.377,172.443,230.533,176.134,232.234,181.21Z" transform="translate(-81.358 -111.219)" fill="#a4d2f3"/>
        <g id="Grupo_83922" data-name="Grupo 83922" transform="translate(16.162 10.238)">
          <circle id="Elipse_4214" data-name="Elipse 4214" cx="43.36" cy="43.36" r="43.36" transform="translate(2.66 61.32) rotate(-45)" fill="#eaeefa"/>
          <circle id="Elipse_4215" data-name="Elipse 4215" cx="43.36" cy="43.36" r="43.36" transform="translate(0 62.61) rotate(-45)" fill="#fff"/>
        </g>
        <g id="Grupo_83923" data-name="Grupo 83923" transform="translate(30.188 51.435)">
          <path id="Trazado_104795" data-name="Trazado 104795" d="M153.886,220.221a2.759,2.759,0,1,0-2.382-3.09A2.76,2.76,0,0,0,153.886,220.221Z" transform="translate(-142.79 -208.773)" fill="#fff" stroke="#292739" stroke-linecap="round" stroke-linejoin="round" stroke-width="1.273"/>
          <path id="Trazado_104796" data-name="Trazado 104796" d="M137,206.708a1.365,1.365,0,1,0-1.178-1.529A1.364,1.364,0,0,0,137,206.708Z" transform="translate(-135.806 -203.989)" fill="#fff" stroke="#292739" stroke-linecap="round" stroke-linejoin="round" stroke-width="1.273"/>
        </g>
        <g id="Grupo_83924" data-name="Grupo 83924" transform="translate(107.187 48.401)">
          <path id="Trazado_104797" data-name="Trazado 104797" d="M280.644,232.978a.352.352,0,0,1-.33-.478c3.311-8.733,3.847-22.72-5.541-33.4a.353.353,0,0,1,.531-.466c9.594,10.913,9.051,25.2,5.67,34.114A.352.352,0,0,1,280.644,232.978Z" transform="translate(-274.686 -198.517)" fill="#292739"/>
          <path id="Trazado_104798" data-name="Trazado 104798" d="M281.638,234.425a.362.362,0,0,1-.1-.013.353.353,0,0,1-.243-.436,30.447,30.447,0,0,0-2.652-24.076.353.353,0,1,1,.618-.342,31.122,31.122,0,0,1,2.713,24.609A.353.353,0,0,1,281.638,234.425Z" transform="translate(-276.431 -203.355)" fill="#292739"/>
        </g>
      </g>
      <path id="Trazado_104799" data-name="Trazado 104799" d="M192.114,92.492a15.845,15.845,0,0,1,.294-4.971,20.128,20.128,0,0,1,1.739-4.835c.2-.385.415-.76.626-1.144.227-.369.456-.741.7-1.107l.374-.538c.126-.179.247-.364.384-.533l.4-.52.2-.261.212-.252a26.566,26.566,0,0,1,3.788-3.707,27.469,27.469,0,0,1,4.515-2.943c.4-.211.817-.4,1.23-.6s.843-.362,1.269-.538c.434-.158.865-.328,1.306-.474l.668-.208c.222-.07.446-.139.674-.194a23.739,23.739,0,0,1,5.678-.836l.368-.011.37.008.742.021.186.006.184.016.369.033.74.068a21.684,21.684,0,0,1,2.936.541,22.832,22.832,0,0,1,5.563,2.232,24.714,24.714,0,0,1,4.808,3.543,26.579,26.579,0,0,1,3.828,4.523l.41.617c.135.207.255.421.383.633l.376.637c.126.212.234.434.351.651.228.437.457.875.653,1.328s.412.9.584,1.361A27.353,27.353,0,0,1,240.945,96.8a25.555,25.555,0,0,1-1.113,6.058c-.166.492-.341.982-.518,1.471-.2.482-.406.96-.614,1.439-.1.237-.219.456-.329.684s-.223.451-.344.671l-.36.663-.38.649a28.054,28.054,0,0,1-1.682,2.475,29.119,29.119,0,0,1-1.9,2.272c-.331.365-.681.706-1.027,1.054s-.7.677-1.072,1c-.725.65-1.479,1.258-2.253,1.832a34.366,34.366,0,0,1-4.881,3,35.408,35.408,0,0,1-5.242,2.122,34.68,34.68,0,0,1-5.481,1.259c-.232.032-.465.068-.7.1l-.688.073c-.458.045-.916.1-1.374.129l-1.373.07-.343.017-.342,0-.684,0c-.912.023-1.815-.043-2.718-.08l-1.344-.115c-.223-.021-.448-.036-.67-.063l-.665-.088a44.411,44.411,0,0,1-5.22-.989l-1.272-.329c-.42-.12-.838-.248-1.255-.374-.208-.064-.417-.124-.624-.192l-.617-.208c-.41-.141-.823-.272-1.228-.422q-2.434-.9-4.75-1.987c-.766-.376-1.536-.737-2.279-1.145-.373-.2-.751-.4-1.117-.6s-.727-.408-1.083-.615c-1.431-.824-2.807-1.669-4.165-2.494a69.4,69.4,0,0,0-8.168-4.478c-.7-.307-1.415-.589-2.141-.838a20.545,20.545,0,0,0-2.222-.639,19.477,19.477,0,0,0-2.315-.4c-.393-.035-.793-.077-1.193-.085-.4-.029-.805-.015-1.216-.022.374-.16.755-.322,1.145-.454s.789-.247,1.192-.361a18.17,18.17,0,0,1,2.483-.44,23.055,23.055,0,0,1,5.1.093c.846.1,1.685.243,2.514.414.416.083.827.175,1.239.269s.819.2,1.223.307c1.623.425,3.205.927,4.755,1.44l4.551,1.542,1.109.364c.368.119.73.226,1.093.34l.544.167.547.155,1.09.311c.731.185,1.457.383,2.187.546.365.082.726.179,1.092.247l1.093.222c.363.077.728.132,1.091.2l.544.1c.182.032.364.054.546.081l1.087.159,1.084.126a42.3,42.3,0,0,0,4.3.258l.532.008c.177,0,.353-.007.529-.009l1.055-.024c.7-.051,1.4-.077,2.083-.159l.516-.051.258-.026.255-.038,1.018-.15c.17-.02.336-.061.5-.092l.5-.094.5-.093c.165-.034.325-.074.487-.109s.323-.075.484-.118l.482-.125c.32-.091.64-.18.956-.28.636-.19,1.262-.41,1.88-.65a23.484,23.484,0,0,0,11.707-9.321l.231-.385.215-.392c.074-.129.141-.262.206-.4s.139-.267.195-.4c.108-.257.223-.511.335-.767.093-.265.187-.529.291-.79a14.9,14.9,0,0,0,.7-3.352,17.811,17.811,0,0,0-.819-7.107c-.082-.3-.2-.58-.3-.869-.057-.143-.1-.292-.165-.431l-.184-.423c-.062-.141-.114-.287-.183-.424l-.2-.415c-.069-.138-.13-.28-.2-.415l-.225-.4a18.005,18.005,0,0,0-2.1-3.011,15.5,15.5,0,0,0-5.786-4.247,14.525,14.525,0,0,0-3.537-.97,17.329,17.329,0,0,0-3.877-.1,23.05,23.05,0,0,0-8.015,2.255,25.491,25.491,0,0,0-3.754,2.217,23.077,23.077,0,0,0-3.362,2.911A19.926,19.926,0,0,0,192.114,92.492Z" transform="translate(-56.912 -12.586)" fill="#d8e5ee"/>
      <path id="Trazado_104800" data-name="Trazado 104800" d="M70.945,128.26a26.355,26.355,0,0,1-9.735-10.774c-.07-.144-.149-.285-.213-.432l-.188-.443-.376-.893-.094-.225-.081-.229-.158-.46-.314-.928q-.135-.471-.259-.949l-.124-.478c-.042-.16-.084-.319-.113-.482l-.191-.974-.091-.49c-.026-.164-.043-.329-.064-.494-.08-.66-.177-1.325-.195-1.994l-.048-1.007L58.709,106a27.446,27.446,0,0,1,.388-4.037,28.924,28.924,0,0,1,2.555-7.71,30.973,30.973,0,0,1,4.513-6.726,34.611,34.611,0,0,1,5.976-5.406c.272-.2.553-.38.832-.566s.558-.374.842-.552l.863-.517c.289-.17.573-.35.871-.5s.591-.315.888-.471l.446-.233.454-.214c.607-.282,1.21-.577,1.833-.822a36.249,36.249,0,0,1,15.651-2.724c.332.006.661.042.992.067l.99.083c.165.012.329.029.493.054l.491.069.98.14c.328.04.649.115.974.173s.646.125.968.192.639.15.958.228l.953.243a36.7,36.7,0,0,1,7.224,2.844c.284.148.572.29.852.444s.553.321.827.483l.822.486c.272.164.533.345.8.517,1.064.689,2.074,1.444,3.056,2.218a40.865,40.865,0,0,1,5.313,5.157,41.473,41.473,0,0,1,4.229,5.874c.3.518.6,1.033.892,1.551s.543,1.062.806,1.594l.386.8c.119.273.24.544.353.819l.34.822c.108.277.22.549.323.828-.241-.178-.472-.362-.708-.542l-.69-.547c-.231-.181-.454-.366-.678-.549l-.7-.528-1.362-1.059c-.466-.337-.923-.678-1.378-1.015-1.836-1.333-3.663-2.6-5.544-3.719a55.972,55.972,0,0,0-5.669-3.021,46.239,46.239,0,0,0-5.788-2.169A35.7,35.7,0,0,0,94.7,86.544a32.593,32.593,0,0,0-11.079,2.427c-.879.348-1.728.763-2.567,1.194-.215.1-.415.222-.623.335l-.619.343-1.2.74a30.411,30.411,0,0,0-4.422,3.481c-.352.313-.662.66-.991.995-.17.163-.323.339-.477.513l-.468.523c-.154.177-.293.363-.441.543s-.3.357-.441.545l-.416.562-.21.281-.192.291a24.789,24.789,0,0,0-2.629,4.933,23.353,23.353,0,0,0-1.364,5.526c-.015.12-.034.242-.046.363l-.024.364-.058.734c-.013.124-.013.246-.014.369l0,.37-.015.747.031.75.014.378.006.191.018.188.072.761.035.384c.012.128.037.254.054.382a30.75,30.75,0,0,0,1.547,6.216A54.035,54.035,0,0,0,70.945,128.26Z" transform="translate(-10.892 -15.55)" fill="#d8e5ee"/>
      <path id="Trazado_104801" data-name="Trazado 104801" d="M321.581,229.95c1.1.914,2.182,1.808,3.223,2.735s2.043,1.88,3.014,2.839q1.436,1.468,2.757,2.986,1.3,1.534,2.468,3.127c.767,1.068,1.479,2.16,2.142,3.264.315.563.648,1.111.923,1.685l.432.848.218.419.191.436a36.735,36.735,0,0,1,2.449,7.1A39.3,39.3,0,0,1,340.054,270a35.124,35.124,0,0,1-1.789,6.934l-.151.418c-.052.138-.093.281-.157.415l-.352.816-.348.817c-.128.267-.269.529-.4.794-.272.528-.512,1.071-.829,1.577l-.445.774-.222.388-.248.373a34.81,34.81,0,0,1-4.412,5.665,38.321,38.321,0,0,1-5.457,4.744c-.5.347-.979.716-1.5,1.02l-.768.486-.384.246c-.131.076-.264.146-.4.22l-.8.44-.4.222-.2.113-.2.1-1.638.8a35.45,35.45,0,0,1-6.947,2.28,39.06,39.06,0,0,1-7.458.865H303.6l-.48,0-.241,0-.24-.012c-.638-.034-1.28-.069-1.928-.1-.64-.067-1.282-.138-1.933-.2-.646-.075-1.284-.2-1.936-.289a44.7,44.7,0,0,1-7.707-2.059,49.327,49.327,0,0,1-7.52-3.545,29.937,29.937,0,0,0,6.028,6.192,35.862,35.862,0,0,0,7.62,4.534l1.038.431.522.214c.174.073.349.144.527.2.709.247,1.425.483,2.145.724.726.2,1.46.393,2.2.587s1.488.31,2.238.46a38.359,38.359,0,0,0,9.22.495,37.887,37.887,0,0,0,9.232-1.784l2.221-.809.278-.1.271-.117.54-.239,1.081-.481c.18-.082.361-.16.54-.245l.524-.271,1.049-.547c.707-.354,1.371-.778,2.048-1.185a42.316,42.316,0,0,0,7.444-5.836l.828-.852.413-.427c.138-.142.277-.283.4-.436l1.551-1.8c.483-.631.957-1.269,1.434-1.905l.178-.239.166-.248.33-.5.656-1,.323-.5.3-.52.59-1.042c.407-.686.746-1.412,1.093-2.133.17-.362.348-.72.51-1.086l.45-1.116.446-1.116c.147-.373.256-.759.383-1.139a39.837,39.837,0,0,0,1.9-9.337,41.25,41.25,0,0,0-2.791-18.4c-.3-.714-.593-1.431-.923-2.13l-1.046-2.068c-.386-.67-.786-1.331-1.178-1.991-.187-.334-.423-.644-.637-.962l-.656-.947-.328-.471-.357-.453-.72-.9c-.243-.294-.47-.6-.73-.88l-.762-.846a41.017,41.017,0,0,0-3.266-3.107,39.725,39.725,0,0,0-7.327-4.9c-1.289-.671-2.609-1.263-3.94-1.8A38.973,38.973,0,0,0,321.581,229.95Z" transform="translate(-110.215 -84.38)" fill="#d8e5ee"/>
      <g id="Grupo_83933" data-name="Grupo 83933" transform="translate(123.122 119.249)">
        <path id="Trazado_104802" data-name="Trazado 104802" d="M232.892,182.476l-8.652,3.566,2.468,1.9-11.383,14.782-5.028-6.9a1.564,1.564,0,0,0-1.265-.644h-.009a1.564,1.564,0,0,0-1.266.658l-12.93,18.186a1.564,1.564,0,1,0,2.549,1.813l11.671-16.415,4.977,6.835a1.564,1.564,0,0,0,2.5.034l12.658-16.437,2.468,1.9Z" transform="translate(-194.538 -182.476)" fill="#a4d2f3" stroke="#292739" stroke-linecap="round" stroke-linejoin="round" stroke-width="1.273"/>
        <g id="Grupo_83932" data-name="Grupo 83932" transform="translate(6.929 15.908)">
          <g id="Grupo_83927" data-name="Grupo 83927" transform="translate(10.887 10.901)">
            <path id="Trazado_104803" data-name="Trazado 104803" d="M227.309,232.219v22.8c0,.425,1.808.769,4.039.769s4.04-.344,4.04-.769v-22.8Z" transform="translate(-226.956 -231.449)" fill="#d8e5ee" stroke="#292739" stroke-linecap="round" stroke-linejoin="round" stroke-width="1.273"/>
            <g id="Grupo_83926" data-name="Grupo 83926" transform="translate(0 0.416)">
              <path id="Trazado_104804" data-name="Trazado 104804" d="M227.309,232.219v22.8c0,.272.744.512,1.867.649V232.219Z" transform="translate(-226.956 -231.866)" fill="#79a2e4"/>
              <path id="Trazado_104805" data-name="Trazado 104805" d="M228.892,255.739l-.043,0c-1.931-.235-2.178-.658-2.178-1v-22.8a.353.353,0,0,1,.353-.353h1.867a.353.353,0,0,1,0,.706h-1.515v22.37a4.276,4.276,0,0,0,1.557.378.353.353,0,0,1-.042.7Z" transform="translate(-226.672 -231.582)" fill="#292739"/>
            </g>
            <path id="Trazado_104806" data-name="Trazado 104806" d="M235.388,231.6c0-.425-1.809-.77-4.04-.77s-4.039.344-4.039.77,1.808.769,4.039.769S235.388,232.025,235.388,231.6Z" transform="translate(-226.956 -230.831)" fill="#fff" stroke="#292739" stroke-linecap="round" stroke-linejoin="round" stroke-width="1.273"/>
          </g>
          <g id="Grupo_83929" data-name="Grupo 83929" transform="translate(0 16.525)">
            <path id="Trazado_104807" data-name="Trazado 104807" d="M207.673,242.361v17.18c0,.425,1.809.769,4.039.769s4.04-.344,4.04-.769v-17.18Z" transform="translate(-207.32 -241.592)" fill="#d8e5ee" stroke="#292739" stroke-linecap="round" stroke-linejoin="round" stroke-width="1.273"/>
            <g id="Grupo_83928" data-name="Grupo 83928" transform="translate(0 0.416)">
              <path id="Trazado_104808" data-name="Trazado 104808" d="M207.673,242.361v17.18c0,.272.745.512,1.867.649V242.361Z" transform="translate(-207.32 -242.008)" fill="#79a2e4"/>
              <path id="Trazado_104809" data-name="Trazado 104809" d="M209.257,260.258l-.043,0c-1.93-.235-2.178-.658-2.178-1v-17.18a.353.353,0,0,1,.353-.353h1.867a.353.353,0,1,1,0,.706h-1.514v16.747a4.276,4.276,0,0,0,1.557.378.353.353,0,0,1-.042.7Z" transform="translate(-207.036 -241.724)" fill="#292739"/>
            </g>
            <ellipse id="Elipse_4216" data-name="Elipse 4216" cx="4.039" cy="0.769" rx="4.039" ry="0.769" transform="translate(0.353)" fill="#fff" stroke="#292739" stroke-linecap="round" stroke-linejoin="round" stroke-width="1.273"/>
          </g>
          <g id="Grupo_83931" data-name="Grupo 83931" transform="translate(21.946)">
            <path id="Trazado_104810" data-name="Trazado 104810" d="M247.256,212.556v33.919c0,.425,1.809.77,4.04.77s4.039-.345,4.039-.77V212.556Z" transform="translate(-246.903 -211.787)" fill="#d8e5ee" stroke="#292739" stroke-linecap="round" stroke-linejoin="round" stroke-width="1.273"/>
            <g id="Grupo_83930" data-name="Grupo 83930" transform="translate(0 0.416)">
              <path id="Trazado_104811" data-name="Trazado 104811" d="M247.256,212.556v33.919c0,.273.745.512,1.867.649V212.556Z" transform="translate(-246.903 -212.203)" fill="#79a2e4"/>
              <path id="Trazado_104812" data-name="Trazado 104812" d="M248.84,247.193l-.043,0c-1.93-.234-2.178-.657-2.178-1V212.272a.353.353,0,0,1,.353-.353h1.867a.353.353,0,1,1,0,.706h-1.514v33.486a4.294,4.294,0,0,0,1.557.378.353.353,0,0,1-.042.7Z" transform="translate(-246.619 -211.919)" fill="#292739"/>
            </g>
            <path id="Trazado_104813" data-name="Trazado 104813" d="M255.335,211.938c0-.425-1.809-.769-4.039-.769s-4.04.344-4.04.769,1.809.769,4.04.769S255.335,212.363,255.335,211.938Z" transform="translate(-246.903 -211.169)" fill="#fff" stroke="#292739" stroke-linecap="round" stroke-linejoin="round" stroke-width="1.273"/>
          </g>
        </g>
      </g>
      <g id="Grupo_83937" data-name="Grupo 83937" transform="translate(51.687 189.706)">
        <g id="Grupo_83936" data-name="Grupo 83936" transform="translate(0.301 0.735)">
          <g id="Grupo_83935" data-name="Grupo 83935">
            <g id="Grupo_83934" data-name="Grupo 83934" clip-path="url(#clip-path)">
              <path id="Trazado_104814" data-name="Trazado 104814" d="M172.732,361.035l-.8.045a4.072,4.072,0,0,0-1.575-2.193l17.874-5.573-.456-7.663-.882.11-16.313-10.775c-2.458-1.624-5.038-3.918-8.262-3.237-1.643.347-1.129.9-2.088,2.039a7.38,7.38,0,0,1-3.971,1.909,21.008,21.008,0,0,1-11.039-.7c2.8-1.074,5.606-.673,8.5-.522,1.741.091,3.54-.308,3.476-2.291-.074-2.32-1.07-4.893-1.567-7.17l-.8.038c-.25-1.144-2.4-2.062-3.242-2.618l-7.176-4.74-10.308-6.81L119.869,314.9l-8.6,2.431a19.055,19.055,0,0,0-2.27.641c-.861.367-1.33,1.537-2.267,1.491l1.331,6.086c.837,3.828,4.439,3.035,7.622,4.234-4.73,1.488-11.629.9-15.648-2.2-.281-1.285-.556-2.572-.845-3.856l-.8.046c-.352-1.611-4.546-1.422-5.613-1.219-.7.133-1.4.4-2.081.588l-8.859,2.5-14.65,4.138-.95-.206.483,7.789,13.654,8.214c-2.254.109-8.013,1.011-7.255,4.476l-.852-.126c.69,3.158.772,7.844,3.51,9.952,4.226,3.253,14.167,4.679,18.484.915,1.29-1.125.9-2.2,2.8-2.383a7.222,7.222,0,0,1,3.837.724c.841.426,17.163,11.877,19.709,13.522,4.835-1.366,21.595-5.757,24.53-6.586,2.432-.687,1.831,6.111,4.3,7.4.731,3.345,5.445-2.49,8.763-1.347a14.788,14.788,0,0,0,11.5-.365c2.728-1.168,2.944-2.807,3.1-4.852A19.972,19.972,0,0,0,172.732,361.035Z" transform="translate(-66.236 -310.882)" fill="#79a2e4"/>
              <path id="Trazado_104815" data-name="Trazado 104815" d="M164.527,402.4l-.689-3.167-.575-11.26,30.633-6.824.685,24.923,6.573,1.369.3-28.925,32.31-8,3.278,15.941-14.986,14.234Z" transform="translate(-109.468 -337.452)" fill="#2b47a0"/>
              <path id="Trazado_104816" data-name="Trazado 104816" d="M120.66,311.557l35.312,15.079,12.983-1.065.959,15.064L111.9,335.522Z" transform="translate(-86.581 -311.183)" fill="#2b47a0"/>
              <path id="Trazado_104817" data-name="Trazado 104817" d="M110.826,378.986l4.542-.411.959,15.064-4.131,5.067Z" transform="translate(-86.104 -341.044)" fill="#2b47a0"/>
              <path id="Trazado_104818" data-name="Trazado 104818" d="M223.949,327.99l15.364-1.948,12.983-1.065.959,15.064-27.936,9.312Z" transform="translate(-136.508 -317.162)" fill="#2b47a0"/>
            </g>
            <path id="Trazado_104820" data-name="Trazado 104820" d="M172.732,361.035l-.8.045a4.072,4.072,0,0,0-1.575-2.193l17.874-5.573-.456-7.663-.882.11-16.313-10.775c-2.458-1.624-5.038-3.918-8.262-3.237-1.643.347-1.129.9-2.088,2.039a7.38,7.38,0,0,1-3.971,1.909,21.008,21.008,0,0,1-11.039-.7c2.8-1.074,5.606-.673,8.5-.522,1.741.091,2.336-.28,2.336-2.264,0-3.424.071-4.92-.427-7.2l-.8.038c-.25-1.144-2.4-2.062-3.242-2.618l-7.176-4.74-10.308-6.81L119.869,314.9l-8.6,2.431a19.055,19.055,0,0,0-2.27.641c-.861.367-1.33,1.537-2.267,1.491l1.331,6.086c.837,3.828,4.439,3.035,7.622,4.234-4.73,1.488-11.629.9-15.648-2.2-.281-1.285-.556-2.572-.845-3.856l-.8.046c-.352-1.611-4.546-1.422-5.613-1.219-.7.133-1.4.4-2.081.588l-8.859,2.5-14.65,4.138-.95-.206.483,7.789,13.654,8.214c-2.254.109-8.013,1.011-7.255,4.476l-.852-.126c.69,3.158.772,7.844,3.51,9.952,4.226,3.253,14.167,4.679,18.484.915,1.29-1.125.9-2.2,2.8-2.383a7.222,7.222,0,0,1,3.837.724c.841.426,17.163,11.877,19.709,13.522,4.835-1.366,21.595-5.757,24.53-6.586,2.432-.687,5.232-1.932,5.666-.543.685,2.191,4.075,5.453,7.393,6.6a14.788,14.788,0,0,0,11.5-.365c2.728-1.168,2.944-2.807,3.1-4.852A19.972,19.972,0,0,0,172.732,361.035Z" transform="translate(-66.236 -310.882)" fill="none" stroke="#292739" stroke-linecap="round" stroke-linejoin="round" stroke-width="1.273"/>
          </g>
        </g>
        <path id="Trazado_104821" data-name="Trazado 104821" d="M170.237,357.42h0a14.99,14.99,0,0,0-4.319-1.851c-1.139-.313-3.814-.2-4.6-1.167-1.018-1.256.329-1.566,1.274-1.9,2.766-.989,5.691-1.661,8.51-2.484l16.838-4.915-12.622-8.335c-3.071-2.028-11.892-9.686-15.525-5.285-.772.936-.7,1.524-1.965,2.2a11.29,11.29,0,0,1-4.093,1.068,19.6,19.6,0,0,1-9.115-1.217c-1.647-.659-4.581-2.144-3.974-4.363.666-2.435,4.623-2.927,6.678-3.046,2.091-.121,6.024,1.235,7.631-.552,1.01-1.124.24-1.989-.7-2.71-1.891-1.456-4.081-2.636-6.084-3.931l-14.5-9.368-15.2,4.3-8.814,2.491a11.651,11.651,0,0,0-1.735.491c-3.492,1.64-.008,3.486,2.065,3.862,2.444.442,6.126,1.179,7.618,3.465,1.576,2.415-.929,3.88-3.029,4.5a17.879,17.879,0,0,1-8.213.171c-2.234-.425-6.139-1.387-7.2-3.724-.586-1.292.211-1.974-.953-2.962-.955-.81-2.792-.966-3.977-1a9.823,9.823,0,0,0-3,.411c-2.605.693-5.184,1.512-7.773,2.268l-17.772,5.186,13,8.587c2.31,1.526,4.756,2.945,6.973,4.606.325.243,1.061.552,1.153,1.011.449,2.241-6.323,1.047-7.6,1.159-2.223.2-5.646.683-6.883,2.855-1.323,2.321.915,4.282,2.8,5.316a19.752,19.752,0,0,0,15.154,1.285,6.015,6.015,0,0,0,2.791-1.785c.382-.52.444-1.215.918-1.561,1.228-.894,3.953,0,5.149.626,2.046,1.07,3.965,2.561,5.9,3.813l14.908,9.631,23.65-6.682a16.759,16.759,0,0,1,3.143-.755,6.022,6.022,0,0,1,3.432.559c1.139.848.4.354.632,1.643.358,2.016,2.215,3.266,3.955,4.078a20.815,20.815,0,0,0,13.084,1.321C171.913,363.731,174.569,360.281,170.237,357.42Z" transform="translate(-65.694 -309.557)" fill="#eaeefa" stroke="#292739" stroke-linecap="round" stroke-linejoin="round" stroke-width="1.273"/>
      </g>
      <g id="Grupo_83940" data-name="Grupo 83940" transform="translate(129.959 164.292)" style="isolation: isolate">
        <g id="Grupo_83939" data-name="Grupo 83939" transform="translate(0.06 0.297)">
          <g id="Grupo_83938" data-name="Grupo 83938" clip-path="url(#clip-path-2)">
            <path id="Trazado_104822" data-name="Trazado 104822" d="M314.522,295.137l-.4.116-10.995-7.263c2.863-.039,6.613-.674,6.24-4.428-.206-2.069.317-4.19-.128-6.224a2.05,2.05,0,0,1,.039.648c-.281-3.157-5.52-4.387-7.961-4.779-2.962-.476-7.541-.6-9.975,1.545-.774.682-.81,1.655-1.741,2.042-1.161.482-3.179-.04-4.248-.546a27.177,27.177,0,0,1-2.9-1.875q-7.773-5.022-15.5-10.118l-.116.033-.051-.033-12.156,3.435-7.713,2.18c-.967.273-3.825.625-4.087,1.9v0a.89.89,0,0,0,.169.769c.36,1.649.64,3.338,1.085,4.964.818,2.99,4.317,2.36,6.813,3.349-4.01,1.646-11.211,1.138-14.346-2.188l-.669-3.059a.565.565,0,0,1-.038.279c-.738-1.537-4.288-1.521-5.641-1.271-1.1.2-2.174.609-3.243.92q-2.359.689-4.725,1.354l-14.492,4.094h0l-.766.17.164,6.387,12.568,7.488c-2.065.052-9.113,1.029-7.258,4.746a39.327,39.327,0,0,0,1.206,5.516c1.119,2.922,4.7,3.976,7.538,4.471,2.98.52,8.593.88,10.763-1.838,1.109-1.388,1.191-1.965,3.367-1.734a6.71,6.71,0,0,1,2.44.765c6.372,3.3,11.078,7.953,17.111,11.85,5.739-1.622,20.981-5.374,22.758-5.975,2.769-.936,1.254-2.307,1.254-8.531a1.675,1.675,0,0,1,0,.387c-.434-2.042-5.069-1.926-6.639-2.548,4.036-1.658,11.407-1.181,14.457,2.305.316,1.444.258,2.69,1.678,3.409a7.872,7.872,0,0,0,5.2.363c2.422-.561,16.08-5.053,21.137-6.528Zm-82.645-14.025a6.658,6.658,0,0,1,4.219.585l.384,1.755h0a1.241,1.241,0,0,1-.027-.15c1.325,6.07,20.055,6.785,18.914.759v0c-.6-2.737-.656-6.928-3.088-8.72l16.105-4.55,14.738,9.735c2.186,1.444,5.944,4.41,8.692,2.644.719-.462.712-1.046,1.248-1.707a6.2,6.2,0,0,1,3.319-1.626,17.158,17.158,0,0,1,9.306.63c-2.884.971-5.519-.059-8.341.36-.761.113-2.294.6-2.068,1.663a1,1,0,0,0,.167.766l1.265,5.784c0-.007,0-.013,0-.02.579,1.692,3.829,3.01,5.189,3.909l5.89,3.891-13.925,3.934c-2.272.642-4.56,1.356-6.806.145l-.384-1.755a4.306,4.306,0,0,0-2.045-2.443v0a17.929,17.929,0,0,0-11.355-2.136c-2.2.291-6.91,1.646-5.278,4.926l1.221,5.584v0a4.136,4.136,0,0,0,1.658,2.178l-16.36,4.622-8.475-5.6c-3.047-2.013-6.069-4.457-9.309-6.15-1.136-.594-4.751-1.614-6.12-.4-.076.068-.106.16-.171.226-.208.215-.327.89-.561,1.191a4.921,4.921,0,0,1-2.364,1.407,12.236,12.236,0,0,1-3.174.59,18.011,18.011,0,0,1-7.121-.936,12.989,12.989,0,0,1,4.255-.636c1.452-.011,3.157.558,4.57.187.8-.208,1.678-.714,1.569-1.609,0,.008,0,.016.007.024-.413-1.887-.453-6.048-1.989-7.37h0c-3.1-2.678-7.1-4.692-10.519-6.954Z" transform="translate(-206.979 -264.254)" fill="#79a2e4"/>
            <path id="Trazado_104823" data-name="Trazado 104823" d="M284.6,325.3l-11.486-11.576v-10.35l-5.395-12.56-16.16,1.118.548,13.876-3.482.4-.717-14.455,16.194-9.359-4.964-11.559-2.739-7.974,27.554-10,16.191,3.966s10.019,36.056,2.72,34.806-14.284,3-9.628,5.049,10.956,7.806,10.956,7.806l.753-5.123-.036-5.289,9.542-20.182,22.522-3.329-2.244,30.773s-29.442,18.624-29.58,19.035S284.6,325.3,284.6,325.3Z" transform="translate(-225.215 -259.175)" fill="#2b47a0"/>
          </g>
          <path id="Trazado_104825" data-name="Trazado 104825" d="M314.522,295.137l-.4.116-10.995-7.263c2.863-.039,6.613-.674,6.24-4.428-.206-2.069.317-4.19-.128-6.224a2.05,2.05,0,0,1,.039.648c-.281-3.157-5.52-4.387-7.961-4.779-2.962-.476-7.541-.6-9.975,1.545-.774.682-.81,1.655-1.741,2.042-1.161.482-3.179-.04-4.248-.546a27.177,27.177,0,0,1-2.9-1.875q-7.773-5.022-15.5-10.118l-.116.033-.051-.033-12.156,3.435-7.713,2.18c-.967.273-3.825.625-4.087,1.9v0a.89.89,0,0,0,.169.769c.36,1.649.64,3.338,1.085,4.964.818,2.99,4.317,2.36,6.813,3.349-4.01,1.646-11.211,1.138-14.346-2.188l-.669-3.059a.565.565,0,0,1-.038.279c-.738-1.537-4.288-1.521-5.641-1.271-1.1.2-2.174.609-3.243.92q-2.359.689-4.725,1.354l-14.492,4.094h0l-.766.17.164,6.387,12.568,7.488c-2.065.052-9.113,1.029-7.258,4.746a39.327,39.327,0,0,0,1.206,5.516c1.119,2.922,4.7,3.976,7.538,4.471,2.98.52,8.593.88,10.763-1.838,1.109-1.388,1.191-1.965,3.367-1.734a6.71,6.71,0,0,1,2.44.765c6.372,3.3,11.078,7.953,17.111,11.85,5.739-1.622,20.981-5.374,22.758-5.975,2.769-.936,1.254-2.307,1.254-8.531a1.675,1.675,0,0,1,0,.387c-.434-2.042-5.069-1.926-6.639-2.548,4.036-1.658,11.407-1.181,14.457,2.305.316,1.444.258,2.69,1.678,3.409a7.872,7.872,0,0,0,5.2.363c2.422-.561,16.08-5.053,21.137-6.528Zm-82.645-14.025a6.658,6.658,0,0,1,4.219.585l.384,1.755h0a1.241,1.241,0,0,1-.027-.15c1.325,6.07,20.055,6.785,18.914.759v0c-.6-2.737-.656-6.928-3.088-8.72l16.105-4.55,14.738,9.735c2.186,1.444,5.944,4.41,8.692,2.644.719-.462.712-1.046,1.248-1.707a6.2,6.2,0,0,1,3.319-1.626,17.158,17.158,0,0,1,9.306.63c-2.884.971-5.519-.059-8.341.36-.761.113-2.294.6-2.068,1.663a1,1,0,0,0,.167.766l1.265,5.784c0-.007,0-.013,0-.02.579,1.692,3.829,3.01,5.189,3.909l5.89,3.891-13.925,3.934c-2.272.642-4.56,1.356-6.806.145l-.384-1.755a4.306,4.306,0,0,0-2.045-2.443v0a17.929,17.929,0,0,0-11.355-2.136c-2.2.291-6.91,1.646-5.278,4.926l1.221,5.584v0a4.136,4.136,0,0,0,1.658,2.178l-16.36,4.622-8.475-5.6c-3.047-2.013-6.069-4.457-9.309-6.15-1.136-.594-4.751-1.614-6.12-.4-.076.068-.106.16-.171.226-.208.215-.327.89-.561,1.191a4.921,4.921,0,0,1-2.364,1.407,12.236,12.236,0,0,1-3.174.59,18.011,18.011,0,0,1-7.121-.936,12.989,12.989,0,0,1,4.255-.636c1.452-.011,3.157.558,4.57.187.8-.208,1.678-.714,1.569-1.609,0,.008,0,.016.007.024-.413-1.887-.453-6.048-1.989-7.37h0c-3.1-2.678-7.1-4.692-10.519-6.954Z" transform="translate(-206.979 -264.254)" fill="none" stroke="#292739" stroke-linecap="round" stroke-linejoin="round" stroke-width="1.273"/>
        </g>
        <path id="Trazado_104826" data-name="Trazado 104826" d="M296.616,283.078c-2.311-1.986,3.114-1.7,3.623-1.669a13.767,13.767,0,0,0,7.175-1.112c4.215-2.262.629-5.537-2.363-6.663-3.574-1.345-8.33-1.781-11.933-.348a5.484,5.484,0,0,0-2.356,1.623c-.4.5-.222.939-.778,1.287-1.135.71-3.48.03-4.548-.5-3.372-1.677-6.513-4.208-9.675-6.251l-8.862-5.725-13.7,3.871-7.752,2.191a8.768,8.768,0,0,0-1.358.384c-3.033,1.449.282,2.9,1.924,3.2,2.185.405,5.377,1.066,6.732,3.075,1.568,2.323-1.005,3.74-2.971,4.276-3.564.972-11.254.692-13.422-3.018-.482-.826-.016-1.637-.346-2.311-.38-.776-1.871-1.064-2.579-1.215a8.549,8.549,0,0,0-3.857.1c-2.218.531-4.407,1.286-6.6,1.925l-16.109,4.7,11.521,7.611c1.951,1.288,4.033,2.483,5.9,3.9.326.247,1.076.559,1.162,1.026.418,2.255-5.5,1.092-6.557,1.166-1.948.139-5.07.493-6.23,2.367-1.208,1.952.551,3.63,2.186,4.581a17.151,17.151,0,0,0,13.7,1.158c1.927-.774,2.345-2.866,4.222-3.072a6.342,6.342,0,0,1,3.746.848c1.8.977,3.5,2.26,5.218,3.371l13.032,8.42,13.565-3.833,7.9-2.231a10.644,10.644,0,0,0,1.558-.44c2.321-1.078.851-2.65-.959-3.093-2.432-.595-5.165-.738-7.091-2.6-2.143-2.066-.524-3.871,1.759-4.678,3.783-1.339,10.745-.92,13.619,2.277,1.561,1.737.039,3.048,2.659,3.888a8.314,8.314,0,0,0,4.428.128c2.141-.5,4.255-1.242,6.364-1.857l16.234-4.738Z" transform="translate(-206.87 -263.718)" fill="#eaeefa" stroke="#292739" stroke-linecap="round" stroke-linejoin="round" stroke-width="1.273"/>
      </g>
      <g id="Grupo_83944" data-name="Grupo 83944" transform="translate(69.816 62.037)">
        <g id="Grupo_83941" data-name="Grupo 83941" transform="translate(0)">
          <path id="Trazado_104827" data-name="Trazado 104827" d="M125.725,84.041a4.268,4.268,0,0,0-2.085,5.658.7.7,0,0,0,.924.34l6.478-2.99a.7.7,0,0,0,.34-.924A4.268,4.268,0,0,0,125.725,84.041Z" transform="translate(-109.468 -81.23)" fill="#2b47a0" stroke="#292739" stroke-linecap="round" stroke-linejoin="round" stroke-width="1.273"/>
          <path id="Trazado_104828" data-name="Trazado 104828" d="M113.579,93l-.856-1.514,19.2-8.861a2.382,2.382,0,0,1,3.222,1.187c1.015,2.2-.424,4.875-.424,4.875Z" transform="translate(-104.778 -80.672)" fill="#eaeefa" stroke="#292739" stroke-linecap="round" stroke-linejoin="round" stroke-width="1.273"/>
          <rect id="Rectángulo_33870" data-name="Rectángulo 33870" width="39.479" height="42.454" transform="translate(0 16.546) rotate(-24.778)" fill="#eaeefa" stroke="#292739" stroke-linecap="round" stroke-linejoin="round" stroke-width="1.273"/>
          <path id="Trazado_104829" data-name="Trazado 104829" d="M133.61,87.175l-19.2,8.861s-3.586-1.572-2.012-4.359l19.2-8.861C131.315,85.008,133.61,87.175,133.61,87.175Z" transform="translate(-104.457 -80.859)" fill="#79a2e4" stroke="#292739" stroke-linecap="round" stroke-linejoin="round" stroke-width="1.289"/>
        </g>
        <path id="Trazado_104830" data-name="Trazado 104830" d="M116.461,116.905a1.924,1.924,0,1,1-2.553-.94A1.924,1.924,0,0,1,116.461,116.905Z" transform="translate(-104.808 -95.55)" fill="#79a2e4" stroke="#292739" stroke-linecap="round" stroke-linejoin="round" stroke-width="1.273"/>
        <path id="Trazado_104831" data-name="Trazado 104831" d="M122.407,129.785a1.924,1.924,0,1,1-2.554-.941A1.924,1.924,0,0,1,122.407,129.785Z" transform="translate(-107.457 -101.289)" fill="#fff" stroke="#292739" stroke-linecap="round" stroke-linejoin="round" stroke-width="1.273"/>
        <path id="Trazado_104832" data-name="Trazado 104832" d="M128.352,142.664a1.924,1.924,0,1,1-2.554-.94A1.925,1.925,0,0,1,128.352,142.664Z" transform="translate(-110.106 -107.028)" fill="#fff" stroke="#292739" stroke-linecap="round" stroke-linejoin="round" stroke-width="1.273"/>
        <g id="Grupo_83943" data-name="Grupo 83943" transform="translate(16.176 10.524)">
          <rect id="Rectángulo_33871" data-name="Rectángulo 33871" width="18.193" height="1.923" transform="translate(0 7.625) rotate(-24.778)" fill="#79a2e4"/>
          <rect id="Rectángulo_33872" data-name="Rectángulo 33872" width="18.121" height="1.923" transform="translate(1.458 10.784) rotate(-24.778)" fill="#79a2e4"/>
          <rect id="Rectángulo_33873" data-name="Rectángulo 33873" width="7.882" height="1.923" transform="translate(12.212 9.651) rotate(-24.778)" fill="#79a2e4"/>
          <g id="Grupo_83942" data-name="Grupo 83942" transform="translate(4.754 10.3)">
            <rect id="Rectángulo_33874" data-name="Rectángulo 33874" width="18.193" height="1.923" transform="translate(0 7.625) rotate(-24.778)" fill="#79a2e4"/>
            <rect id="Rectángulo_33875" data-name="Rectángulo 33875" width="14.747" height="1.923" transform="matrix(0.908, -0.419, 0.419, 0.908, 4.587, 9.339)" fill="#79a2e4"/>
            <rect id="Rectángulo_33876" data-name="Rectángulo 33876" width="18.193" height="1.923" transform="translate(2.916 13.942) rotate(-24.778)" fill="#79a2e4"/>
          </g>
        </g>
      </g>
      <g id="Grupo_83946" data-name="Grupo 83946" transform="translate(192.53 107.924)">
        <path id="Trazado_104833" data-name="Trazado 104833" d="M351.435,162.051,378.3,185.085a232.835,232.835,0,0,1-19.527,19.126c-10.949,9.461-14.042,12.707-14.042,12.707L319.725,194.15s6.186-2,16.571-13.311S351.435,162.051,351.435,162.051Z" transform="translate(-319.725 -162.051)" fill="#eaeefa" stroke="#292739" stroke-linecap="round" stroke-linejoin="round" stroke-width="1.273"/>
        <g id="Grupo_83945" data-name="Grupo 83945" transform="translate(10.714 8.477)">
          <rect id="Rectángulo_33877" data-name="Rectángulo 33877" width="1.452" height="23.888" transform="translate(20.756 1.118) rotate(-50.316)" fill="#a4d2f3"/>
          <rect id="Rectángulo_33878" data-name="Rectángulo 33878" width="1.452" height="23.888" transform="matrix(0.639, -0.77, 0.77, 0.639, 18.85, 4.154)" fill="#a4d2f3"/>
          <rect id="Rectángulo_33879" data-name="Rectángulo 33879" width="1.452" height="21.031" transform="translate(14.979 10.733) rotate(-50.827)" fill="#a4d2f3"/>
          <rect id="Rectángulo_33880" data-name="Rectángulo 33880" width="1.452" height="23.423" transform="matrix(0.65, -0.76, 0.76, 0.65, 10.98, 11.79)" fill="#a4d2f3"/>
          <rect id="Rectángulo_33881" data-name="Rectángulo 33881" width="1.452" height="22.933" transform="translate(8.709 13.928) rotate(-48.586)" fill="#a4d2f3"/>
          <rect id="Rectángulo_33882" data-name="Rectángulo 33882" width="1.452" height="23.174" transform="translate(6.108 15.818) rotate(-48.286)" fill="#a4d2f3"/>
          <rect id="Rectángulo_33883" data-name="Rectángulo 33883" width="1.452" height="16.584" transform="translate(5.778 21.91) rotate(-48.286)" fill="#a4d2f3"/>
          <rect id="Rectángulo_33884" data-name="Rectángulo 33884" width="1.452" height="22.737" transform="matrix(0.681, -0.732, 0.732, 0.681, 0, 21.355)" fill="#a4d2f3"/>
          <rect id="Rectángulo_33885" data-name="Rectángulo 33885" width="1.452" height="7.689" transform="matrix(0.637, -0.771, 0.771, 0.637, 22.316, 11.899)" fill="#a4d2f3"/>
        </g>
      </g>
      <g id="Grupo_83947" data-name="Grupo 83947" transform="translate(170.475 108.914)">
        <rect id="Rectángulo_33886" data-name="Rectángulo 33886" width="4.118" height="4.118" transform="translate(14.562 4.044) rotate(169.137)" fill="#fff" stroke="#292739" stroke-linecap="round" stroke-linejoin="round" stroke-width="1.273"/>
        <rect id="Rectángulo_33887" data-name="Rectángulo 33887" width="2.735" height="2.735" transform="matrix(-0.982, 0.188, -0.188, -0.982, 7.008, 8.833)" fill="#fff" stroke="#292739" stroke-linecap="round" stroke-linejoin="round" stroke-width="1.273"/>
        <rect id="Rectángulo_33888" data-name="Rectángulo 33888" width="1.367" height="1.367" transform="translate(1.601 13.548) rotate(169.139)" fill="#fff" stroke="#292739" stroke-linecap="round" stroke-linejoin="round" stroke-width="1.273"/>
      </g>
      <g id="Grupo_83950" data-name="Grupo 83950" transform="translate(118.355 40.573)">
        <g id="Grupo_83948" data-name="Grupo 83948" transform="translate(0 7.625)">
          <circle id="Elipse_4217" data-name="Elipse 4217" cx="21.971" cy="21.971" r="21.971" transform="matrix(0.967, -0.256, 0.256, 0.967, 0, 11.23)" fill="#79a2e4"/>
          <circle id="Elipse_4218" data-name="Elipse 4218" cx="18.484" cy="18.484" r="18.484" transform="translate(4.263 13.71) rotate(-14.807)" fill="#eaeefa"/>
          <circle id="Elipse_4219" data-name="Elipse 4219" cx="13.208" cy="13.208" r="13.208" transform="translate(10.712 17.463) rotate(-14.807)" fill="#fff" stroke="#292739" stroke-linecap="round" stroke-linejoin="round" stroke-width="1.273"/>
          <circle id="Elipse_4220" data-name="Elipse 4220" cx="7.616" cy="7.616" r="7.616" transform="translate(16.098 26.353) rotate(-42.321)" fill="#79a2e4" stroke="#292739" stroke-linecap="round" stroke-linejoin="round" stroke-width="1.289"/>
          <path id="Trazado_104834" data-name="Trazado 104834" d="M232.251,103.285a2.594,2.594,0,0,1-1.321-.36A2.642,2.642,0,0,1,232.265,98a2.6,2.6,0,0,1,1.321.359,2.642,2.642,0,0,1-1.335,4.925Z" transform="translate(-205.401 -73.786)" fill="#292739" stroke="#292739" stroke-linecap="round" stroke-linejoin="round" stroke-width="1.289"/>
        </g>
        <g id="Grupo_83949" data-name="Grupo 83949" transform="translate(26.759)">
          <path id="Trazado_104835" data-name="Trazado 104835" d="M278.119,40.573l-2.258,2.262.088,9.14L279,48.915Z" transform="translate(-252.764 -40.573)" fill="#79a2e4" stroke="#292739" stroke-linecap="round" stroke-linejoin="round" stroke-width="1.273"/>
          <path id="Trazado_104836" data-name="Trazado 104836" d="M271.414,47.29l-2.258,2.262.088,9.14,3.054-3.06Z" transform="translate(-249.777 -43.566)" fill="#79a2e4" stroke="#292739" stroke-linecap="round" stroke-linejoin="round" stroke-width="1.273"/>
          <path id="Trazado_104837" data-name="Trazado 104837" d="M287.418,56.489l-2.258,2.262-9.14-.072,3.054-3.06Z" transform="translate(-252.835 -47.277)" fill="#eaeefa" stroke="#292739" stroke-linecap="round" stroke-linejoin="round" stroke-width="1.273"/>
          <path id="Trazado_104838" data-name="Trazado 104838" d="M280.713,63.206l-2.258,2.262-9.14-.072,3.054-3.06Z" transform="translate(-249.848 -50.27)" fill="#eaeefa" stroke="#292739" stroke-linecap="round" stroke-linejoin="round" stroke-width="1.273"/>
          <path id="Trazado_104839" data-name="Trazado 104839" d="M234.2,78.306l10.445-4.691-3.634-.638,23.594-23.636a1.056,1.056,0,0,0-1.494-1.491L239.519,71.485l-.615-3.6Z" transform="translate(-234.203 -43.677)" fill="#eaeefa" stroke="#292739" stroke-linecap="round" stroke-linejoin="round" stroke-width="1.273"/>
        </g>
      </g>
      <g id="Grupo_83951" data-name="Grupo 83951" transform="translate(176.296 219.775)">
        <path id="Trazado_104840" data-name="Trazado 104840" d="M310.589,384.776q-1.05,0-2.106-.059a35.487,35.487,0,0,1-17.881-5.9.353.353,0,1,1,.395-.585,35.716,35.716,0,0,0,35.588,1.995.353.353,0,0,1,.327.626A35.231,35.231,0,0,1,310.589,384.776Z" transform="translate(-290.446 -370.199)" fill="#292739"/>
        <path id="Trazado_104841" data-name="Trazado 104841" d="M311.618,375.036a28.4,28.4,0,0,1-11.54-2.389.353.353,0,1,1,.288-.645,29.181,29.181,0,0,0,31.712-6,.353.353,0,1,1,.5.5,29.212,29.212,0,0,1-15.319,8.005A30.42,30.42,0,0,1,311.618,375.036Z" transform="translate(-294.644 -364.731)" fill="#292739"/>
        <path id="Trazado_104842" data-name="Trazado 104842" d="M357.358,367.981a2.116,2.116,0,1,0-2.5-1.649A2.116,2.116,0,0,0,357.358,367.981Z" transform="translate(-319.127 -363.791)" fill="#eaeefa" stroke="#292739" stroke-linecap="round" stroke-linejoin="round" stroke-width="1.273"/>
      </g>
      <g id="Grupo_83966" data-name="Grupo 83966" transform="translate(34.257 87.377)">
        <g id="Grupo_83958" data-name="Grupo 83958" transform="translate(8.612)">
          <g id="Grupo_83953" data-name="Grupo 83953">
            <path id="Trazado_104843" data-name="Trazado 104843" d="M53.017,164.6l-3.227,5,2.353,11.961,9.03-14.951Z" transform="translate(-49.79 -142.639)" fill="#79a2e4" stroke="#292739" stroke-linecap="round" stroke-linejoin="round" stroke-width="1.289"/>
            <g id="Grupo_83952" data-name="Grupo 83952">
              <path id="Trazado_104844" data-name="Trazado 104844" d="M85.031,171.629l16.879-26.165L72.85,126.718c-1.95-1.258-5.079-2.639-6.181-.93L49.79,151.953c1.053-1.632,4.231-.328,6.181.93Z" transform="translate(-49.79 -124.991)" fill="#a4d2f3" stroke="#292739" stroke-linecap="round" stroke-linejoin="round" stroke-width="1.273"/>
              <path id="Trazado_104845" data-name="Trazado 104845" d="M102.349,147.066,74.51,129.108c-2.309-1.49-3.968-1.682-4.174-1.363L55.283,151.08l.046.011a13.578,13.578,0,0,1,3.877,1.74L87.045,170.79Z" transform="translate(-52.237 -126.16)" fill="#fff"/>
            </g>
          </g>
          <g id="Grupo_83954" data-name="Grupo 83954" transform="translate(6.521 22.305)">
            <path id="Trazado_104846" data-name="Trazado 104846" d="M62.961,165.367a.914.914,0,1,1-1.263.273A.914.914,0,0,1,62.961,165.367Z" transform="translate(-61.552 -165.221)" fill="#2b47a0"/>
            <path id="Trazado_104847" data-name="Trazado 104847" d="M67.714,168.432a.914.914,0,1,1-1.263.272A.914.914,0,0,1,67.714,168.432Z" transform="translate(-63.67 -166.587)" fill="#2b47a0"/>
          </g>
          <g id="Grupo_83955" data-name="Grupo 83955" transform="translate(13.722 8.011)">
            <rect id="Rectángulo_33889" data-name="Rectángulo 33889" width="24.218" height="1.267" transform="translate(14.193 0.687) rotate(122.825)" fill="#a4d2f3"/>
            <rect id="Rectángulo_33890" data-name="Rectángulo 33890" width="24.218" height="1.267" transform="translate(16.746 2.334) rotate(122.825)" fill="#a4d2f3"/>
            <rect id="Rectángulo_33891" data-name="Rectángulo 33891" width="11.331" height="1.267" transform="translate(12.313 14.81) rotate(122.825)" fill="#a4d2f3"/>
            <rect id="Rectángulo_33892" data-name="Rectángulo 33892" width="24.218" height="1.267" transform="matrix(-0.542, 0.84, -0.84, -0.542, 21.852, 5.628)" fill="#a4d2f3"/>
          </g>
          <g id="Grupo_83956" data-name="Grupo 83956" transform="translate(24.268 14.814)">
            <rect id="Rectángulo_33893" data-name="Rectángulo 33893" width="24.218" height="1.267" transform="matrix(-0.542, 0.84, -0.84, -0.542, 14.193, 0.687)" fill="#a4d2f3"/>
            <rect id="Rectángulo_33894" data-name="Rectángulo 33894" width="24.218" height="1.267" transform="matrix(-0.542, 0.84, -0.84, -0.542, 16.746, 2.334)" fill="#a4d2f3"/>
            <rect id="Rectángulo_33895" data-name="Rectángulo 33895" width="11.331" height="1.267" transform="translate(12.313 14.81) rotate(122.825)" fill="#a4d2f3"/>
            <rect id="Rectángulo_33896" data-name="Rectángulo 33896" width="24.218" height="1.267" transform="translate(21.852 5.628) rotate(122.825)" fill="#a4d2f3"/>
          </g>
          <g id="Grupo_83957" data-name="Grupo 83957" transform="translate(8.121 3.246)">
            <rect id="Rectángulo_33897" data-name="Rectángulo 33897" width="20.924" height="1.267" transform="matrix(-0.542, 0.84, -0.84, -0.542, 12.407, 0.687)" fill="#a4d2f3"/>
            <rect id="Rectángulo_33898" data-name="Rectángulo 33898" width="20.924" height="1.267" transform="matrix(-0.542, 0.84, -0.84, -0.542, 14.96, 2.334)" fill="#a4d2f3"/>
          </g>
        </g>
        <g id="Grupo_83962" data-name="Grupo 83962" transform="translate(19.522 63.848)">
          <g id="Grupo_83959" data-name="Grupo 83959">
            <path id="Trazado_104848" data-name="Trazado 104848" d="M108.854,267.237l.147-.517c.048-.172.083-.349.124-.523s.084-.348.118-.524l.094-.529a31.319,31.319,0,0,0,3.383-.712,21.661,21.661,0,0,0,0-4.876,31.318,31.318,0,0,0-3.383-.712l-.094-.53c-.033-.176-.079-.349-.118-.524s-.077-.35-.124-.523l-.147-.517c-.09-.348-.22-.682-.33-1.023s-.258-.668-.389-1q.636-.565,1.254-1.172c.411-.405.818-.826,1.2-1.253a22.224,22.224,0,0,0-2.641-4.106,32.411,32.411,0,0,0-3.227,1.233,18.979,18.979,0,0,0-1.542-1.5c-.137-.116-.268-.238-.409-.349l-.423-.332-.211-.166-.219-.156-.438-.312a32.1,32.1,0,0,0,.763-3.37,22.063,22.063,0,0,0-4.444-2.029q-.277.335-.543.674t-.525.7q-.513.7-.981,1.41c-.347-.09-.7-.166-1.046-.245-.353-.058-.7-.135-1.06-.18s-.71-.1-1.068-.119l-.536-.04c-.179-.014-.358-.012-.537-.018-.166-.545-.348-1.094-.544-1.637s-.41-1.074-.638-1.609a21.9,21.9,0,0,0-4.834.685q-.1.872-.158,1.734c-.038.573-.06,1.14-.064,1.718-.339.116-.681.222-1.012.362l-.5.2-.49.221a19.469,19.469,0,0,0-1.9,1,32.2,32.2,0,0,0-2.751-2.087,22.332,22.332,0,0,0-3.686,3.2A32.336,32.336,0,0,0,76.6,250.2a19.209,19.209,0,0,0-1.262,1.739c-.1.151-.2.3-.288.454l-.268.466c-.186.307-.336.633-.5.95a31.983,31.983,0,0,0-3.446-.275,21.99,21.99,0,0,0-1.37,4.69,31.146,31.146,0,0,0,3.045,1.629c-.011.089-.024.177-.033.267l-.02.268-.041.536c-.021.358-.021.716-.033,1.074.012.358.012.717.033,1.075l.041.536.02.268c.009.089.022.178.033.267a31.153,31.153,0,0,0-3.045,1.629,21.991,21.991,0,0,0,1.37,4.69,31.983,31.983,0,0,0,3.446-.275c.167.317.317.643.5.95l.268.466c.093.154.192.3.288.454a19.135,19.135,0,0,0,1.262,1.739,32.336,32.336,0,0,0-1.676,3.019,22.355,22.355,0,0,0,3.686,3.2,32.179,32.179,0,0,0,2.751-2.086,19.279,19.279,0,0,0,1.9,1l.49.222.5.2c.33.139.673.245,1.012.362,0,.577.026,1.144.064,1.718s.09,1.152.158,1.733a21.9,21.9,0,0,0,4.834.685q.342-.8.638-1.61c.2-.543.379-1.092.544-1.637.179-.006.359,0,.537-.018l.536-.041c.358-.018.712-.078,1.068-.119s.706-.121,1.06-.179c.349-.079.7-.155,1.046-.245q.467.712.981,1.41.257.349.525.695t.543.675a22.093,22.093,0,0,0,4.444-2.029,32.064,32.064,0,0,0-.763-3.37l.438-.312.219-.156.211-.166.423-.332c.14-.111.272-.233.409-.349a18.974,18.974,0,0,0,1.542-1.5,32.4,32.4,0,0,0,3.227,1.233,22.242,22.242,0,0,0,2.641-4.106c-.385-.427-.792-.848-1.2-1.253s-.829-.8-1.254-1.172c.131-.333.27-.664.389-1S108.765,267.585,108.854,267.237Z" transform="translate(-69.467 -240.149)" fill="#79a2e4" stroke="#292739" stroke-linecap="round" stroke-linejoin="round" stroke-width="1.273"/>
            <circle id="Elipse_4221" data-name="Elipse 4221" cx="15.806" cy="15.806" r="15.806" transform="translate(5.89 6.039)" fill="#fff"/>
          </g>
          <g id="Grupo_83961" data-name="Grupo 83961" transform="translate(10.205 16.406)">
            <path id="Trazado_104849" data-name="Trazado 104849" d="M106.041,269.787a8.1,8.1,0,0,0-1.262-.038l-5.337,3.22a2.5,2.5,0,0,0-.583.7c-.252.684.23,1.087.716,1.308a6.579,6.579,0,0,0,2.953-.22h0l.368,1.206a6.848,6.848,0,0,0,7.17,4.072l2.941-.383.755-7.117A25.021,25.021,0,0,0,106.041,269.787Z" transform="translate(-92.738 -269.74)" fill="#fd9572" stroke="#292739" stroke-linecap="round" stroke-linejoin="round" stroke-width="1.273"/>
            <path id="Trazado_104850" data-name="Trazado 104850" d="M99.374,271.641a19.746,19.746,0,0,0-.315,3.925c1.992,1.979,8.067,5.21,8.067,5.21s-1.494.817-2.537,1.284c-3.4,1.522-4.081,1.789-6.971.437a21.982,21.982,0,0,0-4.16-1.939,2.7,2.7,0,0,1-1.159-.415,2.1,2.1,0,0,1-.58-1.255c-.314-1.56-1.464-5.789.039-6.935C92.584,271.32,99.374,271.641,99.374,271.641Z" transform="translate(-89.267 -270.551)" fill="#fd9572" stroke="#292739" stroke-linecap="round" stroke-linejoin="round" stroke-width="1.273"/>
            <g id="Grupo_83960" data-name="Grupo 83960" transform="translate(5.564 0.655)">
              <path id="Trazado_104851" data-name="Trazado 104851" d="M103.013,271.559l-3.577,2.185s-.723.448-.849.833a1.142,1.142,0,0,0,.694,1.3,2.734,2.734,0,0,0,1.586.085c.653-.113.9-.266,1.554-.4a4.611,4.611,0,0,0,2.678-2.181Z" transform="translate(-98.193 -271.206)" fill="#fd9572"/>
              <path id="Trazado_104852" data-name="Trazado 104852" d="M99.832,276.105a2.373,2.373,0,0,1-.981-.191,1.5,1.5,0,0,1-.884-1.73c.159-.483.86-.938,1-1.023l3.579-2.186a.353.353,0,0,1,.368.6l-3.577,2.185a2.054,2.054,0,0,0-.7.642.807.807,0,0,0,.5.868,2.426,2.426,0,0,0,1.381.059,5.74,5.74,0,0,0,.776-.193,7.581,7.581,0,0,1,.768-.2,4.326,4.326,0,0,0,2.412-1.945.353.353,0,1,1,.67.221,4.94,4.94,0,0,1-2.943,2.417,6.643,6.643,0,0,0-.7.184,6.467,6.467,0,0,1-.862.214A4.785,4.785,0,0,1,99.832,276.105Z" transform="translate(-97.909 -270.922)" fill="#292739"/>
            </g>
            <path id="Trazado_104853" data-name="Trazado 104853" d="M111.844,289.323a.335.335,0,0,1-.053,0,27.705,27.705,0,0,1-4.758-1.349.353.353,0,1,1,.251-.66,27.312,27.312,0,0,0,4.611,1.31.353.353,0,0,1-.052.7Z" transform="translate(-96.309 -277.558)" fill="#292739"/>
            <path id="Trazado_104854" data-name="Trazado 104854" d="M108.8,291.491a.393.393,0,0,1-.067-.006c-.74-.143-2.895-.745-3.28-.893a.353.353,0,0,1,.253-.659c.352.135,2.456.723,3.16.858a.353.353,0,0,1-.066.7Z" transform="translate(-95.604 -278.727)" fill="#292739"/>
            <path id="Trazado_104855" data-name="Trazado 104855" d="M123.345,271.392l-.273,9.846,3.347.557v-2.823l-1.674-1.093,2.22-1.286v-5.409Z" transform="translate(-103.557 -270.384)" fill="#eaeefa" stroke="#292739" stroke-linecap="round" stroke-linejoin="round" stroke-width="1.273"/>
            <path id="Trazado_104856" data-name="Trazado 104856" d="M91.676,271.392l.273,9.846-4.076.192v-5.785l2.4-.728-2.4-1.286.8-2.447Z" transform="translate(-87.874 -270.384)" fill="#eaeefa" stroke="#292739" stroke-linecap="round" stroke-linejoin="round" stroke-width="1.273"/>
          </g>
        </g>
        <g id="Grupo_83965" data-name="Grupo 83965" transform="translate(0 8.929)">
          <path id="Trazado_104857" data-name="Trazado 104857" d="M54.524,212.38a.727.727,0,0,1-.258-.048l-.607-.23c-3.224-1.221-6.557-2.484-9.168-4.554a12.708,12.708,0,0,1-4.9-9.576c-.314-4.421,2.8-6.968,5.556-9.215,3.179-2.6,5.048-4.35,3.5-7.566-.818-1.7-2.565-3.085-4.587-4.686a28.244,28.244,0,0,1-6.792-6.885c-2.255-3.53-3.229-7.747-2.978-12.893a15.621,15.621,0,0,1,6.254-11.779,13.4,13.4,0,0,1,11.991-1.727.726.726,0,0,1-.407,1.394,12.075,12.075,0,0,0-10.741,1.515A14.137,14.137,0,0,0,35.746,156.8c-.528,10.849,4.877,15.129,9.221,18.569,2.163,1.713,4.031,3.192,4.994,5.2,2.12,4.41-.936,6.906-3.892,9.319-2.6,2.123-5.287,4.317-5.026,7.987.577,8.119,6.675,10.429,13.131,12.875l.608.231a.726.726,0,0,1-.258,1.4Z" transform="translate(-34.257 -141.745)" fill="#292739"/>
          <g id="Grupo_83963" data-name="Grupo 83963" transform="translate(15.914)">
            <path id="Trazado_104858" data-name="Trazado 104858" d="M65.865,141.647a1.911,1.911,0,1,1-2.37,1.3A1.911,1.911,0,0,1,65.865,141.647Z" transform="translate(-63.165 -141.307)" fill="#fff"/>
            <path id="Trazado_104859" data-name="Trazado 104859" d="M65.732,141.191a2.165,2.165,0,1,0,1.473,2.685,2.168,2.168,0,0,0-1.473-2.685Zm-1.069,3.669a1.657,1.657,0,1,1,2.054-1.127,1.658,1.658,0,0,1-2.054,1.127Z" transform="translate(-62.961 -141.095)" fill="#292739"/>
          </g>
          <g id="Grupo_83964" data-name="Grupo 83964" transform="translate(18.102 67.743)">
            <path id="Trazado_104860" data-name="Trazado 104860" d="M68.6,267.435a1.911,1.911,0,1,0-1.107-2.465A1.911,1.911,0,0,0,68.6,267.435Z" transform="translate(-67.111 -263.484)" fill="#fff"/>
            <path id="Trazado_104861" data-name="Trazado 104861" d="M68.3,267.469a2.165,2.165,0,1,1,2.793-1.255,2.168,2.168,0,0,1-2.793,1.255ZM69.66,263.9a1.657,1.657,0,1,0,.96,2.137,1.658,1.658,0,0,0-.96-2.137Z" transform="translate(-66.907 -263.28)" fill="#292739"/>
          </g>
        </g>
      </g>
      <g id="Grupo_83967" data-name="Grupo 83967" transform="translate(64.428 123.304)">
        <path id="Trazado_104862" data-name="Trazado 104862" d="M91.251,200.034c-.221,1.15-2.713,2.237-2.57,3.375s2.835,1.586,3.326,2.636-.9,3.388-.1,4.243c.773.824,3.2-.4,4.241.175s1.3,3.279,2.413,3.492c1.15.221,2.4-2.207,3.533-2.35s2.956,1.9,4.005,1.4.626-3.174,1.48-3.976c.825-.773,3.487-.176,4.063-1.22s-1.352-2.976-1.139-4.086c.221-1.15,2.713-2.238,2.57-3.375s-2.834-1.587-3.326-2.636.9-3.388.1-4.243c-.773-.825-3.2.4-4.241-.175s-1.3-3.279-2.414-3.492c-1.15-.221-2.4,2.207-3.533,2.35s-2.956-1.9-4-1.4-.626,3.175-1.481,3.976c-.824.773-3.487.177-4.062,1.22S91.464,198.923,91.251,200.034Z" transform="translate(-88.675 -189.79)" fill="#eaeefa"/>
        <path id="Trazado_104863" data-name="Trazado 104863" d="M100.064,203.445a6.32,6.32,0,1,0,8.6-2.514A6.336,6.336,0,0,0,100.064,203.445Z" transform="translate(-93.396 -194.406)" fill="#fff" stroke="#292739" stroke-linecap="round" stroke-linejoin="round" stroke-width="1.273"/>
      </g>
      <g id="Grupo_83975" data-name="Grupo 83975" transform="translate(161.671 49.695)">
        <path id="Trazado_104864" data-name="Trazado 104864" d="M266.615,130.879s6.05-.228,5.772,1.572l-.965,3.528C267.344,137.064,264.417,133.378,266.615,130.879Z" transform="translate(-264.867 -89.929)" fill="#292739" stroke="#292739" stroke-linecap="round" stroke-linejoin="round" stroke-width="1.273"/>
        <path id="Trazado_104865" data-name="Trazado 104865" d="M273.9,130.435c-.709.945-1.934,1.585-2.626,2.56a3.157,3.157,0,0,0-.933,3.073,4.088,4.088,0,0,1,.264.99.716.716,0,0,1-.533.768c-.265.03-.5-.155-.76-.226-.67-.185-1.319.446-1.515,1.113a19.248,19.248,0,0,0-.229,2.07,1.321,1.321,0,0,1-.74,1.085c-.574.193-1.145-.3-1.5-.79-2.087-2.906-1.615-7.673,1.685-9.435a7.871,7.871,0,0,0,2.723-2.881,2.082,2.082,0,0,1,.92-.88C271.537,127.576,274.034,130.323,273.9,130.435Z" transform="translate(-264.067 -88.587)" fill="#fd9572" stroke="#292739" stroke-linecap="round" stroke-linejoin="round" stroke-width="1.273"/>
        <g id="Grupo_83969" data-name="Grupo 83969" transform="translate(12.039 111.426)">
          <path id="Trazado_104866" data-name="Trazado 104866" d="M311.835,258l-4.227,1.6a1.455,1.455,0,0,0-1.144,1.814q.161,5.006.322,10.011c.009.271,3.8-.791,4.131-.976,1.219-.689,1.053-1.89,1.149-3.177A46.95,46.95,0,0,0,311.835,258Z" transform="translate(-294.994 -257.999)" fill="#fd9572" stroke="#292739" stroke-linecap="round" stroke-linejoin="round" stroke-width="1.273"/>
          <g id="Grupo_83968" data-name="Grupo 83968" transform="translate(0 8.973)">
            <path id="Trazado_104867" data-name="Trazado 104867" d="M304.679,283.35l-18.371-.6a2.466,2.466,0,0,1-.216-2.609c1.383-2.038,11.137-4.557,11.137-4.557l2.869-.144c.621-.031,2.765-1.211,3.356-1.25.7-.046.473.674.619,1.052a6.579,6.579,0,0,0,.765,1.059,4.425,4.425,0,0,1,.975,3.314C305.322,281.522,304.679,283.35,304.679,283.35Z" transform="translate(-285.781 -274.183)" fill="#eaeefa" stroke="#292739" stroke-linecap="round" stroke-linejoin="round" stroke-width="1.273"/>
            <path id="Trazado_104868" data-name="Trazado 104868" d="M305.464,290.164l-18.575.885c-.544.026-.531-.462-.532-1.062h0c0-.6-.017-1.079.524-1.106l18.45-.89a1.062,1.062,0,0,1,1.06,1.035h0A1.028,1.028,0,0,1,305.464,290.164Z" transform="translate(-286.038 -280.335)" fill="#a4d2f3" stroke="#292739" stroke-linecap="round" stroke-linejoin="round" stroke-width="1.273"/>
          </g>
          <path id="Trazado_104869" data-name="Trazado 104869" d="M302.81,281.607a.354.354,0,0,1-.349-.305,4.023,4.023,0,0,0-2.488-2.813.353.353,0,1,1,.248-.661,4.722,4.722,0,0,1,2.94,3.378.354.354,0,0,1-.3.4A.346.346,0,0,1,302.81,281.607Z" transform="translate(-292.002 -266.824)" fill="#292739"/>
          <path id="Trazado_104870" data-name="Trazado 104870" d="M298.994,282.731a.353.353,0,0,1-.349-.306,3.48,3.48,0,0,0-2.071-2.83.353.353,0,1,1,.248-.661,4.19,4.19,0,0,1,2.522,3.4.353.353,0,0,1-.35.4Z" transform="translate(-290.488 -267.317)" fill="#292739"/>
        </g>
        <g id="Grupo_83971" data-name="Grupo 83971" transform="translate(33.066 111.176)">
          <path id="Trazado_104871" data-name="Trazado 104871" d="M350.151,257.549l-4.543,2.186a1.623,1.623,0,0,0-1.1,2.125q.656,5.546,1.313,11.093c.035.3,4.15-1.241,4.5-1.479,1.289-.882.99-2.2.974-3.64A52.351,52.351,0,0,0,350.151,257.549Z" transform="translate(-332.955 -257.549)" fill="#fd9572" stroke="#292739" stroke-linecap="round" stroke-linejoin="round" stroke-width="1.273"/>
          <g id="Grupo_83970" data-name="Grupo 83970" transform="translate(0 9.881)">
            <path id="Trazado_104872" data-name="Trazado 104872" d="M344.919,285.446l-20.469,1.081s-1.274-1.473-.488-2.878c1.342-2.4,11.939-6.125,11.939-6.125l3.174-.434c.687-.094,2.956-1.61,3.609-1.709.775-.118.59.7.788,1.11a7.374,7.374,0,0,0,.951,1.1c.758.954,1.622,2.274,1.4,3.589C345.458,283.355,344.919,285.446,344.919,285.446Z" transform="translate(-323.706 -275.37)" fill="#eaeefa" stroke="#292739" stroke-linecap="round" stroke-linejoin="round" stroke-width="1.273"/>
            <path id="Trazado_104873" data-name="Trazado 104873" d="M346.036,292.844,325.483,295.6c-.6.081-.634-.463-.693-1.129h0c-.058-.664-.121-1.2.477-1.278l20.414-2.749a1.183,1.183,0,0,1,1.276,1.049h0A1.146,1.146,0,0,1,346.036,292.844Z" transform="translate(-324.173 -282.082)" fill="#a4d2f3" stroke="#292739" stroke-linecap="round" stroke-linejoin="round" stroke-width="1.273"/>
          </g>
          <path id="Trazado_104874" data-name="Trazado 104874" d="M342.171,285.016a.353.353,0,0,1-.344-.275,4.53,4.53,0,0,0-3.062-2.918.353.353,0,0,1,.191-.68,5.224,5.224,0,0,1,3.559,3.443.353.353,0,0,1-.267.422A.342.342,0,0,1,342.171,285.016Z" transform="translate(-330.301 -268.056)" fill="#292739"/>
          <path id="Trazado_104875" data-name="Trazado 104875" d="M338.039,286.629a.353.353,0,0,1-.344-.276,3.92,3.92,0,0,0-2.6-2.977.353.353,0,1,1,.19-.68,4.63,4.63,0,0,1,3.1,3.5.353.353,0,0,1-.267.422A.34.34,0,0,1,338.039,286.629Z" transform="translate(-328.666 -268.748)" fill="#292739"/>
        </g>
        <g id="Grupo_83972" data-name="Grupo 83972" transform="translate(20.091 58.126)">
          <path id="Trazado_104876" data-name="Trazado 104876" d="M303.826,191.189c-.938,1.875-2.723,3.157-3.39,5.216a8.193,8.193,0,0,0-.053,2.538c.111,7.96.534,14.184.958,22.134,3.245,1.591,6.494,2.761,9.763,1.508-.114,0,.352-7.058.362-8.011.062-5.757-1.049-12.828-.792-13.512.47-1.25,4.582-3.536,5.694-4.649.6-.6,3.544-2.886,3.758-3.455a11.71,11.71,0,0,0-.551,6.55c.36,2.244.884,4.887,1.3,7.01,2.115,10.864,2.921,18.28,2.921,18.28.8.782,8.358-.752,10.4-1.993-.541-5.772-2.016-12.13-3.025-17.839-.409-2.314-1.4-4.909-.857-7.22.55-2.328,3.694-7.3,4.618-9.487,2.1-4.955,3.6-7.071,4.291-12.407a21.475,21.475,0,0,0-1.884-11.013,6.934,6.934,0,0,0-1.522-2.655c-.752-.579-1.639-.212-2.54-.081q-3.548.511-7.121.825-2.44.215-4.887.336c-1.176.058-2.929-.329-3.612.868-.793,1.391-.336,3.176-.805,4.691a14.969,14.969,0,0,1-2.734,4.455,91.715,91.715,0,0,0-7.921,12.612C305.8,186.624,304.581,189.678,303.826,191.189Z" transform="translate(-300.305 -161.865)" fill="#292739" stroke="#292739" stroke-linecap="round" stroke-linejoin="round" stroke-width="1.273"/>
          <path id="Trazado_104877" data-name="Trazado 104877" d="M360.209,175.016a.354.354,0,0,1-.15-.034,9.4,9.4,0,0,1-3.89-4.191,8.608,8.608,0,0,1-1.09-5.576.353.353,0,0,1,.688.157c-.645,2.822,1.845,7.684,4.592,8.971a.353.353,0,0,1-.15.673Z" transform="translate(-324.655 -163.235)" fill="#fff"/>
          <path id="Trazado_104878" data-name="Trazado 104878" d="M344.181,187.129a.353.353,0,0,1-.227-.623c1.848-1.552,4.377-1.552,5.591-1.552a.353.353,0,1,1,0,.706c-1.132,0-3.486,0-5.137,1.387A.351.351,0,0,1,344.181,187.129Z" transform="translate(-319.697 -172.153)" fill="#fff"/>
          <path id="Trazado_104879" data-name="Trazado 104879" d="M344.214,185.006a.353.353,0,0,1-.227-.623,10.951,10.951,0,0,1,5.573-2.544.353.353,0,1,1,0,.706,10.338,10.338,0,0,0-5.118,2.378A.354.354,0,0,1,344.214,185.006Z" transform="translate(-319.712 -170.765)" fill="#fff"/>
          <path id="Trazado_104880" data-name="Trazado 104880" d="M341,180.381a.353.353,0,0,1-.232-.087c-1.8-1.573-2.191-11.813-2.191-14.263a.353.353,0,1,1,.706,0c0,5.022.742,12.675,1.949,13.731a.353.353,0,0,1-.232.619Z" transform="translate(-317.357 -163.564)" fill="#fff"/>
          <path id="Trazado_104881" data-name="Trazado 104881" d="M343.73,178.54h-.024a.353.353,0,0,1-.329-.375,32.526,32.526,0,0,0-.241-4.411c-.251-2.672-.534-5.7-.088-7.8a.353.353,0,0,1,.69.147c-.424,1.99-.145,4.962.1,7.584a32.995,32.995,0,0,1,.242,4.522A.353.353,0,0,1,343.73,178.54Z" transform="translate(-319.245 -163.564)" fill="#fff"/>
          <path id="Trazado_104882" data-name="Trazado 104882" d="M335.771,204.778a.368.368,0,0,1-.1-.014.354.354,0,0,1-.239-.439c1.234-4.191,1.9-7.125,2.435-9.482a25.783,25.783,0,0,1,2.257-7.055.353.353,0,1,1,.62.338A24.9,24.9,0,0,0,338.556,195c-.537,2.367-1.206,5.314-2.446,9.526A.354.354,0,0,1,335.771,204.778Z" transform="translate(-315.95 -173.333)" fill="#fff"/>
          <path id="Trazado_104883" data-name="Trazado 104883" d="M353.53,224.554a.353.353,0,0,1-.353-.338,142.153,142.153,0,0,0-2.248-15.812c-.527-2.976-1.024-5.785-1.323-7.962-.534-3.886,4.1-15.692,5.763-19.52,2.05-4.716,3.518-10.126.4-17.71a.353.353,0,1,1,.653-.268,21.878,21.878,0,0,1,1.746,10.665,24.908,24.908,0,0,1-2.153,7.595c-2.068,4.757-6.185,15.694-5.711,19.143.3,2.162.793,4.966,1.319,7.934a142.686,142.686,0,0,1,2.259,15.906.354.354,0,0,1-.338.368Z" transform="translate(-322.253 -162.248)" fill="#fff"/>
          <path id="Trazado_104884" data-name="Trazado 104884" d="M316,241.6a.353.353,0,0,1-.353-.339c-.092-2.238-.09-4.8-.089-7.508a110.84,110.84,0,0,0-.539-13.962c-.343-2.494,3.684-5.8,7.578-8.989,2.525-2.071,4.911-4.027,5.466-5.3a.353.353,0,1,1,.648.282c-.623,1.432-2.96,3.348-5.666,5.567-3.569,2.927-7.615,6.245-7.326,8.348a111.486,111.486,0,0,1,.546,14.058c0,2.7,0,5.254.088,7.478a.352.352,0,0,1-.338.367Z" transform="translate(-306.852 -181.215)" fill="#fff"/>
        </g>
        <g id="Grupo_83973" data-name="Grupo 83973" transform="translate(1.747 18.272)">
          <path id="Trazado_104885" data-name="Trazado 104885" d="M306,90.138a53.833,53.833,0,0,0-7.262-.063c-3.813.2-5.824.481-8.944,2.683-1.787,1.261-7.769,12.479-10.337,14.021-3.924,2.356-8.427,3.355-12.233,5.883a11.376,11.376,0,0,1,4.807,5.1c3.475-2.259,9.52-2.8,13-5.063a12.885,12.885,0,0,0,5.692-7.088,73.854,73.854,0,0,0,4.861,10.516c1.116,2.03,2.158,4.211,3.474,6.12,1.826,2.65,1.112,6.593,4.173,8.146,1.715.869,5.664.613,7.582.5a32.829,32.829,0,0,0,7.373-1.291c1.305-.386,3.7-.787,4.459-2.041,1.107-1.832-.42-5.112-.72-7.018l-1.729-10.966a17.456,17.456,0,0,1-.314-4.48c.166-1.612.781-3.167.809-4.788.055-3.226-2.28-6.109-5.112-7.653A24.481,24.481,0,0,0,306,90.138Z" transform="translate(-267.219 -89.983)" fill="#fff" stroke="#292739" stroke-linecap="round" stroke-linejoin="round" stroke-width="1.273"/>
        </g>
        <path id="Trazado_104886" data-name="Trazado 104886" d="M320.756,89.456c1.685-.683,5.115-.925,6.468-.363-.117,1.03.913,2.281.419,3.238a2.237,2.237,0,0,1-.665.724,5.68,5.68,0,0,1-7.2-.256c-.778-.685-1.035-1.374-.291-2.106C319.909,90.28,320.334,89.869,320.756,89.456Z" transform="translate(-288.563 -71.175)" fill="#292739" stroke="#292739" stroke-linecap="round" stroke-linejoin="round" stroke-width="1.273"/>
        <path id="Trazado_104887" data-name="Trazado 104887" d="M327.666,92.106a5.925,5.925,0,0,1-3.12.992,5.367,5.367,0,0,1-1.626.029,3.024,3.024,0,0,1-2-1.4A2.3,2.3,0,0,1,320.5,90.6c.027-.506.218-.417.606-.745a7.031,7.031,0,0,0,2.019-4.447c.137-.905,3.261,1.018,3.538,1.152.216.1.588,3.391,1.426,3.528.638.1-.095,1.687-.383,1.977Z" transform="translate(-289.213 -69.564)" fill="#fd9572" stroke="#292739" stroke-linecap="round" stroke-linejoin="round" stroke-width="1.273"/>
        <path id="Trazado_104888" data-name="Trazado 104888" d="M321.183,104.359l.584,1.363-.07,17.761-3.029,8.993s-2.881-9.171-2.4-9.494c0,0,1.251-13.991,1.831-17.2S321.183,104.359,321.183,104.359Z" transform="translate(-287.304 -77.894)" fill="#292739" stroke="#292739" stroke-linecap="round" stroke-linejoin="round" stroke-width="1.273"/>
        <path id="Trazado_104889" data-name="Trazado 104889" d="M323.071,102.072a.709.709,0,0,1-.02.865l-1.291,2.25a.243.243,0,0,1-.124.127c-.082.025-.161-.04-.222-.1a13.949,13.949,0,0,1-2.439-2.952.971.971,0,0,1,.073-1.269,8.158,8.158,0,0,1,1.022-1.119c.276-.235.9-.727,1.293-.641.283.061.55.507.69.729C322.471,100.625,322.718,101.374,323.071,102.072Z" transform="translate(-288.443 -75.828)" fill="#292739" stroke="#292739" stroke-linecap="round" stroke-linejoin="round" stroke-width="1.273"/>
        <path id="Trazado_104890" data-name="Trazado 104890" d="M333.087,90.074s-.741,4.4-7.43,8.122c-.278-.289-2.552-3.22-2.034-3.576,2.025-1.392,4.982-2.749,5.608-5.275C329.548,89.429,333.2,89.682,333.087,90.074Z" transform="translate(-290.569 -71.427)" fill="#d8e5ee" stroke="#292739" stroke-linecap="round" stroke-linejoin="round" stroke-width="1.273"/>
        <path id="Trazado_104891" data-name="Trazado 104891" d="M317.235,89.958q-.052.185-.09.374a9.781,9.781,0,0,0,.067,3.506c.009.058.549,2.322.865,2a19.959,19.959,0,0,1,2.634-2.3c.075-.047-.6-3.089-.644-3.409a10.488,10.488,0,0,1,.105-3.217A4.1,4.1,0,0,0,317.235,89.958Z" transform="translate(-287.658 -70.341)" fill="#d8e5ee" stroke="#292739" stroke-linecap="round" stroke-linejoin="round" stroke-width="1.273"/>
        <path id="Trazado_104892" data-name="Trazado 104892" d="M350.414,160.882l.18-2.807s-7.556,2.278-13.279,2.278a41.535,41.535,0,0,1-6.525-.444l.248,2.793a30.529,30.529,0,0,0,7.514.4C347.732,162.016,350.414,160.882,350.414,160.882Z" transform="translate(-293.797 -102.05)" fill="#fff" stroke="#292739" stroke-linecap="round" stroke-linejoin="round" stroke-width="1.273"/>
        <path id="Trazado_104893" data-name="Trazado 104893" d="M320.369,57.653a3.486,3.486,0,0,1,.909-.433c2.07-.64,4.274.527,6.436.384a7.6,7.6,0,0,1,2.018-.081c2.956.608,3.9,5.107,3.231,7.5a13.936,13.936,0,0,1-.969,2.338c-1.238,2.539-3.145,6.78-6.36,7.161-1.272.151-2.606-.756-3.574-1.493a3.066,3.066,0,0,1-1.164-3.372,5.741,5.741,0,0,0,.223-2.825c-.4-1.37-2.328-1.364-2.7-2.824C317.9,61.931,318.469,58.921,320.369,57.653Z" transform="translate(-288.203 -57.027)" fill="#292739"/>
        <path id="Trazado_104894" data-name="Trazado 104894" d="M319.015,72.35c.041,2.166,1.252,5.454,3.412,5.619a6.026,6.026,0,0,0,4.047-1.713,10.766,10.766,0,0,0,1.506-3.159c1.017-2.915,1.65-8.2-3.32-8.55C319.823,64.205,318.963,69.6,319.015,72.35Z" transform="translate(-288.549 -60.37)" fill="#fd9572" stroke="#292739" stroke-linecap="round" stroke-linejoin="round" stroke-width="1.273"/>
        <path id="Trazado_104895" data-name="Trazado 104895" d="M323.581,61.922a2.962,2.962,0,0,0-1.734-.121,1.9,1.9,0,0,0-1.247,1.518,2.272,2.272,0,0,0,1.269,2.208,3.6,3.6,0,0,0,2.644.144c1.264-.375,2.2.826,2.293,2a4.865,4.865,0,0,1-.912,2.525c-.4.708.623.639.408,1.455a5.542,5.542,0,0,1-2.5,3.068c-2.364,1.119-4.31.065-4.8-2.825,0,0-.726-.726-.678.217.014.272.047,1.6.039,1.868-.045,1.56-.709,2.5.259,3.724.808,1.022,2.871,1.74,5.69.13,1.3-.745,1.781-2.4,2.8-3.476a10.288,10.288,0,0,0,2.1-4.025,5.659,5.659,0,0,0-1.892-6.278A11.572,11.572,0,0,0,323.581,61.922Z" transform="translate(-288.143 -59.117)" fill="#292739"/>
        <path id="Trazado_104896" data-name="Trazado 104896" d="M293.371,138.688s3.459,1.537,3.18,3.338l-2.662,2.71C291.028,142.253,292.495,138.36,293.371,138.688Z" transform="translate(-276.605 -93.404)" fill="#292739" stroke="#292739" stroke-linecap="round" stroke-linejoin="round" stroke-width="1.273"/>
        <path id="Trazado_104897" data-name="Trazado 104897" d="M279.843,138.7q.217.108.424.233c.445.268.81.736,1.255.971a3.115,3.115,0,0,0,1.488.222,23.718,23.718,0,0,0,3.525-.771c.172-.042.827,3.612.047,4.125a2.083,2.083,0,0,1-1.258.192,13.721,13.721,0,0,0-3.094-.035,11.856,11.856,0,0,0-2.941,1.035c-1.9.9-3.635,2.265-5.8,2.391-.5.029-1.088-.052-1.316-.494a1.3,1.3,0,0,1-.085-.7,7.618,7.618,0,0,1,1-3c.2-.38,1.581-1.418.939-1.8a1.5,1.5,0,0,0-.873-.068c-.3.019-.655-.053-.762-.329s.094-.553.294-.76a6.111,6.111,0,0,1,7.167-1.215Z" transform="translate(-267.634 -93.125)" fill="#fd9572" stroke="#292739" stroke-linecap="round" stroke-linejoin="round" stroke-width="1.273"/>
        <g id="Grupo_83974" data-name="Grupo 83974" transform="translate(16.413 27.841)">
          <path id="Trazado_104898" data-name="Trazado 104898" d="M321.055,107.879c-1.588,2.85-5.257,11.639-5.651,11.79a64.424,64.424,0,0,1-11.08,3.147c-3.242.613-6.9,1.027-10.019,2.153.088.389.479,6.045.517,6.047a57.927,57.927,0,0,0,14.544-.941c4.427-.854,9.254-1.828,12.583-5.036,4.014-3.868,8.784-13.194,8.784-13.194Z" transform="translate(-293.953 -107.526)" fill="#fff"/>
          <path id="Trazado_104899" data-name="Trazado 104899" d="M298.1,131.2q-1.793,0-3.581-.111c-.307-.019-.333-.294-.354-.515-.012-.127-.028-.31-.047-.533-.037-.443-.083-1.046-.133-1.688-.11-1.424-.262-3.376-.307-3.586a.357.357,0,0,1,.225-.409,44.153,44.153,0,0,1,7.572-1.73c.869-.146,1.69-.284,2.5-.438a64.139,64.139,0,0,0,10.952-3.1c.289-.394,1.371-2.783,2.329-4.9,1.136-2.509,2.424-5.353,3.207-6.759a.353.353,0,0,1,.617.344c-.769,1.38-2.05,4.21-3.181,6.706-2.13,4.7-2.37,5.133-2.652,5.241a64.844,64.844,0,0,1-11.14,3.164c-.818.155-1.681.3-2.515.441a45.613,45.613,0,0,0-7.183,1.6c.059.557.154,1.753.279,3.371.062.8.13,1.672.168,2.1a57.508,57.508,0,0,0,14.162-.954c4.263-.822,9.1-1.754,12.4-4.943,3.927-3.783,8.668-13.008,8.716-13.1a.353.353,0,0,1,.628.321c-.2.383-4.844,9.423-8.854,13.288-3.46,3.334-8.618,4.329-12.761,5.129A58.417,58.417,0,0,1,298.1,131.2Z" transform="translate(-293.67 -107.242)" fill="#292739"/>
        </g>
        <path id="Trazado_104900" data-name="Trazado 104900" d="M309.1,114.967a.353.353,0,0,1-.342-.267,9.021,9.021,0,0,1-.042-4.25.353.353,0,0,1,.68.189,8.453,8.453,0,0,0,.046,3.888.353.353,0,0,1-.256.429A.334.334,0,0,1,309.1,114.967Z" transform="translate(-283.859 -80.715)" fill="#292739"/>
      </g>
      <g id="Grupo_83980" data-name="Grupo 83980" transform="translate(86.628 86.688)">
        <path id="Trazado_104901" data-name="Trazado 104901" d="M249.125,151.051q-1.071.384-2.183.688c-1.444.4-2.554,1.885-3.592,2.924-.121.121-2.492-2.573-2.1-3.387a2.014,2.014,0,0,1,.944-.789c1.447-.786,2.7-1.753,4.194-2.456,1.232-.58,2.46-1.267,3.731-1.756a9.582,9.582,0,0,0,2.563-1.6,18.123,18.123,0,0,1,5.485-3.032.613.613,0,0,1,.5-.016c.2.123.192.419.145.653a8.94,8.94,0,0,1-3.268,5.421A25.413,25.413,0,0,1,249.125,151.051Z" transform="translate(-178.837 -131.692)" fill="#fd9572" stroke="#292739" stroke-linecap="round" stroke-linejoin="round" stroke-width="1.273"/>
        <path id="Trazado_104902" data-name="Trazado 104902" d="M200.613,165.963a40.093,40.093,0,0,0,8.856-1.279,32.568,32.568,0,0,0,11.9-6.018c.729-.556,2.5-1.5,2.983-2.273a41.4,41.4,0,0,0-1.3-5.546s-5.872,2.387-6.478,2.691a25.413,25.413,0,0,1-7.572,2.6c-2.594.384-5.357.059-8.007.271a54.278,54.278,0,0,0-8.711,1.417,5.137,5.137,0,0,0-2.724,1.326c-1.213,1.373-.651,3.681.729,4.887a8.98,8.98,0,0,0,5.116,1.744A39.6,39.6,0,0,0,200.613,165.963Z" transform="translate(-155.528 -135.822)" fill="#eaeefa" stroke="#292739" stroke-linecap="round" stroke-linejoin="round" stroke-width="1.273"/>
        <g id="Grupo_83976" data-name="Grupo 83976" transform="translate(11.505 123.603)">
          <path id="Trazado_104903" data-name="Trazado 104903" d="M161.387,359.569a2.437,2.437,0,0,1-.273.025,15.046,15.046,0,0,1-5.51-.811,8.272,8.272,0,0,1-2.542-1.15c-.6-.513-.536-1.281-.7-2a.52.52,0,0,0-.206-.367c-.182-.1-.409.056-.5.243-.2.428-.279,1.017-.666,1.35a.4.4,0,0,1-.538.013.581.581,0,0,1-.11-.3q-.356-2.07-.66-4.148a5.742,5.742,0,0,1,.023-3.179c.654-1.669,1.737-2.833,3.675-2.509,2.182.365,3.2,2.708,3.961,4.525a41.136,41.136,0,0,0,4.4,7.04c.187.274.38.62.236.918A.734.734,0,0,1,161.387,359.569Z" transform="translate(-149.466 -346.684)" fill="#292739"/>
        </g>
        <g id="Grupo_83977" data-name="Grupo 83977" transform="translate(12.516 83.049)">
          <path id="Trazado_104904" data-name="Trazado 104904" d="M156.538,317.7c-.067.015-.135.027-.2.038a6.765,6.765,0,0,1-2.815-.031c-.657-.17-2.119-.8-2.224-1.611s1.041-1.811,1.1-2.749c.472-7.945.949-18.4,5.021-25.521,2.046-3.576,2.061-8.376,2.7-12.42.114-.719.328-1.566,1.015-1.808a2,2,0,0,1,1.233.1c1.8.551,3.721,1.352,4.615,3.014a7.141,7.141,0,0,1,.59,3.649,26.781,26.781,0,0,1-3.165,12.205c-2.666,4.873-4.9,13.7-6.448,19.127a18.143,18.143,0,0,0-.689,2.85c-.075.629.238,2.578-.217,2.941A1.23,1.23,0,0,1,156.538,317.7Z" transform="translate(-151.29 -273.538)" fill="#fd9572" stroke="#292739" stroke-linecap="round" stroke-linejoin="round" stroke-width="1.273"/>
        </g>
        <g id="Grupo_83978" data-name="Grupo 83978" transform="translate(27.02 127.229)">
          <path id="Trazado_104905" data-name="Trazado 104905" d="M191.447,363.525a2.363,2.363,0,0,1-.257.1,15.037,15.037,0,0,1-5.53.661,8.294,8.294,0,0,1-2.755-.444c-.71-.338-.852-1.1-1.2-1.748-.068-.128-.153-.268-.294-.3-.2-.047-.38.161-.416.365a3.682,3.682,0,0,1-.289,1.478.4.4,0,0,1-.516.154.581.581,0,0,1-.185-.258q-.886-1.9-1.724-3.831a5.743,5.743,0,0,1-.81-3.073c.193-1.782.934-3.189,2.889-3.384,2.2-.22,3.8,1.774,5.009,3.329a41.177,41.177,0,0,0,6.088,5.642c.252.216.529.5.468.824A.733.733,0,0,1,191.447,363.525Z" transform="translate(-177.45 -353.224)" fill="#292739"/>
        </g>
        <g id="Grupo_83979" data-name="Grupo 83979" transform="translate(25.904 85.967)">
          <path id="Trazado_104906" data-name="Trazado 104906" d="M182.657,322.9c-.061.032-.123.062-.185.09a6.766,6.766,0,0,1-2.725.708c-.679.008-2.254-.216-2.568-.972s.53-2.02.338-2.941c-1.627-7.791-3.141-18.111-1.077-26.047,1.037-3.987-.206-8.624-.65-12.694-.079-.724-.094-1.6.505-2.01a2,2,0,0,1,1.216-.227c1.886.059,3.945.33,5.243,1.7a7.135,7.135,0,0,1,1.526,3.367,26.785,26.785,0,0,1,.145,12.607c-1.3,5.4-1.9,14.607-1.975,20.251a18.046,18.046,0,0,0,.082,2.931c.092.627.906,2.426.561,2.895A1.23,1.23,0,0,1,182.657,322.9Z" transform="translate(-175.438 -278.802)" fill="#fd9572" stroke="#292739" stroke-linecap="round" stroke-linejoin="round" stroke-width="1.273"/>
        </g>
        <path id="Trazado_104907" data-name="Trazado 104907" d="M156.891,265.373c1.959.125,3.381.286,5.341.411.808-2.8,2.6-7.258,2.6-7.258a26.744,26.744,0,0,1,.661,7.532c2.234.349,10.458.609,12.691.959a139.927,139.927,0,0,0,.506-23.621c-.548-7.266-1.134-10.864.453-14.336,4.245-9.288,1.751-10.33,1.619-10.433a14.73,14.73,0,0,0-11.971-2.522c-2.166.395-4.483,3.2-6.12,4.632a20.666,20.666,0,0,0-4.67,5.227c-2.982,5.345-1.367,12.069-.539,17.773C157.647,245,159.056,258.867,156.891,265.373Z" transform="translate(-140.996 -164.76)" fill="#79a2e4" stroke="#292739" stroke-linecap="round" stroke-linejoin="round" stroke-width="1.273"/>
        <path id="Trazado_104908" data-name="Trazado 104908" d="M169.978,265.563a.353.353,0,0,1-.352-.324c-.006-.072-.608-7.191-3.029-8.715a.353.353,0,0,1,.376-.6c2.719,1.712,3.332,8.948,3.357,9.256a.353.353,0,0,1-.323.38Z" transform="translate(-145.521 -182.618)" fill="#292739"/>
        <path id="Trazado_104909" data-name="Trazado 104909" d="M260.191,148.779c-.529.3-1.057.608-1.578.926a3.374,3.374,0,0,0-1.283,1.132c-.638,1.148.18,2.609-.151,3.879,1.773-.986,3.483-2.091,5.325-2.948a14,14,0,0,1,2.443-1.059,20.473,20.473,0,0,1,2.843-.426,12.2,12.2,0,0,0,3.991-.9,4.317,4.317,0,0,0,2.534-3.032.857.857,0,0,0-.093-.65c-.266-.356-.819-.2-1.234-.044a8.79,8.79,0,0,1-3.454.562,2.189,2.189,0,0,1-1.862-.8,1.665,1.665,0,0,1,.1-1.669c.256-.43,1.13-.9,1.2-1.367.093-.617-.644-.626-1.04-.5a7.741,7.741,0,0,0-4.1,3.323c-.607.954-.5,1.8-1.545,2.389C261.589,147.994,260.888,148.383,260.191,148.779Z" transform="translate(-185.91 -131.8)" fill="#fd9572" stroke="#292739" stroke-linecap="round" stroke-linejoin="round" stroke-width="1.273"/>
        <path id="Trazado_104910" data-name="Trazado 104910" d="M200.49,178.751c2.1-2.428,1.677-6.011,1.832-9.042.234-.187,7.654-1.566,10.718-3.2a61.9,61.9,0,0,0,8.509-5.354c.729-.556,3.219-2.124,3.859-2.753,0,0-1.377-3.879-2.156-6.167-4.5,2.826-9.181,5.719-14.446,6.449-5.129.711-10.067-1.578-15.072-.87-1.785.253-5.2,1.447-6.914.959-1.079-.308-1.3-1.584-2.193-2.015a3.824,3.824,0,0,0-2.837.347c-3.021,1.227-3.886,4-4.083,7.033-.344,5.3-.184,10.553-.542,15.828a28,28,0,0,0-.18,4.032,4.821,4.821,0,0,0,.793,3.1,4.944,4.944,0,0,0,2.42,1.29c2.677.832,5.742,2.324,8.552,2.49,1.734.1,3.2-2.764,4.2-3.947.9-1.059,3.475-5.293,4.691-6.12.7-.478,1.49-.832,2.145-1.375A5.881,5.881,0,0,0,200.49,178.751Z" transform="translate(-150.218 -136.441)" fill="#eaeefa" stroke="#292739" stroke-linecap="round" stroke-linejoin="round" stroke-width="1.273"/>
        <path id="Trazado_104911" data-name="Trazado 104911" d="M190.687,125.556l-.087,0c-1.527.068-1.73.226-3.078-.335a21.253,21.253,0,0,0-4.022-1.218,10.531,10.531,0,0,0-6.638.62,6.4,6.4,0,0,0-3.706,5.29,18.232,18.232,0,0,1,.015,2.756c-.338,1.823-2.192,1.588-3.348,2.631-1.48,1.336-.634,4.942-3.193,5.243-2.468.291,4.077,5.087,6.53,5.489a13.864,13.864,0,0,0,9.474-1.991,17.814,17.814,0,0,0,3.714-3.4c1.017-1.116,2.141-1.867,2.214-3.537a5.753,5.753,0,0,1,.514-2.791A4.275,4.275,0,0,1,191,132.827a8.518,8.518,0,0,0,2.142-1.2c1.229-1.1.611-3.18-.09-4.469A2.861,2.861,0,0,0,190.687,125.556Z" transform="translate(-145.365 -123.748)" fill="#292739"/>
        <path id="Trazado_104912" data-name="Trazado 104912" d="M198.271,131.247c-4.7-1.691-5.654,4.331-5.423,7.414a10.774,10.774,0,0,0,.64,3.447,3.04,3.04,0,0,0,.482.741,2.127,2.127,0,0,1,.226,2.447,5.863,5.863,0,0,1-.947,1.248,2.7,2.7,0,0,1-2.645.732,1.426,1.426,0,0,0-.1,1.4,4.544,4.544,0,0,0,2,2.5,7.077,7.077,0,0,0,5.836.248c1.23-.431,4.758-2.268,4.7-3.106-.032.026-2.593.406-3.553-.074-1.247-.623-1.481-1.388-1.1-2.718.081-.284.3-.809.45-1.347,1.792.022,2.483-2.187,2.86-3.5C202.456,138.036,201.566,132.433,198.271,131.247Z" transform="translate(-156.195 -126.958)" fill="#fd9572" stroke="#292739" stroke-linecap="round" stroke-linejoin="round" stroke-width="1.273"/>
        <path id="Trazado_104913" data-name="Trazado 104913" d="M172.553,131.185c.133,1.552-.85,2.27-1.678,3.4a10.99,10.99,0,0,0-2.365,5.005,12.526,12.526,0,0,1-1.617,4.862l-5.5,10.747c-1.683,3.289-3.415,6.644-6.084,9.2a11.249,11.249,0,0,1-7.019,3.351,6.9,6.9,0,0,1-6.568-3.6c-1.481,3.3-6.031,4.673-9.22,2.957a7.8,7.8,0,0,1-3.313-9.38,9.01,9.01,0,0,1,8.567-5.5,3.538,3.538,0,0,0,2.447-.412,2.336,2.336,0,0,0,.594-2.121,20.926,20.926,0,0,1-.395-2.263c-.06-2.431,2.448-4.211,4.852-4.577s4.856.2,7.285.056a12.8,12.8,0,0,0,9.252-5.1c2.115-2.792,2.487-5.356,5.839-7.13a6.84,6.84,0,0,1,3.786-.915A1.406,1.406,0,0,1,172.553,131.185Z" transform="translate(-128.716 -126.407)" fill="#292739"/>
        <path id="Trazado_104914" data-name="Trazado 104914" d="M222.408,180.495a.347.347,0,0,1-.132-.026.353.353,0,0,1-.2-.459c.052-.128,1.275-3.134,2.572-4.272a.353.353,0,1,1,.465.531c-1.17,1.027-2.37,3.976-2.382,4.005A.354.354,0,0,1,222.408,180.495Z" transform="translate(-170.305 -146.874)" fill="#292739"/>
        <path id="Trazado_104915" data-name="Trazado 104915" d="M180.387,212.219h-.028a.353.353,0,0,1-.324-.379,48.375,48.375,0,0,0,0-5.6.353.353,0,0,1,.705-.036,49.17,49.17,0,0,1,0,5.695A.353.353,0,0,1,180.387,212.219Z" transform="translate(-151.581 -160.336)" fill="#292739"/>
        <path id="Trazado_104916" data-name="Trazado 104916" d="M195.925,216.462a.353.353,0,0,1-.286-.559,24.669,24.669,0,0,0,1.959-3.416.353.353,0,0,1,.638.3,24.8,24.8,0,0,1-2.024,3.525A.352.352,0,0,1,195.925,216.462Z" transform="translate(-158.505 -163.197)" fill="#292739"/>
        <path id="Trazado_104917" data-name="Trazado 104917" d="M175.571,215.924a1.375,1.375,0,0,0,.179,1.451,1.543,1.543,0,0,0,.675.3c2.693.679,13.477,3.517,13.658,2.931.3-.956.622-2.44.087-3.087-.463-.559-10.5-2.483-11.954-2.673C176.355,214.6,176.158,214.132,175.571,215.924Z" transform="translate(-149.54 -164.229)" fill="#d8e5ee" stroke="#292739" stroke-linecap="round" stroke-linejoin="round" stroke-width="1.273"/>
      </g>
    </g>
  </g>
</svg>
