<?xml version="1.0" encoding="utf-8"?>
<!-- Generator: Adobe Illustrator 25.4.1, SVG Export Plug-In . SVG Version: 6.00 Build 0)  -->
<svg version="1.1" id="Capa_1" xmlns="http://www.w3.org/2000/svg" xmlns:xlink="http://www.w3.org/1999/xlink" x="0px" y="0px"
	 viewBox="0 0 260 260" style="enable-background:new 0 0 260 260;" xml:space="preserve">
<style type="text/css">
	.st0{fill:#FFFFFF;}
	.st1{fill:#C7DDEB;}
	.st2{fill:#3D4451;}
	.st3{fill:#F5FAFC;}
	.st4{fill:#7EB9C7;}
	.st5{fill:#FDC345;}
	.st6{fill:#F04F4C;}
	.st7{fill:none;}
</style>
<g id="Grupo_84675" transform="translate(-896.914 -3105.795)">
	<path id="Trazado_125909" d="M925.2,3143.2h-5.5v5.7h-3.4v-14.2h9.5v2.6h-6.1v3.3h5.5V3143.2z M933.1,3147.8
		c-0.7,0.9-1.7,1.4-2.8,1.3c-1,0.1-1.9-0.3-2.6-1c-0.6-0.8-1-1.9-0.9-2.9v-6.8h3.3v6.9c-0.1,0.6,0.3,1.3,1,1.4c0.1,0,0.2,0,0.3,0
		c0.6,0.1,1.3-0.3,1.6-0.8v-7.4h3.3v10.6h-3.1L933.1,3147.8z M943.2,3149.1c-1.5,0.1-2.9-0.5-3.9-1.4c-1-1-1.6-2.4-1.5-3.8v-0.3
		c0-1,0.2-2,0.6-2.9c0.4-0.8,1-1.5,1.8-1.9c0.8-0.5,1.8-0.7,2.7-0.7c1.3-0.1,2.6,0.4,3.5,1.4c0.9,1.1,1.4,2.5,1.3,3.9v1.3h-6.5
		c0.1,0.5,0.4,1,0.8,1.4c0.4,0.4,1,0.5,1.5,0.5c0.9,0,1.8-0.4,2.4-1.1l1.5,1.8c-0.5,0.6-1.1,1.1-1.7,1.3
		C944.8,3148.9,944,3149.1,943.2,3149.1z M942.8,3140.7c-1,0-1.5,0.6-1.7,1.9h3.3v-0.3c0-0.4-0.1-0.9-0.4-1.2
		C943.7,3140.8,943.3,3140.7,942.8,3140.7L942.8,3140.7z M952,3138.3l0.1,1.2c0.7-0.9,1.8-1.5,3-1.4c0.9-0.1,1.8,0.3,2.5,1
		c0.6,0.9,0.9,1.9,0.8,3v6.8h-3.3v-6.7c0-0.4-0.1-0.8-0.3-1.2c-0.3-0.3-0.7-0.4-1.2-0.4c-0.6,0-1.1,0.3-1.4,0.8v7.5h-3.3v-10.6
		L952,3138.3z M964.1,3135.7v2.6h1.7v2.3h-1.7v4.8c0,0.3,0,0.6,0.2,0.8c0.2,0.2,0.5,0.3,0.9,0.2c0.3,0,0.5,0,0.8-0.1v2.3
		c-0.6,0.2-1.2,0.3-1.9,0.3c-0.9,0.1-1.8-0.2-2.5-0.8c-0.6-0.7-0.9-1.5-0.8-2.4v-5.2h-1.3v-2.3h1.3v-2.6L964.1,3135.7z
		 M972.2,3149.1c-1.5,0.1-2.9-0.5-3.9-1.4c-1-1-1.6-2.4-1.5-3.8v-0.3c0-1,0.2-2,0.6-2.9c0.4-0.8,1-1.5,1.8-1.9
		c0.8-0.5,1.8-0.7,2.7-0.7c1.3-0.1,2.6,0.4,3.5,1.4c0.9,1.1,1.4,2.5,1.3,3.9v1.3h-6.5c0.1,0.5,0.4,1,0.8,1.4c0.4,0.4,1,0.5,1.5,0.5
		c0.9,0,1.8-0.4,2.4-1.1l1.5,1.8c-0.4,0.6-1,1.1-1.7,1.3C973.9,3148.9,973.1,3149.1,972.2,3149.1z M971.9,3140.7
		c-1,0-1.5,0.6-1.7,1.9h3.3v-0.3c0-0.4-0.1-0.9-0.4-1.2C972.7,3140.8,972.3,3140.7,971.9,3140.7L971.9,3140.7z M983.5,3145.9
		c0-0.3-0.2-0.6-0.4-0.7c-0.5-0.2-1.1-0.4-1.7-0.5c-0.7-0.1-1.4-0.4-2-0.7c-0.5-0.3-0.9-0.6-1.2-1.1c-0.3-0.4-0.4-0.9-0.4-1.5
		c0-0.9,0.4-1.8,1.2-2.4c0.9-0.7,2-1,3.1-0.9c1.2-0.1,2.4,0.3,3.4,0.9c0.8,0.6,1.3,1.5,1.3,2.5h-3.3c0-0.8-0.4-1.3-1.3-1.3
		c-0.3,0-0.6,0.1-0.9,0.3c-0.2,0.2-0.4,0.4-0.4,0.7c0,0.3,0.2,0.6,0.4,0.7c0.4,0.2,0.9,0.4,1.4,0.4c0.6,0.1,1.1,0.2,1.7,0.4
		c1.4,0.3,2.4,1.5,2.4,2.9c0,1-0.5,1.8-1.3,2.4c-1,0.6-2.1,1-3.3,0.9c-0.8,0-1.7-0.2-2.4-0.5c-0.7-0.3-1.2-0.7-1.7-1.3
		c-0.4-0.5-0.6-1.1-0.6-1.8h3.1c0,0.4,0.2,0.8,0.5,1.1c0.4,0.2,0.8,0.4,1.2,0.3c0.4,0,0.7-0.1,1-0.3
		C983.4,3146.5,983.5,3146.2,983.5,3145.9L983.5,3145.9z M992.8,3143.5c-0.1-1.4,0.3-2.8,1.1-4c0.7-1,1.8-1.5,3-1.4
		c0.9,0,1.8,0.4,2.4,1.1v-5.4h3.3v15h-3l-0.2-1.1c-0.6,0.8-1.6,1.3-2.6,1.3c-1.2,0-2.3-0.5-3-1.4
		C993.1,3146.4,992.7,3145,992.8,3143.5z M996.1,3143.7c0,1.9,0.5,2.8,1.6,2.8c0.7,0,1.3-0.3,1.6-0.9v-4c-0.3-0.6-0.9-1-1.5-0.9
		c-1,0-1.6,0.8-1.7,2.5L996.1,3143.7z M1009.6,3149.1c-1.5,0.1-2.9-0.5-3.9-1.4c-1-1-1.6-2.4-1.5-3.8v-0.3c0-1,0.2-2,0.6-2.9
		c0.4-0.8,1-1.5,1.8-1.9c0.8-0.5,1.8-0.7,2.7-0.7c1.3-0.1,2.6,0.4,3.5,1.4c0.9,1.1,1.4,2.5,1.3,3.9v1.3h-6.5c0.1,0.5,0.4,1,0.8,1.4
		c0.4,0.4,1,0.5,1.5,0.5c0.9,0,1.8-0.4,2.4-1.1l1.5,1.8c-0.4,0.6-1,1.1-1.7,1.3C1011.2,3148.9,1010.4,3149.1,1009.6,3149.1z
		 M1009.2,3140.7c-1,0-1.5,0.6-1.7,1.9h3.3v-0.3c0-0.4-0.1-0.9-0.4-1.2C1010.1,3140.8,1009.7,3140.6,1009.2,3140.7z M1023.8,3148.9
		h-3.3v-10.6h3.3V3148.9z M1020.3,3135.6c0-0.4,0.2-0.9,0.5-1.2c0.4-0.3,0.8-0.5,1.3-0.5c0.5,0,1,0.1,1.3,0.5
		c0.3,0.3,0.5,0.7,0.5,1.2c0,0.4-0.2,0.9-0.5,1.2c-0.4,0.3-0.8,0.5-1.3,0.5c-0.5,0-1-0.1-1.3-0.5
		C1020.5,3136.5,1020.3,3136,1020.3,3135.6L1020.3,3135.6z M1028.9,3138.3l0.1,1.2c0.7-0.9,1.8-1.5,3-1.4c0.9-0.1,1.8,0.3,2.5,1
		c0.6,0.9,0.9,1.9,0.8,3v6.8h-3.3v-6.7c0-0.4-0.1-0.8-0.3-1.2c-0.3-0.3-0.7-0.4-1.2-0.4c-0.6,0-1.1,0.3-1.4,0.8v7.5h-3.3v-10.6
		H1028.9z M1037.8,3148.9v-8.3h-1.5v-2.3h1.5v-0.8c-0.1-1,0.3-2.1,1.1-2.8c0.8-0.7,1.9-1.1,3-1c0.5,0,1,0.1,1.5,0.2l0,2.4
		c-0.3-0.1-0.5-0.1-0.8-0.1c-1,0-1.5,0.4-1.5,1.3v0.8h2.1v2.3h-2.1v8.3H1037.8z M1043.9,3143.5c0-1,0.2-1.9,0.6-2.8
		c0.4-0.8,1-1.5,1.8-1.9c0.8-0.5,1.8-0.7,2.7-0.7c1.4-0.1,2.8,0.5,3.7,1.5c1,1.1,1.4,2.5,1.4,4v0.1c0.1,1.4-0.4,2.8-1.4,3.9
		c-1,1-2.3,1.5-3.7,1.5c-1.3,0.1-2.7-0.4-3.6-1.4c-0.9-1-1.5-2.3-1.5-3.7L1043.9,3143.5z M1047.2,3143.7c-0.1,0.7,0.1,1.5,0.5,2.1
		c0.3,0.5,0.8,0.7,1.4,0.7c1.2,0,1.8-0.9,1.8-2.7v-0.3c0-1.9-0.6-2.8-1.8-2.8c-1.1,0-1.7,0.8-1.8,2.5L1047.2,3143.7z M1062,3141.3
		l-1.1-0.1c-0.8-0.1-1.6,0.3-2,1v6.7h-3.3v-10.6h3.1l0.1,1.4c0.4-0.9,1.3-1.5,2.3-1.6c0.3,0,0.6,0,0.9,0.1L1062,3141.3z
		 M1066.3,3138.3l0.1,1.2c0.7-0.9,1.8-1.5,3-1.4c1.1-0.1,2.2,0.5,2.7,1.6c0.7-1,1.9-1.6,3.1-1.6c2.1,0,3.2,1.3,3.3,3.9v6.9h-3.3
		v-6.7c0-0.4-0.1-0.8-0.3-1.2c-0.3-0.3-0.6-0.4-1-0.4c-0.6,0-1.2,0.3-1.5,0.9l0,0.1v7.2h-3.3v-6.6c0-0.4-0.1-0.8-0.3-1.2
		c-0.3-0.3-0.6-0.4-1-0.4c-0.6,0-1.2,0.3-1.4,0.9v7.4h-3.3v-10.6L1066.3,3138.3z M1086.4,3148.9c-0.1-0.3-0.3-0.6-0.3-0.9
		c-0.6,0.8-1.6,1.2-2.5,1.1c-0.9,0-1.8-0.3-2.5-0.9c-0.7-0.6-1.1-1.4-1-2.3c-0.1-1,0.4-2,1.3-2.6c1.1-0.7,2.4-1,3.7-0.9h1v-0.6
		c0-1-0.4-1.5-1.3-1.5c-0.6-0.1-1.1,0.3-1.2,0.9c0,0.1,0,0.2,0,0.3h-3.3c0-1,0.5-1.9,1.3-2.5c1-0.7,2.1-1,3.3-1
		c1.1-0.1,2.3,0.3,3.2,1c0.8,0.7,1.2,1.7,1.2,2.7v4.7c0,0.8,0.1,1.5,0.4,2.2v0.2H1086.4z M1084.3,3146.8c0.4,0,0.7-0.1,1-0.3
		c0.2-0.1,0.4-0.4,0.6-0.6v-1.7h-1c-1.1,0-1.7,0.5-1.7,1.5c0,0.3,0.1,0.5,0.3,0.7C1083.7,3146.7,1084,3146.8,1084.3,3146.8z
		 M1095.5,3146.6c0.4,0,0.8-0.1,1.1-0.4c0.3-0.3,0.4-0.7,0.4-1h3.1c0,1.1-0.4,2.1-1.2,2.9c-0.9,0.8-2,1.2-3.2,1.1
		c-1.4,0.1-2.7-0.5-3.6-1.4c-0.9-1.1-1.4-2.5-1.3-4v-0.1c0-1,0.2-1.9,0.6-2.8c0.4-0.8,1-1.4,1.7-1.9c0.8-0.5,1.7-0.7,2.6-0.7
		c1.2-0.1,2.4,0.3,3.3,1.1c0.8,0.8,1.3,1.9,1.2,3.1h-3.1c0-0.5-0.1-0.9-0.4-1.3c-0.3-0.3-0.7-0.5-1.1-0.4c-0.9,0-1.4,0.5-1.5,1.6
		c-0.1,0.5-0.1,0.9-0.1,1.4c-0.1,0.8,0.1,1.5,0.4,2.2C1094.5,3146.4,1095,3146.6,1095.5,3146.6L1095.5,3146.6z M1104.9,3148.9h-3.3
		v-10.6h3.3V3148.9z M1101.4,3135.6c0-0.4,0.2-0.9,0.5-1.2c0.4-0.3,0.8-0.5,1.3-0.5c0.5,0,1,0.1,1.3,0.5c0.3,0.3,0.5,0.7,0.5,1.2
		c0,0.4-0.2,0.9-0.5,1.2c-0.4,0.3-0.8,0.5-1.3,0.5c-0.5,0-1-0.1-1.3-0.5C1101.6,3136.5,1101.4,3136,1101.4,3135.6L1101.4,3135.6z
		 M1106.5,3143.5c0-1,0.2-1.9,0.6-2.8c0.4-0.8,1-1.5,1.8-1.9c0.8-0.5,1.8-0.7,2.7-0.7c1.4-0.1,2.8,0.5,3.7,1.5c1,1.1,1.4,2.5,1.4,4
		v0.1c0.1,1.4-0.4,2.8-1.4,3.9c-1,1-2.3,1.5-3.7,1.5c-1.3,0.1-2.7-0.4-3.6-1.4c-0.9-1-1.5-2.3-1.5-3.7L1106.5,3143.5z
		 M1109.8,3143.7c-0.1,0.7,0.1,1.5,0.5,2.1c0.3,0.5,0.8,0.7,1.4,0.7c1.2,0,1.8-0.9,1.8-2.7v-0.3c0-1.9-0.6-2.8-1.8-2.8
		c-1.1,0-1.7,0.8-1.8,2.5L1109.8,3143.7z M1112,3133.9h3.5l-2.7,3.1h-2.7L1112,3133.9z M1121.2,3138.3l0.1,1.2
		c0.7-0.9,1.8-1.5,3-1.4c0.9-0.1,1.8,0.3,2.5,1c0.6,0.9,0.9,1.9,0.8,3v6.8h-3.3v-6.7c0-0.4-0.1-0.8-0.3-1.2
		c-0.3-0.3-0.7-0.4-1.2-0.4c-0.6,0-1.1,0.3-1.4,0.8v7.5h-3.3v-10.6H1121.2z M975.8,3172.9c0-0.3-0.2-0.6-0.4-0.7
		c-0.5-0.2-1.1-0.4-1.7-0.5c-0.7-0.1-1.4-0.4-2-0.7c-0.5-0.3-0.9-0.6-1.2-1.1c-0.3-0.4-0.4-0.9-0.4-1.5c0-0.9,0.4-1.8,1.2-2.4
		c0.9-0.7,2-1,3.1-0.9c1.2-0.1,2.4,0.3,3.4,0.9c0.8,0.6,1.3,1.5,1.3,2.5h-3.3c0-0.8-0.4-1.3-1.3-1.3c-0.3,0-0.6,0.1-0.9,0.3
		c-0.2,0.2-0.4,0.4-0.4,0.7c0,0.3,0.2,0.6,0.4,0.7c0.4,0.2,0.9,0.4,1.4,0.4c0.6,0.1,1.1,0.2,1.7,0.4c1.4,0.3,2.4,1.5,2.4,2.9
		c0,1-0.5,1.8-1.3,2.4c-1,0.6-2.1,1-3.3,0.9c-0.8,0-1.7-0.2-2.4-0.5c-0.7-0.3-1.2-0.7-1.7-1.3c-0.4-0.5-0.6-1.1-0.6-1.8h3.1
		c0,0.4,0.2,0.8,0.5,1.1c0.4,0.2,0.8,0.4,1.2,0.3c0.4,0,0.7-0.1,1-0.3C975.7,3173.5,975.8,3173.2,975.8,3172.9L975.8,3172.9z
		 M985.7,3176.1c-1.5,0.1-2.9-0.5-3.9-1.4c-1-1-1.6-2.4-1.5-3.8v-0.3c0-1,0.2-2,0.6-2.9c0.4-0.8,1-1.5,1.8-1.9
		c0.8-0.5,1.8-0.7,2.7-0.7c1.3-0.1,2.6,0.4,3.5,1.4c0.9,1.1,1.4,2.5,1.3,3.9v1.3h-6.5c0.1,0.5,0.4,1,0.8,1.4c0.4,0.4,1,0.5,1.5,0.5
		c0.9,0,1.8-0.4,2.4-1.1l1.5,1.8c-0.5,0.6-1.1,1.1-1.7,1.4C987.3,3175.9,986.5,3176.1,985.7,3176.1L985.7,3176.1z M985.3,3167.7
		c-1,0-1.5,0.6-1.7,1.9h3.3v-0.3c0-0.4-0.1-0.9-0.4-1.2C986.2,3167.8,985.7,3167.7,985.3,3167.7L985.3,3167.7z M995.9,3173.6
		c0.4,0,0.8-0.1,1.1-0.4c0.3-0.3,0.4-0.7,0.4-1.1h3.1c0,1.1-0.4,2.1-1.2,2.9c-0.9,0.8-2,1.2-3.2,1.1c-1.4,0.1-2.7-0.5-3.6-1.4
		c-0.9-1.1-1.4-2.5-1.3-4v-0.1c0-1,0.2-1.9,0.6-2.8c0.4-0.8,1-1.4,1.7-1.9c0.8-0.5,1.7-0.7,2.6-0.7c1.2-0.1,2.4,0.3,3.3,1.1
		c0.8,0.8,1.3,1.9,1.2,3.1h-3.1c0-0.5-0.1-0.9-0.4-1.3c-0.3-0.3-0.7-0.5-1.1-0.4c-0.9,0-1.4,0.5-1.5,1.6c-0.1,0.5-0.1,0.9-0.1,1.4
		c-0.1,0.8,0.1,1.5,0.4,2.2C994.9,3173.4,995.4,3173.6,995.9,3173.6L995.9,3173.6z M1008.1,3174.8c-0.7,0.9-1.7,1.4-2.8,1.3
		c-1,0.1-1.9-0.3-2.6-1c-0.6-0.8-1-1.9-0.9-2.9v-6.8h3.3v6.9c-0.1,0.6,0.3,1.3,1,1.4c0.1,0,0.2,0,0.3,0c0.6,0.1,1.3-0.3,1.6-0.8
		v-7.4h3.3v10.6h-3.1L1008.1,3174.8z M1016.1,3165.3l0.1,1.2c0.7-0.9,1.8-1.5,3-1.4c0.9-0.1,1.8,0.3,2.5,1c0.6,0.9,0.9,1.9,0.8,3
		v6.8h-3.3v-6.7c0-0.4-0.1-0.8-0.3-1.2c-0.3-0.3-0.7-0.4-1.2-0.4c-0.6,0-1.1,0.3-1.4,0.8v7.5h-3.3v-10.6L1016.1,3165.3z
		 M1024,3170.5c-0.1-1.4,0.3-2.8,1.1-4c0.7-1,1.8-1.5,3-1.4c0.9,0,1.8,0.4,2.4,1.1v-5.4h3.3v15h-3l-0.2-1.1
		c-0.6,0.8-1.6,1.3-2.6,1.3c-1.2,0-2.3-0.5-3-1.4C1024.3,3173.4,1023.9,3172,1024,3170.5L1024,3170.5z M1027.3,3170.7
		c0,1.9,0.5,2.8,1.6,2.8c0.7,0,1.3-0.3,1.6-0.9v-4c-0.3-0.6-0.9-1-1.5-0.9c-1,0-1.6,0.8-1.7,2.5L1027.3,3170.7z M1041.6,3175.9
		c-0.1-0.3-0.3-0.6-0.3-0.9c-0.6,0.8-1.6,1.2-2.5,1.1c-0.9,0-1.8-0.3-2.5-0.9c-0.7-0.6-1.1-1.4-1-2.3c-0.1-1,0.4-2,1.3-2.6
		c1.1-0.7,2.4-1,3.7-0.9h1v-0.6c0-1-0.4-1.5-1.3-1.5c-0.6-0.1-1.1,0.3-1.2,0.9c0,0.1,0,0.2,0,0.3h-3.3c0-1,0.5-1.9,1.3-2.5
		c1-0.7,2.1-1,3.3-1c1.1-0.1,2.3,0.3,3.2,1c0.8,0.7,1.2,1.7,1.2,2.7v4.7c0,0.8,0.1,1.5,0.4,2.2v0.2H1041.6z M1039.5,3173.8
		c0.4,0,0.7-0.1,1-0.3c0.2-0.1,0.4-0.4,0.6-0.6v-1.7h-1c-1.1,0-1.7,0.5-1.7,1.5c0,0.3,0.1,0.5,0.3,0.7
		C1039,3173.7,1039.2,3173.8,1039.5,3173.8z M1052.6,3168.3l-1.1-0.1c-0.8-0.1-1.6,0.3-2,1v6.7h-3.3v-10.6h3.1l0.1,1.4
		c0.4-0.9,1.3-1.5,2.3-1.6c0.3,0,0.6,0,0.9,0.1L1052.6,3168.3z M1057.3,3175.9h-3.3v-10.6h3.3V3175.9z M1053.8,3162.6
		c0-0.4,0.2-0.9,0.5-1.2c0.8-0.6,1.9-0.6,2.6,0c0.6,0.6,0.7,1.6,0.1,2.2c0,0-0.1,0.1-0.1,0.1c-0.8,0.6-1.9,0.6-2.6,0
		C1054,3163.5,1053.8,3163,1053.8,3162.6L1053.8,3162.6z M1065.3,3175.9c-0.1-0.3-0.3-0.6-0.3-0.9c-0.6,0.8-1.6,1.2-2.5,1.1
		c-0.9,0-1.8-0.3-2.5-0.9c-0.7-0.6-1.1-1.4-1-2.3c-0.1-1,0.4-2,1.3-2.6c1.1-0.7,2.4-1,3.7-0.9h1v-0.6c0-1-0.4-1.5-1.3-1.5
		c-0.6-0.1-1.1,0.3-1.2,0.9c0,0.1,0,0.2,0,0.3h-3.3c0-1,0.5-1.9,1.3-2.5c1-0.7,2.1-1,3.3-1c1.1-0.1,2.3,0.3,3.2,1
		c0.8,0.7,1.2,1.7,1.2,2.7v4.7c0,0.8,0.1,1.5,0.4,2.2v0.2H1065.3z M1063.2,3173.8c0.4,0,0.7-0.1,1-0.3c0.2-0.1,0.4-0.4,0.6-0.6v-1.7
		h-1c-1.1,0-1.7,0.5-1.7,1.5c0,0.3,0.1,0.5,0.3,0.7C1062.7,3173.7,1062.9,3173.8,1063.2,3173.8z M1075.5,3172.9
		c0-0.3-0.2-0.6-0.4-0.7c-0.5-0.2-1.1-0.4-1.7-0.5c-0.7-0.1-1.4-0.4-2-0.7c-0.5-0.3-0.9-0.6-1.2-1.1c-0.3-0.4-0.4-0.9-0.4-1.5
		c0-0.9,0.4-1.8,1.2-2.4c0.9-0.7,2-1,3.1-0.9c1.2-0.1,2.4,0.3,3.4,0.9c0.8,0.6,1.3,1.5,1.3,2.5h-3.3c0-0.8-0.4-1.3-1.3-1.3
		c-0.3,0-0.6,0.1-0.9,0.3c-0.2,0.2-0.4,0.4-0.4,0.7c0,0.3,0.2,0.6,0.4,0.7c0.4,0.2,0.9,0.4,1.4,0.4c0.6,0.1,1.1,0.2,1.7,0.4
		c1.4,0.3,2.4,1.5,2.4,2.9c0,1-0.5,1.8-1.3,2.4c-1,0.6-2.1,1-3.3,0.9c-0.8,0-1.7-0.2-2.4-0.5c-0.7-0.3-1.2-0.7-1.7-1.3
		c-0.4-0.5-0.6-1.1-0.6-1.8h3.1c0,0.4,0.2,0.8,0.5,1.1c0.4,0.2,0.8,0.4,1.2,0.3c0.4,0,0.7-0.1,1-0.3
		C1075.3,3173.5,1075.5,3173.2,1075.5,3172.9L1075.5,3172.9z"/>
	<g id="Grupo_83481" transform="translate(0 93)">
		<g id="Grupo_83479" transform="translate(-2115.48 1648.804)">
			<path id="Rectángulo_24289" class="st0" d="M3098.8,1495.3h83.2c1.1,0,2,0.9,2,2v52.9c0,1.1-0.9,2-2,2h-83.2c-1.1,0-2-0.9-2-2
				v-52.9C3096.8,1496.1,3097.7,1495.3,3098.8,1495.3z"/>
			<path id="Trazado_104237" class="st1" d="M3148.8,1566.2l-1.5-5.9h-15.1l-1.2,5.9c-0.2,1-1.7,1.8-3.6,1.8h-5.7v3.6h36.4v-3.6
				h-5.8C3150.6,1568,3149.1,1567.2,3148.8,1566.2z"/>
			<path id="Trazado_104238" class="st2" d="M3093.6,1560.3c-1.3,0-2.6-0.5-3.5-1.5c-0.9-0.9-1.5-2.2-1.5-3.6v-63.9c0-2.8,2.2-5,5-5
				l80.8,0v2.9h-80.8c-1.2,0-2.2,1-2.1,2.2v63.9c0,0.6,0.2,1.1,0.6,1.5c0.4,0.4,0.9,0.6,1.5,0.6l92.4,0c1.2,0,2.2-1,2.1-2.2v-63.9
				c0-1.2-1-2.2-2.1-2.2h-6.8v-2.9h6.8c2.8,0,5,2.3,5,5v63.9c0,2.8-2.2,5-5,5L3093.6,1560.3z"/>
			<path id="Trazado_104239" class="st2" d="M3115.3,1576.7v-7.5h8.5c2,0,3.2-0.9,3.4-1.5l1.7-9.2h21.3l2.1,9.3
				c0.1,0.6,1.4,1.5,3.3,1.5h8.6v7.5L3115.3,1576.7z M3117.7,1571.6v2.6h44.1v-2.6h-6.2c-2.9,0-5.3-1.4-5.7-3.4l-1.7-7.4h-17.3
				l-1.3,7.2c-0.4,2-2.8,3.5-5.8,3.5H3117.7z"/>
			<g id="Grupo_83470" transform="translate(3089.023 1474.772)">
				<g id="Grupo_83469" transform="translate(0 0)">
					<g id="Grupo_83468">
						<g id="Grupo_83459" transform="translate(0.716 0.716)">
							<g id="Grupo_83458">
								<g id="Grupo_83457">
									<path id="Trazado_104240" class="st3" d="M29.5,39c-3.1,0.2-5.7-2.2-5.8-5.2c-0.2-3.1,2.2-5.7,5.2-5.8s5.7,2.2,5.8,5.2
										c0,0.2,0,0.4,0,0.6C34.6,36.6,32.3,38.8,29.5,39z"/>
									<path id="Trazado_104241" class="st3" d="M21.1,50.9c-1,0-1.8-0.8-1.8-1.8c0-0.1,0-0.2,0-0.4c1-4.8,4.9-9.1,9.6-9.1
										s8.6,4.3,9.6,9.1c0.2,1-0.4,2-1.4,2.2c-0.1,0-0.2,0-0.4,0L21.1,50.9z"/>
								</g>
							</g>
						</g>
						<g id="Grupo_83462" transform="translate(5.016 2.81)">
							<g id="Grupo_83461">
								<g id="Grupo_83460">
									<path id="Trazado_104242" class="st4" d="M26.3,36.6c-2.4,0.2-4.5-1.6-4.7-4.1c-0.2-2.4,1.6-4.5,4.1-4.7s4.5,1.6,4.7,4.1
										c0,0.2,0,0.4,0,0.5C30.3,34.7,28.5,36.5,26.3,36.6z"/>
									<path id="Trazado_104243" class="st4" d="M20.7,48.8c-0.9-0.1-1.5-0.9-1.4-1.8c0-0.1,0-0.2,0-0.2c0.7-4.4,3.8-8.3,7.4-8.3
										s6.7,3.9,7.4,8.2c0.2,0.9-0.3,1.7-1.2,1.9c-0.1,0-0.1,0-0.2,0L20.7,48.8z"/>
								</g>
							</g>
						</g>
						<g id="Grupo_83464">
							<g id="Grupo_83463">
								<path id="Trazado_104244" class="st2" d="M29.9,40.4c-3.5,0-6.2-2.8-6.2-6.3c0-3.5,2.8-6.2,6.3-6.2s6.2,2.8,6.2,6.3
									c0,3.3-2.6,6.1-5.9,6.2l0,0C30.2,40.4,30,40.4,29.9,40.4z M29.9,29.3c-0.1,0-0.2,0-0.2,0c-2.7,0.1-4.7,2.4-4.6,5.1
									s2.4,4.7,5.1,4.6l0,0l0,0c2.7-0.1,4.7-2.4,4.6-5.1C34.6,31.3,32.5,29.3,29.9,29.3L29.9,29.3z"/>
								<path id="Trazado_104245" class="st2" d="M21.9,52.4c-1.4,0-2.5-1.1-2.5-2.5c0-0.2,0-0.3,0-0.5c1.1-5.5,5.5-9.7,10.3-9.7h0
									c4.8,0,9.2,4.2,10.3,9.7c0.3,1.4-0.6,2.7-2,3c-0.2,0-0.3,0.1-0.5,0.1L21.9,52.4L21.9,52.4z M29.6,41.1L29.6,41.1
									c-4.5,0-8,4.3-8.9,8.5c-0.1,0.3,0,0.7,0.2,0.9c0.2,0.3,0.5,0.4,0.9,0.4l0,0l15.6,0c0.3,0,0.6-0.1,0.9-0.4
									c0.2-0.3,0.3-0.6,0.2-0.9C37.7,45.4,34.1,41.1,29.6,41.1L29.6,41.1z"/>
							</g>
						</g>
						<g id="Grupo_83467">
							<g id="Grupo_83466">
								<g id="Grupo_83465">
									<path id="Trazado_104246" class="st2" d="M29.9,40.4c-3.5,0-6.2-2.8-6.2-6.3c0-3.5,2.8-6.2,6.3-6.2s6.2,2.8,6.2,6.3
										c0,3.3-2.6,6.1-5.9,6.2l0,0C30.2,40.4,30,40.4,29.9,40.4z M29.9,29.3c-0.1,0-0.2,0-0.2,0c-2.7,0.1-4.7,2.4-4.6,5.1
										s2.4,4.7,5.1,4.6l0,0l0,0c2.7-0.1,4.7-2.4,4.6-5.1C34.6,31.3,32.5,29.3,29.9,29.3L29.9,29.3z"/>
									<path id="Trazado_104247" class="st2" d="M21.9,52.4c-1.4,0-2.5-1.1-2.5-2.5c0-0.2,0-0.3,0-0.5c1.1-5.5,5.5-9.7,10.3-9.7h0
										c4.8,0,9.2,4.2,10.3,9.7c0.3,1.4-0.6,2.7-2,3c-0.2,0-0.3,0.1-0.5,0.1L21.9,52.4L21.9,52.4z M29.6,41.1L29.6,41.1
										c-4.5,0-8,4.3-8.9,8.5c-0.1,0.3,0,0.7,0.2,0.9c0.2,0.3,0.5,0.4,0.9,0.4l0,0l15.6,0c0.3,0,0.6-0.1,0.9-0.4
										c0.2-0.3,0.3-0.6,0.2-0.9C37.7,45.4,34.1,41.1,29.6,41.1L29.6,41.1z"/>
								</g>
							</g>
						</g>
					</g>
				</g>
			</g>
			<g id="Grupo_83475" transform="translate(3129.49 1492.257)">
				<g id="Grupo_83471" transform="translate(6.918 7.227)">
					<rect id="Rectángulo_24290" x="19.9" y="28.5" class="st5" width="4.9" height="10.5"/>
					<path id="Trazado_104248" class="st2" d="M19.3,39.5V27.9h6v11.6L19.3,39.5z M20.4,29v9.4h3.8V29H20.4z"/>
				</g>
				<g id="Grupo_83472" transform="translate(20.511 0)">
					<rect id="Rectángulo_24291" x="19.9" y="28.5" class="st6" width="4.9" height="17.7"/>
					<path id="Trazado_104249" class="st2" d="M19.3,46.7V27.9h6v18.8H19.3z M20.4,29v16.6h3.8V29H20.4z"/>
				</g>
				<g id="Grupo_83473" transform="translate(13.804 3.855)">
					<rect id="Rectángulo_24292" x="19.9" y="28.5" class="st4" width="4.9" height="13.9"/>
					<path id="Trazado_104250" class="st2" d="M19.3,42.9v-15h6v15H19.3z M20.4,29v12.7h3.8V29L20.4,29z"/>
				</g>
				<g id="Grupo_83474" transform="translate(0 12.286)">
					<rect id="Rectángulo_24293" x="19.9" y="28.5" class="st4" width="4.9" height="5.4"/>
					<path id="Trazado_104251" class="st2" d="M19.3,34.4v-6.5h6v6.5H19.3z M20.4,29v4.3h3.8V29H20.4z"/>
				</g>
			</g>
			<g id="Grupo_83476" transform="translate(3128.724 1473.827)">
				<rect id="Rectángulo_24294" x="19.9" y="28.5" class="st3" width="11.3" height="11"/>
				<path id="Trazado_104252" class="st2" d="M19.3,40.1V27.9h12.5v12.2H19.3z M20.5,29.1v9.8h10v-9.8H20.5z"/>
			</g>
			<path id="Trazado_104253" class="st2" d="M3139.9,1538.6c-0.6,0-1-0.5-1-1v-39.9c0-0.6,0.4-1,1-1c0.6,0,1,0.4,1,1c0,0,0,0,0,0
				v39.9C3141,1538.2,3140.5,1538.6,3139.9,1538.6z"/>
			<rect id="Rectángulo_24295" x="3163.3" y="1505.8" class="st2" width="12.9" height="1.5"/>
			<rect id="Rectángulo_24296" x="3163.3" y="1510.9" class="st2" width="12.9" height="1.5"/>
			<rect id="Rectángulo_24297" x="3107.8" y="1531.7" class="st2" width="23.5" height="1.3"/>
			<rect id="Rectángulo_24298" x="3107.8" y="1537" class="st2" width="23.5" height="1.3"/>
			<path id="Trazado_104254" class="st2" d="M3101.9,1549.3c-2.9,0-5.3-2.4-5.3-5.3v0v-43.9c0-2.6,2.1-4.7,4.7-4.7h76.5
				c2.6,0,4.7,2.1,4.7,4.7c0,0,0,0,0,0v43.9c0,2.9-2.4,5.3-5.3,5.3H3101.9z M3177.8,1497.4h-76.5c-1.5,0-2.7,1.2-2.7,2.7v43.9
				c0,1.8,1.5,3.3,3.3,3.3c0,0,0,0,0,0h75.3c1.8,0,3.3-1.5,3.3-3.3v-43.9C3180.5,1498.6,3179.3,1497.4,3177.8,1497.4L3177.8,1497.4z
				"/>
			<g id="Grupo_83478" transform="translate(3072.493 1462.792)">
				<circle id="Elipse_4138" class="st3" cx="29.3" cy="37.9" r="7.1"/>
				<circle id="Elipse_4139" class="st5" cx="30.3" cy="38.9" r="6"/>
				<g id="Grupo_83477" transform="translate(8.511 5.896)">
					<path id="Rectángulo_24299" class="st2" d="M20.8,36.8L20.8,36.8c-0.6,0-1.1-0.5-1.1-1.1v-3.2c0-0.6,0.5-1.1,1.1-1.1
						c0,0,0,0,0,0l0,0c0.6,0,1.1,0.5,1.1,1.1c0,0,0,0,0,0v3.2C21.9,36.3,21.4,36.8,20.8,36.8z"/>
					<path id="Trazado_104255" class="st2" d="M22.2,29.3c0-0.8-0.6-1.5-1.4-1.5c-0.8,0-1.5,0.6-1.5,1.4c0,0.8,0.6,1.5,1.4,1.5
						c0,0,0,0,0.1,0C21.5,30.7,22.2,30.1,22.2,29.3C22.2,29.3,22.2,29.3,22.2,29.3z"/>
				</g>
				<path id="Trazado_104256" class="st2" d="M29.3,45.6c-4.3,0-7.7-3.5-7.7-7.7l0,0c0-4.3,3.5-7.7,7.7-7.7s7.7,3.5,7.7,7.7
					C37,42.2,33.6,45.6,29.3,45.6z M29.3,31.5c-3.5,0-6.4,2.9-6.4,6.4l0,0c0,3.5,2.9,6.4,6.4,6.4c3.5,0,6.4-2.9,6.4-6.4
					C35.7,34.4,32.8,31.5,29.3,31.5z"/>
			</g>
			<path id="Trazado_104257" class="st2" d="M3145.7,1555h-11.3c-0.8,0-1.4-0.6-1.4-1.4l0,0c0-0.8,0.6-1.4,1.4-1.4h11.3
				c0.8,0,1.4,0.6,1.4,1.4l0,0C3147.1,1554.3,3146.5,1555,3145.7,1555z"/>
		</g>
		<rect id="Rectángulo_24301" x="959.3" y="3115.9" class="st7" width="129" height="129"/>
	</g>
</g>
</svg>
