<svg xmlns="http://www.w3.org/2000/svg" width="693" height="296" viewBox="0 0 693 296">
  <g id="Grupo_84678" data-name="Grupo 84678" transform="translate(-181 -1001)">
    <path id="Trazado_125922" data-name="Trazado 125922" d="M5,0H158a5,5,0,0,1,5,5V181a5,5,0,0,1-5,5H5a5,5,0,0,1-5-5V5A5,5,0,0,1,5,0Z" transform="translate(181 1057)" fill="#db6e5f"/>
    <path id="Trazado_125917" data-name="Trazado 125917" d="M5,0H155a5,5,0,0,1,5,5V56a5,5,0,0,1-5,5H5a5,5,0,0,1-5-5V5A5,5,0,0,1,5,0Z" transform="translate(437 1042)" fill="#eba69d"/>
    <path id="Trazado_125914" data-name="Trazado 125914" d="M5,0H155a5,5,0,0,1,5,5V56a5,5,0,0,1-5,5H5a5,5,0,0,1-5-5V5A5,5,0,0,1,5,0Z" transform="translate(437 1204)" fill="#eba69d"/>
    <path id="Trazado_125920" data-name="Trazado 125920" d="M5,0H194a5,5,0,0,1,5,5V56a5,5,0,0,1-5,5H5a5,5,0,0,1-5-5V5A5,5,0,0,1,5,0Z" transform="translate(675 1001)" fill="#a2e1ff"/>
    <path id="Trazado_125916" data-name="Trazado 125916" d="M5,0H194a5,5,0,0,1,5,5V56a5,5,0,0,1-5,5H5a5,5,0,0,1-5-5V5A5,5,0,0,1,5,0Z" transform="translate(675 1070)" fill="#a2e1ff"/>
    <path id="Trazado_125912" data-name="Trazado 125912" d="M5,0H194a5,5,0,0,1,5,5V56a5,5,0,0,1-5,5H5a5,5,0,0,1-5-5V5A5,5,0,0,1,5,0Z" transform="translate(675 1167)" fill="#a2e1ff"/>
    <path id="Trazado_125910" data-name="Trazado 125910" d="M5,0H194a5,5,0,0,1,5,5V56a5,5,0,0,1-5,5H5a5,5,0,0,1-5-5V5A5,5,0,0,1,5,0Z" transform="translate(675 1236)" fill="#a2e1ff"/>
    <path id="Trazado_125923" data-name="Trazado 125923" d="M5.871-3.173l2.9-9.624h2.936L7.251,0H4.5L.062-12.8H2.988ZM17.851,0A2.821,2.821,0,0,1,17.6-.853,3.073,3.073,0,0,1,15.2.176,3.376,3.376,0,0,1,12.88-.633a2.6,2.6,0,0,1-.918-2.039,2.687,2.687,0,0,1,1.121-2.32,5.529,5.529,0,0,1,3.239-.817H17.49v-.545a1.567,1.567,0,0,0-.338-1.055,1.331,1.331,0,0,0-1.068-.4,1.513,1.513,0,0,0-1.006.308,1.045,1.045,0,0,0-.365.844h-2.54a2.551,2.551,0,0,1,.51-1.529,3.37,3.37,0,0,1,1.441-1.1,5.253,5.253,0,0,1,2.092-.4,4.15,4.15,0,0,1,2.791.883,3.09,3.09,0,0,1,1.033,2.483V-2.2a4.546,4.546,0,0,0,.378,2.048V0Zm-2.1-1.767a2.188,2.188,0,0,0,1.037-.25,1.645,1.645,0,0,0,.7-.672V-4.324h-.949q-1.907,0-2.03,1.318l-.009.149a1.017,1.017,0,0,0,.334.782A1.3,1.3,0,0,0,15.75-1.767ZM27.334-7.128a6.9,6.9,0,0,0-.914-.07,1.86,1.86,0,0,0-1.89.976V0H21.99V-9.51h2.4l.07,1.134a2.354,2.354,0,0,1,2.118-1.31,2.662,2.662,0,0,1,.791.114ZM31.236,0H28.688V-9.51h2.549Zm-2.7-11.971a1.251,1.251,0,0,1,.382-.94,1.436,1.436,0,0,1,1.042-.369A1.44,1.44,0,0,1,31-12.911a1.244,1.244,0,0,1,.387.94,1.247,1.247,0,0,1-.391.949,1.443,1.443,0,0,1-1.033.369,1.443,1.443,0,0,1-1.033-.369A1.247,1.247,0,0,1,28.538-11.971ZM38.839,0a2.821,2.821,0,0,1-.255-.853,3.073,3.073,0,0,1-2.4,1.028,3.376,3.376,0,0,1-2.316-.809,2.6,2.6,0,0,1-.918-2.039,2.687,2.687,0,0,1,1.121-2.32A5.529,5.529,0,0,1,37.31-5.81h1.169v-.545a1.567,1.567,0,0,0-.338-1.055,1.331,1.331,0,0,0-1.068-.4,1.513,1.513,0,0,0-1.006.308,1.045,1.045,0,0,0-.365.844h-2.54a2.551,2.551,0,0,1,.51-1.529,3.37,3.37,0,0,1,1.441-1.1,5.253,5.253,0,0,1,2.092-.4,4.15,4.15,0,0,1,2.791.883,3.09,3.09,0,0,1,1.033,2.483V-2.2a4.546,4.546,0,0,0,.378,2.048V0Zm-2.1-1.767a2.188,2.188,0,0,0,1.037-.25,1.645,1.645,0,0,0,.7-.672V-4.324h-.949q-1.907,0-2.03,1.318l-.009.149a1.017,1.017,0,0,0,.334.782A1.3,1.3,0,0,0,36.738-1.767Zm14.81-2.9A5.758,5.758,0,0,1,50.572-1.1,3.231,3.231,0,0,1,47.848.176a2.969,2.969,0,0,1-2.47-1.187L45.264,0H42.979V-13.5h2.54v4.843A2.893,2.893,0,0,1,47.83-9.686a3.258,3.258,0,0,1,2.729,1.279,5.767,5.767,0,0,1,.989,3.6Zm-2.54-.194a3.8,3.8,0,0,0-.457-2.111,1.544,1.544,0,0,0-1.362-.666,1.675,1.675,0,0,0-1.67,1v3.764a1.7,1.7,0,0,0,1.688,1,1.569,1.569,0,0,0,1.617-1.217A6.294,6.294,0,0,0,49.008-4.861ZM55.793,0H53.244V-13.5h2.549Zm6.469.176a4.668,4.668,0,0,1-3.406-1.283,4.561,4.561,0,0,1-1.314-3.419v-.246A5.745,5.745,0,0,1,58.1-7.334a4.064,4.064,0,0,1,1.569-1.74,4.4,4.4,0,0,1,2.316-.611,3.947,3.947,0,0,1,3.072,1.23,5,5,0,0,1,1.121,3.489v1.037H60.117a2.36,2.36,0,0,0,.743,1.494,2.245,2.245,0,0,0,1.569.563,2.742,2.742,0,0,0,2.294-1.063l1.248,1.4A3.813,3.813,0,0,1,64.424-.277,5.075,5.075,0,0,1,62.262.176Zm-.29-7.813a1.587,1.587,0,0,0-1.226.512,2.651,2.651,0,0,0-.6,1.466h3.533v-.2a1.891,1.891,0,0,0-.457-1.311A1.638,1.638,0,0,0,61.972-7.638Z" transform="translate(235 1148)" fill="#12263f"/>
    <path id="Trazado_125919" data-name="Trazado 125919" d="M11.549,0H8.912L3.779-8.42V0H1.143V-12.8H3.779L8.921-4.359V-12.8h2.628ZM19.38-.967a3.185,3.185,0,0,1-2.6,1.143A3,3,0,0,1,14.445-.7a3.752,3.752,0,0,1-.822-2.575V-9.51h2.54v6.151q0,1.487,1.354,1.487a1.834,1.834,0,0,0,1.775-.9V-9.51h2.549V0H19.45ZM26.139-9.51l.079,1.063a3.342,3.342,0,0,1,2.733-1.239,2.536,2.536,0,0,1,2.522,1.45,3.265,3.265,0,0,1,2.856-1.45,2.836,2.836,0,0,1,2.3.9,4.141,4.141,0,0,1,.756,2.711V0H34.84V-6.078a1.818,1.818,0,0,0-.316-1.185,1.4,1.4,0,0,0-1.116-.374,1.585,1.585,0,0,0-1.582,1.092L31.834,0h-2.54V-6.07a1.8,1.8,0,0,0-.325-1.2,1.414,1.414,0,0,0-1.107-.37,1.645,1.645,0,0,0-1.564.9V0h-2.54V-9.51ZM43.717.176a4.668,4.668,0,0,1-3.406-1.283A4.561,4.561,0,0,1,39-4.526v-.246a5.745,5.745,0,0,1,.554-2.562,4.064,4.064,0,0,1,1.569-1.74,4.4,4.4,0,0,1,2.316-.611,3.947,3.947,0,0,1,3.072,1.23,5,5,0,0,1,1.121,3.489v1.037H41.572a2.36,2.36,0,0,0,.743,1.494,2.245,2.245,0,0,0,1.569.563,2.742,2.742,0,0,0,2.294-1.063l1.248,1.4A3.813,3.813,0,0,1,45.879-.277,5.075,5.075,0,0,1,43.717.176Zm-.29-7.813a1.587,1.587,0,0,0-1.226.512,2.651,2.651,0,0,0-.6,1.466h3.533v-.2a1.891,1.891,0,0,0-.457-1.311A1.638,1.638,0,0,0,43.427-7.638Zm.229-5.862h2.769l-2.435,2.725H41.924ZM54.413-7.128A6.9,6.9,0,0,0,53.5-7.2a1.86,1.86,0,0,0-1.89.976V0h-2.54V-9.51h2.4l.07,1.134a2.354,2.354,0,0,1,2.118-1.31,2.662,2.662,0,0,1,.791.114ZM58.315,0H55.767V-9.51h2.549Zm-2.7-11.971a1.251,1.251,0,0,1,.382-.94,1.436,1.436,0,0,1,1.042-.369,1.44,1.44,0,0,1,1.037.369,1.244,1.244,0,0,1,.387.94,1.247,1.247,0,0,1-.391.949,1.443,1.443,0,0,1-1.033.369,1.443,1.443,0,0,1-1.033-.369A1.247,1.247,0,0,1,55.617-11.971Zm8.745,10.1A1.666,1.666,0,0,0,65.5-2.259a1.355,1.355,0,0,0,.457-1.028h2.382a3.258,3.258,0,0,1-.527,1.771A3.48,3.48,0,0,1,66.4-.268a4.442,4.442,0,0,1-1.991.444,4.129,4.129,0,0,1-3.217-1.3A5.13,5.13,0,0,1,60.012-4.7v-.167a5.071,5.071,0,0,1,1.169-3.507,4.08,4.08,0,0,1,3.208-1.31A4,4,0,0,1,67.25-8.67a3.594,3.594,0,0,1,1.094,2.7H65.962A1.745,1.745,0,0,0,65.5-7.174a1.524,1.524,0,0,0-1.16-.464A1.53,1.53,0,0,0,63-6.991a3.749,3.749,0,0,0-.453,2.1v.264A3.8,3.8,0,0,0,63-2.515,1.549,1.549,0,0,0,64.362-1.872ZM75.3,0a2.821,2.821,0,0,1-.255-.853A3.073,3.073,0,0,1,72.65.176a3.376,3.376,0,0,1-2.316-.809,2.6,2.6,0,0,1-.918-2.039,2.687,2.687,0,0,1,1.121-2.32,5.529,5.529,0,0,1,3.239-.817h1.169v-.545a1.567,1.567,0,0,0-.338-1.055,1.331,1.331,0,0,0-1.068-.4,1.513,1.513,0,0,0-1.006.308,1.045,1.045,0,0,0-.365.844h-2.54a2.551,2.551,0,0,1,.51-1.529,3.37,3.37,0,0,1,1.441-1.1,5.253,5.253,0,0,1,2.092-.4A4.15,4.15,0,0,1,76.46-8.8a3.09,3.09,0,0,1,1.033,2.483V-2.2a4.546,4.546,0,0,0,.378,2.048V0ZM73.2-1.767a2.188,2.188,0,0,0,1.037-.25,1.645,1.645,0,0,0,.7-.672V-4.324H74q-1.907,0-2.03,1.318l-.009.149a1.017,1.017,0,0,0,.334.782A1.3,1.3,0,0,0,73.2-1.767Z" transform="translate(481 1079)" fill="#12263f"/>
    <path id="Trazado_125915" data-name="Trazado 125915" d="M11.188-4.263A4.528,4.528,0,0,1,9.664-1.011,5.355,5.355,0,0,1,6.038.176,4.816,4.816,0,0,1,2.167-1.481,6.793,6.793,0,0,1,.756-6.029v-.782a7.671,7.671,0,0,1,.65-3.252,4.874,4.874,0,0,1,1.859-2.158,5.207,5.207,0,0,1,2.808-.751,5.217,5.217,0,0,1,3.568,1.187,4.866,4.866,0,0,1,1.564,3.331H8.569a2.673,2.673,0,0,0-.69-1.8,2.555,2.555,0,0,0-1.806-.558A2.24,2.24,0,0,0,4.1-9.866a5.3,5.3,0,0,0-.672,2.931v.967a5.667,5.667,0,0,0,.628,3.032,2.2,2.2,0,0,0,1.982.958,2.6,2.6,0,0,0,1.824-.558,2.521,2.521,0,0,0,.69-1.727ZM18.264,0a2.821,2.821,0,0,1-.255-.853,3.073,3.073,0,0,1-2.4,1.028,3.376,3.376,0,0,1-2.316-.809,2.6,2.6,0,0,1-.918-2.039A2.687,2.687,0,0,1,13.5-4.992a5.529,5.529,0,0,1,3.239-.817H17.9v-.545a1.567,1.567,0,0,0-.338-1.055A1.331,1.331,0,0,0,16.5-7.8a1.513,1.513,0,0,0-1.006.308,1.045,1.045,0,0,0-.365.844h-2.54a2.551,2.551,0,0,1,.51-1.529,3.37,3.37,0,0,1,1.441-1.1,5.253,5.253,0,0,1,2.092-.4,4.15,4.15,0,0,1,2.791.883,3.09,3.09,0,0,1,1.033,2.483V-2.2A4.546,4.546,0,0,0,20.83-.149V0Zm-2.1-1.767a2.188,2.188,0,0,0,1.037-.25,1.645,1.645,0,0,0,.7-.672V-4.324h-.949q-1.907,0-2.03,1.318l-.009.149a1.017,1.017,0,0,0,.334.782A1.3,1.3,0,0,0,16.163-1.767Zm9.281-10.081V-9.51H27.07v1.863H25.444V-2.9a1.133,1.133,0,0,0,.2.756,1.015,1.015,0,0,0,.773.229,4.051,4.051,0,0,0,.747-.062V-.053a5.229,5.229,0,0,1-1.538.229,2.425,2.425,0,0,1-2.725-2.7V-7.646H21.516V-9.51H22.9v-2.338ZM32.862.176a4.668,4.668,0,0,1-3.406-1.283,4.561,4.561,0,0,1-1.314-3.419v-.246A5.745,5.745,0,0,1,28.7-7.334a4.064,4.064,0,0,1,1.569-1.74,4.4,4.4,0,0,1,2.316-.611,3.947,3.947,0,0,1,3.072,1.23,5,5,0,0,1,1.121,3.489v1.037H30.718a2.36,2.36,0,0,0,.743,1.494,2.245,2.245,0,0,0,1.569.563,2.742,2.742,0,0,0,2.294-1.063l1.248,1.4A3.813,3.813,0,0,1,35.024-.277,5.075,5.075,0,0,1,32.862.176Zm-.29-7.813a1.587,1.587,0,0,0-1.226.512,2.651,2.651,0,0,0-.6,1.466h3.533v-.2a1.891,1.891,0,0,0-.457-1.311A1.638,1.638,0,0,0,32.572-7.638Zm5.273,2.813A5.573,5.573,0,0,1,38.887-8.35,3.375,3.375,0,0,1,41.7-9.686,2.96,2.96,0,0,1,44.13-8.613l.105-.9h2.3V-.316a4.064,4.064,0,0,1-.567,2.171,3.641,3.641,0,0,1-1.6,1.406,5.608,5.608,0,0,1-2.408.483,5.215,5.215,0,0,1-2.039-.417,3.619,3.619,0,0,1-1.5-1.077L39.551.7a2.975,2.975,0,0,0,2.3,1.063,2.178,2.178,0,0,0,1.573-.541,2.027,2.027,0,0,0,.563-1.534v-.51a2.938,2.938,0,0,1-2.312.993A3.366,3.366,0,0,1,38.9-1.165,5.572,5.572,0,0,1,37.846-4.72Zm2.54.181A3.489,3.489,0,0,0,40.9-2.609a1.648,1.648,0,0,0,1.424.737,1.762,1.762,0,0,0,1.661-.874V-6.764a1.758,1.758,0,0,0-1.644-.874,1.659,1.659,0,0,0-1.437.751A3.933,3.933,0,0,0,40.386-4.644Zm7.708-.2a5.64,5.64,0,0,1,.545-2.522,3.989,3.989,0,0,1,1.569-1.714,4.577,4.577,0,0,1,2.377-.606,4.33,4.33,0,0,1,3.142,1.178,4.727,4.727,0,0,1,1.358,3.2l.018.65a4.97,4.97,0,0,1-1.222,3.511A4.247,4.247,0,0,1,52.6.176,4.268,4.268,0,0,1,49.32-1.143a5.058,5.058,0,0,1-1.226-3.586Zm2.54.18a3.555,3.555,0,0,0,.51,2.073,1.682,1.682,0,0,0,1.459.717,1.686,1.686,0,0,0,1.441-.709,3.89,3.89,0,0,0,.519-2.267,3.519,3.519,0,0,0-.519-2.06,1.686,1.686,0,0,0-1.459-.731,1.658,1.658,0,0,0-1.441.726A3.955,3.955,0,0,0,50.634-4.662ZM53.086-13.5h2.769L53.42-10.775H51.354ZM64.011-7.128A6.9,6.9,0,0,0,63.1-7.2a1.86,1.86,0,0,0-1.89.976V0h-2.54V-9.51h2.4l.07,1.134a2.354,2.354,0,0,1,2.118-1.31,2.662,2.662,0,0,1,.791.114ZM67.913,0H65.364V-9.51h2.549Zm-2.7-11.971a1.251,1.251,0,0,1,.382-.94,1.436,1.436,0,0,1,1.042-.369,1.44,1.44,0,0,1,1.037.369,1.244,1.244,0,0,1,.387.94,1.247,1.247,0,0,1-.391.949,1.443,1.443,0,0,1-1.033.369,1.443,1.443,0,0,1-1.033-.369A1.247,1.247,0,0,1,65.215-11.971Zm8.745,10.1A1.666,1.666,0,0,0,75.1-2.259a1.355,1.355,0,0,0,.457-1.028h2.382a3.258,3.258,0,0,1-.527,1.771A3.48,3.48,0,0,1,75.995-.268,4.442,4.442,0,0,1,74,.176a4.129,4.129,0,0,1-3.217-1.3A5.13,5.13,0,0,1,69.609-4.7v-.167a5.071,5.071,0,0,1,1.169-3.507,4.08,4.08,0,0,1,3.208-1.31A4,4,0,0,1,76.847-8.67a3.594,3.594,0,0,1,1.094,2.7H75.56A1.745,1.745,0,0,0,75.1-7.174a1.524,1.524,0,0,0-1.16-.464,1.53,1.53,0,0,0-1.34.647,3.749,3.749,0,0,0-.453,2.1v.264A3.8,3.8,0,0,0,72.6-2.515,1.549,1.549,0,0,0,73.96-1.872ZM84.9,0a2.821,2.821,0,0,1-.255-.853,3.073,3.073,0,0,1-2.4,1.028,3.376,3.376,0,0,1-2.316-.809,2.6,2.6,0,0,1-.918-2.039,2.687,2.687,0,0,1,1.121-2.32,5.529,5.529,0,0,1,3.239-.817h1.169v-.545A1.567,1.567,0,0,0,84.2-7.409a1.331,1.331,0,0,0-1.068-.4,1.513,1.513,0,0,0-1.006.308,1.045,1.045,0,0,0-.365.844h-2.54a2.551,2.551,0,0,1,.51-1.529,3.37,3.37,0,0,1,1.441-1.1,5.253,5.253,0,0,1,2.092-.4,4.15,4.15,0,0,1,2.791.883,3.09,3.09,0,0,1,1.033,2.483V-2.2a4.546,4.546,0,0,0,.378,2.048V0ZM82.8-1.767a2.188,2.188,0,0,0,1.037-.25,1.645,1.645,0,0,0,.7-.672V-4.324h-.949q-1.907,0-2.03,1.318l-.009.149a1.017,1.017,0,0,0,.334.782A1.3,1.3,0,0,0,82.8-1.767Z" transform="translate(473 1243)" fill="#12263f"/>
    <path id="Trazado_125921" data-name="Trazado 125921" d="M11.188-4.263A4.528,4.528,0,0,1,9.664-1.011,5.355,5.355,0,0,1,6.038.176,4.816,4.816,0,0,1,2.167-1.481,6.793,6.793,0,0,1,.756-6.029v-.782a7.671,7.671,0,0,1,.65-3.252,4.874,4.874,0,0,1,1.859-2.158,5.207,5.207,0,0,1,2.808-.751,5.217,5.217,0,0,1,3.568,1.187,4.866,4.866,0,0,1,1.564,3.331H8.569a2.673,2.673,0,0,0-.69-1.8,2.555,2.555,0,0,0-1.806-.558A2.24,2.24,0,0,0,4.1-9.866a5.3,5.3,0,0,0-.672,2.931v.967a5.667,5.667,0,0,0,.628,3.032,2.2,2.2,0,0,0,1.982.958,2.6,2.6,0,0,0,1.824-.558,2.521,2.521,0,0,0,.69-1.727Zm1.169-.58A5.64,5.64,0,0,1,12.9-7.365a3.989,3.989,0,0,1,1.569-1.714,4.577,4.577,0,0,1,2.377-.606,4.33,4.33,0,0,1,3.142,1.178,4.727,4.727,0,0,1,1.358,3.2l.018.65a4.97,4.97,0,0,1-1.222,3.511A4.247,4.247,0,0,1,16.866.176a4.268,4.268,0,0,1-3.283-1.318,5.058,5.058,0,0,1-1.226-3.586Zm2.54.18a3.555,3.555,0,0,0,.51,2.073,1.682,1.682,0,0,0,1.459.717,1.686,1.686,0,0,0,1.441-.709,3.89,3.89,0,0,0,.519-2.267,3.519,3.519,0,0,0-.519-2.06,1.686,1.686,0,0,0-1.459-.731,1.658,1.658,0,0,0-1.441.726A3.955,3.955,0,0,0,14.9-4.662ZM25.269-9.51l.079,1.1a3.32,3.32,0,0,1,2.733-1.274,2.759,2.759,0,0,1,2.25.888,4.142,4.142,0,0,1,.756,2.654V0h-2.54V-6.1A1.654,1.654,0,0,0,28.2-7.272a1.572,1.572,0,0,0-1.169-.366,1.747,1.747,0,0,0-1.608.916V0h-2.54V-9.51Zm10.784-2.338V-9.51h1.626v1.863H36.053V-2.9a1.133,1.133,0,0,0,.2.756,1.015,1.015,0,0,0,.773.229,4.051,4.051,0,0,0,.747-.062V-.053a5.229,5.229,0,0,1-1.538.229,2.425,2.425,0,0,1-2.725-2.7V-7.646H32.124V-9.51h1.389v-2.338ZM41.836,0H39.3V-9.51h2.54Zm-.747-13.368h2.769l-2.435,2.725H39.357ZM46.362-9.51l.079,1.1a3.32,3.32,0,0,1,2.733-1.274,2.759,2.759,0,0,1,2.25.888,4.142,4.142,0,0,1,.756,2.654V0h-2.54V-6.1a1.654,1.654,0,0,0-.352-1.176,1.572,1.572,0,0,0-1.169-.366,1.747,1.747,0,0,0-1.608.916V0h-2.54V-9.51ZM59.8-.967A3.185,3.185,0,0,1,57.2.176,3,3,0,0,1,54.866-.7a3.752,3.752,0,0,1-.822-2.575V-9.51h2.54v6.151q0,1.487,1.354,1.487a1.834,1.834,0,0,0,1.775-.9V-9.51h2.549V0H59.871ZM69.688,0a2.821,2.821,0,0,1-.255-.853,3.073,3.073,0,0,1-2.4,1.028,3.376,3.376,0,0,1-2.316-.809A2.6,2.6,0,0,1,63.8-2.672a2.687,2.687,0,0,1,1.121-2.32,5.529,5.529,0,0,1,3.239-.817h1.169v-.545a1.567,1.567,0,0,0-.338-1.055,1.331,1.331,0,0,0-1.068-.4,1.513,1.513,0,0,0-1.006.308,1.045,1.045,0,0,0-.365.844h-2.54a2.551,2.551,0,0,1,.51-1.529,3.37,3.37,0,0,1,1.441-1.1,5.253,5.253,0,0,1,2.092-.4,4.15,4.15,0,0,1,2.791.883,3.09,3.09,0,0,1,1.033,2.483V-2.2a4.546,4.546,0,0,0,.378,2.048V0Zm-2.1-1.767a2.188,2.188,0,0,0,1.037-.25,1.645,1.645,0,0,0,.7-.672V-4.324h-.949q-1.907,0-2.03,1.318l-.009.149a1.017,1.017,0,0,0,.334.782A1.3,1.3,0,0,0,67.588-1.767Z" transform="translate(742 1038)" fill="#12263f"/>
    <path id="Trazado_125918" data-name="Trazado 125918" d="M1.143,0V-12.8H5.08a5.98,5.98,0,0,1,3.019.76,5.3,5.3,0,0,1,2.079,2.162,6.669,6.669,0,0,1,.747,3.186V-6.1a6.688,6.688,0,0,1-.734,3.173A5.256,5.256,0,0,1,8.121-.773,6.025,6.025,0,0,1,5.106,0ZM3.779-10.661v8.543H5.054A2.863,2.863,0,0,0,7.418-3.129a4.567,4.567,0,0,0,.835-2.892V-6.7a4.64,4.64,0,0,0-.809-2.958A2.854,2.854,0,0,0,5.08-10.661ZM15.354,0H12.806V-9.51h2.549Zm-2.7-11.971a1.251,1.251,0,0,1,.382-.94,1.436,1.436,0,0,1,1.042-.369,1.44,1.44,0,0,1,1.037.369,1.244,1.244,0,0,1,.387.94,1.247,1.247,0,0,1-.391.949,1.443,1.443,0,0,1-1.033.369,1.443,1.443,0,0,1-1.033-.369A1.247,1.247,0,0,1,12.656-11.971ZM22.6-2.628a.818.818,0,0,0-.461-.734,5.241,5.241,0,0,0-1.481-.479q-3.393-.712-3.393-2.883a2.613,2.613,0,0,1,1.05-2.114,4.237,4.237,0,0,1,2.747-.848,4.56,4.56,0,0,1,2.9.853A2.687,2.687,0,0,1,25.04-6.618H22.5a1.229,1.229,0,0,0-.352-.9,1.488,1.488,0,0,0-1.1-.356,1.52,1.52,0,0,0-.993.29.916.916,0,0,0-.352.738.783.783,0,0,0,.4.681,4.114,4.114,0,0,0,1.349.448,11.019,11.019,0,0,1,1.6.426,2.628,2.628,0,0,1,2.013,2.558,2.481,2.481,0,0,1-1.116,2.1,4.815,4.815,0,0,1-2.883.8A5.029,5.029,0,0,1,18.945-.25,3.561,3.561,0,0,1,17.49-1.419a2.716,2.716,0,0,1-.527-1.6h2.408a1.326,1.326,0,0,0,.5,1.037,1.987,1.987,0,0,0,1.248.36,1.839,1.839,0,0,0,1.1-.277A.861.861,0,0,0,22.6-2.628Zm8.06.756A1.666,1.666,0,0,0,31.8-2.259a1.355,1.355,0,0,0,.457-1.028h2.382a3.258,3.258,0,0,1-.527,1.771A3.48,3.48,0,0,1,32.691-.268,4.442,4.442,0,0,1,30.7.176a4.129,4.129,0,0,1-3.217-1.3A5.13,5.13,0,0,1,26.306-4.7v-.167a5.071,5.071,0,0,1,1.169-3.507,4.08,4.08,0,0,1,3.208-1.31A4,4,0,0,1,33.543-8.67a3.594,3.594,0,0,1,1.094,2.7H32.256A1.745,1.745,0,0,0,31.8-7.174a1.524,1.524,0,0,0-1.16-.464,1.53,1.53,0,0,0-1.34.647,3.749,3.749,0,0,0-.453,2.1v.264a3.8,3.8,0,0,0,.448,2.113A1.549,1.549,0,0,0,30.656-1.872ZM41.432-7.128a6.9,6.9,0,0,0-.914-.07,1.86,1.86,0,0,0-1.89.976V0h-2.54V-9.51h2.4l.07,1.134a2.354,2.354,0,0,1,2.118-1.31,2.662,2.662,0,0,1,.791.114Zm5.432,7.3a4.668,4.668,0,0,1-3.406-1.283,4.561,4.561,0,0,1-1.314-3.419v-.246A5.745,5.745,0,0,1,42.7-7.334a4.064,4.064,0,0,1,1.569-1.74,4.4,4.4,0,0,1,2.316-.611,3.947,3.947,0,0,1,3.072,1.23,5,5,0,0,1,1.121,3.489v1.037H44.719a2.36,2.36,0,0,0,.743,1.494,2.245,2.245,0,0,0,1.569.563,2.742,2.742,0,0,0,2.294-1.063l1.248,1.4A3.813,3.813,0,0,1,49.025-.277,5.075,5.075,0,0,1,46.863.176Zm-.29-7.813a1.587,1.587,0,0,0-1.226.512,2.651,2.651,0,0,0-.6,1.466h3.533v-.2a1.891,1.891,0,0,0-.457-1.311A1.638,1.638,0,0,0,46.573-7.638Zm8.684-4.21V-9.51h1.626v1.863H55.257V-2.9a1.133,1.133,0,0,0,.2.756,1.015,1.015,0,0,0,.773.229,4.051,4.051,0,0,0,.747-.062V-.053a5.229,5.229,0,0,1-1.538.229,2.425,2.425,0,0,1-2.725-2.7V-7.646H51.328V-9.51h1.389v-2.338ZM63.809,0a2.821,2.821,0,0,1-.255-.853,3.073,3.073,0,0,1-2.4,1.028,3.376,3.376,0,0,1-2.316-.809,2.6,2.6,0,0,1-.918-2.039,2.687,2.687,0,0,1,1.121-2.32,5.529,5.529,0,0,1,3.239-.817h1.169v-.545a1.567,1.567,0,0,0-.338-1.055,1.331,1.331,0,0,0-1.068-.4,1.513,1.513,0,0,0-1.006.308,1.045,1.045,0,0,0-.365.844h-2.54a2.551,2.551,0,0,1,.51-1.529,3.37,3.37,0,0,1,1.441-1.1,5.253,5.253,0,0,1,2.092-.4,4.15,4.15,0,0,1,2.791.883A3.09,3.09,0,0,1,66-6.319V-2.2a4.546,4.546,0,0,0,.378,2.048V0Zm-2.1-1.767a2.188,2.188,0,0,0,1.037-.25,1.645,1.645,0,0,0,.7-.672V-4.324H62.5q-1.907,0-2.03,1.318l-.009.149a1.017,1.017,0,0,0,.334.782A1.3,1.3,0,0,0,61.708-1.767Z" transform="translate(742 1107)" fill="#12263f"/>
    <path id="Trazado_125913" data-name="Trazado 125913" d="M11.654-6.108a7.725,7.725,0,0,1-.668,3.313A5.03,5.03,0,0,1,9.075-.6,5.288,5.288,0,0,1,6.223.176,5.324,5.324,0,0,1,3.384-.589,5.08,5.08,0,0,1,1.45-2.773,7.5,7.5,0,0,1,.756-6.038v-.633A7.685,7.685,0,0,1,1.437-10,5.072,5.072,0,0,1,3.362-12.2a5.3,5.3,0,0,1,2.843-.769,5.3,5.3,0,0,1,2.843.769A5.072,5.072,0,0,1,10.973-10a7.663,7.663,0,0,1,.681,3.318Zm-2.672-.58a5.385,5.385,0,0,0-.721-3.059,2.349,2.349,0,0,0-2.057-1.046A2.349,2.349,0,0,0,4.157-9.76a5.324,5.324,0,0,0-.729,3.028v.624a5.453,5.453,0,0,0,.721,3.041A2.342,2.342,0,0,0,6.223-1.986,2.321,2.321,0,0,0,8.262-3.028a5.421,5.421,0,0,0,.721-3.037Zm9.765-.439a6.9,6.9,0,0,0-.914-.07,1.86,1.86,0,0,0-1.89.976V0H13.4V-9.51h2.4l.07,1.134a2.354,2.354,0,0,1,2.118-1.31,2.662,2.662,0,0,1,.791.114Zm.659,2.3a5.731,5.731,0,0,1,1-3.542,3.237,3.237,0,0,1,2.729-1.318,2.913,2.913,0,0,1,2.294,1.037V-13.5h2.549V0H25.682l-.123-1.011A2.989,2.989,0,0,1,23.115.176a3.228,3.228,0,0,1-2.694-1.323A5.916,5.916,0,0,1,19.406-4.825Zm2.54.181a3.775,3.775,0,0,0,.466,2.057,1.516,1.516,0,0,0,1.354.715,1.7,1.7,0,0,0,1.661-1V-6.64a1.675,1.675,0,0,0-1.644-1Q21.946-7.638,21.946-4.644ZM32.625,0H30.076V-9.51h2.549Zm-2.7-11.971a1.251,1.251,0,0,1,.382-.94,1.436,1.436,0,0,1,1.042-.369,1.44,1.44,0,0,1,1.037.369,1.244,1.244,0,0,1,.387.94,1.247,1.247,0,0,1-.391.949,1.443,1.443,0,0,1-1.033.369,1.443,1.443,0,0,1-1.033-.369A1.247,1.247,0,0,1,29.927-11.971ZM37.055-9.51l.079,1.1a3.32,3.32,0,0,1,2.733-1.274,2.759,2.759,0,0,1,2.25.888,4.142,4.142,0,0,1,.756,2.654V0h-2.54V-6.1a1.654,1.654,0,0,0-.352-1.176,1.572,1.572,0,0,0-1.169-.366,1.747,1.747,0,0,0-1.608.916V0h-2.54V-9.51ZM50.309,0a2.821,2.821,0,0,1-.255-.853,3.073,3.073,0,0,1-2.4,1.028,3.376,3.376,0,0,1-2.316-.809,2.6,2.6,0,0,1-.918-2.039,2.687,2.687,0,0,1,1.121-2.32,5.529,5.529,0,0,1,3.239-.817h1.169v-.545a1.567,1.567,0,0,0-.338-1.055,1.331,1.331,0,0,0-1.068-.4,1.513,1.513,0,0,0-1.006.308,1.045,1.045,0,0,0-.365.844h-2.54a2.551,2.551,0,0,1,.51-1.529,3.37,3.37,0,0,1,1.441-1.1,5.253,5.253,0,0,1,2.092-.4,4.15,4.15,0,0,1,2.791.883A3.09,3.09,0,0,1,52.5-6.319V-2.2a4.546,4.546,0,0,0,.378,2.048V0Zm-2.1-1.767a2.188,2.188,0,0,0,1.037-.25,1.645,1.645,0,0,0,.7-.672V-4.324H49q-1.907,0-2.03,1.318l-.009.149a1.017,1.017,0,0,0,.334.782A1.3,1.3,0,0,0,48.208-1.767ZM57.129,0H54.58V-13.5h2.549Z" transform="translate(742 1203)" fill="#12263f"/>
    <path id="Trazado_125911" data-name="Trazado 125911" d="M11.549,0H8.912L3.779-8.42V0H1.143V-12.8H3.779L8.921-4.359V-12.8h2.628Zm1.74-4.843a5.64,5.64,0,0,1,.545-2.522A3.989,3.989,0,0,1,15.4-9.079a4.577,4.577,0,0,1,2.377-.606,4.33,4.33,0,0,1,3.142,1.178,4.727,4.727,0,0,1,1.358,3.2l.018.65a4.97,4.97,0,0,1-1.222,3.511A4.247,4.247,0,0,1,17.8.176a4.268,4.268,0,0,1-3.283-1.318,5.058,5.058,0,0,1-1.226-3.586Zm2.54.18a3.555,3.555,0,0,0,.51,2.073,1.682,1.682,0,0,0,1.459.717,1.686,1.686,0,0,0,1.441-.709,3.89,3.89,0,0,0,.519-2.267,3.519,3.519,0,0,0-.519-2.06,1.686,1.686,0,0,0-1.459-.731,1.658,1.658,0,0,0-1.441.726A3.955,3.955,0,0,0,15.829-4.662ZM26.244-9.51l.079,1.063a3.342,3.342,0,0,1,2.733-1.239,2.536,2.536,0,0,1,2.522,1.45,3.265,3.265,0,0,1,2.856-1.45,2.836,2.836,0,0,1,2.3.9,4.141,4.141,0,0,1,.756,2.711V0H34.945V-6.078a1.818,1.818,0,0,0-.316-1.185,1.4,1.4,0,0,0-1.116-.374,1.585,1.585,0,0,0-1.582,1.092L31.939,0H29.4V-6.07a1.8,1.8,0,0,0-.325-1.2,1.414,1.414,0,0,0-1.107-.37,1.645,1.645,0,0,0-1.564.9V0h-2.54V-9.51ZM42.126,0H39.577V-9.51h2.549Zm-2.7-11.971a1.251,1.251,0,0,1,.382-.94,1.436,1.436,0,0,1,1.042-.369,1.44,1.44,0,0,1,1.037.369,1.244,1.244,0,0,1,.387.94,1.247,1.247,0,0,1-.391.949,1.443,1.443,0,0,1-1.033.369,1.443,1.443,0,0,1-1.033-.369A1.247,1.247,0,0,1,39.428-11.971ZM46.556-9.51l.079,1.1a3.32,3.32,0,0,1,2.733-1.274,2.759,2.759,0,0,1,2.25.888,4.142,4.142,0,0,1,.756,2.654V0h-2.54V-6.1a1.654,1.654,0,0,0-.352-1.176,1.572,1.572,0,0,0-1.169-.366,1.747,1.747,0,0,0-1.608.916V0h-2.54V-9.51ZM59.81,0a2.821,2.821,0,0,1-.255-.853,3.073,3.073,0,0,1-2.4,1.028,3.376,3.376,0,0,1-2.316-.809,2.6,2.6,0,0,1-.918-2.039,2.687,2.687,0,0,1,1.121-2.32A5.529,5.529,0,0,1,58.28-5.81h1.169v-.545a1.567,1.567,0,0,0-.338-1.055,1.331,1.331,0,0,0-1.068-.4,1.513,1.513,0,0,0-1.006.308,1.045,1.045,0,0,0-.365.844h-2.54a2.551,2.551,0,0,1,.51-1.529,3.37,3.37,0,0,1,1.441-1.1,5.253,5.253,0,0,1,2.092-.4,4.15,4.15,0,0,1,2.791.883A3.09,3.09,0,0,1,62-6.319V-2.2a4.546,4.546,0,0,0,.378,2.048V0Zm-2.1-1.767a2.188,2.188,0,0,0,1.037-.25,1.645,1.645,0,0,0,.7-.672V-4.324H58.5q-1.907,0-2.03,1.318l-.009.149a1.017,1.017,0,0,0,.334.782A1.3,1.3,0,0,0,57.709-1.767ZM66.63,0H64.081V-13.5H66.63Z" transform="translate(742 1273)" fill="#12263f"/>
    <g id="Grupo_83616" data-name="Grupo 83616" transform="translate(258.627 1176.831)">
      <g id="Grupo_83615" data-name="Grupo 83615">
        <path id="Trazado_104411" data-name="Trazado 104411" d="M152.346,61.566c.034-.045.069-.089.1-.136s.057-.093.085-.14.052-.082.075-.125.047-.1.071-.148.043-.088.062-.134.036-.1.053-.145.036-.1.051-.147.026-.1.039-.148.027-.1.037-.154.018-.116.027-.175c.006-.044.014-.086.018-.131a3.129,3.129,0,0,0,0-.627c0-.045-.012-.087-.018-.131s-.016-.118-.027-.176-.025-.1-.037-.153-.024-.1-.039-.148-.033-.1-.051-.147-.034-.1-.053-.146-.042-.089-.062-.133-.046-.1-.071-.148-.05-.084-.075-.126-.054-.094-.085-.14-.066-.09-.1-.135-.054-.077-.084-.114c-.067-.081-.137-.158-.21-.232l-19.5-19.5a3.171,3.171,0,1,0-4.485,4.485L142.153,56.5H102.545a3.171,3.171,0,1,0,0,6.343h39.608L128.071,76.922a3.171,3.171,0,1,0,4.485,4.485l19.5-19.495c.073-.074.143-.152.21-.232C152.292,61.643,152.318,61.6,152.346,61.566Z" fill="#dbbe36"/>
      </g>
    </g>
    <g id="Grupo_83617" data-name="Grupo 83617" transform="translate(258.627 1004.997)">
      <g id="Grupo_83615-2" data-name="Grupo 83615">
        <path id="Trazado_104411-2" data-name="Trazado 104411" d="M152.346,61.566c.034-.045.069-.089.1-.136s.057-.093.085-.14.052-.082.075-.125.047-.1.071-.148.043-.088.062-.134.036-.1.053-.145.036-.1.051-.147.026-.1.039-.148.027-.1.037-.154.018-.116.027-.175c.006-.044.014-.086.018-.131a3.129,3.129,0,0,0,0-.627c0-.045-.012-.087-.018-.131s-.016-.118-.027-.176-.025-.1-.037-.153-.024-.1-.039-.148-.033-.1-.051-.147-.034-.1-.053-.146-.042-.089-.062-.133-.046-.1-.071-.148-.05-.084-.075-.126-.054-.094-.085-.14-.066-.09-.1-.135-.054-.077-.084-.114c-.067-.081-.137-.158-.21-.232l-19.5-19.5a3.171,3.171,0,1,0-4.485,4.485L142.153,56.5H102.545a3.171,3.171,0,1,0,0,6.343h39.608L128.071,76.922a3.171,3.171,0,1,0,4.485,4.485l19.5-19.495c.073-.074.143-.152.21-.232C152.292,61.643,152.318,61.6,152.346,61.566Z" fill="#dbbe36"/>
      </g>
    </g>
    <g id="Grupo_83618" data-name="Grupo 83618" transform="translate(510.627 1004.997)">
      <g id="Grupo_83615-3" data-name="Grupo 83615">
        <path id="Trazado_104411-3" data-name="Trazado 104411" d="M152.346,61.566c.034-.045.069-.089.1-.136s.057-.093.085-.14.052-.082.075-.125.047-.1.071-.148.043-.088.062-.134.036-.1.053-.145.036-.1.051-.147.026-.1.039-.148.027-.1.037-.154.018-.116.027-.175c.006-.044.014-.086.018-.131a3.129,3.129,0,0,0,0-.627c0-.045-.012-.087-.018-.131s-.016-.118-.027-.176-.025-.1-.037-.153-.024-.1-.039-.148-.033-.1-.051-.147-.034-.1-.053-.146-.042-.089-.062-.133-.046-.1-.071-.148-.05-.084-.075-.126-.054-.094-.085-.14-.066-.09-.1-.135-.054-.077-.084-.114c-.067-.081-.137-.158-.21-.232l-19.5-19.5a3.171,3.171,0,1,0-4.485,4.485L142.153,56.5H102.545a3.171,3.171,0,1,0,0,6.343h39.608L128.071,76.922a3.171,3.171,0,1,0,4.485,4.485l19.5-19.495c.073-.074.143-.152.21-.232C152.292,61.643,152.318,61.6,152.346,61.566Z" fill="#dbbe36"/>
      </g>
    </g>
    <g id="Grupo_83619" data-name="Grupo 83619" transform="translate(510.627 1174.83)">
      <g id="Grupo_83615-4" data-name="Grupo 83615">
        <path id="Trazado_104411-4" data-name="Trazado 104411" d="M152.346,61.566c.034-.045.069-.089.1-.136s.057-.093.085-.14.052-.082.075-.125.047-.1.071-.148.043-.088.062-.134.036-.1.053-.145.036-.1.051-.147.026-.1.039-.148.027-.1.037-.154.018-.116.027-.175c.006-.044.014-.086.018-.131a3.129,3.129,0,0,0,0-.627c0-.045-.012-.087-.018-.131s-.016-.118-.027-.176-.025-.1-.037-.153-.024-.1-.039-.148-.033-.1-.051-.147-.034-.1-.053-.146-.042-.089-.062-.133-.046-.1-.071-.148-.05-.084-.075-.126-.054-.094-.085-.14-.066-.09-.1-.135-.054-.077-.084-.114c-.067-.081-.137-.158-.21-.232l-19.5-19.5a3.171,3.171,0,1,0-4.485,4.485L142.153,56.5H102.545a3.171,3.171,0,1,0,0,6.343h39.608L128.071,76.922a3.171,3.171,0,1,0,4.485,4.485l19.5-19.495c.073-.074.143-.152.21-.232C152.292,61.643,152.318,61.6,152.346,61.566Z" fill="#dbbe36"/>
      </g>
    </g>
  </g>
</svg>
